<?xml version="1.0" encoding="utf-8"?>
<!-- Generator: Adobe Illustrator 21.1.0, SVG Export Plug-In . SVG Version: 6.00 Build 0)  -->
<svg version="1.1" id="Layer_1" xmlns="http://www.w3.org/2000/svg" xmlns:xlink="http://www.w3.org/1999/xlink" x="0px" y="0px"
	 viewBox="0 0 735 555" style="enable-background:new 0 0 735 555;" xml:space="preserve">
<style type="text/css">
	.st0{clip-path:url(#SVGID_2_);fill:#FFFFFF;}
	.st1{fill:#FFFFFF;}
	.st2{fill:none;stroke:#262626;stroke-width:0.6667;stroke-linecap:square;stroke-linejoin:round;stroke-miterlimit:10;}
	.st3{fill:#262626;}
	.st4{font-family:'MyriadPro-Regular';}
	.st5{font-size:21px;}
	.st6{font-size:16px;}
	.st7{font-size:23px;}
	.st8{fill:none;stroke:#00FF00;stroke-width:2.6667;stroke-linejoin:round;stroke-miterlimit:10;}
	.st9{fill:none;stroke:#0000FF;stroke-width:2.6667;stroke-linejoin:round;stroke-miterlimit:10;}
	.st10{fill:none;stroke:#FF0000;stroke-width:2.6667;stroke-linejoin:round;stroke-miterlimit:10;}
	.st11{fill:none;stroke:#000000;stroke-width:1.3333;stroke-linejoin:round;stroke-miterlimit:10;}
	.st12{font-size:19px;}
	.st13{fill:none;stroke:#262626;stroke-width:0.6667;stroke-miterlimit:10;}
</style>
<g>
	<g>
		<g>
			<defs>
				<rect id="SVGID_1_" y="0" width="735" height="555"/>
			</defs>
			<clipPath id="SVGID_2_">
				<use xlink:href="#SVGID_1_"  style="overflow:visible;"/>
			</clipPath>
			<rect y="0" class="st0" width="735" height="555"/>
		</g>
	</g>
	<g>
		<rect y="0" class="st1" width="735" height="555"/>
		<path class="st1" d="M96,485h569V42H96V485z"/>
	</g>
	<g>
		<line class="st2" x1="96" y1="485" x2="665" y2="485"/>
		<line class="st2" x1="96" y1="42" x2="665" y2="42"/>
		<line class="st2" x1="203.5" y1="485" x2="203.5" y2="479.3"/>
		<line class="st2" x1="357.3" y1="485" x2="357.3" y2="479.3"/>
		<line class="st2" x1="511.2" y1="485" x2="511.2" y2="479.3"/>
		<line class="st2" x1="665" y1="485" x2="665" y2="479.3"/>
		<line class="st2" x1="203.5" y1="42" x2="203.5" y2="47.7"/>
		<line class="st2" x1="357.3" y1="42" x2="357.3" y2="47.7"/>
		<line class="st2" x1="511.2" y1="42" x2="511.2" y2="47.7"/>
		<line class="st2" x1="665" y1="42" x2="665" y2="47.7"/>
		<line class="st2" x1="123.1" y1="485" x2="123.1" y2="482.2"/>
		<line class="st2" x1="142.3" y1="485" x2="142.3" y2="482.2"/>
		<line class="st2" x1="157.2" y1="485" x2="157.2" y2="482.2"/>
		<line class="st2" x1="169.4" y1="485" x2="169.4" y2="482.2"/>
		<line class="st2" x1="179.7" y1="485" x2="179.7" y2="482.2"/>
		<line class="st2" x1="188.6" y1="485" x2="188.6" y2="482.2"/>
		<line class="st2" x1="196.5" y1="485" x2="196.5" y2="482.2"/>
		<line class="st2" x1="249.8" y1="485" x2="249.8" y2="482.2"/>
		<line class="st2" x1="276.9" y1="485" x2="276.9" y2="482.2"/>
		<line class="st2" x1="296.1" y1="485" x2="296.1" y2="482.2"/>
		<line class="st2" x1="311" y1="485" x2="311" y2="482.2"/>
		<line class="st2" x1="323.2" y1="485" x2="323.2" y2="482.2"/>
		<line class="st2" x1="333.5" y1="485" x2="333.5" y2="482.2"/>
		<line class="st2" x1="342.4" y1="485" x2="342.4" y2="482.2"/>
		<line class="st2" x1="350.3" y1="485" x2="350.3" y2="482.2"/>
		<line class="st2" x1="403.7" y1="485" x2="403.7" y2="482.2"/>
		<line class="st2" x1="430.7" y1="485" x2="430.7" y2="482.2"/>
		<line class="st2" x1="450" y1="485" x2="450" y2="482.2"/>
		<line class="st2" x1="464.9" y1="485" x2="464.9" y2="482.2"/>
		<line class="st2" x1="477" y1="485" x2="477" y2="482.2"/>
		<line class="st2" x1="487.3" y1="485" x2="487.3" y2="482.2"/>
		<line class="st2" x1="496.3" y1="485" x2="496.3" y2="482.2"/>
		<line class="st2" x1="504.1" y1="485" x2="504.1" y2="482.2"/>
		<line class="st2" x1="557.5" y1="485" x2="557.5" y2="482.2"/>
		<line class="st2" x1="584.6" y1="485" x2="584.6" y2="482.2"/>
		<line class="st2" x1="603.8" y1="485" x2="603.8" y2="482.2"/>
		<line class="st2" x1="618.7" y1="485" x2="618.7" y2="482.2"/>
		<line class="st2" x1="630.9" y1="485" x2="630.9" y2="482.2"/>
		<line class="st2" x1="641.2" y1="485" x2="641.2" y2="482.2"/>
		<line class="st2" x1="650.1" y1="485" x2="650.1" y2="482.2"/>
		<line class="st2" x1="658" y1="485" x2="658" y2="482.2"/>
		<line class="st2" x1="123.1" y1="42" x2="123.1" y2="44.8"/>
		<line class="st2" x1="142.3" y1="42" x2="142.3" y2="44.8"/>
		<line class="st2" x1="157.2" y1="42" x2="157.2" y2="44.8"/>
		<line class="st2" x1="169.4" y1="42" x2="169.4" y2="44.8"/>
		<line class="st2" x1="179.7" y1="42" x2="179.7" y2="44.8"/>
		<line class="st2" x1="188.6" y1="42" x2="188.6" y2="44.8"/>
		<line class="st2" x1="196.5" y1="42" x2="196.5" y2="44.8"/>
		<line class="st2" x1="249.8" y1="42" x2="249.8" y2="44.8"/>
		<line class="st2" x1="276.9" y1="42" x2="276.9" y2="44.8"/>
		<line class="st2" x1="296.1" y1="42" x2="296.1" y2="44.8"/>
		<line class="st2" x1="311" y1="42" x2="311" y2="44.8"/>
		<line class="st2" x1="323.2" y1="42" x2="323.2" y2="44.8"/>
		<line class="st2" x1="333.5" y1="42" x2="333.5" y2="44.8"/>
		<line class="st2" x1="342.4" y1="42" x2="342.4" y2="44.8"/>
		<line class="st2" x1="350.3" y1="42" x2="350.3" y2="44.8"/>
		<line class="st2" x1="403.7" y1="42" x2="403.7" y2="44.8"/>
		<line class="st2" x1="430.7" y1="42" x2="430.7" y2="44.8"/>
		<line class="st2" x1="450" y1="42" x2="450" y2="44.8"/>
		<line class="st2" x1="464.9" y1="42" x2="464.9" y2="44.8"/>
		<line class="st2" x1="477" y1="42" x2="477" y2="44.8"/>
		<line class="st2" x1="487.3" y1="42" x2="487.3" y2="44.8"/>
		<line class="st2" x1="496.3" y1="42" x2="496.3" y2="44.8"/>
		<line class="st2" x1="504.1" y1="42" x2="504.1" y2="44.8"/>
		<line class="st2" x1="557.5" y1="42" x2="557.5" y2="44.8"/>
		<line class="st2" x1="584.6" y1="42" x2="584.6" y2="44.8"/>
		<line class="st2" x1="603.8" y1="42" x2="603.8" y2="44.8"/>
		<line class="st2" x1="618.7" y1="42" x2="618.7" y2="44.8"/>
		<line class="st2" x1="630.9" y1="42" x2="630.9" y2="44.8"/>
		<line class="st2" x1="641.2" y1="42" x2="641.2" y2="44.8"/>
		<line class="st2" x1="650.1" y1="42" x2="650.1" y2="44.8"/>
		<line class="st2" x1="658" y1="42" x2="658" y2="44.8"/>
	</g>
	<g transform="translate(187,519)">
		<text transform="matrix(1 0 0 1 0 -1.464844e-05)" class="st3 st4 st5">10</text>
	</g>
	<g transform="translate(211,509)">
		<text transform="matrix(1 0 0 1 0 -1.464844e-05)" class="st3 st4 st6">1</text>
	</g>
	<g transform="translate(340,519)">
		<text transform="matrix(1 0 0 1 0 -1.464844e-05)" class="st3 st4 st5">10</text>
	</g>
	<g transform="translate(364,509)">
		<text transform="matrix(1 0 0 1 0 -1.464844e-05)" class="st3 st4 st6">2</text>
	</g>
	<g transform="translate(494,519)">
		<text transform="matrix(1 0 0 1 0 -1.464844e-05)" class="st3 st4 st5">10</text>
	</g>
	<g transform="translate(518,509)">
		<text transform="matrix(1 0 0 1 0 -1.464844e-05)" class="st3 st4 st6">3</text>
	</g>
	<g transform="translate(648,519)">
		<text transform="matrix(1 0 0 1 0 -1.464844e-05)" class="st3 st4 st5">10</text>
	</g>
	<g transform="translate(672,509)">
		<text transform="matrix(1 0 0 1 0 -1.464844e-05)" class="st3 st4 st6">4</text>
	</g>
	<g transform="translate(380.5003,525.2667)">
		<text transform="matrix(1 0 0 1 -50 24)" class="st3 st4 st7">CPU-time</text>
	</g>
	<g>
		<line class="st2" x1="96" y1="485" x2="96" y2="42"/>
		<line class="st2" x1="665" y1="485" x2="665" y2="42"/>
		<line class="st2" x1="96" y1="485" x2="101.7" y2="485"/>
		<line class="st2" x1="96" y1="337.3" x2="101.7" y2="337.3"/>
		<line class="st2" x1="96" y1="189.7" x2="101.7" y2="189.7"/>
		<line class="st2" x1="96" y1="42" x2="101.7" y2="42"/>
		<line class="st2" x1="665" y1="485" x2="659.3" y2="485"/>
		<line class="st2" x1="665" y1="337.3" x2="659.3" y2="337.3"/>
		<line class="st2" x1="665" y1="189.7" x2="659.3" y2="189.7"/>
		<line class="st2" x1="665" y1="42" x2="659.3" y2="42"/>
		<line class="st2" x1="96" y1="440.5" x2="98.8" y2="440.5"/>
		<line class="st2" x1="96" y1="414.5" x2="98.8" y2="414.5"/>
		<line class="st2" x1="96" y1="396.1" x2="98.8" y2="396.1"/>
		<line class="st2" x1="96" y1="381.8" x2="98.8" y2="381.8"/>
		<line class="st2" x1="96" y1="370.1" x2="98.8" y2="370.1"/>
		<line class="st2" x1="96" y1="360.2" x2="98.8" y2="360.2"/>
		<line class="st2" x1="96" y1="351.6" x2="98.8" y2="351.6"/>
		<line class="st2" x1="96" y1="344.1" x2="98.8" y2="344.1"/>
		<line class="st2" x1="96" y1="292.9" x2="98.8" y2="292.9"/>
		<line class="st2" x1="96" y1="266.9" x2="98.8" y2="266.9"/>
		<line class="st2" x1="96" y1="248.4" x2="98.8" y2="248.4"/>
		<line class="st2" x1="96" y1="234.1" x2="98.8" y2="234.1"/>
		<line class="st2" x1="96" y1="222.4" x2="98.8" y2="222.4"/>
		<line class="st2" x1="96" y1="212.5" x2="98.8" y2="212.5"/>
		<line class="st2" x1="96" y1="204" x2="98.8" y2="204"/>
		<line class="st2" x1="96" y1="196.4" x2="98.8" y2="196.4"/>
		<line class="st2" x1="96" y1="145.2" x2="98.8" y2="145.2"/>
		<line class="st2" x1="96" y1="119.2" x2="98.8" y2="119.2"/>
		<line class="st2" x1="96" y1="100.8" x2="98.8" y2="100.8"/>
		<line class="st2" x1="96" y1="86.5" x2="98.8" y2="86.5"/>
		<line class="st2" x1="96" y1="74.8" x2="98.8" y2="74.8"/>
		<line class="st2" x1="96" y1="64.9" x2="98.8" y2="64.9"/>
		<line class="st2" x1="96" y1="56.3" x2="98.8" y2="56.3"/>
		<line class="st2" x1="96" y1="48.8" x2="98.8" y2="48.8"/>
		<line class="st2" x1="665" y1="440.5" x2="662.2" y2="440.5"/>
		<line class="st2" x1="665" y1="414.5" x2="662.2" y2="414.5"/>
		<line class="st2" x1="665" y1="396.1" x2="662.2" y2="396.1"/>
		<line class="st2" x1="665" y1="381.8" x2="662.2" y2="381.8"/>
		<line class="st2" x1="665" y1="370.1" x2="662.2" y2="370.1"/>
		<line class="st2" x1="665" y1="360.2" x2="662.2" y2="360.2"/>
		<line class="st2" x1="665" y1="351.6" x2="662.2" y2="351.6"/>
		<line class="st2" x1="665" y1="344.1" x2="662.2" y2="344.1"/>
		<line class="st2" x1="665" y1="292.9" x2="662.2" y2="292.9"/>
		<line class="st2" x1="665" y1="266.9" x2="662.2" y2="266.9"/>
		<line class="st2" x1="665" y1="248.4" x2="662.2" y2="248.4"/>
		<line class="st2" x1="665" y1="234.1" x2="662.2" y2="234.1"/>
		<line class="st2" x1="665" y1="222.4" x2="662.2" y2="222.4"/>
		<line class="st2" x1="665" y1="212.5" x2="662.2" y2="212.5"/>
		<line class="st2" x1="665" y1="204" x2="662.2" y2="204"/>
		<line class="st2" x1="665" y1="196.4" x2="662.2" y2="196.4"/>
		<line class="st2" x1="665" y1="145.2" x2="662.2" y2="145.2"/>
		<line class="st2" x1="665" y1="119.2" x2="662.2" y2="119.2"/>
		<line class="st2" x1="665" y1="100.8" x2="662.2" y2="100.8"/>
		<line class="st2" x1="665" y1="86.5" x2="662.2" y2="86.5"/>
		<line class="st2" x1="665" y1="74.8" x2="662.2" y2="74.8"/>
		<line class="st2" x1="665" y1="64.9" x2="662.2" y2="64.9"/>
		<line class="st2" x1="665" y1="56.3" x2="662.2" y2="56.3"/>
		<line class="st2" x1="665" y1="48.8" x2="662.2" y2="48.8"/>
	</g>
	<g transform="translate(50,496)">
		<text transform="matrix(1 0 0 1 0 -1.464844e-05)" class="st3 st4 st5">10</text>
	</g>
	<g transform="translate(74,486)">
		<text transform="matrix(1 0 0 1 0 -1.464844e-05)" class="st3 st4 st6">-5</text>
	</g>
	<g transform="translate(50,348)">
		<text transform="matrix(1 0 0 1 0 -1.464844e-05)" class="st3 st4 st5">10</text>
	</g>
	<g transform="translate(74,338)">
		<text transform="matrix(1 0 0 1 0 -1.464844e-05)" class="st3 st4 st6">-4</text>
	</g>
	<g transform="translate(50,201)">
		<text transform="matrix(1 0 0 1 0 -1.464844e-05)" class="st3 st4 st5">10</text>
	</g>
	<g transform="translate(74,191)">
		<text transform="matrix(1 0 0 1 0 -1.464844e-05)" class="st3 st4 st6">-3</text>
	</g>
	<g transform="translate(50,53)">
		<text transform="matrix(1 0 0 1 0 -1.464844e-05)" class="st3 st4 st5">10</text>
	</g>
	<g transform="translate(74,43)">
		<text transform="matrix(1 0 0 1 0 -1.464844e-05)" class="st3 st4 st6">-2</text>
	</g>
	<g transform="translate(46.0667,263.4998) rotate(-90)">
		<text transform="matrix(1 0 0 1 -25.9996 -6)" class="st3 st4 st7">Error</text>
	</g>
	<g>
		<path class="st8" d="M116.8,142.4l150.5,75.7l153.9,77.3l153.5,60.8"/>
		<line class="st8" x1="112" y1="142.5" x2="121" y2="142.5"/>
		<line class="st8" x1="116.5" y1="147" x2="116.5" y2="138"/>
		<line class="st8" x1="113" y1="146" x2="120" y2="139"/>
		<line class="st8" x1="113" y1="139" x2="120" y2="146"/>
		<line class="st8" x1="263" y1="218.5" x2="272" y2="218.5"/>
		<line class="st8" x1="267.5" y1="223" x2="267.5" y2="214"/>
		<line class="st8" x1="264" y1="222" x2="271" y2="215"/>
		<line class="st8" x1="264" y1="215" x2="271" y2="222"/>
		<line class="st8" x1="417" y1="295.5" x2="426" y2="295.5"/>
		<line class="st8" x1="421.5" y1="300" x2="421.5" y2="291"/>
		<line class="st8" x1="418" y1="299" x2="425" y2="292"/>
		<line class="st8" x1="418" y1="292" x2="425" y2="299"/>
		<line class="st8" x1="570" y1="356.5" x2="579" y2="356.5"/>
		<line class="st8" x1="574.5" y1="361" x2="574.5" y2="352"/>
		<line class="st8" x1="571" y1="360" x2="578" y2="353"/>
		<line class="st8" x1="571" y1="353" x2="578" y2="360"/>
		<path class="st9" d="M114.3,166.7l152.6,99.4L420.7,372l153.8,97.2"/>
		<line class="st9" x1="110" y1="166.5" x2="119" y2="166.5"/>
		<line class="st9" x1="114.5" y1="171" x2="114.5" y2="162"/>
		<line class="st9" x1="111" y1="170" x2="118" y2="163"/>
		<line class="st9" x1="111" y1="163" x2="118" y2="170"/>
		<line class="st9" x1="262" y1="266.5" x2="271" y2="266.5"/>
		<line class="st9" x1="266.5" y1="271" x2="266.5" y2="262"/>
		<line class="st9" x1="263" y1="270" x2="270" y2="263"/>
		<line class="st9" x1="263" y1="263" x2="270" y2="270"/>
		<line class="st9" x1="416" y1="372.5" x2="425" y2="372.5"/>
		<line class="st9" x1="420.5" y1="377" x2="420.5" y2="368"/>
		<line class="st9" x1="417" y1="376" x2="424" y2="369"/>
		<line class="st9" x1="417" y1="369" x2="424" y2="376"/>
		<line class="st9" x1="570" y1="469.5" x2="579" y2="469.5"/>
		<line class="st9" x1="574.5" y1="474" x2="574.5" y2="465"/>
		<line class="st9" x1="571" y1="473" x2="578" y2="466"/>
		<line class="st9" x1="571" y1="466" x2="578" y2="473"/>
		<path class="st10" d="M152.9,311.6l54.5,34.9l61.3,43.1l76.3,43l70.9,40.7"/>
		<line class="st10" x1="148" y1="311.5" x2="157" y2="311.5"/>
		<line class="st10" x1="152.5" y1="316" x2="152.5" y2="307"/>
		<line class="st10" x1="149" y1="315" x2="156" y2="308"/>
		<line class="st10" x1="149" y1="308" x2="156" y2="315"/>
		<line class="st10" x1="203" y1="346.5" x2="212" y2="346.5"/>
		<line class="st10" x1="207.5" y1="351" x2="207.5" y2="342"/>
		<line class="st10" x1="204" y1="350" x2="211" y2="343"/>
		<line class="st10" x1="204" y1="343" x2="211" y2="350"/>
		<line class="st10" x1="264" y1="389.5" x2="273" y2="389.5"/>
		<line class="st10" x1="268.5" y1="394" x2="268.5" y2="385"/>
		<line class="st10" x1="265" y1="393" x2="272" y2="386"/>
		<line class="st10" x1="265" y1="386" x2="272" y2="393"/>
		<line class="st10" x1="341" y1="432.5" x2="350" y2="432.5"/>
		<line class="st10" x1="345.5" y1="437" x2="345.5" y2="428"/>
		<line class="st10" x1="342" y1="436" x2="349" y2="429"/>
		<line class="st10" x1="342" y1="429" x2="349" y2="436"/>
		<line class="st10" x1="411" y1="473.5" x2="420" y2="473.5"/>
		<line class="st10" x1="415.5" y1="478" x2="415.5" y2="469"/>
		<line class="st10" x1="412" y1="477" x2="419" y2="470"/>
		<line class="st10" x1="412" y1="470" x2="419" y2="477"/>
		<line class="st11" x1="95.9" y1="356.2" x2="665" y2="356.2"/>
	</g>
	<g>
		<path class="st1" d="M487,122V42h179v80H487z"/>
	</g>
	<g transform="translate(523.7944,56.5)">
		<text transform="matrix(1 0 0 1 0 7.5)" class="st4 st12">MC ray tracing</text>
	</g>
	<g>
		<line class="st8" x1="491" y1="56.5" x2="520.8" y2="56.5"/>
		<line class="st8" x1="501" y1="56.5" x2="510" y2="56.5"/>
		<line class="st8" x1="505.5" y1="61" x2="505.5" y2="52"/>
		<line class="st8" x1="502" y1="60" x2="509" y2="53"/>
		<line class="st8" x1="502" y1="53" x2="509" y2="60"/>
	</g>
	<g transform="translate(523.7944,82)">
		<text transform="matrix(1 0 0 1 0 7.5)" class="st4 st12">QMC ray tracing</text>
	</g>
	<g>
		<line class="st9" x1="491" y1="82" x2="520.8" y2="82"/>
		<line class="st9" x1="501" y1="81.5" x2="510" y2="81.5"/>
		<line class="st9" x1="505.5" y1="86" x2="505.5" y2="77"/>
		<line class="st9" x1="502" y1="85" x2="509" y2="78"/>
		<line class="st9" x1="502" y1="78" x2="509" y2="85"/>
	</g>
	<g transform="translate(523.7944,107.5)">
		<text transform="matrix(1 0 0 1 0 7.5)" class="st4 st12">PS ray tracing</text>
	</g>
	<g>
		<line class="st10" x1="491" y1="107.5" x2="520.8" y2="107.5"/>
		<line class="st10" x1="501" y1="107.5" x2="510" y2="107.5"/>
		<line class="st10" x1="505.5" y1="112" x2="505.5" y2="103"/>
		<line class="st10" x1="502" y1="111" x2="509" y2="104"/>
		<line class="st10" x1="502" y1="104" x2="509" y2="111"/>
	</g>
	<g>
		<path class="st13" d="M487,122V42h179v80H487z"/>
	</g>
</g>
</svg>
