<?xml version="1.0" encoding="utf-8"?>
<!-- Generator: Adobe Illustrator 21.1.0, SVG Export Plug-In . SVG Version: 6.00 Build 0)  -->
<svg version="1.1" id="Layer_1" xmlns="http://www.w3.org/2000/svg" xmlns:xlink="http://www.w3.org/1999/xlink" x="0px" y="0px"
	 viewBox="0 0 731 555" style="enable-background:new 0 0 731 555;" xml:space="preserve">
<style type="text/css">
	.st0{clip-path:url(#SVGID_2_);fill:#FFFFFF;}
	.st1{fill:#FFFFFF;}
	.st2{fill:none;stroke:#262626;stroke-width:0.6667;stroke-linecap:square;stroke-linejoin:round;stroke-miterlimit:10;}
	.st3{fill:#262626;}
	.st4{font-family:'MyriadPro-Regular';}
	.st5{font-size:21px;}
	.st6{font-size:16px;}
	.st7{font-size:23px;}
	.st8{fill:none;stroke:#00FF00;stroke-width:2.6667;stroke-linejoin:round;stroke-miterlimit:10;}
	.st9{fill:none;stroke:#0000FF;stroke-width:2.6667;stroke-linejoin:round;stroke-miterlimit:10;}
	.st10{fill:none;stroke:#000000;stroke-width:1.3333;stroke-linejoin:bevel;stroke-miterlimit:1;stroke-dasharray:10,6;}
	.st11{fill:none;stroke:#0000FF;stroke-width:1.3333;stroke-linejoin:bevel;stroke-miterlimit:1;stroke-dasharray:10,6;}
	.st12{fill:none;stroke:#FF0000;stroke-width:2.6667;stroke-linejoin:round;stroke-miterlimit:10;}
	.st13{font-size:19px;}
	.st14{fill:none;stroke:#262626;stroke-width:0.6667;stroke-miterlimit:10;}
</style>
<g>
	<g>
		<g>
			<defs>
				<rect id="SVGID_1_" y="0" width="731" height="555"/>
			</defs>
			<clipPath id="SVGID_2_">
				<use xlink:href="#SVGID_1_"  style="overflow:visible;"/>
			</clipPath>
			<rect y="0" class="st0" width="731" height="555"/>
		</g>
	</g>
	<g>
		<rect y="0" class="st1" width="731" height="555"/>
		<path class="st1" d="M95,485h567V42H95V485z"/>
	</g>
	<g>
		<line class="st2" x1="95" y1="485" x2="662" y2="485"/>
		<line class="st2" x1="95" y1="42" x2="662" y2="42"/>
		<line class="st2" x1="179.3" y1="485" x2="179.3" y2="479.3"/>
		<line class="st2" x1="300" y1="485" x2="300" y2="479.3"/>
		<line class="st2" x1="420.7" y1="485" x2="420.7" y2="479.3"/>
		<line class="st2" x1="541.3" y1="485" x2="541.3" y2="479.3"/>
		<line class="st2" x1="662" y1="485" x2="662" y2="479.3"/>
		<line class="st2" x1="179.3" y1="42" x2="179.3" y2="47.7"/>
		<line class="st2" x1="300" y1="42" x2="300" y2="47.7"/>
		<line class="st2" x1="420.7" y1="42" x2="420.7" y2="47.7"/>
		<line class="st2" x1="541.3" y1="42" x2="541.3" y2="47.7"/>
		<line class="st2" x1="662" y1="42" x2="662" y2="47.7"/>
		<line class="st2" x1="116.2" y1="485" x2="116.2" y2="482.2"/>
		<line class="st2" x1="131.3" y1="485" x2="131.3" y2="482.2"/>
		<line class="st2" x1="143" y1="485" x2="143" y2="482.2"/>
		<line class="st2" x1="152.6" y1="485" x2="152.6" y2="482.2"/>
		<line class="st2" x1="160.6" y1="485" x2="160.6" y2="482.2"/>
		<line class="st2" x1="167.6" y1="485" x2="167.6" y2="482.2"/>
		<line class="st2" x1="173.8" y1="485" x2="173.8" y2="482.2"/>
		<line class="st2" x1="215.7" y1="485" x2="215.7" y2="482.2"/>
		<line class="st2" x1="236.9" y1="485" x2="236.9" y2="482.2"/>
		<line class="st2" x1="252" y1="485" x2="252" y2="482.2"/>
		<line class="st2" x1="263.7" y1="485" x2="263.7" y2="482.2"/>
		<line class="st2" x1="273.2" y1="485" x2="273.2" y2="482.2"/>
		<line class="st2" x1="281.3" y1="485" x2="281.3" y2="482.2"/>
		<line class="st2" x1="288.3" y1="485" x2="288.3" y2="482.2"/>
		<line class="st2" x1="294.5" y1="485" x2="294.5" y2="482.2"/>
		<line class="st2" x1="336.3" y1="485" x2="336.3" y2="482.2"/>
		<line class="st2" x1="357.6" y1="485" x2="357.6" y2="482.2"/>
		<line class="st2" x1="372.7" y1="485" x2="372.7" y2="482.2"/>
		<line class="st2" x1="384.3" y1="485" x2="384.3" y2="482.2"/>
		<line class="st2" x1="393.9" y1="485" x2="393.9" y2="482.2"/>
		<line class="st2" x1="402" y1="485" x2="402" y2="482.2"/>
		<line class="st2" x1="409" y1="485" x2="409" y2="482.2"/>
		<line class="st2" x1="415.1" y1="485" x2="415.1" y2="482.2"/>
		<line class="st2" x1="457" y1="485" x2="457" y2="482.2"/>
		<line class="st2" x1="478.2" y1="485" x2="478.2" y2="482.2"/>
		<line class="st2" x1="493.3" y1="485" x2="493.3" y2="482.2"/>
		<line class="st2" x1="505" y1="485" x2="505" y2="482.2"/>
		<line class="st2" x1="514.6" y1="485" x2="514.6" y2="482.2"/>
		<line class="st2" x1="522.6" y1="485" x2="522.6" y2="482.2"/>
		<line class="st2" x1="529.6" y1="485" x2="529.6" y2="482.2"/>
		<line class="st2" x1="535.8" y1="485" x2="535.8" y2="482.2"/>
		<line class="st2" x1="577.7" y1="485" x2="577.7" y2="482.2"/>
		<line class="st2" x1="598.9" y1="485" x2="598.9" y2="482.2"/>
		<line class="st2" x1="614" y1="485" x2="614" y2="482.2"/>
		<line class="st2" x1="625.7" y1="485" x2="625.7" y2="482.2"/>
		<line class="st2" x1="635.2" y1="485" x2="635.2" y2="482.2"/>
		<line class="st2" x1="643.3" y1="485" x2="643.3" y2="482.2"/>
		<line class="st2" x1="650.3" y1="485" x2="650.3" y2="482.2"/>
		<line class="st2" x1="656.5" y1="485" x2="656.5" y2="482.2"/>
		<line class="st2" x1="116.2" y1="42" x2="116.2" y2="44.8"/>
		<line class="st2" x1="131.3" y1="42" x2="131.3" y2="44.8"/>
		<line class="st2" x1="143" y1="42" x2="143" y2="44.8"/>
		<line class="st2" x1="152.6" y1="42" x2="152.6" y2="44.8"/>
		<line class="st2" x1="160.6" y1="42" x2="160.6" y2="44.8"/>
		<line class="st2" x1="167.6" y1="42" x2="167.6" y2="44.8"/>
		<line class="st2" x1="173.8" y1="42" x2="173.8" y2="44.8"/>
		<line class="st2" x1="215.7" y1="42" x2="215.7" y2="44.8"/>
		<line class="st2" x1="236.9" y1="42" x2="236.9" y2="44.8"/>
		<line class="st2" x1="252" y1="42" x2="252" y2="44.8"/>
		<line class="st2" x1="263.7" y1="42" x2="263.7" y2="44.8"/>
		<line class="st2" x1="273.2" y1="42" x2="273.2" y2="44.8"/>
		<line class="st2" x1="281.3" y1="42" x2="281.3" y2="44.8"/>
		<line class="st2" x1="288.3" y1="42" x2="288.3" y2="44.8"/>
		<line class="st2" x1="294.5" y1="42" x2="294.5" y2="44.8"/>
		<line class="st2" x1="336.3" y1="42" x2="336.3" y2="44.8"/>
		<line class="st2" x1="357.6" y1="42" x2="357.6" y2="44.8"/>
		<line class="st2" x1="372.7" y1="42" x2="372.7" y2="44.8"/>
		<line class="st2" x1="384.3" y1="42" x2="384.3" y2="44.8"/>
		<line class="st2" x1="393.9" y1="42" x2="393.9" y2="44.8"/>
		<line class="st2" x1="402" y1="42" x2="402" y2="44.8"/>
		<line class="st2" x1="409" y1="42" x2="409" y2="44.8"/>
		<line class="st2" x1="415.1" y1="42" x2="415.1" y2="44.8"/>
		<line class="st2" x1="457" y1="42" x2="457" y2="44.8"/>
		<line class="st2" x1="478.2" y1="42" x2="478.2" y2="44.8"/>
		<line class="st2" x1="493.3" y1="42" x2="493.3" y2="44.8"/>
		<line class="st2" x1="505" y1="42" x2="505" y2="44.8"/>
		<line class="st2" x1="514.6" y1="42" x2="514.6" y2="44.8"/>
		<line class="st2" x1="522.6" y1="42" x2="522.6" y2="44.8"/>
		<line class="st2" x1="529.6" y1="42" x2="529.6" y2="44.8"/>
		<line class="st2" x1="535.8" y1="42" x2="535.8" y2="44.8"/>
		<line class="st2" x1="577.7" y1="42" x2="577.7" y2="44.8"/>
		<line class="st2" x1="598.9" y1="42" x2="598.9" y2="44.8"/>
		<line class="st2" x1="614" y1="42" x2="614" y2="44.8"/>
		<line class="st2" x1="625.7" y1="42" x2="625.7" y2="44.8"/>
		<line class="st2" x1="635.2" y1="42" x2="635.2" y2="44.8"/>
		<line class="st2" x1="643.3" y1="42" x2="643.3" y2="44.8"/>
		<line class="st2" x1="650.3" y1="42" x2="650.3" y2="44.8"/>
		<line class="st2" x1="656.5" y1="42" x2="656.5" y2="44.8"/>
	</g>
	<g transform="translate(162,519)">
		<text transform="matrix(1 0 0 1 0 -1.464844e-05)" class="st3 st4 st5">10</text>
	</g>
	<g transform="translate(186,509)">
		<text transform="matrix(1 0 0 1 0 -1.464844e-05)" class="st3 st4 st6">3</text>
	</g>
	<g transform="translate(283,519)">
		<text transform="matrix(1 0 0 1 0 -1.464844e-05)" class="st3 st4 st5">10</text>
	</g>
	<g transform="translate(307,509)">
		<text transform="matrix(1 0 0 1 0 -1.464844e-05)" class="st3 st4 st6">4</text>
	</g>
	<g transform="translate(404,519)">
		<text transform="matrix(1 0 0 1 0 -1.464844e-05)" class="st3 st4 st5">10</text>
	</g>
	<g transform="translate(428,509)">
		<text transform="matrix(1 0 0 1 0 -1.464844e-05)" class="st3 st4 st6">5</text>
	</g>
	<g transform="translate(524,519)">
		<text transform="matrix(1 0 0 1 0 -1.464844e-05)" class="st3 st4 st5">10</text>
	</g>
	<g transform="translate(548,509)">
		<text transform="matrix(1 0 0 1 0 -1.464844e-05)" class="st3 st4 st6">6</text>
	</g>
	<g transform="translate(645,519)">
		<text transform="matrix(1 0 0 1 0 -1.464844e-05)" class="st3 st4 st5">10</text>
	</g>
	<g transform="translate(669,509)">
		<text transform="matrix(1 0 0 1 0 -1.464844e-05)" class="st3 st4 st6">7</text>
	</g>
	<g transform="translate(378.5003,525.2667)">
		<text transform="matrix(1 0 0 1 -12.5 24)" class="st3 st4 st7">Nr</text>
	</g>
	<g>
		<line class="st2" x1="95" y1="485" x2="95" y2="42"/>
		<line class="st2" x1="662" y1="485" x2="662" y2="42"/>
		<line class="st2" x1="95" y1="471.1" x2="100.7" y2="471.1"/>
		<line class="st2" x1="95" y1="328.1" x2="100.7" y2="328.1"/>
		<line class="st2" x1="95" y1="185" x2="100.7" y2="185"/>
		<line class="st2" x1="95" y1="42" x2="100.7" y2="42"/>
		<line class="st2" x1="662" y1="471.1" x2="656.3" y2="471.1"/>
		<line class="st2" x1="662" y1="328.1" x2="656.3" y2="328.1"/>
		<line class="st2" x1="662" y1="185" x2="656.3" y2="185"/>
		<line class="st2" x1="662" y1="42" x2="656.3" y2="42"/>
		<line class="st2" x1="95" y1="477.7" x2="97.8" y2="477.7"/>
		<line class="st2" x1="95" y1="428.1" x2="97.8" y2="428.1"/>
		<line class="st2" x1="95" y1="402.9" x2="97.8" y2="402.9"/>
		<line class="st2" x1="95" y1="385" x2="97.8" y2="385"/>
		<line class="st2" x1="95" y1="371.2" x2="97.8" y2="371.2"/>
		<line class="st2" x1="95" y1="359.8" x2="97.8" y2="359.8"/>
		<line class="st2" x1="95" y1="350.2" x2="97.8" y2="350.2"/>
		<line class="st2" x1="95" y1="342" x2="97.8" y2="342"/>
		<line class="st2" x1="95" y1="334.6" x2="97.8" y2="334.6"/>
		<line class="st2" x1="95" y1="285" x2="97.8" y2="285"/>
		<line class="st2" x1="95" y1="259.8" x2="97.8" y2="259.8"/>
		<line class="st2" x1="95" y1="242" x2="97.8" y2="242"/>
		<line class="st2" x1="95" y1="228.1" x2="97.8" y2="228.1"/>
		<line class="st2" x1="95" y1="216.8" x2="97.8" y2="216.8"/>
		<line class="st2" x1="95" y1="207.2" x2="97.8" y2="207.2"/>
		<line class="st2" x1="95" y1="198.9" x2="97.8" y2="198.9"/>
		<line class="st2" x1="95" y1="191.6" x2="97.8" y2="191.6"/>
		<line class="st2" x1="95" y1="142" x2="97.8" y2="142"/>
		<line class="st2" x1="95" y1="116.8" x2="97.8" y2="116.8"/>
		<line class="st2" x1="95" y1="98.9" x2="97.8" y2="98.9"/>
		<line class="st2" x1="95" y1="85.1" x2="97.8" y2="85.1"/>
		<line class="st2" x1="95" y1="73.7" x2="97.8" y2="73.7"/>
		<line class="st2" x1="95" y1="64.2" x2="97.8" y2="64.2"/>
		<line class="st2" x1="95" y1="55.9" x2="97.8" y2="55.9"/>
		<line class="st2" x1="95" y1="48.5" x2="97.8" y2="48.5"/>
		<line class="st2" x1="662" y1="477.7" x2="659.2" y2="477.7"/>
		<line class="st2" x1="662" y1="428.1" x2="659.2" y2="428.1"/>
		<line class="st2" x1="662" y1="402.9" x2="659.2" y2="402.9"/>
		<line class="st2" x1="662" y1="385" x2="659.2" y2="385"/>
		<line class="st2" x1="662" y1="371.2" x2="659.2" y2="371.2"/>
		<line class="st2" x1="662" y1="359.8" x2="659.2" y2="359.8"/>
		<line class="st2" x1="662" y1="350.2" x2="659.2" y2="350.2"/>
		<line class="st2" x1="662" y1="342" x2="659.2" y2="342"/>
		<line class="st2" x1="662" y1="334.6" x2="659.2" y2="334.6"/>
		<line class="st2" x1="662" y1="285" x2="659.2" y2="285"/>
		<line class="st2" x1="662" y1="259.8" x2="659.2" y2="259.8"/>
		<line class="st2" x1="662" y1="242" x2="659.2" y2="242"/>
		<line class="st2" x1="662" y1="228.1" x2="659.2" y2="228.1"/>
		<line class="st2" x1="662" y1="216.8" x2="659.2" y2="216.8"/>
		<line class="st2" x1="662" y1="207.2" x2="659.2" y2="207.2"/>
		<line class="st2" x1="662" y1="198.9" x2="659.2" y2="198.9"/>
		<line class="st2" x1="662" y1="191.6" x2="659.2" y2="191.6"/>
		<line class="st2" x1="662" y1="142" x2="659.2" y2="142"/>
		<line class="st2" x1="662" y1="116.8" x2="659.2" y2="116.8"/>
		<line class="st2" x1="662" y1="98.9" x2="659.2" y2="98.9"/>
		<line class="st2" x1="662" y1="85.1" x2="659.2" y2="85.1"/>
		<line class="st2" x1="662" y1="73.7" x2="659.2" y2="73.7"/>
		<line class="st2" x1="662" y1="64.2" x2="659.2" y2="64.2"/>
		<line class="st2" x1="662" y1="55.9" x2="659.2" y2="55.9"/>
		<line class="st2" x1="662" y1="48.5" x2="659.2" y2="48.5"/>
	</g>
	<g transform="translate(49,482)">
		<text transform="matrix(1 0 0 1 0 -1.464844e-05)" class="st3 st4 st5">10</text>
	</g>
	<g transform="translate(73,472)">
		<text transform="matrix(1 0 0 1 0 -1.464844e-05)" class="st3 st4 st6">-5</text>
	</g>
	<g transform="translate(49,339)">
		<text transform="matrix(1 0 0 1 0 -1.464844e-05)" class="st3 st4 st5">10</text>
	</g>
	<g transform="translate(73,329)">
		<text transform="matrix(1 0 0 1 0 -1.464844e-05)" class="st3 st4 st6">-4</text>
	</g>
	<g transform="translate(49,196)">
		<text transform="matrix(1 0 0 1 0 -1.464844e-05)" class="st3 st4 st5">10</text>
	</g>
	<g transform="translate(73,186)">
		<text transform="matrix(1 0 0 1 0 -1.464844e-05)" class="st3 st4 st6">-3</text>
	</g>
	<g transform="translate(49,53)">
		<text transform="matrix(1 0 0 1 0 -1.464844e-05)" class="st3 st4 st5">10</text>
	</g>
	<g transform="translate(73,43)">
		<text transform="matrix(1 0 0 1 0 -1.464844e-05)" class="st3 st4 st6">-2</text>
	</g>
	<g transform="translate(45.0667,263.4998) rotate(-90)">
		<text transform="matrix(1 0 0 1 -25.9996 -6)" class="st3 st4 st7">Error</text>
	</g>
	<g>
		<path class="st8" d="M179.3,174.4l120.7,45l120.7,74.7L541.3,362"/>
		<line class="st8" x1="175" y1="174.5" x2="184" y2="174.5"/>
		<line class="st8" x1="179.5" y1="179" x2="179.5" y2="170"/>
		<line class="st8" x1="176" y1="178" x2="183" y2="171"/>
		<line class="st8" x1="176" y1="171" x2="183" y2="178"/>
		<line class="st8" x1="296" y1="219.5" x2="305" y2="219.5"/>
		<line class="st8" x1="300.5" y1="224" x2="300.5" y2="215"/>
		<line class="st8" x1="297" y1="223" x2="304" y2="216"/>
		<line class="st8" x1="297" y1="216" x2="304" y2="223"/>
		<line class="st8" x1="416" y1="294.5" x2="425" y2="294.5"/>
		<line class="st8" x1="420.5" y1="299" x2="420.5" y2="290"/>
		<line class="st8" x1="417" y1="298" x2="424" y2="291"/>
		<line class="st8" x1="417" y1="291" x2="424" y2="298"/>
		<line class="st8" x1="537" y1="362.5" x2="546" y2="362.5"/>
		<line class="st8" x1="541.5" y1="367" x2="541.5" y2="358"/>
		<line class="st8" x1="538" y1="366" x2="545" y2="359"/>
		<line class="st8" x1="538" y1="359" x2="545" y2="366"/>
		<path class="st9" d="M179.3,165.9L300,266.2l120.7,139L529.6,485"/>
		<line class="st9" x1="175" y1="165.5" x2="184" y2="165.5"/>
		<line class="st9" x1="179.5" y1="170" x2="179.5" y2="161"/>
		<line class="st9" x1="176" y1="169" x2="183" y2="162"/>
		<line class="st9" x1="176" y1="162" x2="183" y2="169"/>
		<line class="st9" x1="296" y1="266.5" x2="305" y2="266.5"/>
		<line class="st9" x1="300.5" y1="271" x2="300.5" y2="262"/>
		<line class="st9" x1="297" y1="270" x2="304" y2="263"/>
		<line class="st9" x1="297" y1="263" x2="304" y2="270"/>
		<line class="st9" x1="416" y1="405.5" x2="425" y2="405.5"/>
		<line class="st9" x1="420.5" y1="410" x2="420.5" y2="401"/>
		<line class="st9" x1="417" y1="409" x2="424" y2="402"/>
		<line class="st9" x1="417" y1="402" x2="424" y2="409"/>
	</g>
	<g>
		<path class="st10" d="M177.7,112.6l120.7,71.5l120.7,71.5l120.7,71.5l120.7,71.5l1.6,0.9"/>
		<path class="st11" d="M177.7,240.1l120.7,143.1l86,101.9"/>
	</g>
	<g>
		<path class="st12" d="M104.8,179.1l49.9,15.3l45.9,31.7l85.7,40.2l42.7,46.9L410,415.4l40.4,49.9"/>
		<line class="st12" x1="100" y1="179.5" x2="109" y2="179.5"/>
		<line class="st12" x1="104.5" y1="184" x2="104.5" y2="175"/>
		<line class="st12" x1="101" y1="183" x2="108" y2="176"/>
		<line class="st12" x1="101" y1="176" x2="108" y2="183"/>
		<line class="st12" x1="150" y1="194.5" x2="159" y2="194.5"/>
		<line class="st12" x1="154.5" y1="199" x2="154.5" y2="190"/>
		<line class="st12" x1="151" y1="198" x2="158" y2="191"/>
		<line class="st12" x1="151" y1="191" x2="158" y2="198"/>
		<line class="st12" x1="196" y1="226.5" x2="205" y2="226.5"/>
		<line class="st12" x1="200.5" y1="231" x2="200.5" y2="222"/>
		<line class="st12" x1="197" y1="230" x2="204" y2="223"/>
		<line class="st12" x1="197" y1="223" x2="204" y2="230"/>
		<line class="st12" x1="282" y1="266.5" x2="291" y2="266.5"/>
		<line class="st12" x1="286.5" y1="271" x2="286.5" y2="262"/>
		<line class="st12" x1="283" y1="270" x2="290" y2="263"/>
		<line class="st12" x1="283" y1="263" x2="290" y2="270"/>
		<line class="st12" x1="325" y1="313.5" x2="334" y2="313.5"/>
		<line class="st12" x1="329.5" y1="318" x2="329.5" y2="309"/>
		<line class="st12" x1="326" y1="317" x2="333" y2="310"/>
		<line class="st12" x1="326" y1="310" x2="333" y2="317"/>
		<line class="st12" x1="405" y1="415.5" x2="414" y2="415.5"/>
		<line class="st12" x1="409.5" y1="420" x2="409.5" y2="411"/>
		<line class="st12" x1="406" y1="419" x2="413" y2="412"/>
		<line class="st12" x1="406" y1="412" x2="413" y2="419"/>
		<line class="st12" x1="446" y1="465.5" x2="455" y2="465.5"/>
		<line class="st12" x1="450.5" y1="470" x2="450.5" y2="461"/>
		<line class="st12" x1="447" y1="469" x2="454" y2="462"/>
		<line class="st12" x1="447" y1="462" x2="454" y2="469"/>
	</g>
	<g>
		<path class="st1" d="M457,173V42h205v131H457z"/>
	</g>
	<g transform="translate(494,56.5)">
		<text transform="matrix(1 0 0 1 0 7.5)" class="st4 st13">MC ray tracing</text>
	</g>
	<g>
		<line class="st8" x1="461" y1="56.5" x2="491" y2="56.5"/>
		<line class="st8" x1="472" y1="56.5" x2="481" y2="56.5"/>
		<line class="st8" x1="476.5" y1="61" x2="476.5" y2="52"/>
		<line class="st8" x1="473" y1="60" x2="480" y2="53"/>
		<line class="st8" x1="473" y1="53" x2="480" y2="60"/>
	</g>
	<g transform="translate(494,82)">
		<text transform="matrix(1 0 0 1 0 7.5)" class="st4 st13">QMC ray tracing</text>
	</g>
	<g>
		<line class="st9" x1="461" y1="82" x2="491" y2="82"/>
		<line class="st9" x1="472" y1="81.5" x2="481" y2="81.5"/>
		<line class="st9" x1="476.5" y1="86" x2="476.5" y2="77"/>
		<line class="st9" x1="473" y1="85" x2="480" y2="78"/>
		<line class="st9" x1="473" y1="78" x2="480" y2="85"/>
	</g>
	<g transform="translate(494,107.5)">
		<text transform="matrix(1 0 0 1 0 7.5)" class="st4 st13">PS ray tracing</text>
	</g>
	<g>
		<line class="st12" x1="461" y1="107.5" x2="491" y2="107.5"/>
		<line class="st12" x1="472" y1="107.5" x2="481" y2="107.5"/>
		<line class="st12" x1="476.5" y1="112" x2="476.5" y2="103"/>
		<line class="st12" x1="473" y1="111" x2="480" y2="104"/>
		<line class="st12" x1="473" y1="104" x2="480" y2="111"/>
	</g>
	<g transform="translate(494,133)">
		<text transform="matrix(1 0 0 1 0 7.5)" class="st4 st13">Line with slope -1/2</text>
	</g>
	<g>
		<line class="st10" x1="461" y1="133" x2="491" y2="133"/>
	</g>
	<g transform="translate(494,158.5)">
		<text transform="matrix(1 0 0 1 0 7.5)" class="st4 st13">Line with slope -1</text>
	</g>
	<g>
		<line class="st11" x1="461" y1="158.5" x2="491" y2="158.5"/>
	</g>
	<g>
		<path class="st14" d="M457,173V42h205v131H457z"/>
	</g>
</g>
</svg>
