<?xml version="1.0" encoding="utf-8"?>
<!-- Generator: Adobe Illustrator 21.1.0, SVG Export Plug-In . SVG Version: 6.00 Build 0)  -->
<svg version="1.1" id="Layer_1" xmlns="http://www.w3.org/2000/svg" xmlns:xlink="http://www.w3.org/1999/xlink" x="0px" y="0px"
	 viewBox="0 0 735 555" style="enable-background:new 0 0 735 555;" xml:space="preserve">
<style type="text/css">
	.st0{clip-path:url(#SVGID_2_);fill:#FFFFFF;}
	.st1{fill:#FFFFFF;}
	.st2{fill:none;stroke:#262626;stroke-width:0.6667;stroke-linejoin:round;stroke-miterlimit:10;}
	.st3{fill:none;stroke:#262626;stroke-width:0.6667;stroke-linecap:square;stroke-linejoin:round;stroke-miterlimit:10;}
	.st4{fill:#262626;}
	.st5{font-family:'MyriadPro-Regular';}
	.st6{font-size:24px;}
	.st7{font-size:19px;}
	.st8{font-size:26px;}
	.st9{fill:none;stroke:#0000FF;stroke-width:2.6667;stroke-linejoin:round;stroke-miterlimit:10;}
	.st10{fill:none;stroke:#FF0000;stroke-width:2.6667;stroke-linejoin:round;stroke-miterlimit:10;}
	.st11{fill:none;stroke:#00FFFF;stroke-width:2.6667;stroke-linejoin:round;stroke-miterlimit:10;}
	.st12{fill:none;stroke:#00FFFF;stroke-width:2.6667;stroke-linejoin:bevel;stroke-miterlimit:1;stroke-dasharray:8,8;}
	.st13{fill:none;stroke:#000000;stroke-width:1.3333;stroke-linejoin:bevel;stroke-miterlimit:1;stroke-dasharray:10,6;}
	.st14{font-size:22px;}
	.st15{fill:none;stroke:#262626;stroke-width:0.6667;stroke-miterlimit:10;}
</style>
<g>
	<g>
		<g>
			<defs>
				<rect id="SVGID_1_" y="0" width="735" height="555"/>
			</defs>
			<clipPath id="SVGID_2_">
				<use xlink:href="#SVGID_1_"  style="overflow:visible;"/>
			</clipPath>
			<rect y="0" class="st0" width="735" height="555"/>
		</g>
	</g>
	<g>
		<rect y="0" class="st1" width="735" height="555"/>
		<path class="st1" d="M96,475h569V42H96V475z"/>
	</g>
	<g>
		<line class="st2" x1="96" y1="475" x2="665" y2="475"/>
		<line class="st2" x1="96" y1="42" x2="665" y2="42"/>
		<line class="st3" x1="96" y1="475" x2="96" y2="469.3"/>
		<line class="st3" x1="285.7" y1="475" x2="285.7" y2="469.3"/>
		<line class="st3" x1="475.3" y1="475" x2="475.3" y2="469.3"/>
		<line class="st3" x1="665" y1="475" x2="665" y2="469.3"/>
		<line class="st3" x1="96" y1="42" x2="96" y2="47.7"/>
		<line class="st3" x1="285.7" y1="42" x2="285.7" y2="47.7"/>
		<line class="st3" x1="475.3" y1="42" x2="475.3" y2="47.7"/>
		<line class="st3" x1="665" y1="42" x2="665" y2="47.7"/>
	</g>
	<g transform="translate(77,514)">
		<text transform="matrix(1 0 0 1 0 -1.464844e-05)" class="st4 st5 st6">10</text>
	</g>
	<g transform="translate(104,502)">
		<text transform="matrix(1 0 0 1 0 -1.464844e-05)" class="st4 st5 st7">0</text>
	</g>
	<g transform="translate(267,514)">
		<text transform="matrix(1 0 0 1 0 -1.464844e-05)" class="st4 st5 st6">10</text>
	</g>
	<g transform="translate(294,502)">
		<text transform="matrix(1 0 0 1 0 -1.464844e-05)" class="st4 st5 st7">2</text>
	</g>
	<g transform="translate(456,514)">
		<text transform="matrix(1 0 0 1 0 -1.464844e-05)" class="st4 st5 st6">10</text>
	</g>
	<g transform="translate(483,502)">
		<text transform="matrix(1 0 0 1 0 -1.464844e-05)" class="st4 st5 st7">4</text>
	</g>
	<g transform="translate(646,514)">
		<text transform="matrix(1 0 0 1 0 -1.464844e-05)" class="st4 st5 st6">10</text>
	</g>
	<g transform="translate(673,502)">
		<text transform="matrix(1 0 0 1 0 -1.464844e-05)" class="st4 st5 st7">6</text>
	</g>
	<g transform="translate(380.5003,521.8)">
		<text transform="matrix(1 0 0 1 -56.5 27)" class="st4 st5 st8">CPU-time</text>
	</g>
	<g>
		<line class="st2" x1="96" y1="475" x2="96" y2="42"/>
		<line class="st2" x1="665" y1="475" x2="665" y2="42"/>
		<line class="st3" x1="96" y1="475" x2="101.7" y2="475"/>
		<line class="st3" x1="96" y1="388.4" x2="101.7" y2="388.4"/>
		<line class="st3" x1="96" y1="301.8" x2="101.7" y2="301.8"/>
		<line class="st3" x1="96" y1="215.2" x2="101.7" y2="215.2"/>
		<line class="st3" x1="96" y1="128.6" x2="101.7" y2="128.6"/>
		<line class="st3" x1="96" y1="42" x2="101.7" y2="42"/>
		<line class="st3" x1="665" y1="475" x2="659.3" y2="475"/>
		<line class="st3" x1="665" y1="388.4" x2="659.3" y2="388.4"/>
		<line class="st3" x1="665" y1="301.8" x2="659.3" y2="301.8"/>
		<line class="st3" x1="665" y1="215.2" x2="659.3" y2="215.2"/>
		<line class="st3" x1="665" y1="128.6" x2="659.3" y2="128.6"/>
		<line class="st3" x1="665" y1="42" x2="659.3" y2="42"/>
		<line class="st3" x1="96" y1="448.9" x2="98.8" y2="448.9"/>
		<line class="st3" x1="96" y1="433.7" x2="98.8" y2="433.7"/>
		<line class="st3" x1="96" y1="422.9" x2="98.8" y2="422.9"/>
		<line class="st3" x1="96" y1="414.5" x2="98.8" y2="414.5"/>
		<line class="st3" x1="96" y1="407.6" x2="98.8" y2="407.6"/>
		<line class="st3" x1="96" y1="401.8" x2="98.8" y2="401.8"/>
		<line class="st3" x1="96" y1="396.8" x2="98.8" y2="396.8"/>
		<line class="st3" x1="96" y1="392.4" x2="98.8" y2="392.4"/>
		<line class="st3" x1="96" y1="362.3" x2="98.8" y2="362.3"/>
		<line class="st3" x1="96" y1="347.1" x2="98.8" y2="347.1"/>
		<line class="st3" x1="96" y1="336.3" x2="98.8" y2="336.3"/>
		<line class="st3" x1="96" y1="327.9" x2="98.8" y2="327.9"/>
		<line class="st3" x1="96" y1="321" x2="98.8" y2="321"/>
		<line class="st3" x1="96" y1="315.2" x2="98.8" y2="315.2"/>
		<line class="st3" x1="96" y1="310.2" x2="98.8" y2="310.2"/>
		<line class="st3" x1="96" y1="305.8" x2="98.8" y2="305.8"/>
		<line class="st3" x1="96" y1="275.7" x2="98.8" y2="275.7"/>
		<line class="st3" x1="96" y1="260.5" x2="98.8" y2="260.5"/>
		<line class="st3" x1="96" y1="249.7" x2="98.8" y2="249.7"/>
		<line class="st3" x1="96" y1="241.3" x2="98.8" y2="241.3"/>
		<line class="st3" x1="96" y1="234.4" x2="98.8" y2="234.4"/>
		<line class="st3" x1="96" y1="228.6" x2="98.8" y2="228.6"/>
		<line class="st3" x1="96" y1="223.6" x2="98.8" y2="223.6"/>
		<line class="st3" x1="96" y1="219.2" x2="98.8" y2="219.2"/>
		<line class="st3" x1="96" y1="189.1" x2="98.8" y2="189.1"/>
		<line class="st3" x1="96" y1="173.9" x2="98.8" y2="173.9"/>
		<line class="st3" x1="96" y1="163.1" x2="98.8" y2="163.1"/>
		<line class="st3" x1="96" y1="154.7" x2="98.8" y2="154.7"/>
		<line class="st3" x1="96" y1="147.8" x2="98.8" y2="147.8"/>
		<line class="st3" x1="96" y1="142" x2="98.8" y2="142"/>
		<line class="st3" x1="96" y1="137" x2="98.8" y2="137"/>
		<line class="st3" x1="96" y1="132.6" x2="98.8" y2="132.6"/>
		<line class="st3" x1="96" y1="102.5" x2="98.8" y2="102.5"/>
		<line class="st3" x1="96" y1="87.3" x2="98.8" y2="87.3"/>
		<line class="st3" x1="96" y1="76.5" x2="98.8" y2="76.5"/>
		<line class="st3" x1="96" y1="68.1" x2="98.8" y2="68.1"/>
		<line class="st3" x1="96" y1="61.2" x2="98.8" y2="61.2"/>
		<line class="st3" x1="96" y1="55.4" x2="98.8" y2="55.4"/>
		<line class="st3" x1="96" y1="50.4" x2="98.8" y2="50.4"/>
		<line class="st3" x1="96" y1="46" x2="98.8" y2="46"/>
		<line class="st3" x1="665" y1="448.9" x2="662.2" y2="448.9"/>
		<line class="st3" x1="665" y1="433.7" x2="662.2" y2="433.7"/>
		<line class="st3" x1="665" y1="422.9" x2="662.2" y2="422.9"/>
		<line class="st3" x1="665" y1="414.5" x2="662.2" y2="414.5"/>
		<line class="st3" x1="665" y1="407.6" x2="662.2" y2="407.6"/>
		<line class="st3" x1="665" y1="401.8" x2="662.2" y2="401.8"/>
		<line class="st3" x1="665" y1="396.8" x2="662.2" y2="396.8"/>
		<line class="st3" x1="665" y1="392.4" x2="662.2" y2="392.4"/>
		<line class="st3" x1="665" y1="362.3" x2="662.2" y2="362.3"/>
		<line class="st3" x1="665" y1="347.1" x2="662.2" y2="347.1"/>
		<line class="st3" x1="665" y1="336.3" x2="662.2" y2="336.3"/>
		<line class="st3" x1="665" y1="327.9" x2="662.2" y2="327.9"/>
		<line class="st3" x1="665" y1="321" x2="662.2" y2="321"/>
		<line class="st3" x1="665" y1="315.2" x2="662.2" y2="315.2"/>
		<line class="st3" x1="665" y1="310.2" x2="662.2" y2="310.2"/>
		<line class="st3" x1="665" y1="305.8" x2="662.2" y2="305.8"/>
		<line class="st3" x1="665" y1="275.7" x2="662.2" y2="275.7"/>
		<line class="st3" x1="665" y1="260.5" x2="662.2" y2="260.5"/>
		<line class="st3" x1="665" y1="249.7" x2="662.2" y2="249.7"/>
		<line class="st3" x1="665" y1="241.3" x2="662.2" y2="241.3"/>
		<line class="st3" x1="665" y1="234.4" x2="662.2" y2="234.4"/>
		<line class="st3" x1="665" y1="228.6" x2="662.2" y2="228.6"/>
		<line class="st3" x1="665" y1="223.6" x2="662.2" y2="223.6"/>
		<line class="st3" x1="665" y1="219.2" x2="662.2" y2="219.2"/>
		<line class="st3" x1="665" y1="189.1" x2="662.2" y2="189.1"/>
		<line class="st3" x1="665" y1="173.9" x2="662.2" y2="173.9"/>
		<line class="st3" x1="665" y1="163.1" x2="662.2" y2="163.1"/>
		<line class="st3" x1="665" y1="154.7" x2="662.2" y2="154.7"/>
		<line class="st3" x1="665" y1="147.8" x2="662.2" y2="147.8"/>
		<line class="st3" x1="665" y1="142" x2="662.2" y2="142"/>
		<line class="st3" x1="665" y1="137" x2="662.2" y2="137"/>
		<line class="st3" x1="665" y1="132.6" x2="662.2" y2="132.6"/>
		<line class="st3" x1="665" y1="102.5" x2="662.2" y2="102.5"/>
		<line class="st3" x1="665" y1="87.3" x2="662.2" y2="87.3"/>
		<line class="st3" x1="665" y1="76.5" x2="662.2" y2="76.5"/>
		<line class="st3" x1="665" y1="68.1" x2="662.2" y2="68.1"/>
		<line class="st3" x1="665" y1="61.2" x2="662.2" y2="61.2"/>
		<line class="st3" x1="665" y1="55.4" x2="662.2" y2="55.4"/>
		<line class="st3" x1="665" y1="50.4" x2="662.2" y2="50.4"/>
		<line class="st3" x1="665" y1="46" x2="662.2" y2="46"/>
	</g>
	<g transform="translate(45,488)">
		<text transform="matrix(1 0 0 1 0 -1.464844e-05)" class="st4 st5 st6">10</text>
	</g>
	<g transform="translate(72,476)">
		<text transform="matrix(1 0 0 1 0 -1.464844e-05)" class="st4 st5 st7">-7</text>
	</g>
	<g transform="translate(45,401)">
		<text transform="matrix(1 0 0 1 0 -1.464844e-05)" class="st4 st5 st6">10</text>
	</g>
	<g transform="translate(72,389)">
		<text transform="matrix(1 0 0 1 0 -1.464844e-05)" class="st4 st5 st7">-6</text>
	</g>
	<g transform="translate(45,315)">
		<text transform="matrix(1 0 0 1 0 -1.464844e-05)" class="st4 st5 st6">10</text>
	</g>
	<g transform="translate(72,303)">
		<text transform="matrix(1 0 0 1 0 -1.464844e-05)" class="st4 st5 st7">-5</text>
	</g>
	<g transform="translate(45,228)">
		<text transform="matrix(1 0 0 1 0 -1.464844e-05)" class="st4 st5 st6">10</text>
	</g>
	<g transform="translate(72,216)">
		<text transform="matrix(1 0 0 1 0 -1.464844e-05)" class="st4 st5 st7">-4</text>
	</g>
	<g transform="translate(45,142)">
		<text transform="matrix(1 0 0 1 0 -1.464844e-05)" class="st4 st5 st6">10</text>
	</g>
	<g transform="translate(72,130)">
		<text transform="matrix(1 0 0 1 0 -1.464844e-05)" class="st4 st5 st7">-3</text>
	</g>
	<g transform="translate(45,55)">
		<text transform="matrix(1 0 0 1 0 -1.464844e-05)" class="st4 st5 st6">10</text>
	</g>
	<g transform="translate(72,43)">
		<text transform="matrix(1 0 0 1 0 -1.464844e-05)" class="st4 st5 st7">-2</text>
	</g>
	<g transform="translate(40.5333,258.4998) rotate(-90)">
		<text transform="matrix(1 0 0 1 -28.9996 -6)" class="st4 st5 st8">Error</text>
	</g>
	<g>
		<path class="st9" d="M135.8,115.9l91.5,57.5l95.1,62.1l95,57"/>
		<line class="st9" x1="131" y1="115.5" x2="140" y2="115.5"/>
		<line class="st9" x1="135.5" y1="120" x2="135.5" y2="111"/>
		<line class="st9" x1="132" y1="119" x2="139" y2="112"/>
		<line class="st9" x1="132" y1="112" x2="139" y2="119"/>
		<line class="st9" x1="223" y1="173.5" x2="232" y2="173.5"/>
		<line class="st9" x1="227.5" y1="178" x2="227.5" y2="169"/>
		<line class="st9" x1="224" y1="177" x2="231" y2="170"/>
		<line class="st9" x1="224" y1="170" x2="231" y2="177"/>
		<line class="st9" x1="318" y1="235.5" x2="327" y2="235.5"/>
		<line class="st9" x1="322.5" y1="240" x2="322.5" y2="231"/>
		<line class="st9" x1="319" y1="239" x2="326" y2="232"/>
		<line class="st9" x1="319" y1="232" x2="326" y2="239"/>
		<line class="st9" x1="413" y1="292.5" x2="422" y2="292.5"/>
		<line class="st9" x1="417.5" y1="297" x2="417.5" y2="288"/>
		<line class="st9" x1="414" y1="296" x2="421" y2="289"/>
		<line class="st9" x1="414" y1="289" x2="421" y2="296"/>
		<path class="st10" d="M231.6,153.3l2.2,34.2l4.1,157.8l5.6,8.4"/>
		<line class="st10" x1="227" y1="153.5" x2="236" y2="153.5"/>
		<line class="st10" x1="231.5" y1="158" x2="231.5" y2="149"/>
		<line class="st10" x1="228" y1="157" x2="235" y2="150"/>
		<line class="st10" x1="228" y1="150" x2="235" y2="157"/>
		<line class="st10" x1="229" y1="187.5" x2="238" y2="187.5"/>
		<line class="st10" x1="233.5" y1="192" x2="233.5" y2="183"/>
		<line class="st10" x1="230" y1="191" x2="237" y2="184"/>
		<line class="st10" x1="230" y1="184" x2="237" y2="191"/>
		<line class="st10" x1="233" y1="345.5" x2="242" y2="345.5"/>
		<line class="st10" x1="237.5" y1="350" x2="237.5" y2="341"/>
		<line class="st10" x1="234" y1="349" x2="241" y2="342"/>
		<line class="st10" x1="234" y1="342" x2="241" y2="349"/>
		<line class="st10" x1="239" y1="353.5" x2="248" y2="353.5"/>
		<line class="st10" x1="243.5" y1="358" x2="243.5" y2="349"/>
		<line class="st10" x1="240" y1="357" x2="247" y2="350"/>
		<line class="st10" x1="240" y1="350" x2="247" y2="357"/>
		<line class="st11" x1="602" y1="409.5" x2="613" y2="409.5"/>
		<line class="st11" x1="607.5" y1="415" x2="607.5" y2="404"/>
		<line class="st11" x1="603" y1="414" x2="612" y2="405"/>
		<line class="st11" x1="603" y1="405" x2="612" y2="414"/>
	</g>
	<g>
		<line class="st12" x1="417.5" y1="292.6" x2="607.3" y2="409.2"/>
	</g>
	<g>
		<line class="st13" x1="95.9" y1="353.6" x2="665" y2="353.6"/>
	</g>
	<g>
		<path class="st1" d="M447,158V41h219v117H447z"/>
	</g>
	<g transform="translate(484,57)">
		<text transform="matrix(1 0 0 1 0 9)" class="st5 st14">QMC</text>
	</g>
	<g>
		<line class="st9" x1="451" y1="57" x2="481" y2="57"/>
		<line class="st9" x1="462" y1="56.5" x2="471" y2="56.5"/>
		<line class="st9" x1="466.5" y1="61" x2="466.5" y2="52"/>
		<line class="st9" x1="463" y1="60" x2="470" y2="53"/>
		<line class="st9" x1="463" y1="53" x2="470" y2="60"/>
	</g>
	<g transform="translate(484,85.5)">
		<text transform="matrix(1 0 0 1 0 9)" class="st5 st14">Ray mapping</text>
	</g>
	<g>
		<line class="st10" x1="451" y1="85.5" x2="481" y2="85.5"/>
		<line class="st10" x1="462" y1="85.5" x2="471" y2="85.5"/>
		<line class="st10" x1="466.5" y1="90" x2="466.5" y2="81"/>
		<line class="st10" x1="463" y1="89" x2="470" y2="82"/>
		<line class="st10" x1="463" y1="82" x2="470" y2="89"/>
	</g>
	<g transform="translate(484,128)">
		<text transform="matrix(1 0 0 1 0 -5)" class="st5 st14">Extrapolated point</text>
	</g>
	<g transform="translate(484,128)">
		<text transform="matrix(1 0 0 1 0 23)" class="st5 st14"> from QMC error</text>
	</g>
	<g>
		<line class="st11" x1="461" y1="127.5" x2="472" y2="127.5"/>
		<line class="st11" x1="466.5" y1="133" x2="466.5" y2="122"/>
		<line class="st11" x1="462" y1="132" x2="471" y2="123"/>
		<line class="st11" x1="462" y1="123" x2="471" y2="132"/>
	</g>
	<g>
		<path class="st15" d="M447,158V41h219v117H447z"/>
	</g>
</g>
</svg>
