<?xml version="1.0" encoding="utf-8"?>
<!-- Generator: Adobe Illustrator 21.1.0, SVG Export Plug-In . SVG Version: 6.00 Build 0)  -->
<svg version="1.1" id="Layer_1" xmlns="http://www.w3.org/2000/svg" xmlns:xlink="http://www.w3.org/1999/xlink" x="0px" y="0px"
	 viewBox="0 0 731 555" style="enable-background:new 0 0 731 555;" xml:space="preserve">
<style type="text/css">
	.st0{clip-path:url(#SVGID_2_);fill:#FFFFFF;}
	.st1{fill:#FFFFFF;}
	.st2{fill:none;stroke:#262626;stroke-width:0.6667;stroke-linecap:square;stroke-linejoin:round;stroke-miterlimit:10;}
	.st3{fill:#262626;}
	.st4{font-family:'MyriadPro-Regular';}
	.st5{font-size:21px;}
	.st6{font-size:16px;}
	.st7{font-size:23px;}
	.st8{fill:none;stroke:#0000FF;stroke-width:2.6667;stroke-linejoin:round;stroke-miterlimit:10;}
	.st9{fill:none;stroke:#FF0000;stroke-width:2.6667;stroke-linejoin:round;stroke-miterlimit:10;}
	.st10{fill:none;stroke:#00FFFF;stroke-width:2.6667;stroke-linejoin:round;stroke-miterlimit:10;}
	.st11{fill:none;stroke:#00FFFF;stroke-width:2.6667;stroke-linejoin:bevel;stroke-miterlimit:1;stroke-dasharray:8,8;}
	.st12{fill:none;stroke:#000000;stroke-width:2;stroke-linejoin:bevel;stroke-miterlimit:1;stroke-dasharray:8,8;}
	.st13{font-size:19px;}
	.st14{fill:none;stroke:#262626;stroke-width:0.6667;stroke-miterlimit:10;}
</style>
<g>
	<g>
		<g>
			<defs>
				<rect id="SVGID_1_" y="0" width="731" height="555"/>
			</defs>
			<clipPath id="SVGID_2_">
				<use xlink:href="#SVGID_1_"  style="overflow:visible;"/>
			</clipPath>
			<rect y="0" class="st0" width="731" height="555"/>
		</g>
	</g>
	<g>
		<rect y="0" class="st1" width="731" height="555"/>
		<path class="st1" d="M95,477h567V18H95V477z"/>
	</g>
	<g>
		<line class="st2" x1="95" y1="477" x2="662" y2="477"/>
		<line class="st2" x1="95" y1="18" x2="662" y2="18"/>
		<line class="st2" x1="124.8" y1="477" x2="124.8" y2="471.3"/>
		<line class="st2" x1="259.1" y1="477" x2="259.1" y2="471.3"/>
		<line class="st2" x1="393.4" y1="477" x2="393.4" y2="471.3"/>
		<line class="st2" x1="527.7" y1="477" x2="527.7" y2="471.3"/>
		<line class="st2" x1="662" y1="477" x2="662" y2="471.3"/>
		<line class="st2" x1="124.8" y1="18" x2="124.8" y2="23.7"/>
		<line class="st2" x1="259.1" y1="18" x2="259.1" y2="23.7"/>
		<line class="st2" x1="393.4" y1="18" x2="393.4" y2="23.7"/>
		<line class="st2" x1="527.7" y1="18" x2="527.7" y2="23.7"/>
		<line class="st2" x1="662" y1="18" x2="662" y2="23.7"/>
		<line class="st2" x1="104" y1="477" x2="104" y2="474.2"/>
		<line class="st2" x1="111.8" y1="477" x2="111.8" y2="474.2"/>
		<line class="st2" x1="118.6" y1="477" x2="118.6" y2="474.2"/>
		<line class="st2" x1="165.2" y1="477" x2="165.2" y2="474.2"/>
		<line class="st2" x1="188.9" y1="477" x2="188.9" y2="474.2"/>
		<line class="st2" x1="205.7" y1="477" x2="205.7" y2="474.2"/>
		<line class="st2" x1="218.7" y1="477" x2="218.7" y2="474.2"/>
		<line class="st2" x1="229.3" y1="477" x2="229.3" y2="474.2"/>
		<line class="st2" x1="238.3" y1="477" x2="238.3" y2="474.2"/>
		<line class="st2" x1="246.1" y1="477" x2="246.1" y2="474.2"/>
		<line class="st2" x1="253" y1="477" x2="253" y2="474.2"/>
		<line class="st2" x1="299.5" y1="477" x2="299.5" y2="474.2"/>
		<line class="st2" x1="323.2" y1="477" x2="323.2" y2="474.2"/>
		<line class="st2" x1="340" y1="477" x2="340" y2="474.2"/>
		<line class="st2" x1="353" y1="477" x2="353" y2="474.2"/>
		<line class="st2" x1="363.6" y1="477" x2="363.6" y2="474.2"/>
		<line class="st2" x1="372.6" y1="477" x2="372.6" y2="474.2"/>
		<line class="st2" x1="380.4" y1="477" x2="380.4" y2="474.2"/>
		<line class="st2" x1="387.3" y1="477" x2="387.3" y2="474.2"/>
		<line class="st2" x1="433.8" y1="477" x2="433.8" y2="474.2"/>
		<line class="st2" x1="457.5" y1="477" x2="457.5" y2="474.2"/>
		<line class="st2" x1="474.3" y1="477" x2="474.3" y2="474.2"/>
		<line class="st2" x1="487.3" y1="477" x2="487.3" y2="474.2"/>
		<line class="st2" x1="497.9" y1="477" x2="497.9" y2="474.2"/>
		<line class="st2" x1="506.9" y1="477" x2="506.9" y2="474.2"/>
		<line class="st2" x1="514.7" y1="477" x2="514.7" y2="474.2"/>
		<line class="st2" x1="521.6" y1="477" x2="521.6" y2="474.2"/>
		<line class="st2" x1="568.1" y1="477" x2="568.1" y2="474.2"/>
		<line class="st2" x1="591.8" y1="477" x2="591.8" y2="474.2"/>
		<line class="st2" x1="608.6" y1="477" x2="608.6" y2="474.2"/>
		<line class="st2" x1="621.6" y1="477" x2="621.6" y2="474.2"/>
		<line class="st2" x1="632.2" y1="477" x2="632.2" y2="474.2"/>
		<line class="st2" x1="641.2" y1="477" x2="641.2" y2="474.2"/>
		<line class="st2" x1="649" y1="477" x2="649" y2="474.2"/>
		<line class="st2" x1="655.9" y1="477" x2="655.9" y2="474.2"/>
		<line class="st2" x1="104" y1="18" x2="104" y2="20.8"/>
		<line class="st2" x1="111.8" y1="18" x2="111.8" y2="20.8"/>
		<line class="st2" x1="118.6" y1="18" x2="118.6" y2="20.8"/>
		<line class="st2" x1="165.2" y1="18" x2="165.2" y2="20.8"/>
		<line class="st2" x1="188.9" y1="18" x2="188.9" y2="20.8"/>
		<line class="st2" x1="205.7" y1="18" x2="205.7" y2="20.8"/>
		<line class="st2" x1="218.7" y1="18" x2="218.7" y2="20.8"/>
		<line class="st2" x1="229.3" y1="18" x2="229.3" y2="20.8"/>
		<line class="st2" x1="238.3" y1="18" x2="238.3" y2="20.8"/>
		<line class="st2" x1="246.1" y1="18" x2="246.1" y2="20.8"/>
		<line class="st2" x1="253" y1="18" x2="253" y2="20.8"/>
		<line class="st2" x1="299.5" y1="18" x2="299.5" y2="20.8"/>
		<line class="st2" x1="323.2" y1="18" x2="323.2" y2="20.8"/>
		<line class="st2" x1="340" y1="18" x2="340" y2="20.8"/>
		<line class="st2" x1="353" y1="18" x2="353" y2="20.8"/>
		<line class="st2" x1="363.6" y1="18" x2="363.6" y2="20.8"/>
		<line class="st2" x1="372.6" y1="18" x2="372.6" y2="20.8"/>
		<line class="st2" x1="380.4" y1="18" x2="380.4" y2="20.8"/>
		<line class="st2" x1="387.3" y1="18" x2="387.3" y2="20.8"/>
		<line class="st2" x1="433.8" y1="18" x2="433.8" y2="20.8"/>
		<line class="st2" x1="457.5" y1="18" x2="457.5" y2="20.8"/>
		<line class="st2" x1="474.3" y1="18" x2="474.3" y2="20.8"/>
		<line class="st2" x1="487.3" y1="18" x2="487.3" y2="20.8"/>
		<line class="st2" x1="497.9" y1="18" x2="497.9" y2="20.8"/>
		<line class="st2" x1="506.9" y1="18" x2="506.9" y2="20.8"/>
		<line class="st2" x1="514.7" y1="18" x2="514.7" y2="20.8"/>
		<line class="st2" x1="521.6" y1="18" x2="521.6" y2="20.8"/>
		<line class="st2" x1="568.1" y1="18" x2="568.1" y2="20.8"/>
		<line class="st2" x1="591.8" y1="18" x2="591.8" y2="20.8"/>
		<line class="st2" x1="608.6" y1="18" x2="608.6" y2="20.8"/>
		<line class="st2" x1="621.6" y1="18" x2="621.6" y2="20.8"/>
		<line class="st2" x1="632.2" y1="18" x2="632.2" y2="20.8"/>
		<line class="st2" x1="641.2" y1="18" x2="641.2" y2="20.8"/>
		<line class="st2" x1="649" y1="18" x2="649" y2="20.8"/>
		<line class="st2" x1="655.9" y1="18" x2="655.9" y2="20.8"/>
	</g>
	<g transform="translate(108,511)">
		<text transform="matrix(1 0 0 1 0 -1.464844e-05)" class="st3 st4 st5">10</text>
	</g>
	<g transform="translate(132,501)">
		<text transform="matrix(1 0 0 1 0 -1.464844e-05)" class="st3 st4 st6">1</text>
	</g>
	<g transform="translate(242,511)">
		<text transform="matrix(1 0 0 1 0 -1.464844e-05)" class="st3 st4 st5">10</text>
	</g>
	<g transform="translate(266,501)">
		<text transform="matrix(1 0 0 1 0 -1.464844e-05)" class="st3 st4 st6">2</text>
	</g>
	<g transform="translate(376,511)">
		<text transform="matrix(1 0 0 1 0 -1.464844e-05)" class="st3 st4 st5">10</text>
	</g>
	<g transform="translate(400,501)">
		<text transform="matrix(1 0 0 1 0 -1.464844e-05)" class="st3 st4 st6">3</text>
	</g>
	<g transform="translate(511,511)">
		<text transform="matrix(1 0 0 1 0 -1.464844e-05)" class="st3 st4 st5">10</text>
	</g>
	<g transform="translate(535,501)">
		<text transform="matrix(1 0 0 1 0 -1.464844e-05)" class="st3 st4 st6">4</text>
	</g>
	<g transform="translate(645,511)">
		<text transform="matrix(1 0 0 1 0 -1.464844e-05)" class="st3 st4 st5">10</text>
	</g>
	<g transform="translate(669,501)">
		<text transform="matrix(1 0 0 1 0 -1.464844e-05)" class="st3 st4 st6">5</text>
	</g>
	<g transform="translate(378.5003,517.2667)">
		<text transform="matrix(1 0 0 1 -50 24)" class="st3 st4 st7">CPU-time</text>
	</g>
	<g>
		<line class="st2" x1="95" y1="477" x2="95" y2="18"/>
		<line class="st2" x1="662" y1="477" x2="662" y2="18"/>
		<line class="st2" x1="95" y1="390.3" x2="100.7" y2="390.3"/>
		<line class="st2" x1="95" y1="266.2" x2="100.7" y2="266.2"/>
		<line class="st2" x1="95" y1="142.1" x2="100.7" y2="142.1"/>
		<line class="st2" x1="95" y1="18" x2="100.7" y2="18"/>
		<line class="st2" x1="662" y1="390.3" x2="656.3" y2="390.3"/>
		<line class="st2" x1="662" y1="266.2" x2="656.3" y2="266.2"/>
		<line class="st2" x1="662" y1="142.1" x2="656.3" y2="142.1"/>
		<line class="st2" x1="662" y1="18" x2="656.3" y2="18"/>
		<line class="st2" x1="95" y1="455.1" x2="97.8" y2="455.1"/>
		<line class="st2" x1="95" y1="439.6" x2="97.8" y2="439.6"/>
		<line class="st2" x1="95" y1="427.6" x2="97.8" y2="427.6"/>
		<line class="st2" x1="95" y1="417.8" x2="97.8" y2="417.8"/>
		<line class="st2" x1="95" y1="409.5" x2="97.8" y2="409.5"/>
		<line class="st2" x1="95" y1="402.3" x2="97.8" y2="402.3"/>
		<line class="st2" x1="95" y1="395.9" x2="97.8" y2="395.9"/>
		<line class="st2" x1="95" y1="352.9" x2="97.8" y2="352.9"/>
		<line class="st2" x1="95" y1="331.1" x2="97.8" y2="331.1"/>
		<line class="st2" x1="95" y1="315.6" x2="97.8" y2="315.6"/>
		<line class="st2" x1="95" y1="303.5" x2="97.8" y2="303.5"/>
		<line class="st2" x1="95" y1="293.7" x2="97.8" y2="293.7"/>
		<line class="st2" x1="95" y1="285.4" x2="97.8" y2="285.4"/>
		<line class="st2" x1="95" y1="278.2" x2="97.8" y2="278.2"/>
		<line class="st2" x1="95" y1="271.9" x2="97.8" y2="271.9"/>
		<line class="st2" x1="95" y1="228.8" x2="97.8" y2="228.8"/>
		<line class="st2" x1="95" y1="207" x2="97.8" y2="207"/>
		<line class="st2" x1="95" y1="191.5" x2="97.8" y2="191.5"/>
		<line class="st2" x1="95" y1="179.4" x2="97.8" y2="179.4"/>
		<line class="st2" x1="95" y1="169.6" x2="97.8" y2="169.6"/>
		<line class="st2" x1="95" y1="161.3" x2="97.8" y2="161.3"/>
		<line class="st2" x1="95" y1="154.1" x2="97.8" y2="154.1"/>
		<line class="st2" x1="95" y1="147.8" x2="97.8" y2="147.8"/>
		<line class="st2" x1="95" y1="104.7" x2="97.8" y2="104.7"/>
		<line class="st2" x1="95" y1="82.9" x2="97.8" y2="82.9"/>
		<line class="st2" x1="95" y1="67.4" x2="97.8" y2="67.4"/>
		<line class="st2" x1="95" y1="55.4" x2="97.8" y2="55.4"/>
		<line class="st2" x1="95" y1="45.5" x2="97.8" y2="45.5"/>
		<line class="st2" x1="95" y1="37.2" x2="97.8" y2="37.2"/>
		<line class="st2" x1="95" y1="30" x2="97.8" y2="30"/>
		<line class="st2" x1="95" y1="23.7" x2="97.8" y2="23.7"/>
		<line class="st2" x1="662" y1="455.1" x2="659.2" y2="455.1"/>
		<line class="st2" x1="662" y1="439.6" x2="659.2" y2="439.6"/>
		<line class="st2" x1="662" y1="427.6" x2="659.2" y2="427.6"/>
		<line class="st2" x1="662" y1="417.8" x2="659.2" y2="417.8"/>
		<line class="st2" x1="662" y1="409.5" x2="659.2" y2="409.5"/>
		<line class="st2" x1="662" y1="402.3" x2="659.2" y2="402.3"/>
		<line class="st2" x1="662" y1="395.9" x2="659.2" y2="395.9"/>
		<line class="st2" x1="662" y1="352.9" x2="659.2" y2="352.9"/>
		<line class="st2" x1="662" y1="331.1" x2="659.2" y2="331.1"/>
		<line class="st2" x1="662" y1="315.6" x2="659.2" y2="315.6"/>
		<line class="st2" x1="662" y1="303.5" x2="659.2" y2="303.5"/>
		<line class="st2" x1="662" y1="293.7" x2="659.2" y2="293.7"/>
		<line class="st2" x1="662" y1="285.4" x2="659.2" y2="285.4"/>
		<line class="st2" x1="662" y1="278.2" x2="659.2" y2="278.2"/>
		<line class="st2" x1="662" y1="271.9" x2="659.2" y2="271.9"/>
		<line class="st2" x1="662" y1="228.8" x2="659.2" y2="228.8"/>
		<line class="st2" x1="662" y1="207" x2="659.2" y2="207"/>
		<line class="st2" x1="662" y1="191.5" x2="659.2" y2="191.5"/>
		<line class="st2" x1="662" y1="179.4" x2="659.2" y2="179.4"/>
		<line class="st2" x1="662" y1="169.6" x2="659.2" y2="169.6"/>
		<line class="st2" x1="662" y1="161.3" x2="659.2" y2="161.3"/>
		<line class="st2" x1="662" y1="154.1" x2="659.2" y2="154.1"/>
		<line class="st2" x1="662" y1="147.8" x2="659.2" y2="147.8"/>
		<line class="st2" x1="662" y1="104.7" x2="659.2" y2="104.7"/>
		<line class="st2" x1="662" y1="82.9" x2="659.2" y2="82.9"/>
		<line class="st2" x1="662" y1="67.4" x2="659.2" y2="67.4"/>
		<line class="st2" x1="662" y1="55.4" x2="659.2" y2="55.4"/>
		<line class="st2" x1="662" y1="45.5" x2="659.2" y2="45.5"/>
		<line class="st2" x1="662" y1="37.2" x2="659.2" y2="37.2"/>
		<line class="st2" x1="662" y1="30" x2="659.2" y2="30"/>
		<line class="st2" x1="662" y1="23.7" x2="659.2" y2="23.7"/>
	</g>
	<g transform="translate(49,401)">
		<text transform="matrix(1 0 0 1 0 -1.464844e-05)" class="st3 st4 st5">10</text>
	</g>
	<g transform="translate(73,391)">
		<text transform="matrix(1 0 0 1 0 -1.464844e-05)" class="st3 st4 st6">-7</text>
	</g>
	<g transform="translate(49,277)">
		<text transform="matrix(1 0 0 1 0 -1.464844e-05)" class="st3 st4 st5">10</text>
	</g>
	<g transform="translate(73,267)">
		<text transform="matrix(1 0 0 1 0 -1.464844e-05)" class="st3 st4 st6">-6</text>
	</g>
	<g transform="translate(49,153)">
		<text transform="matrix(1 0 0 1 0 -1.464844e-05)" class="st3 st4 st5">10</text>
	</g>
	<g transform="translate(73,143)">
		<text transform="matrix(1 0 0 1 0 -1.464844e-05)" class="st3 st4 st6">-5</text>
	</g>
	<g transform="translate(49,29)">
		<text transform="matrix(1 0 0 1 0 -1.464844e-05)" class="st3 st4 st5">10</text>
	</g>
	<g transform="translate(73,19)">
		<text transform="matrix(1 0 0 1 0 -1.464844e-05)" class="st3 st4 st6">-4</text>
	</g>
	<g transform="translate(45.0667,247.4998) rotate(-90)">
		<text transform="matrix(1 0 0 1 -25.9996 -6)" class="st3 st4 st7">Error</text>
	</g>
	<g>
		<path class="st8" d="M107,22.7l134.7,63.4l134.7,124.2l133.9,85.1"/>
		<line class="st8" x1="102" y1="22.5" x2="111" y2="22.5"/>
		<line class="st8" x1="106.5" y1="27" x2="106.5" y2="18"/>
		<line class="st8" x1="103" y1="26" x2="110" y2="19"/>
		<line class="st8" x1="103" y1="19" x2="110" y2="26"/>
		<line class="st8" x1="237" y1="86.5" x2="246" y2="86.5"/>
		<line class="st8" x1="241.5" y1="91" x2="241.5" y2="82"/>
		<line class="st8" x1="238" y1="90" x2="245" y2="83"/>
		<line class="st8" x1="238" y1="83" x2="245" y2="90"/>
		<line class="st8" x1="372" y1="210.5" x2="381" y2="210.5"/>
		<line class="st8" x1="376.5" y1="215" x2="376.5" y2="206"/>
		<line class="st8" x1="373" y1="214" x2="380" y2="207"/>
		<line class="st8" x1="373" y1="207" x2="380" y2="214"/>
		<line class="st8" x1="506" y1="295.5" x2="515" y2="295.5"/>
		<line class="st8" x1="510.5" y1="300" x2="510.5" y2="291"/>
		<line class="st8" x1="507" y1="299" x2="514" y2="292"/>
		<line class="st8" x1="507" y1="292" x2="514" y2="299"/>
		<path class="st9" d="M249.1,51.5l124.4,248.9l94.7,87.1l40.5-0.1"/>
		<line class="st9" x1="245" y1="51.5" x2="254" y2="51.5"/>
		<line class="st9" x1="249.5" y1="56" x2="249.5" y2="47"/>
		<line class="st9" x1="246" y1="55" x2="253" y2="48"/>
		<line class="st9" x1="246" y1="48" x2="253" y2="55"/>
		<line class="st9" x1="369" y1="300.5" x2="378" y2="300.5"/>
		<line class="st9" x1="373.5" y1="305" x2="373.5" y2="296"/>
		<line class="st9" x1="370" y1="304" x2="377" y2="297"/>
		<line class="st9" x1="370" y1="297" x2="377" y2="304"/>
		<line class="st9" x1="464" y1="387.5" x2="473" y2="387.5"/>
		<line class="st9" x1="468.5" y1="392" x2="468.5" y2="383"/>
		<line class="st9" x1="465" y1="391" x2="472" y2="384"/>
		<line class="st9" x1="465" y1="384" x2="472" y2="391"/>
		<line class="st9" x1="504" y1="387.5" x2="513" y2="387.5"/>
		<line class="st9" x1="508.5" y1="392" x2="508.5" y2="383"/>
		<line class="st9" x1="505" y1="391" x2="512" y2="384"/>
		<line class="st9" x1="505" y1="384" x2="512" y2="391"/>
		<line class="st10" x1="640" y1="453.5" x2="649" y2="453.5"/>
		<line class="st10" x1="644.5" y1="458" x2="644.5" y2="449"/>
		<line class="st10" x1="641" y1="457" x2="648" y2="450"/>
		<line class="st10" x1="641" y1="450" x2="648" y2="457"/>
	</g>
	<g>
		<line class="st11" x1="510.3" y1="295.3" x2="644.6" y2="453.4"/>
		<line class="st12" x1="94.9" y1="295.3" x2="662" y2="295.3"/>
		<line class="st12" x1="94.9" y1="387.5" x2="662" y2="387.5"/>
	</g>
	<g>
		<path class="st1" d="M488,148V18h174v130H488z"/>
	</g>
	<g transform="translate(525,32.5)">
		<text transform="matrix(1 0 0 1 0 7.5)" class="st4 st13">QMC error</text>
	</g>
	<g>
		<line class="st8" x1="492" y1="32.5" x2="522" y2="32.5"/>
		<line class="st8" x1="503" y1="32.5" x2="512" y2="32.5"/>
		<line class="st8" x1="507.5" y1="37" x2="507.5" y2="28"/>
		<line class="st8" x1="504" y1="36" x2="511" y2="29"/>
		<line class="st8" x1="504" y1="29" x2="511" y2="36"/>
	</g>
	<g transform="translate(525,70.5)">
		<text transform="matrix(1 0 0 1 0 -5)" class="st4 st13">Ray mapping</text>
	</g>
	<g transform="translate(525,70.5)">
		<text transform="matrix(1 0 0 1 0 20)" class="st4 st13">error</text>
	</g>
	<g>
		<line class="st9" x1="492" y1="70.5" x2="522" y2="70.5"/>
		<line class="st9" x1="503" y1="70.5" x2="512" y2="70.5"/>
		<line class="st9" x1="507.5" y1="75" x2="507.5" y2="66"/>
		<line class="st9" x1="504" y1="74" x2="511" y2="67"/>
		<line class="st9" x1="504" y1="67" x2="511" y2="74"/>
	</g>
	<g transform="translate(525,121)">
		<text transform="matrix(1 0 0 1 0 -5)" class="st4 st13">Extrapolation of</text>
	</g>
	<g transform="translate(525,121)">
		<text transform="matrix(1 0 0 1 0 20)" class="st4 st13">QMC error</text>
	</g>
	<g>
		<line class="st10" x1="503" y1="120.5" x2="512" y2="120.5"/>
		<line class="st10" x1="507.5" y1="125" x2="507.5" y2="116"/>
		<line class="st10" x1="504" y1="124" x2="511" y2="117"/>
		<line class="st10" x1="504" y1="117" x2="511" y2="124"/>
	</g>
	<g>
		<path class="st14" d="M488,148V18h174v130H488z"/>
	</g>
</g>
</svg>
