<?xml version="1.0" encoding="utf-8"?>
<!-- Generator: Adobe Illustrator 21.1.0, SVG Export Plug-In . SVG Version: 6.00 Build 0)  -->
<svg version="1.1" id="Layer_1" xmlns="http://www.w3.org/2000/svg" xmlns:xlink="http://www.w3.org/1999/xlink" x="0px" y="0px"
	 viewBox="0 0 731 555" style="enable-background:new 0 0 731 555;" xml:space="preserve">
<style type="text/css">
	.st0{clip-path:url(#SVGID_2_);fill:#FFFFFF;}
	.st1{fill:#FFFFFF;}
	.st2{fill:none;stroke:#262626;stroke-width:0.6667;stroke-linecap:square;stroke-linejoin:round;stroke-miterlimit:10;}
	.st3{fill:#262626;}
	.st4{font-family:'MyriadPro-Regular';}
	.st5{font-size:21px;}
	.st6{font-size:16px;}
	.st7{font-size:23px;}
	.st8{fill:none;stroke:#00FF00;stroke-width:2.6667;stroke-linejoin:round;stroke-miterlimit:10;}
	.st9{fill:none;stroke:#0000FF;stroke-width:2.6667;stroke-linejoin:round;stroke-miterlimit:10;}
	.st10{fill:none;stroke:#FF0000;stroke-width:2.6667;stroke-linejoin:round;stroke-miterlimit:10;}
	.st11{font-size:19px;}
	.st12{fill:none;stroke:#262626;stroke-width:0.6667;stroke-miterlimit:10;}
</style>
<g>
	<g>
		<g>
			<defs>
				<rect id="SVGID_1_" y="0" width="731" height="555"/>
			</defs>
			<clipPath id="SVGID_2_">
				<use xlink:href="#SVGID_1_"  style="overflow:visible;"/>
			</clipPath>
			<rect y="0" class="st0" width="731" height="555"/>
		</g>
	</g>
	<g>
		<rect y="0" class="st1" width="731" height="555"/>
		<path class="st1" d="M95,485h567V42H95V485z"/>
	</g>
	<g>
		<line class="st2" x1="95" y1="485" x2="662" y2="485"/>
		<line class="st2" x1="95" y1="42" x2="662" y2="42"/>
		<line class="st2" x1="202.1" y1="485" x2="202.1" y2="479.3"/>
		<line class="st2" x1="355.4" y1="485" x2="355.4" y2="479.3"/>
		<line class="st2" x1="508.7" y1="485" x2="508.7" y2="479.3"/>
		<line class="st2" x1="662" y1="485" x2="662" y2="479.3"/>
		<line class="st2" x1="202.1" y1="42" x2="202.1" y2="47.7"/>
		<line class="st2" x1="355.4" y1="42" x2="355.4" y2="47.7"/>
		<line class="st2" x1="508.7" y1="42" x2="508.7" y2="47.7"/>
		<line class="st2" x1="662" y1="42" x2="662" y2="47.7"/>
		<line class="st2" x1="122" y1="485" x2="122" y2="482.2"/>
		<line class="st2" x1="141.1" y1="485" x2="141.1" y2="482.2"/>
		<line class="st2" x1="156" y1="485" x2="156" y2="482.2"/>
		<line class="st2" x1="168.1" y1="485" x2="168.1" y2="482.2"/>
		<line class="st2" x1="178.4" y1="485" x2="178.4" y2="482.2"/>
		<line class="st2" x1="187.3" y1="485" x2="187.3" y2="482.2"/>
		<line class="st2" x1="195.1" y1="485" x2="195.1" y2="482.2"/>
		<line class="st2" x1="248.3" y1="485" x2="248.3" y2="482.2"/>
		<line class="st2" x1="275.3" y1="485" x2="275.3" y2="482.2"/>
		<line class="st2" x1="294.4" y1="485" x2="294.4" y2="482.2"/>
		<line class="st2" x1="309.3" y1="485" x2="309.3" y2="482.2"/>
		<line class="st2" x1="321.4" y1="485" x2="321.4" y2="482.2"/>
		<line class="st2" x1="331.7" y1="485" x2="331.7" y2="482.2"/>
		<line class="st2" x1="340.6" y1="485" x2="340.6" y2="482.2"/>
		<line class="st2" x1="348.4" y1="485" x2="348.4" y2="482.2"/>
		<line class="st2" x1="401.6" y1="485" x2="401.6" y2="482.2"/>
		<line class="st2" x1="428.6" y1="485" x2="428.6" y2="482.2"/>
		<line class="st2" x1="447.7" y1="485" x2="447.7" y2="482.2"/>
		<line class="st2" x1="462.6" y1="485" x2="462.6" y2="482.2"/>
		<line class="st2" x1="474.7" y1="485" x2="474.7" y2="482.2"/>
		<line class="st2" x1="485" y1="485" x2="485" y2="482.2"/>
		<line class="st2" x1="493.9" y1="485" x2="493.9" y2="482.2"/>
		<line class="st2" x1="501.7" y1="485" x2="501.7" y2="482.2"/>
		<line class="st2" x1="554.9" y1="485" x2="554.9" y2="482.2"/>
		<line class="st2" x1="581.8" y1="485" x2="581.8" y2="482.2"/>
		<line class="st2" x1="601" y1="485" x2="601" y2="482.2"/>
		<line class="st2" x1="615.9" y1="485" x2="615.9" y2="482.2"/>
		<line class="st2" x1="628" y1="485" x2="628" y2="482.2"/>
		<line class="st2" x1="638.3" y1="485" x2="638.3" y2="482.2"/>
		<line class="st2" x1="647.1" y1="485" x2="647.1" y2="482.2"/>
		<line class="st2" x1="655" y1="485" x2="655" y2="482.2"/>
		<line class="st2" x1="122" y1="42" x2="122" y2="44.8"/>
		<line class="st2" x1="141.1" y1="42" x2="141.1" y2="44.8"/>
		<line class="st2" x1="156" y1="42" x2="156" y2="44.8"/>
		<line class="st2" x1="168.1" y1="42" x2="168.1" y2="44.8"/>
		<line class="st2" x1="178.4" y1="42" x2="178.4" y2="44.8"/>
		<line class="st2" x1="187.3" y1="42" x2="187.3" y2="44.8"/>
		<line class="st2" x1="195.1" y1="42" x2="195.1" y2="44.8"/>
		<line class="st2" x1="248.3" y1="42" x2="248.3" y2="44.8"/>
		<line class="st2" x1="275.3" y1="42" x2="275.3" y2="44.8"/>
		<line class="st2" x1="294.4" y1="42" x2="294.4" y2="44.8"/>
		<line class="st2" x1="309.3" y1="42" x2="309.3" y2="44.8"/>
		<line class="st2" x1="321.4" y1="42" x2="321.4" y2="44.8"/>
		<line class="st2" x1="331.7" y1="42" x2="331.7" y2="44.8"/>
		<line class="st2" x1="340.6" y1="42" x2="340.6" y2="44.8"/>
		<line class="st2" x1="348.4" y1="42" x2="348.4" y2="44.8"/>
		<line class="st2" x1="401.6" y1="42" x2="401.6" y2="44.8"/>
		<line class="st2" x1="428.6" y1="42" x2="428.6" y2="44.8"/>
		<line class="st2" x1="447.7" y1="42" x2="447.7" y2="44.8"/>
		<line class="st2" x1="462.6" y1="42" x2="462.6" y2="44.8"/>
		<line class="st2" x1="474.7" y1="42" x2="474.7" y2="44.8"/>
		<line class="st2" x1="485" y1="42" x2="485" y2="44.8"/>
		<line class="st2" x1="493.9" y1="42" x2="493.9" y2="44.8"/>
		<line class="st2" x1="501.7" y1="42" x2="501.7" y2="44.8"/>
		<line class="st2" x1="554.9" y1="42" x2="554.9" y2="44.8"/>
		<line class="st2" x1="581.8" y1="42" x2="581.8" y2="44.8"/>
		<line class="st2" x1="601" y1="42" x2="601" y2="44.8"/>
		<line class="st2" x1="615.9" y1="42" x2="615.9" y2="44.8"/>
		<line class="st2" x1="628" y1="42" x2="628" y2="44.8"/>
		<line class="st2" x1="638.3" y1="42" x2="638.3" y2="44.8"/>
		<line class="st2" x1="647.1" y1="42" x2="647.1" y2="44.8"/>
		<line class="st2" x1="655" y1="42" x2="655" y2="44.8"/>
	</g>
	<g transform="translate(185,519)">
		<text transform="matrix(1 0 0 1 0 -1.464844e-05)" class="st3 st4 st5">10</text>
	</g>
	<g transform="translate(209,509)">
		<text transform="matrix(1 0 0 1 0 -1.464844e-05)" class="st3 st4 st6">1</text>
	</g>
	<g transform="translate(338,519)">
		<text transform="matrix(1 0 0 1 0 -1.464844e-05)" class="st3 st4 st5">10</text>
	</g>
	<g transform="translate(362,509)">
		<text transform="matrix(1 0 0 1 0 -1.464844e-05)" class="st3 st4 st6">2</text>
	</g>
	<g transform="translate(492,519)">
		<text transform="matrix(1 0 0 1 0 -1.464844e-05)" class="st3 st4 st5">10</text>
	</g>
	<g transform="translate(516,509)">
		<text transform="matrix(1 0 0 1 0 -1.464844e-05)" class="st3 st4 st6">3</text>
	</g>
	<g transform="translate(645,519)">
		<text transform="matrix(1 0 0 1 0 -1.464844e-05)" class="st3 st4 st5">10</text>
	</g>
	<g transform="translate(669,509)">
		<text transform="matrix(1 0 0 1 0 -1.464844e-05)" class="st3 st4 st6">4</text>
	</g>
	<g transform="translate(378.5003,525.2667)">
		<text transform="matrix(1 0 0 1 -50 24)" class="st3 st4 st7">CPU-time</text>
	</g>
	<g>
		<line class="st2" x1="95" y1="485" x2="95" y2="42"/>
		<line class="st2" x1="662" y1="485" x2="662" y2="42"/>
		<line class="st2" x1="95" y1="485" x2="100.7" y2="485"/>
		<line class="st2" x1="95" y1="337.3" x2="100.7" y2="337.3"/>
		<line class="st2" x1="95" y1="189.7" x2="100.7" y2="189.7"/>
		<line class="st2" x1="95" y1="42" x2="100.7" y2="42"/>
		<line class="st2" x1="662" y1="485" x2="656.3" y2="485"/>
		<line class="st2" x1="662" y1="337.3" x2="656.3" y2="337.3"/>
		<line class="st2" x1="662" y1="189.7" x2="656.3" y2="189.7"/>
		<line class="st2" x1="662" y1="42" x2="656.3" y2="42"/>
		<line class="st2" x1="95" y1="440.5" x2="97.8" y2="440.5"/>
		<line class="st2" x1="95" y1="414.5" x2="97.8" y2="414.5"/>
		<line class="st2" x1="95" y1="396.1" x2="97.8" y2="396.1"/>
		<line class="st2" x1="95" y1="381.8" x2="97.8" y2="381.8"/>
		<line class="st2" x1="95" y1="370.1" x2="97.8" y2="370.1"/>
		<line class="st2" x1="95" y1="360.2" x2="97.8" y2="360.2"/>
		<line class="st2" x1="95" y1="351.6" x2="97.8" y2="351.6"/>
		<line class="st2" x1="95" y1="344.1" x2="97.8" y2="344.1"/>
		<line class="st2" x1="95" y1="292.9" x2="97.8" y2="292.9"/>
		<line class="st2" x1="95" y1="266.9" x2="97.8" y2="266.9"/>
		<line class="st2" x1="95" y1="248.4" x2="97.8" y2="248.4"/>
		<line class="st2" x1="95" y1="234.1" x2="97.8" y2="234.1"/>
		<line class="st2" x1="95" y1="222.4" x2="97.8" y2="222.4"/>
		<line class="st2" x1="95" y1="212.5" x2="97.8" y2="212.5"/>
		<line class="st2" x1="95" y1="204" x2="97.8" y2="204"/>
		<line class="st2" x1="95" y1="196.4" x2="97.8" y2="196.4"/>
		<line class="st2" x1="95" y1="145.2" x2="97.8" y2="145.2"/>
		<line class="st2" x1="95" y1="119.2" x2="97.8" y2="119.2"/>
		<line class="st2" x1="95" y1="100.8" x2="97.8" y2="100.8"/>
		<line class="st2" x1="95" y1="86.5" x2="97.8" y2="86.5"/>
		<line class="st2" x1="95" y1="74.8" x2="97.8" y2="74.8"/>
		<line class="st2" x1="95" y1="64.9" x2="97.8" y2="64.9"/>
		<line class="st2" x1="95" y1="56.3" x2="97.8" y2="56.3"/>
		<line class="st2" x1="95" y1="48.8" x2="97.8" y2="48.8"/>
		<line class="st2" x1="662" y1="440.5" x2="659.2" y2="440.5"/>
		<line class="st2" x1="662" y1="414.5" x2="659.2" y2="414.5"/>
		<line class="st2" x1="662" y1="396.1" x2="659.2" y2="396.1"/>
		<line class="st2" x1="662" y1="381.8" x2="659.2" y2="381.8"/>
		<line class="st2" x1="662" y1="370.1" x2="659.2" y2="370.1"/>
		<line class="st2" x1="662" y1="360.2" x2="659.2" y2="360.2"/>
		<line class="st2" x1="662" y1="351.6" x2="659.2" y2="351.6"/>
		<line class="st2" x1="662" y1="344.1" x2="659.2" y2="344.1"/>
		<line class="st2" x1="662" y1="292.9" x2="659.2" y2="292.9"/>
		<line class="st2" x1="662" y1="266.9" x2="659.2" y2="266.9"/>
		<line class="st2" x1="662" y1="248.4" x2="659.2" y2="248.4"/>
		<line class="st2" x1="662" y1="234.1" x2="659.2" y2="234.1"/>
		<line class="st2" x1="662" y1="222.4" x2="659.2" y2="222.4"/>
		<line class="st2" x1="662" y1="212.5" x2="659.2" y2="212.5"/>
		<line class="st2" x1="662" y1="204" x2="659.2" y2="204"/>
		<line class="st2" x1="662" y1="196.4" x2="659.2" y2="196.4"/>
		<line class="st2" x1="662" y1="145.2" x2="659.2" y2="145.2"/>
		<line class="st2" x1="662" y1="119.2" x2="659.2" y2="119.2"/>
		<line class="st2" x1="662" y1="100.8" x2="659.2" y2="100.8"/>
		<line class="st2" x1="662" y1="86.5" x2="659.2" y2="86.5"/>
		<line class="st2" x1="662" y1="74.8" x2="659.2" y2="74.8"/>
		<line class="st2" x1="662" y1="64.9" x2="659.2" y2="64.9"/>
		<line class="st2" x1="662" y1="56.3" x2="659.2" y2="56.3"/>
		<line class="st2" x1="662" y1="48.8" x2="659.2" y2="48.8"/>
	</g>
	<g transform="translate(49,496)">
		<text transform="matrix(1 0 0 1 0 -1.464844e-05)" class="st3 st4 st5">10</text>
	</g>
	<g transform="translate(73,486)">
		<text transform="matrix(1 0 0 1 0 -1.464844e-05)" class="st3 st4 st6">-5</text>
	</g>
	<g transform="translate(49,348)">
		<text transform="matrix(1 0 0 1 0 -1.464844e-05)" class="st3 st4 st5">10</text>
	</g>
	<g transform="translate(73,338)">
		<text transform="matrix(1 0 0 1 0 -1.464844e-05)" class="st3 st4 st6">-4</text>
	</g>
	<g transform="translate(49,201)">
		<text transform="matrix(1 0 0 1 0 -1.464844e-05)" class="st3 st4 st5">10</text>
	</g>
	<g transform="translate(73,191)">
		<text transform="matrix(1 0 0 1 0 -1.464844e-05)" class="st3 st4 st6">-3</text>
	</g>
	<g transform="translate(49,53)">
		<text transform="matrix(1 0 0 1 0 -1.464844e-05)" class="st3 st4 st5">10</text>
	</g>
	<g transform="translate(73,43)">
		<text transform="matrix(1 0 0 1 0 -1.464844e-05)" class="st3 st4 st6">-2</text>
	</g>
	<g transform="translate(45.0667,263.4998) rotate(-90)">
		<text transform="matrix(1 0 0 1 -25.9996 -6)" class="st3 st4 st7">Error</text>
	</g>
	<g>
		<path class="st8" d="M115.7,142.4l150,75.7L419,295.3L572,356.2"/>
		<line class="st8" x1="111" y1="142.5" x2="120" y2="142.5"/>
		<line class="st8" x1="115.5" y1="147" x2="115.5" y2="138"/>
		<line class="st8" x1="112" y1="146" x2="119" y2="139"/>
		<line class="st8" x1="112" y1="139" x2="119" y2="146"/>
		<line class="st8" x1="261" y1="218.5" x2="270" y2="218.5"/>
		<line class="st8" x1="265.5" y1="223" x2="265.5" y2="214"/>
		<line class="st8" x1="262" y1="222" x2="269" y2="215"/>
		<line class="st8" x1="262" y1="215" x2="269" y2="222"/>
		<line class="st8" x1="415" y1="295.5" x2="424" y2="295.5"/>
		<line class="st8" x1="419.5" y1="300" x2="419.5" y2="291"/>
		<line class="st8" x1="416" y1="299" x2="423" y2="292"/>
		<line class="st8" x1="416" y1="292" x2="423" y2="299"/>
		<line class="st8" x1="567" y1="356.5" x2="576" y2="356.5"/>
		<line class="st8" x1="571.5" y1="361" x2="571.5" y2="352"/>
		<line class="st8" x1="568" y1="360" x2="575" y2="353"/>
		<line class="st8" x1="568" y1="353" x2="575" y2="360"/>
		<path class="st9" d="M113.3,166.7l152.1,99.4L418.6,372l153.3,97.2"/>
		<line class="st9" x1="109" y1="166.5" x2="118" y2="166.5"/>
		<line class="st9" x1="113.5" y1="171" x2="113.5" y2="162"/>
		<line class="st9" x1="110" y1="170" x2="117" y2="163"/>
		<line class="st9" x1="110" y1="163" x2="117" y2="170"/>
		<line class="st9" x1="261" y1="266.5" x2="270" y2="266.5"/>
		<line class="st9" x1="265.5" y1="271" x2="265.5" y2="262"/>
		<line class="st9" x1="262" y1="270" x2="269" y2="263"/>
		<line class="st9" x1="262" y1="263" x2="269" y2="270"/>
		<line class="st9" x1="414" y1="372.5" x2="423" y2="372.5"/>
		<line class="st9" x1="418.5" y1="377" x2="418.5" y2="368"/>
		<line class="st9" x1="415" y1="376" x2="422" y2="369"/>
		<line class="st9" x1="415" y1="369" x2="422" y2="376"/>
		<line class="st9" x1="567" y1="469.5" x2="576" y2="469.5"/>
		<line class="st9" x1="571.5" y1="474" x2="571.5" y2="465"/>
		<line class="st9" x1="568" y1="473" x2="575" y2="466"/>
		<line class="st9" x1="568" y1="466" x2="575" y2="473"/>
		<path class="st10" d="M151.7,311.6l54.3,34.9l61.1,43.1l76,43l70.7,40.7"/>
		<line class="st10" x1="147" y1="311.5" x2="156" y2="311.5"/>
		<line class="st10" x1="151.5" y1="316" x2="151.5" y2="307"/>
		<line class="st10" x1="148" y1="315" x2="155" y2="308"/>
		<line class="st10" x1="148" y1="308" x2="155" y2="315"/>
		<line class="st10" x1="202" y1="346.5" x2="211" y2="346.5"/>
		<line class="st10" x1="206.5" y1="351" x2="206.5" y2="342"/>
		<line class="st10" x1="203" y1="350" x2="210" y2="343"/>
		<line class="st10" x1="203" y1="343" x2="210" y2="350"/>
		<line class="st10" x1="263" y1="389.5" x2="272" y2="389.5"/>
		<line class="st10" x1="267.5" y1="394" x2="267.5" y2="385"/>
		<line class="st10" x1="264" y1="393" x2="271" y2="386"/>
		<line class="st10" x1="264" y1="386" x2="271" y2="393"/>
		<line class="st10" x1="339" y1="432.5" x2="348" y2="432.5"/>
		<line class="st10" x1="343.5" y1="437" x2="343.5" y2="428"/>
		<line class="st10" x1="340" y1="436" x2="347" y2="429"/>
		<line class="st10" x1="340" y1="429" x2="347" y2="436"/>
		<line class="st10" x1="409" y1="473.5" x2="418" y2="473.5"/>
		<line class="st10" x1="413.5" y1="478" x2="413.5" y2="469"/>
		<line class="st10" x1="410" y1="477" x2="417" y2="470"/>
		<line class="st10" x1="410" y1="470" x2="417" y2="477"/>
	</g>
	<g>
		<path class="st1" d="M482,122V42h180v80H482z"/>
	</g>
	<g transform="translate(519,56.5)">
		<text transform="matrix(1 0 0 1 0 7.5)" class="st4 st11">MC ray tracing</text>
	</g>
	<g>
		<line class="st8" x1="486" y1="56.5" x2="516" y2="56.5"/>
		<line class="st8" x1="497" y1="56.5" x2="506" y2="56.5"/>
		<line class="st8" x1="501.5" y1="61" x2="501.5" y2="52"/>
		<line class="st8" x1="498" y1="60" x2="505" y2="53"/>
		<line class="st8" x1="498" y1="53" x2="505" y2="60"/>
	</g>
	<g transform="translate(519,82)">
		<text transform="matrix(1 0 0 1 0 7.5)" class="st4 st11">QMC ray tracing</text>
	</g>
	<g>
		<line class="st9" x1="486" y1="82" x2="516" y2="82"/>
		<line class="st9" x1="497" y1="81.5" x2="506" y2="81.5"/>
		<line class="st9" x1="501.5" y1="86" x2="501.5" y2="77"/>
		<line class="st9" x1="498" y1="85" x2="505" y2="78"/>
		<line class="st9" x1="498" y1="78" x2="505" y2="85"/>
	</g>
	<g transform="translate(519,107.5)">
		<text transform="matrix(1 0 0 1 0 7.5)" class="st4 st11">PS ray tracing</text>
	</g>
	<g>
		<line class="st10" x1="486" y1="107.5" x2="516" y2="107.5"/>
		<line class="st10" x1="497" y1="107.5" x2="506" y2="107.5"/>
		<line class="st10" x1="501.5" y1="112" x2="501.5" y2="103"/>
		<line class="st10" x1="498" y1="111" x2="505" y2="104"/>
		<line class="st10" x1="498" y1="104" x2="505" y2="111"/>
	</g>
	<g>
		<path class="st12" d="M482,122V42h180v80H482z"/>
	</g>
</g>
</svg>
