<?xml version="1.0" encoding="utf-8"?>
<!-- Generator: Adobe Illustrator 21.1.0, SVG Export Plug-In . SVG Version: 6.00 Build 0)  -->
<svg version="1.1" id="Layer_1" xmlns="http://www.w3.org/2000/svg" xmlns:xlink="http://www.w3.org/1999/xlink" x="0px" y="0px"
	 viewBox="0 0 731 555" style="enable-background:new 0 0 731 555;" xml:space="preserve">
<style type="text/css">
	.st0{clip-path:url(#SVGID_2_);fill:#FFFFFF;}
	.st1{fill:#FFFFFF;}
	.st2{fill:none;stroke:#262626;stroke-width:0.6667;stroke-linejoin:round;stroke-miterlimit:10;}
	.st3{fill:none;stroke:#262626;stroke-width:0.6667;stroke-linecap:square;stroke-linejoin:round;stroke-miterlimit:10;}
	.st4{fill:#262626;}
	.st5{font-family:'MyriadPro-Regular';}
	.st6{font-size:21px;}
	.st7{font-size:16px;}
	.st8{font-size:23px;}
	.st9{fill:none;stroke:#000000;stroke-width:2;stroke-linejoin:bevel;stroke-miterlimit:1;stroke-dasharray:8,8;}
	.st10{fill:none;stroke:#FF0000;stroke-width:2.6667;stroke-linejoin:round;stroke-miterlimit:10;}
	.st11{fill:none;stroke:#FF0000;stroke-width:2.6667;stroke-linecap:round;stroke-linejoin:round;stroke-miterlimit:10;}
	.st12{fill:none;stroke:#00FF00;stroke-width:2.6667;stroke-linejoin:round;stroke-miterlimit:10;}
	.st13{fill:none;stroke:#00FF00;stroke-width:2.6667;stroke-linecap:round;stroke-linejoin:round;stroke-miterlimit:10;}
	.st14{fill:none;stroke:#0000FF;stroke-width:2.6667;stroke-linejoin:round;stroke-miterlimit:10;}
	.st15{fill:none;stroke:#0000FF;stroke-width:2.6667;stroke-linecap:round;stroke-linejoin:round;stroke-miterlimit:10;}
	.st16{font-size:19px;}
	.st17{fill:none;stroke:#262626;stroke-width:0.6667;stroke-miterlimit:10;}
	.st18{fill:none;stroke:#FFFFFF;stroke-width:0.6667;stroke-miterlimit:10;}
</style>
<g>
	<g>
		<g>
			<defs>
				<rect id="SVGID_1_" y="0" width="731" height="555"/>
			</defs>
			<clipPath id="SVGID_2_">
				<use xlink:href="#SVGID_1_"  style="overflow:visible;"/>
			</clipPath>
			<rect y="0" class="st0" width="731" height="555"/>
		</g>
	</g>
	<g>
		<rect y="0" class="st1" width="731" height="555"/>
		<path class="st1" d="M94,476h567V24H94V476z"/>
	</g>
	<g>
		<line class="st2" x1="94" y1="476" x2="661" y2="476"/>
		<line class="st2" x1="94" y1="24" x2="661" y2="24"/>
		<line class="st3" x1="94" y1="476" x2="94" y2="470.3"/>
		<line class="st3" x1="235.8" y1="476" x2="235.8" y2="470.3"/>
		<line class="st3" x1="377.5" y1="476" x2="377.5" y2="470.3"/>
		<line class="st3" x1="519.3" y1="476" x2="519.3" y2="470.3"/>
		<line class="st3" x1="661" y1="476" x2="661" y2="470.3"/>
		<line class="st3" x1="94" y1="24" x2="94" y2="29.7"/>
		<line class="st3" x1="235.8" y1="24" x2="235.8" y2="29.7"/>
		<line class="st3" x1="377.5" y1="24" x2="377.5" y2="29.7"/>
		<line class="st3" x1="519.3" y1="24" x2="519.3" y2="29.7"/>
		<line class="st3" x1="661" y1="24" x2="661" y2="29.7"/>
	</g>
	<g transform="translate(74,510)">
		<text transform="matrix(1 0 0 1 0 -1.464844e-05)" class="st4 st5 st6">10</text>
	</g>
	<g transform="translate(98,500)">
		<text transform="matrix(1 0 0 1 0 -1.464844e-05)" class="st4 st5 st7">-2</text>
	</g>
	<g transform="translate(219,510)">
		<text transform="matrix(1 0 0 1 0 -1.464844e-05)" class="st4 st5 st6">10</text>
	</g>
	<g transform="translate(243,500)">
		<text transform="matrix(1 0 0 1 0 -1.464844e-05)" class="st4 st5 st7">0</text>
	</g>
	<g transform="translate(361,510)">
		<text transform="matrix(1 0 0 1 0 -1.464844e-05)" class="st4 st5 st6">10</text>
	</g>
	<g transform="translate(385,500)">
		<text transform="matrix(1 0 0 1 0 -1.464844e-05)" class="st4 st5 st7">2</text>
	</g>
	<g transform="translate(502,510)">
		<text transform="matrix(1 0 0 1 0 -1.464844e-05)" class="st4 st5 st6">10</text>
	</g>
	<g transform="translate(526,500)">
		<text transform="matrix(1 0 0 1 0 -1.464844e-05)" class="st4 st5 st7">4</text>
	</g>
	<g transform="translate(644,510)">
		<text transform="matrix(1 0 0 1 0 -1.464844e-05)" class="st4 st5 st6">10</text>
	</g>
	<g transform="translate(668,500)">
		<text transform="matrix(1 0 0 1 0 -1.464844e-05)" class="st4 st5 st7">6</text>
	</g>
	<g transform="translate(358.8602,516.3782)">
		<text transform="matrix(1 0 0 1 -50 24)" class="st4 st5 st8">CPU-time</text>
	</g>
	<g>
		<line class="st2" x1="94" y1="476" x2="94" y2="24"/>
		<line class="st2" x1="661" y1="476" x2="661" y2="24"/>
		<line class="st3" x1="94" y1="476" x2="99.7" y2="476"/>
		<line class="st3" x1="94" y1="400.7" x2="99.7" y2="400.7"/>
		<line class="st3" x1="94" y1="325.3" x2="99.7" y2="325.3"/>
		<line class="st3" x1="94" y1="250" x2="99.7" y2="250"/>
		<line class="st3" x1="94" y1="174.7" x2="99.7" y2="174.7"/>
		<line class="st3" x1="94" y1="99.3" x2="99.7" y2="99.3"/>
		<line class="st3" x1="94" y1="24" x2="99.7" y2="24"/>
		<line class="st3" x1="661" y1="476" x2="655.3" y2="476"/>
		<line class="st3" x1="661" y1="400.7" x2="655.3" y2="400.7"/>
		<line class="st3" x1="661" y1="325.3" x2="655.3" y2="325.3"/>
		<line class="st3" x1="661" y1="250" x2="655.3" y2="250"/>
		<line class="st3" x1="661" y1="174.7" x2="655.3" y2="174.7"/>
		<line class="st3" x1="661" y1="99.3" x2="655.3" y2="99.3"/>
		<line class="st3" x1="661" y1="24" x2="655.3" y2="24"/>
	</g>
	<g transform="translate(39,487)">
		<text transform="matrix(1 0 0 1 0 -1.464844e-05)" class="st4 st5 st6">10</text>
	</g>
	<g transform="translate(63,477)">
		<text transform="matrix(1 0 0 1 0 -1.464844e-05)" class="st4 st5 st7">-14</text>
	</g>
	<g transform="translate(39,412)">
		<text transform="matrix(1 0 0 1 0 -1.464844e-05)" class="st4 st5 st6">10</text>
	</g>
	<g transform="translate(63,402)">
		<text transform="matrix(1 0 0 1 0 -1.464844e-05)" class="st4 st5 st7">-12</text>
	</g>
	<g transform="translate(39,336)">
		<text transform="matrix(1 0 0 1 0 -1.464844e-05)" class="st4 st5 st6">10</text>
	</g>
	<g transform="translate(63,326)">
		<text transform="matrix(1 0 0 1 0 -1.464844e-05)" class="st4 st5 st7">-10</text>
	</g>
	<g transform="translate(48,261)">
		<text transform="matrix(1 0 0 1 0 -1.464844e-05)" class="st4 st5 st6">10</text>
	</g>
	<g transform="translate(72,251)">
		<text transform="matrix(1 0 0 1 0 -1.464844e-05)" class="st4 st5 st7">-8</text>
	</g>
	<g transform="translate(48,186)">
		<text transform="matrix(1 0 0 1 0 -1.464844e-05)" class="st4 st5 st6">10</text>
	</g>
	<g transform="translate(72,176)">
		<text transform="matrix(1 0 0 1 0 -1.464844e-05)" class="st4 st5 st7">-6</text>
	</g>
	<g transform="translate(48,110)">
		<text transform="matrix(1 0 0 1 0 -1.464844e-05)" class="st4 st5 st6">10</text>
	</g>
	<g transform="translate(72,100)">
		<text transform="matrix(1 0 0 1 0 -1.464844e-05)" class="st4 st5 st7">-4</text>
	</g>
	<g transform="translate(48,35)">
		<text transform="matrix(1 0 0 1 0 -1.464844e-05)" class="st4 st5 st6">10</text>
	</g>
	<g transform="translate(72,25)">
		<text transform="matrix(1 0 0 1 0 -1.464844e-05)" class="st4 st5 st7">-2</text>
	</g>
	<g transform="translate(41.8184,231.838) rotate(-90)">
		<text transform="matrix(1 0 0 1 -26.0002 -6)" class="st4 st5 st8">Error</text>
	</g>
	<g>
		<line class="st9" x1="94" y1="448.7" x2="661" y2="448.7"/>
	</g>
	<g>
		<line class="st10" x1="284" y1="448.5" x2="301" y2="448.5"/>
		<line class="st11" x1="292.5" y1="457" x2="292.5" y2="440"/>
		<line class="st11" x1="286" y1="455" x2="299" y2="442"/>
		<line class="st10" x1="286" y1="442" x2="299" y2="455"/>
		<line class="st12" x1="136.7" y1="35.7" x2="206.8" y2="54"/>
		<line class="st13" x1="206.8" y1="54" x2="269.5" y2="72"/>
		<line class="st13" x1="269.5" y1="72" x2="340.4" y2="91.6"/>
		<line class="st13" x1="340.4" y1="91.6" x2="411" y2="113.1"/>
		<line class="st12" x1="411" y1="113.1" x2="482" y2="128.8"/>
		<line class="st12" x1="132" y1="35.5" x2="141" y2="35.5"/>
		<line class="st13" x1="136.5" y1="40" x2="136.5" y2="31"/>
		<line class="st13" x1="133" y1="39" x2="140" y2="32"/>
		<line class="st12" x1="133" y1="32" x2="140" y2="39"/>
		<line class="st12" x1="202" y1="53.5" x2="211" y2="53.5"/>
		<line class="st13" x1="206.5" y1="58" x2="206.5" y2="49"/>
		<line class="st13" x1="203" y1="57" x2="210" y2="50"/>
		<line class="st12" x1="203" y1="50" x2="210" y2="57"/>
		<line class="st12" x1="265" y1="71.5" x2="274" y2="71.5"/>
		<line class="st13" x1="269.5" y1="76" x2="269.5" y2="67"/>
		<line class="st13" x1="266" y1="75" x2="273" y2="68"/>
		<line class="st12" x1="266" y1="68" x2="273" y2="75"/>
		<line class="st12" x1="336" y1="91.5" x2="345" y2="91.5"/>
		<line class="st13" x1="340.5" y1="96" x2="340.5" y2="87"/>
		<line class="st13" x1="337" y1="95" x2="344" y2="88"/>
		<line class="st12" x1="337" y1="88" x2="344" y2="95"/>
		<line class="st12" x1="407" y1="113.5" x2="416" y2="113.5"/>
		<line class="st13" x1="411.5" y1="118" x2="411.5" y2="109"/>
		<line class="st13" x1="408" y1="117" x2="415" y2="110"/>
		<line class="st12" x1="408" y1="110" x2="415" y2="117"/>
		<line class="st12" x1="478" y1="128.5" x2="487" y2="128.5"/>
		<line class="st13" x1="482.5" y1="133" x2="482.5" y2="124"/>
		<line class="st13" x1="479" y1="132" x2="486" y2="125"/>
		<line class="st12" x1="479" y1="125" x2="486" y2="132"/>
		<line class="st14" x1="199.2" y1="77.8" x2="269.4" y2="109.9"/>
		<line class="st15" x1="269.4" y1="109.9" x2="340.3" y2="139.6"/>
		<line class="st15" x1="340.3" y1="139.6" x2="411.4" y2="176.9"/>
		<line class="st14" x1="411.4" y1="176.9" x2="482.1" y2="197.4"/>
		<line class="st14" x1="195" y1="77.5" x2="204" y2="77.5"/>
		<line class="st15" x1="199.5" y1="82" x2="199.5" y2="73"/>
		<line class="st15" x1="196" y1="81" x2="203" y2="74"/>
		<line class="st14" x1="196" y1="74" x2="203" y2="81"/>
		<line class="st14" x1="265" y1="109.5" x2="274" y2="109.5"/>
		<line class="st15" x1="269.5" y1="114" x2="269.5" y2="105"/>
		<line class="st15" x1="266" y1="113" x2="273" y2="106"/>
		<line class="st14" x1="266" y1="106" x2="273" y2="113"/>
		<line class="st14" x1="336" y1="139.5" x2="345" y2="139.5"/>
		<line class="st15" x1="340.5" y1="144" x2="340.5" y2="135"/>
		<line class="st15" x1="337" y1="143" x2="344" y2="136"/>
		<line class="st14" x1="337" y1="136" x2="344" y2="143"/>
		<line class="st14" x1="407" y1="176.5" x2="416" y2="176.5"/>
		<line class="st15" x1="411.5" y1="181" x2="411.5" y2="172"/>
		<line class="st15" x1="408" y1="180" x2="415" y2="173"/>
		<line class="st14" x1="408" y1="173" x2="415" y2="180"/>
		<line class="st14" x1="478" y1="197.5" x2="487" y2="197.5"/>
		<line class="st15" x1="482.5" y1="202" x2="482.5" y2="193"/>
		<line class="st15" x1="479" y1="201" x2="486" y2="194"/>
		<line class="st14" x1="479" y1="194" x2="486" y2="201"/>
	</g>
	<g>
		<path class="st1" d="M509,180V24h153v156H509z"/>
	</g>
	<g transform="translate(546,38.5)">
		<text transform="matrix(1 0 0 1 0 7.5)" class="st5 st16">data1</text>
	</g>
	<g>
		<line class="st9" x1="513" y1="38.5" x2="543" y2="38.5"/>
	</g>
	<g transform="translate(546,76.5)">
		<text transform="matrix(1 0 0 1 0 -5)" class="st5 st16">Ray mapping</text>
	</g>
	<g transform="translate(546,76.5)">
		<text transform="matrix(1 0 0 1 0 20)" class="st5 st16">error</text>
	</g>
	<g>
		<line class="st10" x1="520" y1="76.5" x2="537" y2="76.5"/>
		<line class="st10" x1="528.5" y1="85" x2="528.5" y2="68"/>
		<line class="st10" x1="522" y1="83" x2="535" y2="70"/>
		<line class="st10" x1="522" y1="70" x2="535" y2="83"/>
	</g>
	<g transform="translate(546,114.5)">
		<text transform="matrix(1 0 0 1 0 7.5)" class="st5 st16">MC error</text>
	</g>
	<g>
		<line class="st12" x1="513" y1="114.5" x2="543" y2="114.5"/>
		<line class="st12" x1="524" y1="114.5" x2="533" y2="114.5"/>
		<line class="st12" x1="528.5" y1="119" x2="528.5" y2="110"/>
		<line class="st12" x1="525" y1="118" x2="532" y2="111"/>
		<line class="st12" x1="525" y1="111" x2="532" y2="118"/>
	</g>
	<g transform="translate(546,140)">
		<text transform="matrix(1 0 0 1 0 7.5)" class="st5 st16">QMC error</text>
	</g>
	<g>
		<line class="st14" x1="513" y1="140" x2="543" y2="140"/>
		<line class="st14" x1="524" y1="139.5" x2="533" y2="139.5"/>
		<line class="st14" x1="528.5" y1="144" x2="528.5" y2="135"/>
		<line class="st14" x1="525" y1="143" x2="532" y2="136"/>
		<line class="st14" x1="525" y1="136" x2="532" y2="143"/>
	</g>
	<g transform="translate(546,165.5)">
		<text transform="matrix(1 0 0 1 0 7.5)" class="st5 st16">data3</text>
	</g>
	<g>
		<line class="st10" x1="513" y1="165.5" x2="543" y2="165.5"/>
		<line class="st10" x1="520" y1="165.5" x2="537" y2="165.5"/>
		<line class="st10" x1="528.5" y1="174" x2="528.5" y2="157"/>
		<line class="st10" x1="522" y1="172" x2="535" y2="159"/>
		<line class="st10" x1="522" y1="159" x2="535" y2="172"/>
	</g>
	<g>
		<path class="st17" d="M509,180V24h153v156H509z"/>
	</g>
	<g>
		<line class="st9" x1="292.3" y1="476.6" x2="292.3" y2="27.6"/>
	</g>
	<g>
		<path class="st1" d="M513.7,177H623v-20H513.7V177z"/>
	</g>
	<g>
		<path class="st18" d="M513.7,177v-20H623v20H513.7z"/>
	</g>
	<g>
		<path class="st1" d="M511.7,47H621V27H511.7V47z"/>
	</g>
	<g>
		<path class="st18" d="M511.7,47V27H621v20H511.7z"/>
	</g>
</g>
</svg>
