<?xml version="1.0" encoding="utf-8"?>
<!-- Generator: Adobe Illustrator 21.1.0, SVG Export Plug-In . SVG Version: 6.00 Build 0)  -->
<svg version="1.1" id="Layer_1" xmlns="http://www.w3.org/2000/svg" xmlns:xlink="http://www.w3.org/1999/xlink" x="0px" y="0px"
	 viewBox="0 0 735 555" style="enable-background:new 0 0 735 555;" xml:space="preserve">
<style type="text/css">
	.st0{clip-path:url(#SVGID_2_);fill:#FFFFFF;}
	.st1{fill:#FFFFFF;}
	.st2{fill:none;stroke:#262626;stroke-width:0.6667;stroke-linecap:square;stroke-linejoin:round;stroke-miterlimit:10;}
	.st3{fill:#262626;}
	.st4{font-family:'MyriadPro-Regular';}
	.st5{font-size:21px;}
	.st6{font-size:16px;}
	.st7{font-size:23px;}
	.st8{fill:none;stroke:#0000FF;stroke-width:2.6667;stroke-linejoin:round;stroke-miterlimit:10;}
	.st9{fill:none;stroke:#FF0000;stroke-width:2.6667;stroke-linejoin:round;stroke-miterlimit:10;}
	.st10{fill:none;stroke:#000000;stroke-width:2;stroke-linejoin:bevel;stroke-miterlimit:1;stroke-dasharray:8,8;}
	.st11{fill:none;stroke:#0000FF;stroke-width:2;stroke-linejoin:bevel;stroke-miterlimit:1;stroke-dasharray:8,8;}
	.st12{fill:none;stroke:#00FF00;stroke-width:2.6667;stroke-linejoin:round;stroke-miterlimit:10;}
	.st13{fill:none;stroke:#000000;stroke-width:0.6667;stroke-linejoin:round;stroke-miterlimit:10;}
	.st14{font-size:19px;}
	.st15{fill:none;stroke:#262626;stroke-width:0.6667;stroke-miterlimit:10;}
</style>
<g>
	<g>
		<g>
			<defs>
				<rect id="SVGID_1_" y="0" width="735" height="555"/>
			</defs>
			<clipPath id="SVGID_2_">
				<use xlink:href="#SVGID_1_"  style="overflow:visible;"/>
			</clipPath>
			<rect y="0" class="st0" width="735" height="555"/>
		</g>
	</g>
	<g>
		<rect y="0" class="st1" width="735" height="555"/>
		<path class="st1" d="M96,485h569V42H96V485z"/>
	</g>
	<g>
		<line class="st2" x1="96" y1="485" x2="665" y2="485"/>
		<line class="st2" x1="96" y1="42" x2="665" y2="42"/>
		<line class="st2" x1="180.6" y1="485" x2="180.6" y2="479.3"/>
		<line class="st2" x1="301.7" y1="485" x2="301.7" y2="479.3"/>
		<line class="st2" x1="422.8" y1="485" x2="422.8" y2="479.3"/>
		<line class="st2" x1="543.9" y1="485" x2="543.9" y2="479.3"/>
		<line class="st2" x1="665" y1="485" x2="665" y2="479.3"/>
		<line class="st2" x1="180.6" y1="42" x2="180.6" y2="47.7"/>
		<line class="st2" x1="301.7" y1="42" x2="301.7" y2="47.7"/>
		<line class="st2" x1="422.8" y1="42" x2="422.8" y2="47.7"/>
		<line class="st2" x1="543.9" y1="42" x2="543.9" y2="47.7"/>
		<line class="st2" x1="665" y1="42" x2="665" y2="47.7"/>
		<line class="st2" x1="117.3" y1="485" x2="117.3" y2="482.2"/>
		<line class="st2" x1="132.5" y1="485" x2="132.5" y2="482.2"/>
		<line class="st2" x1="144.2" y1="485" x2="144.2" y2="482.2"/>
		<line class="st2" x1="153.8" y1="485" x2="153.8" y2="482.2"/>
		<line class="st2" x1="161.9" y1="485" x2="161.9" y2="482.2"/>
		<line class="st2" x1="168.9" y1="485" x2="168.9" y2="482.2"/>
		<line class="st2" x1="175.1" y1="485" x2="175.1" y2="482.2"/>
		<line class="st2" x1="217.1" y1="485" x2="217.1" y2="482.2"/>
		<line class="st2" x1="238.4" y1="485" x2="238.4" y2="482.2"/>
		<line class="st2" x1="253.5" y1="485" x2="253.5" y2="482.2"/>
		<line class="st2" x1="265.3" y1="485" x2="265.3" y2="482.2"/>
		<line class="st2" x1="274.9" y1="485" x2="274.9" y2="482.2"/>
		<line class="st2" x1="283" y1="485" x2="283" y2="482.2"/>
		<line class="st2" x1="290" y1="485" x2="290" y2="482.2"/>
		<line class="st2" x1="296.2" y1="485" x2="296.2" y2="482.2"/>
		<line class="st2" x1="338.2" y1="485" x2="338.2" y2="482.2"/>
		<line class="st2" x1="359.5" y1="485" x2="359.5" y2="482.2"/>
		<line class="st2" x1="374.6" y1="485" x2="374.6" y2="482.2"/>
		<line class="st2" x1="386.4" y1="485" x2="386.4" y2="482.2"/>
		<line class="st2" x1="396" y1="485" x2="396" y2="482.2"/>
		<line class="st2" x1="404.1" y1="485" x2="404.1" y2="482.2"/>
		<line class="st2" x1="411.1" y1="485" x2="411.1" y2="482.2"/>
		<line class="st2" x1="417.3" y1="485" x2="417.3" y2="482.2"/>
		<line class="st2" x1="459.3" y1="485" x2="459.3" y2="482.2"/>
		<line class="st2" x1="480.6" y1="485" x2="480.6" y2="482.2"/>
		<line class="st2" x1="495.7" y1="485" x2="495.7" y2="482.2"/>
		<line class="st2" x1="507.5" y1="485" x2="507.5" y2="482.2"/>
		<line class="st2" x1="517" y1="485" x2="517" y2="482.2"/>
		<line class="st2" x1="525.2" y1="485" x2="525.2" y2="482.2"/>
		<line class="st2" x1="532.2" y1="485" x2="532.2" y2="482.2"/>
		<line class="st2" x1="538.4" y1="485" x2="538.4" y2="482.2"/>
		<line class="st2" x1="580.4" y1="485" x2="580.4" y2="482.2"/>
		<line class="st2" x1="601.7" y1="485" x2="601.7" y2="482.2"/>
		<line class="st2" x1="616.8" y1="485" x2="616.8" y2="482.2"/>
		<line class="st2" x1="628.5" y1="485" x2="628.5" y2="482.2"/>
		<line class="st2" x1="638.1" y1="485" x2="638.1" y2="482.2"/>
		<line class="st2" x1="646.2" y1="485" x2="646.2" y2="482.2"/>
		<line class="st2" x1="653.3" y1="485" x2="653.3" y2="482.2"/>
		<line class="st2" x1="659.5" y1="485" x2="659.5" y2="482.2"/>
		<line class="st2" x1="117.3" y1="42" x2="117.3" y2="44.8"/>
		<line class="st2" x1="132.5" y1="42" x2="132.5" y2="44.8"/>
		<line class="st2" x1="144.2" y1="42" x2="144.2" y2="44.8"/>
		<line class="st2" x1="153.8" y1="42" x2="153.8" y2="44.8"/>
		<line class="st2" x1="161.9" y1="42" x2="161.9" y2="44.8"/>
		<line class="st2" x1="168.9" y1="42" x2="168.9" y2="44.8"/>
		<line class="st2" x1="175.1" y1="42" x2="175.1" y2="44.8"/>
		<line class="st2" x1="217.1" y1="42" x2="217.1" y2="44.8"/>
		<line class="st2" x1="238.4" y1="42" x2="238.4" y2="44.8"/>
		<line class="st2" x1="253.5" y1="42" x2="253.5" y2="44.8"/>
		<line class="st2" x1="265.3" y1="42" x2="265.3" y2="44.8"/>
		<line class="st2" x1="274.9" y1="42" x2="274.9" y2="44.8"/>
		<line class="st2" x1="283" y1="42" x2="283" y2="44.8"/>
		<line class="st2" x1="290" y1="42" x2="290" y2="44.8"/>
		<line class="st2" x1="296.2" y1="42" x2="296.2" y2="44.8"/>
		<line class="st2" x1="338.2" y1="42" x2="338.2" y2="44.8"/>
		<line class="st2" x1="359.5" y1="42" x2="359.5" y2="44.8"/>
		<line class="st2" x1="374.6" y1="42" x2="374.6" y2="44.8"/>
		<line class="st2" x1="386.4" y1="42" x2="386.4" y2="44.8"/>
		<line class="st2" x1="396" y1="42" x2="396" y2="44.8"/>
		<line class="st2" x1="404.1" y1="42" x2="404.1" y2="44.8"/>
		<line class="st2" x1="411.1" y1="42" x2="411.1" y2="44.8"/>
		<line class="st2" x1="417.3" y1="42" x2="417.3" y2="44.8"/>
		<line class="st2" x1="459.3" y1="42" x2="459.3" y2="44.8"/>
		<line class="st2" x1="480.6" y1="42" x2="480.6" y2="44.8"/>
		<line class="st2" x1="495.7" y1="42" x2="495.7" y2="44.8"/>
		<line class="st2" x1="507.5" y1="42" x2="507.5" y2="44.8"/>
		<line class="st2" x1="517" y1="42" x2="517" y2="44.8"/>
		<line class="st2" x1="525.2" y1="42" x2="525.2" y2="44.8"/>
		<line class="st2" x1="532.2" y1="42" x2="532.2" y2="44.8"/>
		<line class="st2" x1="538.4" y1="42" x2="538.4" y2="44.8"/>
		<line class="st2" x1="580.4" y1="42" x2="580.4" y2="44.8"/>
		<line class="st2" x1="601.7" y1="42" x2="601.7" y2="44.8"/>
		<line class="st2" x1="616.8" y1="42" x2="616.8" y2="44.8"/>
		<line class="st2" x1="628.5" y1="42" x2="628.5" y2="44.8"/>
		<line class="st2" x1="638.1" y1="42" x2="638.1" y2="44.8"/>
		<line class="st2" x1="646.2" y1="42" x2="646.2" y2="44.8"/>
		<line class="st2" x1="653.3" y1="42" x2="653.3" y2="44.8"/>
		<line class="st2" x1="659.5" y1="42" x2="659.5" y2="44.8"/>
	</g>
	<g transform="translate(164,519)">
		<text transform="matrix(1 0 0 1 0 -1.464844e-05)" class="st3 st4 st5">10</text>
	</g>
	<g transform="translate(188,509)">
		<text transform="matrix(1 0 0 1 0 -1.464844e-05)" class="st3 st4 st6">3</text>
	</g>
	<g transform="translate(285,519)">
		<text transform="matrix(1 0 0 1 0 -1.464844e-05)" class="st3 st4 st5">10</text>
	</g>
	<g transform="translate(309,509)">
		<text transform="matrix(1 0 0 1 0 -1.464844e-05)" class="st3 st4 st6">4</text>
	</g>
	<g transform="translate(406,519)">
		<text transform="matrix(1 0 0 1 0 -1.464844e-05)" class="st3 st4 st5">10</text>
	</g>
	<g transform="translate(430,509)">
		<text transform="matrix(1 0 0 1 0 -1.464844e-05)" class="st3 st4 st6">5</text>
	</g>
	<g transform="translate(527,519)">
		<text transform="matrix(1 0 0 1 0 -1.464844e-05)" class="st3 st4 st5">10</text>
	</g>
	<g transform="translate(551,509)">
		<text transform="matrix(1 0 0 1 0 -1.464844e-05)" class="st3 st4 st6">6</text>
	</g>
	<g transform="translate(648,519)">
		<text transform="matrix(1 0 0 1 0 -1.464844e-05)" class="st3 st4 st5">10</text>
	</g>
	<g transform="translate(672,509)">
		<text transform="matrix(1 0 0 1 0 -1.464844e-05)" class="st3 st4 st6">7</text>
	</g>
	<g transform="translate(380.5003,525.2667)">
		<text transform="matrix(1 0 0 1 -12.5 24)" class="st3 st4 st7">Nr</text>
	</g>
	<g>
		<line class="st2" x1="96" y1="485" x2="96" y2="42"/>
		<line class="st2" x1="665" y1="485" x2="665" y2="42"/>
		<line class="st2" x1="96" y1="454.5" x2="101.7" y2="454.5"/>
		<line class="st2" x1="96" y1="317" x2="101.7" y2="317"/>
		<line class="st2" x1="96" y1="179.5" x2="101.7" y2="179.5"/>
		<line class="st2" x1="96" y1="42" x2="101.7" y2="42"/>
		<line class="st2" x1="665" y1="454.5" x2="659.3" y2="454.5"/>
		<line class="st2" x1="665" y1="317" x2="659.3" y2="317"/>
		<line class="st2" x1="665" y1="179.5" x2="659.3" y2="179.5"/>
		<line class="st2" x1="665" y1="42" x2="659.3" y2="42"/>
		<line class="st2" x1="96" y1="475.8" x2="98.8" y2="475.8"/>
		<line class="st2" x1="96" y1="467.8" x2="98.8" y2="467.8"/>
		<line class="st2" x1="96" y1="460.8" x2="98.8" y2="460.8"/>
		<line class="st2" x1="96" y1="413.1" x2="98.8" y2="413.1"/>
		<line class="st2" x1="96" y1="388.9" x2="98.8" y2="388.9"/>
		<line class="st2" x1="96" y1="371.7" x2="98.8" y2="371.7"/>
		<line class="st2" x1="96" y1="358.4" x2="98.8" y2="358.4"/>
		<line class="st2" x1="96" y1="347.5" x2="98.8" y2="347.5"/>
		<line class="st2" x1="96" y1="338.3" x2="98.8" y2="338.3"/>
		<line class="st2" x1="96" y1="330.3" x2="98.8" y2="330.3"/>
		<line class="st2" x1="96" y1="323.3" x2="98.8" y2="323.3"/>
		<line class="st2" x1="96" y1="275.6" x2="98.8" y2="275.6"/>
		<line class="st2" x1="96" y1="251.4" x2="98.8" y2="251.4"/>
		<line class="st2" x1="96" y1="234.2" x2="98.8" y2="234.2"/>
		<line class="st2" x1="96" y1="220.9" x2="98.8" y2="220.9"/>
		<line class="st2" x1="96" y1="210" x2="98.8" y2="210"/>
		<line class="st2" x1="96" y1="200.8" x2="98.8" y2="200.8"/>
		<line class="st2" x1="96" y1="192.8" x2="98.8" y2="192.8"/>
		<line class="st2" x1="96" y1="185.8" x2="98.8" y2="185.8"/>
		<line class="st2" x1="96" y1="138.1" x2="98.8" y2="138.1"/>
		<line class="st2" x1="96" y1="113.9" x2="98.8" y2="113.9"/>
		<line class="st2" x1="96" y1="96.7" x2="98.8" y2="96.7"/>
		<line class="st2" x1="96" y1="83.4" x2="98.8" y2="83.4"/>
		<line class="st2" x1="96" y1="72.5" x2="98.8" y2="72.5"/>
		<line class="st2" x1="96" y1="63.3" x2="98.8" y2="63.3"/>
		<line class="st2" x1="96" y1="55.3" x2="98.8" y2="55.3"/>
		<line class="st2" x1="96" y1="48.3" x2="98.8" y2="48.3"/>
		<line class="st2" x1="665" y1="475.8" x2="662.2" y2="475.8"/>
		<line class="st2" x1="665" y1="467.8" x2="662.2" y2="467.8"/>
		<line class="st2" x1="665" y1="460.8" x2="662.2" y2="460.8"/>
		<line class="st2" x1="665" y1="413.1" x2="662.2" y2="413.1"/>
		<line class="st2" x1="665" y1="388.9" x2="662.2" y2="388.9"/>
		<line class="st2" x1="665" y1="371.7" x2="662.2" y2="371.7"/>
		<line class="st2" x1="665" y1="358.4" x2="662.2" y2="358.4"/>
		<line class="st2" x1="665" y1="347.5" x2="662.2" y2="347.5"/>
		<line class="st2" x1="665" y1="338.3" x2="662.2" y2="338.3"/>
		<line class="st2" x1="665" y1="330.3" x2="662.2" y2="330.3"/>
		<line class="st2" x1="665" y1="323.3" x2="662.2" y2="323.3"/>
		<line class="st2" x1="665" y1="275.6" x2="662.2" y2="275.6"/>
		<line class="st2" x1="665" y1="251.4" x2="662.2" y2="251.4"/>
		<line class="st2" x1="665" y1="234.2" x2="662.2" y2="234.2"/>
		<line class="st2" x1="665" y1="220.9" x2="662.2" y2="220.9"/>
		<line class="st2" x1="665" y1="210" x2="662.2" y2="210"/>
		<line class="st2" x1="665" y1="200.8" x2="662.2" y2="200.8"/>
		<line class="st2" x1="665" y1="192.8" x2="662.2" y2="192.8"/>
		<line class="st2" x1="665" y1="185.8" x2="662.2" y2="185.8"/>
		<line class="st2" x1="665" y1="138.1" x2="662.2" y2="138.1"/>
		<line class="st2" x1="665" y1="113.9" x2="662.2" y2="113.9"/>
		<line class="st2" x1="665" y1="96.7" x2="662.2" y2="96.7"/>
		<line class="st2" x1="665" y1="83.4" x2="662.2" y2="83.4"/>
		<line class="st2" x1="665" y1="72.5" x2="662.2" y2="72.5"/>
		<line class="st2" x1="665" y1="63.3" x2="662.2" y2="63.3"/>
		<line class="st2" x1="665" y1="55.3" x2="662.2" y2="55.3"/>
		<line class="st2" x1="665" y1="48.3" x2="662.2" y2="48.3"/>
	</g>
	<g transform="translate(50,465)">
		<text transform="matrix(1 0 0 1 0 -1.464844e-05)" class="st3 st4 st5">10</text>
	</g>
	<g transform="translate(74,455)">
		<text transform="matrix(1 0 0 1 0 -1.464844e-05)" class="st3 st4 st6">-5</text>
	</g>
	<g transform="translate(50,328)">
		<text transform="matrix(1 0 0 1 0 -1.464844e-05)" class="st3 st4 st5">10</text>
	</g>
	<g transform="translate(74,318)">
		<text transform="matrix(1 0 0 1 0 -1.464844e-05)" class="st3 st4 st6">-4</text>
	</g>
	<g transform="translate(50,190)">
		<text transform="matrix(1 0 0 1 0 -1.464844e-05)" class="st3 st4 st5">10</text>
	</g>
	<g transform="translate(74,180)">
		<text transform="matrix(1 0 0 1 0 -1.464844e-05)" class="st3 st4 st6">-3</text>
	</g>
	<g transform="translate(50,53)">
		<text transform="matrix(1 0 0 1 0 -1.464844e-05)" class="st3 st4 st5">10</text>
	</g>
	<g transform="translate(74,43)">
		<text transform="matrix(1 0 0 1 0 -1.464844e-05)" class="st3 st4 st6">-2</text>
	</g>
	<g transform="translate(46.0667,263.4998) rotate(-90)">
		<text transform="matrix(1 0 0 1 -25.9996 -6)" class="st3 st4 st7">Error</text>
	</g>
	<g>
		<path class="st8" d="M180.6,161.1l121.1,96.4l121.1,133.7l121.1,85"/>
		<line class="st8" x1="176" y1="161.5" x2="185" y2="161.5"/>
		<line class="st8" x1="180.5" y1="166" x2="180.5" y2="157"/>
		<line class="st8" x1="177" y1="165" x2="184" y2="158"/>
		<line class="st8" x1="177" y1="158" x2="184" y2="165"/>
		<line class="st8" x1="297" y1="257.5" x2="306" y2="257.5"/>
		<line class="st8" x1="301.5" y1="262" x2="301.5" y2="253"/>
		<line class="st8" x1="298" y1="261" x2="305" y2="254"/>
		<line class="st8" x1="298" y1="254" x2="305" y2="261"/>
		<line class="st8" x1="418" y1="391.5" x2="427" y2="391.5"/>
		<line class="st8" x1="422.5" y1="396" x2="422.5" y2="387"/>
		<line class="st8" x1="419" y1="395" x2="426" y2="388"/>
		<line class="st8" x1="419" y1="388" x2="426" y2="395"/>
		<line class="st8" x1="539" y1="476.5" x2="548" y2="476.5"/>
		<line class="st8" x1="543.5" y1="481" x2="543.5" y2="472"/>
		<line class="st8" x1="540" y1="480" x2="547" y2="473"/>
		<line class="st8" x1="540" y1="473" x2="547" y2="480"/>
		<path class="st9" d="M105.8,173.8l50.1,14.7l46,30.5l86,38.7l42.9,45l81.2,98.2l40.6,48"/>
		<line class="st9" x1="101" y1="173.5" x2="110" y2="173.5"/>
		<line class="st9" x1="105.5" y1="178" x2="105.5" y2="169"/>
		<line class="st9" x1="102" y1="177" x2="109" y2="170"/>
		<line class="st9" x1="102" y1="170" x2="109" y2="177"/>
		<line class="st9" x1="151" y1="188.5" x2="160" y2="188.5"/>
		<line class="st9" x1="155.5" y1="193" x2="155.5" y2="184"/>
		<line class="st9" x1="152" y1="192" x2="159" y2="185"/>
		<line class="st9" x1="152" y1="185" x2="159" y2="192"/>
		<line class="st9" x1="197" y1="219.5" x2="206" y2="219.5"/>
		<line class="st9" x1="201.5" y1="224" x2="201.5" y2="215"/>
		<line class="st9" x1="198" y1="223" x2="205" y2="216"/>
		<line class="st9" x1="198" y1="216" x2="205" y2="223"/>
		<line class="st9" x1="283" y1="257.5" x2="292" y2="257.5"/>
		<line class="st9" x1="287.5" y1="262" x2="287.5" y2="253"/>
		<line class="st9" x1="284" y1="261" x2="291" y2="254"/>
		<line class="st9" x1="284" y1="254" x2="291" y2="261"/>
		<line class="st9" x1="326" y1="302.5" x2="335" y2="302.5"/>
		<line class="st9" x1="330.5" y1="307" x2="330.5" y2="298"/>
		<line class="st9" x1="327" y1="306" x2="334" y2="299"/>
		<line class="st9" x1="327" y1="299" x2="334" y2="306"/>
		<line class="st9" x1="408" y1="400.5" x2="417" y2="400.5"/>
		<line class="st9" x1="412.5" y1="405" x2="412.5" y2="396"/>
		<line class="st9" x1="409" y1="404" x2="416" y2="397"/>
		<line class="st9" x1="409" y1="397" x2="416" y2="404"/>
		<line class="st9" x1="448" y1="448.5" x2="457" y2="448.5"/>
		<line class="st9" x1="452.5" y1="453" x2="452.5" y2="444"/>
		<line class="st9" x1="449" y1="452" x2="456" y2="445"/>
		<line class="st9" x1="449" y1="445" x2="456" y2="452"/>
	</g>
	<g>
		<path class="st10" d="M179,109.8l121.1,68.8l121.1,68.8l121.1,68.8l121.1,68.8l1.6,0.9"/>
		<path class="st11" d="M179,232.4l121.1,137.5L401.5,485"/>
	</g>
	<g>
		<path class="st12" d="M180.6,169.3l121.1,43.3l121.1,71.8l121.1,65.3l121.1,74"/>
		<line class="st12" x1="176" y1="169.5" x2="185" y2="169.5"/>
		<line class="st12" x1="180.5" y1="174" x2="180.5" y2="165"/>
		<line class="st12" x1="177" y1="173" x2="184" y2="166"/>
		<line class="st12" x1="177" y1="166" x2="184" y2="173"/>
		<line class="st12" x1="297" y1="212.5" x2="306" y2="212.5"/>
		<line class="st12" x1="301.5" y1="217" x2="301.5" y2="208"/>
		<line class="st12" x1="298" y1="216" x2="305" y2="209"/>
		<line class="st12" x1="298" y1="209" x2="305" y2="216"/>
		<line class="st12" x1="418" y1="284.5" x2="427" y2="284.5"/>
		<line class="st12" x1="422.5" y1="289" x2="422.5" y2="280"/>
		<line class="st12" x1="419" y1="288" x2="426" y2="281"/>
		<line class="st12" x1="419" y1="281" x2="426" y2="288"/>
		<line class="st12" x1="539" y1="349.5" x2="548" y2="349.5"/>
		<line class="st12" x1="543.5" y1="354" x2="543.5" y2="345"/>
		<line class="st12" x1="540" y1="353" x2="547" y2="346"/>
		<line class="st12" x1="540" y1="346" x2="547" y2="353"/>
		<line class="st12" x1="661" y1="423.5" x2="670" y2="423.5"/>
		<line class="st12" x1="665.5" y1="428" x2="665.5" y2="419"/>
		<line class="st12" x1="662" y1="427" x2="669" y2="420"/>
		<line class="st12" x1="662" y1="420" x2="669" y2="427"/>
		<line class="st13" x1="95.9" y1="423.6" x2="665.1" y2="423.6"/>
	</g>
	<g>
		<path class="st1" d="M460,172V41h205v131H460z"/>
	</g>
	<g transform="translate(497,55.5)">
		<text transform="matrix(1 0 0 1 0 7.5)" class="st4 st14">MC ray tracing</text>
	</g>
	<g>
		<line class="st12" x1="464" y1="55.5" x2="494" y2="55.5"/>
		<line class="st12" x1="475" y1="55.5" x2="484" y2="55.5"/>
		<line class="st12" x1="479.5" y1="60" x2="479.5" y2="51"/>
		<line class="st12" x1="476" y1="59" x2="483" y2="52"/>
		<line class="st12" x1="476" y1="52" x2="483" y2="59"/>
	</g>
	<g transform="translate(497,81)">
		<text transform="matrix(1 0 0 1 0 7.5)" class="st4 st14">QMC ray tracing</text>
	</g>
	<g>
		<line class="st8" x1="464" y1="81" x2="494" y2="81"/>
		<line class="st8" x1="475" y1="80.5" x2="484" y2="80.5"/>
		<line class="st8" x1="479.5" y1="85" x2="479.5" y2="76"/>
		<line class="st8" x1="476" y1="84" x2="483" y2="77"/>
		<line class="st8" x1="476" y1="77" x2="483" y2="84"/>
	</g>
	<g transform="translate(497,106.5)">
		<text transform="matrix(1 0 0 1 0 7.5)" class="st4 st14">PS ray tracing</text>
	</g>
	<g>
		<line class="st9" x1="464" y1="106.5" x2="494" y2="106.5"/>
		<line class="st9" x1="475" y1="106.5" x2="484" y2="106.5"/>
		<line class="st9" x1="479.5" y1="111" x2="479.5" y2="102"/>
		<line class="st9" x1="476" y1="110" x2="483" y2="103"/>
		<line class="st9" x1="476" y1="103" x2="483" y2="110"/>
	</g>
	<g transform="translate(497,132)">
		<text transform="matrix(1 0 0 1 0 7.5)" class="st4 st14">Line with slope -1/2</text>
	</g>
	<g>
		<line class="st10" x1="464" y1="132" x2="494" y2="132"/>
	</g>
	<g transform="translate(497,157.5)">
		<text transform="matrix(1 0 0 1 0 7.5)" class="st4 st14">Line with slope -1</text>
	</g>
	<g>
		<line class="st11" x1="464" y1="157.5" x2="494" y2="157.5"/>
	</g>
	<g>
		<path class="st15" d="M460,172V41h205v131H460z"/>
	</g>
</g>
</svg>
