<?xml version="1.0" encoding="utf-8"?>
<!-- Generator: Adobe Illustrator 21.1.0, SVG Export Plug-In . SVG Version: 6.00 Build 0)  -->
<svg version="1.1" id="Layer_1" xmlns="http://www.w3.org/2000/svg" xmlns:xlink="http://www.w3.org/1999/xlink" x="0px" y="0px"
	 viewBox="0 0 731 555" style="enable-background:new 0 0 731 555;" xml:space="preserve">
<style type="text/css">
	.st0{clip-path:url(#SVGID_2_);fill:#FFFFFF;}
	.st1{fill:#FFFFFF;}
	.st2{fill:none;stroke:#262626;stroke-width:0.6667;stroke-linecap:square;stroke-linejoin:round;stroke-miterlimit:10;}
	.st3{fill:#262626;}
	.st4{font-family:'MyriadPro-Regular';}
	.st5{font-size:21px;}
	.st6{font-size:16px;}
	.st7{font-size:23px;}
	.st8{fill:none;stroke:#0000FF;stroke-width:2.6667;stroke-linejoin:round;stroke-miterlimit:10;}
	.st9{fill:none;stroke:#FF0000;stroke-width:2.6667;stroke-linejoin:round;stroke-miterlimit:10;}
	.st10{fill:none;stroke:#000000;stroke-width:2;stroke-linejoin:bevel;stroke-miterlimit:1;stroke-dasharray:8,8;}
	.st11{font-size:19px;}
	.st12{fill:none;stroke:#262626;stroke-width:0.6667;stroke-miterlimit:10;}
</style>
<g>
	<g>
		<g>
			<defs>
				<rect id="SVGID_1_" y="0" width="731" height="555"/>
			</defs>
			<clipPath id="SVGID_2_">
				<use xlink:href="#SVGID_1_"  style="overflow:visible;"/>
			</clipPath>
			<rect y="0" class="st0" width="731" height="555"/>
		</g>
	</g>
	<g>
		<rect y="0" class="st1" width="731" height="555"/>
		<path class="st1" d="M95,485h567V42H95V485z"/>
	</g>
	<g>
		<line class="st2" x1="95" y1="485" x2="662" y2="485"/>
		<line class="st2" x1="95" y1="42" x2="662" y2="42"/>
		<line class="st2" x1="146.7" y1="485" x2="146.7" y2="479.3"/>
		<line class="st2" x1="318.5" y1="485" x2="318.5" y2="479.3"/>
		<line class="st2" x1="490.2" y1="485" x2="490.2" y2="479.3"/>
		<line class="st2" x1="662" y1="485" x2="662" y2="479.3"/>
		<line class="st2" x1="146.7" y1="42" x2="146.7" y2="47.7"/>
		<line class="st2" x1="318.5" y1="42" x2="318.5" y2="47.7"/>
		<line class="st2" x1="490.2" y1="42" x2="490.2" y2="47.7"/>
		<line class="st2" x1="662" y1="42" x2="662" y2="47.7"/>
		<line class="st2" x1="108.6" y1="485" x2="108.6" y2="482.2"/>
		<line class="st2" x1="120.1" y1="485" x2="120.1" y2="482.2"/>
		<line class="st2" x1="130.1" y1="485" x2="130.1" y2="482.2"/>
		<line class="st2" x1="138.8" y1="485" x2="138.8" y2="482.2"/>
		<line class="st2" x1="198.4" y1="485" x2="198.4" y2="482.2"/>
		<line class="st2" x1="228.7" y1="485" x2="228.7" y2="482.2"/>
		<line class="st2" x1="250.1" y1="485" x2="250.1" y2="482.2"/>
		<line class="st2" x1="266.8" y1="485" x2="266.8" y2="482.2"/>
		<line class="st2" x1="280.4" y1="485" x2="280.4" y2="482.2"/>
		<line class="st2" x1="291.9" y1="485" x2="291.9" y2="482.2"/>
		<line class="st2" x1="301.8" y1="485" x2="301.8" y2="482.2"/>
		<line class="st2" x1="310.6" y1="485" x2="310.6" y2="482.2"/>
		<line class="st2" x1="370.2" y1="485" x2="370.2" y2="482.2"/>
		<line class="st2" x1="400.4" y1="485" x2="400.4" y2="482.2"/>
		<line class="st2" x1="421.9" y1="485" x2="421.9" y2="482.2"/>
		<line class="st2" x1="438.5" y1="485" x2="438.5" y2="482.2"/>
		<line class="st2" x1="452.1" y1="485" x2="452.1" y2="482.2"/>
		<line class="st2" x1="463.6" y1="485" x2="463.6" y2="482.2"/>
		<line class="st2" x1="473.6" y1="485" x2="473.6" y2="482.2"/>
		<line class="st2" x1="482.4" y1="485" x2="482.4" y2="482.2"/>
		<line class="st2" x1="541.9" y1="485" x2="541.9" y2="482.2"/>
		<line class="st2" x1="572.2" y1="485" x2="572.2" y2="482.2"/>
		<line class="st2" x1="593.6" y1="485" x2="593.6" y2="482.2"/>
		<line class="st2" x1="610.3" y1="485" x2="610.3" y2="482.2"/>
		<line class="st2" x1="623.9" y1="485" x2="623.9" y2="482.2"/>
		<line class="st2" x1="635.4" y1="485" x2="635.4" y2="482.2"/>
		<line class="st2" x1="645.4" y1="485" x2="645.4" y2="482.2"/>
		<line class="st2" x1="654.1" y1="485" x2="654.1" y2="482.2"/>
		<line class="st2" x1="108.6" y1="42" x2="108.6" y2="44.8"/>
		<line class="st2" x1="120.1" y1="42" x2="120.1" y2="44.8"/>
		<line class="st2" x1="130.1" y1="42" x2="130.1" y2="44.8"/>
		<line class="st2" x1="138.8" y1="42" x2="138.8" y2="44.8"/>
		<line class="st2" x1="198.4" y1="42" x2="198.4" y2="44.8"/>
		<line class="st2" x1="228.7" y1="42" x2="228.7" y2="44.8"/>
		<line class="st2" x1="250.1" y1="42" x2="250.1" y2="44.8"/>
		<line class="st2" x1="266.8" y1="42" x2="266.8" y2="44.8"/>
		<line class="st2" x1="280.4" y1="42" x2="280.4" y2="44.8"/>
		<line class="st2" x1="291.9" y1="42" x2="291.9" y2="44.8"/>
		<line class="st2" x1="301.8" y1="42" x2="301.8" y2="44.8"/>
		<line class="st2" x1="310.6" y1="42" x2="310.6" y2="44.8"/>
		<line class="st2" x1="370.2" y1="42" x2="370.2" y2="44.8"/>
		<line class="st2" x1="400.4" y1="42" x2="400.4" y2="44.8"/>
		<line class="st2" x1="421.9" y1="42" x2="421.9" y2="44.8"/>
		<line class="st2" x1="438.5" y1="42" x2="438.5" y2="44.8"/>
		<line class="st2" x1="452.1" y1="42" x2="452.1" y2="44.8"/>
		<line class="st2" x1="463.6" y1="42" x2="463.6" y2="44.8"/>
		<line class="st2" x1="473.6" y1="42" x2="473.6" y2="44.8"/>
		<line class="st2" x1="482.4" y1="42" x2="482.4" y2="44.8"/>
		<line class="st2" x1="541.9" y1="42" x2="541.9" y2="44.8"/>
		<line class="st2" x1="572.2" y1="42" x2="572.2" y2="44.8"/>
		<line class="st2" x1="593.6" y1="42" x2="593.6" y2="44.8"/>
		<line class="st2" x1="610.3" y1="42" x2="610.3" y2="44.8"/>
		<line class="st2" x1="623.9" y1="42" x2="623.9" y2="44.8"/>
		<line class="st2" x1="635.4" y1="42" x2="635.4" y2="44.8"/>
		<line class="st2" x1="645.4" y1="42" x2="645.4" y2="44.8"/>
		<line class="st2" x1="654.1" y1="42" x2="654.1" y2="44.8"/>
	</g>
	<g transform="translate(130,519)">
		<text transform="matrix(1 0 0 1 0 -1.464844e-05)" class="st3 st4 st5">10</text>
	</g>
	<g transform="translate(154,509)">
		<text transform="matrix(1 0 0 1 0 -1.464844e-05)" class="st3 st4 st6">1</text>
	</g>
	<g transform="translate(301,519)">
		<text transform="matrix(1 0 0 1 0 -1.464844e-05)" class="st3 st4 st5">10</text>
	</g>
	<g transform="translate(325,509)">
		<text transform="matrix(1 0 0 1 0 -1.464844e-05)" class="st3 st4 st6">2</text>
	</g>
	<g transform="translate(473,519)">
		<text transform="matrix(1 0 0 1 0 -1.464844e-05)" class="st3 st4 st5">10</text>
	</g>
	<g transform="translate(497,509)">
		<text transform="matrix(1 0 0 1 0 -1.464844e-05)" class="st3 st4 st6">3</text>
	</g>
	<g transform="translate(645,519)">
		<text transform="matrix(1 0 0 1 0 -1.464844e-05)" class="st3 st4 st5">10</text>
	</g>
	<g transform="translate(669,509)">
		<text transform="matrix(1 0 0 1 0 -1.464844e-05)" class="st3 st4 st6">4</text>
	</g>
	<g transform="translate(378.5003,525.2667)">
		<text transform="matrix(1 0 0 1 -50 24)" class="st3 st4 st7">CPU-time</text>
	</g>
	<g>
		<line class="st2" x1="95" y1="485" x2="95" y2="42"/>
		<line class="st2" x1="662" y1="485" x2="662" y2="42"/>
		<line class="st2" x1="95" y1="485" x2="100.7" y2="485"/>
		<line class="st2" x1="95" y1="337.3" x2="100.7" y2="337.3"/>
		<line class="st2" x1="95" y1="189.7" x2="100.7" y2="189.7"/>
		<line class="st2" x1="95" y1="42" x2="100.7" y2="42"/>
		<line class="st2" x1="662" y1="485" x2="656.3" y2="485"/>
		<line class="st2" x1="662" y1="337.3" x2="656.3" y2="337.3"/>
		<line class="st2" x1="662" y1="189.7" x2="656.3" y2="189.7"/>
		<line class="st2" x1="662" y1="42" x2="656.3" y2="42"/>
		<line class="st2" x1="95" y1="440.5" x2="97.8" y2="440.5"/>
		<line class="st2" x1="95" y1="414.5" x2="97.8" y2="414.5"/>
		<line class="st2" x1="95" y1="396.1" x2="97.8" y2="396.1"/>
		<line class="st2" x1="95" y1="381.8" x2="97.8" y2="381.8"/>
		<line class="st2" x1="95" y1="370.1" x2="97.8" y2="370.1"/>
		<line class="st2" x1="95" y1="360.2" x2="97.8" y2="360.2"/>
		<line class="st2" x1="95" y1="351.6" x2="97.8" y2="351.6"/>
		<line class="st2" x1="95" y1="344.1" x2="97.8" y2="344.1"/>
		<line class="st2" x1="95" y1="292.9" x2="97.8" y2="292.9"/>
		<line class="st2" x1="95" y1="266.9" x2="97.8" y2="266.9"/>
		<line class="st2" x1="95" y1="248.4" x2="97.8" y2="248.4"/>
		<line class="st2" x1="95" y1="234.1" x2="97.8" y2="234.1"/>
		<line class="st2" x1="95" y1="222.4" x2="97.8" y2="222.4"/>
		<line class="st2" x1="95" y1="212.5" x2="97.8" y2="212.5"/>
		<line class="st2" x1="95" y1="204" x2="97.8" y2="204"/>
		<line class="st2" x1="95" y1="196.4" x2="97.8" y2="196.4"/>
		<line class="st2" x1="95" y1="145.2" x2="97.8" y2="145.2"/>
		<line class="st2" x1="95" y1="119.2" x2="97.8" y2="119.2"/>
		<line class="st2" x1="95" y1="100.8" x2="97.8" y2="100.8"/>
		<line class="st2" x1="95" y1="86.5" x2="97.8" y2="86.5"/>
		<line class="st2" x1="95" y1="74.8" x2="97.8" y2="74.8"/>
		<line class="st2" x1="95" y1="64.9" x2="97.8" y2="64.9"/>
		<line class="st2" x1="95" y1="56.3" x2="97.8" y2="56.3"/>
		<line class="st2" x1="95" y1="48.8" x2="97.8" y2="48.8"/>
		<line class="st2" x1="662" y1="440.5" x2="659.2" y2="440.5"/>
		<line class="st2" x1="662" y1="414.5" x2="659.2" y2="414.5"/>
		<line class="st2" x1="662" y1="396.1" x2="659.2" y2="396.1"/>
		<line class="st2" x1="662" y1="381.8" x2="659.2" y2="381.8"/>
		<line class="st2" x1="662" y1="370.1" x2="659.2" y2="370.1"/>
		<line class="st2" x1="662" y1="360.2" x2="659.2" y2="360.2"/>
		<line class="st2" x1="662" y1="351.6" x2="659.2" y2="351.6"/>
		<line class="st2" x1="662" y1="344.1" x2="659.2" y2="344.1"/>
		<line class="st2" x1="662" y1="292.9" x2="659.2" y2="292.9"/>
		<line class="st2" x1="662" y1="266.9" x2="659.2" y2="266.9"/>
		<line class="st2" x1="662" y1="248.4" x2="659.2" y2="248.4"/>
		<line class="st2" x1="662" y1="234.1" x2="659.2" y2="234.1"/>
		<line class="st2" x1="662" y1="222.4" x2="659.2" y2="222.4"/>
		<line class="st2" x1="662" y1="212.5" x2="659.2" y2="212.5"/>
		<line class="st2" x1="662" y1="204" x2="659.2" y2="204"/>
		<line class="st2" x1="662" y1="196.4" x2="659.2" y2="196.4"/>
		<line class="st2" x1="662" y1="145.2" x2="659.2" y2="145.2"/>
		<line class="st2" x1="662" y1="119.2" x2="659.2" y2="119.2"/>
		<line class="st2" x1="662" y1="100.8" x2="659.2" y2="100.8"/>
		<line class="st2" x1="662" y1="86.5" x2="659.2" y2="86.5"/>
		<line class="st2" x1="662" y1="74.8" x2="659.2" y2="74.8"/>
		<line class="st2" x1="662" y1="64.9" x2="659.2" y2="64.9"/>
		<line class="st2" x1="662" y1="56.3" x2="659.2" y2="56.3"/>
		<line class="st2" x1="662" y1="48.8" x2="659.2" y2="48.8"/>
	</g>
	<g transform="translate(49,496)">
		<text transform="matrix(1 0 0 1 0 -1.464844e-05)" class="st3 st4 st5">10</text>
	</g>
	<g transform="translate(73,486)">
		<text transform="matrix(1 0 0 1 0 -1.464844e-05)" class="st3 st4 st6">-7</text>
	</g>
	<g transform="translate(49,348)">
		<text transform="matrix(1 0 0 1 0 -1.464844e-05)" class="st3 st4 st5">10</text>
	</g>
	<g transform="translate(73,338)">
		<text transform="matrix(1 0 0 1 0 -1.464844e-05)" class="st3 st4 st6">-6</text>
	</g>
	<g transform="translate(49,201)">
		<text transform="matrix(1 0 0 1 0 -1.464844e-05)" class="st3 st4 st5">10</text>
	</g>
	<g transform="translate(73,191)">
		<text transform="matrix(1 0 0 1 0 -1.464844e-05)" class="st3 st4 st6">-5</text>
	</g>
	<g transform="translate(49,53)">
		<text transform="matrix(1 0 0 1 0 -1.464844e-05)" class="st3 st4 st5">10</text>
	</g>
	<g transform="translate(73,43)">
		<text transform="matrix(1 0 0 1 0 -1.464844e-05)" class="st3 st4 st6">-4</text>
	</g>
	<g transform="translate(45.0667,263.4998) rotate(-90)">
		<text transform="matrix(1 0 0 1 -25.9996 -6)" class="st3 st4 st7">Error</text>
	</g>
	<g>
		<path class="st8" d="M123.9,47.6L296.3,123l172.3,147.8L639.8,372"/>
		<line class="st8" x1="119" y1="47.5" x2="128" y2="47.5"/>
		<line class="st8" x1="123.5" y1="52" x2="123.5" y2="43"/>
		<line class="st8" x1="120" y1="51" x2="127" y2="44"/>
		<line class="st8" x1="120" y1="44" x2="127" y2="51"/>
		<line class="st8" x1="292" y1="123.5" x2="301" y2="123.5"/>
		<line class="st8" x1="296.5" y1="128" x2="296.5" y2="119"/>
		<line class="st8" x1="293" y1="127" x2="300" y2="120"/>
		<line class="st8" x1="293" y1="120" x2="300" y2="127"/>
		<line class="st8" x1="464" y1="270.5" x2="473" y2="270.5"/>
		<line class="st8" x1="468.5" y1="275" x2="468.5" y2="266"/>
		<line class="st8" x1="465" y1="274" x2="472" y2="267"/>
		<line class="st8" x1="465" y1="267" x2="472" y2="274"/>
		<line class="st8" x1="635" y1="372.5" x2="644" y2="372.5"/>
		<line class="st8" x1="639.5" y1="377" x2="639.5" y2="368"/>
		<line class="st8" x1="636" y1="376" x2="643" y2="369"/>
		<line class="st8" x1="636" y1="369" x2="643" y2="376"/>
		<path class="st9" d="M305.7,81.9l159.1,296.2L586,481.7l51.9-0.1"/>
		<line class="st9" x1="301" y1="81.5" x2="310" y2="81.5"/>
		<line class="st9" x1="305.5" y1="86" x2="305.5" y2="77"/>
		<line class="st9" x1="302" y1="85" x2="309" y2="78"/>
		<line class="st9" x1="302" y1="78" x2="309" y2="85"/>
		<line class="st9" x1="460" y1="378.5" x2="469" y2="378.5"/>
		<line class="st9" x1="464.5" y1="383" x2="464.5" y2="374"/>
		<line class="st9" x1="461" y1="382" x2="468" y2="375"/>
		<line class="st9" x1="461" y1="375" x2="468" y2="382"/>
		<line class="st9" x1="581" y1="481.5" x2="590" y2="481.5"/>
		<line class="st9" x1="585.5" y1="486" x2="585.5" y2="477"/>
		<line class="st9" x1="582" y1="485" x2="589" y2="478"/>
		<line class="st9" x1="582" y1="478" x2="589" y2="485"/>
		<line class="st9" x1="633" y1="481.5" x2="642" y2="481.5"/>
		<line class="st9" x1="637.5" y1="486" x2="637.5" y2="477"/>
		<line class="st9" x1="634" y1="485" x2="641" y2="478"/>
		<line class="st9" x1="634" y1="478" x2="641" y2="485"/>
	</g>
	<g>
		<line class="st10" x1="94.9" y1="372" x2="662" y2="372"/>
	</g>
	<g>
		<path class="st1" d="M486,121V42h177v79H486z"/>
	</g>
	<g transform="translate(523,56.4088)">
		<text transform="matrix(1 0 0 1 0 7.5)" class="st4 st11">QMC error</text>
	</g>
	<g>
		<line class="st8" x1="490" y1="56.4" x2="520" y2="56.4"/>
		<line class="st8" x1="501" y1="56.5" x2="510" y2="56.5"/>
		<line class="st8" x1="505.5" y1="61" x2="505.5" y2="52"/>
		<line class="st8" x1="502" y1="60" x2="509" y2="53"/>
		<line class="st8" x1="502" y1="53" x2="509" y2="60"/>
	</g>
	<g transform="translate(523,94.1698)">
		<text transform="matrix(1 0 0 1 0 -5)" class="st4 st11">PS ray mapping</text>
	</g>
	<g transform="translate(523,94.1698)">
		<text transform="matrix(1 0 0 1 0 20)" class="st4 st11">error</text>
	</g>
	<g>
		<line class="st9" x1="490" y1="94.2" x2="520" y2="94.2"/>
		<line class="st9" x1="501" y1="94.5" x2="510" y2="94.5"/>
		<line class="st9" x1="505.5" y1="99" x2="505.5" y2="90"/>
		<line class="st9" x1="502" y1="98" x2="509" y2="91"/>
		<line class="st9" x1="502" y1="91" x2="509" y2="98"/>
	</g>
	<g>
		<path class="st12" d="M486,121V42h177v79H486z"/>
	</g>
</g>
</svg>
