<?xml version="1.0" encoding="utf-8"?>
<!-- Generator: Adobe Illustrator 21.1.0, SVG Export Plug-In . SVG Version: 6.00 Build 0)  -->
<svg version="1.1" id="Layer_1" xmlns="http://www.w3.org/2000/svg" xmlns:xlink="http://www.w3.org/1999/xlink" x="0px" y="0px"
	 viewBox="0 0 731 555" style="enable-background:new 0 0 731 555;" xml:space="preserve">
<style type="text/css">
	.st0{clip-path:url(#SVGID_2_);fill:#FFFFFF;}
	.st1{fill:#FFFFFF;}
	.st2{fill:none;stroke:#262626;stroke-width:0.6667;stroke-linecap:square;stroke-linejoin:round;stroke-miterlimit:10;}
	.st3{fill:#262626;}
	.st4{font-family:'MyriadPro-Regular';}
	.st5{font-size:21px;}
	.st6{font-size:16px;}
	.st7{font-size:23px;}
	.st8{fill:none;stroke:#00FF00;stroke-width:2.6667;stroke-linejoin:round;stroke-miterlimit:10;}
	.st9{fill:none;stroke:#0000FF;stroke-width:2.6667;stroke-linejoin:round;stroke-miterlimit:10;}
	.st10{fill:none;stroke:#FF0000;stroke-width:2.6667;stroke-linejoin:round;stroke-miterlimit:10;}
	.st11{font-size:19px;}
	.st12{fill:none;stroke:#262626;stroke-width:0.6667;stroke-miterlimit:10;}
</style>
<g>
	<g>
		<g>
			<defs>
				<rect id="SVGID_1_" y="0" width="731" height="555"/>
			</defs>
			<clipPath id="SVGID_2_">
				<use xlink:href="#SVGID_1_"  style="overflow:visible;"/>
			</clipPath>
			<rect y="0" class="st0" width="731" height="555"/>
		</g>
	</g>
	<g>
		<rect y="0" class="st1" width="731" height="555"/>
		<path class="st1" d="M95,485h567V42H95V485z"/>
	</g>
	<g>
		<line class="st2" x1="95" y1="485" x2="662" y2="485"/>
		<line class="st2" x1="95" y1="42" x2="662" y2="42"/>
		<line class="st2" x1="95" y1="485" x2="95" y2="479.3"/>
		<line class="st2" x1="236.8" y1="485" x2="236.8" y2="479.3"/>
		<line class="st2" x1="378.5" y1="485" x2="378.5" y2="479.3"/>
		<line class="st2" x1="520.3" y1="485" x2="520.3" y2="479.3"/>
		<line class="st2" x1="662" y1="485" x2="662" y2="479.3"/>
		<line class="st2" x1="95" y1="42" x2="95" y2="47.7"/>
		<line class="st2" x1="236.8" y1="42" x2="236.8" y2="47.7"/>
		<line class="st2" x1="378.5" y1="42" x2="378.5" y2="47.7"/>
		<line class="st2" x1="520.3" y1="42" x2="520.3" y2="47.7"/>
		<line class="st2" x1="662" y1="42" x2="662" y2="47.7"/>
		<line class="st2" x1="137.7" y1="485" x2="137.7" y2="482.2"/>
		<line class="st2" x1="162.6" y1="485" x2="162.6" y2="482.2"/>
		<line class="st2" x1="180.3" y1="485" x2="180.3" y2="482.2"/>
		<line class="st2" x1="194.1" y1="485" x2="194.1" y2="482.2"/>
		<line class="st2" x1="205.3" y1="485" x2="205.3" y2="482.2"/>
		<line class="st2" x1="214.8" y1="485" x2="214.8" y2="482.2"/>
		<line class="st2" x1="223" y1="485" x2="223" y2="482.2"/>
		<line class="st2" x1="230.3" y1="485" x2="230.3" y2="482.2"/>
		<line class="st2" x1="279.4" y1="485" x2="279.4" y2="482.2"/>
		<line class="st2" x1="304.4" y1="485" x2="304.4" y2="482.2"/>
		<line class="st2" x1="322.1" y1="485" x2="322.1" y2="482.2"/>
		<line class="st2" x1="335.8" y1="485" x2="335.8" y2="482.2"/>
		<line class="st2" x1="347.1" y1="485" x2="347.1" y2="482.2"/>
		<line class="st2" x1="356.5" y1="485" x2="356.5" y2="482.2"/>
		<line class="st2" x1="364.8" y1="485" x2="364.8" y2="482.2"/>
		<line class="st2" x1="372" y1="485" x2="372" y2="482.2"/>
		<line class="st2" x1="421.2" y1="485" x2="421.2" y2="482.2"/>
		<line class="st2" x1="446.1" y1="485" x2="446.1" y2="482.2"/>
		<line class="st2" x1="463.8" y1="485" x2="463.8" y2="482.2"/>
		<line class="st2" x1="477.6" y1="485" x2="477.6" y2="482.2"/>
		<line class="st2" x1="488.8" y1="485" x2="488.8" y2="482.2"/>
		<line class="st2" x1="498.3" y1="485" x2="498.3" y2="482.2"/>
		<line class="st2" x1="506.5" y1="485" x2="506.5" y2="482.2"/>
		<line class="st2" x1="513.8" y1="485" x2="513.8" y2="482.2"/>
		<line class="st2" x1="562.9" y1="485" x2="562.9" y2="482.2"/>
		<line class="st2" x1="587.9" y1="485" x2="587.9" y2="482.2"/>
		<line class="st2" x1="605.6" y1="485" x2="605.6" y2="482.2"/>
		<line class="st2" x1="619.3" y1="485" x2="619.3" y2="482.2"/>
		<line class="st2" x1="630.6" y1="485" x2="630.6" y2="482.2"/>
		<line class="st2" x1="640" y1="485" x2="640" y2="482.2"/>
		<line class="st2" x1="648.3" y1="485" x2="648.3" y2="482.2"/>
		<line class="st2" x1="655.5" y1="485" x2="655.5" y2="482.2"/>
		<line class="st2" x1="137.7" y1="42" x2="137.7" y2="44.8"/>
		<line class="st2" x1="162.6" y1="42" x2="162.6" y2="44.8"/>
		<line class="st2" x1="180.3" y1="42" x2="180.3" y2="44.8"/>
		<line class="st2" x1="194.1" y1="42" x2="194.1" y2="44.8"/>
		<line class="st2" x1="205.3" y1="42" x2="205.3" y2="44.8"/>
		<line class="st2" x1="214.8" y1="42" x2="214.8" y2="44.8"/>
		<line class="st2" x1="223" y1="42" x2="223" y2="44.8"/>
		<line class="st2" x1="230.3" y1="42" x2="230.3" y2="44.8"/>
		<line class="st2" x1="279.4" y1="42" x2="279.4" y2="44.8"/>
		<line class="st2" x1="304.4" y1="42" x2="304.4" y2="44.8"/>
		<line class="st2" x1="322.1" y1="42" x2="322.1" y2="44.8"/>
		<line class="st2" x1="335.8" y1="42" x2="335.8" y2="44.8"/>
		<line class="st2" x1="347.1" y1="42" x2="347.1" y2="44.8"/>
		<line class="st2" x1="356.5" y1="42" x2="356.5" y2="44.8"/>
		<line class="st2" x1="364.8" y1="42" x2="364.8" y2="44.8"/>
		<line class="st2" x1="372" y1="42" x2="372" y2="44.8"/>
		<line class="st2" x1="421.2" y1="42" x2="421.2" y2="44.8"/>
		<line class="st2" x1="446.1" y1="42" x2="446.1" y2="44.8"/>
		<line class="st2" x1="463.8" y1="42" x2="463.8" y2="44.8"/>
		<line class="st2" x1="477.6" y1="42" x2="477.6" y2="44.8"/>
		<line class="st2" x1="488.8" y1="42" x2="488.8" y2="44.8"/>
		<line class="st2" x1="498.3" y1="42" x2="498.3" y2="44.8"/>
		<line class="st2" x1="506.5" y1="42" x2="506.5" y2="44.8"/>
		<line class="st2" x1="513.8" y1="42" x2="513.8" y2="44.8"/>
		<line class="st2" x1="562.9" y1="42" x2="562.9" y2="44.8"/>
		<line class="st2" x1="587.9" y1="42" x2="587.9" y2="44.8"/>
		<line class="st2" x1="605.6" y1="42" x2="605.6" y2="44.8"/>
		<line class="st2" x1="619.3" y1="42" x2="619.3" y2="44.8"/>
		<line class="st2" x1="630.6" y1="42" x2="630.6" y2="44.8"/>
		<line class="st2" x1="640" y1="42" x2="640" y2="44.8"/>
		<line class="st2" x1="648.3" y1="42" x2="648.3" y2="44.8"/>
		<line class="st2" x1="655.5" y1="42" x2="655.5" y2="44.8"/>
	</g>
	<g transform="translate(78,519)">
		<text transform="matrix(1 0 0 1 0 -1.464844e-05)" class="st3 st4 st5">10</text>
	</g>
	<g transform="translate(102,509)">
		<text transform="matrix(1 0 0 1 0 -1.464844e-05)" class="st3 st4 st6">3</text>
	</g>
	<g transform="translate(220,519)">
		<text transform="matrix(1 0 0 1 0 -1.464844e-05)" class="st3 st4 st5">10</text>
	</g>
	<g transform="translate(244,509)">
		<text transform="matrix(1 0 0 1 0 -1.464844e-05)" class="st3 st4 st6">4</text>
	</g>
	<g transform="translate(362,519)">
		<text transform="matrix(1 0 0 1 0 -1.464844e-05)" class="st3 st4 st5">10</text>
	</g>
	<g transform="translate(386,509)">
		<text transform="matrix(1 0 0 1 0 -1.464844e-05)" class="st3 st4 st6">5</text>
	</g>
	<g transform="translate(503,519)">
		<text transform="matrix(1 0 0 1 0 -1.464844e-05)" class="st3 st4 st5">10</text>
	</g>
	<g transform="translate(527,509)">
		<text transform="matrix(1 0 0 1 0 -1.464844e-05)" class="st3 st4 st6">6</text>
	</g>
	<g transform="translate(645,519)">
		<text transform="matrix(1 0 0 1 0 -1.464844e-05)" class="st3 st4 st5">10</text>
	</g>
	<g transform="translate(669,509)">
		<text transform="matrix(1 0 0 1 0 -1.464844e-05)" class="st3 st4 st6">7</text>
	</g>
	<g transform="translate(378.5003,525.2667)">
		<text transform="matrix(1 0 0 1 -12.5 24)" class="st3 st4 st7">Nr</text>
	</g>
	<g>
		<line class="st2" x1="95" y1="485" x2="95" y2="42"/>
		<line class="st2" x1="662" y1="485" x2="662" y2="42"/>
		<line class="st2" x1="95" y1="485" x2="100.7" y2="485"/>
		<line class="st2" x1="95" y1="396.4" x2="100.7" y2="396.4"/>
		<line class="st2" x1="95" y1="307.8" x2="100.7" y2="307.8"/>
		<line class="st2" x1="95" y1="219.2" x2="100.7" y2="219.2"/>
		<line class="st2" x1="95" y1="130.6" x2="100.7" y2="130.6"/>
		<line class="st2" x1="95" y1="42" x2="100.7" y2="42"/>
		<line class="st2" x1="662" y1="485" x2="656.3" y2="485"/>
		<line class="st2" x1="662" y1="396.4" x2="656.3" y2="396.4"/>
		<line class="st2" x1="662" y1="307.8" x2="656.3" y2="307.8"/>
		<line class="st2" x1="662" y1="219.2" x2="656.3" y2="219.2"/>
		<line class="st2" x1="662" y1="130.6" x2="656.3" y2="130.6"/>
		<line class="st2" x1="662" y1="42" x2="656.3" y2="42"/>
		<line class="st2" x1="95" y1="458.3" x2="97.8" y2="458.3"/>
		<line class="st2" x1="95" y1="442.7" x2="97.8" y2="442.7"/>
		<line class="st2" x1="95" y1="431.7" x2="97.8" y2="431.7"/>
		<line class="st2" x1="95" y1="423.1" x2="97.8" y2="423.1"/>
		<line class="st2" x1="95" y1="416.1" x2="97.8" y2="416.1"/>
		<line class="st2" x1="95" y1="410.1" x2="97.8" y2="410.1"/>
		<line class="st2" x1="95" y1="405" x2="97.8" y2="405"/>
		<line class="st2" x1="95" y1="400.5" x2="97.8" y2="400.5"/>
		<line class="st2" x1="95" y1="369.7" x2="97.8" y2="369.7"/>
		<line class="st2" x1="95" y1="354.1" x2="97.8" y2="354.1"/>
		<line class="st2" x1="95" y1="343.1" x2="97.8" y2="343.1"/>
		<line class="st2" x1="95" y1="334.5" x2="97.8" y2="334.5"/>
		<line class="st2" x1="95" y1="327.5" x2="97.8" y2="327.5"/>
		<line class="st2" x1="95" y1="321.5" x2="97.8" y2="321.5"/>
		<line class="st2" x1="95" y1="316.4" x2="97.8" y2="316.4"/>
		<line class="st2" x1="95" y1="311.9" x2="97.8" y2="311.9"/>
		<line class="st2" x1="95" y1="281.1" x2="97.8" y2="281.1"/>
		<line class="st2" x1="95" y1="265.5" x2="97.8" y2="265.5"/>
		<line class="st2" x1="95" y1="254.5" x2="97.8" y2="254.5"/>
		<line class="st2" x1="95" y1="245.9" x2="97.8" y2="245.9"/>
		<line class="st2" x1="95" y1="238.9" x2="97.8" y2="238.9"/>
		<line class="st2" x1="95" y1="232.9" x2="97.8" y2="232.9"/>
		<line class="st2" x1="95" y1="227.8" x2="97.8" y2="227.8"/>
		<line class="st2" x1="95" y1="223.3" x2="97.8" y2="223.3"/>
		<line class="st2" x1="95" y1="192.5" x2="97.8" y2="192.5"/>
		<line class="st2" x1="95" y1="176.9" x2="97.8" y2="176.9"/>
		<line class="st2" x1="95" y1="165.9" x2="97.8" y2="165.9"/>
		<line class="st2" x1="95" y1="157.3" x2="97.8" y2="157.3"/>
		<line class="st2" x1="95" y1="150.3" x2="97.8" y2="150.3"/>
		<line class="st2" x1="95" y1="144.3" x2="97.8" y2="144.3"/>
		<line class="st2" x1="95" y1="139.2" x2="97.8" y2="139.2"/>
		<line class="st2" x1="95" y1="134.7" x2="97.8" y2="134.7"/>
		<line class="st2" x1="95" y1="103.9" x2="97.8" y2="103.9"/>
		<line class="st2" x1="95" y1="88.3" x2="97.8" y2="88.3"/>
		<line class="st2" x1="95" y1="77.3" x2="97.8" y2="77.3"/>
		<line class="st2" x1="95" y1="68.7" x2="97.8" y2="68.7"/>
		<line class="st2" x1="95" y1="61.7" x2="97.8" y2="61.7"/>
		<line class="st2" x1="95" y1="55.7" x2="97.8" y2="55.7"/>
		<line class="st2" x1="95" y1="50.6" x2="97.8" y2="50.6"/>
		<line class="st2" x1="95" y1="46.1" x2="97.8" y2="46.1"/>
		<line class="st2" x1="662" y1="458.3" x2="659.2" y2="458.3"/>
		<line class="st2" x1="662" y1="442.7" x2="659.2" y2="442.7"/>
		<line class="st2" x1="662" y1="431.7" x2="659.2" y2="431.7"/>
		<line class="st2" x1="662" y1="423.1" x2="659.2" y2="423.1"/>
		<line class="st2" x1="662" y1="416.1" x2="659.2" y2="416.1"/>
		<line class="st2" x1="662" y1="410.1" x2="659.2" y2="410.1"/>
		<line class="st2" x1="662" y1="405" x2="659.2" y2="405"/>
		<line class="st2" x1="662" y1="400.5" x2="659.2" y2="400.5"/>
		<line class="st2" x1="662" y1="369.7" x2="659.2" y2="369.7"/>
		<line class="st2" x1="662" y1="354.1" x2="659.2" y2="354.1"/>
		<line class="st2" x1="662" y1="343.1" x2="659.2" y2="343.1"/>
		<line class="st2" x1="662" y1="334.5" x2="659.2" y2="334.5"/>
		<line class="st2" x1="662" y1="327.5" x2="659.2" y2="327.5"/>
		<line class="st2" x1="662" y1="321.5" x2="659.2" y2="321.5"/>
		<line class="st2" x1="662" y1="316.4" x2="659.2" y2="316.4"/>
		<line class="st2" x1="662" y1="311.9" x2="659.2" y2="311.9"/>
		<line class="st2" x1="662" y1="281.1" x2="659.2" y2="281.1"/>
		<line class="st2" x1="662" y1="265.5" x2="659.2" y2="265.5"/>
		<line class="st2" x1="662" y1="254.5" x2="659.2" y2="254.5"/>
		<line class="st2" x1="662" y1="245.9" x2="659.2" y2="245.9"/>
		<line class="st2" x1="662" y1="238.9" x2="659.2" y2="238.9"/>
		<line class="st2" x1="662" y1="232.9" x2="659.2" y2="232.9"/>
		<line class="st2" x1="662" y1="227.8" x2="659.2" y2="227.8"/>
		<line class="st2" x1="662" y1="223.3" x2="659.2" y2="223.3"/>
		<line class="st2" x1="662" y1="192.5" x2="659.2" y2="192.5"/>
		<line class="st2" x1="662" y1="176.9" x2="659.2" y2="176.9"/>
		<line class="st2" x1="662" y1="165.9" x2="659.2" y2="165.9"/>
		<line class="st2" x1="662" y1="157.3" x2="659.2" y2="157.3"/>
		<line class="st2" x1="662" y1="150.3" x2="659.2" y2="150.3"/>
		<line class="st2" x1="662" y1="144.3" x2="659.2" y2="144.3"/>
		<line class="st2" x1="662" y1="139.2" x2="659.2" y2="139.2"/>
		<line class="st2" x1="662" y1="134.7" x2="659.2" y2="134.7"/>
		<line class="st2" x1="662" y1="103.9" x2="659.2" y2="103.9"/>
		<line class="st2" x1="662" y1="88.3" x2="659.2" y2="88.3"/>
		<line class="st2" x1="662" y1="77.3" x2="659.2" y2="77.3"/>
		<line class="st2" x1="662" y1="68.7" x2="659.2" y2="68.7"/>
		<line class="st2" x1="662" y1="61.7" x2="659.2" y2="61.7"/>
		<line class="st2" x1="662" y1="55.7" x2="659.2" y2="55.7"/>
		<line class="st2" x1="662" y1="50.6" x2="659.2" y2="50.6"/>
		<line class="st2" x1="662" y1="46.1" x2="659.2" y2="46.1"/>
	</g>
	<g transform="translate(49,496)">
		<text transform="matrix(1 0 0 1 0 -1.464844e-05)" class="st3 st4 st5">10</text>
	</g>
	<g transform="translate(73,486)">
		<text transform="matrix(1 0 0 1 0 -1.464844e-05)" class="st3 st4 st6">-7</text>
	</g>
	<g transform="translate(49,407)">
		<text transform="matrix(1 0 0 1 0 -1.464844e-05)" class="st3 st4 st5">10</text>
	</g>
	<g transform="translate(73,397)">
		<text transform="matrix(1 0 0 1 0 -1.464844e-05)" class="st3 st4 st6">-6</text>
	</g>
	<g transform="translate(49,319)">
		<text transform="matrix(1 0 0 1 0 -1.464844e-05)" class="st3 st4 st5">10</text>
	</g>
	<g transform="translate(73,309)">
		<text transform="matrix(1 0 0 1 0 -1.464844e-05)" class="st3 st4 st6">-5</text>
	</g>
	<g transform="translate(49,230)">
		<text transform="matrix(1 0 0 1 0 -1.464844e-05)" class="st3 st4 st5">10</text>
	</g>
	<g transform="translate(73,220)">
		<text transform="matrix(1 0 0 1 0 -1.464844e-05)" class="st3 st4 st6">-4</text>
	</g>
	<g transform="translate(49,142)">
		<text transform="matrix(1 0 0 1 0 -1.464844e-05)" class="st3 st4 st5">10</text>
	</g>
	<g transform="translate(73,132)">
		<text transform="matrix(1 0 0 1 0 -1.464844e-05)" class="st3 st4 st6">-3</text>
	</g>
	<g transform="translate(49,53)">
		<text transform="matrix(1 0 0 1 0 -1.464844e-05)" class="st3 st4 st5">10</text>
	</g>
	<g transform="translate(73,43)">
		<text transform="matrix(1 0 0 1 0 -1.464844e-05)" class="st3 st4 st6">-2</text>
	</g>
	<g transform="translate(45.0667,263.4998) rotate(-90)">
		<text transform="matrix(1 0 0 1 -25.9996 -6)" class="st3 st4 st7">Error</text>
	</g>
	<g>
		<path class="st8" d="M95,112l141.8,42.8l141.8,45.4l141.8,51.4l141.8,37"/>
		<line class="st8" x1="91" y1="112.5" x2="100" y2="112.5"/>
		<line class="st8" x1="95.5" y1="117" x2="95.5" y2="108"/>
		<line class="st8" x1="92" y1="116" x2="99" y2="109"/>
		<line class="st8" x1="92" y1="109" x2="99" y2="116"/>
		<line class="st8" x1="232" y1="154.5" x2="241" y2="154.5"/>
		<line class="st8" x1="236.5" y1="159" x2="236.5" y2="150"/>
		<line class="st8" x1="233" y1="158" x2="240" y2="151"/>
		<line class="st8" x1="233" y1="151" x2="240" y2="158"/>
		<line class="st8" x1="374" y1="200.5" x2="383" y2="200.5"/>
		<line class="st8" x1="378.5" y1="205" x2="378.5" y2="196"/>
		<line class="st8" x1="375" y1="204" x2="382" y2="197"/>
		<line class="st8" x1="375" y1="197" x2="382" y2="204"/>
		<line class="st8" x1="516" y1="251.5" x2="525" y2="251.5"/>
		<line class="st8" x1="520.5" y1="256" x2="520.5" y2="247"/>
		<line class="st8" x1="517" y1="255" x2="524" y2="248"/>
		<line class="st8" x1="517" y1="248" x2="524" y2="255"/>
		<line class="st8" x1="658" y1="288.5" x2="667" y2="288.5"/>
		<line class="st8" x1="662.5" y1="293" x2="662.5" y2="284"/>
		<line class="st8" x1="659" y1="292" x2="666" y2="285"/>
		<line class="st8" x1="659" y1="285" x2="666" y2="292"/>
		<path class="st9" d="M95,164.6l141.8,70.7l141.8,76.7l141.8,88.6"/>
		<line class="st9" x1="91" y1="164.5" x2="100" y2="164.5"/>
		<line class="st9" x1="95.5" y1="169" x2="95.5" y2="160"/>
		<line class="st9" x1="92" y1="168" x2="99" y2="161"/>
		<line class="st9" x1="92" y1="161" x2="99" y2="168"/>
		<line class="st9" x1="232" y1="235.5" x2="241" y2="235.5"/>
		<line class="st9" x1="236.5" y1="240" x2="236.5" y2="231"/>
		<line class="st9" x1="233" y1="239" x2="240" y2="232"/>
		<line class="st9" x1="233" y1="232" x2="240" y2="239"/>
		<line class="st9" x1="374" y1="312.5" x2="383" y2="312.5"/>
		<line class="st9" x1="378.5" y1="317" x2="378.5" y2="308"/>
		<line class="st9" x1="375" y1="316" x2="382" y2="309"/>
		<line class="st9" x1="375" y1="309" x2="382" y2="316"/>
		<line class="st9" x1="516" y1="400.5" x2="525" y2="400.5"/>
		<line class="st9" x1="520.5" y1="405" x2="520.5" y2="396"/>
		<line class="st9" x1="517" y1="404" x2="524" y2="397"/>
		<line class="st9" x1="517" y1="397" x2="524" y2="404"/>
		<path class="st10" d="M170.3,167.9L219,192l44.3,27.8l45,29.7l43.2,21.5l43.2,27l42.9,27.5"/>
		<line class="st10" x1="166" y1="167.5" x2="175" y2="167.5"/>
		<line class="st10" x1="170.5" y1="172" x2="170.5" y2="163"/>
		<line class="st10" x1="167" y1="171" x2="174" y2="164"/>
		<line class="st10" x1="167" y1="164" x2="174" y2="171"/>
		<line class="st10" x1="215" y1="191.5" x2="224" y2="191.5"/>
		<line class="st10" x1="219.5" y1="196" x2="219.5" y2="187"/>
		<line class="st10" x1="216" y1="195" x2="223" y2="188"/>
		<line class="st10" x1="216" y1="188" x2="223" y2="195"/>
		<line class="st10" x1="259" y1="219.5" x2="268" y2="219.5"/>
		<line class="st10" x1="263.5" y1="224" x2="263.5" y2="215"/>
		<line class="st10" x1="260" y1="223" x2="267" y2="216"/>
		<line class="st10" x1="260" y1="216" x2="267" y2="223"/>
		<line class="st10" x1="304" y1="249.5" x2="313" y2="249.5"/>
		<line class="st10" x1="308.5" y1="254" x2="308.5" y2="245"/>
		<line class="st10" x1="305" y1="253" x2="312" y2="246"/>
		<line class="st10" x1="305" y1="246" x2="312" y2="253"/>
		<line class="st10" x1="347" y1="271.5" x2="356" y2="271.5"/>
		<line class="st10" x1="351.5" y1="276" x2="351.5" y2="267"/>
		<line class="st10" x1="348" y1="275" x2="355" y2="268"/>
		<line class="st10" x1="348" y1="268" x2="355" y2="275"/>
		<line class="st10" x1="390" y1="298.5" x2="399" y2="298.5"/>
		<line class="st10" x1="394.5" y1="303" x2="394.5" y2="294"/>
		<line class="st10" x1="391" y1="302" x2="398" y2="295"/>
		<line class="st10" x1="391" y1="295" x2="398" y2="302"/>
		<line class="st10" x1="433" y1="325.5" x2="442" y2="325.5"/>
		<line class="st10" x1="437.5" y1="330" x2="437.5" y2="321"/>
		<line class="st10" x1="434" y1="329" x2="441" y2="322"/>
		<line class="st10" x1="434" y1="322" x2="441" y2="329"/>
	</g>
	<g>
		<path class="st1" d="M482,122V42h180v80H482z"/>
	</g>
	<g transform="translate(519,56.5)">
		<text transform="matrix(1 0 0 1 0 7.5)" class="st4 st11">MC ray tracing</text>
	</g>
	<g>
		<line class="st8" x1="486" y1="56.5" x2="516" y2="56.5"/>
		<line class="st8" x1="497" y1="56.5" x2="506" y2="56.5"/>
		<line class="st8" x1="501.5" y1="61" x2="501.5" y2="52"/>
		<line class="st8" x1="498" y1="60" x2="505" y2="53"/>
		<line class="st8" x1="498" y1="53" x2="505" y2="60"/>
	</g>
	<g transform="translate(519,82)">
		<text transform="matrix(1 0 0 1 0 7.5)" class="st4 st11">QMC ray tracing</text>
	</g>
	<g>
		<line class="st9" x1="486" y1="82" x2="516" y2="82"/>
		<line class="st9" x1="497" y1="81.5" x2="506" y2="81.5"/>
		<line class="st9" x1="501.5" y1="86" x2="501.5" y2="77"/>
		<line class="st9" x1="498" y1="85" x2="505" y2="78"/>
		<line class="st9" x1="498" y1="78" x2="505" y2="85"/>
	</g>
	<g transform="translate(519,107.5)">
		<text transform="matrix(1 0 0 1 0 7.5)" class="st4 st11">PS ray tracing</text>
	</g>
	<g>
		<line class="st10" x1="486" y1="107.5" x2="516" y2="107.5"/>
		<line class="st10" x1="497" y1="107.5" x2="506" y2="107.5"/>
		<line class="st10" x1="501.5" y1="112" x2="501.5" y2="103"/>
		<line class="st10" x1="498" y1="111" x2="505" y2="104"/>
		<line class="st10" x1="498" y1="104" x2="505" y2="111"/>
	</g>
	<g>
		<path class="st12" d="M482,122V42h180v80H482z"/>
	</g>
</g>
</svg>
