<?xml version="1.0" encoding="utf-8"?>
<!-- Generator: Adobe Illustrator 21.1.0, SVG Export Plug-In . SVG Version: 6.00 Build 0)  -->
<svg version="1.1" id="Layer_1" xmlns="http://www.w3.org/2000/svg" xmlns:xlink="http://www.w3.org/1999/xlink" x="0px" y="0px"
	 viewBox="0 0 735 555" style="enable-background:new 0 0 735 555;" xml:space="preserve">
<style type="text/css">
	.st0{clip-path:url(#SVGID_2_);fill:#FFFFFF;}
	.st1{fill:#FFFFFF;}
	.st2{fill:none;stroke:#262626;stroke-width:0.6667;stroke-linecap:square;stroke-linejoin:round;stroke-miterlimit:10;}
	.st3{fill:#262626;}
	.st4{font-family:'MyriadPro-Regular';}
	.st5{font-size:21px;}
	.st6{font-size:16px;}
	.st7{font-size:23px;}
	.st8{fill:none;stroke:#00FF00;stroke-width:2.6667;stroke-linejoin:round;stroke-miterlimit:10;}
	.st9{fill:none;stroke:#0000FF;stroke-width:2.6667;stroke-linejoin:round;stroke-miterlimit:10;}
	.st10{fill:none;stroke:#FF0000;stroke-width:2.6667;stroke-linejoin:round;stroke-miterlimit:10;}
	.st11{fill:none;stroke:#000000;stroke-width:2;stroke-linejoin:bevel;stroke-miterlimit:1;stroke-dasharray:8,8;}
	.st12{fill:none;stroke:#0000FF;stroke-width:2;stroke-linejoin:bevel;stroke-miterlimit:1;stroke-dasharray:8,8;}
	.st13{fill:none;stroke:#000000;stroke-width:0.6667;stroke-linejoin:round;stroke-miterlimit:10;}
	.st14{font-size:19px;}
	.st15{fill:none;stroke:#262626;stroke-width:0.6667;stroke-miterlimit:10;}
</style>
<g>
	<g>
		<g>
			<defs>
				<rect id="SVGID_1_" y="0" width="735" height="555"/>
			</defs>
			<clipPath id="SVGID_2_">
				<use xlink:href="#SVGID_1_"  style="overflow:visible;"/>
			</clipPath>
			<rect y="0" class="st0" width="735" height="555"/>
		</g>
	</g>
	<g>
		<rect y="0" class="st1" width="735" height="555"/>
		<path class="st1" d="M96,485h569V42H96V485z"/>
	</g>
	<g>
		<line class="st2" x1="96" y1="485" x2="665" y2="485"/>
		<line class="st2" x1="96" y1="42" x2="665" y2="42"/>
		<line class="st2" x1="143.6" y1="485" x2="143.6" y2="479.3"/>
		<line class="st2" x1="301.5" y1="485" x2="301.5" y2="479.3"/>
		<line class="st2" x1="459.5" y1="485" x2="459.5" y2="479.3"/>
		<line class="st2" x1="617.4" y1="485" x2="617.4" y2="479.3"/>
		<line class="st2" x1="143.6" y1="42" x2="143.6" y2="47.7"/>
		<line class="st2" x1="301.5" y1="42" x2="301.5" y2="47.7"/>
		<line class="st2" x1="459.5" y1="42" x2="459.5" y2="47.7"/>
		<line class="st2" x1="617.4" y1="42" x2="617.4" y2="47.7"/>
		<line class="st2" x1="108.5" y1="485" x2="108.5" y2="482.2"/>
		<line class="st2" x1="119.1" y1="485" x2="119.1" y2="482.2"/>
		<line class="st2" x1="128.2" y1="485" x2="128.2" y2="482.2"/>
		<line class="st2" x1="136.3" y1="485" x2="136.3" y2="482.2"/>
		<line class="st2" x1="191.1" y1="485" x2="191.1" y2="482.2"/>
		<line class="st2" x1="218.9" y1="485" x2="218.9" y2="482.2"/>
		<line class="st2" x1="238.7" y1="485" x2="238.7" y2="482.2"/>
		<line class="st2" x1="254" y1="485" x2="254" y2="482.2"/>
		<line class="st2" x1="266.5" y1="485" x2="266.5" y2="482.2"/>
		<line class="st2" x1="277" y1="485" x2="277" y2="482.2"/>
		<line class="st2" x1="286.2" y1="485" x2="286.2" y2="482.2"/>
		<line class="st2" x1="294.3" y1="485" x2="294.3" y2="482.2"/>
		<line class="st2" x1="349.1" y1="485" x2="349.1" y2="482.2"/>
		<line class="st2" x1="376.9" y1="485" x2="376.9" y2="482.2"/>
		<line class="st2" x1="396.6" y1="485" x2="396.6" y2="482.2"/>
		<line class="st2" x1="411.9" y1="485" x2="411.9" y2="482.2"/>
		<line class="st2" x1="424.4" y1="485" x2="424.4" y2="482.2"/>
		<line class="st2" x1="435" y1="485" x2="435" y2="482.2"/>
		<line class="st2" x1="444.2" y1="485" x2="444.2" y2="482.2"/>
		<line class="st2" x1="452.3" y1="485" x2="452.3" y2="482.2"/>
		<line class="st2" x1="507" y1="485" x2="507" y2="482.2"/>
		<line class="st2" x1="534.9" y1="485" x2="534.9" y2="482.2"/>
		<line class="st2" x1="554.6" y1="485" x2="554.6" y2="482.2"/>
		<line class="st2" x1="569.9" y1="485" x2="569.9" y2="482.2"/>
		<line class="st2" x1="582.4" y1="485" x2="582.4" y2="482.2"/>
		<line class="st2" x1="593" y1="485" x2="593" y2="482.2"/>
		<line class="st2" x1="602.1" y1="485" x2="602.1" y2="482.2"/>
		<line class="st2" x1="610.2" y1="485" x2="610.2" y2="482.2"/>
		<line class="st2" x1="108.5" y1="42" x2="108.5" y2="44.8"/>
		<line class="st2" x1="119.1" y1="42" x2="119.1" y2="44.8"/>
		<line class="st2" x1="128.2" y1="42" x2="128.2" y2="44.8"/>
		<line class="st2" x1="136.3" y1="42" x2="136.3" y2="44.8"/>
		<line class="st2" x1="191.1" y1="42" x2="191.1" y2="44.8"/>
		<line class="st2" x1="218.9" y1="42" x2="218.9" y2="44.8"/>
		<line class="st2" x1="238.7" y1="42" x2="238.7" y2="44.8"/>
		<line class="st2" x1="254" y1="42" x2="254" y2="44.8"/>
		<line class="st2" x1="266.5" y1="42" x2="266.5" y2="44.8"/>
		<line class="st2" x1="277" y1="42" x2="277" y2="44.8"/>
		<line class="st2" x1="286.2" y1="42" x2="286.2" y2="44.8"/>
		<line class="st2" x1="294.3" y1="42" x2="294.3" y2="44.8"/>
		<line class="st2" x1="349.1" y1="42" x2="349.1" y2="44.8"/>
		<line class="st2" x1="376.9" y1="42" x2="376.9" y2="44.8"/>
		<line class="st2" x1="396.6" y1="42" x2="396.6" y2="44.8"/>
		<line class="st2" x1="411.9" y1="42" x2="411.9" y2="44.8"/>
		<line class="st2" x1="424.4" y1="42" x2="424.4" y2="44.8"/>
		<line class="st2" x1="435" y1="42" x2="435" y2="44.8"/>
		<line class="st2" x1="444.2" y1="42" x2="444.2" y2="44.8"/>
		<line class="st2" x1="452.3" y1="42" x2="452.3" y2="44.8"/>
		<line class="st2" x1="507" y1="42" x2="507" y2="44.8"/>
		<line class="st2" x1="534.9" y1="42" x2="534.9" y2="44.8"/>
		<line class="st2" x1="554.6" y1="42" x2="554.6" y2="44.8"/>
		<line class="st2" x1="569.9" y1="42" x2="569.9" y2="44.8"/>
		<line class="st2" x1="582.4" y1="42" x2="582.4" y2="44.8"/>
		<line class="st2" x1="593" y1="42" x2="593" y2="44.8"/>
		<line class="st2" x1="602.1" y1="42" x2="602.1" y2="44.8"/>
		<line class="st2" x1="610.2" y1="42" x2="610.2" y2="44.8"/>
	</g>
	<g transform="translate(127,519)">
		<text transform="matrix(1 0 0 1 0 -1.464844e-05)" class="st3 st4 st5">10</text>
	</g>
	<g transform="translate(151,509)">
		<text transform="matrix(1 0 0 1 0 -1.464844e-05)" class="st3 st4 st6">3</text>
	</g>
	<g transform="translate(285,519)">
		<text transform="matrix(1 0 0 1 0 -1.464844e-05)" class="st3 st4 st5">10</text>
	</g>
	<g transform="translate(309,509)">
		<text transform="matrix(1 0 0 1 0 -1.464844e-05)" class="st3 st4 st6">4</text>
	</g>
	<g transform="translate(442,519)">
		<text transform="matrix(1 0 0 1 0 -1.464844e-05)" class="st3 st4 st5">10</text>
	</g>
	<g transform="translate(466,509)">
		<text transform="matrix(1 0 0 1 0 -1.464844e-05)" class="st3 st4 st6">5</text>
	</g>
	<g transform="translate(600,519)">
		<text transform="matrix(1 0 0 1 0 -1.464844e-05)" class="st3 st4 st5">10</text>
	</g>
	<g transform="translate(624,509)">
		<text transform="matrix(1 0 0 1 0 -1.464844e-05)" class="st3 st4 st6">6</text>
	</g>
	<g transform="translate(380.5003,525.2667)">
		<text transform="matrix(1 0 0 1 -12.5 24)" class="st3 st4 st7">Nr</text>
	</g>
	<g>
		<line class="st2" x1="96" y1="485" x2="96" y2="42"/>
		<line class="st2" x1="665" y1="485" x2="665" y2="42"/>
		<line class="st2" x1="96" y1="485" x2="101.7" y2="485"/>
		<line class="st2" x1="96" y1="337.3" x2="101.7" y2="337.3"/>
		<line class="st2" x1="96" y1="189.7" x2="101.7" y2="189.7"/>
		<line class="st2" x1="96" y1="42" x2="101.7" y2="42"/>
		<line class="st2" x1="665" y1="485" x2="659.3" y2="485"/>
		<line class="st2" x1="665" y1="337.3" x2="659.3" y2="337.3"/>
		<line class="st2" x1="665" y1="189.7" x2="659.3" y2="189.7"/>
		<line class="st2" x1="665" y1="42" x2="659.3" y2="42"/>
		<line class="st2" x1="96" y1="440.5" x2="98.8" y2="440.5"/>
		<line class="st2" x1="96" y1="414.5" x2="98.8" y2="414.5"/>
		<line class="st2" x1="96" y1="396.1" x2="98.8" y2="396.1"/>
		<line class="st2" x1="96" y1="381.8" x2="98.8" y2="381.8"/>
		<line class="st2" x1="96" y1="370.1" x2="98.8" y2="370.1"/>
		<line class="st2" x1="96" y1="360.2" x2="98.8" y2="360.2"/>
		<line class="st2" x1="96" y1="351.6" x2="98.8" y2="351.6"/>
		<line class="st2" x1="96" y1="344.1" x2="98.8" y2="344.1"/>
		<line class="st2" x1="96" y1="292.9" x2="98.8" y2="292.9"/>
		<line class="st2" x1="96" y1="266.9" x2="98.8" y2="266.9"/>
		<line class="st2" x1="96" y1="248.4" x2="98.8" y2="248.4"/>
		<line class="st2" x1="96" y1="234.1" x2="98.8" y2="234.1"/>
		<line class="st2" x1="96" y1="222.4" x2="98.8" y2="222.4"/>
		<line class="st2" x1="96" y1="212.5" x2="98.8" y2="212.5"/>
		<line class="st2" x1="96" y1="204" x2="98.8" y2="204"/>
		<line class="st2" x1="96" y1="196.4" x2="98.8" y2="196.4"/>
		<line class="st2" x1="96" y1="145.2" x2="98.8" y2="145.2"/>
		<line class="st2" x1="96" y1="119.2" x2="98.8" y2="119.2"/>
		<line class="st2" x1="96" y1="100.8" x2="98.8" y2="100.8"/>
		<line class="st2" x1="96" y1="86.5" x2="98.8" y2="86.5"/>
		<line class="st2" x1="96" y1="74.8" x2="98.8" y2="74.8"/>
		<line class="st2" x1="96" y1="64.9" x2="98.8" y2="64.9"/>
		<line class="st2" x1="96" y1="56.3" x2="98.8" y2="56.3"/>
		<line class="st2" x1="96" y1="48.8" x2="98.8" y2="48.8"/>
		<line class="st2" x1="665" y1="440.5" x2="662.2" y2="440.5"/>
		<line class="st2" x1="665" y1="414.5" x2="662.2" y2="414.5"/>
		<line class="st2" x1="665" y1="396.1" x2="662.2" y2="396.1"/>
		<line class="st2" x1="665" y1="381.8" x2="662.2" y2="381.8"/>
		<line class="st2" x1="665" y1="370.1" x2="662.2" y2="370.1"/>
		<line class="st2" x1="665" y1="360.2" x2="662.2" y2="360.2"/>
		<line class="st2" x1="665" y1="351.6" x2="662.2" y2="351.6"/>
		<line class="st2" x1="665" y1="344.1" x2="662.2" y2="344.1"/>
		<line class="st2" x1="665" y1="292.9" x2="662.2" y2="292.9"/>
		<line class="st2" x1="665" y1="266.9" x2="662.2" y2="266.9"/>
		<line class="st2" x1="665" y1="248.4" x2="662.2" y2="248.4"/>
		<line class="st2" x1="665" y1="234.1" x2="662.2" y2="234.1"/>
		<line class="st2" x1="665" y1="222.4" x2="662.2" y2="222.4"/>
		<line class="st2" x1="665" y1="212.5" x2="662.2" y2="212.5"/>
		<line class="st2" x1="665" y1="204" x2="662.2" y2="204"/>
		<line class="st2" x1="665" y1="196.4" x2="662.2" y2="196.4"/>
		<line class="st2" x1="665" y1="145.2" x2="662.2" y2="145.2"/>
		<line class="st2" x1="665" y1="119.2" x2="662.2" y2="119.2"/>
		<line class="st2" x1="665" y1="100.8" x2="662.2" y2="100.8"/>
		<line class="st2" x1="665" y1="86.5" x2="662.2" y2="86.5"/>
		<line class="st2" x1="665" y1="74.8" x2="662.2" y2="74.8"/>
		<line class="st2" x1="665" y1="64.9" x2="662.2" y2="64.9"/>
		<line class="st2" x1="665" y1="56.3" x2="662.2" y2="56.3"/>
		<line class="st2" x1="665" y1="48.8" x2="662.2" y2="48.8"/>
	</g>
	<g transform="translate(50,496)">
		<text transform="matrix(1 0 0 1 0 -1.464844e-05)" class="st3 st4 st5">10</text>
	</g>
	<g transform="translate(74,486)">
		<text transform="matrix(1 0 0 1 0 -1.464844e-05)" class="st3 st4 st6">-5</text>
	</g>
	<g transform="translate(50,348)">
		<text transform="matrix(1 0 0 1 0 -1.464844e-05)" class="st3 st4 st5">10</text>
	</g>
	<g transform="translate(74,338)">
		<text transform="matrix(1 0 0 1 0 -1.464844e-05)" class="st3 st4 st6">-4</text>
	</g>
	<g transform="translate(50,201)">
		<text transform="matrix(1 0 0 1 0 -1.464844e-05)" class="st3 st4 st5">10</text>
	</g>
	<g transform="translate(74,191)">
		<text transform="matrix(1 0 0 1 0 -1.464844e-05)" class="st3 st4 st6">-3</text>
	</g>
	<g transform="translate(50,53)">
		<text transform="matrix(1 0 0 1 0 -1.464844e-05)" class="st3 st4 st5">10</text>
	</g>
	<g transform="translate(74,43)">
		<text transform="matrix(1 0 0 1 0 -1.464844e-05)" class="st3 st4 st6">-2</text>
	</g>
	<g transform="translate(46.0667,263.4998) rotate(-90)">
		<text transform="matrix(1 0 0 1 -25.9996 -6)" class="st3 st4 st7">Error</text>
	</g>
	<g>
		<path class="st8" d="M143.6,142.4l158,75.7l158,77.3l158,60.8"/>
		<line class="st8" x1="139" y1="142.5" x2="148" y2="142.5"/>
		<line class="st8" x1="143.5" y1="147" x2="143.5" y2="138"/>
		<line class="st8" x1="140" y1="146" x2="147" y2="139"/>
		<line class="st8" x1="140" y1="139" x2="147" y2="146"/>
		<line class="st8" x1="297" y1="218.5" x2="306" y2="218.5"/>
		<line class="st8" x1="301.5" y1="223" x2="301.5" y2="214"/>
		<line class="st8" x1="298" y1="222" x2="305" y2="215"/>
		<line class="st8" x1="298" y1="215" x2="305" y2="222"/>
		<line class="st8" x1="455" y1="295.5" x2="464" y2="295.5"/>
		<line class="st8" x1="459.5" y1="300" x2="459.5" y2="291"/>
		<line class="st8" x1="456" y1="299" x2="463" y2="292"/>
		<line class="st8" x1="456" y1="292" x2="463" y2="299"/>
		<line class="st8" x1="613" y1="356.5" x2="622" y2="356.5"/>
		<line class="st8" x1="617.5" y1="361" x2="617.5" y2="352"/>
		<line class="st8" x1="614" y1="360" x2="621" y2="353"/>
		<line class="st8" x1="614" y1="353" x2="621" y2="360"/>
		<path class="st9" d="M143.6,166.7l158,99.4l158,105.9l158,97.2"/>
		<line class="st9" x1="139" y1="166.5" x2="148" y2="166.5"/>
		<line class="st9" x1="143.5" y1="171" x2="143.5" y2="162"/>
		<line class="st9" x1="140" y1="170" x2="147" y2="163"/>
		<line class="st9" x1="140" y1="163" x2="147" y2="170"/>
		<line class="st9" x1="297" y1="266.5" x2="306" y2="266.5"/>
		<line class="st9" x1="301.5" y1="271" x2="301.5" y2="262"/>
		<line class="st9" x1="298" y1="270" x2="305" y2="263"/>
		<line class="st9" x1="298" y1="263" x2="305" y2="270"/>
		<line class="st9" x1="455" y1="372.5" x2="464" y2="372.5"/>
		<line class="st9" x1="459.5" y1="377" x2="459.5" y2="368"/>
		<line class="st9" x1="456" y1="376" x2="463" y2="369"/>
		<line class="st9" x1="456" y1="369" x2="463" y2="376"/>
		<line class="st9" x1="613" y1="469.5" x2="622" y2="469.5"/>
		<line class="st9" x1="617.5" y1="474" x2="617.5" y2="465"/>
		<line class="st9" x1="614" y1="473" x2="621" y2="466"/>
		<line class="st9" x1="614" y1="466" x2="621" y2="473"/>
		<path class="st10" d="M286.7,311.6l52.4,34.9l54.5,43.1l50.2,43l48.9,40.7"/>
		<line class="st10" x1="282" y1="311.5" x2="291" y2="311.5"/>
		<line class="st10" x1="286.5" y1="316" x2="286.5" y2="307"/>
		<line class="st10" x1="283" y1="315" x2="290" y2="308"/>
		<line class="st10" x1="283" y1="308" x2="290" y2="315"/>
		<line class="st10" x1="335" y1="346.5" x2="344" y2="346.5"/>
		<line class="st10" x1="339.5" y1="351" x2="339.5" y2="342"/>
		<line class="st10" x1="336" y1="350" x2="343" y2="343"/>
		<line class="st10" x1="336" y1="343" x2="343" y2="350"/>
		<line class="st10" x1="389" y1="389.5" x2="398" y2="389.5"/>
		<line class="st10" x1="393.5" y1="394" x2="393.5" y2="385"/>
		<line class="st10" x1="390" y1="393" x2="397" y2="386"/>
		<line class="st10" x1="390" y1="386" x2="397" y2="393"/>
		<line class="st10" x1="439" y1="432.5" x2="448" y2="432.5"/>
		<line class="st10" x1="443.5" y1="437" x2="443.5" y2="428"/>
		<line class="st10" x1="440" y1="436" x2="447" y2="429"/>
		<line class="st10" x1="440" y1="429" x2="447" y2="436"/>
		<line class="st10" x1="488" y1="473.5" x2="497" y2="473.5"/>
		<line class="st10" x1="492.5" y1="478" x2="492.5" y2="469"/>
		<line class="st10" x1="489" y1="477" x2="496" y2="470"/>
		<line class="st10" x1="489" y1="470" x2="496" y2="477"/>
	</g>
	<g>
		<path class="st11" d="M95.9,93.6l47.6,22.3l158,73.8l158,73.8l158,73.8l47.6,22.3"/>
		<path class="st12" d="M141.5,246.5l158,147.7l97.2,90.9"/>
	</g>
	<g>
		<line class="st13" x1="95.9" y1="356.2" x2="665.1" y2="356.2"/>
	</g>
	<g>
		<path class="st1" d="M460,170V39h205v131H460z"/>
	</g>
	<g transform="translate(497,53.5)">
		<text transform="matrix(1 0 0 1 0 7.5)" class="st4 st14">MC ray tracing</text>
	</g>
	<g>
		<line class="st8" x1="464" y1="53.5" x2="494" y2="53.5"/>
		<line class="st8" x1="475" y1="53.5" x2="484" y2="53.5"/>
		<line class="st8" x1="479.5" y1="58" x2="479.5" y2="49"/>
		<line class="st8" x1="476" y1="57" x2="483" y2="50"/>
		<line class="st8" x1="476" y1="50" x2="483" y2="57"/>
	</g>
	<g transform="translate(497,79)">
		<text transform="matrix(1 0 0 1 0 7.5)" class="st4 st14">QMC ray tracing</text>
	</g>
	<g>
		<line class="st9" x1="464" y1="79" x2="494" y2="79"/>
		<line class="st9" x1="475" y1="78.5" x2="484" y2="78.5"/>
		<line class="st9" x1="479.5" y1="83" x2="479.5" y2="74"/>
		<line class="st9" x1="476" y1="82" x2="483" y2="75"/>
		<line class="st9" x1="476" y1="75" x2="483" y2="82"/>
	</g>
	<g transform="translate(497,104.5)">
		<text transform="matrix(1 0 0 1 0 7.5)" class="st4 st14">PS ray tracing</text>
	</g>
	<g>
		<line class="st10" x1="464" y1="104.5" x2="494" y2="104.5"/>
		<line class="st10" x1="475" y1="104.5" x2="484" y2="104.5"/>
		<line class="st10" x1="479.5" y1="109" x2="479.5" y2="100"/>
		<line class="st10" x1="476" y1="108" x2="483" y2="101"/>
		<line class="st10" x1="476" y1="101" x2="483" y2="108"/>
	</g>
	<g transform="translate(497,130)">
		<text transform="matrix(1 0 0 1 0 7.5)" class="st4 st14">Line with slope -1/2</text>
	</g>
	<g>
		<line class="st11" x1="464" y1="130" x2="494" y2="130"/>
	</g>
	<g transform="translate(497,155.5)">
		<text transform="matrix(1 0 0 1 0 7.5)" class="st4 st14">Line with slope -1</text>
	</g>
	<g>
		<line class="st12" x1="464" y1="155.5" x2="494" y2="155.5"/>
	</g>
	<g>
		<path class="st15" d="M460,170V39h205v131H460z"/>
	</g>
</g>
</svg>
