<?xml version="1.0" encoding="utf-8"?>
<!-- Generator: Adobe Illustrator 21.1.0, SVG Export Plug-In . SVG Version: 6.00 Build 0)  -->
<svg version="1.1" id="Layer_1" xmlns="http://www.w3.org/2000/svg" xmlns:xlink="http://www.w3.org/1999/xlink" x="0px" y="0px"
	 viewBox="0 0 735 555" style="enable-background:new 0 0 735 555;" xml:space="preserve">
<style type="text/css">
	.st0{clip-path:url(#SVGID_2_);fill:#FFFFFF;}
	.st1{fill:#FFFFFF;}
	.st2{fill:none;stroke:#262626;stroke-width:0.6667;stroke-linecap:square;stroke-linejoin:round;stroke-miterlimit:10;}
	.st3{fill:#262626;}
	.st4{font-family:'MyriadPro-Regular';}
	.st5{font-size:21px;}
	.st6{font-size:16px;}
	.st7{font-size:23px;}
	.st8{fill:none;stroke:#0000FF;stroke-width:2.6667;stroke-linejoin:round;stroke-miterlimit:10;}
	.st9{fill:none;stroke:#FF0000;stroke-width:2.6667;stroke-linejoin:round;stroke-miterlimit:10;}
	.st10{fill:none;stroke:#00FF00;stroke-width:2.6667;stroke-linejoin:round;stroke-miterlimit:10;}
	.st11{fill:none;stroke:#000000;stroke-width:0.6667;stroke-linejoin:round;stroke-miterlimit:10;}
	.st12{font-size:19px;}
	.st13{fill:none;stroke:#262626;stroke-width:0.6667;stroke-miterlimit:10;}
</style>
<g>
	<g>
		<g>
			<defs>
				<rect id="SVGID_1_" y="0" width="735" height="555"/>
			</defs>
			<clipPath id="SVGID_2_">
				<use xlink:href="#SVGID_1_"  style="overflow:visible;"/>
			</clipPath>
			<rect y="0" class="st0" width="735" height="555"/>
		</g>
	</g>
	<g>
		<rect y="0" class="st1" width="735" height="555"/>
		<path class="st1" d="M96,484h569V41H96V484z"/>
	</g>
	<g>
		<line class="st2" x1="96" y1="484" x2="665" y2="484"/>
		<line class="st2" x1="96" y1="41" x2="665" y2="41"/>
		<line class="st2" x1="248.8" y1="484" x2="248.8" y2="478.3"/>
		<line class="st2" x1="483.7" y1="484" x2="483.7" y2="478.3"/>
		<line class="st2" x1="248.8" y1="41" x2="248.8" y2="46.7"/>
		<line class="st2" x1="483.7" y1="41" x2="483.7" y2="46.7"/>
	</g>
	<g transform="translate(232,518)">
		<text transform="matrix(1 0 0 1 0 -1.464844e-05)" class="st3 st4 st5">10</text>
	</g>
	<g transform="translate(256,508)">
		<text transform="matrix(1 0 0 1 0 -1.464844e-05)" class="st3 st4 st6">0</text>
	</g>
	<g transform="translate(467,518)">
		<text transform="matrix(1 0 0 1 0 -1.464844e-05)" class="st3 st4 st5">10</text>
	</g>
	<g transform="translate(491,508)">
		<text transform="matrix(1 0 0 1 0 -1.464844e-05)" class="st3 st4 st6">2</text>
	</g>
	<g transform="translate(380.5003,524.2667)">
		<text transform="matrix(1 0 0 1 -50 24)" class="st3 st4 st7">CPU-time</text>
	</g>
	<g>
		<line class="st2" x1="96" y1="484" x2="96" y2="41"/>
		<line class="st2" x1="665" y1="484" x2="665" y2="41"/>
		<line class="st2" x1="96" y1="451.2" x2="101.7" y2="451.2"/>
		<line class="st2" x1="96" y1="303.6" x2="101.7" y2="303.6"/>
		<line class="st2" x1="96" y1="155.9" x2="101.7" y2="155.9"/>
		<line class="st2" x1="665" y1="451.2" x2="659.3" y2="451.2"/>
		<line class="st2" x1="665" y1="303.6" x2="659.3" y2="303.6"/>
		<line class="st2" x1="665" y1="155.9" x2="659.3" y2="155.9"/>
		<line class="st2" x1="96" y1="474.1" x2="98.8" y2="474.1"/>
		<line class="st2" x1="96" y1="465.6" x2="98.8" y2="465.6"/>
		<line class="st2" x1="96" y1="458" x2="98.8" y2="458"/>
		<line class="st2" x1="96" y1="406.8" x2="98.8" y2="406.8"/>
		<line class="st2" x1="96" y1="380.8" x2="98.8" y2="380.8"/>
		<line class="st2" x1="96" y1="362.3" x2="98.8" y2="362.3"/>
		<line class="st2" x1="96" y1="348" x2="98.8" y2="348"/>
		<line class="st2" x1="96" y1="336.3" x2="98.8" y2="336.3"/>
		<line class="st2" x1="96" y1="326.4" x2="98.8" y2="326.4"/>
		<line class="st2" x1="96" y1="317.9" x2="98.8" y2="317.9"/>
		<line class="st2" x1="96" y1="310.3" x2="98.8" y2="310.3"/>
		<line class="st2" x1="96" y1="259.1" x2="98.8" y2="259.1"/>
		<line class="st2" x1="96" y1="233.1" x2="98.8" y2="233.1"/>
		<line class="st2" x1="96" y1="214.7" x2="98.8" y2="214.7"/>
		<line class="st2" x1="96" y1="200.4" x2="98.8" y2="200.4"/>
		<line class="st2" x1="96" y1="188.7" x2="98.8" y2="188.7"/>
		<line class="st2" x1="96" y1="178.8" x2="98.8" y2="178.8"/>
		<line class="st2" x1="96" y1="170.2" x2="98.8" y2="170.2"/>
		<line class="st2" x1="96" y1="162.7" x2="98.8" y2="162.7"/>
		<line class="st2" x1="96" y1="111.5" x2="98.8" y2="111.5"/>
		<line class="st2" x1="96" y1="85.5" x2="98.8" y2="85.5"/>
		<line class="st2" x1="96" y1="67" x2="98.8" y2="67"/>
		<line class="st2" x1="96" y1="52.7" x2="98.8" y2="52.7"/>
		<line class="st2" x1="665" y1="474.1" x2="662.2" y2="474.1"/>
		<line class="st2" x1="665" y1="465.6" x2="662.2" y2="465.6"/>
		<line class="st2" x1="665" y1="458" x2="662.2" y2="458"/>
		<line class="st2" x1="665" y1="406.8" x2="662.2" y2="406.8"/>
		<line class="st2" x1="665" y1="380.8" x2="662.2" y2="380.8"/>
		<line class="st2" x1="665" y1="362.3" x2="662.2" y2="362.3"/>
		<line class="st2" x1="665" y1="348" x2="662.2" y2="348"/>
		<line class="st2" x1="665" y1="336.3" x2="662.2" y2="336.3"/>
		<line class="st2" x1="665" y1="326.4" x2="662.2" y2="326.4"/>
		<line class="st2" x1="665" y1="317.9" x2="662.2" y2="317.9"/>
		<line class="st2" x1="665" y1="310.3" x2="662.2" y2="310.3"/>
		<line class="st2" x1="665" y1="259.1" x2="662.2" y2="259.1"/>
		<line class="st2" x1="665" y1="233.1" x2="662.2" y2="233.1"/>
		<line class="st2" x1="665" y1="214.7" x2="662.2" y2="214.7"/>
		<line class="st2" x1="665" y1="200.4" x2="662.2" y2="200.4"/>
		<line class="st2" x1="665" y1="188.7" x2="662.2" y2="188.7"/>
		<line class="st2" x1="665" y1="178.8" x2="662.2" y2="178.8"/>
		<line class="st2" x1="665" y1="170.2" x2="662.2" y2="170.2"/>
		<line class="st2" x1="665" y1="162.7" x2="662.2" y2="162.7"/>
		<line class="st2" x1="665" y1="111.5" x2="662.2" y2="111.5"/>
		<line class="st2" x1="665" y1="85.5" x2="662.2" y2="85.5"/>
		<line class="st2" x1="665" y1="67" x2="662.2" y2="67"/>
		<line class="st2" x1="665" y1="52.7" x2="662.2" y2="52.7"/>
	</g>
	<g transform="translate(50,462)">
		<text transform="matrix(1 0 0 1 0 -1.464844e-05)" class="st3 st4 st5">10</text>
	</g>
	<g transform="translate(74,452)">
		<text transform="matrix(1 0 0 1 0 -1.464844e-05)" class="st3 st4 st6">-5</text>
	</g>
	<g transform="translate(50,315)">
		<text transform="matrix(1 0 0 1 0 -1.464844e-05)" class="st3 st4 st5">10</text>
	</g>
	<g transform="translate(74,305)">
		<text transform="matrix(1 0 0 1 0 -1.464844e-05)" class="st3 st4 st6">-4</text>
	</g>
	<g transform="translate(50,167)">
		<text transform="matrix(1 0 0 1 0 -1.464844e-05)" class="st3 st4 st5">10</text>
	</g>
	<g transform="translate(74,157)">
		<text transform="matrix(1 0 0 1 0 -1.464844e-05)" class="st3 st4 st6">-3</text>
	</g>
	<g transform="translate(46.0667,262.4998) rotate(-90)">
		<text transform="matrix(1 0 0 1 -25.9996 -6)" class="st3 st4 st7">Error</text>
	</g>
	<g>
		<path class="st8" d="M193.8,136.2l111.8,103.5l117.6,143.5l116.2,91.3"/>
		<line class="st8" x1="189" y1="136.5" x2="198" y2="136.5"/>
		<line class="st8" x1="193.5" y1="141" x2="193.5" y2="132"/>
		<line class="st8" x1="190" y1="140" x2="197" y2="133"/>
		<line class="st8" x1="190" y1="133" x2="197" y2="140"/>
		<line class="st8" x1="301" y1="239.5" x2="310" y2="239.5"/>
		<line class="st8" x1="305.5" y1="244" x2="305.5" y2="235"/>
		<line class="st8" x1="302" y1="243" x2="309" y2="236"/>
		<line class="st8" x1="302" y1="236" x2="309" y2="243"/>
		<line class="st8" x1="419" y1="383.5" x2="428" y2="383.5"/>
		<line class="st8" x1="423.5" y1="388" x2="423.5" y2="379"/>
		<line class="st8" x1="420" y1="387" x2="427" y2="380"/>
		<line class="st8" x1="420" y1="380" x2="427" y2="387"/>
		<line class="st8" x1="535" y1="474.5" x2="544" y2="474.5"/>
		<line class="st8" x1="539.5" y1="479" x2="539.5" y2="470"/>
		<line class="st8" x1="536" y1="478" x2="543" y2="471"/>
		<line class="st8" x1="536" y1="471" x2="543" y2="478"/>
		<path class="st9" d="M148.5,149.8l18.2,15.8l40.2,32.8l79.1,41.5l52.3,48.4l119.6,105.5l70.8,51.5"/>
		<line class="st9" x1="144" y1="149.5" x2="153" y2="149.5"/>
		<line class="st9" x1="148.5" y1="154" x2="148.5" y2="145"/>
		<line class="st9" x1="145" y1="153" x2="152" y2="146"/>
		<line class="st9" x1="145" y1="146" x2="152" y2="153"/>
		<line class="st9" x1="162" y1="165.5" x2="171" y2="165.5"/>
		<line class="st9" x1="166.5" y1="170" x2="166.5" y2="161"/>
		<line class="st9" x1="163" y1="169" x2="170" y2="162"/>
		<line class="st9" x1="163" y1="162" x2="170" y2="169"/>
		<line class="st9" x1="202" y1="198.5" x2="211" y2="198.5"/>
		<line class="st9" x1="206.5" y1="203" x2="206.5" y2="194"/>
		<line class="st9" x1="203" y1="202" x2="210" y2="195"/>
		<line class="st9" x1="203" y1="195" x2="210" y2="202"/>
		<line class="st9" x1="281" y1="239.5" x2="290" y2="239.5"/>
		<line class="st9" x1="285.5" y1="244" x2="285.5" y2="235"/>
		<line class="st9" x1="282" y1="243" x2="289" y2="236"/>
		<line class="st9" x1="282" y1="236" x2="289" y2="243"/>
		<line class="st9" x1="334" y1="288.5" x2="343" y2="288.5"/>
		<line class="st9" x1="338.5" y1="293" x2="338.5" y2="284"/>
		<line class="st9" x1="335" y1="292" x2="342" y2="285"/>
		<line class="st9" x1="335" y1="285" x2="342" y2="292"/>
		<line class="st9" x1="453" y1="393.5" x2="462" y2="393.5"/>
		<line class="st9" x1="457.5" y1="398" x2="457.5" y2="389"/>
		<line class="st9" x1="454" y1="397" x2="461" y2="390"/>
		<line class="st9" x1="454" y1="390" x2="461" y2="397"/>
		<line class="st9" x1="524" y1="445.5" x2="533" y2="445.5"/>
		<line class="st9" x1="528.5" y1="450" x2="528.5" y2="441"/>
		<line class="st9" x1="525" y1="449" x2="532" y2="442"/>
		<line class="st9" x1="525" y1="442" x2="532" y2="449"/>
		<path class="st10" d="M200.8,145l110.9,46.5l115.6,77.1l117.1,70.1l118,79.4"/>
		<line class="st10" x1="196" y1="144.5" x2="205" y2="144.5"/>
		<line class="st10" x1="200.5" y1="149" x2="200.5" y2="140"/>
		<line class="st10" x1="197" y1="148" x2="204" y2="141"/>
		<line class="st10" x1="197" y1="141" x2="204" y2="148"/>
		<line class="st10" x1="307" y1="191.5" x2="316" y2="191.5"/>
		<line class="st10" x1="311.5" y1="196" x2="311.5" y2="187"/>
		<line class="st10" x1="308" y1="195" x2="315" y2="188"/>
		<line class="st10" x1="308" y1="188" x2="315" y2="195"/>
		<line class="st10" x1="423" y1="268.5" x2="432" y2="268.5"/>
		<line class="st10" x1="427.5" y1="273" x2="427.5" y2="264"/>
		<line class="st10" x1="424" y1="272" x2="431" y2="265"/>
		<line class="st10" x1="424" y1="265" x2="431" y2="272"/>
		<line class="st10" x1="540" y1="338.5" x2="549" y2="338.5"/>
		<line class="st10" x1="544.5" y1="343" x2="544.5" y2="334"/>
		<line class="st10" x1="541" y1="342" x2="548" y2="335"/>
		<line class="st10" x1="541" y1="335" x2="548" y2="342"/>
		<line class="st10" x1="658" y1="418.5" x2="667" y2="418.5"/>
		<line class="st10" x1="662.5" y1="423" x2="662.5" y2="414"/>
		<line class="st10" x1="659" y1="422" x2="666" y2="415"/>
		<line class="st10" x1="659" y1="415" x2="666" y2="422"/>
		<line class="st11" x1="96" y1="418" x2="665" y2="418"/>
	</g>
	<g>
		<path class="st1" d="M485,120V41h180v79H485z"/>
	</g>
	<g transform="translate(522,55.3187)">
		<text transform="matrix(1 0 0 1 0 7.5)" class="st4 st12">QMC ray tracing</text>
	</g>
	<g>
		<line class="st10" x1="489" y1="55.3" x2="519" y2="55.3"/>
		<line class="st10" x1="500" y1="55.5" x2="509" y2="55.5"/>
		<line class="st10" x1="504.5" y1="60" x2="504.5" y2="51"/>
		<line class="st10" x1="501" y1="59" x2="508" y2="52"/>
		<line class="st10" x1="501" y1="52" x2="508" y2="59"/>
	</g>
	<g transform="translate(522,80.5)">
		<text transform="matrix(1 0 0 1 0 7.5)" class="st4 st12">MC ray tracing</text>
	</g>
	<g>
		<line class="st8" x1="489" y1="80.5" x2="519" y2="80.5"/>
		<line class="st8" x1="500" y1="80.5" x2="509" y2="80.5"/>
		<line class="st8" x1="504.5" y1="85" x2="504.5" y2="76"/>
		<line class="st8" x1="501" y1="84" x2="508" y2="77"/>
		<line class="st8" x1="501" y1="77" x2="508" y2="84"/>
	</g>
	<g transform="translate(522,105.6813)">
		<text transform="matrix(1 0 0 1 0 7.5)" class="st4 st12">PS ray tracing</text>
	</g>
	<g>
		<line class="st9" x1="489" y1="105.7" x2="519" y2="105.7"/>
		<line class="st9" x1="500" y1="105.5" x2="509" y2="105.5"/>
		<line class="st9" x1="504.5" y1="110" x2="504.5" y2="101"/>
		<line class="st9" x1="501" y1="109" x2="508" y2="102"/>
		<line class="st9" x1="501" y1="102" x2="508" y2="109"/>
	</g>
	<g>
		<path class="st13" d="M485,120V41h180v79H485z"/>
	</g>
</g>
</svg>
