<?xml version="1.0" encoding="utf-8"?>
<!-- Generator: Adobe Illustrator 21.1.0, SVG Export Plug-In . SVG Version: 6.00 Build 0)  -->
<svg version="1.1" id="Layer_1" xmlns="http://www.w3.org/2000/svg" xmlns:xlink="http://www.w3.org/1999/xlink" x="0px" y="0px"
	 viewBox="0 0 731 555" style="enable-background:new 0 0 731 555;" xml:space="preserve">
<style type="text/css">
	.st0{clip-path:url(#SVGID_2_);fill:#FFFFFF;}
	.st1{fill:#FFFFFF;}
	.st2{fill:none;stroke:#262626;stroke-width:0.6667;stroke-linecap:square;stroke-linejoin:round;stroke-miterlimit:10;}
	.st3{fill:#262626;}
	.st4{font-family:'MyriadPro-Regular';}
	.st5{font-size:21px;}
	.st6{font-size:16px;}
	.st7{font-size:23px;}
	.st8{fill:none;stroke:#00FF00;stroke-width:2.6667;stroke-linejoin:round;stroke-miterlimit:10;}
	.st9{fill:none;stroke:#0000FF;stroke-width:2.6667;stroke-linejoin:round;stroke-miterlimit:10;}
	.st10{fill:none;stroke:#FF0000;stroke-width:2.6667;stroke-linejoin:round;stroke-miterlimit:10;}
	.st11{font-size:19px;}
	.st12{fill:none;stroke:#262626;stroke-width:0.6667;stroke-miterlimit:10;}
</style>
<g>
	<g>
		<g>
			<defs>
				<rect id="SVGID_1_" y="0" width="731" height="555"/>
			</defs>
			<clipPath id="SVGID_2_">
				<use xlink:href="#SVGID_1_"  style="overflow:visible;"/>
			</clipPath>
			<rect y="0" class="st0" width="731" height="555"/>
		</g>
	</g>
	<g>
		<rect y="0" class="st1" width="731" height="555"/>
		<path class="st1" d="M95,485h567V42H95V485z"/>
	</g>
	<g>
		<line class="st2" x1="95" y1="485" x2="662" y2="485"/>
		<line class="st2" x1="95" y1="42" x2="662" y2="42"/>
		<line class="st2" x1="220.6" y1="485" x2="220.6" y2="479.3"/>
		<line class="st2" x1="367.8" y1="485" x2="367.8" y2="479.3"/>
		<line class="st2" x1="514.9" y1="485" x2="514.9" y2="479.3"/>
		<line class="st2" x1="662" y1="485" x2="662" y2="479.3"/>
		<line class="st2" x1="220.6" y1="42" x2="220.6" y2="47.7"/>
		<line class="st2" x1="367.8" y1="42" x2="367.8" y2="47.7"/>
		<line class="st2" x1="514.9" y1="42" x2="514.9" y2="47.7"/>
		<line class="st2" x1="662" y1="42" x2="662" y2="47.7"/>
		<line class="st2" x1="117.8" y1="485" x2="117.8" y2="482.2"/>
		<line class="st2" x1="143.7" y1="485" x2="143.7" y2="482.2"/>
		<line class="st2" x1="162.1" y1="485" x2="162.1" y2="482.2"/>
		<line class="st2" x1="176.3" y1="485" x2="176.3" y2="482.2"/>
		<line class="st2" x1="188" y1="485" x2="188" y2="482.2"/>
		<line class="st2" x1="197.8" y1="485" x2="197.8" y2="482.2"/>
		<line class="st2" x1="206.4" y1="485" x2="206.4" y2="482.2"/>
		<line class="st2" x1="213.9" y1="485" x2="213.9" y2="482.2"/>
		<line class="st2" x1="264.9" y1="485" x2="264.9" y2="482.2"/>
		<line class="st2" x1="290.8" y1="485" x2="290.8" y2="482.2"/>
		<line class="st2" x1="309.2" y1="485" x2="309.2" y2="482.2"/>
		<line class="st2" x1="323.5" y1="485" x2="323.5" y2="482.2"/>
		<line class="st2" x1="335.1" y1="485" x2="335.1" y2="482.2"/>
		<line class="st2" x1="345" y1="485" x2="345" y2="482.2"/>
		<line class="st2" x1="353.5" y1="485" x2="353.5" y2="482.2"/>
		<line class="st2" x1="361" y1="485" x2="361" y2="482.2"/>
		<line class="st2" x1="412" y1="485" x2="412" y2="482.2"/>
		<line class="st2" x1="437.9" y1="485" x2="437.9" y2="482.2"/>
		<line class="st2" x1="456.3" y1="485" x2="456.3" y2="482.2"/>
		<line class="st2" x1="470.6" y1="485" x2="470.6" y2="482.2"/>
		<line class="st2" x1="482.2" y1="485" x2="482.2" y2="482.2"/>
		<line class="st2" x1="492.1" y1="485" x2="492.1" y2="482.2"/>
		<line class="st2" x1="500.6" y1="485" x2="500.6" y2="482.2"/>
		<line class="st2" x1="508.1" y1="485" x2="508.1" y2="482.2"/>
		<line class="st2" x1="559.2" y1="485" x2="559.2" y2="482.2"/>
		<line class="st2" x1="585.1" y1="485" x2="585.1" y2="482.2"/>
		<line class="st2" x1="603.5" y1="485" x2="603.5" y2="482.2"/>
		<line class="st2" x1="617.7" y1="485" x2="617.7" y2="482.2"/>
		<line class="st2" x1="629.4" y1="485" x2="629.4" y2="482.2"/>
		<line class="st2" x1="639.2" y1="485" x2="639.2" y2="482.2"/>
		<line class="st2" x1="647.7" y1="485" x2="647.7" y2="482.2"/>
		<line class="st2" x1="655.3" y1="485" x2="655.3" y2="482.2"/>
		<line class="st2" x1="117.8" y1="42" x2="117.8" y2="44.8"/>
		<line class="st2" x1="143.7" y1="42" x2="143.7" y2="44.8"/>
		<line class="st2" x1="162.1" y1="42" x2="162.1" y2="44.8"/>
		<line class="st2" x1="176.3" y1="42" x2="176.3" y2="44.8"/>
		<line class="st2" x1="188" y1="42" x2="188" y2="44.8"/>
		<line class="st2" x1="197.8" y1="42" x2="197.8" y2="44.8"/>
		<line class="st2" x1="206.4" y1="42" x2="206.4" y2="44.8"/>
		<line class="st2" x1="213.9" y1="42" x2="213.9" y2="44.8"/>
		<line class="st2" x1="264.9" y1="42" x2="264.9" y2="44.8"/>
		<line class="st2" x1="290.8" y1="42" x2="290.8" y2="44.8"/>
		<line class="st2" x1="309.2" y1="42" x2="309.2" y2="44.8"/>
		<line class="st2" x1="323.5" y1="42" x2="323.5" y2="44.8"/>
		<line class="st2" x1="335.1" y1="42" x2="335.1" y2="44.8"/>
		<line class="st2" x1="345" y1="42" x2="345" y2="44.8"/>
		<line class="st2" x1="353.5" y1="42" x2="353.5" y2="44.8"/>
		<line class="st2" x1="361" y1="42" x2="361" y2="44.8"/>
		<line class="st2" x1="412" y1="42" x2="412" y2="44.8"/>
		<line class="st2" x1="437.9" y1="42" x2="437.9" y2="44.8"/>
		<line class="st2" x1="456.3" y1="42" x2="456.3" y2="44.8"/>
		<line class="st2" x1="470.6" y1="42" x2="470.6" y2="44.8"/>
		<line class="st2" x1="482.2" y1="42" x2="482.2" y2="44.8"/>
		<line class="st2" x1="492.1" y1="42" x2="492.1" y2="44.8"/>
		<line class="st2" x1="500.6" y1="42" x2="500.6" y2="44.8"/>
		<line class="st2" x1="508.1" y1="42" x2="508.1" y2="44.8"/>
		<line class="st2" x1="559.2" y1="42" x2="559.2" y2="44.8"/>
		<line class="st2" x1="585.1" y1="42" x2="585.1" y2="44.8"/>
		<line class="st2" x1="603.5" y1="42" x2="603.5" y2="44.8"/>
		<line class="st2" x1="617.7" y1="42" x2="617.7" y2="44.8"/>
		<line class="st2" x1="629.4" y1="42" x2="629.4" y2="44.8"/>
		<line class="st2" x1="639.2" y1="42" x2="639.2" y2="44.8"/>
		<line class="st2" x1="647.7" y1="42" x2="647.7" y2="44.8"/>
		<line class="st2" x1="655.3" y1="42" x2="655.3" y2="44.8"/>
	</g>
	<g transform="translate(204,519)">
		<text transform="matrix(1 0 0 1 0 -1.464844e-05)" class="st3 st4 st5">10</text>
	</g>
	<g transform="translate(228,509)">
		<text transform="matrix(1 0 0 1 0 -1.464844e-05)" class="st3 st4 st6">0</text>
	</g>
	<g transform="translate(351,519)">
		<text transform="matrix(1 0 0 1 0 -1.464844e-05)" class="st3 st4 st5">10</text>
	</g>
	<g transform="translate(375,509)">
		<text transform="matrix(1 0 0 1 0 -1.464844e-05)" class="st3 st4 st6">1</text>
	</g>
	<g transform="translate(498,519)">
		<text transform="matrix(1 0 0 1 0 -1.464844e-05)" class="st3 st4 st5">10</text>
	</g>
	<g transform="translate(522,509)">
		<text transform="matrix(1 0 0 1 0 -1.464844e-05)" class="st3 st4 st6">2</text>
	</g>
	<g transform="translate(645,519)">
		<text transform="matrix(1 0 0 1 0 -1.464844e-05)" class="st3 st4 st5">10</text>
	</g>
	<g transform="translate(669,509)">
		<text transform="matrix(1 0 0 1 0 -1.464844e-05)" class="st3 st4 st6">3</text>
	</g>
	<g transform="translate(378.5003,525.2667)">
		<text transform="matrix(1 0 0 1 -50 24)" class="st3 st4 st7">CPU-time</text>
	</g>
	<g>
		<line class="st2" x1="95" y1="485" x2="95" y2="42"/>
		<line class="st2" x1="662" y1="485" x2="662" y2="42"/>
		<line class="st2" x1="95" y1="454.5" x2="100.7" y2="454.5"/>
		<line class="st2" x1="95" y1="317" x2="100.7" y2="317"/>
		<line class="st2" x1="95" y1="179.5" x2="100.7" y2="179.5"/>
		<line class="st2" x1="95" y1="42" x2="100.7" y2="42"/>
		<line class="st2" x1="662" y1="454.5" x2="656.3" y2="454.5"/>
		<line class="st2" x1="662" y1="317" x2="656.3" y2="317"/>
		<line class="st2" x1="662" y1="179.5" x2="656.3" y2="179.5"/>
		<line class="st2" x1="662" y1="42" x2="656.3" y2="42"/>
		<line class="st2" x1="95" y1="475.8" x2="97.8" y2="475.8"/>
		<line class="st2" x1="95" y1="467.8" x2="97.8" y2="467.8"/>
		<line class="st2" x1="95" y1="460.8" x2="97.8" y2="460.8"/>
		<line class="st2" x1="95" y1="413.1" x2="97.8" y2="413.1"/>
		<line class="st2" x1="95" y1="388.9" x2="97.8" y2="388.9"/>
		<line class="st2" x1="95" y1="371.7" x2="97.8" y2="371.7"/>
		<line class="st2" x1="95" y1="358.4" x2="97.8" y2="358.4"/>
		<line class="st2" x1="95" y1="347.5" x2="97.8" y2="347.5"/>
		<line class="st2" x1="95" y1="338.3" x2="97.8" y2="338.3"/>
		<line class="st2" x1="95" y1="330.3" x2="97.8" y2="330.3"/>
		<line class="st2" x1="95" y1="323.3" x2="97.8" y2="323.3"/>
		<line class="st2" x1="95" y1="275.6" x2="97.8" y2="275.6"/>
		<line class="st2" x1="95" y1="251.4" x2="97.8" y2="251.4"/>
		<line class="st2" x1="95" y1="234.2" x2="97.8" y2="234.2"/>
		<line class="st2" x1="95" y1="220.9" x2="97.8" y2="220.9"/>
		<line class="st2" x1="95" y1="210" x2="97.8" y2="210"/>
		<line class="st2" x1="95" y1="200.8" x2="97.8" y2="200.8"/>
		<line class="st2" x1="95" y1="192.8" x2="97.8" y2="192.8"/>
		<line class="st2" x1="95" y1="185.8" x2="97.8" y2="185.8"/>
		<line class="st2" x1="95" y1="138.1" x2="97.8" y2="138.1"/>
		<line class="st2" x1="95" y1="113.9" x2="97.8" y2="113.9"/>
		<line class="st2" x1="95" y1="96.7" x2="97.8" y2="96.7"/>
		<line class="st2" x1="95" y1="83.4" x2="97.8" y2="83.4"/>
		<line class="st2" x1="95" y1="72.5" x2="97.8" y2="72.5"/>
		<line class="st2" x1="95" y1="63.3" x2="97.8" y2="63.3"/>
		<line class="st2" x1="95" y1="55.3" x2="97.8" y2="55.3"/>
		<line class="st2" x1="95" y1="48.3" x2="97.8" y2="48.3"/>
		<line class="st2" x1="662" y1="475.8" x2="659.2" y2="475.8"/>
		<line class="st2" x1="662" y1="467.8" x2="659.2" y2="467.8"/>
		<line class="st2" x1="662" y1="460.8" x2="659.2" y2="460.8"/>
		<line class="st2" x1="662" y1="413.1" x2="659.2" y2="413.1"/>
		<line class="st2" x1="662" y1="388.9" x2="659.2" y2="388.9"/>
		<line class="st2" x1="662" y1="371.7" x2="659.2" y2="371.7"/>
		<line class="st2" x1="662" y1="358.4" x2="659.2" y2="358.4"/>
		<line class="st2" x1="662" y1="347.5" x2="659.2" y2="347.5"/>
		<line class="st2" x1="662" y1="338.3" x2="659.2" y2="338.3"/>
		<line class="st2" x1="662" y1="330.3" x2="659.2" y2="330.3"/>
		<line class="st2" x1="662" y1="323.3" x2="659.2" y2="323.3"/>
		<line class="st2" x1="662" y1="275.6" x2="659.2" y2="275.6"/>
		<line class="st2" x1="662" y1="251.4" x2="659.2" y2="251.4"/>
		<line class="st2" x1="662" y1="234.2" x2="659.2" y2="234.2"/>
		<line class="st2" x1="662" y1="220.9" x2="659.2" y2="220.9"/>
		<line class="st2" x1="662" y1="210" x2="659.2" y2="210"/>
		<line class="st2" x1="662" y1="200.8" x2="659.2" y2="200.8"/>
		<line class="st2" x1="662" y1="192.8" x2="659.2" y2="192.8"/>
		<line class="st2" x1="662" y1="185.8" x2="659.2" y2="185.8"/>
		<line class="st2" x1="662" y1="138.1" x2="659.2" y2="138.1"/>
		<line class="st2" x1="662" y1="113.9" x2="659.2" y2="113.9"/>
		<line class="st2" x1="662" y1="96.7" x2="659.2" y2="96.7"/>
		<line class="st2" x1="662" y1="83.4" x2="659.2" y2="83.4"/>
		<line class="st2" x1="662" y1="72.5" x2="659.2" y2="72.5"/>
		<line class="st2" x1="662" y1="63.3" x2="659.2" y2="63.3"/>
		<line class="st2" x1="662" y1="55.3" x2="659.2" y2="55.3"/>
		<line class="st2" x1="662" y1="48.3" x2="659.2" y2="48.3"/>
	</g>
	<g transform="translate(49,465)">
		<text transform="matrix(1 0 0 1 0 -1.464844e-05)" class="st3 st4 st5">10</text>
	</g>
	<g transform="translate(73,455)">
		<text transform="matrix(1 0 0 1 0 -1.464844e-05)" class="st3 st4 st6">-5</text>
	</g>
	<g transform="translate(49,328)">
		<text transform="matrix(1 0 0 1 0 -1.464844e-05)" class="st3 st4 st5">10</text>
	</g>
	<g transform="translate(73,318)">
		<text transform="matrix(1 0 0 1 0 -1.464844e-05)" class="st3 st4 st6">-4</text>
	</g>
	<g transform="translate(49,190)">
		<text transform="matrix(1 0 0 1 0 -1.464844e-05)" class="st3 st4 st5">10</text>
	</g>
	<g transform="translate(73,180)">
		<text transform="matrix(1 0 0 1 0 -1.464844e-05)" class="st3 st4 st6">-3</text>
	</g>
	<g transform="translate(49,53)">
		<text transform="matrix(1 0 0 1 0 -1.464844e-05)" class="st3 st4 st5">10</text>
	</g>
	<g transform="translate(73,43)">
		<text transform="matrix(1 0 0 1 0 -1.464844e-05)" class="st3 st4 st6">-2</text>
	</g>
	<g transform="translate(45.0667,263.4998) rotate(-90)">
		<text transform="matrix(1 0 0 1 -25.9996 -6)" class="st3 st4 st7">Error</text>
	</g>
	<g>
		<path class="st8" d="M160.5,169.3l139,43.3l144.9,71.8L591,349.6"/>
		<line class="st8" x1="156" y1="169.5" x2="165" y2="169.5"/>
		<line class="st8" x1="160.5" y1="174" x2="160.5" y2="165"/>
		<line class="st8" x1="157" y1="173" x2="164" y2="166"/>
		<line class="st8" x1="157" y1="166" x2="164" y2="173"/>
		<line class="st8" x1="295" y1="212.5" x2="304" y2="212.5"/>
		<line class="st8" x1="299.5" y1="217" x2="299.5" y2="208"/>
		<line class="st8" x1="296" y1="216" x2="303" y2="209"/>
		<line class="st8" x1="296" y1="209" x2="303" y2="216"/>
		<line class="st8" x1="440" y1="284.5" x2="449" y2="284.5"/>
		<line class="st8" x1="444.5" y1="289" x2="444.5" y2="280"/>
		<line class="st8" x1="441" y1="288" x2="448" y2="281"/>
		<line class="st8" x1="441" y1="281" x2="448" y2="288"/>
		<line class="st8" x1="586" y1="349.5" x2="595" y2="349.5"/>
		<line class="st8" x1="590.5" y1="354" x2="590.5" y2="345"/>
		<line class="st8" x1="587" y1="353" x2="594" y2="346"/>
		<line class="st8" x1="587" y1="346" x2="594" y2="353"/>
		<path class="st9" d="M151.7,161.1l140.1,96.4l147.4,133.7l145.5,85"/>
		<line class="st9" x1="147" y1="161.5" x2="156" y2="161.5"/>
		<line class="st9" x1="151.5" y1="166" x2="151.5" y2="157"/>
		<line class="st9" x1="148" y1="165" x2="155" y2="158"/>
		<line class="st9" x1="148" y1="158" x2="155" y2="165"/>
		<line class="st9" x1="287" y1="257.5" x2="296" y2="257.5"/>
		<line class="st9" x1="291.5" y1="262" x2="291.5" y2="253"/>
		<line class="st9" x1="288" y1="261" x2="295" y2="254"/>
		<line class="st9" x1="288" y1="254" x2="295" y2="261"/>
		<line class="st9" x1="435" y1="391.5" x2="444" y2="391.5"/>
		<line class="st9" x1="439.5" y1="396" x2="439.5" y2="387"/>
		<line class="st9" x1="436" y1="395" x2="443" y2="388"/>
		<line class="st9" x1="436" y1="388" x2="443" y2="395"/>
		<line class="st9" x1="580" y1="476.5" x2="589" y2="476.5"/>
		<line class="st9" x1="584.5" y1="481" x2="584.5" y2="472"/>
		<line class="st9" x1="581" y1="480" x2="588" y2="473"/>
		<line class="st9" x1="581" y1="473" x2="588" y2="480"/>
		<path class="st10" d="M95,173.8l22.8,14.7l50.4,30.5l99.1,38.7l65.5,45l149.9,98.2l88.7,48"/>
		<line class="st10" x1="91" y1="173.5" x2="100" y2="173.5"/>
		<line class="st10" x1="95.5" y1="178" x2="95.5" y2="169"/>
		<line class="st10" x1="92" y1="177" x2="99" y2="170"/>
		<line class="st10" x1="92" y1="170" x2="99" y2="177"/>
		<line class="st10" x1="113" y1="188.5" x2="122" y2="188.5"/>
		<line class="st10" x1="117.5" y1="193" x2="117.5" y2="184"/>
		<line class="st10" x1="114" y1="192" x2="121" y2="185"/>
		<line class="st10" x1="114" y1="185" x2="121" y2="192"/>
		<line class="st10" x1="164" y1="219.5" x2="173" y2="219.5"/>
		<line class="st10" x1="168.5" y1="224" x2="168.5" y2="215"/>
		<line class="st10" x1="165" y1="223" x2="172" y2="216"/>
		<line class="st10" x1="165" y1="216" x2="172" y2="223"/>
		<line class="st10" x1="263" y1="257.5" x2="272" y2="257.5"/>
		<line class="st10" x1="267.5" y1="262" x2="267.5" y2="253"/>
		<line class="st10" x1="264" y1="261" x2="271" y2="254"/>
		<line class="st10" x1="264" y1="254" x2="271" y2="261"/>
		<line class="st10" x1="328" y1="302.5" x2="337" y2="302.5"/>
		<line class="st10" x1="332.5" y1="307" x2="332.5" y2="298"/>
		<line class="st10" x1="329" y1="306" x2="336" y2="299"/>
		<line class="st10" x1="329" y1="299" x2="336" y2="306"/>
		<line class="st10" x1="478" y1="400.5" x2="487" y2="400.5"/>
		<line class="st10" x1="482.5" y1="405" x2="482.5" y2="396"/>
		<line class="st10" x1="479" y1="404" x2="486" y2="397"/>
		<line class="st10" x1="479" y1="397" x2="486" y2="404"/>
		<line class="st10" x1="567" y1="448.5" x2="576" y2="448.5"/>
		<line class="st10" x1="571.5" y1="453" x2="571.5" y2="444"/>
		<line class="st10" x1="568" y1="452" x2="575" y2="445"/>
		<line class="st10" x1="568" y1="445" x2="575" y2="452"/>
	</g>
	<g>
		<path class="st1" d="M482,122V42h180v80H482z"/>
	</g>
	<g transform="translate(519,56.5)">
		<text transform="matrix(1 0 0 1 0 7.5)" class="st4 st11">QMC ray tracing</text>
	</g>
	<g>
		<line class="st8" x1="486" y1="56.5" x2="516" y2="56.5"/>
		<line class="st8" x1="497" y1="56.5" x2="506" y2="56.5"/>
		<line class="st8" x1="501.5" y1="61" x2="501.5" y2="52"/>
		<line class="st8" x1="498" y1="60" x2="505" y2="53"/>
		<line class="st8" x1="498" y1="53" x2="505" y2="60"/>
	</g>
	<g transform="translate(519,82)">
		<text transform="matrix(1 0 0 1 0 7.5)" class="st4 st11">MC ray tracing</text>
	</g>
	<g>
		<line class="st9" x1="486" y1="82" x2="516" y2="82"/>
		<line class="st9" x1="497" y1="81.5" x2="506" y2="81.5"/>
		<line class="st9" x1="501.5" y1="86" x2="501.5" y2="77"/>
		<line class="st9" x1="498" y1="85" x2="505" y2="78"/>
		<line class="st9" x1="498" y1="78" x2="505" y2="85"/>
	</g>
	<g transform="translate(519,107.5)">
		<text transform="matrix(1 0 0 1 0 7.5)" class="st4 st11">PS ray tracing</text>
	</g>
	<g>
		<line class="st10" x1="486" y1="107.5" x2="516" y2="107.5"/>
		<line class="st10" x1="497" y1="107.5" x2="506" y2="107.5"/>
		<line class="st10" x1="501.5" y1="112" x2="501.5" y2="103"/>
		<line class="st10" x1="498" y1="111" x2="505" y2="104"/>
		<line class="st10" x1="498" y1="104" x2="505" y2="111"/>
	</g>
	<g>
		<path class="st12" d="M482,122V42h180v80H482z"/>
	</g>
</g>
</svg>
