<?xml version="1.0" encoding="utf-8"?>
<!-- Generator: Adobe Illustrator 21.1.0, SVG Export Plug-In . SVG Version: 6.00 Build 0)  -->
<svg version="1.1" id="Layer_1" xmlns="http://www.w3.org/2000/svg" xmlns:xlink="http://www.w3.org/1999/xlink" x="0px" y="0px"
	 viewBox="0 0 961 699" style="enable-background:new 0 0 961 699;" xml:space="preserve">
<style type="text/css">
	.st0{clip-path:url(#SVGID_2_);fill:#FFFFFF;}
	.st1{fill:#FFFFFF;}
	.st2{fill:none;stroke:#262626;stroke-width:0.6667;stroke-linecap:square;stroke-linejoin:round;stroke-miterlimit:10;}
	.st3{fill:#262626;}
	.st4{font-family:'MyriadPro-Regular';}
	.st5{font-size:21px;}
	.st6{font-size:16px;}
	.st7{font-size:23px;}
	.st8{fill:none;stroke:#00FF00;stroke-width:2.6667;stroke-linejoin:round;stroke-miterlimit:10;}
	.st9{fill:none;stroke:#0000FF;stroke-width:2.6667;stroke-linejoin:round;stroke-miterlimit:10;}
	.st10{fill:none;stroke:#FF0000;stroke-width:2.6667;stroke-linejoin:round;stroke-miterlimit:10;}
	.st11{font-size:19px;}
	.st12{fill:none;stroke:#262626;stroke-width:0.6667;stroke-miterlimit:10;}
</style>
<g>
	<g>
		<g>
			<defs>
				<rect id="SVGID_1_" y="0" width="961" height="699"/>
			</defs>
			<clipPath id="SVGID_2_">
				<use xlink:href="#SVGID_1_"  style="overflow:visible;"/>
			</clipPath>
			<rect y="0" class="st0" width="961" height="699"/>
		</g>
	</g>
	<g>
		<rect y="0" class="st1" width="961" height="699"/>
		<path class="st1" d="M125,620h745V50H125V620z"/>
	</g>
	<g>
		<line class="st2" x1="125" y1="620" x2="870" y2="620"/>
		<line class="st2" x1="125" y1="50" x2="870" y2="50"/>
		<line class="st2" x1="125" y1="620" x2="125" y2="612.5"/>
		<line class="st2" x1="311.3" y1="620" x2="311.3" y2="612.5"/>
		<line class="st2" x1="497.5" y1="620" x2="497.5" y2="612.5"/>
		<line class="st2" x1="683.8" y1="620" x2="683.8" y2="612.5"/>
		<line class="st2" x1="870" y1="620" x2="870" y2="612.5"/>
		<line class="st2" x1="125" y1="50" x2="125" y2="57.4"/>
		<line class="st2" x1="311.3" y1="50" x2="311.3" y2="57.4"/>
		<line class="st2" x1="497.5" y1="50" x2="497.5" y2="57.4"/>
		<line class="st2" x1="683.8" y1="50" x2="683.8" y2="57.4"/>
		<line class="st2" x1="870" y1="50" x2="870" y2="57.4"/>
		<line class="st2" x1="181.1" y1="620" x2="181.1" y2="616.3"/>
		<line class="st2" x1="213.9" y1="620" x2="213.9" y2="616.3"/>
		<line class="st2" x1="237.1" y1="620" x2="237.1" y2="616.3"/>
		<line class="st2" x1="255.2" y1="620" x2="255.2" y2="616.3"/>
		<line class="st2" x1="269.9" y1="620" x2="269.9" y2="616.3"/>
		<line class="st2" x1="282.4" y1="620" x2="282.4" y2="616.3"/>
		<line class="st2" x1="293.2" y1="620" x2="293.2" y2="616.3"/>
		<line class="st2" x1="302.7" y1="620" x2="302.7" y2="616.3"/>
		<line class="st2" x1="367.3" y1="620" x2="367.3" y2="616.3"/>
		<line class="st2" x1="400.1" y1="620" x2="400.1" y2="616.3"/>
		<line class="st2" x1="423.4" y1="620" x2="423.4" y2="616.3"/>
		<line class="st2" x1="441.4" y1="620" x2="441.4" y2="616.3"/>
		<line class="st2" x1="456.2" y1="620" x2="456.2" y2="616.3"/>
		<line class="st2" x1="468.6" y1="620" x2="468.6" y2="616.3"/>
		<line class="st2" x1="479.5" y1="620" x2="479.5" y2="616.3"/>
		<line class="st2" x1="489" y1="620" x2="489" y2="616.3"/>
		<line class="st2" x1="553.6" y1="620" x2="553.6" y2="616.3"/>
		<line class="st2" x1="586.4" y1="620" x2="586.4" y2="616.3"/>
		<line class="st2" x1="609.6" y1="620" x2="609.6" y2="616.3"/>
		<line class="st2" x1="627.7" y1="620" x2="627.7" y2="616.3"/>
		<line class="st2" x1="642.4" y1="620" x2="642.4" y2="616.3"/>
		<line class="st2" x1="654.9" y1="620" x2="654.9" y2="616.3"/>
		<line class="st2" x1="665.7" y1="620" x2="665.7" y2="616.3"/>
		<line class="st2" x1="675.2" y1="620" x2="675.2" y2="616.3"/>
		<line class="st2" x1="739.8" y1="620" x2="739.8" y2="616.3"/>
		<line class="st2" x1="772.6" y1="620" x2="772.6" y2="616.3"/>
		<line class="st2" x1="795.9" y1="620" x2="795.9" y2="616.3"/>
		<line class="st2" x1="813.9" y1="620" x2="813.9" y2="616.3"/>
		<line class="st2" x1="828.7" y1="620" x2="828.7" y2="616.3"/>
		<line class="st2" x1="841.1" y1="620" x2="841.1" y2="616.3"/>
		<line class="st2" x1="852" y1="620" x2="852" y2="616.3"/>
		<line class="st2" x1="861.5" y1="620" x2="861.5" y2="616.3"/>
		<line class="st2" x1="181.1" y1="50" x2="181.1" y2="53.7"/>
		<line class="st2" x1="213.9" y1="50" x2="213.9" y2="53.7"/>
		<line class="st2" x1="237.1" y1="50" x2="237.1" y2="53.7"/>
		<line class="st2" x1="255.2" y1="50" x2="255.2" y2="53.7"/>
		<line class="st2" x1="269.9" y1="50" x2="269.9" y2="53.7"/>
		<line class="st2" x1="282.4" y1="50" x2="282.4" y2="53.7"/>
		<line class="st2" x1="293.2" y1="50" x2="293.2" y2="53.7"/>
		<line class="st2" x1="302.7" y1="50" x2="302.7" y2="53.7"/>
		<line class="st2" x1="367.3" y1="50" x2="367.3" y2="53.7"/>
		<line class="st2" x1="400.1" y1="50" x2="400.1" y2="53.7"/>
		<line class="st2" x1="423.4" y1="50" x2="423.4" y2="53.7"/>
		<line class="st2" x1="441.4" y1="50" x2="441.4" y2="53.7"/>
		<line class="st2" x1="456.2" y1="50" x2="456.2" y2="53.7"/>
		<line class="st2" x1="468.6" y1="50" x2="468.6" y2="53.7"/>
		<line class="st2" x1="479.5" y1="50" x2="479.5" y2="53.7"/>
		<line class="st2" x1="489" y1="50" x2="489" y2="53.7"/>
		<line class="st2" x1="553.6" y1="50" x2="553.6" y2="53.7"/>
		<line class="st2" x1="586.4" y1="50" x2="586.4" y2="53.7"/>
		<line class="st2" x1="609.6" y1="50" x2="609.6" y2="53.7"/>
		<line class="st2" x1="627.7" y1="50" x2="627.7" y2="53.7"/>
		<line class="st2" x1="642.4" y1="50" x2="642.4" y2="53.7"/>
		<line class="st2" x1="654.9" y1="50" x2="654.9" y2="53.7"/>
		<line class="st2" x1="665.7" y1="50" x2="665.7" y2="53.7"/>
		<line class="st2" x1="675.2" y1="50" x2="675.2" y2="53.7"/>
		<line class="st2" x1="739.8" y1="50" x2="739.8" y2="53.7"/>
		<line class="st2" x1="772.6" y1="50" x2="772.6" y2="53.7"/>
		<line class="st2" x1="795.9" y1="50" x2="795.9" y2="53.7"/>
		<line class="st2" x1="813.9" y1="50" x2="813.9" y2="53.7"/>
		<line class="st2" x1="828.7" y1="50" x2="828.7" y2="53.7"/>
		<line class="st2" x1="841.1" y1="50" x2="841.1" y2="53.7"/>
		<line class="st2" x1="852" y1="50" x2="852" y2="53.7"/>
		<line class="st2" x1="861.5" y1="50" x2="861.5" y2="53.7"/>
	</g>
	<g transform="translate(108,654)">
		<text transform="matrix(1 0 0 1 0 -1.464844e-05)" class="st3 st4 st5">10</text>
	</g>
	<g transform="translate(132,644)">
		<text transform="matrix(1 0 0 1 0 -1.464844e-05)" class="st3 st4 st6">2</text>
	</g>
	<g transform="translate(294,654)">
		<text transform="matrix(1 0 0 1 0 -1.464844e-05)" class="st3 st4 st5">10</text>
	</g>
	<g transform="translate(318,644)">
		<text transform="matrix(1 0 0 1 0 -1.464844e-05)" class="st3 st4 st6">3</text>
	</g>
	<g transform="translate(481,654)">
		<text transform="matrix(1 0 0 1 0 -1.464844e-05)" class="st3 st4 st5">10</text>
	</g>
	<g transform="translate(505,644)">
		<text transform="matrix(1 0 0 1 0 -1.464844e-05)" class="st3 st4 st6">4</text>
	</g>
	<g transform="translate(667,654)">
		<text transform="matrix(1 0 0 1 0 -1.464844e-05)" class="st3 st4 st5">10</text>
	</g>
	<g transform="translate(691,644)">
		<text transform="matrix(1 0 0 1 0 -1.464844e-05)" class="st3 st4 st6">5</text>
	</g>
	<g transform="translate(853,654)">
		<text transform="matrix(1 0 0 1 0 -1.464844e-05)" class="st3 st4 st5">10</text>
	</g>
	<g transform="translate(877,644)">
		<text transform="matrix(1 0 0 1 0 -1.464844e-05)" class="st3 st4 st6">6</text>
	</g>
	<g transform="translate(497.5004,660.2667)">
		<text transform="matrix(1 0 0 1 -12.5 24)" class="st3 st4 st7">Nr</text>
	</g>
	<g>
		<line class="st2" x1="125" y1="620" x2="125" y2="50"/>
		<line class="st2" x1="870" y1="620" x2="870" y2="50"/>
		<line class="st2" x1="125" y1="620" x2="132.4" y2="620"/>
		<line class="st2" x1="125" y1="477.5" x2="132.4" y2="477.5"/>
		<line class="st2" x1="125" y1="335" x2="132.4" y2="335"/>
		<line class="st2" x1="125" y1="192.5" x2="132.4" y2="192.5"/>
		<line class="st2" x1="125" y1="50" x2="132.4" y2="50"/>
		<line class="st2" x1="870" y1="620" x2="862.5" y2="620"/>
		<line class="st2" x1="870" y1="477.5" x2="862.5" y2="477.5"/>
		<line class="st2" x1="870" y1="335" x2="862.5" y2="335"/>
		<line class="st2" x1="870" y1="192.5" x2="862.5" y2="192.5"/>
		<line class="st2" x1="870" y1="50" x2="862.5" y2="50"/>
		<line class="st2" x1="125" y1="577.1" x2="128.7" y2="577.1"/>
		<line class="st2" x1="125" y1="552" x2="128.7" y2="552"/>
		<line class="st2" x1="125" y1="534.2" x2="128.7" y2="534.2"/>
		<line class="st2" x1="125" y1="520.4" x2="128.7" y2="520.4"/>
		<line class="st2" x1="125" y1="509.1" x2="128.7" y2="509.1"/>
		<line class="st2" x1="125" y1="499.6" x2="128.7" y2="499.6"/>
		<line class="st2" x1="125" y1="491.3" x2="128.7" y2="491.3"/>
		<line class="st2" x1="125" y1="484" x2="128.7" y2="484"/>
		<line class="st2" x1="125" y1="434.6" x2="128.7" y2="434.6"/>
		<line class="st2" x1="125" y1="409.5" x2="128.7" y2="409.5"/>
		<line class="st2" x1="125" y1="391.7" x2="128.7" y2="391.7"/>
		<line class="st2" x1="125" y1="377.9" x2="128.7" y2="377.9"/>
		<line class="st2" x1="125" y1="366.6" x2="128.7" y2="366.6"/>
		<line class="st2" x1="125" y1="357.1" x2="128.7" y2="357.1"/>
		<line class="st2" x1="125" y1="348.8" x2="128.7" y2="348.8"/>
		<line class="st2" x1="125" y1="341.5" x2="128.7" y2="341.5"/>
		<line class="st2" x1="125" y1="292.1" x2="128.7" y2="292.1"/>
		<line class="st2" x1="125" y1="267" x2="128.7" y2="267"/>
		<line class="st2" x1="125" y1="249.2" x2="128.7" y2="249.2"/>
		<line class="st2" x1="125" y1="235.4" x2="128.7" y2="235.4"/>
		<line class="st2" x1="125" y1="224.1" x2="128.7" y2="224.1"/>
		<line class="st2" x1="125" y1="214.6" x2="128.7" y2="214.6"/>
		<line class="st2" x1="125" y1="206.3" x2="128.7" y2="206.3"/>
		<line class="st2" x1="125" y1="199" x2="128.7" y2="199"/>
		<line class="st2" x1="125" y1="149.6" x2="128.7" y2="149.6"/>
		<line class="st2" x1="125" y1="124.5" x2="128.7" y2="124.5"/>
		<line class="st2" x1="125" y1="106.7" x2="128.7" y2="106.7"/>
		<line class="st2" x1="125" y1="92.9" x2="128.7" y2="92.9"/>
		<line class="st2" x1="125" y1="81.6" x2="128.7" y2="81.6"/>
		<line class="st2" x1="125" y1="72.1" x2="128.7" y2="72.1"/>
		<line class="st2" x1="125" y1="63.8" x2="128.7" y2="63.8"/>
		<line class="st2" x1="125" y1="56.5" x2="128.7" y2="56.5"/>
		<line class="st2" x1="870" y1="577.1" x2="866.3" y2="577.1"/>
		<line class="st2" x1="870" y1="552" x2="866.3" y2="552"/>
		<line class="st2" x1="870" y1="534.2" x2="866.3" y2="534.2"/>
		<line class="st2" x1="870" y1="520.4" x2="866.3" y2="520.4"/>
		<line class="st2" x1="870" y1="509.1" x2="866.3" y2="509.1"/>
		<line class="st2" x1="870" y1="499.6" x2="866.3" y2="499.6"/>
		<line class="st2" x1="870" y1="491.3" x2="866.3" y2="491.3"/>
		<line class="st2" x1="870" y1="484" x2="866.3" y2="484"/>
		<line class="st2" x1="870" y1="434.6" x2="866.3" y2="434.6"/>
		<line class="st2" x1="870" y1="409.5" x2="866.3" y2="409.5"/>
		<line class="st2" x1="870" y1="391.7" x2="866.3" y2="391.7"/>
		<line class="st2" x1="870" y1="377.9" x2="866.3" y2="377.9"/>
		<line class="st2" x1="870" y1="366.6" x2="866.3" y2="366.6"/>
		<line class="st2" x1="870" y1="357.1" x2="866.3" y2="357.1"/>
		<line class="st2" x1="870" y1="348.8" x2="866.3" y2="348.8"/>
		<line class="st2" x1="870" y1="341.5" x2="866.3" y2="341.5"/>
		<line class="st2" x1="870" y1="292.1" x2="866.3" y2="292.1"/>
		<line class="st2" x1="870" y1="267" x2="866.3" y2="267"/>
		<line class="st2" x1="870" y1="249.2" x2="866.3" y2="249.2"/>
		<line class="st2" x1="870" y1="235.4" x2="866.3" y2="235.4"/>
		<line class="st2" x1="870" y1="224.1" x2="866.3" y2="224.1"/>
		<line class="st2" x1="870" y1="214.6" x2="866.3" y2="214.6"/>
		<line class="st2" x1="870" y1="206.3" x2="866.3" y2="206.3"/>
		<line class="st2" x1="870" y1="199" x2="866.3" y2="199"/>
		<line class="st2" x1="870" y1="149.6" x2="866.3" y2="149.6"/>
		<line class="st2" x1="870" y1="124.5" x2="866.3" y2="124.5"/>
		<line class="st2" x1="870" y1="106.7" x2="866.3" y2="106.7"/>
		<line class="st2" x1="870" y1="92.9" x2="866.3" y2="92.9"/>
		<line class="st2" x1="870" y1="81.6" x2="866.3" y2="81.6"/>
		<line class="st2" x1="870" y1="72.1" x2="866.3" y2="72.1"/>
		<line class="st2" x1="870" y1="63.8" x2="866.3" y2="63.8"/>
		<line class="st2" x1="870" y1="56.5" x2="866.3" y2="56.5"/>
	</g>
	<g transform="translate(79,631)">
		<text transform="matrix(1 0 0 1 0 -1.464844e-05)" class="st3 st4 st5">10</text>
	</g>
	<g transform="translate(103,621)">
		<text transform="matrix(1 0 0 1 0 -1.464844e-05)" class="st3 st4 st6">-6</text>
	</g>
	<g transform="translate(79,489)">
		<text transform="matrix(1 0 0 1 0 -1.464844e-05)" class="st3 st4 st5">10</text>
	</g>
	<g transform="translate(103,479)">
		<text transform="matrix(1 0 0 1 0 -1.464844e-05)" class="st3 st4 st6">-5</text>
	</g>
	<g transform="translate(79,346)">
		<text transform="matrix(1 0 0 1 0 -1.464844e-05)" class="st3 st4 st5">10</text>
	</g>
	<g transform="translate(103,336)">
		<text transform="matrix(1 0 0 1 0 -1.464844e-05)" class="st3 st4 st6">-4</text>
	</g>
	<g transform="translate(79,204)">
		<text transform="matrix(1 0 0 1 0 -1.464844e-05)" class="st3 st4 st5">10</text>
	</g>
	<g transform="translate(103,194)">
		<text transform="matrix(1 0 0 1 0 -1.464844e-05)" class="st3 st4 st6">-3</text>
	</g>
	<g transform="translate(79,61)">
		<text transform="matrix(1 0 0 1 0 -1.464844e-05)" class="st3 st4 st5">10</text>
	</g>
	<g transform="translate(103,51)">
		<text transform="matrix(1 0 0 1 0 -1.464844e-05)" class="st3 st4 st6">-2</text>
	</g>
	<g transform="translate(75.0667,334.9997) rotate(-90)">
		<text transform="matrix(1 0 0 1 -25.9997 -6)" class="st3 st4 st7">Error</text>
	</g>
	<g>
		<path class="st8" d="M311.3,181.9l186.3,44.9l186.3,74.4L870,368.8"/>
		<line class="st8" x1="307" y1="181.5" x2="316" y2="181.5"/>
		<line class="st8" x1="311.5" y1="186" x2="311.5" y2="177"/>
		<line class="st8" x1="308" y1="185" x2="315" y2="178"/>
		<line class="st8" x1="308" y1="178" x2="315" y2="185"/>
		<line class="st8" x1="493" y1="226.5" x2="502" y2="226.5"/>
		<line class="st8" x1="497.5" y1="231" x2="497.5" y2="222"/>
		<line class="st8" x1="494" y1="230" x2="501" y2="223"/>
		<line class="st8" x1="494" y1="223" x2="501" y2="230"/>
		<line class="st8" x1="679" y1="301.5" x2="688" y2="301.5"/>
		<line class="st8" x1="683.5" y1="306" x2="683.5" y2="297"/>
		<line class="st8" x1="680" y1="305" x2="687" y2="298"/>
		<line class="st8" x1="680" y1="298" x2="687" y2="305"/>
		<line class="st8" x1="866" y1="368.5" x2="875" y2="368.5"/>
		<line class="st8" x1="870.5" y1="373" x2="870.5" y2="364"/>
		<line class="st8" x1="867" y1="372" x2="874" y2="365"/>
		<line class="st8" x1="867" y1="365" x2="874" y2="372"/>
		<path class="st9" d="M311.3,173.5l186.3,99.9l186.3,138.5L870,500"/>
		<line class="st9" x1="307" y1="173.5" x2="316" y2="173.5"/>
		<line class="st9" x1="311.5" y1="178" x2="311.5" y2="169"/>
		<line class="st9" x1="308" y1="177" x2="315" y2="170"/>
		<line class="st9" x1="308" y1="170" x2="315" y2="177"/>
		<line class="st9" x1="493" y1="273.5" x2="502" y2="273.5"/>
		<line class="st9" x1="497.5" y1="278" x2="497.5" y2="269"/>
		<line class="st9" x1="494" y1="277" x2="501" y2="270"/>
		<line class="st9" x1="494" y1="270" x2="501" y2="277"/>
		<line class="st9" x1="679" y1="411.5" x2="688" y2="411.5"/>
		<line class="st9" x1="683.5" y1="416" x2="683.5" y2="407"/>
		<line class="st9" x1="680" y1="415" x2="687" y2="408"/>
		<line class="st9" x1="680" y1="408" x2="687" y2="415"/>
		<line class="st9" x1="866" y1="499.5" x2="875" y2="499.5"/>
		<line class="st9" x1="870.5" y1="504" x2="870.5" y2="495"/>
		<line class="st9" x1="867" y1="503" x2="874" y2="496"/>
		<line class="st9" x1="867" y1="496" x2="874" y2="503"/>
		<path class="st10" d="M196.2,186.6l148.4,46.8l131.8,40.1l65.9,46.7L667.2,422l62.4,49.7"/>
		<line class="st10" x1="192" y1="186.5" x2="201" y2="186.5"/>
		<line class="st10" x1="196.5" y1="191" x2="196.5" y2="182"/>
		<line class="st10" x1="193" y1="190" x2="200" y2="183"/>
		<line class="st10" x1="193" y1="183" x2="200" y2="190"/>
		<line class="st10" x1="340" y1="233.5" x2="349" y2="233.5"/>
		<line class="st10" x1="344.5" y1="238" x2="344.5" y2="229"/>
		<line class="st10" x1="341" y1="237" x2="348" y2="230"/>
		<line class="st10" x1="341" y1="230" x2="348" y2="237"/>
		<line class="st10" x1="472" y1="273.5" x2="481" y2="273.5"/>
		<line class="st10" x1="476.5" y1="278" x2="476.5" y2="269"/>
		<line class="st10" x1="473" y1="277" x2="480" y2="270"/>
		<line class="st10" x1="473" y1="270" x2="480" y2="277"/>
		<line class="st10" x1="538" y1="320.5" x2="547" y2="320.5"/>
		<line class="st10" x1="542.5" y1="325" x2="542.5" y2="316"/>
		<line class="st10" x1="539" y1="324" x2="546" y2="317"/>
		<line class="st10" x1="539" y1="317" x2="546" y2="324"/>
		<line class="st10" x1="663" y1="422.5" x2="672" y2="422.5"/>
		<line class="st10" x1="667.5" y1="427" x2="667.5" y2="418"/>
		<line class="st10" x1="664" y1="426" x2="671" y2="419"/>
		<line class="st10" x1="664" y1="419" x2="671" y2="426"/>
		<line class="st10" x1="725" y1="471.5" x2="734" y2="471.5"/>
		<line class="st10" x1="729.5" y1="476" x2="729.5" y2="467"/>
		<line class="st10" x1="726" y1="475" x2="733" y2="468"/>
		<line class="st10" x1="726" y1="468" x2="733" y2="475"/>
	</g>
	<g>
		<path class="st1" d="M677,143V63h180v80H677z"/>
	</g>
	<g transform="translate(714,77.5)">
		<text transform="matrix(1 0 0 1 0 7.5)" class="st4 st11">MC ray tracing</text>
	</g>
	<g>
		<line class="st8" x1="681" y1="77.5" x2="711" y2="77.5"/>
		<line class="st8" x1="692" y1="77.5" x2="701" y2="77.5"/>
		<line class="st8" x1="696.5" y1="82" x2="696.5" y2="73"/>
		<line class="st8" x1="693" y1="81" x2="700" y2="74"/>
		<line class="st8" x1="693" y1="74" x2="700" y2="81"/>
	</g>
	<g transform="translate(714,103)">
		<text transform="matrix(1 0 0 1 0 7.5)" class="st4 st11">QMC ray tracing</text>
	</g>
	<g>
		<line class="st9" x1="681" y1="103" x2="711" y2="103"/>
		<line class="st9" x1="692" y1="102.5" x2="701" y2="102.5"/>
		<line class="st9" x1="696.5" y1="107" x2="696.5" y2="98"/>
		<line class="st9" x1="693" y1="106" x2="700" y2="99"/>
		<line class="st9" x1="693" y1="99" x2="700" y2="106"/>
	</g>
	<g transform="translate(714,128.5)">
		<text transform="matrix(1 0 0 1 0 7.5)" class="st4 st11">PS ray tracing</text>
	</g>
	<g>
		<line class="st10" x1="681" y1="128.5" x2="711" y2="128.5"/>
		<line class="st10" x1="692" y1="128.5" x2="701" y2="128.5"/>
		<line class="st10" x1="696.5" y1="133" x2="696.5" y2="124"/>
		<line class="st10" x1="693" y1="132" x2="700" y2="125"/>
		<line class="st10" x1="693" y1="125" x2="700" y2="132"/>
	</g>
	<g>
		<path class="st12" d="M677,143V63h180v80H677z"/>
	</g>
</g>
</svg>
