<?xml version="1.0" encoding="utf-8"?>
<!-- Generator: Adobe Illustrator 21.1.0, SVG Export Plug-In . SVG Version: 6.00 Build 0)  -->
<svg version="1.1" id="Layer_1" xmlns="http://www.w3.org/2000/svg" xmlns:xlink="http://www.w3.org/1999/xlink" x="0px" y="0px"
	 viewBox="0 0 731 555" style="enable-background:new 0 0 731 555;" xml:space="preserve">
<style type="text/css">
	.st0{clip-path:url(#SVGID_2_);fill:#FFFFFF;}
	.st1{fill:#FFFFFF;}
	.st2{fill:none;stroke:#262626;stroke-width:0.6667;stroke-linecap:square;stroke-linejoin:round;stroke-miterlimit:10;}
	.st3{fill:#262626;}
	.st4{font-family:'MyriadPro-Regular';}
	.st5{font-size:21px;}
	.st6{font-size:16px;}
	.st7{font-size:23px;}
	.st8{fill:none;stroke:#00FF00;stroke-width:2.6667;stroke-linejoin:round;stroke-miterlimit:10;}
	.st9{fill:none;stroke:#0000FF;stroke-width:2.6667;stroke-linejoin:round;stroke-miterlimit:10;}
	.st10{fill:none;stroke:#FF0000;stroke-width:2.6667;stroke-linejoin:round;stroke-miterlimit:10;}
	.st11{fill:none;stroke:#000000;stroke-width:1.3333;stroke-linejoin:bevel;stroke-miterlimit:1;stroke-dasharray:10,6;}
	.st12{fill:none;stroke:#0000FF;stroke-width:1.3333;stroke-linejoin:bevel;stroke-miterlimit:1;stroke-dasharray:10,6;}
	.st13{font-size:19px;}
	.st14{fill:none;stroke:#262626;stroke-width:0.6667;stroke-miterlimit:10;}
</style>
<g>
	<g>
		<g>
			<defs>
				<rect id="SVGID_1_" y="0" width="731" height="555"/>
			</defs>
			<clipPath id="SVGID_2_">
				<use xlink:href="#SVGID_1_"  style="overflow:visible;"/>
			</clipPath>
			<rect y="0" class="st0" width="731" height="555"/>
		</g>
	</g>
	<g>
		<rect y="0" class="st1" width="731" height="555"/>
		<path class="st1" d="M95,485h567V42H95V485z"/>
	</g>
	<g>
		<line class="st2" x1="95" y1="485" x2="662" y2="485"/>
		<line class="st2" x1="95" y1="42" x2="662" y2="42"/>
		<line class="st2" x1="95" y1="485" x2="95" y2="479.3"/>
		<line class="st2" x1="208.4" y1="485" x2="208.4" y2="479.3"/>
		<line class="st2" x1="321.8" y1="485" x2="321.8" y2="479.3"/>
		<line class="st2" x1="435.2" y1="485" x2="435.2" y2="479.3"/>
		<line class="st2" x1="548.6" y1="485" x2="548.6" y2="479.3"/>
		<line class="st2" x1="662" y1="485" x2="662" y2="479.3"/>
		<line class="st2" x1="95" y1="42" x2="95" y2="47.7"/>
		<line class="st2" x1="208.4" y1="42" x2="208.4" y2="47.7"/>
		<line class="st2" x1="321.8" y1="42" x2="321.8" y2="47.7"/>
		<line class="st2" x1="435.2" y1="42" x2="435.2" y2="47.7"/>
		<line class="st2" x1="548.6" y1="42" x2="548.6" y2="47.7"/>
		<line class="st2" x1="662" y1="42" x2="662" y2="47.7"/>
		<line class="st2" x1="129.1" y1="485" x2="129.1" y2="482.2"/>
		<line class="st2" x1="149.1" y1="485" x2="149.1" y2="482.2"/>
		<line class="st2" x1="163.3" y1="485" x2="163.3" y2="482.2"/>
		<line class="st2" x1="174.3" y1="485" x2="174.3" y2="482.2"/>
		<line class="st2" x1="183.2" y1="485" x2="183.2" y2="482.2"/>
		<line class="st2" x1="190.8" y1="485" x2="190.8" y2="482.2"/>
		<line class="st2" x1="197.4" y1="485" x2="197.4" y2="482.2"/>
		<line class="st2" x1="203.2" y1="485" x2="203.2" y2="482.2"/>
		<line class="st2" x1="242.5" y1="485" x2="242.5" y2="482.2"/>
		<line class="st2" x1="262.5" y1="485" x2="262.5" y2="482.2"/>
		<line class="st2" x1="276.7" y1="485" x2="276.7" y2="482.2"/>
		<line class="st2" x1="287.7" y1="485" x2="287.7" y2="482.2"/>
		<line class="st2" x1="296.6" y1="485" x2="296.6" y2="482.2"/>
		<line class="st2" x1="304.2" y1="485" x2="304.2" y2="482.2"/>
		<line class="st2" x1="310.8" y1="485" x2="310.8" y2="482.2"/>
		<line class="st2" x1="316.6" y1="485" x2="316.6" y2="482.2"/>
		<line class="st2" x1="355.9" y1="485" x2="355.9" y2="482.2"/>
		<line class="st2" x1="375.9" y1="485" x2="375.9" y2="482.2"/>
		<line class="st2" x1="390.1" y1="485" x2="390.1" y2="482.2"/>
		<line class="st2" x1="401.1" y1="485" x2="401.1" y2="482.2"/>
		<line class="st2" x1="410" y1="485" x2="410" y2="482.2"/>
		<line class="st2" x1="417.6" y1="485" x2="417.6" y2="482.2"/>
		<line class="st2" x1="424.2" y1="485" x2="424.2" y2="482.2"/>
		<line class="st2" x1="430" y1="485" x2="430" y2="482.2"/>
		<line class="st2" x1="469.3" y1="485" x2="469.3" y2="482.2"/>
		<line class="st2" x1="489.3" y1="485" x2="489.3" y2="482.2"/>
		<line class="st2" x1="503.5" y1="485" x2="503.5" y2="482.2"/>
		<line class="st2" x1="514.5" y1="485" x2="514.5" y2="482.2"/>
		<line class="st2" x1="523.4" y1="485" x2="523.4" y2="482.2"/>
		<line class="st2" x1="531" y1="485" x2="531" y2="482.2"/>
		<line class="st2" x1="537.6" y1="485" x2="537.6" y2="482.2"/>
		<line class="st2" x1="543.4" y1="485" x2="543.4" y2="482.2"/>
		<line class="st2" x1="582.7" y1="485" x2="582.7" y2="482.2"/>
		<line class="st2" x1="602.7" y1="485" x2="602.7" y2="482.2"/>
		<line class="st2" x1="616.9" y1="485" x2="616.9" y2="482.2"/>
		<line class="st2" x1="627.9" y1="485" x2="627.9" y2="482.2"/>
		<line class="st2" x1="636.8" y1="485" x2="636.8" y2="482.2"/>
		<line class="st2" x1="644.4" y1="485" x2="644.4" y2="482.2"/>
		<line class="st2" x1="651" y1="485" x2="651" y2="482.2"/>
		<line class="st2" x1="656.8" y1="485" x2="656.8" y2="482.2"/>
		<line class="st2" x1="129.1" y1="42" x2="129.1" y2="44.8"/>
		<line class="st2" x1="149.1" y1="42" x2="149.1" y2="44.8"/>
		<line class="st2" x1="163.3" y1="42" x2="163.3" y2="44.8"/>
		<line class="st2" x1="174.3" y1="42" x2="174.3" y2="44.8"/>
		<line class="st2" x1="183.2" y1="42" x2="183.2" y2="44.8"/>
		<line class="st2" x1="190.8" y1="42" x2="190.8" y2="44.8"/>
		<line class="st2" x1="197.4" y1="42" x2="197.4" y2="44.8"/>
		<line class="st2" x1="203.2" y1="42" x2="203.2" y2="44.8"/>
		<line class="st2" x1="242.5" y1="42" x2="242.5" y2="44.8"/>
		<line class="st2" x1="262.5" y1="42" x2="262.5" y2="44.8"/>
		<line class="st2" x1="276.7" y1="42" x2="276.7" y2="44.8"/>
		<line class="st2" x1="287.7" y1="42" x2="287.7" y2="44.8"/>
		<line class="st2" x1="296.6" y1="42" x2="296.6" y2="44.8"/>
		<line class="st2" x1="304.2" y1="42" x2="304.2" y2="44.8"/>
		<line class="st2" x1="310.8" y1="42" x2="310.8" y2="44.8"/>
		<line class="st2" x1="316.6" y1="42" x2="316.6" y2="44.8"/>
		<line class="st2" x1="355.9" y1="42" x2="355.9" y2="44.8"/>
		<line class="st2" x1="375.9" y1="42" x2="375.9" y2="44.8"/>
		<line class="st2" x1="390.1" y1="42" x2="390.1" y2="44.8"/>
		<line class="st2" x1="401.1" y1="42" x2="401.1" y2="44.8"/>
		<line class="st2" x1="410" y1="42" x2="410" y2="44.8"/>
		<line class="st2" x1="417.6" y1="42" x2="417.6" y2="44.8"/>
		<line class="st2" x1="424.2" y1="42" x2="424.2" y2="44.8"/>
		<line class="st2" x1="430" y1="42" x2="430" y2="44.8"/>
		<line class="st2" x1="469.3" y1="42" x2="469.3" y2="44.8"/>
		<line class="st2" x1="489.3" y1="42" x2="489.3" y2="44.8"/>
		<line class="st2" x1="503.5" y1="42" x2="503.5" y2="44.8"/>
		<line class="st2" x1="514.5" y1="42" x2="514.5" y2="44.8"/>
		<line class="st2" x1="523.4" y1="42" x2="523.4" y2="44.8"/>
		<line class="st2" x1="531" y1="42" x2="531" y2="44.8"/>
		<line class="st2" x1="537.6" y1="42" x2="537.6" y2="44.8"/>
		<line class="st2" x1="543.4" y1="42" x2="543.4" y2="44.8"/>
		<line class="st2" x1="582.7" y1="42" x2="582.7" y2="44.8"/>
		<line class="st2" x1="602.7" y1="42" x2="602.7" y2="44.8"/>
		<line class="st2" x1="616.9" y1="42" x2="616.9" y2="44.8"/>
		<line class="st2" x1="627.9" y1="42" x2="627.9" y2="44.8"/>
		<line class="st2" x1="636.8" y1="42" x2="636.8" y2="44.8"/>
		<line class="st2" x1="644.4" y1="42" x2="644.4" y2="44.8"/>
		<line class="st2" x1="651" y1="42" x2="651" y2="44.8"/>
		<line class="st2" x1="656.8" y1="42" x2="656.8" y2="44.8"/>
	</g>
	<g transform="translate(78,519)">
		<text transform="matrix(1 0 0 1 0 -1.464844e-05)" class="st3 st4 st5">10</text>
	</g>
	<g transform="translate(102,509)">
		<text transform="matrix(1 0 0 1 0 -1.464844e-05)" class="st3 st4 st6">2</text>
	</g>
	<g transform="translate(191,519)">
		<text transform="matrix(1 0 0 1 0 -1.464844e-05)" class="st3 st4 st5">10</text>
	</g>
	<g transform="translate(215,509)">
		<text transform="matrix(1 0 0 1 0 -1.464844e-05)" class="st3 st4 st6">3</text>
	</g>
	<g transform="translate(305,519)">
		<text transform="matrix(1 0 0 1 0 -1.464844e-05)" class="st3 st4 st5">10</text>
	</g>
	<g transform="translate(329,509)">
		<text transform="matrix(1 0 0 1 0 -1.464844e-05)" class="st3 st4 st6">4</text>
	</g>
	<g transform="translate(418,519)">
		<text transform="matrix(1 0 0 1 0 -1.464844e-05)" class="st3 st4 st5">10</text>
	</g>
	<g transform="translate(442,509)">
		<text transform="matrix(1 0 0 1 0 -1.464844e-05)" class="st3 st4 st6">5</text>
	</g>
	<g transform="translate(532,519)">
		<text transform="matrix(1 0 0 1 0 -1.464844e-05)" class="st3 st4 st5">10</text>
	</g>
	<g transform="translate(556,509)">
		<text transform="matrix(1 0 0 1 0 -1.464844e-05)" class="st3 st4 st6">6</text>
	</g>
	<g transform="translate(645,519)">
		<text transform="matrix(1 0 0 1 0 -1.464844e-05)" class="st3 st4 st5">10</text>
	</g>
	<g transform="translate(669,509)">
		<text transform="matrix(1 0 0 1 0 -1.464844e-05)" class="st3 st4 st6">7</text>
	</g>
	<g transform="translate(378.5003,525.2667)">
		<text transform="matrix(1 0 0 1 -12.5 24)" class="st3 st4 st7">Nr</text>
	</g>
	<g>
		<line class="st2" x1="95" y1="485" x2="95" y2="42"/>
		<line class="st2" x1="662" y1="485" x2="662" y2="42"/>
		<line class="st2" x1="95" y1="474.5" x2="100.7" y2="474.5"/>
		<line class="st2" x1="95" y1="366.4" x2="100.7" y2="366.4"/>
		<line class="st2" x1="95" y1="258.3" x2="100.7" y2="258.3"/>
		<line class="st2" x1="95" y1="150.1" x2="100.7" y2="150.1"/>
		<line class="st2" x1="95" y1="42" x2="100.7" y2="42"/>
		<line class="st2" x1="662" y1="474.5" x2="656.3" y2="474.5"/>
		<line class="st2" x1="662" y1="366.4" x2="656.3" y2="366.4"/>
		<line class="st2" x1="662" y1="258.3" x2="656.3" y2="258.3"/>
		<line class="st2" x1="662" y1="150.1" x2="656.3" y2="150.1"/>
		<line class="st2" x1="662" y1="42" x2="656.3" y2="42"/>
		<line class="st2" x1="95" y1="479.5" x2="97.8" y2="479.5"/>
		<line class="st2" x1="95" y1="442" x2="97.8" y2="442"/>
		<line class="st2" x1="95" y1="422.9" x2="97.8" y2="422.9"/>
		<line class="st2" x1="95" y1="409.4" x2="97.8" y2="409.4"/>
		<line class="st2" x1="95" y1="398.9" x2="97.8" y2="398.9"/>
		<line class="st2" x1="95" y1="390.4" x2="97.8" y2="390.4"/>
		<line class="st2" x1="95" y1="383.1" x2="97.8" y2="383.1"/>
		<line class="st2" x1="95" y1="376.9" x2="97.8" y2="376.9"/>
		<line class="st2" x1="95" y1="371.3" x2="97.8" y2="371.3"/>
		<line class="st2" x1="95" y1="333.8" x2="97.8" y2="333.8"/>
		<line class="st2" x1="95" y1="314.8" x2="97.8" y2="314.8"/>
		<line class="st2" x1="95" y1="301.3" x2="97.8" y2="301.3"/>
		<line class="st2" x1="95" y1="290.8" x2="97.8" y2="290.8"/>
		<line class="st2" x1="95" y1="282.2" x2="97.8" y2="282.2"/>
		<line class="st2" x1="95" y1="275" x2="97.8" y2="275"/>
		<line class="st2" x1="95" y1="268.7" x2="97.8" y2="268.7"/>
		<line class="st2" x1="95" y1="263.2" x2="97.8" y2="263.2"/>
		<line class="st2" x1="95" y1="225.7" x2="97.8" y2="225.7"/>
		<line class="st2" x1="95" y1="206.7" x2="97.8" y2="206.7"/>
		<line class="st2" x1="95" y1="193.2" x2="97.8" y2="193.2"/>
		<line class="st2" x1="95" y1="182.7" x2="97.8" y2="182.7"/>
		<line class="st2" x1="95" y1="174.1" x2="97.8" y2="174.1"/>
		<line class="st2" x1="95" y1="166.9" x2="97.8" y2="166.9"/>
		<line class="st2" x1="95" y1="160.6" x2="97.8" y2="160.6"/>
		<line class="st2" x1="95" y1="155.1" x2="97.8" y2="155.1"/>
		<line class="st2" x1="95" y1="117.6" x2="97.8" y2="117.6"/>
		<line class="st2" x1="95" y1="98.5" x2="97.8" y2="98.5"/>
		<line class="st2" x1="95" y1="85" x2="97.8" y2="85"/>
		<line class="st2" x1="95" y1="74.6" x2="97.8" y2="74.6"/>
		<line class="st2" x1="95" y1="66" x2="97.8" y2="66"/>
		<line class="st2" x1="95" y1="58.7" x2="97.8" y2="58.7"/>
		<line class="st2" x1="95" y1="52.5" x2="97.8" y2="52.5"/>
		<line class="st2" x1="95" y1="46.9" x2="97.8" y2="46.9"/>
		<line class="st2" x1="662" y1="479.5" x2="659.2" y2="479.5"/>
		<line class="st2" x1="662" y1="442" x2="659.2" y2="442"/>
		<line class="st2" x1="662" y1="422.9" x2="659.2" y2="422.9"/>
		<line class="st2" x1="662" y1="409.4" x2="659.2" y2="409.4"/>
		<line class="st2" x1="662" y1="398.9" x2="659.2" y2="398.9"/>
		<line class="st2" x1="662" y1="390.4" x2="659.2" y2="390.4"/>
		<line class="st2" x1="662" y1="383.1" x2="659.2" y2="383.1"/>
		<line class="st2" x1="662" y1="376.9" x2="659.2" y2="376.9"/>
		<line class="st2" x1="662" y1="371.3" x2="659.2" y2="371.3"/>
		<line class="st2" x1="662" y1="333.8" x2="659.2" y2="333.8"/>
		<line class="st2" x1="662" y1="314.8" x2="659.2" y2="314.8"/>
		<line class="st2" x1="662" y1="301.3" x2="659.2" y2="301.3"/>
		<line class="st2" x1="662" y1="290.8" x2="659.2" y2="290.8"/>
		<line class="st2" x1="662" y1="282.2" x2="659.2" y2="282.2"/>
		<line class="st2" x1="662" y1="275" x2="659.2" y2="275"/>
		<line class="st2" x1="662" y1="268.7" x2="659.2" y2="268.7"/>
		<line class="st2" x1="662" y1="263.2" x2="659.2" y2="263.2"/>
		<line class="st2" x1="662" y1="225.7" x2="659.2" y2="225.7"/>
		<line class="st2" x1="662" y1="206.7" x2="659.2" y2="206.7"/>
		<line class="st2" x1="662" y1="193.2" x2="659.2" y2="193.2"/>
		<line class="st2" x1="662" y1="182.7" x2="659.2" y2="182.7"/>
		<line class="st2" x1="662" y1="174.1" x2="659.2" y2="174.1"/>
		<line class="st2" x1="662" y1="166.9" x2="659.2" y2="166.9"/>
		<line class="st2" x1="662" y1="160.6" x2="659.2" y2="160.6"/>
		<line class="st2" x1="662" y1="155.1" x2="659.2" y2="155.1"/>
		<line class="st2" x1="662" y1="117.6" x2="659.2" y2="117.6"/>
		<line class="st2" x1="662" y1="98.5" x2="659.2" y2="98.5"/>
		<line class="st2" x1="662" y1="85" x2="659.2" y2="85"/>
		<line class="st2" x1="662" y1="74.6" x2="659.2" y2="74.6"/>
		<line class="st2" x1="662" y1="66" x2="659.2" y2="66"/>
		<line class="st2" x1="662" y1="58.7" x2="659.2" y2="58.7"/>
		<line class="st2" x1="662" y1="52.5" x2="659.2" y2="52.5"/>
		<line class="st2" x1="662" y1="46.9" x2="659.2" y2="46.9"/>
	</g>
	<g transform="translate(49,486)">
		<text transform="matrix(1 0 0 1 0 -1.464844e-05)" class="st3 st4 st5">10</text>
	</g>
	<g transform="translate(73,476)">
		<text transform="matrix(1 0 0 1 0 -1.464844e-05)" class="st3 st4 st6">-6</text>
	</g>
	<g transform="translate(49,377)">
		<text transform="matrix(1 0 0 1 0 -1.464844e-05)" class="st3 st4 st5">10</text>
	</g>
	<g transform="translate(73,367)">
		<text transform="matrix(1 0 0 1 0 -1.464844e-05)" class="st3 st4 st6">-5</text>
	</g>
	<g transform="translate(49,269)">
		<text transform="matrix(1 0 0 1 0 -1.464844e-05)" class="st3 st4 st5">10</text>
	</g>
	<g transform="translate(73,259)">
		<text transform="matrix(1 0 0 1 0 -1.464844e-05)" class="st3 st4 st6">-4</text>
	</g>
	<g transform="translate(49,161)">
		<text transform="matrix(1 0 0 1 0 -1.464844e-05)" class="st3 st4 st5">10</text>
	</g>
	<g transform="translate(73,151)">
		<text transform="matrix(1 0 0 1 0 -1.464844e-05)" class="st3 st4 st6">-3</text>
	</g>
	<g transform="translate(49,53)">
		<text transform="matrix(1 0 0 1 0 -1.464844e-05)" class="st3 st4 st5">10</text>
	</g>
	<g transform="translate(73,43)">
		<text transform="matrix(1 0 0 1 0 -1.464844e-05)" class="st3 st4 st6">-2</text>
	</g>
	<g transform="translate(45.0667,263.4998) rotate(-90)">
		<text transform="matrix(1 0 0 1 -25.9996 -6)" class="st3 st4 st7">Error</text>
	</g>
	<g>
		<path class="st8" d="M208.4,127.5l113.4,52.2l113.4,55.4l113.4,62.7L662,342.9"/>
		<line class="st8" x1="204" y1="127.5" x2="213" y2="127.5"/>
		<line class="st8" x1="208.5" y1="132" x2="208.5" y2="123"/>
		<line class="st8" x1="205" y1="131" x2="212" y2="124"/>
		<line class="st8" x1="205" y1="124" x2="212" y2="131"/>
		<line class="st8" x1="317" y1="179.5" x2="326" y2="179.5"/>
		<line class="st8" x1="321.5" y1="184" x2="321.5" y2="175"/>
		<line class="st8" x1="318" y1="183" x2="325" y2="176"/>
		<line class="st8" x1="318" y1="176" x2="325" y2="183"/>
		<line class="st8" x1="431" y1="235.5" x2="440" y2="235.5"/>
		<line class="st8" x1="435.5" y1="240" x2="435.5" y2="231"/>
		<line class="st8" x1="432" y1="239" x2="439" y2="232"/>
		<line class="st8" x1="432" y1="232" x2="439" y2="239"/>
		<line class="st8" x1="544" y1="297.5" x2="553" y2="297.5"/>
		<line class="st8" x1="548.5" y1="302" x2="548.5" y2="293"/>
		<line class="st8" x1="545" y1="301" x2="552" y2="294"/>
		<line class="st8" x1="545" y1="294" x2="552" y2="301"/>
		<line class="st8" x1="658" y1="342.5" x2="667" y2="342.5"/>
		<line class="st8" x1="662.5" y1="347" x2="662.5" y2="338"/>
		<line class="st8" x1="659" y1="346" x2="666" y2="339"/>
		<line class="st8" x1="659" y1="339" x2="666" y2="346"/>
		<path class="st9" d="M208.4,191.7L321.8,278l113.4,93.6l113.4,108.2"/>
		<line class="st9" x1="204" y1="191.5" x2="213" y2="191.5"/>
		<line class="st9" x1="208.5" y1="196" x2="208.5" y2="187"/>
		<line class="st9" x1="205" y1="195" x2="212" y2="188"/>
		<line class="st9" x1="205" y1="188" x2="212" y2="195"/>
		<line class="st9" x1="317" y1="277.5" x2="326" y2="277.5"/>
		<line class="st9" x1="321.5" y1="282" x2="321.5" y2="273"/>
		<line class="st9" x1="318" y1="281" x2="325" y2="274"/>
		<line class="st9" x1="318" y1="274" x2="325" y2="281"/>
		<line class="st9" x1="431" y1="371.5" x2="440" y2="371.5"/>
		<line class="st9" x1="435.5" y1="376" x2="435.5" y2="367"/>
		<line class="st9" x1="432" y1="375" x2="439" y2="368"/>
		<line class="st9" x1="432" y1="368" x2="439" y2="375"/>
		<line class="st9" x1="544" y1="479.5" x2="553" y2="479.5"/>
		<line class="st9" x1="548.5" y1="484" x2="548.5" y2="475"/>
		<line class="st9" x1="545" y1="483" x2="552" y2="476"/>
		<line class="st9" x1="545" y1="476" x2="552" y2="483"/>
		<path class="st10" d="M268.7,195.7l39,29.4l35.4,34l36,36.3l34.5,26.2l34.6,33l34.3,33.6"/>
		<line class="st10" x1="264" y1="195.5" x2="273" y2="195.5"/>
		<line class="st10" x1="268.5" y1="200" x2="268.5" y2="191"/>
		<line class="st10" x1="265" y1="199" x2="272" y2="192"/>
		<line class="st10" x1="265" y1="192" x2="272" y2="199"/>
		<line class="st10" x1="303" y1="225.5" x2="312" y2="225.5"/>
		<line class="st10" x1="307.5" y1="230" x2="307.5" y2="221"/>
		<line class="st10" x1="304" y1="229" x2="311" y2="222"/>
		<line class="st10" x1="304" y1="222" x2="311" y2="229"/>
		<line class="st10" x1="339" y1="259.5" x2="348" y2="259.5"/>
		<line class="st10" x1="343.5" y1="264" x2="343.5" y2="255"/>
		<line class="st10" x1="340" y1="263" x2="347" y2="256"/>
		<line class="st10" x1="340" y1="256" x2="347" y2="263"/>
		<line class="st10" x1="375" y1="295.5" x2="384" y2="295.5"/>
		<line class="st10" x1="379.5" y1="300" x2="379.5" y2="291"/>
		<line class="st10" x1="376" y1="299" x2="383" y2="292"/>
		<line class="st10" x1="376" y1="292" x2="383" y2="299"/>
		<line class="st10" x1="409" y1="321.5" x2="418" y2="321.5"/>
		<line class="st10" x1="413.5" y1="326" x2="413.5" y2="317"/>
		<line class="st10" x1="410" y1="325" x2="417" y2="318"/>
		<line class="st10" x1="410" y1="318" x2="417" y2="325"/>
		<line class="st10" x1="444" y1="354.5" x2="453" y2="354.5"/>
		<line class="st10" x1="448.5" y1="359" x2="448.5" y2="350"/>
		<line class="st10" x1="445" y1="358" x2="452" y2="351"/>
		<line class="st10" x1="445" y1="351" x2="452" y2="358"/>
		<line class="st10" x1="478" y1="388.5" x2="487" y2="388.5"/>
		<line class="st10" x1="482.5" y1="393" x2="482.5" y2="384"/>
		<line class="st10" x1="479" y1="392" x2="486" y2="385"/>
		<line class="st10" x1="479" y1="385" x2="486" y2="392"/>
	</g>
	<g>
		<path class="st11" d="M206.9,95.3l113.4,54.1l113.4,54.1l113.4,54.1l113.4,54.1l1.5,0.7"/>
		<path class="st12" d="M206.9,191.7l113.4,108.1L433.8,408l80.8,77"/>
	</g>
	<g>
		<path class="st1" d="M459,172V41h205v131H459z"/>
	</g>
	<g transform="translate(496,55.5)">
		<text transform="matrix(1 0 0 1 0 7.5)" class="st4 st13">MC ray tracing</text>
	</g>
	<g>
		<line class="st8" x1="463" y1="55.5" x2="493" y2="55.5"/>
		<line class="st8" x1="474" y1="55.5" x2="483" y2="55.5"/>
		<line class="st8" x1="478.5" y1="60" x2="478.5" y2="51"/>
		<line class="st8" x1="475" y1="59" x2="482" y2="52"/>
		<line class="st8" x1="475" y1="52" x2="482" y2="59"/>
	</g>
	<g transform="translate(496,81)">
		<text transform="matrix(1 0 0 1 0 7.5)" class="st4 st13">QMC ray tracing</text>
	</g>
	<g>
		<line class="st9" x1="463" y1="81" x2="493" y2="81"/>
		<line class="st9" x1="474" y1="80.5" x2="483" y2="80.5"/>
		<line class="st9" x1="478.5" y1="85" x2="478.5" y2="76"/>
		<line class="st9" x1="475" y1="84" x2="482" y2="77"/>
		<line class="st9" x1="475" y1="77" x2="482" y2="84"/>
	</g>
	<g transform="translate(496,106.5)">
		<text transform="matrix(1 0 0 1 0 7.5)" class="st4 st13">PS ray tracing</text>
	</g>
	<g>
		<line class="st10" x1="463" y1="106.5" x2="493" y2="106.5"/>
		<line class="st10" x1="474" y1="106.5" x2="483" y2="106.5"/>
		<line class="st10" x1="478.5" y1="111" x2="478.5" y2="102"/>
		<line class="st10" x1="475" y1="110" x2="482" y2="103"/>
		<line class="st10" x1="475" y1="103" x2="482" y2="110"/>
	</g>
	<g transform="translate(496,132)">
		<text transform="matrix(1 0 0 1 0 7.5)" class="st4 st13">Line with slope -1/2</text>
	</g>
	<g>
		<line class="st11" x1="463" y1="132" x2="493" y2="132"/>
	</g>
	<g transform="translate(496,157.5)">
		<text transform="matrix(1 0 0 1 0 7.5)" class="st4 st13">Line with slope -1</text>
	</g>
	<g>
		<line class="st12" x1="463" y1="157.5" x2="493" y2="157.5"/>
	</g>
	<g>
		<path class="st14" d="M459,172V41h205v131H459z"/>
	</g>
</g>
</svg>
