<?xml version="1.0" encoding="utf-8"?>
<!-- Generator: Adobe Illustrator 21.1.0, SVG Export Plug-In . SVG Version: 6.00 Build 0)  -->
<svg version="1.1" id="Layer_1" xmlns="http://www.w3.org/2000/svg" xmlns:xlink="http://www.w3.org/1999/xlink" x="0px" y="0px"
	 viewBox="0 0 731 555" style="enable-background:new 0 0 731 555;" xml:space="preserve">
<style type="text/css">
	.st0{clip-path:url(#SVGID_2_);fill:#FFFFFF;}
	.st1{fill:#FFFFFF;}
	.st2{fill:none;stroke:#262626;stroke-width:0.6667;stroke-linecap:square;stroke-linejoin:round;stroke-miterlimit:10;}
	.st3{fill:#262626;}
	.st4{font-family:'MyriadPro-Regular';}
	.st5{font-size:21px;}
	.st6{font-size:16px;}
	.st7{font-size:23px;}
	.st8{fill:none;stroke:#00FF00;stroke-width:2.6667;stroke-linejoin:round;stroke-miterlimit:10;}
	.st9{fill:none;stroke:#0000FF;stroke-width:2.6667;stroke-linejoin:round;stroke-miterlimit:10;}
	.st10{fill:none;stroke:#FF0000;stroke-width:2.6667;stroke-linejoin:round;stroke-miterlimit:10;}
	.st11{fill:none;stroke:#0000FF;stroke-width:1.3333;stroke-linejoin:bevel;stroke-miterlimit:1;stroke-dasharray:10,6;}
	.st12{fill:none;stroke:#000000;stroke-width:1.3333;stroke-linejoin:bevel;stroke-miterlimit:1;stroke-dasharray:10,6;}
	.st13{font-size:19px;}
	.st14{fill:none;stroke:#262626;stroke-width:0.6667;stroke-miterlimit:10;}
</style>
<g>
	<g>
		<g>
			<defs>
				<rect id="SVGID_1_" y="0" width="731" height="555"/>
			</defs>
			<clipPath id="SVGID_2_">
				<use xlink:href="#SVGID_1_"  style="overflow:visible;"/>
			</clipPath>
			<rect y="0" class="st0" width="731" height="555"/>
		</g>
	</g>
	<g>
		<rect y="0" class="st1" width="731" height="555"/>
		<path class="st1" d="M95,485h567V42H95V485z"/>
	</g>
	<g>
		<line class="st2" x1="95" y1="485" x2="662" y2="485"/>
		<line class="st2" x1="95" y1="42" x2="662" y2="42"/>
		<line class="st2" x1="101.4" y1="485" x2="101.4" y2="479.3"/>
		<line class="st2" x1="241.6" y1="485" x2="241.6" y2="479.3"/>
		<line class="st2" x1="381.7" y1="485" x2="381.7" y2="479.3"/>
		<line class="st2" x1="521.9" y1="485" x2="521.9" y2="479.3"/>
		<line class="st2" x1="662" y1="485" x2="662" y2="479.3"/>
		<line class="st2" x1="101.4" y1="42" x2="101.4" y2="47.7"/>
		<line class="st2" x1="241.6" y1="42" x2="241.6" y2="47.7"/>
		<line class="st2" x1="381.7" y1="42" x2="381.7" y2="47.7"/>
		<line class="st2" x1="521.9" y1="42" x2="521.9" y2="47.7"/>
		<line class="st2" x1="662" y1="42" x2="662" y2="47.7"/>
		<line class="st2" x1="143.6" y1="485" x2="143.6" y2="482.2"/>
		<line class="st2" x1="168.3" y1="485" x2="168.3" y2="482.2"/>
		<line class="st2" x1="185.8" y1="485" x2="185.8" y2="482.2"/>
		<line class="st2" x1="199.4" y1="485" x2="199.4" y2="482.2"/>
		<line class="st2" x1="210.5" y1="485" x2="210.5" y2="482.2"/>
		<line class="st2" x1="219.9" y1="485" x2="219.9" y2="482.2"/>
		<line class="st2" x1="228" y1="485" x2="228" y2="482.2"/>
		<line class="st2" x1="235.1" y1="485" x2="235.1" y2="482.2"/>
		<line class="st2" x1="283.7" y1="485" x2="283.7" y2="482.2"/>
		<line class="st2" x1="308.4" y1="485" x2="308.4" y2="482.2"/>
		<line class="st2" x1="325.9" y1="485" x2="325.9" y2="482.2"/>
		<line class="st2" x1="339.5" y1="485" x2="339.5" y2="482.2"/>
		<line class="st2" x1="350.6" y1="485" x2="350.6" y2="482.2"/>
		<line class="st2" x1="360" y1="485" x2="360" y2="482.2"/>
		<line class="st2" x1="368.1" y1="485" x2="368.1" y2="482.2"/>
		<line class="st2" x1="375.3" y1="485" x2="375.3" y2="482.2"/>
		<line class="st2" x1="423.9" y1="485" x2="423.9" y2="482.2"/>
		<line class="st2" x1="448.6" y1="485" x2="448.6" y2="482.2"/>
		<line class="st2" x1="466.1" y1="485" x2="466.1" y2="482.2"/>
		<line class="st2" x1="479.7" y1="485" x2="479.7" y2="482.2"/>
		<line class="st2" x1="490.8" y1="485" x2="490.8" y2="482.2"/>
		<line class="st2" x1="500.1" y1="485" x2="500.1" y2="482.2"/>
		<line class="st2" x1="508.3" y1="485" x2="508.3" y2="482.2"/>
		<line class="st2" x1="515.4" y1="485" x2="515.4" y2="482.2"/>
		<line class="st2" x1="564" y1="485" x2="564" y2="482.2"/>
		<line class="st2" x1="588.7" y1="485" x2="588.7" y2="482.2"/>
		<line class="st2" x1="606.2" y1="485" x2="606.2" y2="482.2"/>
		<line class="st2" x1="619.8" y1="485" x2="619.8" y2="482.2"/>
		<line class="st2" x1="630.9" y1="485" x2="630.9" y2="482.2"/>
		<line class="st2" x1="640.3" y1="485" x2="640.3" y2="482.2"/>
		<line class="st2" x1="648.4" y1="485" x2="648.4" y2="482.2"/>
		<line class="st2" x1="655.6" y1="485" x2="655.6" y2="482.2"/>
		<line class="st2" x1="143.6" y1="42" x2="143.6" y2="44.8"/>
		<line class="st2" x1="168.3" y1="42" x2="168.3" y2="44.8"/>
		<line class="st2" x1="185.8" y1="42" x2="185.8" y2="44.8"/>
		<line class="st2" x1="199.4" y1="42" x2="199.4" y2="44.8"/>
		<line class="st2" x1="210.5" y1="42" x2="210.5" y2="44.8"/>
		<line class="st2" x1="219.9" y1="42" x2="219.9" y2="44.8"/>
		<line class="st2" x1="228" y1="42" x2="228" y2="44.8"/>
		<line class="st2" x1="235.1" y1="42" x2="235.1" y2="44.8"/>
		<line class="st2" x1="283.7" y1="42" x2="283.7" y2="44.8"/>
		<line class="st2" x1="308.4" y1="42" x2="308.4" y2="44.8"/>
		<line class="st2" x1="325.9" y1="42" x2="325.9" y2="44.8"/>
		<line class="st2" x1="339.5" y1="42" x2="339.5" y2="44.8"/>
		<line class="st2" x1="350.6" y1="42" x2="350.6" y2="44.8"/>
		<line class="st2" x1="360" y1="42" x2="360" y2="44.8"/>
		<line class="st2" x1="368.1" y1="42" x2="368.1" y2="44.8"/>
		<line class="st2" x1="375.3" y1="42" x2="375.3" y2="44.8"/>
		<line class="st2" x1="423.9" y1="42" x2="423.9" y2="44.8"/>
		<line class="st2" x1="448.6" y1="42" x2="448.6" y2="44.8"/>
		<line class="st2" x1="466.1" y1="42" x2="466.1" y2="44.8"/>
		<line class="st2" x1="479.7" y1="42" x2="479.7" y2="44.8"/>
		<line class="st2" x1="490.8" y1="42" x2="490.8" y2="44.8"/>
		<line class="st2" x1="500.1" y1="42" x2="500.1" y2="44.8"/>
		<line class="st2" x1="508.3" y1="42" x2="508.3" y2="44.8"/>
		<line class="st2" x1="515.4" y1="42" x2="515.4" y2="44.8"/>
		<line class="st2" x1="564" y1="42" x2="564" y2="44.8"/>
		<line class="st2" x1="588.7" y1="42" x2="588.7" y2="44.8"/>
		<line class="st2" x1="606.2" y1="42" x2="606.2" y2="44.8"/>
		<line class="st2" x1="619.8" y1="42" x2="619.8" y2="44.8"/>
		<line class="st2" x1="630.9" y1="42" x2="630.9" y2="44.8"/>
		<line class="st2" x1="640.3" y1="42" x2="640.3" y2="44.8"/>
		<line class="st2" x1="648.4" y1="42" x2="648.4" y2="44.8"/>
		<line class="st2" x1="655.6" y1="42" x2="655.6" y2="44.8"/>
	</g>
	<g transform="translate(84,519)">
		<text transform="matrix(1 0 0 1 0 -1.464844e-05)" class="st3 st4 st5">10</text>
	</g>
	<g transform="translate(108,509)">
		<text transform="matrix(1 0 0 1 0 -1.464844e-05)" class="st3 st4 st6">3</text>
	</g>
	<g transform="translate(225,519)">
		<text transform="matrix(1 0 0 1 0 -1.464844e-05)" class="st3 st4 st5">10</text>
	</g>
	<g transform="translate(249,509)">
		<text transform="matrix(1 0 0 1 0 -1.464844e-05)" class="st3 st4 st6">4</text>
	</g>
	<g transform="translate(365,519)">
		<text transform="matrix(1 0 0 1 0 -1.464844e-05)" class="st3 st4 st5">10</text>
	</g>
	<g transform="translate(389,509)">
		<text transform="matrix(1 0 0 1 0 -1.464844e-05)" class="st3 st4 st6">5</text>
	</g>
	<g transform="translate(505,519)">
		<text transform="matrix(1 0 0 1 0 -1.464844e-05)" class="st3 st4 st5">10</text>
	</g>
	<g transform="translate(529,509)">
		<text transform="matrix(1 0 0 1 0 -1.464844e-05)" class="st3 st4 st6">6</text>
	</g>
	<g transform="translate(645,519)">
		<text transform="matrix(1 0 0 1 0 -1.464844e-05)" class="st3 st4 st5">10</text>
	</g>
	<g transform="translate(669,509)">
		<text transform="matrix(1 0 0 1 0 -1.464844e-05)" class="st3 st4 st6">7</text>
	</g>
	<g transform="translate(378.5003,525.2667)">
		<text transform="matrix(1 0 0 1 -12.5 24)" class="st3 st4 st7">Nr</text>
	</g>
	<g>
		<line class="st2" x1="95" y1="485" x2="95" y2="42"/>
		<line class="st2" x1="662" y1="485" x2="662" y2="42"/>
		<line class="st2" x1="95" y1="471.1" x2="100.7" y2="471.1"/>
		<line class="st2" x1="95" y1="328.1" x2="100.7" y2="328.1"/>
		<line class="st2" x1="95" y1="185" x2="100.7" y2="185"/>
		<line class="st2" x1="95" y1="42" x2="100.7" y2="42"/>
		<line class="st2" x1="662" y1="471.1" x2="656.3" y2="471.1"/>
		<line class="st2" x1="662" y1="328.1" x2="656.3" y2="328.1"/>
		<line class="st2" x1="662" y1="185" x2="656.3" y2="185"/>
		<line class="st2" x1="662" y1="42" x2="656.3" y2="42"/>
		<line class="st2" x1="95" y1="477.7" x2="97.8" y2="477.7"/>
		<line class="st2" x1="95" y1="428.1" x2="97.8" y2="428.1"/>
		<line class="st2" x1="95" y1="402.9" x2="97.8" y2="402.9"/>
		<line class="st2" x1="95" y1="385" x2="97.8" y2="385"/>
		<line class="st2" x1="95" y1="371.2" x2="97.8" y2="371.2"/>
		<line class="st2" x1="95" y1="359.8" x2="97.8" y2="359.8"/>
		<line class="st2" x1="95" y1="350.2" x2="97.8" y2="350.2"/>
		<line class="st2" x1="95" y1="342" x2="97.8" y2="342"/>
		<line class="st2" x1="95" y1="334.6" x2="97.8" y2="334.6"/>
		<line class="st2" x1="95" y1="285" x2="97.8" y2="285"/>
		<line class="st2" x1="95" y1="259.8" x2="97.8" y2="259.8"/>
		<line class="st2" x1="95" y1="242" x2="97.8" y2="242"/>
		<line class="st2" x1="95" y1="228.1" x2="97.8" y2="228.1"/>
		<line class="st2" x1="95" y1="216.8" x2="97.8" y2="216.8"/>
		<line class="st2" x1="95" y1="207.2" x2="97.8" y2="207.2"/>
		<line class="st2" x1="95" y1="198.9" x2="97.8" y2="198.9"/>
		<line class="st2" x1="95" y1="191.6" x2="97.8" y2="191.6"/>
		<line class="st2" x1="95" y1="142" x2="97.8" y2="142"/>
		<line class="st2" x1="95" y1="116.8" x2="97.8" y2="116.8"/>
		<line class="st2" x1="95" y1="98.9" x2="97.8" y2="98.9"/>
		<line class="st2" x1="95" y1="85.1" x2="97.8" y2="85.1"/>
		<line class="st2" x1="95" y1="73.7" x2="97.8" y2="73.7"/>
		<line class="st2" x1="95" y1="64.2" x2="97.8" y2="64.2"/>
		<line class="st2" x1="95" y1="55.9" x2="97.8" y2="55.9"/>
		<line class="st2" x1="95" y1="48.5" x2="97.8" y2="48.5"/>
		<line class="st2" x1="662" y1="477.7" x2="659.2" y2="477.7"/>
		<line class="st2" x1="662" y1="428.1" x2="659.2" y2="428.1"/>
		<line class="st2" x1="662" y1="402.9" x2="659.2" y2="402.9"/>
		<line class="st2" x1="662" y1="385" x2="659.2" y2="385"/>
		<line class="st2" x1="662" y1="371.2" x2="659.2" y2="371.2"/>
		<line class="st2" x1="662" y1="359.8" x2="659.2" y2="359.8"/>
		<line class="st2" x1="662" y1="350.2" x2="659.2" y2="350.2"/>
		<line class="st2" x1="662" y1="342" x2="659.2" y2="342"/>
		<line class="st2" x1="662" y1="334.6" x2="659.2" y2="334.6"/>
		<line class="st2" x1="662" y1="285" x2="659.2" y2="285"/>
		<line class="st2" x1="662" y1="259.8" x2="659.2" y2="259.8"/>
		<line class="st2" x1="662" y1="242" x2="659.2" y2="242"/>
		<line class="st2" x1="662" y1="228.1" x2="659.2" y2="228.1"/>
		<line class="st2" x1="662" y1="216.8" x2="659.2" y2="216.8"/>
		<line class="st2" x1="662" y1="207.2" x2="659.2" y2="207.2"/>
		<line class="st2" x1="662" y1="198.9" x2="659.2" y2="198.9"/>
		<line class="st2" x1="662" y1="191.6" x2="659.2" y2="191.6"/>
		<line class="st2" x1="662" y1="142" x2="659.2" y2="142"/>
		<line class="st2" x1="662" y1="116.8" x2="659.2" y2="116.8"/>
		<line class="st2" x1="662" y1="98.9" x2="659.2" y2="98.9"/>
		<line class="st2" x1="662" y1="85.1" x2="659.2" y2="85.1"/>
		<line class="st2" x1="662" y1="73.7" x2="659.2" y2="73.7"/>
		<line class="st2" x1="662" y1="64.2" x2="659.2" y2="64.2"/>
		<line class="st2" x1="662" y1="55.9" x2="659.2" y2="55.9"/>
		<line class="st2" x1="662" y1="48.5" x2="659.2" y2="48.5"/>
	</g>
	<g transform="translate(49,482)">
		<text transform="matrix(1 0 0 1 0 -1.464844e-05)" class="st3 st4 st5">10</text>
	</g>
	<g transform="translate(73,472)">
		<text transform="matrix(1 0 0 1 0 -1.464844e-05)" class="st3 st4 st6">-5</text>
	</g>
	<g transform="translate(49,339)">
		<text transform="matrix(1 0 0 1 0 -1.464844e-05)" class="st3 st4 st5">10</text>
	</g>
	<g transform="translate(73,329)">
		<text transform="matrix(1 0 0 1 0 -1.464844e-05)" class="st3 st4 st6">-4</text>
	</g>
	<g transform="translate(49,196)">
		<text transform="matrix(1 0 0 1 0 -1.464844e-05)" class="st3 st4 st5">10</text>
	</g>
	<g transform="translate(73,186)">
		<text transform="matrix(1 0 0 1 0 -1.464844e-05)" class="st3 st4 st6">-3</text>
	</g>
	<g transform="translate(49,53)">
		<text transform="matrix(1 0 0 1 0 -1.464844e-05)" class="st3 st4 st5">10</text>
	</g>
	<g transform="translate(73,43)">
		<text transform="matrix(1 0 0 1 0 -1.464844e-05)" class="st3 st4 st6">-2</text>
	</g>
	<g transform="translate(45.0667,263.4998) rotate(-90)">
		<text transform="matrix(1 0 0 1 -25.9996 -6)" class="st3 st4 st7">Error</text>
	</g>
	<g>
		<path class="st8" d="M101.4,139.3l140.1,73.3l140.1,74.8l140.1,58.9"/>
		<line class="st8" x1="97" y1="139.5" x2="106" y2="139.5"/>
		<line class="st8" x1="101.5" y1="144" x2="101.5" y2="135"/>
		<line class="st8" x1="98" y1="143" x2="105" y2="136"/>
		<line class="st8" x1="98" y1="136" x2="105" y2="143"/>
		<line class="st8" x1="237" y1="212.5" x2="246" y2="212.5"/>
		<line class="st8" x1="241.5" y1="217" x2="241.5" y2="208"/>
		<line class="st8" x1="238" y1="216" x2="245" y2="209"/>
		<line class="st8" x1="238" y1="209" x2="245" y2="216"/>
		<line class="st8" x1="377" y1="287.5" x2="386" y2="287.5"/>
		<line class="st8" x1="381.5" y1="292" x2="381.5" y2="283"/>
		<line class="st8" x1="378" y1="291" x2="385" y2="284"/>
		<line class="st8" x1="378" y1="284" x2="385" y2="291"/>
		<line class="st8" x1="517" y1="346.5" x2="526" y2="346.5"/>
		<line class="st8" x1="521.5" y1="351" x2="521.5" y2="342"/>
		<line class="st8" x1="518" y1="350" x2="525" y2="343"/>
		<line class="st8" x1="518" y1="343" x2="525" y2="350"/>
		<path class="st9" d="M101.4,162.8l140.1,96.3l140.1,102.5l140.1,94.2"/>
		<line class="st9" x1="97" y1="162.5" x2="106" y2="162.5"/>
		<line class="st9" x1="101.5" y1="167" x2="101.5" y2="158"/>
		<line class="st9" x1="98" y1="166" x2="105" y2="159"/>
		<line class="st9" x1="98" y1="159" x2="105" y2="166"/>
		<line class="st9" x1="237" y1="259.5" x2="246" y2="259.5"/>
		<line class="st9" x1="241.5" y1="264" x2="241.5" y2="255"/>
		<line class="st9" x1="238" y1="263" x2="245" y2="256"/>
		<line class="st9" x1="238" y1="256" x2="245" y2="263"/>
		<line class="st9" x1="377" y1="361.5" x2="386" y2="361.5"/>
		<line class="st9" x1="381.5" y1="366" x2="381.5" y2="357"/>
		<line class="st9" x1="378" y1="365" x2="385" y2="358"/>
		<line class="st9" x1="378" y1="358" x2="385" y2="365"/>
		<line class="st9" x1="517" y1="455.5" x2="526" y2="455.5"/>
		<line class="st9" x1="521.5" y1="460" x2="521.5" y2="451"/>
		<line class="st9" x1="518" y1="459" x2="525" y2="452"/>
		<line class="st9" x1="518" y1="452" x2="525" y2="459"/>
		<path class="st10" d="M228.4,303.1l46.5,33.8l48.4,41.7l44.5,41.6l43.4,39.4"/>
		<line class="st10" x1="224" y1="303.5" x2="233" y2="303.5"/>
		<line class="st10" x1="228.5" y1="308" x2="228.5" y2="299"/>
		<line class="st10" x1="225" y1="307" x2="232" y2="300"/>
		<line class="st10" x1="225" y1="300" x2="232" y2="307"/>
		<line class="st10" x1="270" y1="336.5" x2="279" y2="336.5"/>
		<line class="st10" x1="274.5" y1="341" x2="274.5" y2="332"/>
		<line class="st10" x1="271" y1="340" x2="278" y2="333"/>
		<line class="st10" x1="271" y1="333" x2="278" y2="340"/>
		<line class="st10" x1="319" y1="378.5" x2="328" y2="378.5"/>
		<line class="st10" x1="323.5" y1="383" x2="323.5" y2="374"/>
		<line class="st10" x1="320" y1="382" x2="327" y2="375"/>
		<line class="st10" x1="320" y1="375" x2="327" y2="382"/>
		<line class="st10" x1="363" y1="420.5" x2="372" y2="420.5"/>
		<line class="st10" x1="367.5" y1="425" x2="367.5" y2="416"/>
		<line class="st10" x1="364" y1="424" x2="371" y2="417"/>
		<line class="st10" x1="364" y1="417" x2="371" y2="424"/>
		<line class="st10" x1="407" y1="459.5" x2="416" y2="459.5"/>
		<line class="st10" x1="411.5" y1="464" x2="411.5" y2="455"/>
		<line class="st10" x1="408" y1="463" x2="415" y2="456"/>
		<line class="st10" x1="408" y1="456" x2="415" y2="463"/>
	</g>
	<g>
		<path class="st11" d="M99.6,240.1l140.2,143.1L339.6,485"/>
		<path class="st12" d="M99.6,112.6l140.2,71.5l140.2,71.5l140.2,71.5l140.2,71.5l1.8,0.9"/>
	</g>
	<g>
		<path class="st1" d="M457,173V42h205v131H457z"/>
	</g>
	<g transform="translate(494,56.5)">
		<text transform="matrix(1 0 0 1 0 7.5)" class="st4 st13">MC ray tracing</text>
	</g>
	<g>
		<line class="st8" x1="461" y1="56.5" x2="491" y2="56.5"/>
		<line class="st8" x1="472" y1="56.5" x2="481" y2="56.5"/>
		<line class="st8" x1="476.5" y1="61" x2="476.5" y2="52"/>
		<line class="st8" x1="473" y1="60" x2="480" y2="53"/>
		<line class="st8" x1="473" y1="53" x2="480" y2="60"/>
	</g>
	<g transform="translate(494,82)">
		<text transform="matrix(1 0 0 1 0 7.5)" class="st4 st13">QMC ray tracing</text>
	</g>
	<g>
		<line class="st9" x1="461" y1="82" x2="491" y2="82"/>
		<line class="st9" x1="472" y1="81.5" x2="481" y2="81.5"/>
		<line class="st9" x1="476.5" y1="86" x2="476.5" y2="77"/>
		<line class="st9" x1="473" y1="85" x2="480" y2="78"/>
		<line class="st9" x1="473" y1="78" x2="480" y2="85"/>
	</g>
	<g transform="translate(494,107.5)">
		<text transform="matrix(1 0 0 1 0 7.5)" class="st4 st13">PS ray tracing</text>
	</g>
	<g>
		<line class="st10" x1="461" y1="107.5" x2="491" y2="107.5"/>
		<line class="st10" x1="472" y1="107.5" x2="481" y2="107.5"/>
		<line class="st10" x1="476.5" y1="112" x2="476.5" y2="103"/>
		<line class="st10" x1="473" y1="111" x2="480" y2="104"/>
		<line class="st10" x1="473" y1="104" x2="480" y2="111"/>
	</g>
	<g transform="translate(494,133)">
		<text transform="matrix(1 0 0 1 0 7.5)" class="st4 st13">Line with slope -1</text>
	</g>
	<g>
		<line class="st11" x1="461" y1="133" x2="491" y2="133"/>
	</g>
	<g transform="translate(494,158.5)">
		<text transform="matrix(1 0 0 1 0 7.5)" class="st4 st13">Line with slope -1/2</text>
	</g>
	<g>
		<line class="st12" x1="461" y1="158.5" x2="491" y2="158.5"/>
	</g>
	<g>
		<path class="st14" d="M457,173V42h205v131H457z"/>
	</g>
</g>
</svg>
