<?xml version="1.0" encoding="utf-8"?>
<!-- Generator: Adobe Illustrator 21.1.0, SVG Export Plug-In . SVG Version: 6.00 Build 0)  -->
<svg version="1.1" id="Layer_1" xmlns="http://www.w3.org/2000/svg" xmlns:xlink="http://www.w3.org/1999/xlink" x="0px" y="0px"
	 viewBox="0 0 735 555" style="enable-background:new 0 0 735 555;" xml:space="preserve">
<style type="text/css">
	.st0{clip-path:url(#SVGID_2_);fill:#FFFFFF;}
	.st1{fill:#FFFFFF;}
	.st2{fill:none;stroke:#262626;stroke-width:0.6667;stroke-linecap:square;stroke-linejoin:round;stroke-miterlimit:10;}
	.st3{fill:#262626;}
	.st4{fill:none;stroke:#0000FF;stroke-width:2.6667;stroke-linejoin:round;stroke-miterlimit:10;}
	.st5{fill:none;stroke:#262626;stroke-width:0.6667;stroke-miterlimit:10;}
</style>
<g>
	<g>
		<g>
			<defs>
				<rect id="SVGID_1_" y="0" width="735" height="555"/>
			</defs>
			<clipPath id="SVGID_2_">
				<use xlink:href="#SVGID_1_"  style="overflow:visible;"/>
			</clipPath>
			<rect y="0" class="st0" width="735" height="555"/>
		</g>
	</g>
	<g>
		<rect y="0" class="st1" width="735" height="555"/>
		<path class="st1" d="M96,490h569V42H96V490z"/>
	</g>
	<g>
		<line class="st2" x1="96" y1="490" x2="665" y2="490"/>
		<line class="st2" x1="96" y1="42" x2="665" y2="42"/>
		<line class="st2" x1="135.1" y1="490" x2="135.1" y2="484.3"/>
		<line class="st2" x1="256.5" y1="490" x2="256.5" y2="484.3"/>
		<line class="st2" x1="448.9" y1="490" x2="448.9" y2="484.3"/>
		<line class="st2" x1="659.8" y1="490" x2="659.8" y2="484.3"/>
		<line class="st2" x1="135.1" y1="42" x2="135.1" y2="47.7"/>
		<line class="st2" x1="256.5" y1="42" x2="256.5" y2="47.7"/>
		<line class="st2" x1="448.9" y1="42" x2="448.9" y2="47.7"/>
		<line class="st2" x1="659.8" y1="42" x2="659.8" y2="47.7"/>
		<line class="st2" x1="167" y1="490" x2="167" y2="487.2"/>
		<line class="st2" x1="194" y1="490" x2="194" y2="487.2"/>
		<line class="st2" x1="217.4" y1="490" x2="217.4" y2="487.2"/>
		<line class="st2" x1="238" y1="490" x2="238" y2="487.2"/>
		<line class="st2" x1="377.9" y1="490" x2="377.9" y2="487.2"/>
		<line class="st2" x1="499.3" y1="490" x2="499.3" y2="487.2"/>
		<line class="st2" x1="538.4" y1="490" x2="538.4" y2="487.2"/>
		<line class="st2" x1="570.3" y1="490" x2="570.3" y2="487.2"/>
		<line class="st2" x1="597.3" y1="490" x2="597.3" y2="487.2"/>
		<line class="st2" x1="620.7" y1="490" x2="620.7" y2="487.2"/>
		<line class="st2" x1="641.4" y1="490" x2="641.4" y2="487.2"/>
		<line class="st2" x1="167" y1="42" x2="167" y2="44.8"/>
		<line class="st2" x1="194" y1="42" x2="194" y2="44.8"/>
		<line class="st2" x1="217.4" y1="42" x2="217.4" y2="44.8"/>
		<line class="st2" x1="238" y1="42" x2="238" y2="44.8"/>
		<line class="st2" x1="377.9" y1="42" x2="377.9" y2="44.8"/>
		<line class="st2" x1="499.3" y1="42" x2="499.3" y2="44.8"/>
		<line class="st2" x1="538.4" y1="42" x2="538.4" y2="44.8"/>
		<line class="st2" x1="570.3" y1="42" x2="570.3" y2="44.8"/>
		<line class="st2" x1="597.3" y1="42" x2="597.3" y2="44.8"/>
		<line class="st2" x1="620.7" y1="42" x2="620.7" y2="44.8"/>
		<line class="st2" x1="641.4" y1="42" x2="641.4" y2="44.8"/>
	</g>
	<g transform="translate(135.0861,496.9333)">
		<path class="st3" d="M-5.1,18.1l1.9-0.2c0.1,0.9,0.5,1.7,1,2.1c0.5,0.5,1.2,0.7,1.9,0.7c0.9,0,1.6-0.3,2.3-1
			c0.6-0.7,0.9-1.6,0.9-2.7c0-1.1-0.3-1.9-0.9-2.5s-1.4-0.9-2.3-0.9c-0.6,0-1.1,0.1-1.6,0.4s-0.9,0.6-1.1,1.1l-1.7-0.2l1.5-7.7h7.5
			v1.8h-6l-0.8,4c0.9-0.6,1.8-0.9,2.8-0.9c1.3,0,2.4,0.5,3.3,1.4s1.4,2.1,1.4,3.5c0,1.4-0.4,2.5-1.2,3.5c-1,1.2-2.3,1.8-4,1.8
			c-1.4,0-2.5-0.4-3.3-1.1C-4.5,20.3-5,19.3-5.1,18.1z"/>
	</g>
	<g transform="translate(256.4987,496.9333)">
		<path class="st3" d="M-4.2,22H-6V10.2c-0.4,0.4-1,0.9-1.8,1.3c-0.7,0.4-1.4,0.7-1.9,1v-1.8c1-0.5,1.9-1.1,2.7-1.8
			c0.8-0.7,1.3-1.4,1.6-2h1.2V22z M0.6,14.6c0-1.8,0.2-3.2,0.5-4.3C1.5,9.2,2,8.4,2.7,7.8c0.7-0.6,1.6-0.9,2.7-0.9
			c0.8,0,1.5,0.2,2.1,0.5c0.6,0.3,1.1,0.8,1.5,1.4C9.5,9.4,9.8,10.2,10,11c0.2,0.9,0.3,2.1,0.3,3.6c0,1.8-0.2,3.2-0.5,4.3
			c-0.4,1.1-0.9,1.9-1.6,2.5c-0.7,0.6-1.6,0.9-2.7,0.9c-1.4,0-2.6-0.5-3.4-1.5C1,19.5,0.6,17.4,0.6,14.6z M2.4,14.6
			c0,2.5,0.3,4.1,0.9,4.9s1.3,1.2,2.1,1.2c0.9,0,1.6-0.4,2.1-1.2c0.6-0.8,0.9-2.5,0.9-4.9c0-2.5-0.3-4.1-0.9-4.9
			C7,8.8,6.3,8.4,5.4,8.4c-0.8,0-1.5,0.4-2,1.1C2.8,10.4,2.4,12.1,2.4,14.6z"/>
	</g>
	<g transform="translate(448.933,496.9333)">
		<path class="st3" d="M-11.1,18l1.9-0.3c0.2,1.1,0.6,1.8,1.1,2.3c0.5,0.5,1.1,0.7,1.9,0.7c0.9,0,1.6-0.3,2.2-0.9
			c0.6-0.6,0.9-1.3,0.9-2.2c0-0.8-0.3-1.5-0.8-2.1s-1.3-0.8-2.1-0.8c-0.4,0-0.8,0.1-1.3,0.2l0.2-1.6c0.1,0,0.2,0,0.3,0
			c0.8,0,1.5-0.2,2.1-0.6c0.6-0.4,0.9-1,0.9-1.9c0-0.7-0.2-1.2-0.7-1.7c-0.5-0.4-1.1-0.7-1.8-0.7c-0.7,0-1.3,0.2-1.8,0.7
			c-0.5,0.5-0.8,1.1-0.9,2l-1.8-0.3c0.2-1.2,0.7-2.2,1.5-2.9c0.8-0.7,1.8-1,3-1c0.8,0,1.6,0.2,2.3,0.5c0.7,0.4,1.2,0.8,1.6,1.4
			S-2,10.1-2,10.8c0,0.6-0.2,1.2-0.5,1.8c-0.3,0.5-0.9,1-1.5,1.3c0.9,0.2,1.6,0.6,2.1,1.3c0.5,0.6,0.7,1.5,0.7,2.4
			c0,1.3-0.5,2.4-1.4,3.3s-2.2,1.4-3.6,1.4c-1.3,0-2.4-0.4-3.3-1.2S-11,19.3-11.1,18z M0.6,14.6c0-1.8,0.2-3.2,0.5-4.3
			C1.5,9.2,2,8.4,2.7,7.8c0.7-0.6,1.6-0.9,2.7-0.9c0.8,0,1.5,0.2,2.1,0.5c0.6,0.3,1.1,0.8,1.5,1.4C9.5,9.4,9.8,10.2,10,11
			c0.2,0.9,0.3,2.1,0.3,3.6c0,1.8-0.2,3.2-0.5,4.3c-0.4,1.1-0.9,1.9-1.6,2.5c-0.7,0.6-1.6,0.9-2.7,0.9c-1.4,0-2.6-0.5-3.4-1.5
			C1,19.5,0.6,17.4,0.6,14.6z M2.4,14.6c0,2.5,0.3,4.1,0.9,4.9s1.3,1.2,2.1,1.2c0.9,0,1.6-0.4,2.1-1.2c0.6-0.8,0.9-2.5,0.9-4.9
			c0-2.5-0.3-4.1-0.9-4.9C7,8.8,6.3,8.4,5.4,8.4c-0.8,0-1.5,0.4-2,1.1C2.8,10.4,2.4,12.1,2.4,14.6z"/>
	</g>
	<g transform="translate(659.8224,496.9333)">
		<path class="st3" d="M-10.2,22H-12V10.2c-0.4,0.4-1,0.9-1.8,1.3c-0.7,0.4-1.4,0.7-1.9,1v-1.8c1-0.5,1.9-1.1,2.7-1.8
			c0.8-0.7,1.3-1.4,1.6-2h1.2V22z M-5.4,14.6c0-1.8,0.2-3.2,0.5-4.3C-4.5,9.2-4,8.4-3.3,7.8c0.7-0.6,1.6-0.9,2.7-0.9
			c0.8,0,1.5,0.2,2.1,0.5c0.6,0.3,1.1,0.8,1.5,1.4C3.5,9.4,3.8,10.2,4,11c0.2,0.9,0.3,2.1,0.3,3.6c0,1.8-0.2,3.2-0.5,4.3
			c-0.4,1.1-0.9,1.9-1.6,2.5c-0.7,0.6-1.6,0.9-2.7,0.9c-1.4,0-2.6-0.5-3.4-1.5C-5,19.5-5.4,17.4-5.4,14.6z M-3.6,14.6
			c0,2.5,0.3,4.1,0.9,4.9s1.3,1.2,2.1,1.2c0.9,0,1.6-0.4,2.1-1.2c0.6-0.8,0.9-2.5,0.9-4.9c0-2.5-0.3-4.1-0.9-4.9
			C1,8.8,0.3,8.4-0.6,8.4c-0.8,0-1.5,0.4-2,1.1C-3.2,10.4-3.6,12.1-3.6,14.6z M6.2,14.6c0-1.8,0.2-3.2,0.5-4.3
			c0.4-1.1,0.9-1.9,1.6-2.5c0.7-0.6,1.6-0.9,2.7-0.9c0.8,0,1.5,0.2,2.1,0.5c0.6,0.3,1.1,0.8,1.5,1.4c0.4,0.6,0.7,1.4,0.9,2.2
			c0.2,0.9,0.3,2.1,0.3,3.6c0,1.8-0.2,3.2-0.5,4.3c-0.4,1.1-0.9,1.9-1.6,2.5c-0.7,0.6-1.6,0.9-2.7,0.9c-1.4,0-2.6-0.5-3.4-1.5
			C6.7,19.5,6.2,17.4,6.2,14.6z M8.1,14.6c0,2.5,0.3,4.1,0.9,4.9c0.6,0.8,1.3,1.2,2.1,1.2c0.9,0,1.6-0.4,2.1-1.2
			c0.6-0.8,0.9-2.5,0.9-4.9c0-2.5-0.3-4.1-0.9-4.9c-0.6-0.8-1.3-1.2-2.2-1.2c-0.8,0-1.5,0.4-2,1.1C8.4,10.4,8.1,12.1,8.1,14.6z"/>
	</g>
	<g transform="translate(380.5003,525.2667)">
		<path class="st3" d="M-9.3,24V7.5H-7l8.7,12.9V7.5h2.1V24H1.5l-8.6-12.9V24H-9.3z M7.1,9.9V7.5h2v2.3H7.1z M7.1,24V12.1h2V24H7.1z
			"/>
	</g>
	<g>
		<line class="st2" x1="96" y1="490" x2="96" y2="42"/>
		<line class="st2" x1="665" y1="490" x2="665" y2="42"/>
		<line class="st2" x1="96" y1="490" x2="101.7" y2="490"/>
		<line class="st2" x1="96" y1="340.7" x2="101.7" y2="340.7"/>
		<line class="st2" x1="96" y1="191.3" x2="101.7" y2="191.3"/>
		<line class="st2" x1="96" y1="42" x2="101.7" y2="42"/>
		<line class="st2" x1="665" y1="490" x2="659.3" y2="490"/>
		<line class="st2" x1="665" y1="340.7" x2="659.3" y2="340.7"/>
		<line class="st2" x1="665" y1="191.3" x2="659.3" y2="191.3"/>
		<line class="st2" x1="665" y1="42" x2="659.3" y2="42"/>
		<line class="st2" x1="96" y1="445" x2="98.8" y2="445"/>
		<line class="st2" x1="96" y1="418.7" x2="98.8" y2="418.7"/>
		<line class="st2" x1="96" y1="400.1" x2="98.8" y2="400.1"/>
		<line class="st2" x1="96" y1="385.6" x2="98.8" y2="385.6"/>
		<line class="st2" x1="96" y1="373.8" x2="98.8" y2="373.8"/>
		<line class="st2" x1="96" y1="363.8" x2="98.8" y2="363.8"/>
		<line class="st2" x1="96" y1="355.1" x2="98.8" y2="355.1"/>
		<line class="st2" x1="96" y1="347.5" x2="98.8" y2="347.5"/>
		<line class="st2" x1="96" y1="295.7" x2="98.8" y2="295.7"/>
		<line class="st2" x1="96" y1="269.4" x2="98.8" y2="269.4"/>
		<line class="st2" x1="96" y1="250.8" x2="98.8" y2="250.8"/>
		<line class="st2" x1="96" y1="236.3" x2="98.8" y2="236.3"/>
		<line class="st2" x1="96" y1="224.5" x2="98.8" y2="224.5"/>
		<line class="st2" x1="96" y1="214.5" x2="98.8" y2="214.5"/>
		<line class="st2" x1="96" y1="205.8" x2="98.8" y2="205.8"/>
		<line class="st2" x1="96" y1="198.2" x2="98.8" y2="198.2"/>
		<line class="st2" x1="96" y1="146.4" x2="98.8" y2="146.4"/>
		<line class="st2" x1="96" y1="120.1" x2="98.8" y2="120.1"/>
		<line class="st2" x1="96" y1="101.4" x2="98.8" y2="101.4"/>
		<line class="st2" x1="96" y1="87" x2="98.8" y2="87"/>
		<line class="st2" x1="96" y1="75.1" x2="98.8" y2="75.1"/>
		<line class="st2" x1="96" y1="65.1" x2="98.8" y2="65.1"/>
		<line class="st2" x1="96" y1="56.5" x2="98.8" y2="56.5"/>
		<line class="st2" x1="96" y1="48.8" x2="98.8" y2="48.8"/>
		<line class="st2" x1="665" y1="445" x2="662.2" y2="445"/>
		<line class="st2" x1="665" y1="418.7" x2="662.2" y2="418.7"/>
		<line class="st2" x1="665" y1="400.1" x2="662.2" y2="400.1"/>
		<line class="st2" x1="665" y1="385.6" x2="662.2" y2="385.6"/>
		<line class="st2" x1="665" y1="373.8" x2="662.2" y2="373.8"/>
		<line class="st2" x1="665" y1="363.8" x2="662.2" y2="363.8"/>
		<line class="st2" x1="665" y1="355.1" x2="662.2" y2="355.1"/>
		<line class="st2" x1="665" y1="347.5" x2="662.2" y2="347.5"/>
		<line class="st2" x1="665" y1="295.7" x2="662.2" y2="295.7"/>
		<line class="st2" x1="665" y1="269.4" x2="662.2" y2="269.4"/>
		<line class="st2" x1="665" y1="250.8" x2="662.2" y2="250.8"/>
		<line class="st2" x1="665" y1="236.3" x2="662.2" y2="236.3"/>
		<line class="st2" x1="665" y1="224.5" x2="662.2" y2="224.5"/>
		<line class="st2" x1="665" y1="214.5" x2="662.2" y2="214.5"/>
		<line class="st2" x1="665" y1="205.8" x2="662.2" y2="205.8"/>
		<line class="st2" x1="665" y1="198.2" x2="662.2" y2="198.2"/>
		<line class="st2" x1="665" y1="146.4" x2="662.2" y2="146.4"/>
		<line class="st2" x1="665" y1="120.1" x2="662.2" y2="120.1"/>
		<line class="st2" x1="665" y1="101.4" x2="662.2" y2="101.4"/>
		<line class="st2" x1="665" y1="87" x2="662.2" y2="87"/>
		<line class="st2" x1="665" y1="75.1" x2="662.2" y2="75.1"/>
		<line class="st2" x1="665" y1="65.1" x2="662.2" y2="65.1"/>
		<line class="st2" x1="665" y1="56.5" x2="662.2" y2="56.5"/>
		<line class="st2" x1="665" y1="48.8" x2="662.2" y2="48.8"/>
	</g>
	<g transform="translate(50,501)">
		<path class="st3" d="M7.8,0H6v-11.8c-0.4,0.4-1,0.9-1.8,1.3c-0.7,0.4-1.4,0.7-1.9,1v-1.8c1-0.5,1.9-1.1,2.7-1.8
			c0.8-0.7,1.3-1.4,1.6-2h1.2V0z M12.6-7.4c0-1.8,0.2-3.2,0.5-4.3c0.4-1.1,0.9-1.9,1.6-2.5c0.7-0.6,1.6-0.9,2.7-0.9
			c0.8,0,1.5,0.2,2.1,0.5c0.6,0.3,1.1,0.8,1.5,1.4c0.4,0.6,0.7,1.4,0.9,2.2c0.2,0.9,0.3,2.1,0.3,3.6c0,1.8-0.2,3.2-0.5,4.3
			c-0.4,1.1-0.9,1.9-1.6,2.5s-1.6,0.9-2.7,0.9c-1.4,0-2.6-0.5-3.4-1.5C13-2.5,12.6-4.6,12.6-7.4z M14.4-7.4c0,2.5,0.3,4.1,0.9,4.9
			c0.6,0.8,1.3,1.2,2.1,1.2c0.9,0,1.6-0.4,2.1-1.2c0.6-0.8,0.9-2.5,0.9-4.9c0-2.5-0.3-4.1-0.9-4.9c-0.6-0.8-1.3-1.2-2.2-1.2
			c-0.8,0-1.5,0.4-2,1.1C14.8-11.6,14.4-9.9,14.4-7.4z"/>
	</g>
	<g transform="translate(74,491)">
		<path class="st3" d="M0.5-3.4v-1.4h4.3v1.4H0.5z M6-3l1.4-0.2c0.2,0.8,0.4,1.4,0.8,1.7C8.6-1.1,9.1-1,9.7-1c0.7,0,1.2-0.2,1.7-0.7
			c0.5-0.5,0.7-1,0.7-1.7C12-4,11.8-4.5,11.4-5c-0.4-0.4-1-0.6-1.6-0.6c-0.3,0-0.6,0.1-1,0.2l0.2-1.2c0.1,0,0.2,0,0.2,0
			c0.6,0,1.1-0.2,1.6-0.5c0.5-0.3,0.7-0.8,0.7-1.5c0-0.5-0.2-0.9-0.5-1.3c-0.3-0.3-0.8-0.5-1.4-0.5s-1,0.2-1.4,0.5
			C7.9-9.5,7.7-9,7.5-8.3L6.1-8.5c0.2-0.9,0.6-1.7,1.2-2.2c0.6-0.5,1.4-0.8,2.3-0.8c0.6,0,1.2,0.1,1.7,0.4c0.5,0.3,0.9,0.6,1.2,1.1
			c0.3,0.5,0.4,1,0.4,1.5c0,0.5-0.1,1-0.4,1.4c-0.3,0.4-0.7,0.7-1.2,1c0.7,0.2,1.2,0.5,1.6,1c0.4,0.5,0.6,1.1,0.6,1.8
			c0,1-0.4,1.8-1.1,2.5c-0.7,0.7-1.7,1-2.8,1c-1,0-1.8-0.3-2.5-0.9C6.5-1.3,6.1-2.1,6-3z"/>
	</g>
	<g transform="translate(50,352)">
		<path class="st3" d="M7.8,0H6v-11.8c-0.4,0.4-1,0.9-1.8,1.3c-0.7,0.4-1.4,0.7-1.9,1v-1.8c1-0.5,1.9-1.1,2.7-1.8
			c0.8-0.7,1.3-1.4,1.6-2h1.2V0z M12.6-7.4c0-1.8,0.2-3.2,0.5-4.3c0.4-1.1,0.9-1.9,1.6-2.5c0.7-0.6,1.6-0.9,2.7-0.9
			c0.8,0,1.5,0.2,2.1,0.5c0.6,0.3,1.1,0.8,1.5,1.4c0.4,0.6,0.7,1.4,0.9,2.2c0.2,0.9,0.3,2.1,0.3,3.6c0,1.8-0.2,3.2-0.5,4.3
			c-0.4,1.1-0.9,1.9-1.6,2.5s-1.6,0.9-2.7,0.9c-1.4,0-2.6-0.5-3.4-1.5C13-2.5,12.6-4.6,12.6-7.4z M14.4-7.4c0,2.5,0.3,4.1,0.9,4.9
			c0.6,0.8,1.3,1.2,2.1,1.2c0.9,0,1.6-0.4,2.1-1.2c0.6-0.8,0.9-2.5,0.9-4.9c0-2.5-0.3-4.1-0.9-4.9c-0.6-0.8-1.3-1.2-2.2-1.2
			c-0.8,0-1.5,0.4-2,1.1C14.8-11.6,14.4-9.9,14.4-7.4z"/>
	</g>
	<g transform="translate(74,342)">
		<path class="st3" d="M0.5-3.4v-1.4h4.3v1.4H0.5z M13.4-1.4V0H5.8c0-0.3,0-0.7,0.2-1c0.2-0.5,0.5-1,0.9-1.5c0.4-0.5,1-1.1,1.8-1.7
			c1.2-1,2.1-1.8,2.5-2.4c0.4-0.6,0.7-1.2,0.7-1.7c0-0.6-0.2-1-0.6-1.4c-0.4-0.4-0.9-0.6-1.6-0.6c-0.7,0-1.2,0.2-1.6,0.6
			C7.7-9.3,7.5-8.8,7.5-8L6.1-8.2c0.1-1.1,0.5-1.9,1.1-2.5c0.6-0.6,1.5-0.8,2.6-0.8c1.1,0,2,0.3,2.6,0.9c0.6,0.6,1,1.4,1,2.3
			c0,0.5-0.1,0.9-0.3,1.4c-0.2,0.4-0.5,0.9-0.9,1.4c-0.4,0.5-1.2,1.2-2.2,2C9.1-2.9,8.6-2.4,8.4-2.1C8.1-1.9,7.9-1.6,7.8-1.4H13.4z"
			/>
	</g>
	<g transform="translate(50,202)">
		<path class="st3" d="M7.8,0H6v-11.8c-0.4,0.4-1,0.9-1.8,1.3c-0.7,0.4-1.4,0.7-1.9,1v-1.8c1-0.5,1.9-1.1,2.7-1.8
			c0.8-0.7,1.3-1.4,1.6-2h1.2V0z M12.6-7.4c0-1.8,0.2-3.2,0.5-4.3c0.4-1.1,0.9-1.9,1.6-2.5c0.7-0.6,1.6-0.9,2.7-0.9
			c0.8,0,1.5,0.2,2.1,0.5c0.6,0.3,1.1,0.8,1.5,1.4c0.4,0.6,0.7,1.4,0.9,2.2c0.2,0.9,0.3,2.1,0.3,3.6c0,1.8-0.2,3.2-0.5,4.3
			c-0.4,1.1-0.9,1.9-1.6,2.5s-1.6,0.9-2.7,0.9c-1.4,0-2.6-0.5-3.4-1.5C13-2.5,12.6-4.6,12.6-7.4z M14.4-7.4c0,2.5,0.3,4.1,0.9,4.9
			c0.6,0.8,1.3,1.2,2.1,1.2c0.9,0,1.6-0.4,2.1-1.2c0.6-0.8,0.9-2.5,0.9-4.9c0-2.5-0.3-4.1-0.9-4.9c-0.6-0.8-1.3-1.2-2.2-1.2
			c-0.8,0-1.5,0.4-2,1.1C14.8-11.6,14.4-9.9,14.4-7.4z"/>
	</g>
	<g transform="translate(74,192)">
		<path class="st3" d="M0.5-3.4v-1.4h4.3v1.4H0.5z M11.3,0H9.9v-9C9.5-8.6,9.1-8.3,8.6-8C8-7.7,7.5-7.4,7.1-7.3v-1.4
			C7.9-9,8.5-9.5,9.1-10c0.6-0.5,1-1,1.3-1.5h0.9V0z"/>
	</g>
	<g transform="translate(56,53)">
		<path class="st3" d="M7.8,0H6v-11.8c-0.4,0.4-1,0.9-1.8,1.3c-0.7,0.4-1.4,0.7-1.9,1v-1.8c1-0.5,1.9-1.1,2.7-1.8
			c0.8-0.7,1.3-1.4,1.6-2h1.2V0z M12.6-7.4c0-1.8,0.2-3.2,0.5-4.3c0.4-1.1,0.9-1.9,1.6-2.5c0.7-0.6,1.6-0.9,2.7-0.9
			c0.8,0,1.5,0.2,2.1,0.5c0.6,0.3,1.1,0.8,1.5,1.4c0.4,0.6,0.7,1.4,0.9,2.2c0.2,0.9,0.3,2.1,0.3,3.6c0,1.8-0.2,3.2-0.5,4.3
			c-0.4,1.1-0.9,1.9-1.6,2.5s-1.6,0.9-2.7,0.9c-1.4,0-2.6-0.5-3.4-1.5C13-2.5,12.6-4.6,12.6-7.4z M14.4-7.4c0,2.5,0.3,4.1,0.9,4.9
			c0.6,0.8,1.3,1.2,2.1,1.2c0.9,0,1.6-0.4,2.1-1.2c0.6-0.8,0.9-2.5,0.9-4.9c0-2.5-0.3-4.1-0.9-4.9c-0.6-0.8-1.3-1.2-2.2-1.2
			c-0.8,0-1.5,0.4-2,1.1C14.8-11.6,14.4-9.9,14.4-7.4z"/>
	</g>
	<g transform="translate(80,43)">
		<path class="st3" d="M0.7-5.7c0-1.4,0.1-2.4,0.4-3.3c0.3-0.8,0.7-1.5,1.2-1.9c0.6-0.4,1.2-0.7,2.1-0.7c0.6,0,1.2,0.1,1.6,0.4
			c0.5,0.2,0.8,0.6,1.1,1.1c0.3,0.5,0.5,1,0.7,1.7c0.2,0.7,0.3,1.6,0.3,2.7c0,1.3-0.1,2.4-0.4,3.3C7.5-1.6,7-0.9,6.5-0.5
			C5.9,0,5.2,0.2,4.4,0.2c-1.1,0-2-0.4-2.6-1.2C1-1.9,0.7-3.5,0.7-5.7z M2.1-5.7c0,1.9,0.2,3.1,0.7,3.8C3.2-1.3,3.8-1,4.4-1
			C5.1-1,5.6-1.3,6-1.9c0.4-0.6,0.7-1.9,0.7-3.8c0-1.9-0.2-3.1-0.7-3.8c-0.4-0.6-1-0.9-1.6-0.9c-0.6,0-1.2,0.3-1.5,0.8
			C2.4-8.8,2.1-7.5,2.1-5.7z"/>
	</g>
	<g transform="translate(40,288) rotate(-90)">
		<path class="st3" d="M1.3,0C1.1,0,1.1-0.1,1.1-0.2c0,0,0,0,0,0c0,0,0,0,0-0.1l7.9-16c0.1-0.2,0.2-0.3,0.4-0.3h0.3
			c0.2,0,0.4,0.1,0.4,0.3l7.9,16c0,0,0,0,0,0c0,0,0,0,0,0C18.1-0.1,18,0,17.9,0H1.3z M2.8-1.8h12.1L8.8-14L2.8-1.8z"/>
	</g>
	<g transform="translate(40,268) rotate(-90)">
		<path class="st3" d="M19-16.5h2.2V-7c0,1.7-0.2,3-0.6,3.9c-0.4,1-1,1.8-2,2.4c-1,0.6-2.3,0.9-3.8,0.9c-1.5,0-2.8-0.3-3.8-0.8
			C9.9-1,9.2-1.8,8.8-2.8C8.4-3.8,8.2-5.2,8.2-7v-9.5h2.2V-7c0,1.4,0.1,2.5,0.4,3.2c0.3,0.7,0.7,1.2,1.4,1.6
			c0.7,0.4,1.4,0.5,2.4,0.5c1.6,0,2.7-0.4,3.4-1.1c0.7-0.7,1-2.1,1-4.2V-16.5z"/>
	</g>
	<g>
		<path class="st4" d="M135.1,160.9l121.4,112.8l192.4,103.5l210.9,7.2"/>
		<line class="st4" x1="131" y1="160.5" x2="140" y2="160.5"/>
		<line class="st4" x1="135.5" y1="165" x2="135.5" y2="156"/>
		<line class="st4" x1="132" y1="164" x2="139" y2="157"/>
		<line class="st4" x1="132" y1="157" x2="139" y2="164"/>
		<line class="st4" x1="252" y1="273.5" x2="261" y2="273.5"/>
		<line class="st4" x1="256.5" y1="278" x2="256.5" y2="269"/>
		<line class="st4" x1="253" y1="277" x2="260" y2="270"/>
		<line class="st4" x1="253" y1="270" x2="260" y2="277"/>
		<line class="st4" x1="444" y1="377.5" x2="453" y2="377.5"/>
		<line class="st4" x1="448.5" y1="382" x2="448.5" y2="373"/>
		<line class="st4" x1="445" y1="381" x2="452" y2="374"/>
		<line class="st4" x1="445" y1="374" x2="452" y2="381"/>
		<line class="st4" x1="655" y1="384.5" x2="664" y2="384.5"/>
		<line class="st4" x1="659.5" y1="389" x2="659.5" y2="380"/>
		<line class="st4" x1="656" y1="388" x2="663" y2="381"/>
		<line class="st4" x1="656" y1="381" x2="663" y2="388"/>
	</g>
	<g>
		<path class="st1" d="M496,97V42h169v55H496z"/>
	</g>
	<g transform="translate(539,74)">
		<path d="M1,0C0.9,0,0.9-0.1,0.9-0.2c0,0,0,0,0,0c0,0,0,0,0,0l6.5-13.2c0.1-0.1,0.2-0.2,0.3-0.2H8c0.2,0,0.3,0.1,0.3,0.2l6.5,13.2
			c0,0,0,0,0,0c0,0,0,0,0,0c0,0.1-0.1,0.2-0.2,0.2H1z M2.3-1.5h10l-5-10.1L2.3-1.5z"/>
	</g>
	<g transform="translate(555,74)">
		<path d="M15.7-13.6h1.8v7.8c0,1.4-0.2,2.5-0.5,3.3c-0.3,0.8-0.9,1.5-1.7,2c-0.8,0.5-1.9,0.8-3.2,0.8C10.9,0.2,9.8,0,9-0.4
			C8.2-0.9,7.6-1.5,7.3-2.3C7-3.2,6.8-4.3,6.8-5.8v-7.8h1.8v7.8c0,1.2,0.1,2,0.3,2.6c0.2,0.6,0.6,1,1.1,1.3c0.5,0.3,1.2,0.5,2,0.5
			c1.3,0,2.3-0.3,2.8-0.9c0.6-0.6,0.8-1.8,0.8-3.5V-13.6z M34.3-8h-9v-1.6h9V-8z M34.3-3.9h-9v-1.5h9V-3.9z M42.4,4v-17.8h1.5V4
			H42.4z M56-13.6h1.8v7.8c0,1.4-0.2,2.5-0.5,3.3c-0.3,0.8-0.9,1.5-1.7,2c-0.8,0.5-1.9,0.8-3.2,0.8c-1.3,0-2.3-0.2-3.1-0.7
			c-0.8-0.4-1.4-1.1-1.7-1.9s-0.5-2-0.5-3.4v-7.8h1.8v7.8c0,1.2,0.1,2,0.3,2.6c0.2,0.6,0.6,1,1.1,1.3c0.5,0.3,1.2,0.5,2,0.5
			c1.3,0,2.3-0.3,2.8-0.9C55.7-2.9,56-4,56-5.8V-13.6z"/>
	</g>
	<g transform="translate(615,83)">
		<path d="M5.6,0H4.3v-8.4C4-8.1,3.5-7.8,3-7.5C2.5-7.2,2-7,1.6-6.8v-1.3C2.4-8.4,3-8.9,3.6-9.3c0.6-0.5,0.9-1,1.2-1.4h0.9V0z"/>
	</g>
	<g transform="translate(624,74)">
		<path d="M0.6-4.1v-1.7h5.1v1.7H0.6z M16.7-13.6h1.8v7.8c0,1.4-0.2,2.5-0.5,3.3c-0.3,0.8-0.9,1.5-1.7,2c-0.8,0.5-1.9,0.8-3.2,0.8
			c-1.3,0-2.3-0.2-3.1-0.7C9.3-0.9,8.7-1.5,8.3-2.3C8-3.2,7.8-4.3,7.8-5.8v-7.8h1.8v7.8c0,1.2,0.1,2,0.3,2.6c0.2,0.6,0.6,1,1.1,1.3
			c0.5,0.3,1.2,0.5,2,0.5c1.3,0,2.3-0.3,2.8-0.9c0.6-0.6,0.8-1.8,0.8-3.5V-13.6z"/>
	</g>
	<g transform="translate(645,83)">
		<path d="M3.9-1.2L4.1,0c-0.4,0.1-0.7,0.1-1,0.1C2.6,0.1,2.2,0,1.9-0.1C1.7-0.3,1.5-0.5,1.4-0.7C1.3-1,1.2-1.5,1.2-2.3v-4.5h-1v-1
			h1v-1.9l1.3-0.8v2.7h1.3v1H2.5v4.5c0,0.4,0,0.6,0.1,0.7c0,0.1,0.1,0.2,0.2,0.3c0.1,0.1,0.2,0.1,0.4,0.1C3.4-1.1,3.6-1.1,3.9-1.2z"
			/>
	</g>
	<g transform="translate(650,74)">
		<path d="M1.8,4v-17.8h1.5V4H1.8z"/>
	</g>
	<g>
		<line class="st4" x1="506" y1="69.5" x2="536" y2="69.5"/>
		<line class="st4" x1="516" y1="69.5" x2="525" y2="69.5"/>
		<line class="st4" x1="520.5" y1="74" x2="520.5" y2="65"/>
		<line class="st4" x1="517" y1="73" x2="524" y2="66"/>
		<line class="st4" x1="517" y1="66" x2="524" y2="73"/>
	</g>
	<g>
		<path class="st5" d="M496,97V42h169v55H496z"/>
	</g>
</g>
</svg>
