<?xml version="1.0" encoding="utf-8"?>
<!-- Generator: Adobe Illustrator 21.1.0, SVG Export Plug-In . SVG Version: 6.00 Build 0)  -->
<svg version="1.1" id="Layer_1" xmlns="http://www.w3.org/2000/svg" xmlns:xlink="http://www.w3.org/1999/xlink" x="0px" y="0px"
	 viewBox="0 0 731 622" style="enable-background:new 0 0 731 622;" xml:space="preserve">
<style type="text/css">
	.st0{clip-path:url(#SVGID_2_);fill:#FFFFFF;}
	.st1{fill:#FFFFFF;}
	.st2{fill:none;stroke:#262626;stroke-width:0.6667;stroke-linecap:square;stroke-linejoin:round;stroke-miterlimit:10;}
	.st3{fill:#262626;}
	.st4{fill:none;stroke:#FF0000;stroke-width:2.6667;stroke-linejoin:round;stroke-miterlimit:10;}
	.st5{fill:none;stroke:#0000FF;stroke-width:2.6667;stroke-linejoin:round;stroke-miterlimit:10;}
	.st6{fill:none;stroke:#262626;stroke-width:0.6667;stroke-miterlimit:10;}
</style>
<g>
	<g>
		<g>
			<defs>
				<rect id="SVGID_1_" y="-3" width="731" height="622"/>
			</defs>
			<clipPath id="SVGID_2_">
				<use xlink:href="#SVGID_1_"  style="overflow:visible;"/>
			</clipPath>
			<rect y="-3" class="st0" width="731" height="622"/>
		</g>
	</g>
	<g>
		<rect y="-3" class="st1" width="731" height="622"/>
		<path class="st1" d="M95,551h567V44H95V551z"/>
	</g>
	<g>
		<line class="st2" x1="95" y1="551" x2="662" y2="551"/>
		<line class="st2" x1="95" y1="44" x2="662" y2="44"/>
		<line class="st2" x1="95" y1="551" x2="95" y2="545.3"/>
		<line class="st2" x1="198.1" y1="551" x2="198.1" y2="545.3"/>
		<line class="st2" x1="301.2" y1="551" x2="301.2" y2="545.3"/>
		<line class="st2" x1="404.3" y1="551" x2="404.3" y2="545.3"/>
		<line class="st2" x1="507.4" y1="551" x2="507.4" y2="545.3"/>
		<line class="st2" x1="610.5" y1="551" x2="610.5" y2="545.3"/>
		<line class="st2" x1="95" y1="44" x2="95" y2="49.7"/>
		<line class="st2" x1="198.1" y1="44" x2="198.1" y2="49.7"/>
		<line class="st2" x1="301.2" y1="44" x2="301.2" y2="49.7"/>
		<line class="st2" x1="404.3" y1="44" x2="404.3" y2="49.7"/>
		<line class="st2" x1="507.4" y1="44" x2="507.4" y2="49.7"/>
		<line class="st2" x1="610.5" y1="44" x2="610.5" y2="49.7"/>
	</g>
	<g transform="translate(95,560.9333)">
		<path class="st3" d="M-5.1,11.6c0-1.8,0.2-3.2,0.5-4.3C-4.2,6.2-3.7,5.4-3,4.8c0.7-0.6,1.6-0.9,2.7-0.9c0.8,0,1.5,0.2,2.1,0.5
			C2.5,4.7,3,5.2,3.4,5.8C3.8,6.4,4.1,7.2,4.3,8c0.2,0.9,0.3,2.1,0.3,3.6c0,1.8-0.2,3.2-0.5,4.3c-0.4,1.1-0.9,1.9-1.6,2.5
			c-0.7,0.6-1.6,0.9-2.7,0.9c-1.4,0-2.6-0.5-3.4-1.5C-4.6,16.5-5.1,14.4-5.1,11.6z M-3.2,11.6c0,2.5,0.3,4.1,0.9,4.9
			s1.3,1.2,2.1,1.2c0.9,0,1.6-0.4,2.1-1.2c0.6-0.8,0.9-2.5,0.9-4.9c0-2.5-0.3-4.1-0.9-4.9C1.3,5.8,0.6,5.4-0.3,5.4
			c-0.8,0-1.5,0.4-2,1.1C-2.9,7.4-3.2,9.1-3.2,11.6z"/>
	</g>
	<g transform="translate(198.0909,560.9333)">
		<path class="st3" d="M-19.6,11.6c0-1.8,0.2-3.2,0.5-4.3c0.4-1.1,0.9-1.9,1.6-2.5c0.7-0.6,1.6-0.9,2.7-0.9c0.8,0,1.5,0.2,2.1,0.5
			c0.6,0.3,1.1,0.8,1.5,1.4c0.4,0.6,0.7,1.4,0.9,2.2c0.2,0.9,0.3,2.1,0.3,3.6c0,1.8-0.2,3.2-0.5,4.3c-0.4,1.1-0.9,1.9-1.6,2.5
			c-0.7,0.6-1.6,0.9-2.7,0.9c-1.4,0-2.6-0.5-3.4-1.5C-19.1,16.5-19.6,14.4-19.6,11.6z M-17.7,11.6c0,2.5,0.3,4.1,0.9,4.9
			s1.3,1.2,2.1,1.2c0.9,0,1.6-0.4,2.1-1.2c0.6-0.8,0.9-2.5,0.9-4.9c0-2.5-0.3-4.1-0.9-4.9c-0.6-0.8-1.3-1.2-2.2-1.2
			c-0.8,0-1.5,0.4-2,1.1C-17.4,7.4-17.7,9.1-17.7,11.6z M-6.9,19v-2.1h2.1V19H-6.9z M-2.1,11.6c0-1.8,0.2-3.2,0.5-4.3
			c0.4-1.1,0.9-1.9,1.6-2.5c0.7-0.6,1.6-0.9,2.7-0.9c0.8,0,1.5,0.2,2.1,0.5C5.5,4.7,6,5.2,6.4,5.8C6.8,6.4,7.1,7.2,7.3,8
			c0.2,0.9,0.3,2.1,0.3,3.6c0,1.8-0.2,3.2-0.5,4.3c-0.4,1.1-0.9,1.9-1.6,2.5c-0.7,0.6-1.6,0.9-2.7,0.9c-1.4,0-2.6-0.5-3.4-1.5
			C-1.6,16.5-2.1,14.4-2.1,11.6z M-0.2,11.6c0,2.5,0.3,4.1,0.9,4.9s1.3,1.2,2.1,1.2c0.9,0,1.6-0.4,2.1-1.2s0.9-2.5,0.9-4.9
			c0-2.5-0.3-4.1-0.9-4.9C4.3,5.8,3.6,5.4,2.8,5.4c-0.8,0-1.5,0.4-2,1.1C0.1,7.4-0.2,9.1-0.2,11.6z M16.5,19h-1.8V7.2
			c-0.4,0.4-1,0.9-1.8,1.3c-0.7,0.4-1.4,0.7-1.9,1V7.7c1-0.5,1.9-1.1,2.7-1.8c0.8-0.7,1.3-1.4,1.6-2h1.2V19z"/>
	</g>
	<g transform="translate(301.1818,560.9333)">
		<path class="st3" d="M-19.6,11.6c0-1.8,0.2-3.2,0.5-4.3c0.4-1.1,0.9-1.9,1.6-2.5c0.7-0.6,1.6-0.9,2.7-0.9c0.8,0,1.5,0.2,2.1,0.5
			c0.6,0.3,1.1,0.8,1.5,1.4c0.4,0.6,0.7,1.4,0.9,2.2c0.2,0.9,0.3,2.1,0.3,3.6c0,1.8-0.2,3.2-0.5,4.3c-0.4,1.1-0.9,1.9-1.6,2.5
			c-0.7,0.6-1.6,0.9-2.7,0.9c-1.4,0-2.6-0.5-3.4-1.5C-19.1,16.5-19.6,14.4-19.6,11.6z M-17.7,11.6c0,2.5,0.3,4.1,0.9,4.9
			s1.3,1.2,2.1,1.2c0.9,0,1.6-0.4,2.1-1.2c0.6-0.8,0.9-2.5,0.9-4.9c0-2.5-0.3-4.1-0.9-4.9c-0.6-0.8-1.3-1.2-2.2-1.2
			c-0.8,0-1.5,0.4-2,1.1C-17.4,7.4-17.7,9.1-17.7,11.6z M-6.9,19v-2.1h2.1V19H-6.9z M-2.1,11.6c0-1.8,0.2-3.2,0.5-4.3
			c0.4-1.1,0.9-1.9,1.6-2.5c0.7-0.6,1.6-0.9,2.7-0.9c0.8,0,1.5,0.2,2.1,0.5C5.5,4.7,6,5.2,6.4,5.8C6.8,6.4,7.1,7.2,7.3,8
			c0.2,0.9,0.3,2.1,0.3,3.6c0,1.8-0.2,3.2-0.5,4.3c-0.4,1.1-0.9,1.9-1.6,2.5c-0.7,0.6-1.6,0.9-2.7,0.9c-1.4,0-2.6-0.5-3.4-1.5
			C-1.6,16.5-2.1,14.4-2.1,11.6z M-0.2,11.6c0,2.5,0.3,4.1,0.9,4.9s1.3,1.2,2.1,1.2c0.9,0,1.6-0.4,2.1-1.2s0.9-2.5,0.9-4.9
			c0-2.5-0.3-4.1-0.9-4.9C4.3,5.8,3.6,5.4,2.8,5.4c-0.8,0-1.5,0.4-2,1.1C0.1,7.4-0.2,9.1-0.2,11.6z M19.3,17.2V19H9.3
			c0-0.4,0-0.9,0.2-1.3c0.3-0.7,0.7-1.3,1.2-2c0.6-0.7,1.4-1.4,2.4-2.3c1.6-1.3,2.7-2.4,3.3-3.2c0.6-0.8,0.9-1.5,0.9-2.2
			c0-0.7-0.3-1.3-0.8-1.8c-0.5-0.5-1.2-0.8-2-0.8c-0.9,0-1.6,0.3-2.1,0.8c-0.5,0.5-0.8,1.3-0.8,2.2L9.7,8.2c0.1-1.4,0.6-2.5,1.5-3.2
			c0.8-0.7,2-1.1,3.4-1.1c1.4,0,2.6,0.4,3.4,1.2c0.8,0.8,1.3,1.8,1.3,3c0,0.6-0.1,1.2-0.4,1.8c-0.2,0.6-0.7,1.2-1.2,1.8
			s-1.5,1.5-2.8,2.6c-1.1,0.9-1.8,1.6-2.1,1.9c-0.3,0.3-0.6,0.7-0.8,1H19.3z"/>
	</g>
	<g transform="translate(404.2727,560.9333)">
		<path class="st3" d="M-19.6,11.6c0-1.8,0.2-3.2,0.5-4.3c0.4-1.1,0.9-1.9,1.6-2.5c0.7-0.6,1.6-0.9,2.7-0.9c0.8,0,1.5,0.2,2.1,0.5
			c0.6,0.3,1.1,0.8,1.5,1.4c0.4,0.6,0.7,1.4,0.9,2.2c0.2,0.9,0.3,2.1,0.3,3.6c0,1.8-0.2,3.2-0.5,4.3c-0.4,1.1-0.9,1.9-1.6,2.5
			c-0.7,0.6-1.6,0.9-2.7,0.9c-1.4,0-2.6-0.5-3.4-1.5C-19.1,16.5-19.6,14.4-19.6,11.6z M-17.7,11.6c0,2.5,0.3,4.1,0.9,4.9
			s1.3,1.2,2.1,1.2c0.9,0,1.6-0.4,2.1-1.2c0.6-0.8,0.9-2.5,0.9-4.9c0-2.5-0.3-4.1-0.9-4.9c-0.6-0.8-1.3-1.2-2.2-1.2
			c-0.8,0-1.5,0.4-2,1.1C-17.4,7.4-17.7,9.1-17.7,11.6z M-6.9,19v-2.1h2.1V19H-6.9z M-2.1,11.6c0-1.8,0.2-3.2,0.5-4.3
			c0.4-1.1,0.9-1.9,1.6-2.5c0.7-0.6,1.6-0.9,2.7-0.9c0.8,0,1.5,0.2,2.1,0.5C5.5,4.7,6,5.2,6.4,5.8C6.8,6.4,7.1,7.2,7.3,8
			c0.2,0.9,0.3,2.1,0.3,3.6c0,1.8-0.2,3.2-0.5,4.3c-0.4,1.1-0.9,1.9-1.6,2.5c-0.7,0.6-1.6,0.9-2.7,0.9c-1.4,0-2.6-0.5-3.4-1.5
			C-1.6,16.5-2.1,14.4-2.1,11.6z M-0.2,11.6c0,2.5,0.3,4.1,0.9,4.9s1.3,1.2,2.1,1.2c0.9,0,1.6-0.4,2.1-1.2s0.9-2.5,0.9-4.9
			c0-2.5-0.3-4.1-0.9-4.9C4.3,5.8,3.6,5.4,2.8,5.4c-0.8,0-1.5,0.4-2,1.1C0.1,7.4-0.2,9.1-0.2,11.6z M9.6,15l1.9-0.3
			c0.2,1.1,0.6,1.8,1.1,2.3c0.5,0.5,1.1,0.7,1.9,0.7c0.9,0,1.6-0.3,2.2-0.9c0.6-0.6,0.9-1.3,0.9-2.2c0-0.8-0.3-1.5-0.8-2.1
			c-0.6-0.6-1.3-0.8-2.1-0.8c-0.4,0-0.8,0.1-1.3,0.2l0.2-1.6c0.1,0,0.2,0,0.3,0c0.8,0,1.5-0.2,2.1-0.6c0.6-0.4,0.9-1,0.9-1.9
			c0-0.7-0.2-1.2-0.7-1.7c-0.5-0.4-1.1-0.7-1.8-0.7c-0.7,0-1.3,0.2-1.8,0.7c-0.5,0.5-0.8,1.1-0.9,2L9.8,7.8c0.2-1.2,0.7-2.2,1.5-2.9
			c0.8-0.7,1.8-1,3-1c0.8,0,1.6,0.2,2.3,0.5c0.7,0.4,1.2,0.8,1.6,1.4c0.4,0.6,0.5,1.2,0.5,1.9c0,0.6-0.2,1.2-0.5,1.8s-0.9,1-1.5,1.3
			c0.9,0.2,1.6,0.6,2.1,1.3c0.5,0.6,0.7,1.5,0.7,2.4c0,1.3-0.5,2.4-1.4,3.3c-1,0.9-2.2,1.4-3.6,1.4c-1.3,0-2.4-0.4-3.3-1.2
			C10.2,17.3,9.7,16.3,9.6,15z"/>
	</g>
	<g transform="translate(507.3636,560.9333)">
		<path class="st3" d="M-19.6,11.6c0-1.8,0.2-3.2,0.5-4.3c0.4-1.1,0.9-1.9,1.6-2.5c0.7-0.6,1.6-0.9,2.7-0.9c0.8,0,1.5,0.2,2.1,0.5
			c0.6,0.3,1.1,0.8,1.5,1.4c0.4,0.6,0.7,1.4,0.9,2.2c0.2,0.9,0.3,2.1,0.3,3.6c0,1.8-0.2,3.2-0.5,4.3c-0.4,1.1-0.9,1.9-1.6,2.5
			c-0.7,0.6-1.6,0.9-2.7,0.9c-1.4,0-2.6-0.5-3.4-1.5C-19.1,16.5-19.6,14.4-19.6,11.6z M-17.7,11.6c0,2.5,0.3,4.1,0.9,4.9
			s1.3,1.2,2.1,1.2c0.9,0,1.6-0.4,2.1-1.2c0.6-0.8,0.9-2.5,0.9-4.9c0-2.5-0.3-4.1-0.9-4.9c-0.6-0.8-1.3-1.2-2.2-1.2
			c-0.8,0-1.5,0.4-2,1.1C-17.4,7.4-17.7,9.1-17.7,11.6z M-6.9,19v-2.1h2.1V19H-6.9z M-2.1,11.6c0-1.8,0.2-3.2,0.5-4.3
			c0.4-1.1,0.9-1.9,1.6-2.5c0.7-0.6,1.6-0.9,2.7-0.9c0.8,0,1.5,0.2,2.1,0.5C5.5,4.7,6,5.2,6.4,5.8C6.8,6.4,7.1,7.2,7.3,8
			c0.2,0.9,0.3,2.1,0.3,3.6c0,1.8-0.2,3.2-0.5,4.3c-0.4,1.1-0.9,1.9-1.6,2.5c-0.7,0.6-1.6,0.9-2.7,0.9c-1.4,0-2.6-0.5-3.4-1.5
			C-1.6,16.5-2.1,14.4-2.1,11.6z M-0.2,11.6c0,2.5,0.3,4.1,0.9,4.9s1.3,1.2,2.1,1.2c0.9,0,1.6-0.4,2.1-1.2s0.9-2.5,0.9-4.9
			c0-2.5-0.3-4.1-0.9-4.9C4.3,5.8,3.6,5.4,2.8,5.4c-0.8,0-1.5,0.4-2,1.1C0.1,7.4-0.2,9.1-0.2,11.6z M15.5,19v-3.6H9v-1.7L15.8,4h1.5
			v9.7h2v1.7h-2V19H15.5z M15.5,13.7V6.9l-4.7,6.8H15.5z"/>
	</g>
	<g transform="translate(610.4545,560.9333)">
		<path class="st3" d="M-19.6,11.6c0-1.8,0.2-3.2,0.5-4.3c0.4-1.1,0.9-1.9,1.6-2.5c0.7-0.6,1.6-0.9,2.7-0.9c0.8,0,1.5,0.2,2.1,0.5
			c0.6,0.3,1.1,0.8,1.5,1.4c0.4,0.6,0.7,1.4,0.9,2.2c0.2,0.9,0.3,2.1,0.3,3.6c0,1.8-0.2,3.2-0.5,4.3c-0.4,1.1-0.9,1.9-1.6,2.5
			c-0.7,0.6-1.6,0.9-2.7,0.9c-1.4,0-2.6-0.5-3.4-1.5C-19.1,16.5-19.6,14.4-19.6,11.6z M-17.7,11.6c0,2.5,0.3,4.1,0.9,4.9
			s1.3,1.2,2.1,1.2c0.9,0,1.6-0.4,2.1-1.2c0.6-0.8,0.9-2.5,0.9-4.9c0-2.5-0.3-4.1-0.9-4.9c-0.6-0.8-1.3-1.2-2.2-1.2
			c-0.8,0-1.5,0.4-2,1.1C-17.4,7.4-17.7,9.1-17.7,11.6z M-6.9,19v-2.1h2.1V19H-6.9z M-2.1,11.6c0-1.8,0.2-3.2,0.5-4.3
			c0.4-1.1,0.9-1.9,1.6-2.5c0.7-0.6,1.6-0.9,2.7-0.9c0.8,0,1.5,0.2,2.1,0.5C5.5,4.7,6,5.2,6.4,5.8C6.8,6.4,7.1,7.2,7.3,8
			c0.2,0.9,0.3,2.1,0.3,3.6c0,1.8-0.2,3.2-0.5,4.3c-0.4,1.1-0.9,1.9-1.6,2.5c-0.7,0.6-1.6,0.9-2.7,0.9c-1.4,0-2.6-0.5-3.4-1.5
			C-1.6,16.5-2.1,14.4-2.1,11.6z M-0.2,11.6c0,2.5,0.3,4.1,0.9,4.9s1.3,1.2,2.1,1.2c0.9,0,1.6-0.4,2.1-1.2s0.9-2.5,0.9-4.9
			c0-2.5-0.3-4.1-0.9-4.9C4.3,5.8,3.6,5.4,2.8,5.4c-0.8,0-1.5,0.4-2,1.1C0.1,7.4-0.2,9.1-0.2,11.6z M9.6,15.1l1.9-0.2
			c0.1,0.9,0.5,1.7,1,2.1c0.5,0.5,1.2,0.7,1.9,0.7c0.9,0,1.6-0.3,2.3-1c0.6-0.7,0.9-1.6,0.9-2.7c0-1.1-0.3-1.9-0.9-2.5
			c-0.6-0.6-1.4-0.9-2.3-0.9c-0.6,0-1.1,0.1-1.6,0.4c-0.5,0.3-0.9,0.6-1.1,1.1l-1.7-0.2l1.5-7.7h7.5v1.8h-6L12,10
			C12.9,9.3,13.9,9,14.8,9c1.3,0,2.4,0.5,3.3,1.4c0.9,0.9,1.4,2.1,1.4,3.5c0,1.4-0.4,2.5-1.2,3.5c-1,1.2-2.3,1.8-4,1.8
			c-1.4,0-2.5-0.4-3.3-1.1C10.2,17.3,9.7,16.3,9.6,15.1z"/>
	</g>
	<g transform="translate(341,596)">
		<path class="st3" d="M24.1,11.2c0,0.6,0.1,1.2,0.3,1.7c0.2,0.5,0.6,1,1,1.3c0.5,0.3,1,0.5,1.6,0.5c0.4,0,0.8-0.1,1.3-0.3
			c0.5-0.2,0.9-0.4,1.3-0.6c0.4-0.2,0.6-0.3,0.6-0.3c0.1,0,0.2,0.1,0.2,0.2c0.1,0.1,0.1,0.2,0.1,0.3c0,0.1,0,0.2-0.1,0.2
			c-1.1,0.8-2.3,1.2-3.5,1.2c-1,0-1.8-0.2-2.6-0.7c-0.8-0.5-1.4-1.1-1.8-1.9C22.2,12,22,11.1,22,10.2c0-1,0.2-1.9,0.6-2.7
			c0.4-0.9,0.9-1.6,1.6-2.2c0.7-0.6,1.4-1.1,2.3-1.5c0.9-0.4,1.8-0.5,2.7-0.5h1.6c0.3,0,0.4,0.1,0.4,0.4c0,0.1,0,0.3-0.1,0.4
			c-0.1,0.1-0.2,0.2-0.4,0.2h-1.5c-0.7,0-1.4,0.2-2,0.5C26.5,5,26,5.4,25.6,6c-0.4,0.6-0.7,1.2-0.9,1.9h4.9c0.1,0,0.2,0,0.3,0.1
			c0.1,0.1,0.1,0.2,0.1,0.3c0,0.1,0,0.3-0.1,0.4c-0.1,0.1-0.2,0.2-0.4,0.2h-5C24.2,9.8,24.1,10.6,24.1,11.2z"/>
	</g>
	<g transform="translate(351,585)">
		<path class="st3" d="M24.1,19v-8.8h1.3v1.2c0.3-0.4,0.7-0.8,1.1-1s1-0.4,1.6-0.4c0.7,0,1.2,0.1,1.6,0.4c0.4,0.3,0.7,0.7,0.9,1.1
			c0.7-1,1.6-1.5,2.7-1.5c0.9,0,1.5,0.2,2,0.7c0.5,0.5,0.7,1.2,0.7,2.2v6h-1.5v-5.5c0-0.6,0-1-0.1-1.3c-0.1-0.3-0.3-0.5-0.5-0.6
			c-0.3-0.2-0.6-0.2-0.9-0.2c-0.6,0-1.1,0.2-1.5,0.6c-0.4,0.4-0.6,1.1-0.6,2V19h-1.5v-5.7c0-0.7-0.1-1.2-0.4-1.5
			c-0.2-0.3-0.6-0.5-1.2-0.5c-0.4,0-0.8,0.1-1.2,0.3c-0.4,0.2-0.6,0.5-0.8,1c-0.2,0.4-0.2,1-0.2,1.8V19H24.1z M38.3,8.5V6.8h1.5v1.7
			H38.3z M38.3,19v-8.8h1.5V19H38.3z M42.1,19v-8.8h1.3v1.3c0.6-1,1.6-1.5,2.8-1.5c0.5,0,1,0.1,1.5,0.3c0.4,0.2,0.8,0.4,1,0.7
			c0.2,0.3,0.4,0.7,0.5,1.1c0.1,0.3,0.1,0.8,0.1,1.5V19h-1.5v-5.4c0-0.6-0.1-1.1-0.2-1.4c-0.1-0.3-0.3-0.5-0.6-0.7
			c-0.3-0.2-0.6-0.3-1-0.3c-0.6,0-1.2,0.2-1.6,0.6s-0.7,1.2-0.7,2.3V19H42.1z"/>
	</g>
	<g transform="translate(351,607)">
		<path class="st3" d="M30.8,21.3v-5.2c-0.3,0.4-0.7,0.7-1.2,1s-1,0.4-1.6,0.4c-1.3,0-2.3-0.5-3.2-1.5c-0.9-1-1.4-2.4-1.4-4.1
			c0-1.1,0.2-2,0.6-2.9s0.9-1.5,1.6-1.9c0.7-0.4,1.5-0.7,2.3-0.7c1.3,0,2.3,0.5,3.1,1.6V6.7h1.6v14.6H30.8z M25.3,11.9
			c0,1.4,0.3,2.4,0.9,3.1c0.6,0.7,1.2,1,2,1c0.8,0,1.4-0.3,2-1c0.5-0.6,0.8-1.6,0.8-2.9c0-1.4-0.3-2.5-0.9-3.2
			c-0.6-0.7-1.3-1.1-2-1.1c-0.8,0-1.4,0.3-2,1C25.5,9.5,25.3,10.5,25.3,11.9z"/>
	</g>
	<g transform="translate(361,618)">
		<path class="st3" d="M29.2,19h-1.3v-8.3c-0.3,0.3-0.7,0.6-1.2,0.9c-0.5,0.3-1,0.5-1.4,0.7V11c0.7-0.3,1.4-0.7,1.9-1.2
			c0.5-0.5,0.9-1,1.2-1.4h0.8V19z"/>
	</g>
	<g>
		<line class="st2" x1="95" y1="551" x2="95" y2="44"/>
		<line class="st2" x1="662" y1="551" x2="662" y2="44"/>
		<line class="st2" x1="95" y1="551" x2="100.7" y2="551"/>
		<line class="st2" x1="95" y1="469.2" x2="100.7" y2="469.2"/>
		<line class="st2" x1="95" y1="387.5" x2="100.7" y2="387.5"/>
		<line class="st2" x1="95" y1="305.7" x2="100.7" y2="305.7"/>
		<line class="st2" x1="95" y1="223.9" x2="100.7" y2="223.9"/>
		<line class="st2" x1="95" y1="142.1" x2="100.7" y2="142.1"/>
		<line class="st2" x1="95" y1="60.4" x2="100.7" y2="60.4"/>
		<line class="st2" x1="662" y1="551" x2="656.3" y2="551"/>
		<line class="st2" x1="662" y1="469.2" x2="656.3" y2="469.2"/>
		<line class="st2" x1="662" y1="387.5" x2="656.3" y2="387.5"/>
		<line class="st2" x1="662" y1="305.7" x2="656.3" y2="305.7"/>
		<line class="st2" x1="662" y1="223.9" x2="656.3" y2="223.9"/>
		<line class="st2" x1="662" y1="142.1" x2="656.3" y2="142.1"/>
		<line class="st2" x1="662" y1="60.4" x2="656.3" y2="60.4"/>
	</g>
	<g transform="translate(88.0667,554.0003)">
		<path class="st3" d="M-29-7.6v-1.8h9.7v1.4c-0.9,1-1.9,2.4-2.8,4.1c-0.9,1.7-1.7,3.4-2.2,5.2C-24.7,2.6-24.9,4-25,5.5h-1.9
			c0-1.2,0.3-2.6,0.7-4.3c0.4-1.7,1.1-3.3,1.9-4.8c0.8-1.6,1.7-2.9,2.7-3.9H-29z M-16.4,5.5V3.4h2.1v2.1H-16.4z M-11.5-7.6v-1.8h9.7
			v1.4c-0.9,1-1.9,2.4-2.8,4.1c-0.9,1.7-1.7,3.4-2.2,5.2C-7.2,2.6-7.4,4-7.5,5.5h-1.9c0-1.2,0.3-2.6,0.7-4.3
			c0.4-1.7,1.1-3.3,1.9-4.8c0.8-1.6,1.7-2.9,2.7-3.9H-11.5z"/>
	</g>
	<g transform="translate(88.0667,472.2258)">
		<path class="st3" d="M-40-7.6v-1.8h9.7v1.4c-0.9,1-1.9,2.4-2.8,4.1c-0.9,1.7-1.7,3.4-2.2,5.2C-35.7,2.6-35.9,4-36,5.5h-1.9
			c0-1.2,0.3-2.6,0.7-4.3c0.4-1.7,1.1-3.3,1.9-4.8c0.8-1.6,1.7-2.9,2.7-3.9H-40z M-27.4,5.5V3.4h2.1v2.1H-27.4z M-22.5-7.6v-1.8h9.7
			v1.4c-0.9,1-1.9,2.4-2.8,4.1c-0.9,1.7-1.7,3.4-2.2,5.2c-0.4,1.3-0.6,2.6-0.7,4.1h-1.9c0-1.2,0.3-2.6,0.7-4.3
			c0.4-1.7,1.1-3.3,1.9-4.8c0.8-1.6,1.7-2.9,2.7-3.9H-22.5z M-10.9,1.6L-9,1.4C-8.8,2.3-8.5,3-8,3.5C-7.5,4-6.8,4.2-6.1,4.2
			c0.9,0,1.6-0.3,2.2-1s0.9-1.6,0.9-2.7c0-1.1-0.3-1.9-0.9-2.5c-0.6-0.6-1.4-0.9-2.3-0.9c-0.6,0-1.1,0.1-1.6,0.4
			c-0.5,0.3-0.9,0.6-1.1,1.1l-1.7-0.2l1.5-7.7h7.5v1.8h-6l-0.8,4c0.9-0.6,1.8-0.9,2.8-0.9c1.3,0,2.4,0.5,3.3,1.4C-1.4-2.2-1-1-1,0.4
			c0,1.4-0.4,2.5-1.2,3.5c-1,1.2-2.3,1.8-4,1.8c-1.4,0-2.5-0.4-3.3-1.1C-10.3,3.8-10.8,2.8-10.9,1.6z"/>
	</g>
	<g transform="translate(88.0667,390.4513)">
		<path class="st3" d="M-29-7.6v-1.8h9.7v1.4c-0.9,1-1.9,2.4-2.8,4.1c-0.9,1.7-1.7,3.4-2.2,5.2C-24.7,2.6-24.9,4-25,5.5h-1.9
			c0-1.2,0.3-2.6,0.7-4.3c0.4-1.7,1.1-3.3,1.9-4.8c0.8-1.6,1.7-2.9,2.7-3.9H-29z M-16.4,5.5V3.4h2.1v2.1H-16.4z M-8.8-2.7
			c-0.8-0.3-1.3-0.7-1.7-1.2C-10.8-4.4-11-5-11-5.7c0-1.1,0.4-2,1.2-2.8S-8-9.6-6.7-9.6c1.3,0,2.4,0.4,3.2,1.1
			c0.8,0.8,1.2,1.7,1.2,2.8c0,0.7-0.2,1.3-0.5,1.8c-0.4,0.5-0.9,0.9-1.7,1.2c0.9,0.3,1.6,0.8,2.1,1.5C-2-0.5-1.7,0.3-1.7,1.2
			c0,1.3-0.5,2.4-1.4,3.2s-2.1,1.3-3.6,1.3c-1.5,0-2.7-0.4-3.6-1.3s-1.4-2-1.4-3.3c0-1,0.3-1.8,0.8-2.5S-9.7-2.4-8.8-2.7z M-9.1-5.8
			c0,0.7,0.2,1.3,0.7,1.7C-8-3.6-7.4-3.4-6.7-3.4C-6-3.4-5.4-3.6-4.9-4c0.5-0.4,0.7-1,0.7-1.6c0-0.7-0.2-1.2-0.7-1.7
			C-5.4-7.8-6-8.1-6.7-8.1c-0.7,0-1.3,0.2-1.8,0.7C-8.9-6.9-9.1-6.4-9.1-5.8z M-9.7,1.2c0,0.5,0.1,1,0.4,1.5s0.6,0.9,1.1,1.1
			c0.5,0.3,1,0.4,1.6,0.4c0.9,0,1.6-0.3,2.2-0.9s0.9-1.3,0.9-2.2c0-0.9-0.3-1.6-0.9-2.2c-0.6-0.6-1.3-0.9-2.2-0.9
			c-0.9,0-1.6,0.3-2.2,0.9C-9.5-0.4-9.7,0.3-9.7,1.2z"/>
	</g>
	<g transform="translate(88.0667,308.6776)">
		<path class="st3" d="M-40-7.6v-1.8h9.7v1.4c-0.9,1-1.9,2.4-2.8,4.1c-0.9,1.7-1.7,3.4-2.2,5.2C-35.7,2.6-35.9,4-36,5.5h-1.9
			c0-1.2,0.3-2.6,0.7-4.3c0.4-1.7,1.1-3.3,1.9-4.8c0.8-1.6,1.7-2.9,2.7-3.9H-40z M-27.4,5.5V3.4h2.1v2.1H-27.4z M-19.8-2.7
			c-0.8-0.3-1.3-0.7-1.7-1.2C-21.8-4.4-22-5-22-5.7c0-1.1,0.4-2,1.2-2.8c0.8-0.7,1.8-1.1,3.1-1.1c1.3,0,2.4,0.4,3.2,1.1
			c0.8,0.8,1.2,1.7,1.2,2.8c0,0.7-0.2,1.3-0.5,1.8c-0.4,0.5-0.9,0.9-1.7,1.2c0.9,0.3,1.6,0.8,2.1,1.5c0.5,0.7,0.7,1.5,0.7,2.4
			c0,1.3-0.5,2.4-1.4,3.2c-0.9,0.9-2.1,1.3-3.6,1.3c-1.5,0-2.7-0.4-3.6-1.3c-0.9-0.9-1.4-2-1.4-3.3c0-1,0.3-1.8,0.8-2.5
			S-20.7-2.4-19.8-2.7z M-20.1-5.8c0,0.7,0.2,1.3,0.7,1.7c0.5,0.5,1.1,0.7,1.8,0.7c0.7,0,1.3-0.2,1.7-0.7c0.5-0.4,0.7-1,0.7-1.6
			c0-0.7-0.2-1.2-0.7-1.7c-0.5-0.5-1.1-0.7-1.8-0.7c-0.7,0-1.3,0.2-1.8,0.7C-19.9-6.9-20.1-6.4-20.1-5.8z M-20.7,1.2
			c0,0.5,0.1,1,0.4,1.5s0.6,0.9,1.1,1.1c0.5,0.3,1,0.4,1.6,0.4c0.9,0,1.6-0.3,2.2-0.9s0.9-1.3,0.9-2.2c0-0.9-0.3-1.6-0.9-2.2
			c-0.6-0.6-1.3-0.9-2.2-0.9c-0.9,0-1.6,0.3-2.2,0.9C-20.5-0.4-20.7,0.3-20.7,1.2z M-10.9,1.6L-9,1.4C-8.8,2.3-8.5,3-8,3.5
			C-7.5,4-6.8,4.2-6.1,4.2c0.9,0,1.6-0.3,2.2-1s0.9-1.6,0.9-2.7c0-1.1-0.3-1.9-0.9-2.5c-0.6-0.6-1.4-0.9-2.3-0.9
			c-0.6,0-1.1,0.1-1.6,0.4c-0.5,0.3-0.9,0.6-1.1,1.1l-1.7-0.2l1.5-7.7h7.5v1.8h-6l-0.8,4c0.9-0.6,1.8-0.9,2.8-0.9
			c1.3,0,2.4,0.5,3.3,1.4C-1.4-2.2-1-1-1,0.4c0,1.4-0.4,2.5-1.2,3.5c-1,1.2-2.3,1.8-4,1.8c-1.4,0-2.5-0.4-3.3-1.1
			C-10.3,3.8-10.8,2.8-10.9,1.6z"/>
	</g>
	<g transform="translate(88.0667,226.9031)">
		<path class="st3" d="M-29-7.6v-1.8h9.7v1.4c-0.9,1-1.9,2.4-2.8,4.1c-0.9,1.7-1.7,3.4-2.2,5.2C-24.7,2.6-24.9,4-25,5.5h-1.9
			c0-1.2,0.3-2.6,0.7-4.3c0.4-1.7,1.1-3.3,1.9-4.8c0.8-1.6,1.7-2.9,2.7-3.9H-29z M-16.4,5.5V3.4h2.1v2.1H-16.4z M-11.3,2l1.8-0.2
			c0.1,0.8,0.4,1.4,0.9,1.8s1,0.6,1.6,0.6c0.6,0,1.1-0.1,1.5-0.4c0.4-0.3,0.8-0.6,1.1-1C-4.2,2.4-4,1.8-3.8,1
			c0.2-0.7,0.3-1.5,0.3-2.2c0-0.1,0-0.2,0-0.4C-3.9-1-4.4-0.5-5.1-0.1c-0.6,0.4-1.3,0.5-2.1,0.5c-1.3,0-2.3-0.5-3.2-1.4
			c-0.9-0.9-1.3-2.1-1.3-3.6c0-1.5,0.4-2.8,1.3-3.7c0.9-0.9,2-1.4,3.4-1.4c1,0,1.9,0.3,2.7,0.8c0.8,0.5,1.4,1.3,1.8,2.3
			s0.6,2.4,0.6,4.2c0,1.9-0.2,3.5-0.6,4.6c-0.4,1.1-1,2-1.9,2.6C-5,5.5-6,5.7-7.1,5.7c-1.2,0-2.1-0.3-2.9-1
			C-10.7,4.1-11.2,3.2-11.3,2z M-3.8-4.6c0-1.1-0.3-1.9-0.8-2.5c-0.6-0.6-1.2-0.9-2-0.9c-0.8,0-1.5,0.3-2.1,1
			c-0.6,0.7-0.9,1.5-0.9,2.6c0,1,0.3,1.7,0.9,2.3s1.3,0.9,2.1,0.9c0.9,0,1.6-0.3,2.1-0.9S-3.8-3.5-3.8-4.6z"/>
	</g>
	<g transform="translate(88.0667,145.1293)">
		<path class="st3" d="M-40-7.6v-1.8h9.7v1.4c-0.9,1-1.9,2.4-2.8,4.1c-0.9,1.7-1.7,3.4-2.2,5.2C-35.7,2.6-35.9,4-36,5.5h-1.9
			c0-1.2,0.3-2.6,0.7-4.3c0.4-1.7,1.1-3.3,1.9-4.8c0.8-1.6,1.7-2.9,2.7-3.9H-40z M-27.4,5.5V3.4h2.1v2.1H-27.4z M-22.3,2l1.8-0.2
			c0.1,0.8,0.4,1.4,0.9,1.8s1,0.6,1.6,0.6c0.6,0,1.1-0.1,1.5-0.4c0.4-0.3,0.8-0.6,1.1-1c0.3-0.4,0.5-1,0.7-1.8
			c0.2-0.7,0.3-1.5,0.3-2.2c0-0.1,0-0.2,0-0.4c-0.4,0.6-0.9,1.1-1.5,1.4c-0.6,0.4-1.3,0.5-2.1,0.5c-1.3,0-2.3-0.5-3.2-1.4
			c-0.9-0.9-1.3-2.1-1.3-3.6c0-1.5,0.4-2.8,1.3-3.7c0.9-0.9,2-1.4,3.4-1.4c1,0,1.9,0.3,2.7,0.8c0.8,0.5,1.4,1.3,1.8,2.2
			c0.4,1,0.6,2.4,0.6,4.2c0,1.9-0.2,3.5-0.6,4.6c-0.4,1.1-1,2-1.9,2.6C-16,5.5-17,5.7-18.1,5.7c-1.2,0-2.1-0.3-2.9-1
			C-21.7,4.1-22.2,3.2-22.3,2z M-14.8-4.6c0-1.1-0.3-1.9-0.8-2.5c-0.6-0.6-1.2-0.9-2-0.9c-0.8,0-1.5,0.3-2.1,1
			c-0.6,0.7-0.9,1.5-0.9,2.6c0,1,0.3,1.7,0.9,2.3c0.6,0.6,1.3,0.9,2.1,0.9c0.9,0,1.6-0.3,2.1-0.9C-15.1-2.7-14.8-3.5-14.8-4.6z
			 M-10.9,1.6L-9,1.4C-8.8,2.3-8.5,3-8,3.5C-7.5,4-6.8,4.2-6.1,4.2c0.9,0,1.6-0.3,2.2-1s0.9-1.6,0.9-2.7c0-1.1-0.3-1.9-0.9-2.5
			c-0.6-0.6-1.4-0.9-2.3-0.9c-0.6,0-1.1,0.1-1.6,0.4c-0.5,0.3-0.9,0.6-1.1,1.1l-1.7-0.2l1.5-7.7h7.5v1.8h-6l-0.8,4
			c0.9-0.6,1.8-0.9,2.8-0.9c1.3,0,2.4,0.5,3.3,1.4C-1.4-2.2-1-1-1,0.4c0,1.4-0.4,2.5-1.2,3.5c-1,1.2-2.3,1.8-4,1.8
			c-1.4,0-2.5-0.4-3.3-1.1C-10.3,3.8-10.8,2.8-10.9,1.6z"/>
	</g>
	<g transform="translate(88.0667,63.3548)">
		<path class="st3" d="M-8.3-2.7C-9.1-2.9-9.6-3.3-10-3.9c-0.4-0.5-0.6-1.1-0.6-1.9c0-1.1,0.4-2,1.2-2.8c0.8-0.7,1.8-1.1,3.1-1.1
			c1.3,0,2.4,0.4,3.2,1.1c0.8,0.8,1.2,1.7,1.2,2.8C-1.9-5-2-4.4-2.4-3.9c-0.4,0.5-0.9,0.9-1.7,1.2C-3.2-2.4-2.4-1.9-2-1.2
			c0.5,0.7,0.7,1.5,0.7,2.4c0,1.3-0.5,2.4-1.4,3.2s-2.1,1.3-3.6,1.3c-1.5,0-2.7-0.4-3.6-1.3c-0.9-0.9-1.4-2-1.4-3.3
			c0-1,0.3-1.8,0.8-2.5S-9.2-2.4-8.3-2.7z M-8.7-5.8C-8.7-5.1-8.4-4.5-8-4c0.5,0.5,1.1,0.7,1.8,0.7c0.7,0,1.3-0.2,1.8-0.7
			C-4-4.5-3.8-5-3.8-5.7c0-0.7-0.2-1.2-0.7-1.7s-1.1-0.7-1.8-0.7c-0.7,0-1.3,0.2-1.8,0.7C-8.4-6.9-8.7-6.4-8.7-5.8z M-9.3,1.2
			c0,0.5,0.1,1,0.4,1.5s0.6,0.9,1.1,1.1c0.5,0.3,1,0.4,1.6,0.4C-5.3,4.2-4.6,4-4,3.4s0.9-1.3,0.9-2.2C-3.1,0.3-3.4-0.4-4-1
			s-1.3-0.9-2.2-0.9c-0.9,0-1.6,0.3-2.2,0.9C-9-0.4-9.3,0.3-9.3,1.2z"/>
	</g>
	<g transform="translate(43.0667,300.5) rotate(-90)">
		<path class="st3" d="M-38.2-6v-16.5h11.9v2H-36v5h9.1v1.9H-36v5.6h10.1V-6H-38.2z M-18.7-7.8l0.3,1.8C-19-5.9-19.5-5.8-20-5.8
			c-0.7,0-1.3-0.1-1.7-0.4c-0.4-0.2-0.7-0.5-0.9-0.9c-0.2-0.4-0.2-1.2-0.2-2.4v-6.9h-1.5v-1.6h1.5v-3l2-1.2v4.2h2v1.6h-2v7
			c0,0.6,0,0.9,0.1,1.1s0.2,0.3,0.4,0.4c0.2,0.1,0.4,0.1,0.7,0.1C-19.4-7.7-19.1-7.8-18.7-7.8z M-8.6-9.8l2.1,0.3
			c-0.3,1.2-0.9,2.2-1.8,2.8c-0.9,0.7-2,1-3.4,1c-1.8,0-3.1-0.5-4.2-1.6c-1-1.1-1.5-2.6-1.5-4.5c0-2,0.5-3.6,1.5-4.7
			c1-1.1,2.4-1.7,4-1.7c1.6,0,2.9,0.5,3.9,1.6c1,1.1,1.5,2.6,1.5,4.6c0,0.1,0,0.3,0,0.5h-8.9c0.1,1.3,0.4,2.3,1.1,3
			c0.7,0.7,1.5,1,2.5,1c0.7,0,1.4-0.2,1.9-0.6C-9.3-8.4-8.9-9-8.6-9.8z M-15.2-13.1h6.7c-0.1-1-0.3-1.8-0.8-2.3
			c-0.6-0.8-1.5-1.2-2.5-1.2c-0.9,0-1.7,0.3-2.3,0.9C-14.8-15-15.2-14.2-15.2-13.1z M-4-6v-11.9h1.8v1.7c0.9-1.3,2.2-2,3.8-2
			c0.7,0,1.4,0.1,2,0.4c0.6,0.3,1.1,0.6,1.4,1c0.3,0.4,0.5,0.9,0.6,1.5c0.1,0.4,0.1,1,0.1,2V-6h-2v-7.3c0-0.8-0.1-1.4-0.2-1.9
			c-0.2-0.4-0.4-0.7-0.8-1c-0.4-0.2-0.9-0.4-1.4-0.4c-0.9,0-1.6,0.3-2.2,0.8c-0.6,0.5-0.9,1.6-0.9,3.1V-6H-4z M16.6-6v-1.5
			c-0.8,1.2-1.9,1.8-3.3,1.8c-0.9,0-1.8-0.3-2.6-0.8C9.8-7,9.2-7.8,8.8-8.7c-0.4-0.9-0.7-2-0.7-3.2c0-1.2,0.2-2.3,0.6-3.2
			c0.4-1,1-1.7,1.8-2.2c0.8-0.5,1.7-0.8,2.7-0.8c0.7,0,1.4,0.2,1.9,0.5c0.6,0.3,1,0.7,1.4,1.2v-5.9h2V-6H16.6z M10.2-12
			c0,1.5,0.3,2.7,1,3.4c0.6,0.8,1.4,1.1,2.3,1.1c0.9,0,1.6-0.4,2.3-1.1c0.6-0.7,0.9-1.8,0.9-3.3c0-1.6-0.3-2.8-0.9-3.6
			c-0.6-0.8-1.4-1.1-2.3-1.1c-0.9,0-1.6,0.4-2.3,1.1C10.5-14.7,10.2-13.5,10.2-12z M29.4-6v-1.8c-0.9,1.3-2.2,2-3.8,2
			c-0.7,0-1.4-0.1-2-0.4c-0.6-0.3-1.1-0.6-1.4-1c-0.3-0.4-0.5-0.9-0.6-1.5c-0.1-0.4-0.1-1-0.1-1.9v-7.4h2v6.6c0,1.1,0,1.8,0.1,2.1
			c0.1,0.5,0.4,0.9,0.8,1.3c0.4,0.3,0.9,0.5,1.5,0.5c0.6,0,1.2-0.2,1.7-0.5c0.5-0.3,0.9-0.7,1.1-1.3c0.2-0.5,0.3-1.3,0.3-2.3v-6.4h2
			V-6H29.4z M42.6-9.8l2.1,0.3c-0.3,1.2-0.9,2.2-1.8,2.8c-0.9,0.7-2,1-3.4,1c-1.8,0-3.1-0.5-4.2-1.6c-1-1.1-1.5-2.6-1.5-4.5
			c0-2,0.5-3.6,1.5-4.7c1-1.1,2.4-1.7,4-1.7c1.6,0,2.9,0.5,3.9,1.6c1,1.1,1.5,2.6,1.5,4.6c0,0.1,0,0.3,0,0.5h-8.9
			c0.1,1.3,0.4,2.3,1.1,3s1.5,1,2.5,1c0.7,0,1.4-0.2,1.9-0.6C41.9-8.4,42.3-9,42.6-9.8z M35.9-13.1h6.7c-0.1-1-0.3-1.8-0.8-2.3
			c-0.6-0.8-1.5-1.2-2.5-1.2c-0.9,0-1.7,0.3-2.3,0.9C36.4-15,36-14.2,35.9-13.1z"/>
	</g>
	<g>
		<line class="st4" x1="95" y1="60.4" x2="662.1" y2="60.4"/>
		<path class="st5" d="M610.5,495.4L352.7,277.1L223.9,166.2l-64.4-57.2l-32.2-21.4l-16.1-13.7l-8.1-6.9"/>
		<line class="st5" x1="606" y1="495.5" x2="615" y2="495.5"/>
		<line class="st5" x1="610.5" y1="500" x2="610.5" y2="491"/>
		<line class="st5" x1="607" y1="499" x2="614" y2="492"/>
		<line class="st5" x1="607" y1="492" x2="614" y2="499"/>
		<line class="st5" x1="348" y1="277.5" x2="357" y2="277.5"/>
		<line class="st5" x1="352.5" y1="282" x2="352.5" y2="273"/>
		<line class="st5" x1="349" y1="281" x2="356" y2="274"/>
		<line class="st5" x1="349" y1="274" x2="356" y2="281"/>
		<line class="st5" x1="219" y1="166.5" x2="228" y2="166.5"/>
		<line class="st5" x1="223.5" y1="171" x2="223.5" y2="162"/>
		<line class="st5" x1="220" y1="170" x2="227" y2="163"/>
		<line class="st5" x1="220" y1="163" x2="227" y2="170"/>
		<line class="st5" x1="155" y1="108.5" x2="164" y2="108.5"/>
		<line class="st5" x1="159.5" y1="113" x2="159.5" y2="104"/>
		<line class="st5" x1="156" y1="112" x2="163" y2="105"/>
		<line class="st5" x1="156" y1="105" x2="163" y2="112"/>
		<line class="st5" x1="123" y1="87.5" x2="132" y2="87.5"/>
		<line class="st5" x1="127.5" y1="92" x2="127.5" y2="83"/>
		<line class="st5" x1="124" y1="91" x2="131" y2="84"/>
		<line class="st5" x1="124" y1="84" x2="131" y2="91"/>
		<line class="st5" x1="107" y1="73.5" x2="116" y2="73.5"/>
		<line class="st5" x1="111.5" y1="78" x2="111.5" y2="69"/>
		<line class="st5" x1="108" y1="77" x2="115" y2="70"/>
		<line class="st5" x1="108" y1="70" x2="115" y2="77"/>
		<line class="st5" x1="99" y1="66.5" x2="108" y2="66.5"/>
		<line class="st5" x1="103.5" y1="71" x2="103.5" y2="62"/>
		<line class="st5" x1="100" y1="70" x2="107" y2="63"/>
		<line class="st5" x1="100" y1="63" x2="107" y2="70"/>
	</g>
	<g>
		<path class="st1" d="M566,143V72h63v71H566z"/>
	</g>
	<g transform="translate(603,98)">
		<path d="M10.4-16.6h1.8v7.8c0,1.4-0.2,2.5-0.5,3.3c-0.3,0.8-0.9,1.5-1.7,2C9.2-3,8.2-2.8,6.9-2.8C5.6-2.8,4.6-3,3.8-3.4
			C2.9-3.9,2.4-4.5,2-5.3s-0.5-2-0.5-3.4v-7.8h1.8v7.8c0,1.2,0.1,2,0.3,2.6c0.2,0.6,0.6,1,1.1,1.3c0.5,0.3,1.2,0.5,2,0.5
			C8-4.4,9-4.7,9.5-5.3c0.6-0.6,0.8-1.8,0.8-3.5V-16.6z"/>
	</g>
	<g>
		<line class="st4" x1="570" y1="90.6" x2="600" y2="90.6"/>
	</g>
	<g transform="translate(603,131)">
		<path d="M10.4-16.6h1.8v7.8c0,1.4-0.2,2.5-0.5,3.3c-0.3,0.8-0.9,1.5-1.7,2C9.2-3,8.2-2.8,6.9-2.8C5.6-2.8,4.6-3,3.8-3.4
			C2.9-3.9,2.4-4.5,2-5.3s-0.5-2-0.5-3.4v-7.8h1.8v7.8c0,1.2,0.1,2,0.3,2.6c0.2,0.6,0.6,1,1.1,1.3c0.5,0.3,1.2,0.5,2,0.5
			C8-4.4,9-4.7,9.5-5.3c0.6-0.6,0.8-1.8,0.8-3.5V-16.6z"/>
	</g>
	<g transform="translate(617,140)">
		<path d="M3.9-4.2L4.1-3c-0.4,0.1-0.7,0.1-1,0.1C2.6-2.9,2.2-3,1.9-3.1C1.7-3.3,1.5-3.5,1.4-3.7C1.3-4,1.2-4.5,1.2-5.3v-4.5h-1v-1
			h1v-1.9l1.3-0.8v2.7h1.3v1H2.5v4.5c0,0.4,0,0.6,0.1,0.7c0,0.1,0.1,0.2,0.2,0.3c0.1,0.1,0.2,0.1,0.4,0.1C3.4-4.1,3.6-4.1,3.9-4.2z"
			/>
	</g>
	<g>
		<line class="st5" x1="570" y1="124.4" x2="600" y2="124.4"/>
		<line class="st5" x1="581" y1="124.5" x2="590" y2="124.5"/>
		<line class="st5" x1="585.5" y1="129" x2="585.5" y2="120"/>
		<line class="st5" x1="582" y1="128" x2="589" y2="121"/>
		<line class="st5" x1="582" y1="121" x2="589" y2="128"/>
	</g>
	<g>
		<path class="st6" d="M566,143V72h63v71H566z"/>
	</g>
</g>
</svg>
