<?xml version="1.0" encoding="utf-8"?>
<!-- Generator: Adobe Illustrator 21.1.0, SVG Export Plug-In . SVG Version: 6.00 Build 0)  -->
<svg version="1.1" id="Layer_1" xmlns="http://www.w3.org/2000/svg" xmlns:xlink="http://www.w3.org/1999/xlink" x="0px" y="0px"
	 viewBox="0 0 731 555" style="enable-background:new 0 0 731 555;" xml:space="preserve">
<style type="text/css">
	.st0{clip-path:url(#SVGID_2_);fill:#FFFFFF;}
	.st1{fill:#FFFFFF;}
	.st2{fill:none;stroke:#262626;stroke-width:0.6667;stroke-linecap:square;stroke-linejoin:round;stroke-miterlimit:10;}
	.st3{fill:#262626;}
	.st4{fill:none;stroke:#FF0000;stroke-width:2.6667;stroke-linejoin:round;stroke-miterlimit:10;}
	.st5{fill:none;stroke:#0000FF;stroke-width:2.6667;stroke-linejoin:round;stroke-miterlimit:10;}
	.st6{fill:none;stroke:#262626;stroke-width:0.6667;stroke-miterlimit:10;}
</style>
<g>
	<g>
		<g>
			<defs>
				<rect id="SVGID_1_" y="0" width="731" height="555"/>
			</defs>
			<clipPath id="SVGID_2_">
				<use xlink:href="#SVGID_1_"  style="overflow:visible;"/>
			</clipPath>
			<rect y="0" class="st0" width="731" height="555"/>
		</g>
	</g>
	<g>
		<rect y="0" class="st1" width="731" height="555"/>
		<path class="st1" d="M95,466h567V42H95V466z"/>
	</g>
	<g>
		<line class="st2" x1="95" y1="466" x2="662" y2="466"/>
		<line class="st2" x1="95" y1="42" x2="662" y2="42"/>
		<line class="st2" x1="95" y1="466" x2="95" y2="460.3"/>
		<line class="st2" x1="189.5" y1="466" x2="189.5" y2="460.3"/>
		<line class="st2" x1="284" y1="466" x2="284" y2="460.3"/>
		<line class="st2" x1="378.5" y1="466" x2="378.5" y2="460.3"/>
		<line class="st2" x1="473" y1="466" x2="473" y2="460.3"/>
		<line class="st2" x1="567.5" y1="466" x2="567.5" y2="460.3"/>
		<line class="st2" x1="662" y1="466" x2="662" y2="460.3"/>
		<line class="st2" x1="95" y1="42" x2="95" y2="47.7"/>
		<line class="st2" x1="189.5" y1="42" x2="189.5" y2="47.7"/>
		<line class="st2" x1="284" y1="42" x2="284" y2="47.7"/>
		<line class="st2" x1="378.5" y1="42" x2="378.5" y2="47.7"/>
		<line class="st2" x1="473" y1="42" x2="473" y2="47.7"/>
		<line class="st2" x1="567.5" y1="42" x2="567.5" y2="47.7"/>
		<line class="st2" x1="662" y1="42" x2="662" y2="47.7"/>
	</g>
	<g transform="translate(95,472.9339)">
		<path class="st3" d="M-5.1,14.6c0-1.8,0.2-3.2,0.5-4.3C-4.2,9.2-3.7,8.4-3,7.8c0.7-0.6,1.6-0.9,2.7-0.9c0.8,0,1.5,0.2,2.1,0.5
			C2.5,7.7,3,8.2,3.4,8.8c0.4,0.6,0.7,1.4,0.9,2.2c0.2,0.9,0.3,2.1,0.3,3.6c0,1.8-0.2,3.2-0.5,4.3c-0.4,1.1-0.9,1.9-1.6,2.5
			c-0.7,0.6-1.6,0.9-2.7,0.9c-1.4,0-2.6-0.5-3.4-1.5C-4.6,19.5-5.1,17.4-5.1,14.6z M-3.2,14.6c0,2.5,0.3,4.1,0.9,4.9
			s1.3,1.2,2.1,1.2c0.9,0,1.6-0.4,2.1-1.2c0.6-0.8,0.9-2.5,0.9-4.9c0-2.5-0.3-4.1-0.9-4.9C1.3,8.8,0.6,8.4-0.3,8.4
			c-0.8,0-1.5,0.4-2,1.1C-2.9,10.4-3.2,12.1-3.2,14.6z"/>
	</g>
	<g transform="translate(189.5,472.9339)">
		<path class="st3" d="M-25.6,14.6c0-1.8,0.2-3.2,0.5-4.3c0.4-1.1,0.9-1.9,1.6-2.5c0.7-0.6,1.6-0.9,2.7-0.9c0.8,0,1.5,0.2,2.1,0.5
			c0.6,0.3,1.1,0.8,1.5,1.4c0.4,0.6,0.7,1.4,0.9,2.2c0.2,0.9,0.3,2.1,0.3,3.6c0,1.8-0.2,3.2-0.5,4.3c-0.4,1.1-0.9,1.9-1.6,2.5
			c-0.7,0.6-1.6,0.9-2.7,0.9c-1.4,0-2.6-0.5-3.4-1.5C-25.1,19.5-25.6,17.4-25.6,14.6z M-23.7,14.6c0,2.5,0.3,4.1,0.9,4.9
			s1.3,1.2,2.1,1.2c0.9,0,1.6-0.4,2.1-1.2c0.6-0.8,0.9-2.5,0.9-4.9c0-2.5-0.3-4.1-0.9-4.9c-0.6-0.8-1.3-1.2-2.2-1.2
			c-0.8,0-1.5,0.4-2,1.1C-23.4,10.4-23.7,12.1-23.7,14.6z M-12.9,22v-2.1h2.1V22H-12.9z M-8.1,14.6c0-1.8,0.2-3.2,0.5-4.3
			c0.4-1.1,0.9-1.9,1.6-2.5c0.7-0.6,1.6-0.9,2.7-0.9c0.8,0,1.5,0.2,2.1,0.5C-0.5,7.7,0,8.2,0.4,8.8c0.4,0.6,0.7,1.4,0.9,2.2
			c0.2,0.9,0.3,2.1,0.3,3.6c0,1.8-0.2,3.2-0.5,4.3c-0.4,1.1-0.9,1.9-1.6,2.5c-0.7,0.6-1.6,0.9-2.7,0.9c-1.4,0-2.6-0.5-3.4-1.5
			C-7.6,19.5-8.1,17.4-8.1,14.6z M-6.2,14.6c0,2.5,0.3,4.1,0.9,4.9s1.3,1.2,2.1,1.2c0.9,0,1.6-0.4,2.1-1.2s0.9-2.5,0.9-4.9
			c0-2.5-0.3-4.1-0.9-4.9c-0.6-0.8-1.3-1.2-2.2-1.2c-0.8,0-1.5,0.4-2,1.1C-5.9,10.4-6.2,12.1-6.2,14.6z M3.6,14.6
			c0-1.8,0.2-3.2,0.5-4.3C4.5,9.2,5,8.4,5.7,7.8c0.7-0.6,1.6-0.9,2.7-0.9c0.8,0,1.5,0.2,2.1,0.5c0.6,0.3,1.1,0.8,1.5,1.4
			c0.4,0.6,0.7,1.4,0.9,2.2c0.2,0.9,0.3,2.1,0.3,3.6c0,1.8-0.2,3.2-0.5,4.3c-0.4,1.1-0.9,1.9-1.6,2.5c-0.7,0.6-1.6,0.9-2.7,0.9
			c-1.4,0-2.6-0.5-3.4-1.5C4.1,19.5,3.6,17.4,3.6,14.6z M5.5,14.6c0,2.5,0.3,4.1,0.9,4.9s1.3,1.2,2.1,1.2c0.9,0,1.6-0.4,2.1-1.2
			c0.6-0.8,0.9-2.5,0.9-4.9c0-2.5-0.3-4.1-0.9-4.9C10,8.8,9.3,8.4,8.4,8.4c-0.8,0-1.5,0.4-2,1.1C5.8,10.4,5.5,12.1,5.5,14.6z
			 M15.2,18.1l1.9-0.2c0.1,0.9,0.5,1.7,1,2.1c0.5,0.5,1.2,0.7,1.9,0.7c0.9,0,1.6-0.3,2.3-1c0.6-0.7,0.9-1.6,0.9-2.7
			c0-1.1-0.3-1.9-0.9-2.5C21.8,14,21,13.7,20,13.7c-0.6,0-1.1,0.1-1.6,0.4c-0.5,0.3-0.9,0.6-1.1,1.1l-1.7-0.2L17,7.2h7.5v1.8h-6
			l-0.8,4c0.9-0.6,1.8-0.9,2.8-0.9c1.3,0,2.4,0.5,3.3,1.4c0.9,0.9,1.4,2.1,1.4,3.5c0,1.4-0.4,2.5-1.2,3.5c-1,1.2-2.3,1.8-4,1.8
			c-1.4,0-2.5-0.4-3.3-1.1C15.9,20.3,15.4,19.3,15.2,18.1z"/>
	</g>
	<g transform="translate(284,472.9339)">
		<path class="st3" d="M-19.6,14.6c0-1.8,0.2-3.2,0.5-4.3c0.4-1.1,0.9-1.9,1.6-2.5c0.7-0.6,1.6-0.9,2.7-0.9c0.8,0,1.5,0.2,2.1,0.5
			c0.6,0.3,1.1,0.8,1.5,1.4c0.4,0.6,0.7,1.4,0.9,2.2c0.2,0.9,0.3,2.1,0.3,3.6c0,1.8-0.2,3.2-0.5,4.3c-0.4,1.1-0.9,1.9-1.6,2.5
			c-0.7,0.6-1.6,0.9-2.7,0.9c-1.4,0-2.6-0.5-3.4-1.5C-19.1,19.5-19.6,17.4-19.6,14.6z M-17.7,14.6c0,2.5,0.3,4.1,0.9,4.9
			s1.3,1.2,2.1,1.2c0.9,0,1.6-0.4,2.1-1.2c0.6-0.8,0.9-2.5,0.9-4.9c0-2.5-0.3-4.1-0.9-4.9c-0.6-0.8-1.3-1.2-2.2-1.2
			c-0.8,0-1.5,0.4-2,1.1C-17.4,10.4-17.7,12.1-17.7,14.6z M-6.9,22v-2.1h2.1V22H-6.9z M-2.1,14.6c0-1.8,0.2-3.2,0.5-4.3
			c0.4-1.1,0.9-1.9,1.6-2.5c0.7-0.6,1.6-0.9,2.7-0.9c0.8,0,1.5,0.2,2.1,0.5C5.5,7.7,6,8.2,6.4,8.8c0.4,0.6,0.7,1.4,0.9,2.2
			c0.2,0.9,0.3,2.1,0.3,3.6c0,1.8-0.2,3.2-0.5,4.3c-0.4,1.1-0.9,1.9-1.6,2.5c-0.7,0.6-1.6,0.9-2.7,0.9c-1.4,0-2.6-0.5-3.4-1.5
			C-1.6,19.5-2.1,17.4-2.1,14.6z M-0.2,14.6c0,2.5,0.3,4.1,0.9,4.9s1.3,1.2,2.1,1.2c0.9,0,1.6-0.4,2.1-1.2s0.9-2.5,0.9-4.9
			c0-2.5-0.3-4.1-0.9-4.9C4.3,8.8,3.6,8.4,2.8,8.4c-0.8,0-1.5,0.4-2,1.1C0.1,10.4-0.2,12.1-0.2,14.6z M16.5,22h-1.8V10.2
			c-0.4,0.4-1,0.9-1.8,1.3c-0.7,0.4-1.4,0.7-1.9,1v-1.8c1-0.5,1.9-1.1,2.7-1.8c0.8-0.7,1.3-1.4,1.6-2h1.2V22z"/>
	</g>
	<g transform="translate(378.5,472.9339)">
		<path class="st3" d="M-25.6,14.6c0-1.8,0.2-3.2,0.5-4.3c0.4-1.1,0.9-1.9,1.6-2.5c0.7-0.6,1.6-0.9,2.7-0.9c0.8,0,1.5,0.2,2.1,0.5
			c0.6,0.3,1.1,0.8,1.5,1.4c0.4,0.6,0.7,1.4,0.9,2.2c0.2,0.9,0.3,2.1,0.3,3.6c0,1.8-0.2,3.2-0.5,4.3c-0.4,1.1-0.9,1.9-1.6,2.5
			c-0.7,0.6-1.6,0.9-2.7,0.9c-1.4,0-2.6-0.5-3.4-1.5C-25.1,19.5-25.6,17.4-25.6,14.6z M-23.7,14.6c0,2.5,0.3,4.1,0.9,4.9
			s1.3,1.2,2.1,1.2c0.9,0,1.6-0.4,2.1-1.2c0.6-0.8,0.9-2.5,0.9-4.9c0-2.5-0.3-4.1-0.9-4.9c-0.6-0.8-1.3-1.2-2.2-1.2
			c-0.8,0-1.5,0.4-2,1.1C-23.4,10.4-23.7,12.1-23.7,14.6z M-12.9,22v-2.1h2.1V22H-12.9z M-8.1,14.6c0-1.8,0.2-3.2,0.5-4.3
			c0.4-1.1,0.9-1.9,1.6-2.5c0.7-0.6,1.6-0.9,2.7-0.9c0.8,0,1.5,0.2,2.1,0.5C-0.5,7.7,0,8.2,0.4,8.8c0.4,0.6,0.7,1.4,0.9,2.2
			c0.2,0.9,0.3,2.1,0.3,3.6c0,1.8-0.2,3.2-0.5,4.3c-0.4,1.1-0.9,1.9-1.6,2.5c-0.7,0.6-1.6,0.9-2.7,0.9c-1.4,0-2.6-0.5-3.4-1.5
			C-7.6,19.5-8.1,17.4-8.1,14.6z M-6.2,14.6c0,2.5,0.3,4.1,0.9,4.9s1.3,1.2,2.1,1.2c0.9,0,1.6-0.4,2.1-1.2s0.9-2.5,0.9-4.9
			c0-2.5-0.3-4.1-0.9-4.9c-0.6-0.8-1.3-1.2-2.2-1.2c-0.8,0-1.5,0.4-2,1.1C-5.9,10.4-6.2,12.1-6.2,14.6z M10.5,22H8.7V10.2
			c-0.4,0.4-1,0.9-1.8,1.3c-0.7,0.4-1.4,0.7-1.9,1v-1.8c1-0.5,1.9-1.1,2.7-1.8c0.8-0.7,1.3-1.4,1.6-2h1.2V22z M15.2,18.1l1.9-0.2
			c0.1,0.9,0.5,1.7,1,2.1c0.5,0.5,1.2,0.7,1.9,0.7c0.9,0,1.6-0.3,2.3-1c0.6-0.7,0.9-1.6,0.9-2.7c0-1.1-0.3-1.9-0.9-2.5
			C21.8,14,21,13.7,20,13.7c-0.6,0-1.1,0.1-1.6,0.4c-0.5,0.3-0.9,0.6-1.1,1.1l-1.7-0.2L17,7.2h7.5v1.8h-6l-0.8,4
			c0.9-0.6,1.8-0.9,2.8-0.9c1.3,0,2.4,0.5,3.3,1.4c0.9,0.9,1.4,2.1,1.4,3.5c0,1.4-0.4,2.5-1.2,3.5c-1,1.2-2.3,1.8-4,1.8
			c-1.4,0-2.5-0.4-3.3-1.1C15.9,20.3,15.4,19.3,15.2,18.1z"/>
	</g>
	<g transform="translate(473,472.9339)">
		<path class="st3" d="M-19.6,14.6c0-1.8,0.2-3.2,0.5-4.3c0.4-1.1,0.9-1.9,1.6-2.5c0.7-0.6,1.6-0.9,2.7-0.9c0.8,0,1.5,0.2,2.1,0.5
			c0.6,0.3,1.1,0.8,1.5,1.4c0.4,0.6,0.7,1.4,0.9,2.2c0.2,0.9,0.3,2.1,0.3,3.6c0,1.8-0.2,3.2-0.5,4.3c-0.4,1.1-0.9,1.9-1.6,2.5
			c-0.7,0.6-1.6,0.9-2.7,0.9c-1.4,0-2.6-0.5-3.4-1.5C-19.1,19.5-19.6,17.4-19.6,14.6z M-17.7,14.6c0,2.5,0.3,4.1,0.9,4.9
			s1.3,1.2,2.1,1.2c0.9,0,1.6-0.4,2.1-1.2c0.6-0.8,0.9-2.5,0.9-4.9c0-2.5-0.3-4.1-0.9-4.9c-0.6-0.8-1.3-1.2-2.2-1.2
			c-0.8,0-1.5,0.4-2,1.1C-17.4,10.4-17.7,12.1-17.7,14.6z M-6.9,22v-2.1h2.1V22H-6.9z M-2.1,14.6c0-1.8,0.2-3.2,0.5-4.3
			c0.4-1.1,0.9-1.9,1.6-2.5c0.7-0.6,1.6-0.9,2.7-0.9c0.8,0,1.5,0.2,2.1,0.5C5.5,7.7,6,8.2,6.4,8.8c0.4,0.6,0.7,1.4,0.9,2.2
			c0.2,0.9,0.3,2.1,0.3,3.6c0,1.8-0.2,3.2-0.5,4.3c-0.4,1.1-0.9,1.9-1.6,2.5c-0.7,0.6-1.6,0.9-2.7,0.9c-1.4,0-2.6-0.5-3.4-1.5
			C-1.6,19.5-2.1,17.4-2.1,14.6z M-0.2,14.6c0,2.5,0.3,4.1,0.9,4.9s1.3,1.2,2.1,1.2c0.9,0,1.6-0.4,2.1-1.2s0.9-2.5,0.9-4.9
			c0-2.5-0.3-4.1-0.9-4.9C4.3,8.8,3.6,8.4,2.8,8.4c-0.8,0-1.5,0.4-2,1.1C0.1,10.4-0.2,12.1-0.2,14.6z M19.3,20.2V22H9.3
			c0-0.4,0-0.9,0.2-1.3c0.3-0.7,0.7-1.3,1.2-2c0.6-0.7,1.4-1.4,2.4-2.3c1.6-1.3,2.7-2.4,3.3-3.2c0.6-0.8,0.9-1.5,0.9-2.2
			c0-0.7-0.3-1.3-0.8-1.8c-0.5-0.5-1.2-0.8-2-0.8c-0.9,0-1.6,0.3-2.1,0.8c-0.5,0.5-0.8,1.3-0.8,2.2l-1.9-0.2
			c0.1-1.4,0.6-2.5,1.5-3.2c0.8-0.7,2-1.1,3.4-1.1c1.4,0,2.6,0.4,3.4,1.2c0.8,0.8,1.3,1.8,1.3,3c0,0.6-0.1,1.2-0.4,1.8
			c-0.2,0.6-0.7,1.2-1.2,1.8s-1.5,1.5-2.8,2.6c-1.1,0.9-1.8,1.6-2.1,1.9c-0.3,0.3-0.6,0.7-0.8,1H19.3z"/>
	</g>
	<g transform="translate(567.5,472.9339)">
		<path class="st3" d="M-25.6,14.6c0-1.8,0.2-3.2,0.5-4.3c0.4-1.1,0.9-1.9,1.6-2.5c0.7-0.6,1.6-0.9,2.7-0.9c0.8,0,1.5,0.2,2.1,0.5
			c0.6,0.3,1.1,0.8,1.5,1.4c0.4,0.6,0.7,1.4,0.9,2.2c0.2,0.9,0.3,2.1,0.3,3.6c0,1.8-0.2,3.2-0.5,4.3c-0.4,1.1-0.9,1.9-1.6,2.5
			c-0.7,0.6-1.6,0.9-2.7,0.9c-1.4,0-2.6-0.5-3.4-1.5C-25.1,19.5-25.6,17.4-25.6,14.6z M-23.7,14.6c0,2.5,0.3,4.1,0.9,4.9
			s1.3,1.2,2.1,1.2c0.9,0,1.6-0.4,2.1-1.2c0.6-0.8,0.9-2.5,0.9-4.9c0-2.5-0.3-4.1-0.9-4.9c-0.6-0.8-1.3-1.2-2.2-1.2
			c-0.8,0-1.5,0.4-2,1.1C-23.4,10.4-23.7,12.1-23.7,14.6z M-12.9,22v-2.1h2.1V22H-12.9z M-8.1,14.6c0-1.8,0.2-3.2,0.5-4.3
			c0.4-1.1,0.9-1.9,1.6-2.5c0.7-0.6,1.6-0.9,2.7-0.9c0.8,0,1.5,0.2,2.1,0.5C-0.5,7.7,0,8.2,0.4,8.8c0.4,0.6,0.7,1.4,0.9,2.2
			c0.2,0.9,0.3,2.1,0.3,3.6c0,1.8-0.2,3.2-0.5,4.3c-0.4,1.1-0.9,1.9-1.6,2.5c-0.7,0.6-1.6,0.9-2.7,0.9c-1.4,0-2.6-0.5-3.4-1.5
			C-7.6,19.5-8.1,17.4-8.1,14.6z M-6.2,14.6c0,2.5,0.3,4.1,0.9,4.9s1.3,1.2,2.1,1.2c0.9,0,1.6-0.4,2.1-1.2s0.9-2.5,0.9-4.9
			c0-2.5-0.3-4.1-0.9-4.9c-0.6-0.8-1.3-1.2-2.2-1.2c-0.8,0-1.5,0.4-2,1.1C-5.9,10.4-6.2,12.1-6.2,14.6z M13.3,20.2V22H3.3
			c0-0.4,0-0.9,0.2-1.3c0.3-0.7,0.7-1.3,1.2-2c0.6-0.7,1.4-1.4,2.4-2.3c1.6-1.3,2.7-2.4,3.3-3.2c0.6-0.8,0.9-1.5,0.9-2.2
			c0-0.7-0.3-1.3-0.8-1.8c-0.5-0.5-1.2-0.8-2-0.8c-0.9,0-1.6,0.3-2.1,0.8c-0.5,0.5-0.8,1.3-0.8,2.2l-1.9-0.2C3.8,9.8,4.3,8.8,5.1,8
			c0.8-0.7,2-1.1,3.4-1.1c1.4,0,2.6,0.4,3.4,1.2c0.8,0.8,1.3,1.8,1.3,3c0,0.6-0.1,1.2-0.4,1.8c-0.2,0.6-0.7,1.2-1.2,1.8
			s-1.5,1.5-2.8,2.6c-1.1,0.9-1.8,1.6-2.1,1.9c-0.3,0.3-0.6,0.7-0.8,1H13.3z M15.2,18.1l1.9-0.2c0.1,0.9,0.5,1.7,1,2.1
			c0.5,0.5,1.2,0.7,1.9,0.7c0.9,0,1.6-0.3,2.3-1c0.6-0.7,0.9-1.6,0.9-2.7c0-1.1-0.3-1.9-0.9-2.5C21.8,14,21,13.7,20,13.7
			c-0.6,0-1.1,0.1-1.6,0.4c-0.5,0.3-0.9,0.6-1.1,1.1l-1.7-0.2L17,7.2h7.5v1.8h-6l-0.8,4c0.9-0.6,1.8-0.9,2.8-0.9
			c1.3,0,2.4,0.5,3.3,1.4c0.9,0.9,1.4,2.1,1.4,3.5c0,1.4-0.4,2.5-1.2,3.5c-1,1.2-2.3,1.8-4,1.8c-1.4,0-2.5-0.4-3.3-1.1
			C15.9,20.3,15.4,19.3,15.2,18.1z"/>
	</g>
	<g transform="translate(662,472.9339)">
		<path class="st3" d="M-19.6,14.6c0-1.8,0.2-3.2,0.5-4.3c0.4-1.1,0.9-1.9,1.6-2.5c0.7-0.6,1.6-0.9,2.7-0.9c0.8,0,1.5,0.2,2.1,0.5
			c0.6,0.3,1.1,0.8,1.5,1.4c0.4,0.6,0.7,1.4,0.9,2.2c0.2,0.9,0.3,2.1,0.3,3.6c0,1.8-0.2,3.2-0.5,4.3c-0.4,1.1-0.9,1.9-1.6,2.5
			c-0.7,0.6-1.6,0.9-2.7,0.9c-1.4,0-2.6-0.5-3.4-1.5C-19.1,19.5-19.6,17.4-19.6,14.6z M-17.7,14.6c0,2.5,0.3,4.1,0.9,4.9
			s1.3,1.2,2.1,1.2c0.9,0,1.6-0.4,2.1-1.2c0.6-0.8,0.9-2.5,0.9-4.9c0-2.5-0.3-4.1-0.9-4.9c-0.6-0.8-1.3-1.2-2.2-1.2
			c-0.8,0-1.5,0.4-2,1.1C-17.4,10.4-17.7,12.1-17.7,14.6z M-6.9,22v-2.1h2.1V22H-6.9z M-2.1,14.6c0-1.8,0.2-3.2,0.5-4.3
			c0.4-1.1,0.9-1.9,1.6-2.5c0.7-0.6,1.6-0.9,2.7-0.9c0.8,0,1.5,0.2,2.1,0.5C5.5,7.7,6,8.2,6.4,8.8c0.4,0.6,0.7,1.4,0.9,2.2
			c0.2,0.9,0.3,2.1,0.3,3.6c0,1.8-0.2,3.2-0.5,4.3c-0.4,1.1-0.9,1.9-1.6,2.5c-0.7,0.6-1.6,0.9-2.7,0.9c-1.4,0-2.6-0.5-3.4-1.5
			C-1.6,19.5-2.1,17.4-2.1,14.6z M-0.2,14.6c0,2.5,0.3,4.1,0.9,4.9s1.3,1.2,2.1,1.2c0.9,0,1.6-0.4,2.1-1.2s0.9-2.5,0.9-4.9
			c0-2.5-0.3-4.1-0.9-4.9C4.3,8.8,3.6,8.4,2.8,8.4c-0.8,0-1.5,0.4-2,1.1C0.1,10.4-0.2,12.1-0.2,14.6z M9.6,18l1.9-0.3
			c0.2,1.1,0.6,1.8,1.1,2.3c0.5,0.5,1.1,0.7,1.9,0.7c0.9,0,1.6-0.3,2.2-0.9c0.6-0.6,0.9-1.3,0.9-2.2c0-0.8-0.3-1.5-0.8-2.1
			c-0.6-0.6-1.3-0.8-2.1-0.8c-0.4,0-0.8,0.1-1.3,0.2l0.2-1.6c0.1,0,0.2,0,0.3,0c0.8,0,1.5-0.2,2.1-0.6c0.6-0.4,0.9-1,0.9-1.9
			c0-0.7-0.2-1.2-0.7-1.7c-0.5-0.4-1.1-0.7-1.8-0.7c-0.7,0-1.3,0.2-1.8,0.7c-0.5,0.5-0.8,1.1-0.9,2l-1.8-0.3
			c0.2-1.2,0.7-2.2,1.5-2.9c0.8-0.7,1.8-1,3-1c0.8,0,1.6,0.2,2.3,0.5c0.7,0.4,1.2,0.8,1.6,1.4c0.4,0.6,0.5,1.2,0.5,1.9
			c0,0.6-0.2,1.2-0.5,1.8s-0.9,1-1.5,1.3c0.9,0.2,1.6,0.6,2.1,1.3c0.5,0.6,0.7,1.5,0.7,2.4c0,1.3-0.5,2.4-1.4,3.3
			c-1,0.9-2.2,1.4-3.6,1.4c-1.3,0-2.4-0.4-3.3-1.2C10.2,20.3,9.7,19.3,9.6,18z"/>
	</g>
	<g transform="translate(356,530)">
		<path class="st3" d="M2.8-3.3c0,0.5,0.1,1,0.3,1.4C3.3-1.4,3.6-1,4-0.7s0.8,0.4,1.3,0.4c0.3,0,0.7-0.1,1.1-0.2
			c0.4-0.2,0.7-0.3,1.1-0.5C7.8-1.3,8-1.3,8-1.3c0.1,0,0.1,0,0.2,0.1c0,0.1,0.1,0.2,0.1,0.3c0,0.1,0,0.1-0.1,0.2c-1,0.7-1.9,1-2.9,1
			c-0.8,0-1.5-0.2-2.2-0.6C2.4-0.7,1.9-1.2,1.6-1.9S1-3.3,1-4.1c0-0.8,0.2-1.6,0.5-2.3c0.3-0.7,0.8-1.3,1.3-1.9
			c0.6-0.5,1.2-0.9,1.9-1.2C5.5-9.8,6.3-9.9,7-9.9h1.3c0.2,0,0.3,0.1,0.3,0.4c0,0.1,0,0.2-0.1,0.3S8.4-9.1,8.3-9.1H7
			C6.4-9.1,5.8-9,5.3-8.7C4.8-8.4,4.4-8.1,4.1-7.6C3.7-7.1,3.5-6.6,3.3-6h4.1c0.1,0,0.2,0,0.3,0.1c0.1,0.1,0.1,0.1,0.1,0.3
			c0,0.1,0,0.2-0.1,0.3C7.5-5.2,7.4-5.2,7.3-5.2H3.1C2.9-4.4,2.8-3.7,2.8-3.3z"/>
	</g>
	<g transform="translate(366,541)">
		<path class="st3" d="M6.7,3.4v-4.3c-0.2,0.3-0.6,0.6-1,0.8S4.9,0.2,4.4,0.2c-1.1,0-2-0.4-2.7-1.3S0.6-3,0.6-4.5
			c0-0.9,0.2-1.7,0.5-2.4s0.8-1.2,1.3-1.6C3-8.8,3.6-9,4.3-9c1.1,0,2,0.5,2.6,1.4v-1.2h1.3V3.4H6.7z M2.1-4.4c0,1.1,0.2,2,0.7,2.6
			C3.3-1.3,3.9-1,4.6-1c0.6,0,1.2-0.3,1.6-0.8s0.7-1.4,0.7-2.5c0-1.2-0.2-2.1-0.7-2.7C5.7-7.5,5.1-7.8,4.5-7.8
			C3.8-7.8,3.3-7.6,2.8-7C2.4-6.5,2.1-5.6,2.1-4.4z"/>
	</g>
	<g transform="translate(376,552)">
		<path class="st3" d="M4.8,0H3.7v-7.3C3.4-7,3.1-6.8,2.6-6.5C2.2-6.2,1.8-6,1.4-5.9V-7c0.6-0.3,1.2-0.7,1.7-1.1
			c0.5-0.4,0.8-0.8,1-1.3h0.7V0z"/>
	</g>
	<g transform="translate(366,519)">
		<path class="st3" d="M1.1,0v-8.8h1.3v1.2c0.3-0.4,0.7-0.8,1.1-1S4.5-9,5.1-9c0.7,0,1.2,0.1,1.6,0.4C7.2-8.3,7.4-8,7.6-7.5
			C8.3-8.5,9.2-9,10.3-9c0.9,0,1.5,0.2,2,0.7c0.5,0.5,0.7,1.2,0.7,2.2v6h-1.5v-5.5c0-0.6,0-1-0.1-1.3c-0.1-0.3-0.3-0.5-0.5-0.6
			c-0.3-0.2-0.6-0.2-0.9-0.2c-0.6,0-1.1,0.2-1.5,0.6C8.1-6.7,7.9-6,7.9-5.1V0H6.4v-5.7c0-0.7-0.1-1.2-0.4-1.5
			C5.7-7.6,5.3-7.7,4.8-7.7C4.4-7.7,4-7.6,3.6-7.4C3.3-7.2,3-6.8,2.9-6.4C2.7-6,2.6-5.4,2.6-4.6V0H1.1z M15.3-10.5v-1.7h1.5v1.7
			H15.3z M15.3,0v-8.8h1.5V0H15.3z M19.1,0v-8.8h1.3v1.2C21.1-8.5,22-9,23.2-9c0.5,0,1,0.1,1.5,0.3c0.4,0.2,0.8,0.4,1,0.7
			c0.2,0.3,0.4,0.7,0.5,1.1c0.1,0.3,0.1,0.8,0.1,1.5V0h-1.5v-5.4c0-0.6-0.1-1.1-0.2-1.4c-0.1-0.3-0.3-0.5-0.6-0.7
			c-0.3-0.2-0.6-0.3-1-0.3c-0.6,0-1.2,0.2-1.6,0.6c-0.5,0.4-0.7,1.2-0.7,2.3V0H19.1z"/>
	</g>
	<g>
		<line class="st2" x1="95" y1="466" x2="95" y2="42"/>
		<line class="st2" x1="662" y1="466" x2="662" y2="42"/>
		<line class="st2" x1="95" y1="466" x2="100.7" y2="466"/>
		<line class="st2" x1="95" y1="360" x2="100.7" y2="360"/>
		<line class="st2" x1="95" y1="254" x2="100.7" y2="254"/>
		<line class="st2" x1="95" y1="148" x2="100.7" y2="148"/>
		<line class="st2" x1="95" y1="42" x2="100.7" y2="42"/>
		<line class="st2" x1="662" y1="466" x2="656.3" y2="466"/>
		<line class="st2" x1="662" y1="360" x2="656.3" y2="360"/>
		<line class="st2" x1="662" y1="254" x2="656.3" y2="254"/>
		<line class="st2" x1="662" y1="148" x2="656.3" y2="148"/>
		<line class="st2" x1="662" y1="42" x2="656.3" y2="42"/>
	</g>
	<g transform="translate(88.0667,466.0002)">
		<path class="st3" d="M-29-4.6v-1.8h9.7v1.4c-0.9,1-1.9,2.4-2.8,4.1c-0.9,1.7-1.7,3.4-2.2,5.2C-24.7,5.6-24.9,7-25,8.5h-1.9
			c0-1.2,0.3-2.6,0.7-4.3c0.4-1.7,1.1-3.3,1.9-4.8c0.8-1.6,1.7-2.9,2.7-3.9H-29z M-16.4,8.5V6.4h2.1v2.1H-16.4z M-2-2.8l-1.8,0.1
			C-4-3.4-4.3-4-4.6-4.3c-0.5-0.5-1.1-0.8-1.8-0.8C-7-5.1-7.5-4.9-8-4.6c-0.6,0.4-1,1-1.4,1.8c-0.3,0.8-0.5,2-0.5,3.5
			c0.4-0.7,1-1.2,1.6-1.5c0.6-0.3,1.3-0.5,2-0.5c1.2,0,2.3,0.5,3.1,1.4C-2.2,1-1.8,2.2-1.8,3.6c0,0.9-0.2,1.8-0.6,2.6
			c-0.4,0.8-1,1.4-1.7,1.9c-0.7,0.4-1.5,0.6-2.4,0.6c-1.5,0-2.8-0.6-3.8-1.7c-1-1.1-1.5-3-1.5-5.6c0-2.9,0.5-5,1.6-6.3
			C-9.2-6-7.9-6.6-6.3-6.6c1.2,0,2.1,0.3,2.9,1S-2.2-4-2-2.8z M-9.6,3.6c0,0.6,0.1,1.2,0.4,1.8C-8.9,6-8.5,6.5-8,6.8
			c0.5,0.3,1,0.5,1.5,0.5c0.8,0,1.4-0.3,2-0.9c0.6-0.6,0.8-1.5,0.8-2.6c0-1-0.3-1.9-0.8-2.5C-5,0.7-5.7,0.4-6.6,0.4
			c-0.8,0-1.5,0.3-2.1,0.9C-9.3,1.9-9.6,2.7-9.6,3.6z"/>
	</g>
	<g transform="translate(88.0667,359.9998)">
		<path class="st3" d="M-40-4.6v-1.8h9.7v1.4c-0.9,1-1.9,2.4-2.8,4.1c-0.9,1.7-1.7,3.4-2.2,5.2C-35.7,5.6-35.9,7-36,8.5h-1.9
			c0-1.2,0.3-2.6,0.7-4.3c0.4-1.7,1.1-3.3,1.9-4.8c0.8-1.6,1.7-2.9,2.7-3.9H-40z M-27.4,8.5V6.4h2.1v2.1H-27.4z M-13-2.8l-1.8,0.1
			C-15-3.4-15.3-4-15.6-4.3c-0.5-0.5-1.1-0.8-1.8-0.8c-0.6,0-1.1,0.2-1.6,0.5c-0.6,0.4-1,1-1.4,1.8c-0.3,0.8-0.5,2-0.5,3.5
			c0.4-0.7,1-1.2,1.6-1.5c0.6-0.3,1.3-0.5,2-0.5c1.2,0,2.3,0.5,3.1,1.4c0.9,0.9,1.3,2.1,1.3,3.5c0,0.9-0.2,1.8-0.6,2.6
			c-0.4,0.8-1,1.4-1.7,1.9c-0.7,0.4-1.5,0.6-2.4,0.6c-1.5,0-2.8-0.6-3.8-1.7c-1-1.1-1.5-3-1.5-5.6c0-2.9,0.5-5,1.6-6.3
			c0.9-1.1,2.2-1.7,3.8-1.7c1.2,0,2.1,0.3,2.9,1S-13.2-4-13-2.8z M-20.6,3.6c0,0.6,0.1,1.2,0.4,1.8c0.3,0.6,0.6,1,1.1,1.3
			c0.5,0.3,1,0.5,1.5,0.5c0.8,0,1.4-0.3,2-0.9c0.6-0.6,0.8-1.5,0.8-2.6c0-1-0.3-1.9-0.8-2.5c-0.6-0.6-1.3-0.9-2.1-0.9
			c-0.8,0-1.5,0.3-2.1,0.9C-20.3,1.9-20.6,2.7-20.6,3.6z M-10.9,4.6L-9,4.4C-8.8,5.3-8.5,6-8,6.5C-7.5,7-6.8,7.2-6.1,7.2
			c0.9,0,1.6-0.3,2.2-1s0.9-1.6,0.9-2.7c0-1.1-0.3-1.9-0.9-2.5c-0.6-0.6-1.4-0.9-2.3-0.9c-0.6,0-1.1,0.1-1.6,0.4
			c-0.5,0.3-0.9,0.6-1.1,1.1l-1.7-0.2l1.5-7.7h7.5v1.8h-6l-0.8,4c0.9-0.6,1.8-0.9,2.8-0.9c1.3,0,2.4,0.5,3.3,1.4C-1.4,0.8-1,2-1,3.4
			c0,1.4-0.4,2.5-1.2,3.5c-1,1.2-2.3,1.8-4,1.8c-1.4,0-2.5-0.4-3.3-1.1C-10.3,6.8-10.8,5.8-10.9,4.6z"/>
	</g>
	<g transform="translate(88.0667,254.0004)">
		<path class="st3" d="M-29-4.6v-1.8h9.7v1.4c-0.9,1-1.9,2.4-2.8,4.1c-0.9,1.7-1.7,3.4-2.2,5.2C-24.7,5.6-24.9,7-25,8.5h-1.9
			c0-1.2,0.3-2.6,0.7-4.3c0.4-1.7,1.1-3.3,1.9-4.8c0.8-1.6,1.7-2.9,2.7-3.9H-29z M-16.4,8.5V6.4h2.1v2.1H-16.4z M-11.5-4.6v-1.8h9.7
			v1.4c-0.9,1-1.9,2.4-2.8,4.1c-0.9,1.7-1.7,3.4-2.2,5.2C-7.2,5.6-7.4,7-7.5,8.5h-1.9c0-1.2,0.3-2.6,0.7-4.3
			c0.4-1.7,1.1-3.3,1.9-4.8c0.8-1.6,1.7-2.9,2.7-3.9H-11.5z"/>
	</g>
	<g transform="translate(88.0667,148)">
		<path class="st3" d="M-40-4.6v-1.8h9.7v1.4c-0.9,1-1.9,2.4-2.8,4.1c-0.9,1.7-1.7,3.4-2.2,5.2C-35.7,5.6-35.9,7-36,8.5h-1.9
			c0-1.2,0.3-2.6,0.7-4.3c0.4-1.7,1.1-3.3,1.9-4.8c0.8-1.6,1.7-2.9,2.7-3.9H-40z M-27.4,8.5V6.4h2.1v2.1H-27.4z M-22.5-4.6v-1.8h9.7
			v1.4c-0.9,1-1.9,2.4-2.8,4.1c-0.9,1.7-1.7,3.4-2.2,5.2c-0.4,1.3-0.6,2.6-0.7,4.1h-1.9c0-1.2,0.3-2.6,0.7-4.3
			c0.4-1.7,1.1-3.3,1.9-4.8c0.8-1.6,1.7-2.9,2.7-3.9H-22.5z M-10.9,4.6L-9,4.4C-8.8,5.3-8.5,6-8,6.5C-7.5,7-6.8,7.2-6.1,7.2
			c0.9,0,1.6-0.3,2.2-1s0.9-1.6,0.9-2.7c0-1.1-0.3-1.9-0.9-2.5c-0.6-0.6-1.4-0.9-2.3-0.9c-0.6,0-1.1,0.1-1.6,0.4
			c-0.5,0.3-0.9,0.6-1.1,1.1l-1.7-0.2l1.5-7.7h7.5v1.8h-6l-0.8,4c0.9-0.6,1.8-0.9,2.8-0.9c1.3,0,2.4,0.5,3.3,1.4C-1.4,0.8-1,2-1,3.4
			c0,1.4-0.4,2.5-1.2,3.5c-1,1.2-2.3,1.8-4,1.8c-1.4,0-2.5-0.4-3.3-1.1C-10.3,6.8-10.8,5.8-10.9,4.6z"/>
	</g>
	<g transform="translate(88.0667,41.9996)">
		<path class="st3" d="M-29-4.6v-1.8h9.7v1.4c-0.9,1-1.9,2.4-2.8,4.1c-0.9,1.7-1.7,3.4-2.2,5.2C-24.7,5.6-24.9,7-25,8.5h-1.9
			c0-1.2,0.3-2.6,0.7-4.3c0.4-1.7,1.1-3.3,1.9-4.8c0.8-1.6,1.7-2.9,2.7-3.9H-29z M-16.4,8.5V6.4h2.1v2.1H-16.4z M-8.8,0.3
			c-0.8-0.3-1.3-0.7-1.7-1.2C-10.8-1.4-11-2-11-2.7c0-1.1,0.4-2,1.2-2.8S-8-6.6-6.7-6.6c1.3,0,2.4,0.4,3.2,1.1
			c0.8,0.8,1.2,1.7,1.2,2.8c0,0.7-0.2,1.3-0.5,1.8c-0.4,0.5-0.9,0.9-1.7,1.2c0.9,0.3,1.6,0.8,2.1,1.5C-2,2.5-1.7,3.3-1.7,4.2
			c0,1.3-0.5,2.4-1.4,3.2s-2.1,1.3-3.6,1.3c-1.5,0-2.7-0.4-3.6-1.3s-1.4-2-1.4-3.3c0-1,0.3-1.8,0.8-2.5S-9.7,0.6-8.8,0.3z M-9.1-2.8
			c0,0.7,0.2,1.3,0.7,1.7C-8-0.6-7.4-0.4-6.7-0.4C-6-0.4-5.4-0.6-4.9-1c0.5-0.4,0.7-1,0.7-1.6c0-0.7-0.2-1.2-0.7-1.7
			C-5.4-4.8-6-5.1-6.7-5.1c-0.7,0-1.3,0.2-1.8,0.7C-8.9-3.9-9.1-3.4-9.1-2.8z M-9.7,4.2c0,0.5,0.1,1,0.4,1.5s0.6,0.9,1.1,1.1
			c0.5,0.3,1,0.4,1.6,0.4c0.9,0,1.6-0.3,2.2-0.9s0.9-1.3,0.9-2.2c0-0.9-0.3-1.6-0.9-2.2c-0.6-0.6-1.3-0.9-2.2-0.9
			c-0.9,0-1.6,0.3-2.2,0.9C-9.5,2.6-9.7,3.3-9.7,4.2z"/>
	</g>
	<g transform="translate(43.0667,253.9994) rotate(-90)">
		<path class="st3" d="M-41.2-6v-16.5h11.9v2H-39v5h9.1v1.9H-39v5.6h10.1V-6H-41.2z M-21.7-7.8l0.3,1.8C-22-5.9-22.5-5.8-23-5.8
			c-0.7,0-1.3-0.1-1.7-0.4c-0.4-0.2-0.7-0.5-0.9-0.9c-0.2-0.4-0.2-1.2-0.2-2.4v-6.9h-1.5v-1.6h1.5v-3l2-1.2v4.2h2v1.6h-2v7
			c0,0.6,0,0.9,0.1,1.1s0.2,0.3,0.4,0.4c0.2,0.1,0.4,0.1,0.7,0.1C-22.4-7.7-22.1-7.8-21.7-7.8z M-11.6-9.8l2.1,0.3
			c-0.3,1.2-0.9,2.2-1.8,2.8c-0.9,0.7-2,1-3.4,1c-1.8,0-3.1-0.5-4.2-1.6c-1-1.1-1.5-2.6-1.5-4.5c0-2,0.5-3.6,1.5-4.7
			c1-1.1,2.4-1.7,4-1.7c1.6,0,2.9,0.5,3.9,1.6c1,1.1,1.5,2.6,1.5,4.6c0,0.1,0,0.3,0,0.5h-8.9c0.1,1.3,0.4,2.3,1.1,3
			c0.7,0.7,1.5,1,2.5,1c0.7,0,1.4-0.2,1.9-0.6C-12.3-8.4-11.9-9-11.6-9.8z M-18.2-13.1h6.7c-0.1-1-0.3-1.8-0.8-2.3
			c-0.6-0.8-1.5-1.2-2.5-1.2c-0.9,0-1.7,0.3-2.3,0.9C-17.8-15-18.2-14.2-18.2-13.1z M-7-6v-11.9h1.8v1.7c0.9-1.3,2.2-2,3.8-2
			c0.7,0,1.4,0.1,2,0.4c0.6,0.3,1.1,0.6,1.4,1c0.3,0.4,0.5,0.9,0.6,1.5c0.1,0.4,0.1,1,0.1,2V-6h-2v-7.3c0-0.8-0.1-1.4-0.2-1.9
			s-0.4-0.7-0.8-1c-0.4-0.2-0.9-0.4-1.4-0.4c-0.9,0-1.6,0.3-2.2,0.8c-0.6,0.5-0.9,1.6-0.9,3.1V-6H-7z M13.6-6v-1.5
			c-0.8,1.2-1.9,1.8-3.3,1.8C9.3-5.7,8.4-6,7.6-6.5C6.8-7,6.2-7.8,5.8-8.7c-0.4-0.9-0.7-2-0.7-3.2c0-1.2,0.2-2.3,0.6-3.2
			c0.4-1,1-1.7,1.8-2.2c0.8-0.5,1.7-0.8,2.7-0.8c0.7,0,1.4,0.2,1.9,0.5c0.6,0.3,1,0.7,1.4,1.2v-5.9h2V-6H13.6z M7.2-12
			c0,1.5,0.3,2.7,1,3.4c0.6,0.8,1.4,1.1,2.3,1.1c0.9,0,1.6-0.4,2.3-1.1c0.6-0.7,0.9-1.8,0.9-3.3c0-1.6-0.3-2.8-0.9-3.6
			c-0.6-0.8-1.4-1.1-2.3-1.1c-0.9,0-1.6,0.4-2.3,1.1C7.5-14.7,7.2-13.5,7.2-12z M26.4-6v-1.8c-0.9,1.3-2.2,2-3.8,2
			c-0.7,0-1.4-0.1-2-0.4c-0.6-0.3-1.1-0.6-1.4-1c-0.3-0.4-0.5-0.9-0.6-1.5c-0.1-0.4-0.1-1-0.1-1.9v-7.4h2v6.6c0,1.1,0,1.8,0.1,2.1
			c0.1,0.5,0.4,0.9,0.8,1.3c0.4,0.3,0.9,0.5,1.5,0.5c0.6,0,1.2-0.2,1.7-0.5c0.5-0.3,0.9-0.7,1.1-1.3c0.2-0.5,0.3-1.3,0.3-2.3v-6.4h2
			V-6H26.4z M39.6-9.8l2.1,0.3c-0.3,1.2-0.9,2.2-1.8,2.8c-0.9,0.7-2,1-3.4,1c-1.8,0-3.1-0.5-4.2-1.6c-1-1.1-1.5-2.6-1.5-4.5
			c0-2,0.5-3.6,1.5-4.7c1-1.1,2.4-1.7,4-1.7c1.6,0,2.9,0.5,3.9,1.6c1,1.1,1.5,2.6,1.5,4.6c0,0.1,0,0.3,0,0.5h-8.9
			c0.1,1.3,0.4,2.3,1.1,3s1.5,1,2.5,1c0.7,0,1.4-0.2,1.9-0.6C38.9-8.4,39.3-9,39.6-9.8z M32.9-13.1h6.7c-0.1-1-0.3-1.8-0.8-2.3
			c-0.6-0.8-1.5-1.2-2.5-1.2c-0.9,0-1.7,0.3-2.3,0.9C33.4-15,33-14.2,32.9-13.1z"/>
	</g>
	<g>
		<line class="st4" x1="95" y1="105.6" x2="662.1" y2="105.6"/>
		<path class="st5" d="M567.5,438.2L331.3,274.1l-118.1-90.5l-59.1-44.9l-29.5-22"/>
		<line class="st5" x1="563" y1="438.5" x2="572" y2="438.5"/>
		<line class="st5" x1="567.5" y1="443" x2="567.5" y2="434"/>
		<line class="st5" x1="564" y1="442" x2="571" y2="435"/>
		<line class="st5" x1="564" y1="435" x2="571" y2="442"/>
		<line class="st5" x1="327" y1="274.5" x2="336" y2="274.5"/>
		<line class="st5" x1="331.5" y1="279" x2="331.5" y2="270"/>
		<line class="st5" x1="328" y1="278" x2="335" y2="271"/>
		<line class="st5" x1="328" y1="271" x2="335" y2="278"/>
		<line class="st5" x1="209" y1="183.5" x2="218" y2="183.5"/>
		<line class="st5" x1="213.5" y1="188" x2="213.5" y2="179"/>
		<line class="st5" x1="210" y1="187" x2="217" y2="180"/>
		<line class="st5" x1="210" y1="180" x2="217" y2="187"/>
		<line class="st5" x1="150" y1="138.5" x2="159" y2="138.5"/>
		<line class="st5" x1="154.5" y1="143" x2="154.5" y2="134"/>
		<line class="st5" x1="151" y1="142" x2="158" y2="135"/>
		<line class="st5" x1="151" y1="135" x2="158" y2="142"/>
		<line class="st5" x1="120" y1="116.5" x2="129" y2="116.5"/>
		<line class="st5" x1="124.5" y1="121" x2="124.5" y2="112"/>
		<line class="st5" x1="121" y1="120" x2="128" y2="113"/>
		<line class="st5" x1="121" y1="113" x2="128" y2="120"/>
	</g>
	<g>
		<path class="st1" d="M567,112V42h95v70H567z"/>
	</g>
	<g transform="translate(620,64)">
		<path d="M10.4-13.6h1.8v7.8c0,1.4-0.2,2.5-0.5,3.3c-0.3,0.8-0.9,1.5-1.7,2C9.2,0,8.2,0.2,6.9,0.2C5.6,0.2,4.6,0,3.8-0.4
			C2.9-0.9,2.4-1.5,2-2.3s-0.5-2-0.5-3.4v-7.8h1.8v7.8c0,1.2,0.1,2,0.3,2.6c0.2,0.6,0.6,1,1.1,1.3c0.5,0.3,1.2,0.5,2,0.5
			C8-1.4,9-1.7,9.5-2.3c0.6-0.6,0.8-1.8,0.8-3.5V-13.6z"/>
	</g>
	<g transform="translate(634,73)">
		<path d="M5.6,0H4.3v-8.4C4-8.1,3.5-7.8,3-7.5C2.5-7.2,2-7,1.6-6.8v-1.3C2.4-8.4,3-8.9,3.6-9.3c0.6-0.5,0.9-1,1.2-1.4h0.9V0z"/>
	</g>
	<g>
		<line class="st4" x1="586.5" y1="60.4" x2="616.5" y2="60.4"/>
	</g>
	<g transform="translate(620,98)">
		<path d="M10.4-13.6h1.8v7.8c0,1.4-0.2,2.5-0.5,3.3c-0.3,0.8-0.9,1.5-1.7,2C9.2,0,8.2,0.2,6.9,0.2C5.6,0.2,4.6,0,3.8-0.4
			C2.9-0.9,2.4-1.5,2-2.3s-0.5-2-0.5-3.4v-7.8h1.8v7.8c0,1.2,0.1,2,0.3,2.6c0.2,0.6,0.6,1,1.1,1.3c0.5,0.3,1.2,0.5,2,0.5
			C8-1.4,9-1.7,9.5-2.3c0.6-0.6,0.8-1.8,0.8-3.5V-13.6z"/>
	</g>
	<g transform="translate(634,107)">
		<path d="M3.9-1.2L4.1,0c-0.4,0.1-0.7,0.1-1,0.1C2.6,0.1,2.2,0,1.9-0.1C1.7-0.3,1.5-0.5,1.4-0.7C1.3-1,1.2-1.5,1.2-2.3v-4.5h-1v-1
			h1v-1.9l1.3-0.8v2.7h1.3v1H2.5v4.5c0,0.4,0,0.6,0.1,0.7c0,0.1,0.1,0.2,0.2,0.3c0.1,0.1,0.2,0.1,0.4,0.1C3.4-1.1,3.6-1.1,3.9-1.2z"
			/>
	</g>
	<g>
		<line class="st5" x1="586.5" y1="93.6" x2="616.5" y2="93.6"/>
		<line class="st5" x1="597" y1="93.5" x2="606" y2="93.5"/>
		<line class="st5" x1="601.5" y1="98" x2="601.5" y2="89"/>
		<line class="st5" x1="598" y1="97" x2="605" y2="90"/>
		<line class="st5" x1="598" y1="90" x2="605" y2="97"/>
	</g>
	<g>
		<path class="st6" d="M567,112V42h95v70H567z"/>
	</g>
</g>
</svg>
