<?xml version="1.0" encoding="utf-8"?>
<!-- Generator: Adobe Illustrator 21.1.0, SVG Export Plug-In . SVG Version: 6.00 Build 0)  -->
<svg version="1.1" id="Layer_1" xmlns="http://www.w3.org/2000/svg" xmlns:xlink="http://www.w3.org/1999/xlink" x="0px" y="0px"
	 viewBox="0 0 731 555" style="enable-background:new 0 0 731 555;" xml:space="preserve">
<style type="text/css">
	.st0{clip-path:url(#SVGID_2_);fill:#FFFFFF;}
	.st1{fill:#FFFFFF;}
	.st2{fill:none;stroke:#262626;stroke-width:0.6667;stroke-linecap:square;stroke-linejoin:round;stroke-miterlimit:10;}
	.st3{fill:#262626;}
	.st4{fill:none;stroke:#0000FF;stroke-width:2.6667;stroke-linejoin:round;stroke-miterlimit:10;}
	.st5{fill:none;stroke:#00FF00;stroke-width:2.6667;stroke-linejoin:round;stroke-miterlimit:10;}
	.st6{fill:none;stroke:#00FFFF;stroke-width:2.6667;stroke-linejoin:round;stroke-miterlimit:10;}
	.st7{fill:none;stroke:#FF0000;stroke-width:2.6667;stroke-linejoin:round;stroke-miterlimit:10;}
	.st8{fill:none;stroke:#262626;stroke-width:0.6667;stroke-miterlimit:10;}
</style>
<g>
	<g>
		<g>
			<defs>
				<rect id="SVGID_1_" y="0" width="731" height="555"/>
			</defs>
			<clipPath id="SVGID_2_">
				<use xlink:href="#SVGID_1_"  style="overflow:visible;"/>
			</clipPath>
			<rect y="0" class="st0" width="731" height="555"/>
		</g>
	</g>
	<g>
		<rect y="0" class="st1" width="731" height="555"/>
		<path class="st1" d="M95,490h567V42H95V490z"/>
	</g>
	<g>
		<line class="st2" x1="95" y1="490" x2="662" y2="490"/>
		<line class="st2" x1="95" y1="42" x2="662" y2="42"/>
		<line class="st2" x1="95" y1="490" x2="95" y2="484.3"/>
		<line class="st2" x1="168.2" y1="490" x2="168.2" y2="484.3"/>
		<line class="st2" x1="241.3" y1="490" x2="241.3" y2="484.3"/>
		<line class="st2" x1="314.5" y1="490" x2="314.5" y2="484.3"/>
		<line class="st2" x1="387.6" y1="490" x2="387.6" y2="484.3"/>
		<line class="st2" x1="460.8" y1="490" x2="460.8" y2="484.3"/>
		<line class="st2" x1="534" y1="490" x2="534" y2="484.3"/>
		<line class="st2" x1="607.1" y1="490" x2="607.1" y2="484.3"/>
		<line class="st2" x1="95" y1="42" x2="95" y2="47.7"/>
		<line class="st2" x1="168.2" y1="42" x2="168.2" y2="47.7"/>
		<line class="st2" x1="241.3" y1="42" x2="241.3" y2="47.7"/>
		<line class="st2" x1="314.5" y1="42" x2="314.5" y2="47.7"/>
		<line class="st2" x1="387.6" y1="42" x2="387.6" y2="47.7"/>
		<line class="st2" x1="460.8" y1="42" x2="460.8" y2="47.7"/>
		<line class="st2" x1="534" y1="42" x2="534" y2="47.7"/>
		<line class="st2" x1="607.1" y1="42" x2="607.1" y2="47.7"/>
	</g>
	<g transform="translate(95,496.9333)">
		<path class="st3" d="M-19.6,14.6c0-1.8,0.2-3.2,0.5-4.3c0.4-1.1,0.9-1.9,1.6-2.5c0.7-0.6,1.6-0.9,2.7-0.9c0.8,0,1.5,0.2,2.1,0.5
			c0.6,0.3,1.1,0.8,1.5,1.4c0.4,0.6,0.7,1.4,0.9,2.2c0.2,0.9,0.3,2.1,0.3,3.6c0,1.8-0.2,3.2-0.5,4.3c-0.4,1.1-0.9,1.9-1.6,2.5
			c-0.7,0.6-1.6,0.9-2.7,0.9c-1.4,0-2.6-0.5-3.4-1.5C-19.1,19.5-19.6,17.4-19.6,14.6z M-17.7,14.6c0,2.5,0.3,4.1,0.9,4.9
			s1.3,1.2,2.1,1.2c0.9,0,1.6-0.4,2.1-1.2c0.6-0.8,0.9-2.5,0.9-4.9c0-2.5-0.3-4.1-0.9-4.9c-0.6-0.8-1.3-1.2-2.2-1.2
			c-0.8,0-1.5,0.4-2,1.1C-17.4,10.4-17.7,12.1-17.7,14.6z M-6.9,22v-2.1h2.1V22H-6.9z M-2.1,14.6c0-1.8,0.2-3.2,0.5-4.3
			c0.4-1.1,0.9-1.9,1.6-2.5c0.7-0.6,1.6-0.9,2.7-0.9c0.8,0,1.5,0.2,2.1,0.5C5.5,7.7,6,8.2,6.4,8.8c0.4,0.6,0.7,1.4,0.9,2.2
			c0.2,0.9,0.3,2.1,0.3,3.6c0,1.8-0.2,3.2-0.5,4.3c-0.4,1.1-0.9,1.9-1.6,2.5c-0.7,0.6-1.6,0.9-2.7,0.9c-1.4,0-2.6-0.5-3.4-1.5
			C-1.6,19.5-2.1,17.4-2.1,14.6z M-0.2,14.6c0,2.5,0.3,4.1,0.9,4.9s1.3,1.2,2.1,1.2c0.9,0,1.6-0.4,2.1-1.2s0.9-2.5,0.9-4.9
			c0-2.5-0.3-4.1-0.9-4.9C4.3,8.8,3.6,8.4,2.8,8.4c-0.8,0-1.5,0.4-2,1.1C0.1,10.4-0.2,12.1-0.2,14.6z M12.4,13.8
			c-0.8-0.3-1.3-0.7-1.7-1.2c-0.4-0.5-0.6-1.1-0.6-1.9c0-1.1,0.4-2,1.2-2.8s1.8-1.1,3.1-1.1c1.3,0,2.4,0.4,3.2,1.1
			c0.8,0.8,1.2,1.7,1.2,2.8c0,0.7-0.2,1.3-0.5,1.8c-0.4,0.5-0.9,0.9-1.7,1.2c0.9,0.3,1.6,0.8,2.1,1.5c0.5,0.7,0.7,1.5,0.7,2.4
			c0,1.3-0.5,2.4-1.4,3.2s-2.1,1.3-3.6,1.3c-1.5,0-2.7-0.4-3.6-1.3s-1.4-2-1.4-3.3c0-1,0.3-1.8,0.8-2.5
			C10.8,14.5,11.5,14.1,12.4,13.8z M12,10.7c0,0.7,0.2,1.3,0.7,1.7c0.5,0.5,1.1,0.7,1.8,0.7c0.7,0,1.3-0.2,1.8-0.7
			c0.5-0.4,0.7-1,0.7-1.6c0-0.7-0.2-1.2-0.7-1.7c-0.5-0.5-1.1-0.7-1.8-0.7c-0.7,0-1.3,0.2-1.8,0.7C12.3,9.6,12,10.1,12,10.7z
			 M11.4,17.7c0,0.5,0.1,1,0.4,1.5c0.2,0.5,0.6,0.9,1.1,1.1c0.5,0.3,1,0.4,1.6,0.4c0.9,0,1.6-0.3,2.2-0.9c0.6-0.6,0.9-1.3,0.9-2.2
			c0-0.9-0.3-1.6-0.9-2.2c-0.6-0.6-1.3-0.9-2.2-0.9c-0.9,0-1.6,0.3-2.2,0.9C11.7,16.1,11.4,16.8,11.4,17.7z"/>
	</g>
	<g transform="translate(168.1613,496.9333)">
		<path class="st3" d="M-14.1,14.6c0-1.8,0.2-3.2,0.5-4.3c0.4-1.1,0.9-1.9,1.6-2.5c0.7-0.6,1.6-0.9,2.7-0.9c0.8,0,1.5,0.2,2.1,0.5
			C-6.5,7.7-6,8.2-5.6,8.8c0.4,0.6,0.7,1.4,0.9,2.2c0.2,0.9,0.3,2.1,0.3,3.6c0,1.8-0.2,3.2-0.5,4.3c-0.4,1.1-0.9,1.9-1.6,2.5
			c-0.7,0.6-1.6,0.9-2.7,0.9c-1.4,0-2.6-0.5-3.4-1.5C-13.6,19.5-14.1,17.4-14.1,14.6z M-12.2,14.6c0,2.5,0.3,4.1,0.9,4.9
			c0.6,0.8,1.3,1.2,2.1,1.2c0.9,0,1.6-0.4,2.1-1.2c0.6-0.8,0.9-2.5,0.9-4.9c0-2.5-0.3-4.1-0.9-4.9c-0.6-0.8-1.3-1.2-2.2-1.2
			c-0.8,0-1.5,0.4-2,1.1C-11.9,10.4-12.2,12.1-12.2,14.6z M-1.4,22v-2.1h2.1V22H-1.4z M10.3,22H8.5V10.2c-0.4,0.4-1,0.9-1.8,1.3
			c-0.7,0.4-1.4,0.7-1.9,1v-1.8c1-0.5,1.9-1.1,2.7-1.8c0.8-0.7,1.3-1.4,1.6-2h1.2V22z"/>
	</g>
	<g transform="translate(241.3226,496.9333)">
		<path class="st3" d="M-19.6,14.6c0-1.8,0.2-3.2,0.5-4.3c0.4-1.1,0.9-1.9,1.6-2.5c0.7-0.6,1.6-0.9,2.7-0.9c0.8,0,1.5,0.2,2.1,0.5
			c0.6,0.3,1.1,0.8,1.5,1.4c0.4,0.6,0.7,1.4,0.9,2.2c0.2,0.9,0.3,2.1,0.3,3.6c0,1.8-0.2,3.2-0.5,4.3c-0.4,1.1-0.9,1.9-1.6,2.5
			c-0.7,0.6-1.6,0.9-2.7,0.9c-1.4,0-2.6-0.5-3.4-1.5C-19.1,19.5-19.6,17.4-19.6,14.6z M-17.7,14.6c0,2.5,0.3,4.1,0.9,4.9
			s1.3,1.2,2.1,1.2c0.9,0,1.6-0.4,2.1-1.2c0.6-0.8,0.9-2.5,0.9-4.9c0-2.5-0.3-4.1-0.9-4.9c-0.6-0.8-1.3-1.2-2.2-1.2
			c-0.8,0-1.5,0.4-2,1.1C-17.4,10.4-17.7,12.1-17.7,14.6z M-6.9,22v-2.1h2.1V22H-6.9z M4.8,22H3V10.2c-0.4,0.4-1,0.9-1.8,1.3
			c-0.7,0.4-1.4,0.7-1.9,1v-1.8c1-0.5,1.9-1.1,2.7-1.8c0.8-0.7,1.3-1.4,1.6-2h1.2V22z M19.3,20.2V22H9.3c0-0.4,0-0.9,0.2-1.3
			c0.3-0.7,0.7-1.3,1.2-2c0.6-0.7,1.4-1.4,2.4-2.3c1.6-1.3,2.7-2.4,3.3-3.2c0.6-0.8,0.9-1.5,0.9-2.2c0-0.7-0.3-1.3-0.8-1.8
			c-0.5-0.5-1.2-0.8-2-0.8c-0.9,0-1.6,0.3-2.1,0.8c-0.5,0.5-0.8,1.3-0.8,2.2l-1.9-0.2c0.1-1.4,0.6-2.5,1.5-3.2
			c0.8-0.7,2-1.1,3.4-1.1c1.4,0,2.6,0.4,3.4,1.2c0.8,0.8,1.3,1.8,1.3,3c0,0.6-0.1,1.2-0.4,1.8c-0.2,0.6-0.7,1.2-1.2,1.8
			s-1.5,1.5-2.8,2.6c-1.1,0.9-1.8,1.6-2.1,1.9c-0.3,0.3-0.6,0.7-0.8,1H19.3z"/>
	</g>
	<g transform="translate(314.4839,496.9333)">
		<path class="st3" d="M-19.6,14.6c0-1.8,0.2-3.2,0.5-4.3c0.4-1.1,0.9-1.9,1.6-2.5c0.7-0.6,1.6-0.9,2.7-0.9c0.8,0,1.5,0.2,2.1,0.5
			c0.6,0.3,1.1,0.8,1.5,1.4c0.4,0.6,0.7,1.4,0.9,2.2c0.2,0.9,0.3,2.1,0.3,3.6c0,1.8-0.2,3.2-0.5,4.3c-0.4,1.1-0.9,1.9-1.6,2.5
			c-0.7,0.6-1.6,0.9-2.7,0.9c-1.4,0-2.6-0.5-3.4-1.5C-19.1,19.5-19.6,17.4-19.6,14.6z M-17.7,14.6c0,2.5,0.3,4.1,0.9,4.9
			s1.3,1.2,2.1,1.2c0.9,0,1.6-0.4,2.1-1.2c0.6-0.8,0.9-2.5,0.9-4.9c0-2.5-0.3-4.1-0.9-4.9c-0.6-0.8-1.3-1.2-2.2-1.2
			c-0.8,0-1.5,0.4-2,1.1C-17.4,10.4-17.7,12.1-17.7,14.6z M-6.9,22v-2.1h2.1V22H-6.9z M4.8,22H3V10.2c-0.4,0.4-1,0.9-1.8,1.3
			c-0.7,0.4-1.4,0.7-1.9,1v-1.8c1-0.5,1.9-1.1,2.7-1.8c0.8-0.7,1.3-1.4,1.6-2h1.2V22z M15.5,22v-3.6H9v-1.7L15.8,7h1.5v9.7h2v1.7h-2
			V22H15.5z M15.5,16.7V9.9l-4.7,6.8H15.5z"/>
	</g>
	<g transform="translate(387.6451,496.9333)">
		<path class="st3" d="M-19.6,14.6c0-1.8,0.2-3.2,0.5-4.3c0.4-1.1,0.9-1.9,1.6-2.5c0.7-0.6,1.6-0.9,2.7-0.9c0.8,0,1.5,0.2,2.1,0.5
			c0.6,0.3,1.1,0.8,1.5,1.4c0.4,0.6,0.7,1.4,0.9,2.2c0.2,0.9,0.3,2.1,0.3,3.6c0,1.8-0.2,3.2-0.5,4.3c-0.4,1.1-0.9,1.9-1.6,2.5
			c-0.7,0.6-1.6,0.9-2.7,0.9c-1.4,0-2.6-0.5-3.4-1.5C-19.1,19.5-19.6,17.4-19.6,14.6z M-17.7,14.6c0,2.5,0.3,4.1,0.9,4.9
			s1.3,1.2,2.1,1.2c0.9,0,1.6-0.4,2.1-1.2c0.6-0.8,0.9-2.5,0.9-4.9c0-2.5-0.3-4.1-0.9-4.9c-0.6-0.8-1.3-1.2-2.2-1.2
			c-0.8,0-1.5,0.4-2,1.1C-17.4,10.4-17.7,12.1-17.7,14.6z M-6.9,22v-2.1h2.1V22H-6.9z M4.8,22H3V10.2c-0.4,0.4-1,0.9-1.8,1.3
			c-0.7,0.4-1.4,0.7-1.9,1v-1.8c1-0.5,1.9-1.1,2.7-1.8c0.8-0.7,1.3-1.4,1.6-2h1.2V22z M19.1,10.7l-1.8,0.1c-0.2-0.7-0.4-1.3-0.7-1.6
			c-0.5-0.5-1.1-0.8-1.8-0.8c-0.6,0-1.1,0.2-1.6,0.5c-0.6,0.4-1,1-1.4,1.8c-0.3,0.8-0.5,2-0.5,3.5c0.4-0.7,1-1.2,1.6-1.5
			c0.6-0.3,1.3-0.5,2-0.5c1.2,0,2.3,0.5,3.1,1.4c0.9,0.9,1.3,2.1,1.3,3.5c0,0.9-0.2,1.8-0.6,2.6c-0.4,0.8-1,1.4-1.7,1.9
			c-0.7,0.4-1.5,0.6-2.4,0.6c-1.5,0-2.8-0.6-3.8-1.7c-1-1.1-1.5-3-1.5-5.6c0-2.9,0.5-5,1.6-6.3c0.9-1.1,2.2-1.7,3.8-1.7
			c1.2,0,2.1,0.3,2.9,1S19,9.5,19.1,10.7z M11.6,17.1c0,0.6,0.1,1.2,0.4,1.8c0.3,0.6,0.6,1,1.1,1.3c0.5,0.3,1,0.5,1.5,0.5
			c0.8,0,1.4-0.3,2-0.9c0.6-0.6,0.8-1.5,0.8-2.6c0-1-0.3-1.9-0.8-2.5c-0.6-0.6-1.3-0.9-2.1-0.9c-0.8,0-1.5,0.3-2.1,0.9
			C11.9,15.4,11.6,16.2,11.6,17.1z"/>
	</g>
	<g transform="translate(460.8065,496.9333)">
		<path class="st3" d="M-19.6,14.6c0-1.8,0.2-3.2,0.5-4.3c0.4-1.1,0.9-1.9,1.6-2.5c0.7-0.6,1.6-0.9,2.7-0.9c0.8,0,1.5,0.2,2.1,0.5
			c0.6,0.3,1.1,0.8,1.5,1.4c0.4,0.6,0.7,1.4,0.9,2.2c0.2,0.9,0.3,2.1,0.3,3.6c0,1.8-0.2,3.2-0.5,4.3c-0.4,1.1-0.9,1.9-1.6,2.5
			c-0.7,0.6-1.6,0.9-2.7,0.9c-1.4,0-2.6-0.5-3.4-1.5C-19.1,19.5-19.6,17.4-19.6,14.6z M-17.7,14.6c0,2.5,0.3,4.1,0.9,4.9
			s1.3,1.2,2.1,1.2c0.9,0,1.6-0.4,2.1-1.2c0.6-0.8,0.9-2.5,0.9-4.9c0-2.5-0.3-4.1-0.9-4.9c-0.6-0.8-1.3-1.2-2.2-1.2
			c-0.8,0-1.5,0.4-2,1.1C-17.4,10.4-17.7,12.1-17.7,14.6z M-6.9,22v-2.1h2.1V22H-6.9z M4.8,22H3V10.2c-0.4,0.4-1,0.9-1.8,1.3
			c-0.7,0.4-1.4,0.7-1.9,1v-1.8c1-0.5,1.9-1.1,2.7-1.8c0.8-0.7,1.3-1.4,1.6-2h1.2V22z M12.4,13.8c-0.8-0.3-1.3-0.7-1.7-1.2
			c-0.4-0.5-0.6-1.1-0.6-1.9c0-1.1,0.4-2,1.2-2.8s1.8-1.1,3.1-1.1c1.3,0,2.4,0.4,3.2,1.1c0.8,0.8,1.2,1.7,1.2,2.8
			c0,0.7-0.2,1.3-0.5,1.8c-0.4,0.5-0.9,0.9-1.7,1.2c0.9,0.3,1.6,0.8,2.1,1.5c0.5,0.7,0.7,1.5,0.7,2.4c0,1.3-0.5,2.4-1.4,3.2
			s-2.1,1.3-3.6,1.3c-1.5,0-2.7-0.4-3.6-1.3s-1.4-2-1.4-3.3c0-1,0.3-1.8,0.8-2.5C10.8,14.5,11.5,14.1,12.4,13.8z M12,10.7
			c0,0.7,0.2,1.3,0.7,1.7c0.5,0.5,1.1,0.7,1.8,0.7c0.7,0,1.3-0.2,1.8-0.7c0.5-0.4,0.7-1,0.7-1.6c0-0.7-0.2-1.2-0.7-1.7
			c-0.5-0.5-1.1-0.7-1.8-0.7c-0.7,0-1.3,0.2-1.8,0.7C12.3,9.6,12,10.1,12,10.7z M11.4,17.7c0,0.5,0.1,1,0.4,1.5
			c0.2,0.5,0.6,0.9,1.1,1.1c0.5,0.3,1,0.4,1.6,0.4c0.9,0,1.6-0.3,2.2-0.9c0.6-0.6,0.9-1.3,0.9-2.2c0-0.9-0.3-1.6-0.9-2.2
			c-0.6-0.6-1.3-0.9-2.2-0.9c-0.9,0-1.6,0.3-2.2,0.9C11.7,16.1,11.4,16.8,11.4,17.7z"/>
	</g>
	<g transform="translate(533.9678,496.9333)">
		<path class="st3" d="M-14.1,14.6c0-1.8,0.2-3.2,0.5-4.3c0.4-1.1,0.9-1.9,1.6-2.5c0.7-0.6,1.6-0.9,2.7-0.9c0.8,0,1.5,0.2,2.1,0.5
			C-6.5,7.7-6,8.2-5.6,8.8c0.4,0.6,0.7,1.4,0.9,2.2c0.2,0.9,0.3,2.1,0.3,3.6c0,1.8-0.2,3.2-0.5,4.3c-0.4,1.1-0.9,1.9-1.6,2.5
			c-0.7,0.6-1.6,0.9-2.7,0.9c-1.4,0-2.6-0.5-3.4-1.5C-13.6,19.5-14.1,17.4-14.1,14.6z M-12.2,14.6c0,2.5,0.3,4.1,0.9,4.9
			c0.6,0.8,1.3,1.2,2.1,1.2c0.9,0,1.6-0.4,2.1-1.2c0.6-0.8,0.9-2.5,0.9-4.9c0-2.5-0.3-4.1-0.9-4.9c-0.6-0.8-1.3-1.2-2.2-1.2
			c-0.8,0-1.5,0.4-2,1.1C-11.9,10.4-12.2,12.1-12.2,14.6z M-1.4,22v-2.1h2.1V22H-1.4z M13.1,20.2V22H3.2c0-0.4,0-0.9,0.2-1.3
			c0.3-0.7,0.7-1.3,1.2-2c0.6-0.7,1.4-1.4,2.4-2.3c1.6-1.3,2.7-2.4,3.3-3.2c0.6-0.8,0.9-1.5,0.9-2.2c0-0.7-0.3-1.3-0.8-1.8
			c-0.5-0.5-1.2-0.8-2-0.8c-0.9,0-1.6,0.3-2.1,0.8c-0.5,0.5-0.8,1.3-0.8,2.2l-1.9-0.2C3.6,9.8,4.1,8.8,5,8c0.8-0.7,2-1.1,3.4-1.1
			c1.4,0,2.6,0.4,3.4,1.2c0.8,0.8,1.3,1.8,1.3,3c0,0.6-0.1,1.2-0.4,1.8c-0.2,0.6-0.7,1.2-1.2,1.8s-1.5,1.5-2.8,2.6
			c-1.1,0.9-1.8,1.6-2.1,1.9c-0.3,0.3-0.6,0.7-0.8,1H13.1z"/>
	</g>
	<g transform="translate(607.129,496.9333)">
		<path class="st3" d="M-19.6,14.6c0-1.8,0.2-3.2,0.5-4.3c0.4-1.1,0.9-1.9,1.6-2.5c0.7-0.6,1.6-0.9,2.7-0.9c0.8,0,1.5,0.2,2.1,0.5
			c0.6,0.3,1.1,0.8,1.5,1.4c0.4,0.6,0.7,1.4,0.9,2.2c0.2,0.9,0.3,2.1,0.3,3.6c0,1.8-0.2,3.2-0.5,4.3c-0.4,1.1-0.9,1.9-1.6,2.5
			c-0.7,0.6-1.6,0.9-2.7,0.9c-1.4,0-2.6-0.5-3.4-1.5C-19.1,19.5-19.6,17.4-19.6,14.6z M-17.7,14.6c0,2.5,0.3,4.1,0.9,4.9
			s1.3,1.2,2.1,1.2c0.9,0,1.6-0.4,2.1-1.2c0.6-0.8,0.9-2.5,0.9-4.9c0-2.5-0.3-4.1-0.9-4.9c-0.6-0.8-1.3-1.2-2.2-1.2
			c-0.8,0-1.5,0.4-2,1.1C-17.4,10.4-17.7,12.1-17.7,14.6z M-6.9,22v-2.1h2.1V22H-6.9z M7.6,20.2V22h-9.9c0-0.4,0-0.9,0.2-1.3
			c0.3-0.7,0.7-1.3,1.2-2c0.6-0.7,1.4-1.4,2.4-2.3c1.6-1.3,2.7-2.4,3.3-3.2c0.6-0.8,0.9-1.5,0.9-2.2c0-0.7-0.3-1.3-0.8-1.8
			c-0.5-0.5-1.2-0.8-2-0.8c-0.9,0-1.6,0.3-2.1,0.8c-0.5,0.5-0.8,1.3-0.8,2.2L-2,11.2C-1.9,9.8-1.4,8.8-0.5,8c0.8-0.7,2-1.1,3.4-1.1
			c1.4,0,2.6,0.4,3.4,1.2c0.8,0.8,1.3,1.8,1.3,3c0,0.6-0.1,1.2-0.4,1.8C6.9,13.4,6.5,14,6,14.7s-1.5,1.5-2.8,2.6
			C2,18.3,1.3,18.9,1,19.2c-0.3,0.3-0.6,0.7-0.8,1H7.6z M19.3,20.2V22H9.3c0-0.4,0-0.9,0.2-1.3c0.3-0.7,0.7-1.3,1.2-2
			c0.6-0.7,1.4-1.4,2.4-2.3c1.6-1.3,2.7-2.4,3.3-3.2c0.6-0.8,0.9-1.5,0.9-2.2c0-0.7-0.3-1.3-0.8-1.8c-0.5-0.5-1.2-0.8-2-0.8
			c-0.9,0-1.6,0.3-2.1,0.8c-0.5,0.5-0.8,1.3-0.8,2.2l-1.9-0.2c0.1-1.4,0.6-2.5,1.5-3.2c0.8-0.7,2-1.1,3.4-1.1c1.4,0,2.6,0.4,3.4,1.2
			c0.8,0.8,1.3,1.8,1.3,3c0,0.6-0.1,1.2-0.4,1.8c-0.2,0.6-0.7,1.2-1.2,1.8s-1.5,1.5-2.8,2.6c-1.1,0.9-1.8,1.6-2.1,1.9
			c-0.3,0.3-0.6,0.7-0.8,1H19.3z"/>
	</g>
	<g transform="translate(371,549)">
		<path class="st3" d="M4.6,0.3c-0.7,0-1.4-0.2-1.9-0.5s-1-0.8-1.3-1.4c-0.3-0.6-0.5-1.2-0.5-2c0-1,0.3-2.1,0.9-3.1
			c0.6-1,1.3-1.8,2.3-2.5c1-0.6,2-1,3-1c0.8,0,1.5,0.2,2.1,0.6c0.6,0.4,1,0.9,1.4,1.6C10.8-7.2,11-6.5,11-5.8l0,1.5
			c0.5-0.7,1-1.5,1.3-2.3c0.4-0.8,0.6-1.6,0.8-2.4C13.2-9,13.3-9,13.4-9h0.3c0.1,0,0.2,0.1,0.2,0.2c0,0,0,0,0,0.1
			c-0.2,0.7-0.4,1.4-0.7,2c-0.3,0.6-0.6,1.3-1,1.9c-0.4,0.6-0.8,1.2-1.2,1.6c0,1.9,0.2,2.9,0.7,2.9c0.3,0,0.5-0.1,0.7-0.3
			c0.2-0.2,0.3-0.4,0.5-0.6c0.1-0.2,0.2-0.4,0.3-0.4h0.3c0.1,0,0.2,0.1,0.2,0.2c0,0.4-0.2,0.7-0.7,1.1c-0.4,0.4-0.9,0.5-1.3,0.5
			c-0.6,0-1-0.2-1.4-0.5C9.9-0.6,9.6-1.1,9.5-1.7C8.8-1.1,8-0.6,7.2-0.3C6.3,0.1,5.5,0.3,4.6,0.3z M4.7-0.3c1.6,0,3.2-0.7,4.7-2
			c0-0.1,0-0.2,0-0.3c0-0.1,0-0.2,0-0.2v-2.5c0-2.8-0.7-4.2-2.2-4.2c-0.9,0-1.7,0.4-2.4,1.1C4.1-7.6,3.5-6.7,3.2-5.7
			c-0.3,1.1-0.5,2-0.5,2.9c0,0.7,0.2,1.2,0.5,1.7C3.5-0.6,4-0.3,4.7-0.3z"/>
	</g>
	<g>
		<line class="st2" x1="95" y1="490" x2="95" y2="42"/>
		<line class="st2" x1="662" y1="490" x2="662" y2="42"/>
		<line class="st2" x1="95" y1="490" x2="100.7" y2="490"/>
		<line class="st2" x1="95" y1="400.4" x2="100.7" y2="400.4"/>
		<line class="st2" x1="95" y1="310.8" x2="100.7" y2="310.8"/>
		<line class="st2" x1="95" y1="221.2" x2="100.7" y2="221.2"/>
		<line class="st2" x1="95" y1="131.6" x2="100.7" y2="131.6"/>
		<line class="st2" x1="95" y1="42" x2="100.7" y2="42"/>
		<line class="st2" x1="662" y1="490" x2="656.3" y2="490"/>
		<line class="st2" x1="662" y1="400.4" x2="656.3" y2="400.4"/>
		<line class="st2" x1="662" y1="310.8" x2="656.3" y2="310.8"/>
		<line class="st2" x1="662" y1="221.2" x2="656.3" y2="221.2"/>
		<line class="st2" x1="662" y1="131.6" x2="656.3" y2="131.6"/>
		<line class="st2" x1="662" y1="42" x2="656.3" y2="42"/>
	</g>
	<g transform="translate(88.0667,490)">
		<path class="st3" d="M-5.2,8.5V4.9h-6.5V3.2l6.9-9.7h1.5v9.7h2v1.7h-2v3.6H-5.2z M-5.2,3.2v-6.8l-4.7,6.8H-5.2z"/>
	</g>
	<g transform="translate(88.0667,400.4)">
		<path class="st3" d="M-11.1,4.6l1.9-0.2C-9,5.3-8.7,6-8.2,6.5C-7.7,7-7,7.2-6.3,7.2c0.9,0,1.6-0.3,2.3-1s0.9-1.6,0.9-2.7
			c0-1.1-0.3-1.9-0.9-2.5s-1.4-0.9-2.3-0.9c-0.6,0-1.1,0.1-1.6,0.4s-0.9,0.6-1.1,1.1l-1.7-0.2l1.5-7.7h7.5v1.8h-6l-0.8,4
			c0.9-0.6,1.8-0.9,2.8-0.9c1.3,0,2.4,0.5,3.3,1.4S-1.2,2-1.2,3.4c0,1.4-0.4,2.5-1.2,3.5c-1,1.2-2.3,1.8-4,1.8
			c-1.4,0-2.5-0.4-3.3-1.1C-10.5,6.8-11,5.8-11.1,4.6z"/>
	</g>
	<g transform="translate(88.0667,310.8)">
		<path class="st3" d="M-1.5-2.8l-1.8,0.1C-3.5-3.4-3.8-4-4.1-4.3c-0.5-0.5-1.1-0.8-1.8-0.8c-0.6,0-1.1,0.2-1.6,0.5
			c-0.6,0.4-1,1-1.4,1.8c-0.3,0.8-0.5,2-0.5,3.5c0.4-0.7,1-1.2,1.6-1.5c0.6-0.3,1.3-0.5,2-0.5c1.2,0,2.3,0.5,3.1,1.4
			s1.3,2.1,1.3,3.5c0,0.9-0.2,1.8-0.6,2.6s-1,1.4-1.7,1.9C-4.3,8.5-5.1,8.7-6,8.7c-1.5,0-2.8-0.6-3.8-1.7c-1-1.1-1.5-3-1.5-5.6
			c0-2.9,0.5-5,1.6-6.3C-8.7-6-7.4-6.6-5.8-6.6c1.2,0,2.1,0.3,2.9,1C-2.2-4.9-1.7-4-1.5-2.8z M-9.1,3.6c0,0.6,0.1,1.2,0.4,1.8
			s0.6,1,1.1,1.3c0.5,0.3,1,0.5,1.5,0.5c0.8,0,1.4-0.3,2-0.9c0.6-0.6,0.8-1.5,0.8-2.6c0-1-0.3-1.9-0.8-2.5c-0.6-0.6-1.3-0.9-2.1-0.9
			c-0.8,0-1.5,0.3-2.1,0.9C-8.8,1.9-9.1,2.7-9.1,3.6z"/>
	</g>
	<g transform="translate(88.0667,221.2)">
		<path class="st3" d="M-11-4.6v-1.8h9.7v1.4c-0.9,1-1.9,2.4-2.8,4.1c-0.9,1.7-1.7,3.4-2.2,5.2C-6.7,5.6-6.9,7-7,8.5h-1.9
			c0-1.2,0.3-2.6,0.7-4.3c0.4-1.7,1.1-3.3,1.9-4.8c0.8-1.6,1.7-2.9,2.7-3.9H-11z"/>
	</g>
	<g transform="translate(88.0667,131.6)">
		<path class="st3" d="M-8.3,0.3C-9.1,0.1-9.6-0.3-10-0.9c-0.4-0.5-0.6-1.1-0.6-1.9c0-1.1,0.4-2,1.2-2.8s1.8-1.1,3.1-1.1
			c1.3,0,2.4,0.4,3.2,1.1c0.8,0.8,1.2,1.7,1.2,2.8C-1.9-2-2-1.4-2.4-0.9c-0.4,0.5-0.9,0.9-1.7,1.2C-3.2,0.6-2.4,1.1-2,1.8
			c0.5,0.7,0.7,1.5,0.7,2.4c0,1.3-0.5,2.4-1.4,3.2s-2.1,1.3-3.6,1.3c-1.5,0-2.7-0.4-3.6-1.3c-0.9-0.9-1.4-2-1.4-3.3
			c0-1,0.3-1.8,0.8-2.5S-9.2,0.6-8.3,0.3z M-8.7-2.8C-8.7-2.1-8.4-1.5-8-1c0.5,0.5,1.1,0.7,1.8,0.7c0.7,0,1.3-0.2,1.8-0.7
			C-4-1.5-3.8-2-3.8-2.7c0-0.7-0.2-1.2-0.7-1.7s-1.1-0.7-1.8-0.7c-0.7,0-1.3,0.2-1.8,0.7C-8.4-3.9-8.7-3.4-8.7-2.8z M-9.3,4.2
			c0,0.5,0.1,1,0.4,1.5s0.6,0.9,1.1,1.1c0.5,0.3,1,0.4,1.6,0.4C-5.3,7.2-4.6,7-4,6.4s0.9-1.3,0.9-2.2C-3.1,3.3-3.4,2.6-4,2
			s-1.3-0.9-2.2-0.9c-0.9,0-1.6,0.3-2.2,0.9C-9,2.6-9.3,3.3-9.3,4.2z"/>
	</g>
	<g transform="translate(88.0667,42)">
		<path class="st3" d="M-10.8,5l1.8-0.2c0.1,0.8,0.4,1.4,0.9,1.8c0.4,0.4,1,0.6,1.6,0.6c0.6,0,1.1-0.1,1.5-0.4
			c0.4-0.3,0.8-0.6,1.1-1c0.3-0.4,0.5-1,0.7-1.8c0.2-0.7,0.3-1.5,0.3-2.2c0-0.1,0-0.2,0-0.4C-3.5,2-4,2.5-4.6,2.9
			c-0.6,0.4-1.3,0.5-2.1,0.5C-7.9,3.4-9,3-9.8,2.1c-0.9-0.9-1.3-2.1-1.3-3.6c0-1.5,0.4-2.8,1.3-3.7c0.9-0.9,2-1.4,3.4-1.4
			c1,0,1.9,0.3,2.7,0.8c0.8,0.5,1.4,1.3,1.8,2.3s0.6,2.4,0.6,4.2c0,1.9-0.2,3.5-0.6,4.6c-0.4,1.1-1,2-1.9,2.6
			c-0.8,0.6-1.8,0.9-2.9,0.9c-1.2,0-2.1-0.3-2.9-1C-10.3,7.1-10.7,6.2-10.8,5z M-3.3-1.6c0-1.1-0.3-1.9-0.8-2.5
			c-0.6-0.6-1.2-0.9-2-0.9c-0.8,0-1.5,0.3-2.1,1s-0.9,1.5-0.9,2.6c0,1,0.3,1.7,0.9,2.3c0.6,0.6,1.3,0.9,2.1,0.9
			c0.9,0,1.6-0.3,2.1-0.9C-3.6,0.3-3.3-0.5-3.3-1.6z"/>
	</g>
	<g transform="translate(72.0667,265.9998) rotate(-90)">
		<path class="st3" d="M-41.2-6v-16.5h11.9v2H-39v5h9.1v1.9H-39v5.6h10.1V-6H-41.2z M-21.7-7.8l0.3,1.8C-22-5.9-22.5-5.8-23-5.8
			c-0.7,0-1.3-0.1-1.7-0.4c-0.4-0.2-0.7-0.5-0.9-0.9c-0.2-0.4-0.2-1.2-0.2-2.4v-6.9h-1.5v-1.6h1.5v-3l2-1.2v4.2h2v1.6h-2v7
			c0,0.6,0,0.9,0.1,1.1s0.2,0.3,0.4,0.4c0.2,0.1,0.4,0.1,0.7,0.1C-22.4-7.7-22.1-7.8-21.7-7.8z M-11.6-9.8l2.1,0.3
			c-0.3,1.2-0.9,2.2-1.8,2.8c-0.9,0.7-2,1-3.4,1c-1.8,0-3.1-0.5-4.2-1.6c-1-1.1-1.5-2.6-1.5-4.5c0-2,0.5-3.6,1.5-4.7
			c1-1.1,2.4-1.7,4-1.7c1.6,0,2.9,0.5,3.9,1.6c1,1.1,1.5,2.6,1.5,4.6c0,0.1,0,0.3,0,0.5h-8.9c0.1,1.3,0.4,2.3,1.1,3
			c0.7,0.7,1.5,1,2.5,1c0.7,0,1.4-0.2,1.9-0.6C-12.3-8.4-11.9-9-11.6-9.8z M-18.2-13.1h6.7c-0.1-1-0.3-1.8-0.8-2.3
			c-0.6-0.8-1.5-1.2-2.5-1.2c-0.9,0-1.7,0.3-2.3,0.9C-17.8-15-18.2-14.2-18.2-13.1z M-7-6v-11.9h1.8v1.7c0.9-1.3,2.2-2,3.8-2
			c0.7,0,1.4,0.1,2,0.4c0.6,0.3,1.1,0.6,1.4,1c0.3,0.4,0.5,0.9,0.6,1.5c0.1,0.4,0.1,1,0.1,2V-6h-2v-7.3c0-0.8-0.1-1.4-0.2-1.9
			s-0.4-0.7-0.8-1c-0.4-0.2-0.9-0.4-1.4-0.4c-0.9,0-1.6,0.3-2.2,0.8c-0.6,0.5-0.9,1.6-0.9,3.1V-6H-7z M13.6-6v-1.5
			c-0.8,1.2-1.9,1.8-3.3,1.8C9.3-5.7,8.4-6,7.6-6.5C6.8-7,6.2-7.8,5.8-8.7c-0.4-0.9-0.7-2-0.7-3.2c0-1.2,0.2-2.3,0.6-3.2
			c0.4-1,1-1.7,1.8-2.2c0.8-0.5,1.7-0.8,2.7-0.8c0.7,0,1.4,0.2,1.9,0.5c0.6,0.3,1,0.7,1.4,1.2v-5.9h2V-6H13.6z M7.2-12
			c0,1.5,0.3,2.7,1,3.4c0.6,0.8,1.4,1.1,2.3,1.1c0.9,0,1.6-0.4,2.3-1.1c0.6-0.7,0.9-1.8,0.9-3.3c0-1.6-0.3-2.8-0.9-3.6
			c-0.6-0.8-1.4-1.1-2.3-1.1c-0.9,0-1.6,0.4-2.3,1.1C7.5-14.7,7.2-13.5,7.2-12z M26.4-6v-1.8c-0.9,1.3-2.2,2-3.8,2
			c-0.7,0-1.4-0.1-2-0.4c-0.6-0.3-1.1-0.6-1.4-1c-0.3-0.4-0.5-0.9-0.6-1.5c-0.1-0.4-0.1-1-0.1-1.9v-7.4h2v6.6c0,1.1,0,1.8,0.1,2.1
			c0.1,0.5,0.4,0.9,0.8,1.3c0.4,0.3,0.9,0.5,1.5,0.5c0.6,0,1.2-0.2,1.7-0.5c0.5-0.3,0.9-0.7,1.1-1.3c0.2-0.5,0.3-1.3,0.3-2.3v-6.4h2
			V-6H26.4z M39.6-9.8l2.1,0.3c-0.3,1.2-0.9,2.2-1.8,2.8c-0.9,0.7-2,1-3.4,1c-1.8,0-3.1-0.5-4.2-1.6c-1-1.1-1.5-2.6-1.5-4.5
			c0-2,0.5-3.6,1.5-4.7c1-1.1,2.4-1.7,4-1.7c1.6,0,2.9,0.5,3.9,1.6c1,1.1,1.5,2.6,1.5,4.6c0,0.1,0,0.3,0,0.5h-8.9
			c0.1,1.3,0.4,2.3,1.1,3s1.5,1,2.5,1c0.7,0,1.4-0.2,1.9-0.6C38.9-8.4,39.3-9,39.6-9.8z M32.9-13.1h6.7c-0.1-1-0.3-1.8-0.8-2.3
			c-0.6-0.8-1.5-1.2-2.5-1.2c-0.9,0-1.7,0.3-2.3,0.9C33.4-15,33-14.2,32.9-13.1z"/>
	</g>
	<g>
		<path class="st4" d="M95,461.8l4.4-1.2l4.4-1.3l4.4-1.3l4.4-1.4l4.4-1.4l4.4-1.5l4.4-1.6l4.4-1.6l4.4-1.6l4.4-1.7l4.4-1.8l4.4-1.9
			l4.4-1.9l4.4-2l4.4-2.1l4.4-2.1l4.4-2.2l4.4-2.2l4.4-2.2l4.4-2.2l4.4-2.1l4.4-2l4.4-1.9l4.4-1.9l4.4-2l4.4-2.1l4.4-2.3l4.4-2.6
			l4.4-3l4.4-3.4l4.4-4.2l4.4-5.4l4.4-6.4l4.4-7.4l4.4-8.3l4.4-9l4.4-9.7l4.4-10.2l4.4-10.7l4.4-11.1l4.4-13.9l4.4-18.3l4.4-21.4
			l4.4-23.1l4.4-23.5l4.4-22.4l4.4-20.1l4.4-16.4l4.4-11.3l4.4-4.8l4.4-1.1l4.4-0.9l4.4-0.7l4.4-0.6l4.4-0.5l4.4-0.4l4.4-0.4
			l4.4-0.4l4.4-0.5l4.4-0.6l4.4-0.6l4.4-0.6l4.4-0.6l4.4-0.6l4.4-0.6l4.4-0.7l4.4-0.7l4.4-0.7l4.4-0.7l4.4-0.8l4.4-0.8l4.4-0.8
			l4.4-0.9l4.4-0.9l4.4-0.9l4.4-1l4.4-1l4.4-1.1l4.4-1.1l4.4-1.2l4.4-1.3l4.4-1.5l4.4-1.6l4.4-1.7l4.4-1.8l4.4-1.8l4.4-1.8l4.4-1.8
			l4.4-1.7l4.4-1.6l4.4-1.5l4.4-1.5l4.4-1.5l4.4-1.4l4.4-1.4l4.4-1.4l4.4-1.3l4.4-1.3l4.4-1.3l4.4-1.3"/>
		<line class="st5" x1="305" y1="150.5" x2="316" y2="150.5"/>
		<line class="st5" x1="310.5" y1="156" x2="310.5" y2="145"/>
		<line class="st5" x1="306" y1="155" x2="315" y2="146"/>
		<line class="st5" x1="306" y1="146" x2="315" y2="155"/>
		<line class="st6" x1="90" y1="461.5" x2="101" y2="461.5"/>
		<line class="st6" x1="95.5" y1="467" x2="95.5" y2="456"/>
		<line class="st6" x1="91" y1="466" x2="100" y2="457"/>
		<line class="st6" x1="91" y1="457" x2="100" y2="466"/>
		<line class="st6" x1="133" y1="447.5" x2="144" y2="447.5"/>
		<line class="st6" x1="138.5" y1="453" x2="138.5" y2="442"/>
		<line class="st6" x1="134" y1="452" x2="143" y2="443"/>
		<line class="st6" x1="134" y1="443" x2="143" y2="452"/>
		<line class="st6" x1="177" y1="426.5" x2="188" y2="426.5"/>
		<line class="st6" x1="182.5" y1="432" x2="182.5" y2="421"/>
		<line class="st6" x1="178" y1="431" x2="187" y2="422"/>
		<line class="st6" x1="178" y1="422" x2="187" y2="431"/>
		<line class="st6" x1="221" y1="403.5" x2="232" y2="403.5"/>
		<line class="st6" x1="226.5" y1="409" x2="226.5" y2="398"/>
		<line class="st6" x1="222" y1="408" x2="231" y2="399"/>
		<line class="st6" x1="222" y1="399" x2="231" y2="408"/>
		<line class="st6" x1="265" y1="321.5" x2="276" y2="321.5"/>
		<line class="st6" x1="270.5" y1="327" x2="270.5" y2="316"/>
		<line class="st6" x1="266" y1="326" x2="275" y2="317"/>
		<line class="st6" x1="266" y1="317" x2="275" y2="326"/>
		<line class="st6" x1="309" y1="145.5" x2="320" y2="145.5"/>
		<line class="st6" x1="314.5" y1="151" x2="314.5" y2="140"/>
		<line class="st6" x1="310" y1="150" x2="319" y2="141"/>
		<line class="st6" x1="310" y1="141" x2="319" y2="150"/>
		<line class="st6" x1="353" y1="139.5" x2="364" y2="139.5"/>
		<line class="st6" x1="358.5" y1="145" x2="358.5" y2="134"/>
		<line class="st6" x1="354" y1="144" x2="363" y2="135"/>
		<line class="st6" x1="354" y1="135" x2="363" y2="144"/>
		<line class="st6" x1="397" y1="133.5" x2="408" y2="133.5"/>
		<line class="st6" x1="402.5" y1="139" x2="402.5" y2="128"/>
		<line class="st6" x1="398" y1="138" x2="407" y2="129"/>
		<line class="st6" x1="398" y1="129" x2="407" y2="138"/>
		<line class="st6" x1="441" y1="123.5" x2="452" y2="123.5"/>
		<line class="st6" x1="446.5" y1="129" x2="446.5" y2="118"/>
		<line class="st6" x1="442" y1="128" x2="451" y2="119"/>
		<line class="st6" x1="442" y1="119" x2="451" y2="128"/>
		<line class="st6" x1="485" y1="106.5" x2="496" y2="106.5"/>
		<line class="st6" x1="490.5" y1="112" x2="490.5" y2="101"/>
		<line class="st6" x1="486" y1="111" x2="495" y2="102"/>
		<line class="st6" x1="486" y1="102" x2="495" y2="111"/>
		<line class="st6" x1="528" y1="93.5" x2="539" y2="93.5"/>
		<line class="st6" x1="533.5" y1="99" x2="533.5" y2="88"/>
		<line class="st6" x1="529" y1="98" x2="538" y2="89"/>
		<line class="st6" x1="529" y1="89" x2="538" y2="98"/>
		<line class="st7" x1="94.9" y1="152.1" x2="662" y2="152.1"/>
	</g>
	<g>
		<path class="st1" d="M548,157V42h114v115H548z"/>
	</g>
	<g transform="translate(610,66)">
		<path d="M10.4-13.6h1.8v7.8c0,1.4-0.2,2.5-0.5,3.3c-0.3,0.8-0.9,1.5-1.7,2C9.2,0,8.2,0.2,6.9,0.2C5.6,0.2,4.6,0,3.8-0.4
			C2.9-0.9,2.4-1.5,2-2.3s-0.5-2-0.5-3.4v-7.8h1.8v7.8c0,1.2,0.1,2,0.3,2.6c0.2,0.6,0.6,1,1.1,1.3c0.5,0.3,1.2,0.5,2,0.5
			C8-1.4,9-1.7,9.5-2.3c0.6-0.6,0.8-1.8,0.8-3.5V-13.6z"/>
	</g>
	<g transform="translate(624,75)">
		<path d="M3.9-1.2L4.1,0c-0.4,0.1-0.7,0.1-1,0.1C2.6,0.1,2.2,0,1.9-0.1C1.7-0.3,1.5-0.5,1.4-0.7C1.3-1,1.2-1.5,1.2-2.3v-4.5h-1v-1
			h1v-1.9l1.3-0.8v2.7h1.3v1H2.5v4.5c0,0.4,0,0.6,0.1,0.7c0,0.1,0.1,0.2,0.2,0.3c0.1,0.1,0.2,0.1,0.4,0.1C3.4-1.1,3.6-1.1,3.9-1.2z"
			/>
	</g>
	<g>
		<line class="st4" x1="576.9" y1="62.5" x2="607" y2="62.5"/>
	</g>
	<g transform="translate(610,104)">
		<path d="M10.4-13.6h1.8v7.8c0,1.4-0.2,2.5-0.5,3.3c-0.3,0.8-0.9,1.5-1.7,2C9.2,0,8.2,0.2,6.9,0.2C5.6,0.2,4.6,0,3.8-0.4
			C2.9-0.9,2.4-1.5,2-2.3s-0.5-2-0.5-3.4v-7.8h1.8v7.8c0,1.2,0.1,2,0.3,2.6c0.2,0.6,0.6,1,1.1,1.3c0.5,0.3,1.2,0.5,2,0.5
			C8-1.4,9-1.7,9.5-2.3c0.6-0.6,0.8-1.8,0.8-3.5V-13.6z"/>
	</g>
	<g transform="translate(624,113)">
		<path d="M5.6,0H4.3v-8.4C4-8.1,3.5-7.8,3-7.5C2.5-7.2,2-7,1.6-6.8v-1.3C2.4-8.4,3-8.9,3.6-9.3c0.6-0.5,0.9-1,1.2-1.4h0.9V0z"/>
	</g>
	<g>
		<line class="st7" x1="576.9" y1="99.5" x2="607" y2="99.5"/>
	</g>
	<g transform="translate(610,141)">
		<path d="M3.8,0.2c-0.6,0-1.1-0.1-1.6-0.4C1.8-0.5,1.4-0.9,1.1-1.4S0.8-2.4,0.8-3c0-0.9,0.2-1.7,0.7-2.6c0.5-0.8,1.1-1.5,1.9-2
			C4.2-8.1,5-8.4,5.9-8.4c0.6,0,1.2,0.2,1.7,0.5c0.5,0.3,0.9,0.8,1.1,1.3C9-6,9.1-5.4,9.1-4.8l0,1.3c0.4-0.6,0.8-1.2,1.1-1.9
			c0.3-0.6,0.5-1.3,0.7-2c0-0.1,0.1-0.1,0.2-0.1h0.2c0.1,0,0.2,0.1,0.2,0.2c0,0,0,0,0,0.1c-0.1,0.6-0.3,1.1-0.6,1.7
			c-0.2,0.5-0.5,1-0.8,1.6s-0.6,1-1,1.4c0,1.6,0.2,2.4,0.6,2.4c0.2,0,0.4-0.1,0.6-0.2c0.2-0.1,0.3-0.3,0.4-0.5s0.2-0.3,0.2-0.3h0.2
			c0.1,0,0.1,0.1,0.1,0.2c0,0.3-0.2,0.6-0.5,0.9C10.3,0.1,10,0.2,9.6,0.2c-0.5,0-0.8-0.1-1.1-0.4C8.2-0.5,8-0.9,7.8-1.4
			C7.3-0.9,6.6-0.5,5.9-0.2C5.2,0.1,4.5,0.2,3.8,0.2z M3.9-0.3c1.4,0,2.7-0.6,3.9-1.7c0-0.1,0-0.2,0-0.3c0-0.1,0-0.2,0-0.2v-2.1
			c0-2.3-0.6-3.4-1.8-3.4c-0.8,0-1.4,0.3-2,1c-0.6,0.6-1,1.4-1.3,2.3C2.4-3.8,2.2-3,2.2-2.3c0,0.6,0.1,1,0.4,1.4
			C2.9-0.5,3.3-0.3,3.9-0.3z"/>
	</g>
	<g transform="translate(623,150)">
		<path d="M6.1-2.8l1.3,0.2C7.2-1.8,6.9-1.1,6.3-0.6C5.7-0.1,5,0.2,4.1,0.2c-1.1,0-1.9-0.3-2.6-1c-0.6-0.7-1-1.7-1-3
			c0-0.8,0.1-1.6,0.4-2.2c0.3-0.6,0.7-1.1,1.3-1.4C2.8-7.8,3.5-8,4.1-8C5-8,5.7-7.7,6.2-7.3s0.9,1,1,1.8L6-5.3
			C5.8-5.8,5.6-6.2,5.3-6.5C5-6.7,4.6-6.9,4.2-6.9C3.5-6.9,3-6.6,2.6-6.2C2.1-5.7,1.9-4.9,1.9-3.9c0,1,0.2,1.8,0.6,2.3
			c0.4,0.5,0.9,0.7,1.6,0.7c0.5,0,1-0.2,1.3-0.5C5.8-1.7,6-2.2,6.1-2.8z"/>
	</g>
	<g>
		<line class="st5" x1="586" y1="136.5" x2="597" y2="136.5"/>
		<line class="st5" x1="591.5" y1="142" x2="591.5" y2="131"/>
		<line class="st5" x1="587" y1="141" x2="596" y2="132"/>
		<line class="st5" x1="587" y1="132" x2="596" y2="141"/>
	</g>
	<g>
		<path class="st8" d="M548,157V42h114v115H548z"/>
	</g>
</g>
</svg>
