<?xml version="1.0" encoding="utf-8"?>
<!-- Generator: Adobe Illustrator 21.1.0, SVG Export Plug-In . SVG Version: 6.00 Build 0)  -->
<svg version="1.1" id="Layer_1" xmlns="http://www.w3.org/2000/svg" xmlns:xlink="http://www.w3.org/1999/xlink" x="0px" y="0px"
	 viewBox="0 0 731 555" style="enable-background:new 0 0 731 555;" xml:space="preserve">
<style type="text/css">
	.st0{clip-path:url(#SVGID_2_);fill:#FFFFFF;}
	.st1{fill:#FFFFFF;}
	.st2{fill:none;stroke:#262626;stroke-width:0.6667;stroke-linecap:square;stroke-linejoin:round;stroke-miterlimit:10;}
	.st3{fill:#262626;}
	.st4{font-family:'MyriadPro-Regular';}
	.st5{font-size:27px;}
	.st6{font-size:29px;}
	.st7{font-size:23px;}
	.st8{fill:#FF0000;}
	.st9{fill:#FF00FF;}
	.st10{fill:#00FFFF;}
	.st11{fill:#00FF00;}
	.st12{fill:#0000FF;}
	.st13{font-size:21px;}
</style>
<g>
	<g>
		<g>
			<defs>
				<rect id="SVGID_1_" y="0" width="731" height="555"/>
			</defs>
			<clipPath id="SVGID_2_">
				<use xlink:href="#SVGID_1_"  style="overflow:visible;"/>
			</clipPath>
			<rect y="0" class="st0" width="731" height="555"/>
		</g>
	</g>
	<g>
		<rect y="0" class="st1" width="731" height="555"/>
		<path class="st1" d="M96,494h566V42H96V494z"/>
	</g>
	<g>
		<line class="st2" x1="96" y1="494" x2="662" y2="494"/>
		<line class="st2" x1="129.3" y1="494" x2="129.3" y2="488.3"/>
		<line class="st2" x1="212.5" y1="494" x2="212.5" y2="488.3"/>
		<line class="st2" x1="295.8" y1="494" x2="295.8" y2="488.3"/>
		<line class="st2" x1="379" y1="494" x2="379" y2="488.3"/>
		<line class="st2" x1="462.2" y1="494" x2="462.2" y2="488.3"/>
		<line class="st2" x1="545.5" y1="494" x2="545.5" y2="488.3"/>
		<line class="st2" x1="628.7" y1="494" x2="628.7" y2="488.3"/>
	</g>
	<g transform="translate(129.2941,502)">
		<text transform="matrix(1 0 0 1 -20 28)" class="st3 st4 st5">-15</text>
	</g>
	<g transform="translate(212.5294,502)">
		<text transform="matrix(1 0 0 1 -20 28)" class="st3 st4 st5">-10</text>
	</g>
	<g transform="translate(295.7647,502)">
		<text transform="matrix(1 0 0 1 -12.5 28)" class="st3 st4 st5">-5</text>
	</g>
	<g transform="translate(379,502)">
		<text transform="matrix(1 0 0 1 -8 28)" class="st3 st4 st5">0</text>
	</g>
	<g transform="translate(462.2353,502)">
		<text transform="matrix(1 0 0 1 -8 28)" class="st3 st4 st5">5</text>
	</g>
	<g transform="translate(545.4706,502)">
		<text transform="matrix(1 0 0 1 -15.5 28)" class="st3 st4 st5">10</text>
	</g>
	<g transform="translate(628.7059,502)">
		<text transform="matrix(1 0 0 1 -15.5 28)" class="st3 st4 st5">15</text>
	</g>
	<g transform="translate(380.0003,537.3333)">
		<text transform="matrix(1 0 0 1 -8.5 30)" class="st3 st4 st6">q</text>
	</g>
	<g>
		<line class="st2" x1="96" y1="494" x2="96" y2="42"/>
		<line class="st2" x1="96" y1="494" x2="101.7" y2="494"/>
		<line class="st2" x1="96" y1="381" x2="101.7" y2="381"/>
		<line class="st2" x1="96" y1="268" x2="101.7" y2="268"/>
		<line class="st2" x1="96" y1="155" x2="101.7" y2="155"/>
		<line class="st2" x1="96" y1="42" x2="101.7" y2="42"/>
	</g>
	<g transform="translate(88,494)">
		<text transform="matrix(1 0 0 1 -25 11)" class="st3 st4 st5">-1</text>
	</g>
	<g transform="translate(88,381)">
		<text transform="matrix(1 0 0 1 -47 11)" class="st3 st4 st5">-0.5</text>
	</g>
	<g transform="translate(88,268)">
		<text transform="matrix(1 0 0 1 -16 11)" class="st3 st4 st5">0</text>
	</g>
	<g transform="translate(88,155)">
		<text transform="matrix(1 0 0 1 -38 11)" class="st3 st4 st5">0.5</text>
	</g>
	<g transform="translate(88,42)">
		<text transform="matrix(1 0 0 1 -16 11)" class="st3 st4 st5">1</text>
	</g>
	<g transform="translate(37,267.9998) rotate(-90)">
		<text transform="matrix(1 0 0 1 -8.4996 -7)" class="st3 st4 st6">p</text>
	</g>
	<g transform="translate(363,16)">
		<text transform="matrix(1 0 0 1 0 -1.464844e-05)" class="st4 st6">T</text>
	</g>
	<g transform="translate(381,30)">
		<text transform="matrix(1 0 0 1 0 -1.464844e-05)" class="st4 st7">4</text>
	</g>
	<g transform="translate(652.7604,326.534)">
		<circle class="st8" cx="0" cy="0" r="3.5"/>
	</g>
	<g transform="translate(652.7604,326.534)">
		<circle class="st9" cx="0" cy="0" r="3.5"/>
	</g>
	<g transform="translate(661.8335,326.534)">
		<circle class="st9" cx="0" cy="0" r="3.5"/>
	</g>
	<g transform="translate(637.1357,322.014)">
		<circle class="st9" cx="0" cy="0" r="3.5"/>
	</g>
	<g transform="translate(661.8335,322.014)">
		<circle class="st9" cx="0" cy="0" r="3.5"/>
	</g>
	<g transform="translate(621.7469,317.494)">
		<circle class="st9" cx="0" cy="0" r="3.5"/>
	</g>
	<g transform="translate(645.5643,317.494)">
		<circle class="st9" cx="0" cy="0" r="3.5"/>
	</g>
	<g transform="translate(606.5692,312.974)">
		<circle class="st9" cx="0" cy="0" r="3.5"/>
	</g>
	<g transform="translate(628.9755,312.974)">
		<circle class="st9" cx="0" cy="0" r="3.5"/>
	</g>
	<g transform="translate(591.579,308.454)">
		<circle class="st9" cx="0" cy="0" r="3.5"/>
	</g>
	<g transform="translate(612.5917,308.454)">
		<circle class="st9" cx="0" cy="0" r="3.5"/>
	</g>
	<g transform="translate(576.7542,303.934)">
		<circle class="st9" cx="0" cy="0" r="3.5"/>
	</g>
	<g transform="translate(596.3888,303.934)">
		<circle class="st9" cx="0" cy="0" r="3.5"/>
	</g>
	<g transform="translate(562.074,299.414)">
		<circle class="st9" cx="0" cy="0" r="3.5"/>
	</g>
	<g transform="translate(580.3438,299.414)">
		<circle class="st9" cx="0" cy="0" r="3.5"/>
	</g>
	<g transform="translate(547.518,294.894)">
		<circle class="st8" cx="0" cy="0" r="3.5"/>
	</g>
	<g transform="translate(547.518,294.894)">
		<circle class="st9" cx="0" cy="0" r="3.5"/>
	</g>
	<g transform="translate(564.4346,294.894)">
		<circle class="st9" cx="0" cy="0" r="3.5"/>
	</g>
	<g transform="translate(533.0671,290.374)">
		<circle class="st9" cx="0" cy="0" r="3.5"/>
	</g>
	<g transform="translate(548.6402,290.374)">
		<circle class="st9" cx="0" cy="0" r="3.5"/>
	</g>
	<g transform="translate(518.7028,285.854)">
		<circle class="st9" cx="0" cy="0" r="3.5"/>
	</g>
	<g transform="translate(532.9404,285.854)">
		<circle class="st9" cx="0" cy="0" r="3.5"/>
	</g>
	<g transform="translate(504.4067,281.334)">
		<circle class="st9" cx="0" cy="0" r="3.5"/>
	</g>
	<g transform="translate(517.3153,281.334)">
		<circle class="st9" cx="0" cy="0" r="3.5"/>
	</g>
	<g transform="translate(490.1614,276.814)">
		<circle class="st9" cx="0" cy="0" r="3.5"/>
	</g>
	<g transform="translate(501.7456,276.814)">
		<circle class="st9" cx="0" cy="0" r="3.5"/>
	</g>
	<g transform="translate(475.9494,272.294)">
		<circle class="st9" cx="0" cy="0" r="3.5"/>
	</g>
	<g transform="translate(486.2124,272.294)">
		<circle class="st9" cx="0" cy="0" r="3.5"/>
	</g>
	<g transform="translate(461.7537,267.774)">
		<circle class="st9" cx="0" cy="0" r="3.5"/>
	</g>
	<g transform="translate(470.6969,267.774)">
		<circle class="st9" cx="0" cy="0" r="3.5"/>
	</g>
	<g transform="translate(447.5571,263.254)">
		<circle class="st9" cx="0" cy="0" r="3.5"/>
	</g>
	<g transform="translate(455.1805,263.254)">
		<circle class="st9" cx="0" cy="0" r="3.5"/>
	</g>
	<g transform="translate(433.3425,258.734)">
		<circle class="st9" cx="0" cy="0" r="3.5"/>
	</g>
	<g transform="translate(439.6444,258.734)">
		<circle class="st9" cx="0" cy="0" r="3.5"/>
	</g>
	<g transform="translate(419.0929,254.214)">
		<circle class="st9" cx="0" cy="0" r="3.5"/>
	</g>
	<g transform="translate(424.0701,254.214)">
		<circle class="st9" cx="0" cy="0" r="3.5"/>
	</g>
	<g transform="translate(404.7909,249.694)">
		<circle class="st9" cx="0" cy="0" r="3.5"/>
	</g>
	<g transform="translate(408.4384,249.694)">
		<circle class="st9" cx="0" cy="0" r="3.5"/>
	</g>
	<g transform="translate(390.4186,245.174)">
		<circle class="st9" cx="0" cy="0" r="3.5"/>
	</g>
	<g transform="translate(392.73,245.174)">
		<circle class="st9" cx="0" cy="0" r="3.5"/>
	</g>
	<g transform="translate(375.9581,240.654)">
		<circle class="st9" cx="0" cy="0" r="3.5"/>
	</g>
	<g transform="translate(376.9251,240.654)">
		<circle class="st9" cx="0" cy="0" r="3.5"/>
	</g>
	<g transform="translate(379.4894,294.894)">
		<circle class="st10" cx="0" cy="0" r="3.5"/>
	</g>
	<g transform="translate(380.5913,294.894)">
		<circle class="st10" cx="0" cy="0" r="3.5"/>
	</g>
	<g transform="translate(363.6952,290.374)">
		<circle class="st10" cx="0" cy="0" r="3.5"/>
	</g>
	<g transform="translate(366.1405,290.374)">
		<circle class="st10" cx="0" cy="0" r="3.5"/>
	</g>
	<g transform="translate(347.9953,285.854)">
		<circle class="st10" cx="0" cy="0" r="3.5"/>
	</g>
	<g transform="translate(351.7761,285.854)">
		<circle class="st10" cx="0" cy="0" r="3.5"/>
	</g>
	<g transform="translate(332.3702,281.334)">
		<circle class="st10" cx="0" cy="0" r="3.5"/>
	</g>
	<g transform="translate(337.48,281.334)">
		<circle class="st10" cx="0" cy="0" r="3.5"/>
	</g>
	<g transform="translate(316.8005,276.814)">
		<circle class="st10" cx="0" cy="0" r="3.5"/>
	</g>
	<g transform="translate(323.2347,276.814)">
		<circle class="st10" cx="0" cy="0" r="3.5"/>
	</g>
	<g transform="translate(301.2673,272.294)">
		<circle class="st10" cx="0" cy="0" r="3.5"/>
	</g>
	<g transform="translate(309.0227,272.294)">
		<circle class="st10" cx="0" cy="0" r="3.5"/>
	</g>
	<g transform="translate(285.7518,267.774)">
		<circle class="st10" cx="0" cy="0" r="3.5"/>
	</g>
	<g transform="translate(294.827,267.774)">
		<circle class="st10" cx="0" cy="0" r="3.5"/>
	</g>
	<g transform="translate(270.2354,263.254)">
		<circle class="st10" cx="0" cy="0" r="3.5"/>
	</g>
	<g transform="translate(280.6304,263.254)">
		<circle class="st10" cx="0" cy="0" r="3.5"/>
	</g>
	<g transform="translate(254.6994,258.734)">
		<circle class="st10" cx="0" cy="0" r="3.5"/>
	</g>
	<g transform="translate(266.4159,258.734)">
		<circle class="st10" cx="0" cy="0" r="3.5"/>
	</g>
	<g transform="translate(239.125,254.214)">
		<circle class="st10" cx="0" cy="0" r="3.5"/>
	</g>
	<g transform="translate(252.1662,254.214)">
		<circle class="st10" cx="0" cy="0" r="3.5"/>
	</g>
	<g transform="translate(223.4933,249.694)">
		<circle class="st10" cx="0" cy="0" r="3.5"/>
	</g>
	<g transform="translate(237.8642,249.694)">
		<circle class="st10" cx="0" cy="0" r="3.5"/>
	</g>
	<g transform="translate(207.7849,245.174)">
		<circle class="st10" cx="0" cy="0" r="3.5"/>
	</g>
	<g transform="translate(223.4919,245.174)">
		<circle class="st10" cx="0" cy="0" r="3.5"/>
	</g>
	<g transform="translate(191.98,240.654)">
		<circle class="st10" cx="0" cy="0" r="3.5"/>
	</g>
	<g transform="translate(209.0314,240.654)">
		<circle class="st10" cx="0" cy="0" r="3.5"/>
	</g>
	<g transform="translate(176.0582,236.134)">
		<circle class="st10" cx="0" cy="0" r="3.5"/>
	</g>
	<g transform="translate(194.4639,236.134)">
		<circle class="st11" cx="0" cy="0" r="3.5"/>
	</g>
	<g transform="translate(194.4639,236.134)">
		<circle class="st10" cx="0" cy="0" r="3.5"/>
	</g>
	<g transform="translate(159.9984,231.614)">
		<circle class="st10" cx="0" cy="0" r="3.5"/>
	</g>
	<g transform="translate(179.7701,231.614)">
		<circle class="st11" cx="0" cy="0" r="3.5"/>
	</g>
	<g transform="translate(179.7701,231.614)">
		<circle class="st10" cx="0" cy="0" r="3.5"/>
	</g>
	<g transform="translate(143.7784,227.094)">
		<circle class="st10" cx="0" cy="0" r="3.5"/>
	</g>
	<g transform="translate(164.9298,227.094)">
		<circle class="st10" cx="0" cy="0" r="3.5"/>
	</g>
	<g transform="translate(127.3753,222.574)">
		<circle class="st10" cx="0" cy="0" r="3.5"/>
	</g>
	<g transform="translate(149.9219,222.574)">
		<circle class="st10" cx="0" cy="0" r="3.5"/>
	</g>
	<g transform="translate(110.7645,218.054)">
		<circle class="st10" cx="0" cy="0" r="3.5"/>
	</g>
	<g transform="translate(134.7241,218.054)">
		<circle class="st11" cx="0" cy="0" r="3.5"/>
	</g>
	<g transform="translate(134.7241,218.054)">
		<circle class="st10" cx="0" cy="0" r="3.5"/>
	</g>
	<g transform="translate(96.1665,213.534)">
		<circle class="st10" cx="0" cy="0" r="3.5"/>
	</g>
	<g transform="translate(119.3129,213.534)">
		<circle class="st10" cx="0" cy="0" r="3.5"/>
	</g>
	<g transform="translate(96.1665,209.014)">
		<circle class="st10" cx="0" cy="0" r="3.5"/>
	</g>
	<g transform="translate(103.6632,209.014)">
		<circle class="st10" cx="0" cy="0" r="3.5"/>
	</g>
	<g transform="translate(642.2791,367.214)">
		<circle class="st11" cx="0" cy="0" r="3.5"/>
	</g>
	<g transform="translate(661.8335,367.214)">
		<circle class="st11" cx="0" cy="0" r="3.5"/>
	</g>
	<g transform="translate(623.0198,362.694)">
		<circle class="st11" cx="0" cy="0" r="3.5"/>
	</g>
	<g transform="translate(652.9844,362.694)">
		<circle class="st12" cx="0" cy="0" r="3.5"/>
	</g>
	<g transform="translate(652.9844,362.694)">
		<circle class="st11" cx="0" cy="0" r="3.5"/>
	</g>
	<g transform="translate(604.3394,358.174)">
		<circle class="st11" cx="0" cy="0" r="3.5"/>
	</g>
	<g transform="translate(635.4564,358.174)">
		<circle class="st11" cx="0" cy="0" r="3.5"/>
	</g>
	<g transform="translate(586.1835,353.654)">
		<circle class="st11" cx="0" cy="0" r="3.5"/>
	</g>
	<g transform="translate(618.4207,353.654)">
		<circle class="st12" cx="0" cy="0" r="3.5"/>
	</g>
	<g transform="translate(618.4207,353.654)">
		<circle class="st11" cx="0" cy="0" r="3.5"/>
	</g>
	<g transform="translate(568.5035,349.134)">
		<circle class="st11" cx="0" cy="0" r="3.5"/>
	</g>
	<g transform="translate(601.8316,349.134)">
		<circle class="st11" cx="0" cy="0" r="3.5"/>
	</g>
	<g transform="translate(551.2556,344.614)">
		<circle class="st11" cx="0" cy="0" r="3.5"/>
	</g>
	<g transform="translate(585.6478,344.614)">
		<circle class="st12" cx="0" cy="0" r="3.5"/>
	</g>
	<g transform="translate(585.6478,344.614)">
		<circle class="st11" cx="0" cy="0" r="3.5"/>
	</g>
	<g transform="translate(534.3997,340.094)">
		<circle class="st11" cx="0" cy="0" r="3.5"/>
	</g>
	<g transform="translate(569.8318,340.094)">
		<circle class="st11" cx="0" cy="0" r="3.5"/>
	</g>
	<g transform="translate(517.8994,335.574)">
		<circle class="st11" cx="0" cy="0" r="3.5"/>
	</g>
	<g transform="translate(554.3495,335.574)">
		<circle class="st11" cx="0" cy="0" r="3.5"/>
	</g>
	<g transform="translate(501.7209,331.054)">
		<circle class="st11" cx="0" cy="0" r="3.5"/>
	</g>
	<g transform="translate(539.1693,331.054)">
		<circle class="st11" cx="0" cy="0" r="3.5"/>
	</g>
	<g transform="translate(485.8337,326.534)">
		<circle class="st11" cx="0" cy="0" r="3.5"/>
	</g>
	<g transform="translate(524.2622,326.534)">
		<circle class="st11" cx="0" cy="0" r="3.5"/>
	</g>
	<g transform="translate(470.209,322.014)">
		<circle class="st11" cx="0" cy="0" r="3.5"/>
	</g>
	<g transform="translate(509.6015,322.014)">
		<circle class="st12" cx="0" cy="0" r="3.5"/>
	</g>
	<g transform="translate(509.6015,322.014)">
		<circle class="st11" cx="0" cy="0" r="3.5"/>
	</g>
	<g transform="translate(454.8203,317.494)">
		<circle class="st11" cx="0" cy="0" r="3.5"/>
	</g>
	<g transform="translate(495.1622,317.494)">
		<circle class="st11" cx="0" cy="0" r="3.5"/>
	</g>
	<g transform="translate(439.6425,312.974)">
		<circle class="st11" cx="0" cy="0" r="3.5"/>
	</g>
	<g transform="translate(480.9208,312.974)">
		<circle class="st11" cx="0" cy="0" r="3.5"/>
	</g>
	<g transform="translate(424.6523,308.454)">
		<circle class="st11" cx="0" cy="0" r="3.5"/>
	</g>
	<g transform="translate(466.8555,308.454)">
		<circle class="st11" cx="0" cy="0" r="3.5"/>
	</g>
	<g transform="translate(409.8276,303.934)">
		<circle class="st11" cx="0" cy="0" r="3.5"/>
	</g>
	<g transform="translate(452.9454,303.934)">
		<circle class="st11" cx="0" cy="0" r="3.5"/>
	</g>
	<g transform="translate(395.1473,299.414)">
		<circle class="st11" cx="0" cy="0" r="3.5"/>
	</g>
	<g transform="translate(439.1708,299.414)">
		<circle class="st11" cx="0" cy="0" r="3.5"/>
	</g>
	<g transform="translate(380.5913,294.894)">
		<circle class="st11" cx="0" cy="0" r="3.5"/>
	</g>
	<g transform="translate(425.513,294.894)">
		<circle class="st11" cx="0" cy="0" r="3.5"/>
	</g>
	<g transform="translate(366.1405,290.374)">
		<circle class="st11" cx="0" cy="0" r="3.5"/>
	</g>
	<g transform="translate(411.9537,290.374)">
		<circle class="st11" cx="0" cy="0" r="3.5"/>
	</g>
	<g transform="translate(351.7761,285.854)">
		<circle class="st11" cx="0" cy="0" r="3.5"/>
	</g>
	<g transform="translate(398.4755,285.854)">
		<circle class="st11" cx="0" cy="0" r="3.5"/>
	</g>
	<g transform="translate(337.4801,281.334)">
		<circle class="st11" cx="0" cy="0" r="3.5"/>
	</g>
	<g transform="translate(385.0615,281.334)">
		<circle class="st11" cx="0" cy="0" r="3.5"/>
	</g>
	<g transform="translate(323.2347,276.814)">
		<circle class="st11" cx="0" cy="0" r="3.5"/>
	</g>
	<g transform="translate(371.6951,276.814)">
		<circle class="st11" cx="0" cy="0" r="3.5"/>
	</g>
	<g transform="translate(309.0228,272.294)">
		<circle class="st11" cx="0" cy="0" r="3.5"/>
	</g>
	<g transform="translate(358.3599,272.294)">
		<circle class="st11" cx="0" cy="0" r="3.5"/>
	</g>
	<g transform="translate(294.827,267.774)">
		<circle class="st11" cx="0" cy="0" r="3.5"/>
	</g>
	<g transform="translate(345.04,267.774)">
		<circle class="st11" cx="0" cy="0" r="3.5"/>
	</g>
	<g transform="translate(280.6304,263.254)">
		<circle class="st11" cx="0" cy="0" r="3.5"/>
	</g>
	<g transform="translate(331.7193,263.254)">
		<circle class="st11" cx="0" cy="0" r="3.5"/>
	</g>
	<g transform="translate(266.4159,258.734)">
		<circle class="st11" cx="0" cy="0" r="3.5"/>
	</g>
	<g transform="translate(318.3817,258.734)">
		<circle class="st11" cx="0" cy="0" r="3.5"/>
	</g>
	<g transform="translate(252.1662,254.214)">
		<circle class="st11" cx="0" cy="0" r="3.5"/>
	</g>
	<g transform="translate(305.0113,254.214)">
		<circle class="st11" cx="0" cy="0" r="3.5"/>
	</g>
	<g transform="translate(237.8642,249.694)">
		<circle class="st11" cx="0" cy="0" r="3.5"/>
	</g>
	<g transform="translate(291.5916,249.694)">
		<circle class="st11" cx="0" cy="0" r="3.5"/>
	</g>
	<g transform="translate(223.492,245.174)">
		<circle class="st11" cx="0" cy="0" r="3.5"/>
	</g>
	<g transform="translate(278.1061,245.174)">
		<circle class="st11" cx="0" cy="0" r="3.5"/>
	</g>
	<g transform="translate(209.0314,240.654)">
		<circle class="st11" cx="0" cy="0" r="3.5"/>
	</g>
	<g transform="translate(264.5378,240.654)">
		<circle class="st12" cx="0" cy="0" r="3.5"/>
	</g>
	<g transform="translate(264.5377,240.654)">
		<circle class="st11" cx="0" cy="0" r="3.5"/>
	</g>
	<g transform="translate(250.869,236.134)">
		<circle class="st12" cx="0" cy="0" r="3.5"/>
	</g>
	<g transform="translate(250.869,236.134)">
		<circle class="st11" cx="0" cy="0" r="3.5"/>
	</g>
	<g transform="translate(237.0818,231.614)">
		<circle class="st11" cx="0" cy="0" r="3.5"/>
	</g>
	<g transform="translate(164.9298,227.094)">
		<circle class="st11" cx="0" cy="0" r="3.5"/>
	</g>
	<g transform="translate(223.1571,227.094)">
		<circle class="st12" cx="0" cy="0" r="3.5"/>
	</g>
	<g transform="translate(223.1571,227.094)">
		<circle class="st11" cx="0" cy="0" r="3.5"/>
	</g>
	<g transform="translate(149.9219,222.574)">
		<circle class="st11" cx="0" cy="0" r="3.5"/>
	</g>
	<g transform="translate(209.0751,222.574)">
		<circle class="st12" cx="0" cy="0" r="3.5"/>
	</g>
	<g transform="translate(209.0751,222.574)">
		<circle class="st11" cx="0" cy="0" r="3.5"/>
	</g>
	<g transform="translate(194.8149,218.054)">
		<circle class="st12" cx="0" cy="0" r="3.5"/>
	</g>
	<g transform="translate(194.8149,218.054)">
		<circle class="st11" cx="0" cy="0" r="3.5"/>
	</g>
	<g transform="translate(119.3129,213.534)">
		<circle class="st11" cx="0" cy="0" r="3.5"/>
	</g>
	<g transform="translate(180.3545,213.534)">
		<circle class="st11" cx="0" cy="0" r="3.5"/>
	</g>
	<g transform="translate(103.6632,209.014)">
		<circle class="st11" cx="0" cy="0" r="3.5"/>
	</g>
	<g transform="translate(165.6703,209.014)">
		<circle class="st11" cx="0" cy="0" r="3.5"/>
	</g>
	<g transform="translate(96.1665,204.494)">
		<circle class="st11" cx="0" cy="0" r="3.5"/>
	</g>
	<g transform="translate(150.7372,204.494)">
		<circle class="st11" cx="0" cy="0" r="3.5"/>
	</g>
	<g transform="translate(96.1665,199.974)">
		<circle class="st11" cx="0" cy="0" r="3.5"/>
	</g>
	<g transform="translate(135.5281,199.974)">
		<circle class="st12" cx="0" cy="0" r="3.5"/>
	</g>
	<g transform="translate(135.5281,199.974)">
		<circle class="st11" cx="0" cy="0" r="3.5"/>
	</g>
	<g transform="translate(96.1665,195.454)">
		<circle class="st11" cx="0" cy="0" r="3.5"/>
	</g>
	<g transform="translate(120.0138,195.454)">
		<circle class="st11" cx="0" cy="0" r="3.5"/>
	</g>
	<g transform="translate(96.1665,190.934)">
		<circle class="st11" cx="0" cy="0" r="3.5"/>
	</g>
	<g transform="translate(104.1627,190.934)">
		<circle class="st11" cx="0" cy="0" r="3.5"/>
	</g>
	<g transform="translate(652.2361,344.614)">
		<circle class="st8" cx="0" cy="0" r="3.5"/>
	</g>
	<g transform="translate(661.8335,344.614)">
		<circle class="st8" cx="0" cy="0" r="3.5"/>
	</g>
	<g transform="translate(636.4201,340.094)">
		<circle class="st8" cx="0" cy="0" r="3.5"/>
	</g>
	<g transform="translate(661.8335,340.094)">
		<circle class="st8" cx="0" cy="0" r="3.5"/>
	</g>
	<g transform="translate(620.9377,335.574)">
		<circle class="st8" cx="0" cy="0" r="3.5"/>
	</g>
	<g transform="translate(661.8335,335.574)">
		<circle class="st8" cx="0" cy="0" r="3.5"/>
	</g>
	<g transform="translate(605.7575,331.054)">
		<circle class="st12" cx="0" cy="0" r="3.5"/>
	</g>
	<g transform="translate(605.7575,331.054)">
		<circle class="st8" cx="0" cy="0" r="3.5"/>
	</g>
	<g transform="translate(661.8335,331.054)">
		<circle class="st8" cx="0" cy="0" r="3.5"/>
	</g>
	<g transform="translate(590.8505,326.534)">
		<circle class="st8" cx="0" cy="0" r="3.5"/>
	</g>
	<g transform="translate(576.1898,322.014)">
		<circle class="st8" cx="0" cy="0" r="3.5"/>
	</g>
	<g transform="translate(637.1357,322.014)">
		<circle class="st8" cx="0" cy="0" r="3.5"/>
	</g>
	<g transform="translate(561.7504,317.494)">
		<circle class="st8" cx="0" cy="0" r="3.5"/>
	</g>
	<g transform="translate(621.7469,317.494)">
		<circle class="st8" cx="0" cy="0" r="3.5"/>
	</g>
	<g transform="translate(547.5091,312.974)">
		<circle class="st8" cx="0" cy="0" r="3.5"/>
	</g>
	<g transform="translate(606.5692,312.974)">
		<circle class="st8" cx="0" cy="0" r="3.5"/>
	</g>
	<g transform="translate(533.4437,308.454)">
		<circle class="st8" cx="0" cy="0" r="3.5"/>
	</g>
	<g transform="translate(591.5789,308.454)">
		<circle class="st8" cx="0" cy="0" r="3.5"/>
	</g>
	<g transform="translate(519.5337,303.934)">
		<circle class="st8" cx="0" cy="0" r="3.5"/>
	</g>
	<g transform="translate(576.7542,303.934)">
		<circle class="st8" cx="0" cy="0" r="3.5"/>
	</g>
	<g transform="translate(505.7591,299.414)">
		<circle class="st12" cx="0" cy="0" r="3.5"/>
	</g>
	<g transform="translate(505.7591,299.414)">
		<circle class="st8" cx="0" cy="0" r="3.5"/>
	</g>
	<g transform="translate(562.0739,299.414)">
		<circle class="st8" cx="0" cy="0" r="3.5"/>
	</g>
	<g transform="translate(492.1012,294.894)">
		<circle class="st8" cx="0" cy="0" r="3.5"/>
	</g>
	<g transform="translate(478.5419,290.374)">
		<circle class="st8" cx="0" cy="0" r="3.5"/>
	</g>
	<g transform="translate(533.0671,290.374)">
		<circle class="st8" cx="0" cy="0" r="3.5"/>
	</g>
	<g transform="translate(465.0638,285.854)">
		<circle class="st8" cx="0" cy="0" r="3.5"/>
	</g>
	<g transform="translate(518.7028,285.854)">
		<circle class="st8" cx="0" cy="0" r="3.5"/>
	</g>
	<g transform="translate(451.6497,281.334)">
		<circle class="st8" cx="0" cy="0" r="3.5"/>
	</g>
	<g transform="translate(504.4067,281.334)">
		<circle class="st8" cx="0" cy="0" r="3.5"/>
	</g>
	<g transform="translate(438.2833,276.814)">
		<circle class="st8" cx="0" cy="0" r="3.5"/>
	</g>
	<g transform="translate(490.1614,276.814)">
		<circle class="st8" cx="0" cy="0" r="3.5"/>
	</g>
	<g transform="translate(424.9482,272.294)">
		<circle class="st8" cx="0" cy="0" r="3.5"/>
	</g>
	<g transform="translate(475.9494,272.294)">
		<circle class="st8" cx="0" cy="0" r="3.5"/>
	</g>
	<g transform="translate(411.6282,267.774)">
		<circle class="st8" cx="0" cy="0" r="3.5"/>
	</g>
	<g transform="translate(461.7537,267.774)">
		<circle class="st8" cx="0" cy="0" r="3.5"/>
	</g>
	<g transform="translate(398.3075,263.254)">
		<circle class="st8" cx="0" cy="0" r="3.5"/>
	</g>
	<g transform="translate(447.557,263.254)">
		<circle class="st8" cx="0" cy="0" r="3.5"/>
	</g>
	<g transform="translate(384.97,258.734)">
		<circle class="st8" cx="0" cy="0" r="3.5"/>
	</g>
	<g transform="translate(433.3425,258.734)">
		<circle class="st8" cx="0" cy="0" r="3.5"/>
	</g>
	<g transform="translate(371.5995,254.214)">
		<circle class="st8" cx="0" cy="0" r="3.5"/>
	</g>
	<g transform="translate(419.0929,254.214)">
		<circle class="st8" cx="0" cy="0" r="3.5"/>
	</g>
	<g transform="translate(358.1798,249.694)">
		<circle class="st8" cx="0" cy="0" r="3.5"/>
	</g>
	<g transform="translate(404.7909,249.694)">
		<circle class="st8" cx="0" cy="0" r="3.5"/>
	</g>
	<g transform="translate(344.6943,245.174)">
		<circle class="st8" cx="0" cy="0" r="3.5"/>
	</g>
	<g transform="translate(390.4186,245.174)">
		<circle class="st8" cx="0" cy="0" r="3.5"/>
	</g>
	<g transform="translate(331.126,240.654)">
		<circle class="st8" cx="0" cy="0" r="3.5"/>
	</g>
	<g transform="translate(375.9581,240.654)">
		<circle class="st8" cx="0" cy="0" r="3.5"/>
	</g>
	<g transform="translate(317.4572,236.134)">
		<circle class="st8" cx="0" cy="0" r="3.5"/>
	</g>
	<g transform="translate(361.3906,236.134)">
		<circle class="st8" cx="0" cy="0" r="3.5"/>
	</g>
	<g transform="translate(303.67,231.614)">
		<circle class="st8" cx="0" cy="0" r="3.5"/>
	</g>
	<g transform="translate(346.6968,231.614)">
		<circle class="st8" cx="0" cy="0" r="3.5"/>
	</g>
	<g transform="translate(289.7453,227.094)">
		<circle class="st8" cx="0" cy="0" r="3.5"/>
	</g>
	<g transform="translate(331.8565,227.094)">
		<circle class="st8" cx="0" cy="0" r="3.5"/>
	</g>
	<g transform="translate(275.6633,222.574)">
		<circle class="st8" cx="0" cy="0" r="3.5"/>
	</g>
	<g transform="translate(316.8486,222.574)">
		<circle class="st8" cx="0" cy="0" r="3.5"/>
	</g>
	<g transform="translate(261.4032,218.054)">
		<circle class="st8" cx="0" cy="0" r="3.5"/>
	</g>
	<g transform="translate(301.6508,218.054)">
		<circle class="st8" cx="0" cy="0" r="3.5"/>
	</g>
	<g transform="translate(246.9428,213.534)">
		<circle class="st8" cx="0" cy="0" r="3.5"/>
	</g>
	<g transform="translate(286.2395,213.534)">
		<circle class="st8" cx="0" cy="0" r="3.5"/>
	</g>
	<g transform="translate(232.2586,209.014)">
		<circle class="st8" cx="0" cy="0" r="3.5"/>
	</g>
	<g transform="translate(270.5898,209.014)">
		<circle class="st8" cx="0" cy="0" r="3.5"/>
	</g>
	<g transform="translate(217.3255,204.494)">
		<circle class="st8" cx="0" cy="0" r="3.5"/>
	</g>
	<g transform="translate(254.6748,204.494)">
		<circle class="st8" cx="0" cy="0" r="3.5"/>
	</g>
	<g transform="translate(202.1164,199.974)">
		<circle class="st8" cx="0" cy="0" r="3.5"/>
	</g>
	<g transform="translate(238.4657,199.974)">
		<circle class="st8" cx="0" cy="0" r="3.5"/>
	</g>
	<g transform="translate(186.6021,195.454)">
		<circle class="st8" cx="0" cy="0" r="3.5"/>
	</g>
	<g transform="translate(221.9313,195.454)">
		<circle class="st8" cx="0" cy="0" r="3.5"/>
	</g>
	<g transform="translate(170.7509,190.934)">
		<circle class="st12" cx="0" cy="0" r="3.5"/>
	</g>
	<g transform="translate(170.7509,190.934)">
		<circle class="st8" cx="0" cy="0" r="3.5"/>
	</g>
	<g transform="translate(205.0378,190.934)">
		<circle class="st8" cx="0" cy="0" r="3.5"/>
	</g>
	<g transform="translate(154.5284,186.414)">
		<circle class="st12" cx="0" cy="0" r="3.5"/>
	</g>
	<g transform="translate(154.5284,186.414)">
		<circle class="st8" cx="0" cy="0" r="3.5"/>
	</g>
	<g transform="translate(187.7486,186.414)">
		<circle class="st8" cx="0" cy="0" r="3.5"/>
	</g>
	<g transform="translate(137.8965,181.894)">
		<circle class="st12" cx="0" cy="0" r="3.5"/>
	</g>
	<g transform="translate(137.8965,181.894)">
		<circle class="st8" cx="0" cy="0" r="3.5"/>
	</g>
	<g transform="translate(170.0231,181.894)">
		<circle class="st8" cx="0" cy="0" r="3.5"/>
	</g>
	<g transform="translate(120.8137,177.374)">
		<circle class="st8" cx="0" cy="0" r="3.5"/>
	</g>
	<g transform="translate(151.8171,177.374)">
		<circle class="st8" cx="0" cy="0" r="3.5"/>
	</g>
	<g transform="translate(103.2338,172.854)">
		<circle class="st12" cx="0" cy="0" r="3.5"/>
	</g>
	<g transform="translate(103.2338,172.854)">
		<circle class="st8" cx="0" cy="0" r="3.5"/>
	</g>
	<g transform="translate(133.0812,172.854)">
		<circle class="st8" cx="0" cy="0" r="3.5"/>
	</g>
	<g transform="translate(96.1665,168.334)">
		<circle class="st8" cx="0" cy="0" r="3.5"/>
	</g>
	<g transform="translate(113.7609,168.334)">
		<circle class="st8" cx="0" cy="0" r="3.5"/>
	</g>
	<g transform="translate(661.8335,362.694)">
		<circle class="st12" cx="0" cy="0" r="3.5"/>
	</g>
	<g transform="translate(635.4565,358.174)">
		<circle class="st12" cx="0" cy="0" r="3.5"/>
	</g>
	<g transform="translate(661.8335,358.174)">
		<circle class="st12" cx="0" cy="0" r="3.5"/>
	</g>
	<g transform="translate(661.8335,353.654)">
		<circle class="st12" cx="0" cy="0" r="3.5"/>
	</g>
	<g transform="translate(601.8316,349.134)">
		<circle class="st12" cx="0" cy="0" r="3.5"/>
	</g>
	<g transform="translate(661.8335,349.134)">
		<circle class="st12" cx="0" cy="0" r="3.5"/>
	</g>
	<g transform="translate(652.236,344.614)">
		<circle class="st12" cx="0" cy="0" r="3.5"/>
	</g>
	<g transform="translate(569.8319,340.094)">
		<circle class="st12" cx="0" cy="0" r="3.5"/>
	</g>
	<g transform="translate(636.4201,340.094)">
		<circle class="st12" cx="0" cy="0" r="3.5"/>
	</g>
	<g transform="translate(554.3495,335.574)">
		<circle class="st12" cx="0" cy="0" r="3.5"/>
	</g>
	<g transform="translate(620.9377,335.574)">
		<circle class="st12" cx="0" cy="0" r="3.5"/>
	</g>
	<g transform="translate(539.1693,331.054)">
		<circle class="st12" cx="0" cy="0" r="3.5"/>
	</g>
	<g transform="translate(524.2622,326.534)">
		<circle class="st12" cx="0" cy="0" r="3.5"/>
	</g>
	<g transform="translate(590.8505,326.534)">
		<circle class="st12" cx="0" cy="0" r="3.5"/>
	</g>
	<g transform="translate(576.1898,322.014)">
		<circle class="st12" cx="0" cy="0" r="3.5"/>
	</g>
	<g transform="translate(495.1622,317.494)">
		<circle class="st12" cx="0" cy="0" r="3.5"/>
	</g>
	<g transform="translate(561.7504,317.494)">
		<circle class="st12" cx="0" cy="0" r="3.5"/>
	</g>
	<g transform="translate(480.9208,312.974)">
		<circle class="st12" cx="0" cy="0" r="3.5"/>
	</g>
	<g transform="translate(547.5091,312.974)">
		<circle class="st12" cx="0" cy="0" r="3.5"/>
	</g>
	<g transform="translate(466.8555,308.454)">
		<circle class="st12" cx="0" cy="0" r="3.5"/>
	</g>
	<g transform="translate(533.4437,308.454)">
		<circle class="st12" cx="0" cy="0" r="3.5"/>
	</g>
	<g transform="translate(452.9454,303.934)">
		<circle class="st12" cx="0" cy="0" r="3.5"/>
	</g>
	<g transform="translate(519.5336,303.934)">
		<circle class="st12" cx="0" cy="0" r="3.5"/>
	</g>
	<g transform="translate(439.1709,299.414)">
		<circle class="st12" cx="0" cy="0" r="3.5"/>
	</g>
	<g transform="translate(425.513,294.894)">
		<circle class="st12" cx="0" cy="0" r="3.5"/>
	</g>
	<g transform="translate(492.1012,294.894)">
		<circle class="st12" cx="0" cy="0" r="3.5"/>
	</g>
	<g transform="translate(411.9537,290.374)">
		<circle class="st12" cx="0" cy="0" r="3.5"/>
	</g>
	<g transform="translate(478.5419,290.374)">
		<circle class="st12" cx="0" cy="0" r="3.5"/>
	</g>
	<g transform="translate(398.4755,285.854)">
		<circle class="st12" cx="0" cy="0" r="3.5"/>
	</g>
	<g transform="translate(465.0638,285.854)">
		<circle class="st12" cx="0" cy="0" r="3.5"/>
	</g>
	<g transform="translate(385.0615,281.334)">
		<circle class="st12" cx="0" cy="0" r="3.5"/>
	</g>
	<g transform="translate(451.6497,281.334)">
		<circle class="st12" cx="0" cy="0" r="3.5"/>
	</g>
	<g transform="translate(371.6951,276.814)">
		<circle class="st12" cx="0" cy="0" r="3.5"/>
	</g>
	<g transform="translate(438.2833,276.814)">
		<circle class="st12" cx="0" cy="0" r="3.5"/>
	</g>
	<g transform="translate(358.3599,272.294)">
		<circle class="st12" cx="0" cy="0" r="3.5"/>
	</g>
	<g transform="translate(424.9482,272.294)">
		<circle class="st12" cx="0" cy="0" r="3.5"/>
	</g>
	<g transform="translate(345.04,267.774)">
		<circle class="st12" cx="0" cy="0" r="3.5"/>
	</g>
	<g transform="translate(411.6282,267.774)">
		<circle class="st12" cx="0" cy="0" r="3.5"/>
	</g>
	<g transform="translate(331.7193,263.254)">
		<circle class="st12" cx="0" cy="0" r="3.5"/>
	</g>
	<g transform="translate(398.3075,263.254)">
		<circle class="st12" cx="0" cy="0" r="3.5"/>
	</g>
	<g transform="translate(318.3817,258.734)">
		<circle class="st12" cx="0" cy="0" r="3.5"/>
	</g>
	<g transform="translate(384.97,258.734)">
		<circle class="st12" cx="0" cy="0" r="3.5"/>
	</g>
	<g transform="translate(305.0113,254.214)">
		<circle class="st12" cx="0" cy="0" r="3.5"/>
	</g>
	<g transform="translate(371.5995,254.214)">
		<circle class="st12" cx="0" cy="0" r="3.5"/>
	</g>
	<g transform="translate(291.5916,249.694)">
		<circle class="st12" cx="0" cy="0" r="3.5"/>
	</g>
	<g transform="translate(358.1798,249.694)">
		<circle class="st12" cx="0" cy="0" r="3.5"/>
	</g>
	<g transform="translate(278.1061,245.174)">
		<circle class="st12" cx="0" cy="0" r="3.5"/>
	</g>
	<g transform="translate(344.6943,245.174)">
		<circle class="st12" cx="0" cy="0" r="3.5"/>
	</g>
	<g transform="translate(331.126,240.654)">
		<circle class="st12" cx="0" cy="0" r="3.5"/>
	</g>
	<g transform="translate(317.4572,236.134)">
		<circle class="st12" cx="0" cy="0" r="3.5"/>
	</g>
	<g transform="translate(237.0818,231.614)">
		<circle class="st12" cx="0" cy="0" r="3.5"/>
	</g>
	<g transform="translate(303.67,231.614)">
		<circle class="st12" cx="0" cy="0" r="3.5"/>
	</g>
	<g transform="translate(289.7453,227.094)">
		<circle class="st12" cx="0" cy="0" r="3.5"/>
	</g>
	<g transform="translate(275.6633,222.574)">
		<circle class="st12" cx="0" cy="0" r="3.5"/>
	</g>
	<g transform="translate(261.4031,218.054)">
		<circle class="st12" cx="0" cy="0" r="3.5"/>
	</g>
	<g transform="translate(180.3545,213.534)">
		<circle class="st12" cx="0" cy="0" r="3.5"/>
	</g>
	<g transform="translate(246.9427,213.534)">
		<circle class="st12" cx="0" cy="0" r="3.5"/>
	</g>
	<g transform="translate(165.6703,209.014)">
		<circle class="st12" cx="0" cy="0" r="3.5"/>
	</g>
	<g transform="translate(232.2586,209.014)">
		<circle class="st12" cx="0" cy="0" r="3.5"/>
	</g>
	<g transform="translate(150.7372,204.494)">
		<circle class="st12" cx="0" cy="0" r="3.5"/>
	</g>
	<g transform="translate(217.3255,204.494)">
		<circle class="st12" cx="0" cy="0" r="3.5"/>
	</g>
	<g transform="translate(202.1163,199.974)">
		<circle class="st12" cx="0" cy="0" r="3.5"/>
	</g>
	<g transform="translate(120.0138,195.454)">
		<circle class="st12" cx="0" cy="0" r="3.5"/>
	</g>
	<g transform="translate(186.6021,195.454)">
		<circle class="st12" cx="0" cy="0" r="3.5"/>
	</g>
	<g transform="translate(104.1627,190.934)">
		<circle class="st12" cx="0" cy="0" r="3.5"/>
	</g>
	<g transform="translate(96.1665,186.414)">
		<circle class="st12" cx="0" cy="0" r="3.5"/>
	</g>
	<g transform="translate(96.1665,181.894)">
		<circle class="st12" cx="0" cy="0" r="3.5"/>
	</g>
	<g transform="translate(96.1665,177.374)">
		<circle class="st12" cx="0" cy="0" r="3.5"/>
	</g>
	<g transform="translate(120.8137,177.374)">
		<circle class="st12" cx="0" cy="0" r="3.5"/>
	</g>
	<g transform="translate(96.1665,172.854)">
		<circle class="st12" cx="0" cy="0" r="3.5"/>
	</g>
	<g transform="translate(365,154)">
		<text transform="matrix(1 0 0 1 0 -1.464844e-05)" class="st4 st6">T</text>
	</g>
	<g transform="translate(383,168)">
		<text transform="matrix(1 0 0 1 0 -1.464844e-05)" class="st4 st7">4,3</text>
	</g>
	<g transform="translate(361,371)">
		<text transform="matrix(1 0 0 1 0 -1.464844e-05)" class="st4 st6">T</text>
	</g>
	<g transform="translate(379,385)">
		<text transform="matrix(1 0 0 1 0 -1.464844e-05)" class="st4 st7">4,2</text>
	</g>
	<g transform="translate(366,274)">
		<text transform="matrix(1 0 0 1 0 -1.464844e-05)" class="st4 st5">T</text>
	</g>
	<g transform="translate(383,287)">
		<text transform="matrix(1 0 0 1 0 -1.464844e-05)" class="st4 st13">4,1</text>
	</g>
</g>
</svg>
