<?xml version="1.0" encoding="utf-8"?>
<!-- Generator: Adobe Illustrator 21.1.0, SVG Export Plug-In . SVG Version: 6.00 Build 0)  -->
<svg version="1.1" id="Layer_1" xmlns="http://www.w3.org/2000/svg" xmlns:xlink="http://www.w3.org/1999/xlink" x="0px" y="0px"
	 viewBox="0 0 720 555" style="enable-background:new 0 0 720 555;" xml:space="preserve">
<style type="text/css">
	.st0{clip-path:url(#SVGID_2_);fill:#FFFFFF;}
	.st1{fill:#FFFFFF;}
	.st2{fill:none;stroke:#262626;stroke-width:0.6667;stroke-linejoin:round;stroke-miterlimit:10;}
	.st3{fill:none;stroke:#262626;stroke-width:0.6667;stroke-linecap:square;stroke-linejoin:round;stroke-miterlimit:10;}
	.st4{fill:#262626;}
	.st5{font-family:'MyriadPro-Regular';}
	.st6{font-size:21px;}
	.st7{font-size:23px;}
	.st8{fill:none;stroke:#FF0000;stroke-width:2.6667;stroke-linejoin:round;stroke-miterlimit:10;}
	.st9{fill:none;stroke:#0000FF;stroke-width:2.6667;stroke-linejoin:bevel;stroke-miterlimit:1;stroke-dasharray:8,8;}
	.st10{font-size:19px;}
	.st11{fill:none;stroke:#262626;stroke-width:0.6667;stroke-miterlimit:10;}
</style>
<g>
	<g>
		<g>
			<defs>
				<rect id="SVGID_1_" y="0" width="720" height="555"/>
			</defs>
			<clipPath id="SVGID_2_">
				<use xlink:href="#SVGID_1_"  style="overflow:visible;"/>
			</clipPath>
			<rect y="0" class="st0" width="720" height="555"/>
		</g>
	</g>
	<g>
		<rect y="0" class="st1" width="720" height="555"/>
		<path class="st1" d="M94,490h558V42H94V490z"/>
	</g>
	<g>
		<line class="st2" x1="94" y1="490" x2="652" y2="490"/>
		<line class="st2" x1="94" y1="42" x2="652" y2="42"/>
		<line class="st3" x1="94" y1="490" x2="94" y2="484.4"/>
		<line class="st3" x1="233.5" y1="490" x2="233.5" y2="484.4"/>
		<line class="st3" x1="373" y1="490" x2="373" y2="484.4"/>
		<line class="st3" x1="512.5" y1="490" x2="512.5" y2="484.4"/>
		<line class="st3" x1="652" y1="490" x2="652" y2="484.4"/>
		<line class="st3" x1="94" y1="42" x2="94" y2="47.6"/>
		<line class="st3" x1="233.5" y1="42" x2="233.5" y2="47.6"/>
		<line class="st3" x1="373" y1="42" x2="373" y2="47.6"/>
		<line class="st3" x1="512.5" y1="42" x2="512.5" y2="47.6"/>
		<line class="st3" x1="652" y1="42" x2="652" y2="47.6"/>
	</g>
	<g transform="translate(94,496.9333)">
		<text transform="matrix(1 0 0 1 -9.5 22)" class="st4 st5 st6">-1</text>
	</g>
	<g transform="translate(233.5,496.9333)">
		<text transform="matrix(1 0 0 1 -18.5 22)" class="st4 st5 st6">-0.5</text>
	</g>
	<g transform="translate(373,496.9333)">
		<text transform="matrix(1 0 0 1 -6 22)" class="st4 st5 st6">0</text>
	</g>
	<g transform="translate(512.5,496.9333)">
		<text transform="matrix(1 0 0 1 -15 22)" class="st4 st5 st6">0.5</text>
	</g>
	<g transform="translate(652,496.9333)">
		<text transform="matrix(1 0 0 1 -6 22)" class="st4 st5 st6">1</text>
	</g>
	<g transform="translate(373.0003,525.2667)">
		<text transform="matrix(1 0 0 1 -6.5 24)" class="st4 st5 st7">p</text>
	</g>
	<g>
		<line class="st2" x1="94" y1="490" x2="94" y2="42"/>
		<line class="st2" x1="652" y1="490" x2="652" y2="42"/>
		<line class="st3" x1="94" y1="490" x2="99.6" y2="490"/>
		<line class="st3" x1="94" y1="415.3" x2="99.6" y2="415.3"/>
		<line class="st3" x1="94" y1="340.7" x2="99.6" y2="340.7"/>
		<line class="st3" x1="94" y1="266" x2="99.6" y2="266"/>
		<line class="st3" x1="94" y1="191.3" x2="99.6" y2="191.3"/>
		<line class="st3" x1="94" y1="116.7" x2="99.6" y2="116.7"/>
		<line class="st3" x1="94" y1="42" x2="99.6" y2="42"/>
		<line class="st3" x1="652" y1="490" x2="646.4" y2="490"/>
		<line class="st3" x1="652" y1="415.3" x2="646.4" y2="415.3"/>
		<line class="st3" x1="652" y1="340.7" x2="646.4" y2="340.7"/>
		<line class="st3" x1="652" y1="266" x2="646.4" y2="266"/>
		<line class="st3" x1="652" y1="191.3" x2="646.4" y2="191.3"/>
		<line class="st3" x1="652" y1="116.7" x2="646.4" y2="116.7"/>
		<line class="st3" x1="652" y1="42" x2="646.4" y2="42"/>
	</g>
	<g transform="translate(87.0667,490)">
		<text transform="matrix(1 0 0 1 -12 8.5)" class="st4 st5 st6">0</text>
	</g>
	<g transform="translate(87.0667,415.3333)">
		<text transform="matrix(1 0 0 1 -53 8.5)" class="st4 st5 st6">0.005</text>
	</g>
	<g transform="translate(87.0667,340.6667)">
		<text transform="matrix(1 0 0 1 -41 8.5)" class="st4 st5 st6">0.01</text>
	</g>
	<g transform="translate(87.0667,266)">
		<text transform="matrix(1 0 0 1 -53 8.5)" class="st4 st5 st6">0.015</text>
	</g>
	<g transform="translate(87.0667,191.3333)">
		<text transform="matrix(1 0 0 1 -41 8.5)" class="st4 st5 st6">0.02</text>
	</g>
	<g transform="translate(87.0667,116.6667)">
		<text transform="matrix(1 0 0 1 -53 8.5)" class="st4 st5 st6">0.025</text>
	</g>
	<g transform="translate(87.0667,42)">
		<text transform="matrix(1 0 0 1 -41 8.5)" class="st4 st5 st6">0.03</text>
	</g>
	<g transform="translate(30.0667,265.9998) rotate(-90)">
		<text transform="matrix(1 0 0 1 -17.4996 -6)" class="st4 st5 st7">I(p)</text>
	</g>
	<g>
		<path class="st8" d="M96.8,490h5.6h5.6h5.6h5.6h5.6h5.6l5.6-3.3l5.6-1.1l5.6-1.4l5.6-1.6l5.6-1.6l5.6-1.6l5.6-1.7l5.6-1.7l5.6-1.8
			l5.6-1.9l5.6-21.2l5.6-19.3l5.6-14.1l5.6-12.9l5.6-13.2l5.6-15.5l5.6-21.7l5.6-5.4l5.6-3.2l5.6-3l5.6-2.9l5.6-2.8l5.6-8.3
			l5.6-34.6l5.6-16.6l5.6-10.8l5.6-10.1l5.6-9.9l5.6-9.8l5.6-9.4l5.6-7.8l5.6-9l5.6-9.8l5.6-9.7l5.6-10l5.6-7.6l5.6,0.6l5.6-3.1
			l5.6-18.4l5.6-17.9l5.6-16.2l5.6-15.1l5.6-14.5h5.6l5.6,14.5l5.6,15.1l5.6,16.2l5.6,17.9l5.6,18.4l5.6,3.1l5.6-0.6l5.6,7.6l5.6,10
			l5.6,9.7l5.6,9.8l5.6,9l5.6,7.8l5.6,9.4l5.6,9.8l5.6,9.9l5.6,10.1l5.6,10.8l5.6,16.6l5.6,34.6l5.6,8.3l5.6,2.8l5.6,2.9l5.6,3
			l5.6,3.2l5.6,5.4l5.6,21.7l5.6,15.5l5.6,13.2l5.6,12.9l5.6,14.1l5.6,19.3l5.6,21.2l5.6,1.9l5.6,1.8l5.6,1.7l5.6,1.7l5.6,1.6
			l5.6,1.6l5.6,1.6l5.6,1.4l5.6,1.1l5.6,3.3h5.6h5.6h5.6h5.6h5.6h5.6"/>
	</g>
	<g>
		<path class="st9" d="M96.8,490h5.6h5.6h5.6h5.6h5.6h5.6l5.6-3.3l5.6-1.1l5.6-1.4l5.6-1.6l5.6-1.5l5.6-1.6l5.6-1.7l5.6-1.7l5.6-1.9
			l5.6-1.9l5.6-21.3l5.6-19.2l5.6-14.1l5.6-12.9l5.6-13.2l5.6-15.5l5.6-21.7l5.6-5.3l5.6-3.2l5.6-2.9l5.6-3.1l5.6-2.6l5.6-8.2
			l5.6-34.6l5.6-16.8l5.6-10.7l5.6-10l5.6-9.9l5.6-9.8l5.6-9.5l5.6-7.8l5.6-8.9l5.6-9.9l5.6-9.5l5.6-10.2l5.6-7.5l5.6,0.7l5.6-3.3
			l5.6-18.2l5.6-18l5.6-16.2l5.6-15.2l5.6-14.4l5.6,0l5.6,14.4l5.6,15.1l5.6,16.3l5.6,18l5.6,18.3l5.6,3.1l5.6-0.6l5.6,7.5l5.6,10.2
			l5.6,9.5l5.6,9.9l5.6,9l5.6,7.8l5.6,9.5l5.6,9.7l5.6,10l5.6,10l5.6,10.7l5.6,16.8l5.6,34.6l5.6,8.2l5.6,2.7l5.6,3l5.6,2.9l5.6,3.2
			l5.6,5.3l5.6,21.8l5.6,15.4l5.6,13.1l5.6,12.9l5.6,14.1l5.6,19.2l5.6,21.3l5.6,1.9l5.6,1.9l5.6,1.7l5.6,1.7l5.6,1.6l5.6,1.6
			l5.6,1.5l5.6,1.4l5.6,1.1l5.6,3.3h5.6h5.6h5.6h5.6h5.6h5.6"/>
	</g>
	<g>
		<path class="st1" d="M466,142V42h186v100H466z"/>
	</g>
	<g transform="translate(523.0965,60.239)">
		<text transform="matrix(1 0 0 1 0 7.5)" class="st5 st10">RM intensity</text>
	</g>
	<g>
		<line class="st8" x1="490.2" y1="60.2" x2="520.1" y2="60.2"/>
	</g>
	<g transform="translate(523.0965,108.0377)">
		<text transform="matrix(1 0 0 1 0 -5)" class="st5 st10">Reference</text>
	</g>
	<g transform="translate(523.0965,108.0377)">
		<text transform="matrix(1 0 0 1 0 20)" class="st5 st10">intensity</text>
	</g>
	<g>
		<line class="st9" x1="490.2" y1="108" x2="520.1" y2="108"/>
	</g>
	<g>
		<path class="st11" d="M466,142V42h186v100H466z"/>
	</g>
</g>
</svg>
