<?xml version="1.0" encoding="utf-8"?>
<!-- Generator: Adobe Illustrator 21.1.0, SVG Export Plug-In . SVG Version: 6.00 Build 0)  -->
<svg version="1.1" id="Layer_1" xmlns="http://www.w3.org/2000/svg" xmlns:xlink="http://www.w3.org/1999/xlink" x="0px" y="0px"
	 viewBox="0 0 961 699" style="enable-background:new 0 0 961 699;" xml:space="preserve">
<style type="text/css">
	.st0{clip-path:url(#SVGID_2_);fill:#FFFFFF;}
	.st1{fill:#FFFFFF;}
	.st2{fill:none;stroke:#262626;stroke-width:0.6667;stroke-linecap:square;stroke-linejoin:round;stroke-miterlimit:10;}
	.st3{fill:#262626;}
	.st4{font-family:'MyriadPro-Regular';}
	.st5{font-size:21px;}
	.st6{font-size:23px;}
	.st7{fill:none;stroke:#FF0000;stroke-width:2.6667;stroke-linejoin:round;stroke-miterlimit:10;}
	.st8{fill:none;stroke:#0000FF;stroke-width:2.6667;stroke-linejoin:bevel;stroke-miterlimit:1;stroke-dasharray:8,8;}
	.st9{font-size:19px;}
	.st10{fill:none;stroke:#262626;stroke-width:0.6667;stroke-miterlimit:10;}
</style>
<g>
	<g>
		<g>
			<defs>
				<rect id="SVGID_1_" y="0" width="961" height="699"/>
			</defs>
			<clipPath id="SVGID_2_">
				<use xlink:href="#SVGID_1_"  style="overflow:visible;"/>
			</clipPath>
			<rect y="0" class="st0" width="961" height="699"/>
		</g>
	</g>
	<g>
		<rect y="0" class="st1" width="961" height="699"/>
		<path class="st1" d="M125,622h745V52H125V622z"/>
	</g>
	<g>
		<line class="st2" x1="125" y1="622" x2="870" y2="622"/>
		<line class="st2" x1="125" y1="52" x2="870" y2="52"/>
		<line class="st2" x1="125" y1="622" x2="125" y2="614.5"/>
		<line class="st2" x1="199.5" y1="622" x2="199.5" y2="614.5"/>
		<line class="st2" x1="274" y1="622" x2="274" y2="614.5"/>
		<line class="st2" x1="348.5" y1="622" x2="348.5" y2="614.5"/>
		<line class="st2" x1="423" y1="622" x2="423" y2="614.5"/>
		<line class="st2" x1="497.5" y1="622" x2="497.5" y2="614.5"/>
		<line class="st2" x1="572" y1="622" x2="572" y2="614.5"/>
		<line class="st2" x1="646.5" y1="622" x2="646.5" y2="614.5"/>
		<line class="st2" x1="721" y1="622" x2="721" y2="614.5"/>
		<line class="st2" x1="795.5" y1="622" x2="795.5" y2="614.5"/>
		<line class="st2" x1="870" y1="622" x2="870" y2="614.5"/>
		<line class="st2" x1="125" y1="52" x2="125" y2="59.4"/>
		<line class="st2" x1="199.5" y1="52" x2="199.5" y2="59.4"/>
		<line class="st2" x1="274" y1="52" x2="274" y2="59.4"/>
		<line class="st2" x1="348.5" y1="52" x2="348.5" y2="59.4"/>
		<line class="st2" x1="423" y1="52" x2="423" y2="59.4"/>
		<line class="st2" x1="497.5" y1="52" x2="497.5" y2="59.4"/>
		<line class="st2" x1="572" y1="52" x2="572" y2="59.4"/>
		<line class="st2" x1="646.5" y1="52" x2="646.5" y2="59.4"/>
		<line class="st2" x1="721" y1="52" x2="721" y2="59.4"/>
		<line class="st2" x1="795.5" y1="52" x2="795.5" y2="59.4"/>
		<line class="st2" x1="870" y1="52" x2="870" y2="59.4"/>
	</g>
	<g transform="translate(125,628.9333)">
		<text transform="matrix(1 0 0 1 -9.5 22)" class="st3 st4 st5">-1</text>
	</g>
	<g transform="translate(199.5,628.9333)">
		<text transform="matrix(1 0 0 1 -18.5 22)" class="st3 st4 st5">-0.8</text>
	</g>
	<g transform="translate(274,628.9333)">
		<text transform="matrix(1 0 0 1 -18.5 22)" class="st3 st4 st5">-0.6</text>
	</g>
	<g transform="translate(348.5,628.9333)">
		<text transform="matrix(1 0 0 1 -18.5 22)" class="st3 st4 st5">-0.4</text>
	</g>
	<g transform="translate(423,628.9333)">
		<text transform="matrix(1 0 0 1 -18.5 22)" class="st3 st4 st5">-0.2</text>
	</g>
	<g transform="translate(497.5,628.9333)">
		<text transform="matrix(1 0 0 1 -6 22)" class="st3 st4 st5">0</text>
	</g>
	<g transform="translate(572,628.9333)">
		<text transform="matrix(1 0 0 1 -15 22)" class="st3 st4 st5">0.2</text>
	</g>
	<g transform="translate(646.5,628.9333)">
		<text transform="matrix(1 0 0 1 -15 22)" class="st3 st4 st5">0.4</text>
	</g>
	<g transform="translate(721,628.9333)">
		<text transform="matrix(1 0 0 1 -15 22)" class="st3 st4 st5">0.6</text>
	</g>
	<g transform="translate(795.5,628.9333)">
		<text transform="matrix(1 0 0 1 -15 22)" class="st3 st4 st5">0.8</text>
	</g>
	<g transform="translate(870,628.9333)">
		<text transform="matrix(1 0 0 1 -6 22)" class="st3 st4 st5">1</text>
	</g>
	<g transform="translate(497.5004,657.2667)">
		<text transform="matrix(1 0 0 1 -6.5 24)" class="st3 st4 st6">p</text>
	</g>
	<g>
		<line class="st2" x1="125" y1="622" x2="125" y2="52"/>
		<line class="st2" x1="870" y1="622" x2="870" y2="52"/>
		<line class="st2" x1="125" y1="527" x2="132.4" y2="527"/>
		<line class="st2" x1="125" y1="432" x2="132.4" y2="432"/>
		<line class="st2" x1="125" y1="337" x2="132.4" y2="337"/>
		<line class="st2" x1="125" y1="242" x2="132.4" y2="242"/>
		<line class="st2" x1="125" y1="147" x2="132.4" y2="147"/>
		<line class="st2" x1="125" y1="52" x2="132.4" y2="52"/>
		<line class="st2" x1="870" y1="527" x2="862.5" y2="527"/>
		<line class="st2" x1="870" y1="432" x2="862.5" y2="432"/>
		<line class="st2" x1="870" y1="337" x2="862.5" y2="337"/>
		<line class="st2" x1="870" y1="242" x2="862.5" y2="242"/>
		<line class="st2" x1="870" y1="147" x2="862.5" y2="147"/>
		<line class="st2" x1="870" y1="52" x2="862.5" y2="52"/>
	</g>
	<g transform="translate(118.0667,527)">
		<text transform="matrix(1 0 0 1 -53 8.5)" class="st3 st4 st5">0.005</text>
	</g>
	<g transform="translate(118.0667,432)">
		<text transform="matrix(1 0 0 1 -41 8.5)" class="st3 st4 st5">0.01</text>
	</g>
	<g transform="translate(118.0667,337)">
		<text transform="matrix(1 0 0 1 -53 8.5)" class="st3 st4 st5">0.015</text>
	</g>
	<g transform="translate(118.0667,242)">
		<text transform="matrix(1 0 0 1 -41 8.5)" class="st3 st4 st5">0.02</text>
	</g>
	<g transform="translate(118.0667,147)">
		<text transform="matrix(1 0 0 1 -53 8.5)" class="st3 st4 st5">0.025</text>
	</g>
	<g transform="translate(118.0667,52)">
		<text transform="matrix(1 0 0 1 -41 8.5)" class="st3 st4 st5">0.03</text>
	</g>
	<g transform="translate(61.0667,336.9998) rotate(-90)">
		<text transform="matrix(1 0 0 1 -17.4996 -6)" class="st3 st4 st6">I(p)</text>
	</g>
	<g>
		<path class="st7" d="M128.7,622h7.4h7.4h7.4h7.4h7.5h7.4l7.4-3.8l7.4-1.3l7.4-1.7l7.5-2.1l7.4-2.1l7.4-2.1l7.4-2.2l7.4-2.2
			l7.5-2.3l7.4-2.5l7.4-27l7.5-24.6l7.4-18l7.5-16.5l7.4-16.8l7.5-19.7l7.5-27.6l7.4-6.9l7.5-4l7.4-3.8l7.5-3.7l7.5-3.6l7.4-10.6
			l7.5-44l7.4-21l7.5-13.7l7.5-13l7.4-12.6l7.5-12.5l7.4-12l7.5-10l7.5-11.5l7.4-12.6l7.5-12.4l7.4-12.7l7.5-9.6l7.5,0.8l7.4-3.7
			l7.5-23.4l7.4-22.8l7.5-20.7l7.5-19.2l7.4-18.4h7.5l7.4,18.4l7.5,19.2l7.5,20.7l7.5,22.8l7.4,23.4l7.5,3.7l7.5-0.8l7.5,9.6
			l7.5,12.7l7.4,12.4l7.5,12.6l7.5,11.5l7.5,10l7.5,12l7.4,12.5l7.5,12.6l7.5,13l7.5,13.7l7.5,21l7.4,44l7.5,10.6l7.5,3.6l7.5,3.7
			l7.5,3.8l7.4,4l7.5,6.9l7.5,27.6l7.5,19.7l7.5,16.8l7.4,16.5l7.5,18l7.5,24.6l7.5,27l7.5,2.5l7.4,2.3l7.5,2.2l7.5,2.2l7.5,2.1
			l7.5,2.1l7.4,2.1l7.5,1.7l7.5,1.3l7.5,3.8h7.5h7.4h7.5h7.5h7.5h7.5"/>
	</g>
	<g>
		<path class="st8" d="M128.7,622h7.4h7.4h7.4h7.4h7.5h7.4l7.4-4.2l7.4-1.4l7.4-1.8l7.5-2l7.4-2l7.4-2.1l7.4-2.2l7.4-2.1l7.5-2.4
			l7.4-2.4l7.4-27.2l7.5-24.4l7.4-17.9l7.5-16.4l7.4-16.8l7.5-19.7l7.5-27.7l7.4-6.8l7.5-4l7.4-3.7l7.5-3.9l7.5-3.3l7.4-10.5l7.5-44
			l7.4-21.4l7.5-13.6l7.5-12.8l7.4-12.6l7.5-12.4l7.4-12l7.5-9.9l7.5-11.4l7.4-12.6l7.5-12.1l7.4-13l7.5-9.6l7.5,0.9l7.4-4.2
			l7.5-23.1l7.4-23l7.5-20.6l7.5-19.3l7.4-18.3l7.5,0l7.4,18.3l7.5,19.3l7.5,20.7l7.5,22.8l7.4,23.2l7.5,4l7.5-0.8l7.5,9.5l7.5,13
			l7.4,12.1l7.5,12.6l7.5,11.4l7.5,9.9l7.5,12.1l7.4,12.4l7.5,12.8l7.5,12.7l7.5,13.7l7.5,21.3l7.4,44l7.5,10.5l7.5,3.4l7.5,3.8
			l7.5,3.7l7.4,4.1l7.5,6.8l7.5,27.7l7.5,19.6l7.5,16.7l7.4,16.5l7.5,17.9l7.5,24.4l7.5,27.1l7.5,2.4l7.4,2.4l7.5,2.2l7.5,2.1l7.5,2
			l7.5,2l7.4,2l7.5,1.8l7.5,1.5l7.5,4.2h7.5h7.4h7.5h7.5h7.5h7.5"/>
	</g>
	<g>
		<path class="st1" d="M662,120V52h208v68H662z"/>
	</g>
	<g transform="translate(701,70.0917)">
		<text transform="matrix(1 0 0 1 0 7.5)" class="st4 st9">PS intensity</text>
	</g>
	<g>
		<line class="st7" x1="668" y1="70.1" x2="698" y2="70.1"/>
	</g>
	<g transform="translate(701,101.9083)">
		<text transform="matrix(1 0 0 1 0 7.5)" class="st4 st9">Reference intensity</text>
	</g>
	<g>
		<line class="st8" x1="668" y1="101.9" x2="698" y2="101.9"/>
	</g>
	<g>
		<path class="st10" d="M662,120V52h208v68H662z"/>
	</g>
</g>
</svg>
