<?xml version="1.0" encoding="utf-8"?>
<!-- Generator: Adobe Illustrator 21.1.0, SVG Export Plug-In . SVG Version: 6.00 Build 0)  -->
<svg version="1.1" id="Layer_1" xmlns="http://www.w3.org/2000/svg" xmlns:xlink="http://www.w3.org/1999/xlink" x="0px" y="0px"
	 viewBox="0 0 731 555" style="enable-background:new 0 0 731 555;" xml:space="preserve">
<style type="text/css">
	.st0{clip-path:url(#SVGID_2_);fill:#FFFFFF;}
	.st1{fill:#FFFFFF;}
	.st2{fill:none;stroke:#262626;stroke-width:0.6667;stroke-linecap:square;stroke-linejoin:round;stroke-miterlimit:10;}
	.st3{fill:#262626;}
	.st4{font-family:'MyriadPro-Regular';}
	.st5{font-size:21px;}
	.st6{font-size:23px;}
	.st7{fill:none;stroke:#FF0000;stroke-width:2.6667;stroke-linejoin:round;stroke-miterlimit:10;}
	.st8{fill:none;stroke:#0000FF;stroke-width:2.6667;stroke-linejoin:bevel;stroke-miterlimit:1;stroke-dasharray:8,8;}
	.st9{fill:none;stroke:#262626;stroke-width:0.6667;stroke-miterlimit:10;}
</style>
<g>
	<g>
		<g>
			<defs>
				<rect id="SVGID_1_" y="0" width="731" height="555"/>
			</defs>
			<clipPath id="SVGID_2_">
				<use xlink:href="#SVGID_1_"  style="overflow:visible;"/>
			</clipPath>
			<rect y="0" class="st0" width="731" height="555"/>
		</g>
	</g>
	<g>
		<rect y="0" class="st1" width="731" height="555"/>
		<path class="st1" d="M95,490h567V42H95V490z"/>
	</g>
	<g>
		<line class="st2" x1="95" y1="490" x2="662" y2="490"/>
		<line class="st2" x1="95" y1="42" x2="662" y2="42"/>
		<line class="st2" x1="95" y1="490" x2="95" y2="484.3"/>
		<line class="st2" x1="236.8" y1="490" x2="236.8" y2="484.3"/>
		<line class="st2" x1="378.5" y1="490" x2="378.5" y2="484.3"/>
		<line class="st2" x1="520.3" y1="490" x2="520.3" y2="484.3"/>
		<line class="st2" x1="662" y1="490" x2="662" y2="484.3"/>
		<line class="st2" x1="95" y1="42" x2="95" y2="47.7"/>
		<line class="st2" x1="236.8" y1="42" x2="236.8" y2="47.7"/>
		<line class="st2" x1="378.5" y1="42" x2="378.5" y2="47.7"/>
		<line class="st2" x1="520.3" y1="42" x2="520.3" y2="47.7"/>
		<line class="st2" x1="662" y1="42" x2="662" y2="47.7"/>
	</g>
	<g transform="translate(95,496.9333)">
		<text transform="matrix(1 0 0 1 -9.5 22)" class="st3 st4 st5">-1</text>
	</g>
	<g transform="translate(236.75,496.9333)">
		<text transform="matrix(1 0 0 1 -18.5 22)" class="st3 st4 st5">-0.5</text>
	</g>
	<g transform="translate(378.5,496.9333)">
		<text transform="matrix(1 0 0 1 -6 22)" class="st3 st4 st5">0</text>
	</g>
	<g transform="translate(520.25,496.9333)">
		<text transform="matrix(1 0 0 1 -15 22)" class="st3 st4 st5">0.5</text>
	</g>
	<g transform="translate(662,496.9333)">
		<text transform="matrix(1 0 0 1 -6 22)" class="st3 st4 st5">1</text>
	</g>
	<g transform="translate(378.5003,525.2667)">
		<text transform="matrix(1 0 0 1 -6.5 24)" class="st3 st4 st6">p</text>
	</g>
	<g>
		<line class="st2" x1="95" y1="490" x2="95" y2="42"/>
		<line class="st2" x1="662" y1="490" x2="662" y2="42"/>
		<line class="st2" x1="95" y1="490" x2="100.7" y2="490"/>
		<line class="st2" x1="95" y1="415.3" x2="100.7" y2="415.3"/>
		<line class="st2" x1="95" y1="340.7" x2="100.7" y2="340.7"/>
		<line class="st2" x1="95" y1="266" x2="100.7" y2="266"/>
		<line class="st2" x1="95" y1="191.3" x2="100.7" y2="191.3"/>
		<line class="st2" x1="95" y1="116.7" x2="100.7" y2="116.7"/>
		<line class="st2" x1="95" y1="42" x2="100.7" y2="42"/>
		<line class="st2" x1="662" y1="490" x2="656.3" y2="490"/>
		<line class="st2" x1="662" y1="415.3" x2="656.3" y2="415.3"/>
		<line class="st2" x1="662" y1="340.7" x2="656.3" y2="340.7"/>
		<line class="st2" x1="662" y1="266" x2="656.3" y2="266"/>
		<line class="st2" x1="662" y1="191.3" x2="656.3" y2="191.3"/>
		<line class="st2" x1="662" y1="116.7" x2="656.3" y2="116.7"/>
		<line class="st2" x1="662" y1="42" x2="656.3" y2="42"/>
	</g>
	<g transform="translate(88.0667,490)">
		<text transform="matrix(1 0 0 1 -12 8.5)" class="st3 st4 st5">0</text>
	</g>
	<g transform="translate(88.0667,415.3333)">
		<text transform="matrix(1 0 0 1 -53 8.5)" class="st3 st4 st5">0.005</text>
	</g>
	<g transform="translate(88.0667,340.6667)">
		<text transform="matrix(1 0 0 1 -41 8.5)" class="st3 st4 st5">0.01</text>
	</g>
	<g transform="translate(88.0667,266)">
		<text transform="matrix(1 0 0 1 -53 8.5)" class="st3 st4 st5">0.015</text>
	</g>
	<g transform="translate(88.0667,191.3333)">
		<text transform="matrix(1 0 0 1 -41 8.5)" class="st3 st4 st5">0.02</text>
	</g>
	<g transform="translate(88.0667,116.6667)">
		<text transform="matrix(1 0 0 1 -53 8.5)" class="st3 st4 st5">0.025</text>
	</g>
	<g transform="translate(88.0667,42)">
		<text transform="matrix(1 0 0 1 -41 8.5)" class="st3 st4 st5">0.03</text>
	</g>
	<g transform="translate(31.0667,265.9998) rotate(-90)">
		<text transform="matrix(1 0 0 1 -17.4996 -6)" class="st3 st4 st6">I(p)</text>
	</g>
	<g>
		<path class="st7" d="M97.8,490h5.7h5.7h5.7h5.7h5.7h5.7h5.7h5.7h5.7h5.7h5.7h5.7h5.7h5.7h5.7h5.7h5.7h5.7h5.7h5.7h5.7h5.7h5.7h5.7
			h5.7h5.7l5.7-19.5l5.7-43.9l5.7-42.8l5.7-41.3l5.7-40.3l5.7-39.2l5.7-38.3l5.7-37.4l5.7-36.7l5.7-35.8l5.7-35.2l5.7-19.1l5.7,3
			l5.7,3.1l5.7,3.1l5.7,3.1l5.7,2.2l5.7,0l5.7,0l5.7,0l5.7,0l5.7,0l5.7,0h5.7l5.7,0l5.7,0l5.7,0l5.7,0l5.7,0l5.7,0l5.7-2.2l5.7-3.1
			l5.7-3.1l5.7-3.1l5.7-3l5.7,19.1l5.7,35.2l5.7,35.8l5.7,36.7l5.7,37.4l5.7,38.3l5.7,39.2l5.7,40.3l5.7,41.3l5.7,42.8l5.7,43.9
			l5.7,19.5h5.7h5.7h5.7h5.7h5.7h5.7h5.7h5.7h5.7h5.7h5.7h5.7h5.7h5.7h5.7h5.7h5.7h5.7h5.7h5.7h5.7h5.7h5.7h5.7h5.7h5.7"/>
	</g>
	<g>
		<path class="st8" d="M97.8,490h5.7h5.7h5.7h5.7h5.7h5.7h5.7h5.7h5.7h5.7h5.7h5.7h5.7h5.7h5.7h5.7h5.7h5.7h5.7h5.7h5.7h5.7h5.7h5.7
			h5.7h5.7l5.7-19.9l5.7-43.8l5.7-42.6l5.7-41.4l5.7-40.2l5.7-39.2l5.7-38.3l5.7-37.4l5.7-36.7l5.7-36l5.7-35.4l5.7-18.5l5.7,3.1
			l5.7,3.1l5.7,3.1L336,73l5.7,2.2l5.7,0.1h5.7h5.7h5.7h5.7h5.7h5.7h5.7h5.7h5.7h5.7h5.7l5.7-0.1L421,73l5.7-3.1l5.7-3.1l5.7-3.1
			l5.7-3.1l5.7,18.5l5.7,35.4l5.7,36l5.7,36.7l5.7,37.4l5.7,38.3l5.7,39.2l5.7,40.2l5.7,41.4l5.7,42.6l5.7,43.8l5.7,19.9h5.7h5.7
			h5.7h5.7h5.7h5.7h5.7h5.7h5.7h5.7h5.7h5.7h5.7h5.7h5.7h5.7h5.7h5.7h5.7h5.7h5.7h5.7h5.7h5.7h5.7h5.7"/>
	</g>
	<g>
		<path class="st1" d="M511,126V41h152v85H511z"/>
	</g>
	<g transform="translate(548,56.4094)">
		<text transform="matrix(1 0 0 1 0 8.5)" class="st4 st5">PS intensity</text>
	</g>
	<g>
		<line class="st7" x1="515" y1="56.4" x2="545" y2="56.4"/>
	</g>
	<g transform="translate(548,97.1696)">
		<text transform="matrix(1 0 0 1 0 -5)" class="st4 st5">Reference</text>
	</g>
	<g transform="translate(548,97.1696)">
		<text transform="matrix(1 0 0 1 0 22)" class="st4 st5">intensity</text>
	</g>
	<g>
		<line class="st8" x1="515" y1="97.2" x2="545" y2="97.2"/>
	</g>
	<g>
		<path class="st9" d="M511,126V41h152v85H511z"/>
	</g>
</g>
</svg>
