<?xml version="1.0" encoding="utf-8"?>
<!-- Generator: Adobe Illustrator 21.1.0, SVG Export Plug-In . SVG Version: 6.00 Build 0)  -->
<svg version="1.1" id="Layer_1" xmlns="http://www.w3.org/2000/svg" xmlns:xlink="http://www.w3.org/1999/xlink" x="0px" y="0px"
	 viewBox="0 0 731 555" style="enable-background:new 0 0 731 555;" xml:space="preserve">
<style type="text/css">
	.st0{clip-path:url(#SVGID_2_);fill:#FFFFFF;}
	.st1{fill:#FFFFFF;}
	.st2{fill:none;stroke:#262626;stroke-width:0.6667;stroke-linejoin:round;stroke-miterlimit:10;}
	.st3{fill:none;stroke:#262626;stroke-width:0.6667;stroke-linecap:square;stroke-linejoin:round;stroke-miterlimit:10;}
	.st4{fill:#262626;}
	.st5{font-family:'MyriadPro-Regular';}
	.st6{font-size:21px;}
	.st7{font-size:23px;}
	.st8{fill:none;stroke:#00FF00;stroke-width:0.6667;stroke-linejoin:round;stroke-miterlimit:10;}
	.st9{fill:none;stroke:#0000FF;stroke-width:2;stroke-linejoin:round;stroke-miterlimit:10;}
	.st10{fill:none;stroke:#FF0000;stroke-width:2;stroke-linejoin:round;stroke-miterlimit:10;}
	.st11{fill:none;stroke:#00FFFF;stroke-width:2;stroke-linejoin:round;stroke-miterlimit:10;}
	.st12{fill:none;stroke:#FFFF00;stroke-width:2;stroke-linejoin:round;stroke-miterlimit:10;}
	.st13{font-size:32px;}
	.st14{fill:none;stroke:#000000;stroke-width:2;stroke-linejoin:round;stroke-miterlimit:10;}
	.st15{fill:none;stroke:#000000;stroke-width:0.6667;stroke-linejoin:round;stroke-miterlimit:10;}
</style>
<g>
	<g>
		<g>
			<defs>
				<rect id="SVGID_1_" y="0" width="731" height="555"/>
			</defs>
			<clipPath id="SVGID_2_">
				<use xlink:href="#SVGID_1_"  style="overflow:visible;"/>
			</clipPath>
			<rect y="0" class="st0" width="731" height="555"/>
		</g>
	</g>
	<g>
		<rect y="0" class="st1" width="731" height="555"/>
		<path class="st1" d="M95,490h567V38H95V490z"/>
	</g>
	<g>
		<line class="st2" x1="95" y1="490" x2="662" y2="490"/>
		<line class="st3" x1="95" y1="490" x2="95" y2="484.3"/>
		<line class="st3" x1="236.8" y1="490" x2="236.8" y2="484.3"/>
		<line class="st3" x1="378.5" y1="490" x2="378.5" y2="484.3"/>
		<line class="st3" x1="520.3" y1="490" x2="520.3" y2="484.3"/>
		<line class="st3" x1="662" y1="490" x2="662" y2="484.3"/>
	</g>
	<g transform="translate(95,496.9333)">
		<text transform="matrix(1 0 0 1 -15.5 22)" class="st4 st5 st6">-20</text>
	</g>
	<g transform="translate(236.75,496.9333)">
		<text transform="matrix(1 0 0 1 -15.5 22)" class="st4 st5 st6">-10</text>
	</g>
	<g transform="translate(378.5,496.9333)">
		<text transform="matrix(1 0 0 1 -6 22)" class="st4 st5 st6">0</text>
	</g>
	<g transform="translate(520.25,496.9333)">
		<text transform="matrix(1 0 0 1 -12 22)" class="st4 st5 st6">10</text>
	</g>
	<g transform="translate(662,496.9333)">
		<text transform="matrix(1 0 0 1 -12 22)" class="st4 st5 st6">20</text>
	</g>
	<g transform="translate(378.5003,521.2667)">
		<text transform="matrix(1 0 0 1 -6 24)" class="st4 st5 st7">x</text>
	</g>
	<g>
		<line class="st2" x1="95" y1="490" x2="95" y2="38"/>
		<line class="st3" x1="95" y1="490" x2="100.7" y2="490"/>
		<line class="st3" x1="95" y1="433.5" x2="100.7" y2="433.5"/>
		<line class="st3" x1="95" y1="377" x2="100.7" y2="377"/>
		<line class="st3" x1="95" y1="320.5" x2="100.7" y2="320.5"/>
		<line class="st3" x1="95" y1="264" x2="100.7" y2="264"/>
		<line class="st3" x1="95" y1="207.5" x2="100.7" y2="207.5"/>
		<line class="st3" x1="95" y1="151" x2="100.7" y2="151"/>
		<line class="st3" x1="95" y1="94.5" x2="100.7" y2="94.5"/>
		<line class="st3" x1="95" y1="38" x2="100.7" y2="38"/>
	</g>
	<g transform="translate(88.0667,490)">
		<text transform="matrix(1 0 0 1 -12 8.5)" class="st4 st5 st6">0</text>
	</g>
	<g transform="translate(88.0667,433.5)">
		<text transform="matrix(1 0 0 1 -12 8.5)" class="st4 st5 st6">5</text>
	</g>
	<g transform="translate(88.0667,377)">
		<text transform="matrix(1 0 0 1 -24 8.5)" class="st4 st5 st6">10</text>
	</g>
	<g transform="translate(88.0667,320.5)">
		<text transform="matrix(1 0 0 1 -24 8.5)" class="st4 st5 st6">15</text>
	</g>
	<g transform="translate(88.0667,264)">
		<text transform="matrix(1 0 0 1 -24 8.5)" class="st4 st5 st6">20</text>
	</g>
	<g transform="translate(88.0667,207.5)">
		<text transform="matrix(1 0 0 1 -24 8.5)" class="st4 st5 st6">25</text>
	</g>
	<g transform="translate(88.0667,151)">
		<text transform="matrix(1 0 0 1 -24 8.5)" class="st4 st5 st6">30</text>
	</g>
	<g transform="translate(88.0667,94.5)">
		<text transform="matrix(1 0 0 1 -24 8.5)" class="st4 st5 st6">35</text>
	</g>
	<g transform="translate(88.0667,38)">
		<text transform="matrix(1 0 0 1 -24 8.5)" class="st4 st5 st6">40</text>
	</g>
	<g transform="translate(60.0667,263.9998) rotate(-90)">
		<text transform="matrix(1 0 0 1 -5.9996 -6)" class="st4 st5 st7">z</text>
	</g>
	<g>
		<line class="st8" x1="619.5" y1="38" x2="350.1" y2="490"/>
		<line class="st8" x1="619.5" y1="38" x2="352" y2="490"/>
		<line class="st8" x1="619.5" y1="38" x2="353.9" y2="490"/>
		<line class="st8" x1="619.5" y1="38" x2="355.8" y2="490"/>
		<line class="st8" x1="619.5" y1="38" x2="357.7" y2="490"/>
		<line class="st8" x1="619.5" y1="38" x2="359.6" y2="490"/>
		<line class="st8" x1="619.5" y1="38" x2="361.5" y2="490"/>
		<line class="st8" x1="619.5" y1="38" x2="363.4" y2="490"/>
		<line class="st8" x1="619.5" y1="38" x2="365.3" y2="490"/>
		<line class="st8" x1="619.5" y1="38" x2="367.2" y2="490"/>
		<line class="st8" x1="619.5" y1="38" x2="369" y2="490"/>
		<line class="st8" x1="619.5" y1="38" x2="370.9" y2="490"/>
		<line class="st8" x1="619.5" y1="38" x2="372.8" y2="490"/>
		<line class="st8" x1="619.5" y1="38" x2="374.7" y2="490"/>
		<line class="st8" x1="619.5" y1="38" x2="376.6" y2="490"/>
		<line class="st8" x1="619.5" y1="38" x2="378.5" y2="490"/>
		<line class="st8" x1="619.5" y1="38" x2="380.4" y2="490"/>
		<line class="st8" x1="619.5" y1="38" x2="382.3" y2="490"/>
		<line class="st8" x1="619.5" y1="38" x2="384.2" y2="490"/>
		<line class="st8" x1="619.5" y1="38" x2="386.1" y2="490"/>
		<line class="st8" x1="619.5" y1="38" x2="388" y2="490"/>
		<line class="st8" x1="619.5" y1="38" x2="389.8" y2="490"/>
		<line class="st8" x1="619.5" y1="38" x2="391.7" y2="490"/>
		<line class="st8" x1="619.5" y1="38" x2="393.6" y2="490"/>
		<line class="st8" x1="619.5" y1="38" x2="395.5" y2="490"/>
		<line class="st8" x1="619.5" y1="38" x2="397.4" y2="490"/>
		<line class="st8" x1="619.5" y1="38" x2="399.3" y2="490"/>
		<line class="st8" x1="619.5" y1="38" x2="401.2" y2="490"/>
		<line class="st8" x1="619.5" y1="38" x2="403.1" y2="490"/>
		<line class="st8" x1="619.5" y1="38" x2="405" y2="490"/>
		<line class="st8" x1="619.5" y1="38" x2="406.9" y2="490"/>
		<line class="st9" x1="350.1" y1="490" x2="406.9" y2="490"/>
		<line class="st10" x1="350.1" y1="490" x2="406.9" y2="490"/>
		<line class="st9" x1="137.5" y1="38" x2="350.1" y2="490"/>
		<line class="st9" x1="406.9" y1="490" x2="619.5" y2="38"/>
		<line class="st10" x1="137.5" y1="38" x2="619.5" y2="38"/>
		<line class="st11" x1="137.5" y1="38" x2="350.1" y2="490"/>
		<line class="st10" x1="350.1" y1="490" x2="406.9" y2="490"/>
		<line class="st9" x1="137.5" y1="38" x2="350.1" y2="490"/>
		<line class="st9" x1="406.9" y1="490" x2="619.5" y2="38"/>
		<line class="st10" x1="137.5" y1="38" x2="619.5" y2="38"/>
		<line class="st12" x1="406.9" y1="490" x2="619.5" y2="38"/>
		<line class="st10" x1="350.1" y1="490" x2="406.9" y2="490"/>
		<line class="st9" x1="137.5" y1="38" x2="350.1" y2="490"/>
		<line class="st9" x1="406.9" y1="490" x2="619.5" y2="38"/>
		<line class="st10" x1="137.5" y1="38" x2="619.5" y2="38"/>
		<line class="st10" x1="137.5" y1="38" x2="619.5" y2="38"/>
		<line class="st10" x1="350.1" y1="490" x2="406.9" y2="490"/>
		<line class="st9" x1="137.5" y1="38" x2="350.1" y2="490"/>
		<line class="st9" x1="406.9" y1="490" x2="619.5" y2="38"/>
		<line class="st10" x1="137.5" y1="38" x2="619.5" y2="38"/>
		<line class="st9" x1="406.9" y1="490" x2="619.5" y2="38"/>
	</g>
	<g transform="translate(620.4152,39.7512)">
		<text transform="matrix(1 0 0 1 0 33)" class="st5 st13">C</text>
	</g>
	<g transform="translate(118.5661,38.8048)">
		<text transform="matrix(1 0 0 1 0 33)" class="st5 st13">B</text>
	</g>
	<g transform="translate(423.3227,458.1619)">
		<text transform="matrix(1 0 0 1 0 33)" class="st5 st13">D</text>
	</g>
	<g>
		<line class="st14" x1="351.2" y1="488.8" x2="400.7" y2="488.8"/>
		<path class="st15" d="M396.1,483.8l13.3,5h-8.7L396.1,483.8"/>
		<path class="st15" d="M409.4,488.8l-13.3,5l4.7-5H409.4"/>
	</g>
	<g>
		<path d="M396.1,483.8l13.3,5h-8.7L396.1,483.8z"/>
		<path d="M409.4,488.8l-13.3,5l4.7-5H409.4z"/>
	</g>
	<g transform="translate(310.8914,457.1883)">
		<text transform="matrix(1 0 0 1 0 33)" class="st5 st13">A</text>
	</g>
	<g>
		<line class="st14" x1="617.4" y1="40.8" x2="352.8" y2="486"/>
		<path class="st15" d="M359.5,484.5l-11.1,8.9l4.4-7.5L359.5,484.5"/>
		<path class="st15" d="M348.4,493.4l2.5-14l1.9,6.6L348.4,493.4"/>
	</g>
	<g>
		<path d="M359.5,484.5l-11.1,8.9l4.4-7.5L359.5,484.5z"/>
		<path d="M348.4,493.4l2.5-14l1.9,6.6L348.4,493.4z"/>
	</g>
</g>
</svg>
