<?xml version="1.0" encoding="utf-8"?>
<!-- Generator: Adobe Illustrator 21.1.0, SVG Export Plug-In . SVG Version: 6.00 Build 0)  -->
<svg version="1.1" id="Layer_1" xmlns="http://www.w3.org/2000/svg" xmlns:xlink="http://www.w3.org/1999/xlink" x="0px" y="0px"
	 viewBox="0 0 731 555" style="enable-background:new 0 0 731 555;" xml:space="preserve">
<style type="text/css">
	.st0{clip-path:url(#SVGID_2_);fill:#FFFFFF;}
	.st1{fill:#FFFFFF;}
	.st2{fill:none;stroke:#262626;stroke-width:0.6667;stroke-linecap:square;stroke-linejoin:round;stroke-miterlimit:10;}
	.st3{fill:#262626;}
	.st4{font-family:'MyriadPro-Regular';}
	.st5{font-size:24px;}
	.st6{font-size:25px;}
	.st7{font-size:20px;}
	.st8{fill:none;stroke:#FF0000;stroke-width:4;stroke-linejoin:round;stroke-miterlimit:10;}
	.st9{fill:none;stroke:#0000FF;stroke-width:4;stroke-linejoin:round;stroke-miterlimit:10;}
	.st10{fill:none;stroke:#FF9943;stroke-width:4;stroke-linejoin:round;stroke-miterlimit:10;}
	.st11{fill:none;stroke:#00FF00;stroke-width:4;stroke-linejoin:round;stroke-miterlimit:10;}
	.st12{fill:none;stroke:#FF9943;stroke-width:0.6667;stroke-linejoin:round;stroke-miterlimit:10;}
	.st13{fill:#FF9943;}
	.st14{fill:none;stroke:#FF0000;stroke-width:0.6667;stroke-linejoin:round;stroke-miterlimit:10;}
	.st15{fill:#FF0000;}
	.st16{fill:none;stroke:#00FF00;stroke-width:0.6667;stroke-linejoin:round;stroke-miterlimit:10;}
	.st17{fill:#00FF00;}
	.st18{font-size:32px;}
	.st19{fill:none;stroke:#0000FF;stroke-width:0.6667;stroke-linejoin:round;stroke-miterlimit:10;}
	.st20{fill:#0000FF;}
</style>
<g>
	<g>
		<g>
			<defs>
				<rect id="SVGID_1_" y="0" width="731" height="555"/>
			</defs>
			<clipPath id="SVGID_2_">
				<use xlink:href="#SVGID_1_"  style="overflow:visible;"/>
			</clipPath>
			<rect y="0" class="st0" width="731" height="555"/>
		</g>
	</g>
	<g>
		<rect y="0" class="st1" width="731" height="555"/>
		<path class="st1" d="M96,472h566V49H96V472z"/>
	</g>
	<g>
		<line class="st2" x1="96" y1="472" x2="662" y2="472"/>
		<line class="st2" x1="155.6" y1="472" x2="155.6" y2="466.3"/>
		<line class="st2" x1="230.1" y1="472" x2="230.1" y2="466.3"/>
		<line class="st2" x1="304.5" y1="472" x2="304.5" y2="466.3"/>
		<line class="st2" x1="379" y1="472" x2="379" y2="466.3"/>
		<line class="st2" x1="453.5" y1="472" x2="453.5" y2="466.3"/>
		<line class="st2" x1="527.9" y1="472" x2="527.9" y2="466.3"/>
		<line class="st2" x1="602.4" y1="472" x2="602.4" y2="466.3"/>
	</g>
	<g transform="translate(155.5789,479.4666)">
		<text transform="matrix(1 0 0 1 -21 25)" class="st3 st4 st5">-1.5</text>
	</g>
	<g transform="translate(230.0526,479.4666)">
		<text transform="matrix(1 0 0 1 -11 25)" class="st3 st4 st5">-1</text>
	</g>
	<g transform="translate(304.5263,479.4666)">
		<text transform="matrix(1 0 0 1 -21 25)" class="st3 st4 st5">-0.5</text>
	</g>
	<g transform="translate(379,479.4666)">
		<text transform="matrix(1 0 0 1 -7 25)" class="st3 st4 st5">0</text>
	</g>
	<g transform="translate(453.4737,479.4666)">
		<text transform="matrix(1 0 0 1 -17 25)" class="st3 st4 st5">0.5</text>
	</g>
	<g transform="translate(527.9474,479.4666)">
		<text transform="matrix(1 0 0 1 -7 25)" class="st3 st4 st5">1</text>
	</g>
	<g transform="translate(602.4211,479.4666)">
		<text transform="matrix(1 0 0 1 -17 25)" class="st3 st4 st5">1.5</text>
	</g>
	<g transform="translate(366,538)">
		<text transform="matrix(1 0 0 1 0 -1.464844e-05)" class="st3 st4 st6">q</text>
	</g>
	<g transform="translate(380,550)">
		<text transform="matrix(1 0 0 1 0 -1.464844e-05)" class="st3 st4 st7">1</text>
	</g>
	<g>
		<line class="st2" x1="96" y1="472" x2="96" y2="49"/>
		<line class="st2" x1="96" y1="472" x2="101.7" y2="472"/>
		<line class="st2" x1="96" y1="260.5" x2="101.7" y2="260.5"/>
		<line class="st2" x1="96" y1="49" x2="101.7" y2="49"/>
	</g>
	<g transform="translate(88.5333,472)">
		<text transform="matrix(1 0 0 1 -42 9.5)" class="st3 st4 st5">-0.5</text>
	</g>
	<g transform="translate(88.5333,260.5)">
		<text transform="matrix(1 0 0 1 -14 9.5)" class="st3 st4 st5">0</text>
	</g>
	<g transform="translate(88.5333,49)">
		<text transform="matrix(1 0 0 1 -34 9.5)" class="st3 st4 st5">0.5</text>
	</g>
	<g transform="translate(26,273) rotate(-90)">
		<text transform="matrix(1 0 0 1 -3.515625e-04 0)" class="st3 st4 st6">p</text>
	</g>
	<g transform="translate(38,259) rotate(-90)">
		<text transform="matrix(1 0 0 1 -3.515625e-04 0)" class="st3 st4 st7">1</text>
	</g>
	<g transform="translate(356,27)">
		<text transform="matrix(1 0 0 1 0 -1.464844e-05)" class="st4 st6">S</text>
	</g>
	<g transform="translate(373,39)">
		<text transform="matrix(1 0 0 1 0 -1.464844e-05)" class="st4 st7">1,4</text>
	</g>
	<g>
		<path class="st8" d="M662,79.8v2.7v2.7v2.7v2.7v2.8v2.8V99v2.9v2.9v2.9v2.9v3v3v3v3v3v3.1v3.1v3.1v3.1v3.2v3.2v3.2v3.2v3.2v3.3
			v3.3v3.3v3.3v3.3v3.4v3.4v3.4v3.4v3.4v3.4v3.5v3.5v3.5v3.5v3.5v3.5v3.5v3.5v3.5v3.6v3.6v3.6v3.6v3.6v3.6v3.6v3.6v3.6v3.6v3.6v3.6
			v3.6v3.6v3.6v3.6v3.6v3.6v3.6v3.6v3.6v3.5v3.5v3.5v3.5v3.5v3.5v3.5v3.5v3.5v3.4v3.4v3.4v3.4v3.4v3.4v3.3v3.3v3.3v3.3v3.3v3.3v3.2
			v3.2v3.2v3.2v3.1v3.1v3.1v3.1v3.1v3v3v3v3"/>
		<path class="st9" d="M96,441.2l1.5-0.1l1.5-0.1l1.5-0.1l1.5-0.1l1.5-0.1l1.5-0.1l1.5-0.1l1.5-0.1l1.5-0.1l1.5-0.1l1.5-0.1l1.5-0.1
			l1.5-0.1l1.5-0.1l1.5-0.1l1.5-0.1l1.5-0.1l1.5-0.1l1.5-0.1l1.5-0.1l1.5-0.1l1.5-0.1l1.5-0.1l1.5-0.1l1.5-0.1l1.5-0.1l1.5-0.1
			l1.5-0.1l1.5-0.1l1.5-0.1l1.5-0.1l1.5-0.1l1.5-0.1l1.5-0.1l1.5-0.1l1.5-0.1l1.5-0.1l1.5-0.1l1.5-0.1l1.5-0.1l1.5-0.1l1.5-0.1
			l1.5-0.1l1.5-0.1l1.5-0.1l1.5-0.1l1.5-0.1l1.5-0.1l1.5-0.1l1.5-0.1l1.5-0.1l1.5-0.1l1.5-0.1l1.5-0.1l1.5-0.1l1.5-0.1l1.5-0.1
			l1.5-0.1l1.5-0.1l1.5-0.1l1.5-0.1l1.5-0.1l1.5-0.1l1.5-0.1l1.5-0.1l1.5-0.1l1.5-0.1l1.5-0.1l1.5-0.1l1.5-0.1l1.5-0.1l1.5-0.1
			l1.5-0.1l1.5-0.1l1.5-0.1l1.5-0.1l1.5-0.1l1.5-0.1l1.5-0.1l1.5-0.1l1.5-0.1l1.5-0.1l1.5-0.1l1.5-0.1l1.5-0.1l1.5-0.1l1.5-0.1
			l1.5-0.1l1.5-0.1l1.5-0.1l1.5-0.1l1.5-0.1l1.5-0.1l1.5-0.1l1.5-0.1l1.5-0.1l1.5-0.1l1.5-0.1l1.5-0.1l1.5-0.1l1.5-0.1l1.5-0.1
			l1.5-0.1l1.5-0.1l1.5-0.1l1.5-0.1l1.5-0.1l1.5-0.1l1.5-0.1l1.5-0.1l1.5-0.1l1.5-0.1l1.5-0.1l1.5-0.1l1.5-0.1l1.5-0.1l1.5-0.1
			l1.5-0.1l1.5-0.1l1.5-0.1l1.5-0.1l1.5-0.1l1.5-0.1l1.5-0.1l1.5-0.1l1.5-0.1l1.5-0.1l1.5-0.1l1.5-0.1l1.5-0.1l1.5-0.1l1.5-0.1
			l1.5-0.1l1.5-0.1l1.5-0.1l1.5-0.1l1.5-0.1l1.5-0.1l1.5-0.1l1.5-0.1l1.5-0.1l1.5-0.1l1.5-0.1l1.5-0.1l1.5-0.1l1.5-0.1l1.5-0.1
			l1.5-0.1l1.5-0.1l1.5-0.1l1.5-0.1l1.5-0.1l1.5-0.1l1.5-0.1l1.5-0.1l1.5-0.1l1.5-0.1l1.5-0.1l1.5-0.1l1.5-0.1l1.5-0.1l1.5-0.1
			l1.5-0.1l1.5-0.1l1.5-0.1l1.5-0.1l1.5-0.1l1.5-0.1l1.5-0.1l1.5-0.1l1.5-0.1l1.5-0.1l1.5-0.1l1.5-0.1l1.5-0.1l1.5-0.1l1.5-0.1
			l1.5-0.1l1.5-0.1l1.5-0.1l1.5-0.1l1.5-0.1l1.5-0.1l1.5-0.1l1.5-0.1l1.5-0.1l1.5-0.1l1.5-0.1l1.5-0.1l1.5-0.1l1.5-0.1l1.5-0.1
			l1.5-0.1l1.5-0.1l1.5-0.1l1.5-0.1l1.5-0.1l1.5-0.1l1.5-0.1l1.5-0.1l1.5-0.1l1.5-0.1l1.5-0.1l1.5-0.1l1.5-0.1l1.5-0.1l1.5-0.1
			l1.5-0.1l1.5-0.1l1.5-0.1l1.5-0.1l1.5-0.1l1.5-0.1l1.5-0.1l1.5-0.1l1.5-0.1l1.5-0.1l1.5-0.1l1.5-0.1l1.5-0.1l1.5-0.1l1.5-0.1
			l1.5-0.1l1.5-0.1l1.5-0.1l1.5-0.1l1.5-0.1l1.5-0.1l1.5-0.1l1.5-0.1l1.5-0.1l1.5-0.1l1.5-0.1l1.5-0.1l1.5-0.1l1.5-0.1l1.5-0.1
			l1.5-0.1l1.5-0.1l1.5-0.1l1.5-0.1l1.5-0.1l1.5-0.1l1.5-0.1l1.5-0.1l1.5-0.1l1.5-0.1l1.5-0.1l1.5-0.1l1.5-0.1l1.5-0.1l1.5-0.1
			l1.5-0.1l1.5-0.1l1.5-0.1l1.5-0.1l1.5-0.1l1.5-0.1l1.5-0.1l1.5-0.1l1.5-0.1l1.5-0.1l1.5-0.1l1.5-0.1l1.5-0.1l1.5-0.1l1.5-0.1
			l1.5-0.1l1.5-0.1l1.5-0.1l1.5-0.1l1.5-0.1l1.5-0.1l1.5-0.1l1.5-0.1l1.5-0.1l1.5-0.1l1.5-0.1l1.5-0.1l1.5-0.1l1.5-0.1l1.5-0.1
			l1.5-0.1l1.5-0.1l1.5-0.1l1.5-0.1l1.5-0.1l1.5-0.1l1.5-0.1l1.5-0.1l1.5-0.1l1.5-0.1l1.5-0.1l1.5-0.1l1.5-0.1l1.5-0.1l1.5-0.1
			l1.5-0.1l1.5-0.1l1.5-0.1l1.5-0.1l1.5-0.1l1.5-0.1l1.5-0.1l1.5-0.1l1.5-0.1l1.5-0.1l1.5-0.1l1.5-0.1l1.5-0.1l1.5-0.1l1.5-0.1
			l1.5-0.1l1.5-0.1l1.5-0.1l1.5-0.1l1.5-0.1l1.5-0.1l1.5-0.1l1.5-0.1l1.5-0.1l1.5-0.1l1.5-0.1l1.5-0.1l1.5-0.1l1.5-0.1l1.5-0.1
			l1.5-0.1l1.5-0.1l1.5-0.1l1.5-0.1l1.5-0.1l1.5-0.1l1.5-0.1l1.5-0.1l1.5-0.1l1.5-0.1l1.5-0.1l1.5-0.1l1.5-0.1l1.5-0.1l1.5-0.1
			l1.5-0.1l1.5-0.1l1.5-0.1l1.5-0.1l1.5-0.1l1.5-0.1l1.5-0.1l1.5-0.1l1.5-0.1l1.5-0.1l1.5-0.1l1.5-0.1l1.5-0.1l1.5-0.1l1.5-0.1
			l1.5-0.1l1.5-0.1l1.5-0.1l1.5-0.1l1.5-0.1l1.5-0.1l1.5-0.1l1.5-0.1l1.5-0.1l1.5-0.1l1.5-0.1l1.5-0.1l1.5-0.1l1.5-0.1l1.5-0.1
			l1.5-0.1l1.5-0.1l1.5-0.1l1.5-0.1l1.5-0.1l1.5-0.1l1.5-0.1l1.5-0.1"/>
		<path class="st10" d="M96,111.1v3v3v3v3v3.1v3.1v3.1v3.1v3.1v3.2v3.2v3.2v3.2v3.3v3.3v3.3v3.3v3.3v3.3v3.4v3.4v3.4v3.4v3.4v3.4
			v3.5v3.5v3.5v3.5v3.5v3.5v3.5v3.5v3.5v3.6v3.6v3.6v3.6v3.6v3.6v3.6v3.6v3.6v3.6v3.6v3.6v3.6v3.6v3.6v3.6v3.6v3.6v3.6v3.6v3.6v3.5
			v3.5v3.5v3.5v3.5v3.5v3.5v3.5v3.5v3.4v3.4v3.4v3.4v3.4v3.4v3.3v3.3v3.3v3.3v3.3v3.2v3.2v3.2v3.2v3.2v3.1v3.1v3.1v3.1v3v3v3v3v3
			v2.9v2.9v2.9v2.9v2.8v2.8v2.8v2.7v2.7v2.7v2.7"/>
		<path class="st11" d="M96,111.1l14.9-0.9l14.9-0.9l14.9-0.9l14.9-0.9l14.9-0.9l14.9-0.9l14.9-0.9l14.9-0.8l14.9-0.8l14.9-0.8
			l14.9-0.8l14.9-0.8l14.9-0.8l14.9-0.8l14.9-0.8l14.9-0.8l14.9-0.8l14.9-0.8L379,95l14.9-0.8l14.9-0.8l14.9-0.8l14.9-0.8l14.9-0.8
			l14.9-0.8l14.9-0.8l14.9-0.8l14.9-0.8l14.9-0.8l14.9-0.8l14.9-0.8l14.9-0.8l14.9-0.8l14.9-0.8l14.9-0.8l14.9-0.8l14.9-0.8
			l14.9-0.8"/>
		<line class="st12" x1="95.2" y1="228.9" x2="95.2" y2="222.2"/>
		<path class="st12" d="M105.2,212.8l-10,26.7v-17.3L105.2,212.8"/>
		<path class="st12" d="M95.2,239.5l-10-26.7l10,9.3V239.5"/>
	</g>
	<g>
		<path class="st13" d="M105.2,212.8l-10,26.7v-17.3L105.2,212.8z"/>
		<path class="st13" d="M95.2,239.5l-10-26.7l10,9.3V239.5z"/>
	</g>
	<g>
		<line class="st14" x1="661.3" y1="235" x2="661.3" y2="226.1"/>
		<path class="st14" d="M651.3,235.5l10-26.7v17.3L651.3,235.5"/>
		<path class="st14" d="M661.3,208.8l10,26.7l-10-9.3V208.8"/>
	</g>
	<g>
		<path class="st15" d="M651.3,235.5l10-26.7v17.3L651.3,235.5z"/>
		<path class="st15" d="M661.3,208.8l10,26.7l-10-9.3V208.8z"/>
	</g>
	<g>
		<line class="st16" x1="332.4" y1="95.2" x2="328.4" y2="95.6"/>
		<path class="st16" d="M338.5,104.8l-27.4-7.7l17.3-1.5L338.5,104.8"/>
		<path class="st16" d="M311.1,97.1l25.7-12.3l-8.4,10.8L311.1,97.1"/>
	</g>
	<g>
		<path class="st17" d="M338.5,104.8l-27.4-7.7l17.3-1.5L338.5,104.8z"/>
		<path class="st17" d="M311.1,97.1l25.7-12.3l-8.4,10.8L311.1,97.1z"/>
	</g>
	<g transform="translate(107.9102,236.5714)">
		<text transform="matrix(1 0 0 1 0 33)" class="st13 st4 st18">c</text>
	</g>
	<g>
		<line class="st19" x1="409.6" y1="425" x2="440" y2="422.3"/>
		<path class="st19" d="M429.8,413.2l27.4,7.6l-17.3,1.5L429.8,413.2"/>
		<path class="st19" d="M457.3,420.8l-25.7,12.3l8.4-10.8L457.3,420.8"/>
	</g>
	<g>
		<path class="st20" d="M429.8,413.2l27.4,7.6l-17.3,1.5L429.8,413.2z"/>
		<path class="st20" d="M457.3,420.8l-25.7,12.3l8.4-10.8L457.3,420.8z"/>
	</g>
	<g transform="translate(355.9306,387.5576)">
		<text transform="matrix(1 0 0 1 0 33)" class="st20 st4 st18">d</text>
	</g>
	<g transform="translate(639.6421,260.0496)">
		<text transform="matrix(1 0 0 1 0 33)" class="st15 st4 st18">e</text>
	</g>
	<g transform="translate(347.3649,98.3764)">
		<text transform="matrix(1 0 0 1 0 33)" class="st17 st4 st18">f</text>
	</g>
</g>
</svg>
