<?xml version="1.0" encoding="utf-8"?>
<!-- Generator: Adobe Illustrator 21.1.0, SVG Export Plug-In . SVG Version: 6.00 Build 0)  -->
<svg version="1.1" id="Layer_1" xmlns="http://www.w3.org/2000/svg" xmlns:xlink="http://www.w3.org/1999/xlink" x="0px" y="0px"
	 viewBox="0 0 731 577" style="enable-background:new 0 0 731 577;" xml:space="preserve">
<style type="text/css">
	.st0{clip-path:url(#SVGID_2_);fill:#FFFFFF;}
	.st1{fill:#FFFFFF;}
	.st2{fill:none;stroke:#262626;stroke-width:0.6667;stroke-linejoin:round;stroke-miterlimit:10;}
	.st3{fill:none;stroke:#262626;stroke-width:0.6667;stroke-linecap:square;stroke-linejoin:round;stroke-miterlimit:10;}
	.st4{fill:#262626;}
	.st5{font-family:'MyriadPro-Regular';}
	.st6{font-size:35px;}
	.st7{font-size:37px;}
	.st8{font-size:29px;}
	.st9{fill:none;stroke:#FF0000;stroke-width:1.6;stroke-linejoin:round;stroke-miterlimit:10;}
	.st10{fill:none;stroke:#FF0000;stroke-width:1.6;stroke-linecap:round;stroke-linejoin:round;stroke-miterlimit:10;}
	.st11{fill:none;stroke:#FF0000;stroke-width:0.6667;stroke-linejoin:round;stroke-miterlimit:10;}
	.st12{fill:none;stroke:#FF0000;stroke-width:0.6667;stroke-linecap:round;stroke-linejoin:round;stroke-miterlimit:10;}
	.st13{fill:none;stroke:#FF0000;stroke-width:1.3333;stroke-linejoin:round;stroke-miterlimit:10;}
	.st14{fill:none;stroke:#FF0000;stroke-width:1.3333;stroke-linecap:round;stroke-linejoin:round;stroke-miterlimit:10;}
	.st15{fill:none;stroke:#0000FF;stroke-linejoin:round;stroke-miterlimit:10;}
	.st16{fill:none;stroke:#0000FF;stroke-linecap:round;stroke-linejoin:round;stroke-miterlimit:10;}
	.st17{fill:none;stroke:#FF00FF;stroke-width:2.6667;stroke-linejoin:round;stroke-miterlimit:10;}
	.st18{fill:none;stroke:#FF00FF;stroke-width:2.6667;stroke-linecap:round;stroke-linejoin:round;stroke-miterlimit:10;}
	.st19{fill:none;stroke:#0000FF;stroke-width:2.6667;stroke-linejoin:round;stroke-miterlimit:10;}
	.st20{fill:none;stroke:#0000FF;stroke-width:2.6667;stroke-linecap:round;stroke-linejoin:round;stroke-miterlimit:10;}
	.st21{fill:none;stroke:#000000;stroke-width:1.3333;stroke-linejoin:bevel;stroke-miterlimit:1;stroke-dasharray:10,6;}
	.st22{fill:none;stroke:#000000;stroke-width:1.3333;stroke-linejoin:round;stroke-miterlimit:10;}
	.st23{fill:none;stroke:#0000FF;stroke-width:0.6667;stroke-linejoin:round;stroke-miterlimit:10;}
	.st24{fill:#0000FF;}
	.st25{fill:#FF00FF;}
	.st26{fill:none;stroke:#FF00FF;stroke-width:0.6667;stroke-linejoin:round;stroke-miterlimit:10;}
</style>
<g>
	<g>
		<g>
			<defs>
				<rect id="SVGID_1_" y="0" width="731" height="577"/>
			</defs>
			<clipPath id="SVGID_2_">
				<use xlink:href="#SVGID_1_"  style="overflow:visible;"/>
			</clipPath>
			<rect y="0" class="st0" width="731" height="577"/>
		</g>
	</g>
	<g>
		<rect y="0" class="st1" width="731" height="577"/>
		<path class="st1" d="M95,514h567V43H95V514z"/>
	</g>
	<g>
		<line class="st2" x1="95" y1="514" x2="662" y2="514"/>
		<line class="st2" x1="95" y1="43" x2="662" y2="43"/>
		<line class="st3" x1="170.6" y1="514" x2="170.6" y2="508.3"/>
		<line class="st3" x1="359.6" y1="514" x2="359.6" y2="508.3"/>
		<line class="st3" x1="548.6" y1="514" x2="548.6" y2="508.3"/>
		<line class="st3" x1="170.6" y1="43" x2="170.6" y2="48.7"/>
		<line class="st3" x1="359.6" y1="43" x2="359.6" y2="48.7"/>
		<line class="st3" x1="548.6" y1="43" x2="548.6" y2="48.7"/>
	</g>
	<g transform="translate(170.6,523.6)">
		<text transform="matrix(1 0 0 1 -25.5 36)" class="st4 st5 st6">-15</text>
	</g>
	<g transform="translate(359.6,523.6)">
		<text transform="matrix(1 0 0 1 -25.5 36)" class="st4 st5 st6">-10</text>
	</g>
	<g transform="translate(548.6,523.6)">
		<text transform="matrix(1 0 0 1 -16 36)" class="st4 st5 st6">-5</text>
	</g>
	<g transform="translate(315,570)">
		<text transform="matrix(1 0 0 1 30 16)" class="st4 st5 st7">q</text>
	</g>
	<g transform="translate(336,588)">
		<text transform="matrix(1 0 0 1 30 16)" class="st4 st5 st8">t,2</text>
	</g>
	<g>
		<line class="st2" x1="95" y1="514" x2="95" y2="43"/>
		<line class="st2" x1="662" y1="514" x2="662" y2="43"/>
		<line class="st3" x1="95" y1="514" x2="100.7" y2="514"/>
		<line class="st3" x1="95" y1="396.3" x2="100.7" y2="396.3"/>
		<line class="st3" x1="95" y1="278.5" x2="100.7" y2="278.5"/>
		<line class="st3" x1="95" y1="160.7" x2="100.7" y2="160.7"/>
		<line class="st3" x1="95" y1="43" x2="100.7" y2="43"/>
		<line class="st3" x1="662" y1="514" x2="656.3" y2="514"/>
		<line class="st3" x1="662" y1="396.3" x2="656.3" y2="396.3"/>
		<line class="st3" x1="662" y1="278.5" x2="656.3" y2="278.5"/>
		<line class="st3" x1="662" y1="160.7" x2="656.3" y2="160.7"/>
		<line class="st3" x1="662" y1="43" x2="656.3" y2="43"/>
	</g>
	<g transform="translate(85.4,514)">
		<text transform="matrix(1 0 0 1 -32 14)" class="st4 st5 st6">-1</text>
	</g>
	<g transform="translate(85.4,396.25)">
		<text transform="matrix(1 0 0 1 -61 14)" class="st4 st5 st6">-0.5</text>
	</g>
	<g transform="translate(85.4,278.5)">
		<text transform="matrix(1 0 0 1 -20 14)" class="st4 st5 st6">0</text>
	</g>
	<g transform="translate(85.4,160.75)">
		<text transform="matrix(1 0 0 1 -49 14)" class="st4 st5 st6">0.5</text>
	</g>
	<g transform="translate(85.4,43)">
		<text transform="matrix(1 0 0 1 -20 14)" class="st4 st5 st6">1</text>
	</g>
	<g transform="translate(39,300) rotate(-90)">
		<text transform="matrix(1 0 0 1 -3.515625e-04 0)" class="st4 st5 st7">p</text>
	</g>
	<g transform="translate(57,279) rotate(-90)">
		<text transform="matrix(1 0 0 1 -3.515625e-04 0)" class="st4 st5 st8">t,2</text>
	</g>
	<g transform="translate(352,19)">
		<text transform="matrix(1 0 0 1 0 -4)" class="st5 st7">T</text>
	</g>
	<g transform="translate(375,37)">
		<text transform="matrix(1 0 0 1 0 -4)" class="st5 st8">2</text>
	</g>
	<g>
		<line class="st9" x1="95" y1="195.8" x2="106.3" y2="201.1"/>
		<line class="st10" x1="106.3" y1="201.1" x2="117.7" y2="206.5"/>
		<line class="st10" x1="117.7" y1="206.5" x2="129" y2="212"/>
		<line class="st10" x1="129" y1="212" x2="140.4" y2="217.6"/>
		<line class="st10" x1="140.4" y1="217.6" x2="151.7" y2="223.4"/>
		<line class="st10" x1="151.7" y1="223.4" x2="163" y2="229.2"/>
		<line class="st10" x1="163" y1="229.2" x2="174.4" y2="235.2"/>
		<line class="st10" x1="174.4" y1="235.2" x2="185.7" y2="241.2"/>
		<line class="st10" x1="185.7" y1="241.2" x2="197.1" y2="247.3"/>
		<line class="st10" x1="197.1" y1="247.3" x2="208.4" y2="253.5"/>
		<line class="st10" x1="208.4" y1="253.5" x2="219.7" y2="259.8"/>
		<line class="st10" x1="219.7" y1="259.8" x2="231.1" y2="266"/>
		<line class="st10" x1="231.1" y1="266" x2="242.4" y2="272.4"/>
		<line class="st10" x1="242.4" y1="272.4" x2="253.8" y2="278.7"/>
		<line class="st10" x1="253.8" y1="278.7" x2="265.1" y2="285"/>
		<line class="st10" x1="265.1" y1="285" x2="276.4" y2="291.3"/>
		<line class="st10" x1="276.4" y1="291.3" x2="287.8" y2="297.6"/>
		<line class="st10" x1="287.8" y1="297.6" x2="299.1" y2="303.8"/>
		<line class="st10" x1="299.1" y1="303.8" x2="310.5" y2="310"/>
		<line class="st10" x1="310.5" y1="310" x2="321.8" y2="316.1"/>
		<line class="st10" x1="321.8" y1="316.1" x2="333.1" y2="322.1"/>
		<line class="st10" x1="333.1" y1="322.1" x2="344.5" y2="328.1"/>
		<line class="st10" x1="344.5" y1="328.1" x2="355.8" y2="334"/>
		<line class="st10" x1="355.8" y1="334" x2="367.2" y2="339.7"/>
		<line class="st10" x1="367.2" y1="339.7" x2="378.5" y2="345.3"/>
		<line class="st10" x1="378.5" y1="345.3" x2="389.8" y2="350.8"/>
		<line class="st10" x1="389.8" y1="350.8" x2="401.2" y2="356.2"/>
		<line class="st10" x1="401.2" y1="356.2" x2="412.5" y2="361.5"/>
		<line class="st10" x1="412.5" y1="361.5" x2="423.9" y2="366.6"/>
		<line class="st10" x1="423.9" y1="366.6" x2="435.2" y2="371.6"/>
		<line class="st10" x1="435.2" y1="371.6" x2="446.5" y2="376.4"/>
		<line class="st10" x1="446.5" y1="376.4" x2="457.9" y2="381.1"/>
		<line class="st10" x1="457.9" y1="381.1" x2="469.2" y2="385.6"/>
		<line class="st10" x1="469.2" y1="385.6" x2="480.6" y2="390"/>
		<line class="st10" x1="480.6" y1="390" x2="491.9" y2="394.2"/>
		<line class="st10" x1="491.9" y1="394.2" x2="503.2" y2="398.3"/>
		<line class="st10" x1="503.2" y1="398.3" x2="514.6" y2="402.3"/>
		<line class="st10" x1="514.6" y1="402.3" x2="525.9" y2="406.1"/>
		<line class="st10" x1="525.9" y1="406.1" x2="537.3" y2="409.8"/>
		<line class="st10" x1="537.3" y1="409.8" x2="548.6" y2="413.4"/>
		<line class="st10" x1="548.6" y1="413.4" x2="559.9" y2="416.8"/>
		<line class="st10" x1="559.9" y1="416.8" x2="571.3" y2="420.1"/>
		<line class="st10" x1="571.3" y1="420.1" x2="582.6" y2="423.2"/>
		<line class="st10" x1="582.6" y1="423.2" x2="594" y2="426.3"/>
		<line class="st10" x1="594" y1="426.3" x2="605.3" y2="429.2"/>
		<line class="st10" x1="605.3" y1="429.2" x2="616.6" y2="432"/>
		<line class="st10" x1="616.6" y1="432" x2="628" y2="434.7"/>
		<line class="st10" x1="628" y1="434.7" x2="639.3" y2="437.3"/>
		<line class="st10" x1="639.3" y1="437.3" x2="650.7" y2="439.8"/>
		<line class="st9" x1="650.7" y1="439.8" x2="662" y2="442.2"/>
		<line class="st9" x1="662" y1="195.8" x2="662" y2="442.2"/>
		<line class="st11" x1="95" y1="43.8" x2="106.3" y2="43.9"/>
		<line class="st12" x1="106.3" y1="43.9" x2="117.7" y2="43.9"/>
		<line class="st12" x1="117.7" y1="43.9" x2="129" y2="44"/>
		<line class="st12" x1="129" y1="44" x2="140.4" y2="44"/>
		<line class="st12" x1="140.4" y1="44" x2="151.7" y2="44"/>
		<line class="st12" x1="151.7" y1="44" x2="163" y2="44.1"/>
		<line class="st12" x1="163" y1="44.1" x2="174.4" y2="44.1"/>
		<line class="st12" x1="174.4" y1="44.1" x2="185.7" y2="44.2"/>
		<line class="st12" x1="185.7" y1="44.2" x2="197.1" y2="44.2"/>
		<line class="st12" x1="197.1" y1="44.2" x2="208.4" y2="44.3"/>
		<line class="st12" x1="208.4" y1="44.3" x2="219.7" y2="44.4"/>
		<line class="st12" x1="219.7" y1="44.4" x2="231.1" y2="44.4"/>
		<line class="st12" x1="231.1" y1="44.4" x2="242.4" y2="44.5"/>
		<line class="st12" x1="242.4" y1="44.5" x2="253.8" y2="44.6"/>
		<line class="st12" x1="253.8" y1="44.6" x2="265.1" y2="44.7"/>
		<line class="st12" x1="265.1" y1="44.7" x2="276.4" y2="44.8"/>
		<line class="st12" x1="276.4" y1="44.8" x2="287.8" y2="44.9"/>
		<line class="st12" x1="287.8" y1="44.9" x2="299.1" y2="45"/>
		<line class="st12" x1="299.1" y1="45" x2="310.5" y2="45.1"/>
		<line class="st12" x1="310.5" y1="45.1" x2="321.8" y2="45.2"/>
		<line class="st12" x1="321.8" y1="45.2" x2="333.1" y2="45.4"/>
		<line class="st12" x1="333.1" y1="45.4" x2="344.5" y2="45.5"/>
		<line class="st12" x1="344.5" y1="45.5" x2="355.8" y2="45.7"/>
		<line class="st12" x1="355.8" y1="45.7" x2="367.2" y2="45.9"/>
		<line class="st12" x1="367.2" y1="45.9" x2="378.5" y2="46.1"/>
		<line class="st12" x1="378.5" y1="46.1" x2="389.8" y2="46.4"/>
		<line class="st12" x1="389.8" y1="46.4" x2="401.2" y2="46.6"/>
		<line class="st12" x1="401.2" y1="46.6" x2="412.5" y2="46.9"/>
		<line class="st12" x1="412.5" y1="46.9" x2="423.9" y2="47.3"/>
		<line class="st12" x1="423.9" y1="47.3" x2="435.2" y2="47.7"/>
		<line class="st12" x1="435.2" y1="47.7" x2="446.5" y2="48.1"/>
		<line class="st12" x1="446.5" y1="48.1" x2="457.9" y2="48.7"/>
		<line class="st12" x1="457.9" y1="48.7" x2="469.2" y2="49.3"/>
		<line class="st12" x1="469.2" y1="49.3" x2="480.6" y2="49.9"/>
		<line class="st12" x1="480.6" y1="49.9" x2="491.9" y2="50.8"/>
		<line class="st12" x1="491.9" y1="50.8" x2="503.2" y2="51.7"/>
		<line class="st12" x1="503.2" y1="51.7" x2="514.6" y2="52.9"/>
		<line class="st12" x1="514.6" y1="52.9" x2="525.9" y2="54.3"/>
		<line class="st12" x1="525.9" y1="54.3" x2="537.3" y2="56"/>
		<line class="st12" x1="537.3" y1="56" x2="548.6" y2="58.1"/>
		<line class="st12" x1="548.6" y1="58.1" x2="559.9" y2="60.7"/>
		<line class="st12" x1="559.9" y1="60.7" x2="571.3" y2="64.1"/>
		<line class="st12" x1="571.3" y1="64.1" x2="582.6" y2="68.5"/>
		<line class="st12" x1="582.6" y1="68.5" x2="594" y2="74.2"/>
		<line class="st12" x1="594" y1="74.2" x2="605.3" y2="81.9"/>
		<line class="st12" x1="605.3" y1="81.9" x2="616.6" y2="92.5"/>
		<line class="st12" x1="616.6" y1="92.5" x2="628" y2="107.2"/>
		<line class="st12" x1="628" y1="107.2" x2="639.3" y2="128"/>
		<line class="st12" x1="639.3" y1="128" x2="650.7" y2="156.9"/>
		<line class="st11" x1="650.7" y1="156.9" x2="662" y2="195.8"/>
		<line class="st9" x1="95" y1="43.8" x2="95" y2="195.8"/>
		<line class="st13" x1="95" y1="43.8" x2="106.3" y2="43.9"/>
		<line class="st14" x1="106.3" y1="43.9" x2="117.7" y2="43.9"/>
		<line class="st14" x1="117.7" y1="43.9" x2="129" y2="44"/>
		<line class="st14" x1="129" y1="44" x2="140.4" y2="44"/>
		<line class="st14" x1="140.4" y1="44" x2="151.7" y2="44"/>
		<line class="st14" x1="151.7" y1="44" x2="163" y2="44.1"/>
		<line class="st14" x1="163" y1="44.1" x2="174.4" y2="44.1"/>
		<line class="st14" x1="174.4" y1="44.1" x2="185.7" y2="44.2"/>
		<line class="st14" x1="185.7" y1="44.2" x2="197.1" y2="44.2"/>
		<line class="st14" x1="197.1" y1="44.2" x2="208.4" y2="44.3"/>
		<line class="st14" x1="208.4" y1="44.3" x2="219.7" y2="44.4"/>
		<line class="st14" x1="219.7" y1="44.4" x2="231.1" y2="44.4"/>
		<line class="st14" x1="231.1" y1="44.4" x2="242.4" y2="44.5"/>
		<line class="st14" x1="242.4" y1="44.5" x2="253.8" y2="44.6"/>
		<line class="st14" x1="253.8" y1="44.6" x2="265.1" y2="44.7"/>
		<line class="st14" x1="265.1" y1="44.7" x2="276.4" y2="44.8"/>
		<line class="st14" x1="276.4" y1="44.8" x2="287.8" y2="44.9"/>
		<line class="st14" x1="287.8" y1="44.9" x2="299.1" y2="45"/>
		<line class="st14" x1="299.1" y1="45" x2="310.5" y2="45.1"/>
		<line class="st14" x1="310.5" y1="45.1" x2="321.8" y2="45.2"/>
		<line class="st14" x1="321.8" y1="45.2" x2="333.1" y2="45.4"/>
		<line class="st14" x1="333.1" y1="45.4" x2="344.5" y2="45.5"/>
		<line class="st14" x1="344.5" y1="45.5" x2="355.8" y2="45.7"/>
		<line class="st14" x1="355.8" y1="45.7" x2="367.2" y2="45.9"/>
		<line class="st14" x1="367.2" y1="45.9" x2="378.5" y2="46.1"/>
		<line class="st14" x1="378.5" y1="46.1" x2="389.8" y2="46.4"/>
		<line class="st14" x1="389.8" y1="46.4" x2="401.2" y2="46.6"/>
		<line class="st14" x1="401.2" y1="46.6" x2="412.5" y2="46.9"/>
		<line class="st14" x1="412.5" y1="46.9" x2="423.9" y2="47.3"/>
		<line class="st14" x1="423.9" y1="47.3" x2="435.2" y2="47.7"/>
		<line class="st14" x1="435.2" y1="47.7" x2="446.5" y2="48.1"/>
		<line class="st14" x1="446.5" y1="48.1" x2="457.9" y2="48.7"/>
		<line class="st14" x1="457.9" y1="48.7" x2="469.2" y2="49.3"/>
		<line class="st14" x1="469.2" y1="49.3" x2="480.6" y2="49.9"/>
		<line class="st14" x1="480.6" y1="49.9" x2="491.9" y2="50.8"/>
		<line class="st14" x1="491.9" y1="50.8" x2="503.2" y2="51.7"/>
		<line class="st14" x1="503.2" y1="51.7" x2="514.6" y2="52.9"/>
		<line class="st14" x1="514.6" y1="52.9" x2="525.9" y2="54.3"/>
		<line class="st14" x1="525.9" y1="54.3" x2="537.3" y2="56"/>
		<line class="st14" x1="537.3" y1="56" x2="548.6" y2="58.1"/>
		<line class="st14" x1="548.6" y1="58.1" x2="559.9" y2="60.7"/>
		<line class="st14" x1="559.9" y1="60.7" x2="571.3" y2="64.1"/>
		<line class="st14" x1="571.3" y1="64.1" x2="582.6" y2="68.5"/>
		<line class="st14" x1="582.6" y1="68.5" x2="594" y2="74.2"/>
		<line class="st14" x1="594" y1="74.2" x2="605.3" y2="81.9"/>
		<line class="st14" x1="605.3" y1="81.9" x2="616.6" y2="92.5"/>
		<line class="st14" x1="616.6" y1="92.5" x2="628" y2="107.2"/>
		<line class="st14" x1="628" y1="107.2" x2="639.3" y2="128"/>
		<line class="st14" x1="639.3" y1="128" x2="650.7" y2="156.9"/>
		<line class="st13" x1="650.7" y1="156.9" x2="662" y2="195.8"/>
		<line class="st11" x1="95" y1="43" x2="106.3" y2="43"/>
		<line class="st12" x1="106.3" y1="43" x2="117.7" y2="43"/>
		<line class="st12" x1="117.7" y1="43" x2="129" y2="43"/>
		<line class="st12" x1="129" y1="43" x2="140.4" y2="43"/>
		<line class="st12" x1="140.4" y1="43" x2="151.7" y2="43"/>
		<line class="st12" x1="151.7" y1="43" x2="163" y2="43"/>
		<line class="st12" x1="163" y1="43" x2="174.4" y2="43"/>
		<line class="st12" x1="174.4" y1="43" x2="185.7" y2="43"/>
		<line class="st12" x1="185.7" y1="43" x2="197.1" y2="43"/>
		<line class="st12" x1="197.1" y1="43" x2="208.4" y2="43"/>
		<line class="st12" x1="208.4" y1="43" x2="219.7" y2="43"/>
		<line class="st12" x1="219.7" y1="43" x2="231.1" y2="43"/>
		<line class="st12" x1="231.1" y1="43" x2="242.4" y2="43"/>
		<line class="st12" x1="242.4" y1="43" x2="253.8" y2="43"/>
		<line class="st12" x1="253.8" y1="43" x2="265.1" y2="43"/>
		<line class="st12" x1="265.1" y1="43" x2="276.4" y2="43"/>
		<line class="st12" x1="276.4" y1="43" x2="287.8" y2="43"/>
		<line class="st12" x1="287.8" y1="43" x2="299.1" y2="43"/>
		<line class="st12" x1="299.1" y1="43" x2="310.5" y2="43"/>
		<line class="st12" x1="310.5" y1="43" x2="321.8" y2="43"/>
		<line class="st12" x1="321.8" y1="43" x2="333.1" y2="43"/>
		<line class="st12" x1="333.1" y1="43" x2="344.5" y2="43"/>
		<line class="st12" x1="344.5" y1="43" x2="355.8" y2="43"/>
		<line class="st12" x1="355.8" y1="43" x2="367.2" y2="43"/>
		<line class="st12" x1="367.2" y1="43" x2="378.5" y2="43"/>
		<line class="st12" x1="378.5" y1="43" x2="389.8" y2="43"/>
		<line class="st12" x1="389.8" y1="43" x2="401.2" y2="43"/>
		<line class="st12" x1="401.2" y1="43" x2="412.5" y2="43"/>
		<line class="st12" x1="412.5" y1="43" x2="423.9" y2="43"/>
		<line class="st12" x1="423.9" y1="43" x2="435.2" y2="43"/>
		<line class="st12" x1="435.2" y1="43" x2="446.5" y2="43"/>
		<line class="st12" x1="446.5" y1="43" x2="457.9" y2="43"/>
		<line class="st12" x1="457.9" y1="43" x2="469.2" y2="43"/>
		<line class="st12" x1="469.2" y1="43" x2="480.6" y2="43"/>
		<line class="st12" x1="480.6" y1="43" x2="491.9" y2="43"/>
		<line class="st12" x1="491.9" y1="43" x2="503.2" y2="43"/>
		<line class="st12" x1="503.2" y1="43" x2="514.6" y2="43"/>
		<line class="st12" x1="514.6" y1="43" x2="525.9" y2="43"/>
		<line class="st12" x1="525.9" y1="43" x2="537.3" y2="43"/>
		<line class="st12" x1="537.3" y1="43" x2="548.6" y2="43"/>
		<line class="st12" x1="548.6" y1="43" x2="559.9" y2="43"/>
		<line class="st12" x1="559.9" y1="43" x2="571.3" y2="43"/>
		<line class="st12" x1="571.3" y1="43" x2="582.6" y2="43"/>
		<line class="st12" x1="582.6" y1="43" x2="594" y2="43"/>
		<line class="st12" x1="594" y1="43" x2="605.3" y2="43"/>
		<line class="st12" x1="605.3" y1="43" x2="616.6" y2="43"/>
		<line class="st12" x1="616.6" y1="43" x2="628" y2="43"/>
		<line class="st12" x1="628" y1="43" x2="639.3" y2="43"/>
		<line class="st11" x1="639.3" y1="43" x2="650.7" y2="43"/>
		<line class="st11" x1="95" y1="43" x2="95" y2="43.8"/>
		<line class="st9" x1="662" y1="43" x2="662" y2="195.8"/>
		<line class="st9" x1="95" y1="43" x2="662" y2="43"/>
		<line class="st15" x1="99.5" y1="78.5" x2="98.7" y2="76.1"/>
	</g>
	<g>
		<line class="st16" x1="98.7" y1="76.1" x2="96.7" y2="74.7"/>
		<line class="st16" x1="96.7" y1="74.7" x2="94.3" y2="74.7"/>
		<line class="st16" x1="94.3" y1="74.7" x2="92.3" y2="76.1"/>
		<line class="st16" x1="92.3" y1="76.1" x2="91.5" y2="78.5"/>
		<line class="st16" x1="91.5" y1="78.5" x2="92.3" y2="80.9"/>
		<line class="st16" x1="92.3" y1="80.9" x2="94.3" y2="82.3"/>
		<line class="st16" x1="94.3" y1="82.3" x2="96.7" y2="82.3"/>
		<line class="st16" x1="96.7" y1="82.3" x2="98.7" y2="80.9"/>
		<line class="st15" x1="98.7" y1="80.9" x2="99.5" y2="78.5"/>
		<line class="st15" x1="666.5" y1="78.5" x2="665.7" y2="76.1"/>
		<line class="st16" x1="665.7" y1="76.1" x2="663.7" y2="74.7"/>
		<line class="st16" x1="663.7" y1="74.7" x2="661.3" y2="74.7"/>
		<line class="st16" x1="661.3" y1="74.7" x2="659.3" y2="76.1"/>
		<line class="st16" x1="659.3" y1="76.1" x2="658.5" y2="78.5"/>
		<line class="st16" x1="658.5" y1="78.5" x2="659.3" y2="80.9"/>
		<line class="st16" x1="659.3" y1="80.9" x2="661.3" y2="82.3"/>
		<line class="st16" x1="661.3" y1="82.3" x2="663.7" y2="82.3"/>
		<line class="st16" x1="663.7" y1="82.3" x2="665.7" y2="80.9"/>
		<line class="st15" x1="665.7" y1="80.9" x2="666.5" y2="78.5"/>
	</g>
	<g>
		<line class="st17" x1="597" y1="78.5" x2="606" y2="78.5"/>
		<line class="st18" x1="601.5" y1="83" x2="601.5" y2="74"/>
		<line class="st18" x1="598" y1="82" x2="605" y2="75"/>
		<line class="st17" x1="598" y1="75" x2="605" y2="82"/>
		<line class="st17" x1="658" y1="78.5" x2="667" y2="78.5"/>
		<line class="st18" x1="662.5" y1="83" x2="662.5" y2="74"/>
		<line class="st18" x1="659" y1="82" x2="666" y2="75"/>
		<line class="st17" x1="659" y1="75" x2="666" y2="82"/>
		<line class="st19" x1="99.5" y1="78.5" x2="98.7" y2="76.1"/>
		<line class="st20" x1="98.7" y1="76.1" x2="96.7" y2="74.7"/>
		<line class="st20" x1="96.7" y1="74.7" x2="94.3" y2="74.7"/>
		<line class="st20" x1="94.3" y1="74.7" x2="92.3" y2="76.1"/>
		<line class="st20" x1="92.3" y1="76.1" x2="91.5" y2="78.5"/>
		<line class="st20" x1="91.5" y1="78.5" x2="92.3" y2="80.9"/>
		<line class="st20" x1="92.3" y1="80.9" x2="94.3" y2="82.3"/>
		<line class="st20" x1="94.3" y1="82.3" x2="96.7" y2="82.3"/>
		<line class="st20" x1="96.7" y1="82.3" x2="98.7" y2="80.9"/>
		<line class="st19" x1="98.7" y1="80.9" x2="99.5" y2="78.5"/>
		<line class="st19" x1="666.5" y1="78.5" x2="665.7" y2="76.1"/>
		<line class="st20" x1="665.7" y1="76.1" x2="663.7" y2="74.7"/>
		<line class="st20" x1="663.7" y1="74.7" x2="661.3" y2="74.7"/>
		<line class="st20" x1="661.3" y1="74.7" x2="659.3" y2="76.1"/>
		<line class="st20" x1="659.3" y1="76.1" x2="658.5" y2="78.5"/>
		<line class="st20" x1="658.5" y1="78.5" x2="659.3" y2="80.9"/>
		<line class="st20" x1="659.3" y1="80.9" x2="661.3" y2="82.3"/>
		<line class="st20" x1="661.3" y1="82.3" x2="663.7" y2="82.3"/>
		<line class="st20" x1="663.7" y1="82.3" x2="665.7" y2="80.9"/>
		<line class="st19" x1="665.7" y1="80.9" x2="666.5" y2="78.5"/>
	</g>
	<g>
		<line class="st21" x1="96.1" y1="79.3" x2="597.8" y2="79.3"/>
		<line class="st22" x1="603.1" y1="79.3" x2="661.4" y2="79.3"/>
	</g>
	<g transform="translate(367,228)">
		<text transform="matrix(1 0 0 1 0 -1.464844e-05)" class="st5 st7">T</text>
	</g>
	<g transform="translate(390,246)">
		<text transform="matrix(1 0 0 1 0 -1.464844e-05)" class="st5 st8">2,3</text>
	</g>
	<g>
		<line class="st23" x1="106.1" y1="97.5" x2="101.6" y2="90"/>
		<path class="st23" d="M99.7,96.6l-2.6-14l4.5,7.4L99.7,96.6"/>
		<path class="st23" d="M97.1,82.6l11.2,8.8l-6.7-1.4L97.1,82.6"/>
	</g>
	<g>
		<path class="st24" d="M99.7,96.6l-2.6-14l4.5,7.4L99.7,96.6z"/>
		<path class="st24" d="M97.1,82.6l11.2,8.8l-6.7-1.4L97.1,82.6z"/>
	</g>
	<g transform="translate(105,133)">
		<text transform="matrix(1 0 0 1 0 -1.464844e-05)" class="st24 st5 st7">q</text>
	</g>
	<g transform="translate(126,151)">
		<text transform="matrix(1 0 0 1 0 -1.464844e-05)" class="st24 st5 st8">t,2</text>
	</g>
	<g transform="translate(126,115)">
		<text transform="matrix(1 0 0 1 0 -1.464844e-05)" class="st24 st5 st8">min</text>
	</g>
	<g transform="translate(477,138)">
		<text transform="matrix(1 0 0 1 0 -1.464844e-05)" class="st25 st5 st7">u</text>
	</g>
	<g transform="translate(498,156)">
		<text transform="matrix(1 0 0 1 0 -1.464844e-05)" class="st25 st5 st8">2,1</text>
	</g>
	<g transform="translate(498,120)">
		<text transform="matrix(1 0 0 1 0 -1.464844e-05)" class="st25 st5 st8">min</text>
	</g>
	<g transform="translate(545,138)">
		<text transform="matrix(1 0 0 1 0 -1.464844e-05)" class="st25 st5 st7"> = v</text>
	</g>
	<g transform="translate(606,156)">
		<text transform="matrix(1 0 0 1 0 -1.464844e-05)" class="st25 st5 st8">2,1</text>
	</g>
	<g transform="translate(606,120)">
		<text transform="matrix(1 0 0 1 0 -1.464844e-05)" class="st25 st5 st8">min</text>
	</g>
	<g>
		<line class="st26" x1="573.5" y1="97.5" x2="589.1" y2="87.3"/>
		<path class="st26" d="M582.5,85.7l13.9-3.1l-7.3,4.7L582.5,85.7"/>
		<path class="st26" d="M596.4,82.6l-8.5,11.5l1.2-6.7L596.4,82.6"/>
	</g>
	<g>
		<path class="st25" d="M582.5,85.7l13.9-3.1l-7.3,4.7L582.5,85.7z"/>
		<path class="st25" d="M596.4,82.6l-8.5,11.5l1.2-6.7L596.4,82.6z"/>
	</g>
	<g>
		<line class="st26" x1="677.2" y1="60" x2="669.8" y2="68.4"/>
		<path class="st26" d="M676.7,68.2l-12.6,6.7l5.7-6.5L676.7,68.2"/>
		<path class="st26" d="M664.1,74.9l5.1-13.3l0.7,6.8L664.1,74.9"/>
	</g>
	<g>
		<path class="st25" d="M676.7,68.2l-12.6,6.7l5.7-6.5L676.7,68.2z"/>
		<path class="st25" d="M664.1,74.9l5.1-13.3l0.7,6.8L664.1,74.9z"/>
	</g>
	<g transform="translate(596,76)">
		<text transform="matrix(1 0 0 1 0 -1.464844e-05)" class="st5 st7">T</text>
	</g>
	<g transform="translate(619,94)">
		<text transform="matrix(1 0 0 1 0 -1.464844e-05)" class="st5 st8">2,1</text>
	</g>
	<g transform="translate(670,70)">
		<text transform="matrix(1 0 0 1 0 -1.464844e-05)" class="st25 st5 st7">u</text>
	</g>
	<g transform="translate(691,88)">
		<text transform="matrix(1 0 0 1 0 -1.464844e-05)" class="st25 st5 st8">2,1</text>
	</g>
	<g transform="translate(691,52)">
		<text transform="matrix(1 0 0 1 0 -1.464844e-05)" class="st25 st5 st8">max</text>
	</g>
	<g transform="translate(670,133)">
		<text transform="matrix(1 0 0 1 0 -1.464844e-05)" class="st25 st5 st7">=</text>
	</g>
	<g transform="translate(670,190)">
		<text transform="matrix(1 0 0 1 0 -1.464844e-05)" class="st25 st5 st7">v</text>
	</g>
	<g transform="translate(689,208)">
		<text transform="matrix(1 0 0 1 0 -1.464844e-05)" class="st25 st5 st8">2,1</text>
	</g>
	<g transform="translate(689,172)">
		<text transform="matrix(1 0 0 1 0 -1.464844e-05)" class="st25 st5 st8">max</text>
	</g>
	<g transform="translate(670,253)">
		<text transform="matrix(1 0 0 1 0 -1.464844e-05)" class="st25 st5 st7">= </text>
	</g>
	<g transform="translate(669,238)">
		<text transform="matrix(1 0 0 1 0 48)" class="st24 st5 st7">q</text>
	</g>
	<g transform="translate(690,256)">
		<text transform="matrix(1 0 0 1 0 48)" class="st24 st5 st8">t,2</text>
	</g>
	<g transform="translate(690,220)">
		<text transform="matrix(1 0 0 1 0 48)" class="st24 st5 st8">max</text>
	</g>
</g>
</svg>
