<?xml version="1.0" encoding="utf-8"?>
<!-- Generator: Adobe Illustrator 21.1.0, SVG Export Plug-In . SVG Version: 6.00 Build 0)  -->
<svg version="1.1" id="Layer_1" xmlns="http://www.w3.org/2000/svg" xmlns:xlink="http://www.w3.org/1999/xlink" x="0px" y="0px"
	 viewBox="0 0 735 555" style="enable-background:new 0 0 735 555;" xml:space="preserve">
<style type="text/css">
	.st0{clip-path:url(#SVGID_2_);fill:#FFFFFF;}
	.st1{fill:#FFFFFF;}
	.st2{fill:none;stroke:#262626;stroke-width:0.6667;stroke-linejoin:round;stroke-miterlimit:10;}
	.st3{fill:none;stroke:#262626;stroke-width:0.6667;stroke-linecap:square;stroke-linejoin:round;stroke-miterlimit:10;}
	.st4{fill:#262626;}
	.st5{font-family:'MyriadPro-Regular';}
	.st6{font-size:35px;}
	.st7{font-size:37px;}
	.st8{font-size:29px;}
	.st9{fill:none;stroke:#FF0000;stroke-width:1.6;stroke-linejoin:round;stroke-miterlimit:10;}
	.st10{fill:none;stroke:#FF0000;stroke-width:1.6;stroke-linecap:round;stroke-linejoin:round;stroke-miterlimit:10;}
	.st11{fill:none;stroke:#FF0000;stroke-width:0.6667;stroke-linejoin:round;stroke-miterlimit:10;}
	.st12{fill:none;stroke:#FF0000;stroke-width:0.6667;stroke-linecap:round;stroke-linejoin:round;stroke-miterlimit:10;}
	.st13{fill:none;stroke:#FF0000;stroke-width:1.3333;stroke-linejoin:round;stroke-miterlimit:10;}
	.st14{fill:none;stroke:#FF0000;stroke-width:1.3333;stroke-linecap:round;stroke-linejoin:round;stroke-miterlimit:10;}
	.st15{fill:none;stroke:#0000FF;stroke-linejoin:round;stroke-miterlimit:10;}
	.st16{fill:none;stroke:#0000FF;stroke-linecap:round;stroke-linejoin:round;stroke-miterlimit:10;}
	.st17{fill:none;stroke:#FF00FF;stroke-width:2.6667;stroke-linejoin:round;stroke-miterlimit:10;}
	.st18{fill:none;stroke:#FF00FF;stroke-width:2.6667;stroke-linecap:round;stroke-linejoin:round;stroke-miterlimit:10;}
	.st19{fill:none;stroke:#0000FF;stroke-width:2.6667;stroke-linejoin:round;stroke-miterlimit:10;}
	.st20{fill:none;stroke:#0000FF;stroke-width:2.6667;stroke-linecap:round;stroke-linejoin:round;stroke-miterlimit:10;}
	.st21{fill:none;stroke:#000000;stroke-width:1.3333;stroke-linejoin:bevel;stroke-miterlimit:1;stroke-dasharray:10,6;}
	.st22{fill:none;stroke:#000000;stroke-width:1.3333;stroke-linejoin:round;stroke-miterlimit:10;}
	.st23{fill:#0000FF;}
	.st24{fill:none;stroke:#0000FF;stroke-width:1.3333;stroke-linejoin:round;stroke-miterlimit:10;}
	.st25{fill:none;stroke:#0000FF;stroke-width:0.6667;stroke-linejoin:round;stroke-miterlimit:10;}
	.st26{fill:#FF00FF;}
	.st27{fill:none;stroke:#FF00FF;stroke-width:1.3333;stroke-linejoin:round;stroke-miterlimit:10;}
	.st28{fill:none;stroke:#FF00FF;stroke-width:0.6667;stroke-linejoin:round;stroke-miterlimit:10;}
</style>
<g>
	<g>
		<g>
			<defs>
				<rect id="SVGID_1_" y="0" width="735" height="555"/>
			</defs>
			<clipPath id="SVGID_2_">
				<use xlink:href="#SVGID_1_"  style="overflow:visible;"/>
			</clipPath>
			<rect y="0" class="st0" width="735" height="555"/>
		</g>
	</g>
	<g>
		<rect y="0" class="st1" width="735" height="555"/>
		<path class="st1" d="M96,494h569V42H96V494z"/>
	</g>
	<g>
		<line class="st2" x1="96" y1="494" x2="665" y2="494"/>
		<line class="st2" x1="96" y1="42" x2="665" y2="42"/>
		<line class="st3" x1="171.9" y1="494" x2="171.9" y2="488.3"/>
		<line class="st3" x1="361.5" y1="494" x2="361.5" y2="488.3"/>
		<line class="st3" x1="551.2" y1="494" x2="551.2" y2="488.3"/>
		<line class="st3" x1="171.9" y1="42" x2="171.9" y2="47.7"/>
		<line class="st3" x1="361.5" y1="42" x2="361.5" y2="47.7"/>
		<line class="st3" x1="551.2" y1="42" x2="551.2" y2="47.7"/>
	</g>
	<g transform="translate(171.8667,503.6)">
		<text transform="matrix(1 0 0 1 -25.5 36)" class="st4 st5 st6">-15</text>
	</g>
	<g transform="translate(361.5333,503.6)">
		<text transform="matrix(1 0 0 1 -25.5 36)" class="st4 st5 st6">-10</text>
	</g>
	<g transform="translate(551.2,503.6)">
		<text transform="matrix(1 0 0 1 -16 36)" class="st4 st5 st6">-5</text>
	</g>
	<g transform="translate(358,566)">
		<text transform="matrix(1 0 0 1 0 -1.464844e-05)" class="st4 st5 st7">q</text>
	</g>
	<g transform="translate(379,584)">
		<text transform="matrix(1 0 0 1 0 -1.464844e-05)" class="st4 st5 st8">t,2</text>
	</g>
	<g>
		<line class="st2" x1="96" y1="494" x2="96" y2="42"/>
		<line class="st2" x1="665" y1="494" x2="665" y2="42"/>
		<line class="st3" x1="96" y1="494" x2="101.7" y2="494"/>
		<line class="st3" x1="96" y1="381" x2="101.7" y2="381"/>
		<line class="st3" x1="96" y1="268" x2="101.7" y2="268"/>
		<line class="st3" x1="96" y1="155" x2="101.7" y2="155"/>
		<line class="st3" x1="96" y1="42" x2="101.7" y2="42"/>
		<line class="st3" x1="665" y1="494" x2="659.3" y2="494"/>
		<line class="st3" x1="665" y1="381" x2="659.3" y2="381"/>
		<line class="st3" x1="665" y1="268" x2="659.3" y2="268"/>
		<line class="st3" x1="665" y1="155" x2="659.3" y2="155"/>
		<line class="st3" x1="665" y1="42" x2="659.3" y2="42"/>
	</g>
	<g transform="translate(86.4,494)">
		<text transform="matrix(1 0 0 1 -32 14)" class="st4 st5 st6">-1</text>
	</g>
	<g transform="translate(86.4,381)">
		<text transform="matrix(1 0 0 1 -61 14)" class="st4 st5 st6">-0.5</text>
	</g>
	<g transform="translate(86.4,268)">
		<text transform="matrix(1 0 0 1 -20 14)" class="st4 st5 st6">0</text>
	</g>
	<g transform="translate(86.4,155)">
		<text transform="matrix(1 0 0 1 -49 14)" class="st4 st5 st6">0.5</text>
	</g>
	<g transform="translate(86.4,42)">
		<text transform="matrix(1 0 0 1 -20 14)" class="st4 st5 st6">1</text>
	</g>
	<g transform="translate(40,290) rotate(-90)">
		<text transform="matrix(1 0 0 1 -3.515625e-04 0)" class="st4 st5 st7">p</text>
	</g>
	<g transform="translate(58,269) rotate(-90)">
		<text transform="matrix(1 0 0 1 -3.515625e-04 0)" class="st4 st5 st8">t,2</text>
	</g>
	<g transform="translate(354,18)">
		<text transform="matrix(1 0 0 1 0 -1.464844e-05)" class="st5 st7">T</text>
	</g>
	<g transform="translate(377,36)">
		<text transform="matrix(1 0 0 1 0 -1.464844e-05)" class="st5 st8">2</text>
	</g>
	<g>
		<line class="st9" x1="96" y1="188.6" x2="107.4" y2="193.7"/>
		<line class="st10" x1="107.4" y1="193.7" x2="118.8" y2="198.9"/>
		<line class="st10" x1="118.8" y1="198.9" x2="130.1" y2="204.2"/>
		<line class="st10" x1="130.1" y1="204.2" x2="141.5" y2="209.6"/>
		<line class="st10" x1="141.5" y1="209.6" x2="152.9" y2="215.1"/>
		<line class="st10" x1="152.9" y1="215.1" x2="164.3" y2="220.7"/>
		<line class="st10" x1="164.3" y1="220.7" x2="175.7" y2="226.4"/>
		<line class="st10" x1="175.7" y1="226.4" x2="187" y2="232.2"/>
		<line class="st10" x1="187" y1="232.2" x2="198.4" y2="238.1"/>
		<line class="st10" x1="198.4" y1="238.1" x2="209.8" y2="244"/>
		<line class="st10" x1="209.8" y1="244" x2="221.2" y2="250"/>
		<line class="st10" x1="221.2" y1="250" x2="232.6" y2="256.1"/>
		<line class="st10" x1="232.6" y1="256.1" x2="243.9" y2="262.1"/>
		<line class="st10" x1="243.9" y1="262.1" x2="255.3" y2="268.2"/>
		<line class="st10" x1="255.3" y1="268.2" x2="266.7" y2="274.2"/>
		<line class="st10" x1="266.7" y1="274.2" x2="278.1" y2="280.3"/>
		<line class="st10" x1="278.1" y1="280.3" x2="289.5" y2="286.3"/>
		<line class="st10" x1="289.5" y1="286.3" x2="300.8" y2="292.3"/>
		<line class="st10" x1="300.8" y1="292.3" x2="312.2" y2="298.2"/>
		<line class="st10" x1="312.2" y1="298.2" x2="323.6" y2="304.1"/>
		<line class="st10" x1="323.6" y1="304.1" x2="335" y2="309.9"/>
		<line class="st10" x1="335" y1="309.9" x2="346.4" y2="315.6"/>
		<line class="st10" x1="346.4" y1="315.6" x2="357.7" y2="321.2"/>
		<line class="st10" x1="357.7" y1="321.2" x2="369.1" y2="326.7"/>
		<line class="st10" x1="369.1" y1="326.7" x2="380.5" y2="332.1"/>
		<line class="st10" x1="380.5" y1="332.1" x2="391.9" y2="337.4"/>
		<line class="st10" x1="391.9" y1="337.4" x2="403.3" y2="342.6"/>
		<line class="st10" x1="403.3" y1="342.6" x2="414.6" y2="347.6"/>
		<line class="st10" x1="414.6" y1="347.6" x2="426" y2="352.5"/>
		<line class="st10" x1="426" y1="352.5" x2="437.4" y2="357.3"/>
		<line class="st10" x1="437.4" y1="357.3" x2="448.8" y2="361.9"/>
		<line class="st10" x1="448.8" y1="361.9" x2="460.2" y2="366.4"/>
		<line class="st10" x1="460.2" y1="366.4" x2="471.5" y2="370.8"/>
		<line class="st10" x1="471.5" y1="370.8" x2="482.9" y2="375"/>
		<line class="st10" x1="482.9" y1="375" x2="494.3" y2="379.1"/>
		<line class="st10" x1="494.3" y1="379.1" x2="505.7" y2="383"/>
		<line class="st10" x1="505.7" y1="383" x2="517.1" y2="386.8"/>
		<line class="st10" x1="517.1" y1="386.8" x2="528.4" y2="390.5"/>
		<line class="st10" x1="528.4" y1="390.5" x2="539.8" y2="394"/>
		<line class="st10" x1="539.8" y1="394" x2="551.2" y2="397.4"/>
		<line class="st10" x1="551.2" y1="397.4" x2="562.6" y2="400.7"/>
		<line class="st10" x1="562.6" y1="400.7" x2="574" y2="403.9"/>
		<line class="st10" x1="574" y1="403.9" x2="585.3" y2="406.9"/>
		<line class="st10" x1="585.3" y1="406.9" x2="596.7" y2="409.8"/>
		<line class="st10" x1="596.7" y1="409.8" x2="608.1" y2="412.6"/>
		<line class="st10" x1="608.1" y1="412.6" x2="619.5" y2="415.3"/>
		<line class="st10" x1="619.5" y1="415.3" x2="630.9" y2="417.9"/>
		<line class="st10" x1="630.9" y1="417.9" x2="642.2" y2="420.4"/>
		<line class="st10" x1="642.2" y1="420.4" x2="653.6" y2="422.8"/>
		<line class="st9" x1="653.6" y1="422.8" x2="665" y2="425.1"/>
		<line class="st9" x1="665" y1="188.6" x2="665" y2="425.1"/>
		<line class="st11" x1="96" y1="42.8" x2="107.4" y2="42.8"/>
		<line class="st12" x1="107.4" y1="42.8" x2="118.8" y2="42.9"/>
		<line class="st12" x1="118.8" y1="42.9" x2="130.1" y2="42.9"/>
		<line class="st12" x1="130.1" y1="42.9" x2="141.5" y2="43"/>
		<line class="st12" x1="141.5" y1="43" x2="152.9" y2="43"/>
		<line class="st12" x1="152.9" y1="43" x2="164.3" y2="43"/>
		<line class="st12" x1="164.3" y1="43" x2="175.7" y2="43.1"/>
		<line class="st12" x1="175.7" y1="43.1" x2="187" y2="43.1"/>
		<line class="st12" x1="187" y1="43.1" x2="198.4" y2="43.2"/>
		<line class="st12" x1="198.4" y1="43.2" x2="209.8" y2="43.2"/>
		<line class="st12" x1="209.8" y1="43.2" x2="221.2" y2="43.3"/>
		<line class="st12" x1="221.2" y1="43.3" x2="232.6" y2="43.4"/>
		<line class="st12" x1="232.6" y1="43.4" x2="243.9" y2="43.4"/>
		<line class="st12" x1="243.9" y1="43.4" x2="255.3" y2="43.5"/>
		<line class="st12" x1="255.3" y1="43.5" x2="266.7" y2="43.6"/>
		<line class="st12" x1="266.7" y1="43.6" x2="278.1" y2="43.7"/>
		<line class="st12" x1="278.1" y1="43.7" x2="289.5" y2="43.8"/>
		<line class="st12" x1="289.5" y1="43.8" x2="300.8" y2="43.9"/>
		<line class="st12" x1="300.8" y1="43.9" x2="312.2" y2="44"/>
		<line class="st12" x1="312.2" y1="44" x2="323.6" y2="44.1"/>
		<line class="st12" x1="323.6" y1="44.1" x2="335" y2="44.3"/>
		<line class="st12" x1="335" y1="44.3" x2="346.4" y2="44.4"/>
		<line class="st12" x1="346.4" y1="44.4" x2="357.7" y2="44.6"/>
		<line class="st12" x1="357.7" y1="44.6" x2="369.1" y2="44.8"/>
		<line class="st12" x1="369.1" y1="44.8" x2="380.5" y2="45"/>
		<line class="st12" x1="380.5" y1="45" x2="391.9" y2="45.2"/>
		<line class="st12" x1="391.9" y1="45.2" x2="403.3" y2="45.5"/>
		<line class="st12" x1="403.3" y1="45.5" x2="414.6" y2="45.8"/>
		<line class="st12" x1="414.6" y1="45.8" x2="426" y2="46.1"/>
		<line class="st12" x1="426" y1="46.1" x2="437.4" y2="46.5"/>
		<line class="st12" x1="437.4" y1="46.5" x2="448.8" y2="46.9"/>
		<line class="st12" x1="448.8" y1="46.9" x2="460.2" y2="47.4"/>
		<line class="st12" x1="460.2" y1="47.4" x2="471.5" y2="48"/>
		<line class="st12" x1="471.5" y1="48" x2="482.9" y2="48.7"/>
		<line class="st12" x1="482.9" y1="48.7" x2="494.3" y2="49.5"/>
		<line class="st12" x1="494.3" y1="49.5" x2="505.7" y2="50.4"/>
		<line class="st12" x1="505.7" y1="50.4" x2="517.1" y2="51.5"/>
		<line class="st12" x1="517.1" y1="51.5" x2="528.4" y2="52.8"/>
		<line class="st12" x1="528.4" y1="52.8" x2="539.8" y2="54.5"/>
		<line class="st12" x1="539.8" y1="54.5" x2="551.2" y2="56.5"/>
		<line class="st12" x1="551.2" y1="56.5" x2="562.6" y2="59"/>
		<line class="st12" x1="562.6" y1="59" x2="574" y2="62.3"/>
		<line class="st12" x1="574" y1="62.3" x2="585.3" y2="66.4"/>
		<line class="st12" x1="585.3" y1="66.4" x2="596.7" y2="72"/>
		<line class="st12" x1="596.7" y1="72" x2="608.1" y2="79.4"/>
		<line class="st12" x1="608.1" y1="79.4" x2="619.5" y2="89.5"/>
		<line class="st12" x1="619.5" y1="89.5" x2="630.9" y2="103.7"/>
		<line class="st12" x1="630.9" y1="103.7" x2="642.2" y2="123.5"/>
		<line class="st12" x1="642.2" y1="123.5" x2="653.6" y2="151.3"/>
		<line class="st11" x1="653.6" y1="151.3" x2="665" y2="188.6"/>
		<line class="st9" x1="96" y1="42.8" x2="96" y2="188.6"/>
		<line class="st13" x1="96" y1="42.8" x2="107.4" y2="42.8"/>
		<line class="st14" x1="107.4" y1="42.8" x2="118.8" y2="42.9"/>
		<line class="st14" x1="118.8" y1="42.9" x2="130.1" y2="42.9"/>
		<line class="st14" x1="130.1" y1="42.9" x2="141.5" y2="43"/>
		<line class="st14" x1="141.5" y1="43" x2="152.9" y2="43"/>
		<line class="st14" x1="152.9" y1="43" x2="164.3" y2="43"/>
		<line class="st14" x1="164.3" y1="43" x2="175.7" y2="43.1"/>
		<line class="st14" x1="175.7" y1="43.1" x2="187" y2="43.1"/>
		<line class="st14" x1="187" y1="43.1" x2="198.4" y2="43.2"/>
		<line class="st14" x1="198.4" y1="43.2" x2="209.8" y2="43.2"/>
		<line class="st14" x1="209.8" y1="43.2" x2="221.2" y2="43.3"/>
		<line class="st14" x1="221.2" y1="43.3" x2="232.6" y2="43.4"/>
		<line class="st14" x1="232.6" y1="43.4" x2="243.9" y2="43.4"/>
		<line class="st14" x1="243.9" y1="43.4" x2="255.3" y2="43.5"/>
		<line class="st14" x1="255.3" y1="43.5" x2="266.7" y2="43.6"/>
		<line class="st14" x1="266.7" y1="43.6" x2="278.1" y2="43.7"/>
		<line class="st14" x1="278.1" y1="43.7" x2="289.5" y2="43.8"/>
		<line class="st14" x1="289.5" y1="43.8" x2="300.8" y2="43.9"/>
		<line class="st14" x1="300.8" y1="43.9" x2="312.2" y2="44"/>
		<line class="st14" x1="312.2" y1="44" x2="323.6" y2="44.1"/>
		<line class="st14" x1="323.6" y1="44.1" x2="335" y2="44.3"/>
		<line class="st14" x1="335" y1="44.3" x2="346.4" y2="44.4"/>
		<line class="st14" x1="346.4" y1="44.4" x2="357.7" y2="44.6"/>
		<line class="st14" x1="357.7" y1="44.6" x2="369.1" y2="44.8"/>
		<line class="st14" x1="369.1" y1="44.8" x2="380.5" y2="45"/>
		<line class="st14" x1="380.5" y1="45" x2="391.9" y2="45.2"/>
		<line class="st14" x1="391.9" y1="45.2" x2="403.3" y2="45.5"/>
		<line class="st14" x1="403.3" y1="45.5" x2="414.6" y2="45.8"/>
		<line class="st14" x1="414.6" y1="45.8" x2="426" y2="46.1"/>
		<line class="st14" x1="426" y1="46.1" x2="437.4" y2="46.5"/>
		<line class="st14" x1="437.4" y1="46.5" x2="448.8" y2="46.9"/>
		<line class="st14" x1="448.8" y1="46.9" x2="460.2" y2="47.4"/>
		<line class="st14" x1="460.2" y1="47.4" x2="471.5" y2="48"/>
		<line class="st14" x1="471.5" y1="48" x2="482.9" y2="48.7"/>
		<line class="st14" x1="482.9" y1="48.7" x2="494.3" y2="49.5"/>
		<line class="st14" x1="494.3" y1="49.5" x2="505.7" y2="50.4"/>
		<line class="st14" x1="505.7" y1="50.4" x2="517.1" y2="51.5"/>
		<line class="st14" x1="517.1" y1="51.5" x2="528.4" y2="52.8"/>
		<line class="st14" x1="528.4" y1="52.8" x2="539.8" y2="54.5"/>
		<line class="st14" x1="539.8" y1="54.5" x2="551.2" y2="56.5"/>
		<line class="st14" x1="551.2" y1="56.5" x2="562.6" y2="59"/>
		<line class="st14" x1="562.6" y1="59" x2="574" y2="62.3"/>
		<line class="st14" x1="574" y1="62.3" x2="585.3" y2="66.4"/>
		<line class="st14" x1="585.3" y1="66.4" x2="596.7" y2="72"/>
		<line class="st14" x1="596.7" y1="72" x2="608.1" y2="79.4"/>
		<line class="st14" x1="608.1" y1="79.4" x2="619.5" y2="89.5"/>
		<line class="st14" x1="619.5" y1="89.5" x2="630.9" y2="103.7"/>
		<line class="st14" x1="630.9" y1="103.7" x2="642.2" y2="123.5"/>
		<line class="st14" x1="642.2" y1="123.5" x2="653.6" y2="151.3"/>
		<line class="st13" x1="653.6" y1="151.3" x2="665" y2="188.6"/>
		<line class="st11" x1="96" y1="42" x2="107.4" y2="42"/>
		<line class="st12" x1="107.4" y1="42" x2="118.8" y2="42"/>
		<line class="st12" x1="118.8" y1="42" x2="130.1" y2="42"/>
		<line class="st12" x1="130.1" y1="42" x2="141.5" y2="42"/>
		<line class="st12" x1="141.5" y1="42" x2="152.9" y2="42"/>
		<line class="st12" x1="152.9" y1="42" x2="164.3" y2="42"/>
		<line class="st12" x1="164.3" y1="42" x2="175.7" y2="42"/>
		<line class="st12" x1="175.7" y1="42" x2="187" y2="42"/>
		<line class="st12" x1="187" y1="42" x2="198.4" y2="42"/>
		<line class="st12" x1="198.4" y1="42" x2="209.8" y2="42"/>
		<line class="st12" x1="209.8" y1="42" x2="221.2" y2="42"/>
		<line class="st12" x1="221.2" y1="42" x2="232.6" y2="42"/>
		<line class="st12" x1="232.6" y1="42" x2="243.9" y2="42"/>
		<line class="st12" x1="243.9" y1="42" x2="255.3" y2="42"/>
		<line class="st12" x1="255.3" y1="42" x2="266.7" y2="42"/>
		<line class="st12" x1="266.7" y1="42" x2="278.1" y2="42"/>
		<line class="st12" x1="278.1" y1="42" x2="289.5" y2="42"/>
		<line class="st12" x1="289.5" y1="42" x2="300.8" y2="42"/>
		<line class="st12" x1="300.8" y1="42" x2="312.2" y2="42"/>
		<line class="st12" x1="312.2" y1="42" x2="323.6" y2="42"/>
		<line class="st12" x1="323.6" y1="42" x2="335" y2="42"/>
		<line class="st12" x1="335" y1="42" x2="346.4" y2="42"/>
		<line class="st12" x1="346.4" y1="42" x2="357.7" y2="42"/>
		<line class="st12" x1="357.7" y1="42" x2="369.1" y2="42"/>
		<line class="st12" x1="369.1" y1="42" x2="380.5" y2="42"/>
		<line class="st12" x1="380.5" y1="42" x2="391.9" y2="42"/>
		<line class="st12" x1="391.9" y1="42" x2="403.3" y2="42"/>
		<line class="st12" x1="403.3" y1="42" x2="414.6" y2="42"/>
		<line class="st12" x1="414.6" y1="42" x2="426" y2="42"/>
		<line class="st12" x1="426" y1="42" x2="437.4" y2="42"/>
		<line class="st12" x1="437.4" y1="42" x2="448.8" y2="42"/>
		<line class="st12" x1="448.8" y1="42" x2="460.2" y2="42"/>
		<line class="st12" x1="460.2" y1="42" x2="471.5" y2="42"/>
		<line class="st12" x1="471.5" y1="42" x2="482.9" y2="42"/>
		<line class="st12" x1="482.9" y1="42" x2="494.3" y2="42"/>
		<line class="st12" x1="494.3" y1="42" x2="505.7" y2="42"/>
		<line class="st12" x1="505.7" y1="42" x2="517.1" y2="42"/>
		<line class="st12" x1="517.1" y1="42" x2="528.4" y2="42"/>
		<line class="st12" x1="528.4" y1="42" x2="539.8" y2="42"/>
		<line class="st12" x1="539.8" y1="42" x2="551.2" y2="42"/>
		<line class="st12" x1="551.2" y1="42" x2="562.6" y2="42"/>
		<line class="st12" x1="562.6" y1="42" x2="574" y2="42"/>
		<line class="st12" x1="574" y1="42" x2="585.3" y2="42"/>
		<line class="st12" x1="585.3" y1="42" x2="596.7" y2="42"/>
		<line class="st12" x1="596.7" y1="42" x2="608.1" y2="42"/>
		<line class="st12" x1="608.1" y1="42" x2="619.5" y2="42"/>
		<line class="st12" x1="619.5" y1="42" x2="630.9" y2="42"/>
		<line class="st12" x1="630.9" y1="42" x2="642.2" y2="42"/>
		<line class="st11" x1="642.2" y1="42" x2="653.6" y2="42"/>
		<line class="st11" x1="96" y1="42" x2="96" y2="42.8"/>
		<line class="st9" x1="665" y1="42" x2="665" y2="188.6"/>
		<line class="st9" x1="96" y1="42" x2="665" y2="42"/>
		<line class="st15" x1="100.5" y1="76.5" x2="99.7" y2="74.1"/>
	</g>
	<g>
		<line class="st16" x1="99.7" y1="74.1" x2="97.7" y2="72.7"/>
		<line class="st16" x1="97.7" y1="72.7" x2="95.3" y2="72.7"/>
		<line class="st16" x1="95.3" y1="72.7" x2="93.3" y2="74.1"/>
		<line class="st16" x1="93.3" y1="74.1" x2="92.5" y2="76.5"/>
		<line class="st16" x1="92.5" y1="76.5" x2="93.3" y2="78.9"/>
		<line class="st16" x1="93.3" y1="78.9" x2="95.3" y2="80.3"/>
		<line class="st16" x1="95.3" y1="80.3" x2="97.7" y2="80.3"/>
		<line class="st16" x1="97.7" y1="80.3" x2="99.7" y2="78.9"/>
		<line class="st15" x1="99.7" y1="78.9" x2="100.5" y2="76.5"/>
		<line class="st15" x1="669.5" y1="76.5" x2="668.7" y2="74.1"/>
		<line class="st16" x1="668.7" y1="74.1" x2="666.7" y2="72.7"/>
		<line class="st16" x1="666.7" y1="72.7" x2="664.3" y2="72.7"/>
		<line class="st16" x1="664.3" y1="72.7" x2="662.3" y2="74.1"/>
		<line class="st16" x1="662.3" y1="74.1" x2="661.5" y2="76.5"/>
		<line class="st16" x1="661.5" y1="76.5" x2="662.3" y2="78.9"/>
		<line class="st16" x1="662.3" y1="78.9" x2="664.3" y2="80.3"/>
		<line class="st16" x1="664.3" y1="80.3" x2="666.7" y2="80.3"/>
		<line class="st16" x1="666.7" y1="80.3" x2="668.7" y2="78.9"/>
		<line class="st15" x1="668.7" y1="78.9" x2="669.5" y2="76.5"/>
	</g>
	<g>
		<line class="st17" x1="600" y1="76.5" x2="609" y2="76.5"/>
		<line class="st18" x1="604.5" y1="81" x2="604.5" y2="72"/>
		<line class="st18" x1="601" y1="80" x2="608" y2="73"/>
		<line class="st17" x1="601" y1="73" x2="608" y2="80"/>
		<line class="st17" x1="661" y1="76.5" x2="670" y2="76.5"/>
		<line class="st18" x1="665.5" y1="81" x2="665.5" y2="72"/>
		<line class="st18" x1="662" y1="80" x2="669" y2="73"/>
		<line class="st17" x1="662" y1="73" x2="669" y2="80"/>
		<line class="st19" x1="100.5" y1="76.5" x2="99.7" y2="74.1"/>
		<line class="st20" x1="99.7" y1="74.1" x2="97.7" y2="72.7"/>
		<line class="st20" x1="97.7" y1="72.7" x2="95.3" y2="72.7"/>
		<line class="st20" x1="95.3" y1="72.7" x2="93.3" y2="74.1"/>
		<line class="st20" x1="93.3" y1="74.1" x2="92.5" y2="76.5"/>
		<line class="st20" x1="92.5" y1="76.5" x2="93.3" y2="78.9"/>
		<line class="st20" x1="93.3" y1="78.9" x2="95.3" y2="80.3"/>
		<line class="st20" x1="95.3" y1="80.3" x2="97.7" y2="80.3"/>
		<line class="st20" x1="97.7" y1="80.3" x2="99.7" y2="78.9"/>
		<line class="st19" x1="99.7" y1="78.9" x2="100.5" y2="76.5"/>
		<line class="st19" x1="669.5" y1="76.5" x2="668.7" y2="74.1"/>
		<line class="st20" x1="668.7" y1="74.1" x2="666.7" y2="72.7"/>
		<line class="st20" x1="666.7" y1="72.7" x2="664.3" y2="72.7"/>
		<line class="st20" x1="664.3" y1="72.7" x2="662.3" y2="74.1"/>
		<line class="st20" x1="662.3" y1="74.1" x2="661.5" y2="76.5"/>
		<line class="st20" x1="661.5" y1="76.5" x2="662.3" y2="78.9"/>
		<line class="st20" x1="662.3" y1="78.9" x2="664.3" y2="80.3"/>
		<line class="st20" x1="664.3" y1="80.3" x2="666.7" y2="80.3"/>
		<line class="st20" x1="666.7" y1="80.3" x2="668.7" y2="78.9"/>
		<line class="st19" x1="668.7" y1="78.9" x2="669.5" y2="76.5"/>
	</g>
	<g>
		<line class="st21" x1="96.6" y1="76.2" x2="601.1" y2="76.3"/>
		<line class="st22" x1="606.4" y1="76.3" x2="665" y2="76.3"/>
	</g>
	<g transform="translate(138,163)">
		<text transform="matrix(1 0 0 1 0 -1.464844e-05)" class="st23 st5 st7">q</text>
	</g>
	<g transform="translate(159,181)">
		<text transform="matrix(1 0 0 1 0 -1.464844e-05)" class="st23 st5 st8">t,2</text>
	</g>
	<g transform="translate(159,145)">
		<text transform="matrix(1 0 0 1 0 -1.464844e-05)" class="st23 st5 st8">min</text>
	</g>
	<g>
		<line class="st24" x1="137" y1="140" x2="102.3" y2="86.7"/>
		<path class="st25" d="M100.7,93.4l-3.1-13.9l4.7,7.3L100.7,93.4"/>
		<path class="st25" d="M97.6,79.5l11.5,8.4l-6.7-1.2L97.6,79.5"/>
	</g>
	<g>
		<path class="st23" d="M100.7,93.4l-3.1-13.9l4.7,7.3L100.7,93.4z"/>
		<path class="st23" d="M97.6,79.5l11.5,8.4l-6.7-1.2L97.6,79.5z"/>
	</g>
	<g transform="translate(333,200)">
		<text transform="matrix(1 0 0 1 0 -1.464844e-05)" class="st5 st7">T</text>
	</g>
	<g transform="translate(356,218)">
		<text transform="matrix(1 0 0 1 0 -1.464844e-05)" class="st5 st8">2,3</text>
	</g>
	<g transform="translate(342,301)">
		<text transform="matrix(1 0 0 1 0 -1.464844e-05)" class="st26 st5 st7">u</text>
	</g>
	<g transform="translate(363,319)">
		<text transform="matrix(1 0 0 1 0 -1.464844e-05)" class="st26 st5 st8">2,1</text>
	</g>
	<g transform="translate(363,283)">
		<text transform="matrix(1 0 0 1 0 -1.464844e-05)" class="st26 st5 st8">max</text>
	</g>
	<g transform="translate(418,301)">
		<text transform="matrix(1 0 0 1 0 -1.464844e-05)" class="st26 st5 st7"> = v</text>
	</g>
	<g transform="translate(479,319)">
		<text transform="matrix(1 0 0 1 0 -1.464844e-05)" class="st26 st5 st8">2,1</text>
	</g>
	<g transform="translate(479,283)">
		<text transform="matrix(1 0 0 1 0 -1.464844e-05)" class="st26 st5 st8">max</text>
	</g>
	<g transform="translate(534,301)">
		<text transform="matrix(1 0 0 1 0 -1.464844e-05)" class="st26 st5 st7"> =</text>
	</g>
	<g transform="translate(571,300)">
		<text transform="matrix(1 0 0 1 0 -1.464844e-05)" class="st23 st5 st7">q</text>
	</g>
	<g transform="translate(592,318)">
		<text transform="matrix(1 0 0 1 0 -1.464844e-05)" class="st23 st5 st8">t,2</text>
	</g>
	<g transform="translate(592,282)">
		<text transform="matrix(1 0 0 1 0 -1.464844e-05)" class="st23 st5 st8">max</text>
	</g>
	<g transform="translate(430,157)">
		<text transform="matrix(1 0 0 1 0 -1.464844e-05)" class="st26 st5 st7">u</text>
	</g>
	<g transform="translate(451,175)">
		<text transform="matrix(1 0 0 1 0 -1.464844e-05)" class="st26 st5 st8">2,1</text>
	</g>
	<g transform="translate(451,139)">
		<text transform="matrix(1 0 0 1 0 -1.464844e-05)" class="st26 st5 st8">min</text>
	</g>
	<g transform="translate(498,157)">
		<text transform="matrix(1 0 0 1 0 -1.464844e-05)" class="st26 st5 st7"> = v</text>
	</g>
	<g transform="translate(559,175)">
		<text transform="matrix(1 0 0 1 0 -1.464844e-05)" class="st26 st5 st8">2,1</text>
	</g>
	<g transform="translate(559,139)">
		<text transform="matrix(1 0 0 1 0 -1.464844e-05)" class="st26 st5 st8">min</text>
	</g>
	<g>
		<line class="st27" x1="527" y1="128" x2="591.5" y2="83.4"/>
		<path class="st28" d="M584.8,81.9l13.8-3.5l-7.1,4.9L584.8,81.9"/>
		<path class="st28" d="M598.6,78.5l-8.1,11.7l1-6.8L598.6,78.5"/>
	</g>
	<g>
		<path class="st26" d="M584.8,81.9l13.8-3.5l-7.1,4.9L584.8,81.9z"/>
		<path class="st26" d="M598.6,78.5l-8.1,11.7l1-6.8L598.6,78.5z"/>
	</g>
	<g>
		<line class="st27" x1="558" y1="272" x2="658.8" y2="90.6"/>
		<path class="st28" d="M652.2,92.2L663,83l-4.2,7.6L652.2,92.2"/>
		<path class="st28" d="M663,83l-2.1,14.1l-2.1-6.5L663,83"/>
	</g>
	<g>
		<path class="st26" d="M652.2,92.2L663,83l-4.2,7.6L652.2,92.2z"/>
		<path class="st26" d="M663,83l-2.1,14.1l-2.1-6.5L663,83z"/>
	</g>
	<g transform="translate(599,71)">
		<text transform="matrix(1 0 0 1 0 -1.464844e-05)" class="st5 st7">T</text>
	</g>
	<g transform="translate(622,89)">
		<text transform="matrix(1 0 0 1 0 -1.464844e-05)" class="st5 st8">2,1</text>
	</g>
</g>
</svg>
