<?xml version="1.0" encoding="utf-8"?>
<!-- Generator: Adobe Illustrator 21.1.0, SVG Export Plug-In . SVG Version: 6.00 Build 0)  -->
<svg version="1.1" id="Layer_1" xmlns="http://www.w3.org/2000/svg" xmlns:xlink="http://www.w3.org/1999/xlink" x="0px" y="0px"
	 viewBox="0 0 735 555" style="enable-background:new 0 0 735 555;" xml:space="preserve">
<style type="text/css">
	.st0{clip-path:url(#SVGID_2_);fill:#FFFFFF;}
	.st1{fill:#FFFFFF;}
	.st2{fill:none;stroke:#262626;stroke-width:0.6667;stroke-linejoin:round;stroke-miterlimit:10;}
	.st3{fill:none;stroke:#262626;stroke-width:0.6667;stroke-linecap:square;stroke-linejoin:round;stroke-miterlimit:10;}
	.st4{fill:#262626;}
	.st5{font-family:'MyriadPro-Regular';}
	.st6{font-size:35px;}
	.st7{font-size:37px;}
	.st8{font-size:29px;}
	.st9{fill:none;stroke:#FF0000;stroke-width:1.6;stroke-linejoin:round;stroke-miterlimit:10;}
	.st10{fill:none;stroke:#FF0000;stroke-width:1.6;stroke-linecap:round;stroke-linejoin:round;stroke-miterlimit:10;}
	.st11{fill:none;stroke:#FF0000;stroke-width:0.6667;stroke-linejoin:round;stroke-miterlimit:10;}
	.st12{fill:none;stroke:#FF0000;stroke-width:0.6667;stroke-linecap:round;stroke-linejoin:round;stroke-miterlimit:10;}
	.st13{fill:none;stroke:#0000FF;stroke-linejoin:round;stroke-miterlimit:10;}
	.st14{fill:none;stroke:#0000FF;stroke-linecap:round;stroke-linejoin:round;stroke-miterlimit:10;}
	.st15{fill:none;stroke:#000000;stroke-width:0.6667;stroke-linejoin:bevel;stroke-miterlimit:1;stroke-dasharray:10,6;}
	.st16{fill:none;stroke:#FF00FF;stroke-width:2.6667;stroke-linejoin:round;stroke-miterlimit:10;}
	.st17{fill:none;stroke:#FF00FF;stroke-width:2.6667;stroke-linecap:round;stroke-linejoin:round;stroke-miterlimit:10;}
	.st18{fill:none;stroke:#000000;stroke-width:1.3333;stroke-linejoin:round;stroke-miterlimit:10;}
	.st19{fill:none;stroke:#0000FF;stroke-width:2.6667;stroke-linejoin:round;stroke-miterlimit:10;}
	.st20{fill:none;stroke:#0000FF;stroke-width:2.6667;stroke-linecap:round;stroke-linejoin:round;stroke-miterlimit:10;}
	.st21{fill:#0000FF;}
	.st22{fill:#FF00FF;}
	.st23{fill:none;stroke:#FF00FF;stroke-width:1.3333;stroke-linejoin:round;stroke-miterlimit:10;}
	.st24{fill:none;stroke:#FF00FF;stroke-width:0.6667;stroke-linejoin:round;stroke-miterlimit:10;}
	.st25{fill:none;stroke:#0000FF;stroke-width:1.3333;stroke-linejoin:round;stroke-miterlimit:10;}
	.st26{fill:none;stroke:#0000FF;stroke-width:0.6667;stroke-linejoin:round;stroke-miterlimit:10;}
</style>
<g>
	<g>
		<g>
			<defs>
				<rect id="SVGID_1_" y="0" width="735" height="555"/>
			</defs>
			<clipPath id="SVGID_2_">
				<use xlink:href="#SVGID_1_"  style="overflow:visible;"/>
			</clipPath>
			<rect y="0" class="st0" width="735" height="555"/>
		</g>
	</g>
	<g>
		<rect y="0" class="st1" width="735" height="555"/>
		<path class="st1" d="M94,493h569V41H94V493z"/>
	</g>
	<g>
		<line class="st2" x1="94" y1="493" x2="663" y2="493"/>
		<line class="st3" x1="169.9" y1="493" x2="169.9" y2="487.3"/>
		<line class="st3" x1="359.5" y1="493" x2="359.5" y2="487.3"/>
		<line class="st3" x1="549.2" y1="493" x2="549.2" y2="487.3"/>
	</g>
	<g transform="translate(169.8667,502.6)">
		<text transform="matrix(1 0 0 1 -25.5 36)" class="st4 st5 st6">-15</text>
	</g>
	<g transform="translate(359.5333,502.6)">
		<text transform="matrix(1 0 0 1 -25.5 36)" class="st4 st5 st6">-10</text>
	</g>
	<g transform="translate(549.2,502.6)">
		<text transform="matrix(1 0 0 1 -16 36)" class="st4 st5 st6">-5</text>
	</g>
	<g transform="translate(356,566)">
		<text transform="matrix(1 0 0 1 0 -1.464844e-05)" class="st4 st5 st7">q</text>
	</g>
	<g transform="translate(377,584)">
		<text transform="matrix(1 0 0 1 0 -1.464844e-05)" class="st4 st5 st8">t,2</text>
	</g>
	<g>
		<line class="st2" x1="94" y1="493" x2="94" y2="41"/>
		<line class="st3" x1="94" y1="493" x2="99.7" y2="493"/>
		<line class="st3" x1="94" y1="380" x2="99.7" y2="380"/>
		<line class="st3" x1="94" y1="267" x2="99.7" y2="267"/>
		<line class="st3" x1="94" y1="154" x2="99.7" y2="154"/>
		<line class="st3" x1="94" y1="41" x2="99.7" y2="41"/>
	</g>
	<g transform="translate(84.4,493)">
		<text transform="matrix(1 0 0 1 -32 14)" class="st4 st5 st6">-1</text>
	</g>
	<g transform="translate(84.4,380)">
		<text transform="matrix(1 0 0 1 -61 14)" class="st4 st5 st6">-0.5</text>
	</g>
	<g transform="translate(84.4,267)">
		<text transform="matrix(1 0 0 1 -20 14)" class="st4 st5 st6">0</text>
	</g>
	<g transform="translate(84.4,154)">
		<text transform="matrix(1 0 0 1 -49 14)" class="st4 st5 st6">0.5</text>
	</g>
	<g transform="translate(84.4,41)">
		<text transform="matrix(1 0 0 1 -20 14)" class="st4 st5 st6">1</text>
	</g>
	<g transform="translate(38,294) rotate(-90)">
		<text transform="matrix(1 0 0 1 -3.515625e-04 0)" class="st4 st5 st7">p</text>
	</g>
	<g transform="translate(56,273) rotate(-90)">
		<text transform="matrix(1 0 0 1 -3.515625e-04 0)" class="st4 st5 st8">t,2</text>
	</g>
	<g transform="translate(360,17)">
		<text transform="matrix(1 0 0 1 0 -1.464844e-05)" class="st5 st7">T</text>
	</g>
	<g transform="translate(383,35)">
		<text transform="matrix(1 0 0 1 0 -1.464844e-05)" class="st5 st8">2</text>
	</g>
	<g>
		<line class="st9" x1="94" y1="187.6" x2="105.4" y2="192.7"/>
		<line class="st10" x1="105.4" y1="192.7" x2="116.8" y2="197.9"/>
		<line class="st10" x1="116.8" y1="197.9" x2="128.1" y2="203.2"/>
		<line class="st10" x1="128.1" y1="203.2" x2="139.5" y2="208.6"/>
		<line class="st10" x1="139.5" y1="208.6" x2="150.9" y2="214.1"/>
		<line class="st10" x1="150.9" y1="214.1" x2="162.3" y2="219.7"/>
		<line class="st10" x1="162.3" y1="219.7" x2="173.7" y2="225.4"/>
		<line class="st10" x1="173.7" y1="225.4" x2="185" y2="231.2"/>
		<line class="st10" x1="185" y1="231.2" x2="196.4" y2="237.1"/>
		<line class="st10" x1="196.4" y1="237.1" x2="207.8" y2="243"/>
		<line class="st10" x1="207.8" y1="243" x2="219.2" y2="249"/>
		<line class="st10" x1="219.2" y1="249" x2="230.6" y2="255.1"/>
		<line class="st10" x1="230.6" y1="255.1" x2="241.9" y2="261.1"/>
		<line class="st10" x1="241.9" y1="261.1" x2="253.3" y2="267.2"/>
		<line class="st10" x1="253.3" y1="267.2" x2="264.7" y2="273.2"/>
		<line class="st10" x1="264.7" y1="273.2" x2="276.1" y2="279.3"/>
		<line class="st10" x1="276.1" y1="279.3" x2="287.5" y2="285.3"/>
		<line class="st10" x1="287.5" y1="285.3" x2="298.8" y2="291.3"/>
		<line class="st10" x1="298.8" y1="291.3" x2="310.2" y2="297.2"/>
		<line class="st10" x1="310.2" y1="297.2" x2="321.6" y2="303.1"/>
		<line class="st10" x1="321.6" y1="303.1" x2="333" y2="308.9"/>
		<line class="st10" x1="333" y1="308.9" x2="344.4" y2="314.6"/>
		<line class="st10" x1="344.4" y1="314.6" x2="355.7" y2="320.2"/>
		<line class="st10" x1="355.7" y1="320.2" x2="367.1" y2="325.7"/>
		<line class="st10" x1="367.1" y1="325.7" x2="378.5" y2="331.1"/>
		<line class="st10" x1="378.5" y1="331.1" x2="389.9" y2="336.4"/>
		<line class="st10" x1="389.9" y1="336.4" x2="401.3" y2="341.6"/>
		<line class="st10" x1="401.3" y1="341.6" x2="412.6" y2="346.6"/>
		<line class="st10" x1="412.6" y1="346.6" x2="424" y2="351.5"/>
		<line class="st10" x1="424" y1="351.5" x2="435.4" y2="356.3"/>
		<line class="st10" x1="435.4" y1="356.3" x2="446.8" y2="360.9"/>
		<line class="st10" x1="446.8" y1="360.9" x2="458.2" y2="365.4"/>
		<line class="st10" x1="458.2" y1="365.4" x2="469.5" y2="369.8"/>
		<line class="st10" x1="469.5" y1="369.8" x2="480.9" y2="374"/>
		<line class="st10" x1="480.9" y1="374" x2="492.3" y2="378.1"/>
		<line class="st10" x1="492.3" y1="378.1" x2="503.7" y2="382"/>
		<line class="st10" x1="503.7" y1="382" x2="515.1" y2="385.8"/>
		<line class="st10" x1="515.1" y1="385.8" x2="526.4" y2="389.5"/>
		<line class="st10" x1="526.4" y1="389.5" x2="537.8" y2="393"/>
		<line class="st10" x1="537.8" y1="393" x2="549.2" y2="396.4"/>
		<line class="st10" x1="549.2" y1="396.4" x2="560.6" y2="399.7"/>
		<line class="st10" x1="560.6" y1="399.7" x2="572" y2="402.9"/>
		<line class="st10" x1="572" y1="402.9" x2="583.3" y2="405.9"/>
		<line class="st10" x1="583.3" y1="405.9" x2="594.7" y2="408.8"/>
		<line class="st10" x1="594.7" y1="408.8" x2="606.1" y2="411.6"/>
		<line class="st10" x1="606.1" y1="411.6" x2="617.5" y2="414.3"/>
		<line class="st10" x1="617.5" y1="414.3" x2="628.9" y2="416.9"/>
		<line class="st10" x1="628.9" y1="416.9" x2="640.2" y2="419.4"/>
		<line class="st10" x1="640.2" y1="419.4" x2="651.6" y2="421.8"/>
		<line class="st9" x1="651.6" y1="421.8" x2="663" y2="424.1"/>
		<line class="st9" x1="663" y1="187.6" x2="663" y2="424.1"/>
		<line class="st11" x1="94" y1="41.8" x2="105.4" y2="41.8"/>
		<line class="st12" x1="105.4" y1="41.8" x2="116.8" y2="41.9"/>
		<line class="st12" x1="116.8" y1="41.9" x2="128.1" y2="41.9"/>
		<line class="st12" x1="128.1" y1="41.9" x2="139.5" y2="42"/>
		<line class="st12" x1="139.5" y1="42" x2="150.9" y2="42"/>
		<line class="st12" x1="150.9" y1="42" x2="162.3" y2="42"/>
		<line class="st12" x1="162.3" y1="42" x2="173.7" y2="42.1"/>
		<line class="st12" x1="173.7" y1="42.1" x2="185" y2="42.1"/>
		<line class="st12" x1="185" y1="42.1" x2="196.4" y2="42.2"/>
		<line class="st12" x1="196.4" y1="42.2" x2="207.8" y2="42.2"/>
		<line class="st12" x1="207.8" y1="42.2" x2="219.2" y2="42.3"/>
		<line class="st12" x1="219.2" y1="42.3" x2="230.6" y2="42.4"/>
		<line class="st12" x1="230.6" y1="42.4" x2="241.9" y2="42.4"/>
		<line class="st12" x1="241.9" y1="42.4" x2="253.3" y2="42.5"/>
		<line class="st12" x1="253.3" y1="42.5" x2="264.7" y2="42.6"/>
		<line class="st12" x1="264.7" y1="42.6" x2="276.1" y2="42.7"/>
		<line class="st12" x1="276.1" y1="42.7" x2="287.5" y2="42.8"/>
		<line class="st12" x1="287.5" y1="42.8" x2="298.8" y2="42.9"/>
		<line class="st12" x1="298.8" y1="42.9" x2="310.2" y2="43"/>
		<line class="st12" x1="310.2" y1="43" x2="321.6" y2="43.1"/>
		<line class="st12" x1="321.6" y1="43.1" x2="333" y2="43.3"/>
		<line class="st12" x1="333" y1="43.3" x2="344.4" y2="43.4"/>
		<line class="st12" x1="344.4" y1="43.4" x2="355.7" y2="43.6"/>
		<line class="st12" x1="355.7" y1="43.6" x2="367.1" y2="43.8"/>
		<line class="st12" x1="367.1" y1="43.8" x2="378.5" y2="44"/>
		<line class="st12" x1="378.5" y1="44" x2="389.9" y2="44.2"/>
		<line class="st12" x1="389.9" y1="44.2" x2="401.3" y2="44.5"/>
		<line class="st12" x1="401.3" y1="44.5" x2="412.6" y2="44.8"/>
		<line class="st12" x1="412.6" y1="44.8" x2="424" y2="45.1"/>
		<line class="st12" x1="424" y1="45.1" x2="435.4" y2="45.5"/>
		<line class="st12" x1="435.4" y1="45.5" x2="446.8" y2="45.9"/>
		<line class="st12" x1="446.8" y1="45.9" x2="458.2" y2="46.4"/>
		<line class="st12" x1="458.2" y1="46.4" x2="469.5" y2="47"/>
		<line class="st12" x1="469.5" y1="47" x2="480.9" y2="47.7"/>
		<line class="st12" x1="480.9" y1="47.7" x2="492.3" y2="48.5"/>
		<line class="st12" x1="492.3" y1="48.5" x2="503.7" y2="49.4"/>
		<line class="st12" x1="503.7" y1="49.4" x2="515.1" y2="50.5"/>
		<line class="st12" x1="515.1" y1="50.5" x2="526.4" y2="51.8"/>
		<line class="st12" x1="526.4" y1="51.8" x2="537.8" y2="53.5"/>
		<line class="st12" x1="537.8" y1="53.5" x2="549.2" y2="55.5"/>
		<line class="st12" x1="549.2" y1="55.5" x2="560.6" y2="58"/>
		<line class="st12" x1="560.6" y1="58" x2="572" y2="61.3"/>
		<line class="st12" x1="572" y1="61.3" x2="583.3" y2="65.4"/>
		<line class="st12" x1="583.3" y1="65.4" x2="594.7" y2="71"/>
		<line class="st12" x1="594.7" y1="71" x2="606.1" y2="78.4"/>
		<line class="st12" x1="606.1" y1="78.4" x2="617.5" y2="88.5"/>
		<line class="st12" x1="617.5" y1="88.5" x2="628.9" y2="102.7"/>
		<line class="st12" x1="628.9" y1="102.7" x2="640.2" y2="122.5"/>
		<line class="st12" x1="640.2" y1="122.5" x2="651.6" y2="150.3"/>
		<line class="st11" x1="651.6" y1="150.3" x2="663" y2="187.6"/>
		<line class="st9" x1="94" y1="41.8" x2="94" y2="187.6"/>
		<line class="st9" x1="94" y1="41.8" x2="105.4" y2="41.8"/>
		<line class="st10" x1="105.4" y1="41.8" x2="116.8" y2="41.9"/>
		<line class="st10" x1="116.8" y1="41.9" x2="128.1" y2="41.9"/>
		<line class="st10" x1="128.1" y1="41.9" x2="139.5" y2="42"/>
		<line class="st10" x1="139.5" y1="42" x2="150.9" y2="42"/>
		<line class="st10" x1="150.9" y1="42" x2="162.3" y2="42"/>
		<line class="st10" x1="162.3" y1="42" x2="173.7" y2="42.1"/>
		<line class="st10" x1="173.7" y1="42.1" x2="185" y2="42.1"/>
		<line class="st10" x1="185" y1="42.1" x2="196.4" y2="42.2"/>
		<line class="st10" x1="196.4" y1="42.2" x2="207.8" y2="42.2"/>
		<line class="st10" x1="207.8" y1="42.2" x2="219.2" y2="42.3"/>
		<line class="st10" x1="219.2" y1="42.3" x2="230.6" y2="42.4"/>
		<line class="st10" x1="230.6" y1="42.4" x2="241.9" y2="42.4"/>
		<line class="st10" x1="241.9" y1="42.4" x2="253.3" y2="42.5"/>
		<line class="st10" x1="253.3" y1="42.5" x2="264.7" y2="42.6"/>
		<line class="st10" x1="264.7" y1="42.6" x2="276.1" y2="42.7"/>
		<line class="st10" x1="276.1" y1="42.7" x2="287.5" y2="42.8"/>
		<line class="st10" x1="287.5" y1="42.8" x2="298.8" y2="42.9"/>
		<line class="st10" x1="298.8" y1="42.9" x2="310.2" y2="43"/>
		<line class="st10" x1="310.2" y1="43" x2="321.6" y2="43.1"/>
		<line class="st10" x1="321.6" y1="43.1" x2="333" y2="43.3"/>
		<line class="st10" x1="333" y1="43.3" x2="344.4" y2="43.4"/>
		<line class="st10" x1="344.4" y1="43.4" x2="355.7" y2="43.6"/>
		<line class="st10" x1="355.7" y1="43.6" x2="367.1" y2="43.8"/>
		<line class="st10" x1="367.1" y1="43.8" x2="378.5" y2="44"/>
		<line class="st10" x1="378.5" y1="44" x2="389.9" y2="44.2"/>
		<line class="st10" x1="389.9" y1="44.2" x2="401.3" y2="44.5"/>
		<line class="st10" x1="401.3" y1="44.5" x2="412.6" y2="44.8"/>
		<line class="st10" x1="412.6" y1="44.8" x2="424" y2="45.1"/>
		<line class="st10" x1="424" y1="45.1" x2="435.4" y2="45.5"/>
		<line class="st10" x1="435.4" y1="45.5" x2="446.8" y2="45.9"/>
		<line class="st10" x1="446.8" y1="45.9" x2="458.2" y2="46.4"/>
		<line class="st10" x1="458.2" y1="46.4" x2="469.5" y2="47"/>
		<line class="st10" x1="469.5" y1="47" x2="480.9" y2="47.7"/>
		<line class="st10" x1="480.9" y1="47.7" x2="492.3" y2="48.5"/>
		<line class="st10" x1="492.3" y1="48.5" x2="503.7" y2="49.4"/>
		<line class="st10" x1="503.7" y1="49.4" x2="515.1" y2="50.5"/>
		<line class="st10" x1="515.1" y1="50.5" x2="526.4" y2="51.8"/>
		<line class="st10" x1="526.4" y1="51.8" x2="537.8" y2="53.5"/>
		<line class="st10" x1="537.8" y1="53.5" x2="549.2" y2="55.5"/>
		<line class="st10" x1="549.2" y1="55.5" x2="560.6" y2="58"/>
		<line class="st10" x1="560.6" y1="58" x2="572" y2="61.3"/>
		<line class="st10" x1="572" y1="61.3" x2="583.3" y2="65.4"/>
		<line class="st10" x1="583.3" y1="65.4" x2="594.7" y2="71"/>
		<line class="st10" x1="594.7" y1="71" x2="606.1" y2="78.4"/>
		<line class="st10" x1="606.1" y1="78.4" x2="617.5" y2="88.5"/>
		<line class="st10" x1="617.5" y1="88.5" x2="628.9" y2="102.7"/>
		<line class="st10" x1="628.9" y1="102.7" x2="640.2" y2="122.5"/>
		<line class="st10" x1="640.2" y1="122.5" x2="651.6" y2="150.3"/>
		<line class="st9" x1="651.6" y1="150.3" x2="663" y2="187.6"/>
		<line class="st11" x1="94" y1="41" x2="105.4" y2="41"/>
		<line class="st12" x1="105.4" y1="41" x2="116.8" y2="41"/>
		<line class="st12" x1="116.8" y1="41" x2="128.1" y2="41"/>
		<line class="st12" x1="128.1" y1="41" x2="139.5" y2="41"/>
		<line class="st12" x1="139.5" y1="41" x2="150.9" y2="41"/>
		<line class="st12" x1="150.9" y1="41" x2="162.3" y2="41"/>
		<line class="st12" x1="162.3" y1="41" x2="173.7" y2="41"/>
		<line class="st12" x1="173.7" y1="41" x2="185" y2="41"/>
		<line class="st12" x1="185" y1="41" x2="196.4" y2="41"/>
		<line class="st12" x1="196.4" y1="41" x2="207.8" y2="41"/>
		<line class="st12" x1="207.8" y1="41" x2="219.2" y2="41"/>
		<line class="st12" x1="219.2" y1="41" x2="230.6" y2="41"/>
		<line class="st12" x1="230.6" y1="41" x2="241.9" y2="41"/>
		<line class="st12" x1="241.9" y1="41" x2="253.3" y2="41"/>
		<line class="st12" x1="253.3" y1="41" x2="264.7" y2="41"/>
		<line class="st12" x1="264.7" y1="41" x2="276.1" y2="41"/>
		<line class="st12" x1="276.1" y1="41" x2="287.5" y2="41"/>
		<line class="st12" x1="287.5" y1="41" x2="298.8" y2="41"/>
		<line class="st12" x1="298.8" y1="41" x2="310.2" y2="41"/>
		<line class="st12" x1="310.2" y1="41" x2="321.6" y2="41"/>
		<line class="st12" x1="321.6" y1="41" x2="333" y2="41"/>
		<line class="st12" x1="333" y1="41" x2="344.4" y2="41"/>
		<line class="st12" x1="344.4" y1="41" x2="355.7" y2="41"/>
		<line class="st12" x1="355.7" y1="41" x2="367.1" y2="41"/>
		<line class="st12" x1="367.1" y1="41" x2="378.5" y2="41"/>
		<line class="st12" x1="378.5" y1="41" x2="389.9" y2="41"/>
		<line class="st12" x1="389.9" y1="41" x2="401.3" y2="41"/>
		<line class="st12" x1="401.3" y1="41" x2="412.6" y2="41"/>
		<line class="st12" x1="412.6" y1="41" x2="424" y2="41"/>
		<line class="st12" x1="424" y1="41" x2="435.4" y2="41"/>
		<line class="st12" x1="435.4" y1="41" x2="446.8" y2="41"/>
		<line class="st12" x1="446.8" y1="41" x2="458.2" y2="41"/>
		<line class="st12" x1="458.2" y1="41" x2="469.5" y2="41"/>
		<line class="st12" x1="469.5" y1="41" x2="480.9" y2="41"/>
		<line class="st12" x1="480.9" y1="41" x2="492.3" y2="41"/>
		<line class="st12" x1="492.3" y1="41" x2="503.7" y2="41"/>
		<line class="st12" x1="503.7" y1="41" x2="515.1" y2="41"/>
		<line class="st12" x1="515.1" y1="41" x2="526.4" y2="41"/>
		<line class="st12" x1="526.4" y1="41" x2="537.8" y2="41"/>
		<line class="st12" x1="537.8" y1="41" x2="549.2" y2="41"/>
		<line class="st12" x1="549.2" y1="41" x2="560.6" y2="41"/>
		<line class="st12" x1="560.6" y1="41" x2="572" y2="41"/>
		<line class="st12" x1="572" y1="41" x2="583.3" y2="41"/>
		<line class="st12" x1="583.3" y1="41" x2="594.7" y2="41"/>
		<line class="st12" x1="594.7" y1="41" x2="606.1" y2="41"/>
		<line class="st12" x1="606.1" y1="41" x2="617.5" y2="41"/>
		<line class="st12" x1="617.5" y1="41" x2="628.9" y2="41"/>
		<line class="st12" x1="628.9" y1="41" x2="640.2" y2="41"/>
		<line class="st11" x1="640.2" y1="41" x2="651.6" y2="41"/>
		<line class="st11" x1="94" y1="41" x2="94" y2="41.8"/>
		<line class="st9" x1="663" y1="41" x2="663" y2="187.6"/>
		<line class="st9" x1="94" y1="41" x2="663" y2="41"/>
		<line class="st13" x1="98.5" y1="75.5" x2="97.7" y2="73.1"/>
	</g>
	<g>
		<line class="st14" x1="97.7" y1="73.1" x2="95.7" y2="71.7"/>
		<line class="st14" x1="95.7" y1="71.7" x2="93.3" y2="71.7"/>
		<line class="st14" x1="93.3" y1="71.7" x2="91.3" y2="73.1"/>
		<line class="st14" x1="91.3" y1="73.1" x2="90.5" y2="75.5"/>
		<line class="st14" x1="90.5" y1="75.5" x2="91.3" y2="77.9"/>
		<line class="st14" x1="91.3" y1="77.9" x2="93.3" y2="79.3"/>
		<line class="st14" x1="93.3" y1="79.3" x2="95.7" y2="79.3"/>
		<line class="st14" x1="95.7" y1="79.3" x2="97.7" y2="77.9"/>
		<line class="st13" x1="97.7" y1="77.9" x2="98.5" y2="75.5"/>
		<line class="st13" x1="667.5" y1="75.5" x2="666.7" y2="73.1"/>
		<line class="st14" x1="666.7" y1="73.1" x2="664.7" y2="71.7"/>
		<line class="st14" x1="664.7" y1="71.7" x2="662.3" y2="71.7"/>
		<line class="st14" x1="662.3" y1="71.7" x2="660.3" y2="73.1"/>
		<line class="st14" x1="660.3" y1="73.1" x2="659.5" y2="75.5"/>
		<line class="st14" x1="659.5" y1="75.5" x2="660.3" y2="77.9"/>
		<line class="st14" x1="660.3" y1="77.9" x2="662.3" y2="79.3"/>
		<line class="st14" x1="662.3" y1="79.3" x2="664.7" y2="79.3"/>
		<line class="st14" x1="664.7" y1="79.3" x2="666.7" y2="77.9"/>
		<line class="st13" x1="666.7" y1="77.9" x2="667.5" y2="75.5"/>
	</g>
	<g>
		<line class="st15" x1="94" y1="75.5" x2="663" y2="75.5"/>
	</g>
	<g>
		<line class="st16" x1="90" y1="75.5" x2="99" y2="75.5"/>
		<line class="st17" x1="94.5" y1="80" x2="94.5" y2="71"/>
		<line class="st17" x1="91" y1="79" x2="98" y2="72"/>
		<line class="st16" x1="91" y1="72" x2="98" y2="79"/>
		<line class="st16" x1="598" y1="75.5" x2="607" y2="75.5"/>
		<line class="st17" x1="602.5" y1="80" x2="602.5" y2="71"/>
		<line class="st17" x1="599" y1="79" x2="606" y2="72"/>
		<line class="st16" x1="599" y1="72" x2="606" y2="79"/>
		<line class="st18" x1="94" y1="75.5" x2="602.2" y2="75.5"/>
		<line class="st19" x1="98.5" y1="75.5" x2="97.7" y2="73.1"/>
		<line class="st20" x1="97.7" y1="73.1" x2="95.7" y2="71.7"/>
		<line class="st20" x1="95.7" y1="71.7" x2="93.3" y2="71.7"/>
		<line class="st20" x1="93.3" y1="71.7" x2="91.3" y2="73.1"/>
		<line class="st20" x1="91.3" y1="73.1" x2="90.5" y2="75.5"/>
		<line class="st20" x1="90.5" y1="75.5" x2="91.3" y2="77.9"/>
		<line class="st20" x1="91.3" y1="77.9" x2="93.3" y2="79.3"/>
		<line class="st20" x1="93.3" y1="79.3" x2="95.7" y2="79.3"/>
		<line class="st20" x1="95.7" y1="79.3" x2="97.7" y2="77.9"/>
		<line class="st19" x1="97.7" y1="77.9" x2="98.5" y2="75.5"/>
		<line class="st19" x1="667.5" y1="75.5" x2="666.7" y2="73.1"/>
		<line class="st20" x1="666.7" y1="73.1" x2="664.7" y2="71.7"/>
		<line class="st20" x1="664.7" y1="71.7" x2="662.3" y2="71.7"/>
		<line class="st20" x1="662.3" y1="71.7" x2="660.3" y2="73.1"/>
		<line class="st20" x1="660.3" y1="73.1" x2="659.5" y2="75.5"/>
		<line class="st20" x1="659.5" y1="75.5" x2="660.3" y2="77.9"/>
		<line class="st20" x1="660.3" y1="77.9" x2="662.3" y2="79.3"/>
		<line class="st20" x1="662.3" y1="79.3" x2="664.7" y2="79.3"/>
		<line class="st20" x1="664.7" y1="79.3" x2="666.7" y2="77.9"/>
		<line class="st19" x1="666.7" y1="77.9" x2="667.5" y2="75.5"/>
	</g>
	<g transform="translate(361,252)">
		<text transform="matrix(1 0 0 1 0 -1.464844e-05)" class="st5 st7">T</text>
	</g>
	<g transform="translate(384,270)">
		<text transform="matrix(1 0 0 1 0 -1.464844e-05)" class="st5 st8">2,3</text>
	</g>
	<g transform="translate(579,235)">
		<text transform="matrix(1 0 0 1 0 -1.464844e-05)" class="st21 st5 st7">q</text>
	</g>
	<g transform="translate(600,253)">
		<text transform="matrix(1 0 0 1 0 -1.464844e-05)" class="st21 st5 st8">t,2</text>
	</g>
	<g transform="translate(600,217)">
		<text transform="matrix(1 0 0 1 0 -1.464844e-05)" class="st21 st5 st8">min</text>
	</g>
	<g transform="translate(362,164)">
		<text transform="matrix(1 0 0 1 0 -1.464844e-05)" class="st22 st5 st7">u</text>
	</g>
	<g transform="translate(383,182)">
		<text transform="matrix(1 0 0 1 0 -1.464844e-05)" class="st22 st5 st8">2,3</text>
	</g>
	<g transform="translate(383,146)">
		<text transform="matrix(1 0 0 1 0 -1.464844e-05)" class="st22 st5 st8">max</text>
	</g>
	<g transform="translate(438,164)">
		<text transform="matrix(1 0 0 1 0 -1.464844e-05)" class="st22 st5 st7"> = v</text>
	</g>
	<g transform="translate(499,182)">
		<text transform="matrix(1 0 0 1 0 -1.464844e-05)" class="st22 st5 st8">2,3</text>
	</g>
	<g transform="translate(499,146)">
		<text transform="matrix(1 0 0 1 0 -1.464844e-05)" class="st22 st5 st8">max</text>
	</g>
	<g>
		<line class="st23" x1="462" y1="132" x2="585.9" y2="82.7"/>
		<path class="st24" d="M579.7,79.8l14.2-0.3l-8.1,3.2L579.7,79.8"/>
		<path class="st24" d="M593.9,79.5l-10.5,9.6l2.5-6.4L593.9,79.5"/>
	</g>
	<g>
		<path class="st22" d="M579.7,79.8l14.2-0.3l-8.1,3.2L579.7,79.8z"/>
		<path class="st22" d="M593.9,79.5l-10.5,9.6l2.5-6.4L593.9,79.5z"/>
	</g>
	<g>
		<line class="st25" x1="194" y1="339" x2="100.6" y2="88.3"/>
		<path class="st26" d="M97.6,94.4l0-14.2l3,8.1L97.6,94.4"/>
		<path class="st26" d="M97.6,80.2l9.3,10.8l-6.3-2.6L97.6,80.2"/>
	</g>
	<g>
		<path class="st21" d="M97.6,94.4l0-14.2l3,8.1L97.6,94.4z"/>
		<path class="st21" d="M97.6,80.2l9.3,10.8l-6.3-2.6L97.6,80.2z"/>
	</g>
	<g transform="translate(214,372)">
		<text transform="matrix(1 0 0 1 0 -1.464844e-05)" class="st22 st5 st7">u</text>
	</g>
	<g transform="translate(235,390)">
		<text transform="matrix(1 0 0 1 0 -1.464844e-05)" class="st22 st5 st8">2,3</text>
	</g>
	<g transform="translate(235,354)">
		<text transform="matrix(1 0 0 1 0 -1.464844e-05)" class="st22 st5 st8">min</text>
	</g>
	<g transform="translate(282,372)">
		<text transform="matrix(1 0 0 1 0 -1.464844e-05)" class="st22 st5 st7"> = v</text>
	</g>
	<g transform="translate(343,390)">
		<text transform="matrix(1 0 0 1 0 -1.464844e-05)" class="st22 st5 st8">2,3</text>
	</g>
	<g transform="translate(343,354)">
		<text transform="matrix(1 0 0 1 0 -1.464844e-05)" class="st22 st5 st8">min</text>
	</g>
	<g transform="translate(104,374)">
		<text transform="matrix(1 0 0 1 0 -1.464844e-05)" class="st21 st5 st7">q</text>
	</g>
	<g transform="translate(125,392)">
		<text transform="matrix(1 0 0 1 0 -1.464844e-05)" class="st21 st5 st8">t,2</text>
	</g>
	<g transform="translate(125,356)">
		<text transform="matrix(1 0 0 1 0 -1.464844e-05)" class="st21 st5 st8">min</text>
	</g>
	<g transform="translate(172,374)">
		<text transform="matrix(1 0 0 1 0 -1.464844e-05)" class="st21 st5 st7"> =</text>
	</g>
	<g transform="translate(596,70)">
		<text transform="matrix(1 0 0 1 0 -1.464844e-05)" class="st5 st7">T</text>
	</g>
	<g transform="translate(619,88)">
		<text transform="matrix(1 0 0 1 0 -1.464844e-05)" class="st5 st8">2,1</text>
	</g>
	<g>
		<line class="st25" x1="617" y1="195" x2="658" y2="88.9"/>
		<path class="st26" d="M651.6,91.4l9.5-10.6l-3.1,8.1L651.6,91.4"/>
		<path class="st26" d="M661.1,80.8L661,95l-3-6.2L661.1,80.8"/>
	</g>
	<g>
		<path class="st21" d="M651.6,91.4l9.5-10.6l-3.1,8.1L651.6,91.4z"/>
		<path class="st21" d="M661.1,80.8L661,95l-3-6.2L661.1,80.8z"/>
	</g>
</g>
</svg>
