<?xml version="1.0" encoding="utf-8"?>
<!-- Generator: Adobe Illustrator 21.1.0, SVG Export Plug-In . SVG Version: 6.00 Build 0)  -->
<svg version="1.1" id="Layer_1" xmlns="http://www.w3.org/2000/svg" xmlns:xlink="http://www.w3.org/1999/xlink" x="0px" y="0px"
	 viewBox="0 0 731 577" style="enable-background:new 0 0 731 577;" xml:space="preserve">
<style type="text/css">
	.st0{clip-path:url(#SVGID_2_);fill:#FFFFFF;}
	.st1{fill:#FFFFFF;}
	.st2{fill:none;stroke:#262626;stroke-width:0.6667;stroke-linejoin:round;stroke-miterlimit:10;}
	.st3{fill:none;stroke:#262626;stroke-width:0.6667;stroke-linecap:square;stroke-linejoin:round;stroke-miterlimit:10;}
	.st4{fill:#262626;}
	.st5{font-family:'MyriadPro-Regular';}
	.st6{font-size:35px;}
	.st7{font-size:37px;}
	.st8{font-size:29px;}
	.st9{fill:none;stroke:#FF0000;stroke-width:1.6;stroke-linejoin:round;stroke-miterlimit:10;}
	.st10{fill:none;stroke:#FF0000;stroke-width:1.6;stroke-linecap:round;stroke-linejoin:round;stroke-miterlimit:10;}
	.st11{fill:none;stroke:#FF0000;stroke-width:0.6667;stroke-linejoin:round;stroke-miterlimit:10;}
	.st12{fill:none;stroke:#FF0000;stroke-width:0.6667;stroke-linecap:round;stroke-linejoin:round;stroke-miterlimit:10;}
	.st13{fill:none;stroke:#0000FF;stroke-linejoin:round;stroke-miterlimit:10;}
	.st14{fill:none;stroke:#0000FF;stroke-linecap:round;stroke-linejoin:round;stroke-miterlimit:10;}
	.st15{fill:none;stroke:#000000;stroke-width:0.6667;stroke-linejoin:bevel;stroke-miterlimit:1;stroke-dasharray:10,6;}
	.st16{fill:none;stroke:#FF00FF;stroke-width:2.6667;stroke-linejoin:round;stroke-miterlimit:10;}
	.st17{fill:none;stroke:#FF00FF;stroke-width:2.6667;stroke-linecap:round;stroke-linejoin:round;stroke-miterlimit:10;}
	.st18{fill:none;stroke:#000000;stroke-width:1.3333;stroke-linejoin:round;stroke-miterlimit:10;}
	.st19{fill:none;stroke:#0000FF;stroke-width:2.6667;stroke-linejoin:round;stroke-miterlimit:10;}
	.st20{fill:none;stroke:#0000FF;stroke-width:2.6667;stroke-linecap:round;stroke-linejoin:round;stroke-miterlimit:10;}
	.st21{fill:#FF00FF;}
	.st22{fill:#0000FF;}
	.st23{fill:none;stroke:#0000FF;stroke-width:0.6667;stroke-linejoin:round;stroke-miterlimit:10;}
	.st24{fill:none;stroke:#FF00FF;stroke-width:0.6667;stroke-linejoin:round;stroke-miterlimit:10;}
</style>
<g>
	<g>
		<g>
			<defs>
				<rect id="SVGID_1_" y="0" width="731" height="577"/>
			</defs>
			<clipPath id="SVGID_2_">
				<use xlink:href="#SVGID_1_"  style="overflow:visible;"/>
			</clipPath>
			<rect y="0" class="st0" width="731" height="577"/>
		</g>
	</g>
	<g>
		<rect y="0" class="st1" width="731" height="577"/>
		<path class="st1" d="M93,513h567V42H93V513z"/>
	</g>
	<g>
		<line class="st2" x1="93" y1="513" x2="660" y2="513"/>
		<line class="st3" x1="168.6" y1="513" x2="168.6" y2="507.3"/>
		<line class="st3" x1="357.6" y1="513" x2="357.6" y2="507.3"/>
		<line class="st3" x1="546.6" y1="513" x2="546.6" y2="507.3"/>
	</g>
	<g transform="translate(168.6,522.6)">
		<text transform="matrix(1 0 0 1 -25.5 36)" class="st4 st5 st6">-15</text>
	</g>
	<g transform="translate(357.6,522.6)">
		<text transform="matrix(1 0 0 1 -25.5 36)" class="st4 st5 st6">-10</text>
	</g>
	<g transform="translate(546.6,522.6)">
		<text transform="matrix(1 0 0 1 -16 36)" class="st4 st5 st6">-5</text>
	</g>
	<g transform="translate(321,569)">
		<text transform="matrix(1 0 0 1 28 12)" class="st4 st5 st7">q</text>
	</g>
	<g transform="translate(342,587)">
		<text transform="matrix(1 0 0 1 28 12)" class="st4 st5 st8">t,2</text>
	</g>
	<g>
		<line class="st2" x1="93" y1="513" x2="93" y2="42"/>
		<line class="st3" x1="93" y1="513" x2="98.7" y2="513"/>
		<line class="st3" x1="93" y1="395.3" x2="98.7" y2="395.3"/>
		<line class="st3" x1="93" y1="277.5" x2="98.7" y2="277.5"/>
		<line class="st3" x1="93" y1="159.7" x2="98.7" y2="159.7"/>
		<line class="st3" x1="93" y1="42" x2="98.7" y2="42"/>
	</g>
	<g transform="translate(83.4,513)">
		<text transform="matrix(1 0 0 1 -32 14)" class="st4 st5 st6">-1</text>
	</g>
	<g transform="translate(83.4,395.25)">
		<text transform="matrix(1 0 0 1 -61 14)" class="st4 st5 st6">-0.5</text>
	</g>
	<g transform="translate(83.4,277.5)">
		<text transform="matrix(1 0 0 1 -20 14)" class="st4 st5 st6">0</text>
	</g>
	<g transform="translate(83.4,159.75)">
		<text transform="matrix(1 0 0 1 -49 14)" class="st4 st5 st6">0.5</text>
	</g>
	<g transform="translate(83.4,42)">
		<text transform="matrix(1 0 0 1 -20 14)" class="st4 st5 st6">1</text>
	</g>
	<g transform="translate(37,304) rotate(-90)">
		<text transform="matrix(1 0 0 1 -3.515625e-04 0)" class="st4 st5 st7">p</text>
	</g>
	<g transform="translate(55,283) rotate(-90)">
		<text transform="matrix(1 0 0 1 -3.515625e-04 0)" class="st4 st5 st8">t,2</text>
	</g>
	<g transform="translate(358,18)">
		<text transform="matrix(1 0 0 1 0 -1.464844e-05)" class="st5 st7">T</text>
	</g>
	<g transform="translate(381,36)">
		<text transform="matrix(1 0 0 1 0 -1.464844e-05)" class="st5 st8">2</text>
	</g>
	<g>
		<line class="st9" x1="93" y1="194.8" x2="104.3" y2="200.1"/>
		<line class="st10" x1="104.3" y1="200.1" x2="115.7" y2="205.5"/>
		<line class="st10" x1="115.7" y1="205.5" x2="127" y2="211"/>
		<line class="st10" x1="127" y1="211" x2="138.4" y2="216.6"/>
		<line class="st10" x1="138.4" y1="216.6" x2="149.7" y2="222.4"/>
		<line class="st10" x1="149.7" y1="222.4" x2="161" y2="228.2"/>
		<line class="st10" x1="161" y1="228.2" x2="172.4" y2="234.2"/>
		<line class="st10" x1="172.4" y1="234.2" x2="183.7" y2="240.2"/>
		<line class="st10" x1="183.7" y1="240.2" x2="195.1" y2="246.3"/>
		<line class="st10" x1="195.1" y1="246.3" x2="206.4" y2="252.5"/>
		<line class="st10" x1="206.4" y1="252.5" x2="217.7" y2="258.8"/>
		<line class="st10" x1="217.7" y1="258.8" x2="229.1" y2="265"/>
		<line class="st10" x1="229.1" y1="265" x2="240.4" y2="271.4"/>
		<line class="st10" x1="240.4" y1="271.4" x2="251.8" y2="277.7"/>
		<line class="st10" x1="251.8" y1="277.7" x2="263.1" y2="284"/>
		<line class="st10" x1="263.1" y1="284" x2="274.4" y2="290.3"/>
		<line class="st10" x1="274.4" y1="290.3" x2="285.8" y2="296.6"/>
		<line class="st10" x1="285.8" y1="296.6" x2="297.1" y2="302.8"/>
		<line class="st10" x1="297.1" y1="302.8" x2="308.5" y2="309"/>
		<line class="st10" x1="308.5" y1="309" x2="319.8" y2="315.1"/>
		<line class="st10" x1="319.8" y1="315.1" x2="331.1" y2="321.1"/>
		<line class="st10" x1="331.1" y1="321.1" x2="342.5" y2="327.1"/>
		<line class="st10" x1="342.5" y1="327.1" x2="353.8" y2="333"/>
		<line class="st10" x1="353.8" y1="333" x2="365.2" y2="338.7"/>
		<line class="st10" x1="365.2" y1="338.7" x2="376.5" y2="344.3"/>
		<line class="st10" x1="376.5" y1="344.3" x2="387.8" y2="349.8"/>
		<line class="st10" x1="387.8" y1="349.8" x2="399.2" y2="355.2"/>
		<line class="st10" x1="399.2" y1="355.2" x2="410.5" y2="360.5"/>
		<line class="st10" x1="410.5" y1="360.5" x2="421.9" y2="365.6"/>
		<line class="st10" x1="421.9" y1="365.6" x2="433.2" y2="370.6"/>
		<line class="st10" x1="433.2" y1="370.6" x2="444.5" y2="375.4"/>
		<line class="st10" x1="444.5" y1="375.4" x2="455.9" y2="380.1"/>
		<line class="st10" x1="455.9" y1="380.1" x2="467.2" y2="384.6"/>
		<line class="st10" x1="467.2" y1="384.6" x2="478.6" y2="389"/>
		<line class="st10" x1="478.6" y1="389" x2="489.9" y2="393.2"/>
		<line class="st10" x1="489.9" y1="393.2" x2="501.2" y2="397.3"/>
		<line class="st10" x1="501.2" y1="397.3" x2="512.6" y2="401.3"/>
		<line class="st10" x1="512.6" y1="401.3" x2="523.9" y2="405.1"/>
		<line class="st10" x1="523.9" y1="405.1" x2="535.3" y2="408.8"/>
		<line class="st10" x1="535.3" y1="408.8" x2="546.6" y2="412.4"/>
		<line class="st10" x1="546.6" y1="412.4" x2="557.9" y2="415.8"/>
		<line class="st10" x1="557.9" y1="415.8" x2="569.3" y2="419.1"/>
		<line class="st10" x1="569.3" y1="419.1" x2="580.6" y2="422.2"/>
		<line class="st10" x1="580.6" y1="422.2" x2="592" y2="425.3"/>
		<line class="st10" x1="592" y1="425.3" x2="603.3" y2="428.2"/>
		<line class="st10" x1="603.3" y1="428.2" x2="614.6" y2="431"/>
		<line class="st10" x1="614.6" y1="431" x2="626" y2="433.7"/>
		<line class="st10" x1="626" y1="433.7" x2="637.3" y2="436.3"/>
		<line class="st10" x1="637.3" y1="436.3" x2="648.7" y2="438.8"/>
		<line class="st9" x1="648.7" y1="438.8" x2="660" y2="441.2"/>
		<line class="st9" x1="660" y1="194.8" x2="660" y2="441.2"/>
		<line class="st11" x1="93" y1="42.8" x2="104.3" y2="42.9"/>
		<line class="st12" x1="104.3" y1="42.9" x2="115.7" y2="42.9"/>
		<line class="st12" x1="115.7" y1="42.9" x2="127" y2="43"/>
		<line class="st12" x1="127" y1="43" x2="138.4" y2="43"/>
		<line class="st12" x1="138.4" y1="43" x2="149.7" y2="43"/>
		<line class="st12" x1="149.7" y1="43" x2="161" y2="43.1"/>
		<line class="st12" x1="161" y1="43.1" x2="172.4" y2="43.1"/>
		<line class="st12" x1="172.4" y1="43.1" x2="183.7" y2="43.2"/>
		<line class="st12" x1="183.7" y1="43.2" x2="195.1" y2="43.2"/>
		<line class="st12" x1="195.1" y1="43.2" x2="206.4" y2="43.3"/>
		<line class="st12" x1="206.4" y1="43.3" x2="217.7" y2="43.4"/>
		<line class="st12" x1="217.7" y1="43.4" x2="229.1" y2="43.4"/>
		<line class="st12" x1="229.1" y1="43.4" x2="240.4" y2="43.5"/>
		<line class="st12" x1="240.4" y1="43.5" x2="251.8" y2="43.6"/>
		<line class="st12" x1="251.8" y1="43.6" x2="263.1" y2="43.7"/>
		<line class="st12" x1="263.1" y1="43.7" x2="274.4" y2="43.8"/>
		<line class="st12" x1="274.4" y1="43.8" x2="285.8" y2="43.9"/>
		<line class="st12" x1="285.8" y1="43.9" x2="297.1" y2="44"/>
		<line class="st12" x1="297.1" y1="44" x2="308.5" y2="44.1"/>
		<line class="st12" x1="308.5" y1="44.1" x2="319.8" y2="44.2"/>
		<line class="st12" x1="319.8" y1="44.2" x2="331.1" y2="44.4"/>
		<line class="st12" x1="331.1" y1="44.4" x2="342.5" y2="44.5"/>
		<line class="st12" x1="342.5" y1="44.5" x2="353.8" y2="44.7"/>
		<line class="st12" x1="353.8" y1="44.7" x2="365.2" y2="44.9"/>
		<line class="st12" x1="365.2" y1="44.9" x2="376.5" y2="45.1"/>
		<line class="st12" x1="376.5" y1="45.1" x2="387.8" y2="45.4"/>
		<line class="st12" x1="387.8" y1="45.4" x2="399.2" y2="45.6"/>
		<line class="st12" x1="399.2" y1="45.6" x2="410.5" y2="45.9"/>
		<line class="st12" x1="410.5" y1="45.9" x2="421.9" y2="46.3"/>
		<line class="st12" x1="421.9" y1="46.3" x2="433.2" y2="46.7"/>
		<line class="st12" x1="433.2" y1="46.7" x2="444.5" y2="47.1"/>
		<line class="st12" x1="444.5" y1="47.1" x2="455.9" y2="47.7"/>
		<line class="st12" x1="455.9" y1="47.7" x2="467.2" y2="48.3"/>
		<line class="st12" x1="467.2" y1="48.3" x2="478.6" y2="48.9"/>
		<line class="st12" x1="478.6" y1="48.9" x2="489.9" y2="49.8"/>
		<line class="st12" x1="489.9" y1="49.8" x2="501.2" y2="50.7"/>
		<line class="st12" x1="501.2" y1="50.7" x2="512.6" y2="51.9"/>
		<line class="st12" x1="512.6" y1="51.9" x2="523.9" y2="53.3"/>
		<line class="st12" x1="523.9" y1="53.3" x2="535.3" y2="55"/>
		<line class="st12" x1="535.3" y1="55" x2="546.6" y2="57.1"/>
		<line class="st12" x1="546.6" y1="57.1" x2="557.9" y2="59.7"/>
		<line class="st12" x1="557.9" y1="59.7" x2="569.3" y2="63.1"/>
		<line class="st12" x1="569.3" y1="63.1" x2="580.6" y2="67.5"/>
		<line class="st12" x1="580.6" y1="67.5" x2="592" y2="73.2"/>
		<line class="st12" x1="592" y1="73.2" x2="603.3" y2="80.9"/>
		<line class="st12" x1="603.3" y1="80.9" x2="614.6" y2="91.5"/>
		<line class="st12" x1="614.6" y1="91.5" x2="626" y2="106.2"/>
		<line class="st12" x1="626" y1="106.2" x2="637.3" y2="127"/>
		<line class="st12" x1="637.3" y1="127" x2="648.7" y2="155.9"/>
		<line class="st11" x1="648.7" y1="155.9" x2="660" y2="194.8"/>
		<line class="st9" x1="93" y1="42.8" x2="93" y2="194.8"/>
		<line class="st9" x1="93" y1="42.8" x2="104.3" y2="42.9"/>
		<line class="st10" x1="104.3" y1="42.9" x2="115.7" y2="42.9"/>
		<line class="st10" x1="115.7" y1="42.9" x2="127" y2="43"/>
		<line class="st10" x1="127" y1="43" x2="138.4" y2="43"/>
		<line class="st10" x1="138.4" y1="43" x2="149.7" y2="43"/>
		<line class="st10" x1="149.7" y1="43" x2="161" y2="43.1"/>
		<line class="st10" x1="161" y1="43.1" x2="172.4" y2="43.1"/>
		<line class="st10" x1="172.4" y1="43.1" x2="183.7" y2="43.2"/>
		<line class="st10" x1="183.7" y1="43.2" x2="195.1" y2="43.2"/>
		<line class="st10" x1="195.1" y1="43.2" x2="206.4" y2="43.3"/>
		<line class="st10" x1="206.4" y1="43.3" x2="217.7" y2="43.4"/>
		<line class="st10" x1="217.7" y1="43.4" x2="229.1" y2="43.4"/>
		<line class="st10" x1="229.1" y1="43.4" x2="240.4" y2="43.5"/>
		<line class="st10" x1="240.4" y1="43.5" x2="251.8" y2="43.6"/>
		<line class="st10" x1="251.8" y1="43.6" x2="263.1" y2="43.7"/>
		<line class="st10" x1="263.1" y1="43.7" x2="274.4" y2="43.8"/>
		<line class="st10" x1="274.4" y1="43.8" x2="285.8" y2="43.9"/>
		<line class="st10" x1="285.8" y1="43.9" x2="297.1" y2="44"/>
		<line class="st10" x1="297.1" y1="44" x2="308.5" y2="44.1"/>
		<line class="st10" x1="308.5" y1="44.1" x2="319.8" y2="44.2"/>
		<line class="st10" x1="319.8" y1="44.2" x2="331.1" y2="44.4"/>
		<line class="st10" x1="331.1" y1="44.4" x2="342.5" y2="44.5"/>
		<line class="st10" x1="342.5" y1="44.5" x2="353.8" y2="44.7"/>
		<line class="st10" x1="353.8" y1="44.7" x2="365.2" y2="44.9"/>
		<line class="st10" x1="365.2" y1="44.9" x2="376.5" y2="45.1"/>
		<line class="st10" x1="376.5" y1="45.1" x2="387.8" y2="45.4"/>
		<line class="st10" x1="387.8" y1="45.4" x2="399.2" y2="45.6"/>
		<line class="st10" x1="399.2" y1="45.6" x2="410.5" y2="45.9"/>
		<line class="st10" x1="410.5" y1="45.9" x2="421.9" y2="46.3"/>
		<line class="st10" x1="421.9" y1="46.3" x2="433.2" y2="46.7"/>
		<line class="st10" x1="433.2" y1="46.7" x2="444.5" y2="47.1"/>
		<line class="st10" x1="444.5" y1="47.1" x2="455.9" y2="47.7"/>
		<line class="st10" x1="455.9" y1="47.7" x2="467.2" y2="48.3"/>
		<line class="st10" x1="467.2" y1="48.3" x2="478.6" y2="48.9"/>
		<line class="st10" x1="478.6" y1="48.9" x2="489.9" y2="49.8"/>
		<line class="st10" x1="489.9" y1="49.8" x2="501.2" y2="50.7"/>
		<line class="st10" x1="501.2" y1="50.7" x2="512.6" y2="51.9"/>
		<line class="st10" x1="512.6" y1="51.9" x2="523.9" y2="53.3"/>
		<line class="st10" x1="523.9" y1="53.3" x2="535.3" y2="55"/>
		<line class="st10" x1="535.3" y1="55" x2="546.6" y2="57.1"/>
		<line class="st10" x1="546.6" y1="57.1" x2="557.9" y2="59.7"/>
		<line class="st10" x1="557.9" y1="59.7" x2="569.3" y2="63.1"/>
		<line class="st10" x1="569.3" y1="63.1" x2="580.6" y2="67.5"/>
		<line class="st10" x1="580.6" y1="67.5" x2="592" y2="73.2"/>
		<line class="st10" x1="592" y1="73.2" x2="603.3" y2="80.9"/>
		<line class="st10" x1="603.3" y1="80.9" x2="614.6" y2="91.5"/>
		<line class="st10" x1="614.6" y1="91.5" x2="626" y2="106.2"/>
		<line class="st10" x1="626" y1="106.2" x2="637.3" y2="127"/>
		<line class="st10" x1="637.3" y1="127" x2="648.7" y2="155.9"/>
		<line class="st9" x1="648.7" y1="155.9" x2="660" y2="194.8"/>
		<line class="st11" x1="93" y1="42" x2="104.3" y2="42"/>
		<line class="st12" x1="104.3" y1="42" x2="115.7" y2="42"/>
		<line class="st12" x1="115.7" y1="42" x2="127" y2="42"/>
		<line class="st12" x1="127" y1="42" x2="138.4" y2="42"/>
		<line class="st12" x1="138.4" y1="42" x2="149.7" y2="42"/>
		<line class="st12" x1="149.7" y1="42" x2="161" y2="42"/>
		<line class="st12" x1="161" y1="42" x2="172.4" y2="42"/>
		<line class="st12" x1="172.4" y1="42" x2="183.7" y2="42"/>
		<line class="st12" x1="183.7" y1="42" x2="195.1" y2="42"/>
		<line class="st12" x1="195.1" y1="42" x2="206.4" y2="42"/>
		<line class="st12" x1="206.4" y1="42" x2="217.7" y2="42"/>
		<line class="st12" x1="217.7" y1="42" x2="229.1" y2="42"/>
		<line class="st12" x1="229.1" y1="42" x2="240.4" y2="42"/>
		<line class="st12" x1="240.4" y1="42" x2="251.8" y2="42"/>
		<line class="st12" x1="251.8" y1="42" x2="263.1" y2="42"/>
		<line class="st12" x1="263.1" y1="42" x2="274.4" y2="42"/>
		<line class="st12" x1="274.4" y1="42" x2="285.8" y2="42"/>
		<line class="st12" x1="285.8" y1="42" x2="297.1" y2="42"/>
		<line class="st12" x1="297.1" y1="42" x2="308.5" y2="42"/>
		<line class="st12" x1="308.5" y1="42" x2="319.8" y2="42"/>
		<line class="st12" x1="319.8" y1="42" x2="331.1" y2="42"/>
		<line class="st12" x1="331.1" y1="42" x2="342.5" y2="42"/>
		<line class="st12" x1="342.5" y1="42" x2="353.8" y2="42"/>
		<line class="st12" x1="353.8" y1="42" x2="365.2" y2="42"/>
		<line class="st12" x1="365.2" y1="42" x2="376.5" y2="42"/>
		<line class="st12" x1="376.5" y1="42" x2="387.8" y2="42"/>
		<line class="st12" x1="387.8" y1="42" x2="399.2" y2="42"/>
		<line class="st12" x1="399.2" y1="42" x2="410.5" y2="42"/>
		<line class="st12" x1="410.5" y1="42" x2="421.9" y2="42"/>
		<line class="st12" x1="421.9" y1="42" x2="433.2" y2="42"/>
		<line class="st12" x1="433.2" y1="42" x2="444.5" y2="42"/>
		<line class="st12" x1="444.5" y1="42" x2="455.9" y2="42"/>
		<line class="st12" x1="455.9" y1="42" x2="467.2" y2="42"/>
		<line class="st12" x1="467.2" y1="42" x2="478.6" y2="42"/>
		<line class="st12" x1="478.6" y1="42" x2="489.9" y2="42"/>
		<line class="st12" x1="489.9" y1="42" x2="501.2" y2="42"/>
		<line class="st12" x1="501.2" y1="42" x2="512.6" y2="42"/>
		<line class="st12" x1="512.6" y1="42" x2="523.9" y2="42"/>
		<line class="st12" x1="523.9" y1="42" x2="535.3" y2="42"/>
		<line class="st12" x1="535.3" y1="42" x2="546.6" y2="42"/>
		<line class="st12" x1="546.6" y1="42" x2="557.9" y2="42"/>
		<line class="st12" x1="557.9" y1="42" x2="569.3" y2="42"/>
		<line class="st12" x1="569.3" y1="42" x2="580.6" y2="42"/>
		<line class="st12" x1="580.6" y1="42" x2="592" y2="42"/>
		<line class="st12" x1="592" y1="42" x2="603.3" y2="42"/>
		<line class="st12" x1="603.3" y1="42" x2="614.6" y2="42"/>
		<line class="st12" x1="614.6" y1="42" x2="626" y2="42"/>
		<line class="st12" x1="626" y1="42" x2="637.3" y2="42"/>
		<line class="st11" x1="637.3" y1="42" x2="648.7" y2="42"/>
		<line class="st11" x1="93" y1="42" x2="93" y2="42.8"/>
		<line class="st9" x1="660" y1="42" x2="660" y2="194.8"/>
		<line class="st9" x1="93" y1="42" x2="660" y2="42"/>
		<line class="st13" x1="97.5" y1="77.5" x2="96.7" y2="75.1"/>
	</g>
	<g>
		<line class="st14" x1="96.7" y1="75.1" x2="94.7" y2="73.7"/>
		<line class="st14" x1="94.7" y1="73.7" x2="92.3" y2="73.7"/>
		<line class="st14" x1="92.3" y1="73.7" x2="90.3" y2="75.1"/>
		<line class="st14" x1="90.3" y1="75.1" x2="89.5" y2="77.5"/>
		<line class="st14" x1="89.5" y1="77.5" x2="90.3" y2="79.9"/>
		<line class="st14" x1="90.3" y1="79.9" x2="92.3" y2="81.3"/>
		<line class="st14" x1="92.3" y1="81.3" x2="94.7" y2="81.3"/>
		<line class="st14" x1="94.7" y1="81.3" x2="96.7" y2="79.9"/>
		<line class="st13" x1="96.7" y1="79.9" x2="97.5" y2="77.5"/>
		<line class="st13" x1="664.5" y1="77.5" x2="663.7" y2="75.1"/>
		<line class="st14" x1="663.7" y1="75.1" x2="661.7" y2="73.7"/>
		<line class="st14" x1="661.7" y1="73.7" x2="659.3" y2="73.7"/>
		<line class="st14" x1="659.3" y1="73.7" x2="657.3" y2="75.1"/>
		<line class="st14" x1="657.3" y1="75.1" x2="656.5" y2="77.5"/>
		<line class="st14" x1="656.5" y1="77.5" x2="657.3" y2="79.9"/>
		<line class="st14" x1="657.3" y1="79.9" x2="659.3" y2="81.3"/>
		<line class="st14" x1="659.3" y1="81.3" x2="661.7" y2="81.3"/>
		<line class="st14" x1="661.7" y1="81.3" x2="663.7" y2="79.9"/>
		<line class="st13" x1="663.7" y1="79.9" x2="664.5" y2="77.5"/>
	</g>
	<g>
		<line class="st15" x1="93" y1="78" x2="660" y2="78"/>
	</g>
	<g>
		<line class="st16" x1="89" y1="77.5" x2="98" y2="77.5"/>
		<line class="st17" x1="93.5" y1="82" x2="93.5" y2="73"/>
		<line class="st17" x1="90" y1="81" x2="97" y2="74"/>
		<line class="st16" x1="90" y1="74" x2="97" y2="81"/>
		<line class="st16" x1="595" y1="77.5" x2="604" y2="77.5"/>
		<line class="st17" x1="599.5" y1="82" x2="599.5" y2="73"/>
		<line class="st17" x1="596" y1="81" x2="603" y2="74"/>
		<line class="st16" x1="596" y1="74" x2="603" y2="81"/>
		<line class="st18" x1="93" y1="78" x2="599.4" y2="78"/>
		<line class="st19" x1="97.5" y1="77.5" x2="96.7" y2="75.1"/>
		<line class="st20" x1="96.7" y1="75.1" x2="94.7" y2="73.7"/>
		<line class="st20" x1="94.7" y1="73.7" x2="92.3" y2="73.7"/>
		<line class="st20" x1="92.3" y1="73.7" x2="90.3" y2="75.1"/>
		<line class="st20" x1="90.3" y1="75.1" x2="89.5" y2="77.5"/>
		<line class="st20" x1="89.5" y1="77.5" x2="90.3" y2="79.9"/>
		<line class="st20" x1="90.3" y1="79.9" x2="92.3" y2="81.3"/>
		<line class="st20" x1="92.3" y1="81.3" x2="94.7" y2="81.3"/>
		<line class="st20" x1="94.7" y1="81.3" x2="96.7" y2="79.9"/>
		<line class="st19" x1="96.7" y1="79.9" x2="97.5" y2="77.5"/>
		<line class="st19" x1="664.5" y1="77.5" x2="663.7" y2="75.1"/>
		<line class="st20" x1="663.7" y1="75.1" x2="661.7" y2="73.7"/>
		<line class="st20" x1="661.7" y1="73.7" x2="659.3" y2="73.7"/>
		<line class="st20" x1="659.3" y1="73.7" x2="657.3" y2="75.1"/>
		<line class="st20" x1="657.3" y1="75.1" x2="656.5" y2="77.5"/>
		<line class="st20" x1="656.5" y1="77.5" x2="657.3" y2="79.9"/>
		<line class="st20" x1="657.3" y1="79.9" x2="659.3" y2="81.3"/>
		<line class="st20" x1="659.3" y1="81.3" x2="661.7" y2="81.3"/>
		<line class="st20" x1="661.7" y1="81.3" x2="663.7" y2="79.9"/>
		<line class="st19" x1="663.7" y1="79.9" x2="664.5" y2="77.5"/>
	</g>
	<g transform="translate(363,198)">
		<text transform="matrix(1 0 0 1 0 -1.464844e-05)" class="st5 st7">T</text>
	</g>
	<g transform="translate(386,216)">
		<text transform="matrix(1 0 0 1 0 -1.464844e-05)" class="st5 st8">2,3</text>
	</g>
	<g transform="translate(602,74)">
		<text transform="matrix(1 0 0 1 0 -1.464844e-05)" class="st5 st7">T</text>
	</g>
	<g transform="translate(625,92)">
		<text transform="matrix(1 0 0 1 0 -1.464844e-05)" class="st5 st8">2,1</text>
	</g>
	<g transform="translate(196,136)">
		<text transform="matrix(1 0 0 1 0 -1.464844e-05)" class="st21 st5 st7">u</text>
	</g>
	<g transform="translate(217,154)">
		<text transform="matrix(1 0 0 1 0 -1.464844e-05)" class="st21 st5 st8">2,3</text>
	</g>
	<g transform="translate(217,118)">
		<text transform="matrix(1 0 0 1 0 -1.464844e-05)" class="st21 st5 st8">min</text>
	</g>
	<g transform="translate(264,136)">
		<text transform="matrix(1 0 0 1 0 -1.464844e-05)" class="st21 st5 st7"> = v</text>
	</g>
	<g transform="translate(325,154)">
		<text transform="matrix(1 0 0 1 0 -1.464844e-05)" class="st21 st5 st8">2,3</text>
	</g>
	<g transform="translate(325,118)">
		<text transform="matrix(1 0 0 1 0 -1.464844e-05)" class="st21 st5 st8">min</text>
	</g>
	<g transform="translate(96,139)">
		<text transform="matrix(1 0 0 1 0 -1.464844e-05)" class="st22 st5 st7">q</text>
	</g>
	<g transform="translate(117,157)">
		<text transform="matrix(1 0 0 1 0 -1.464844e-05)" class="st22 st5 st8">t,2</text>
	</g>
	<g transform="translate(117,121)">
		<text transform="matrix(1 0 0 1 0 -1.464844e-05)" class="st22 st5 st8">min</text>
	</g>
	<g transform="translate(164,139)">
		<text transform="matrix(1 0 0 1 0 -1.464844e-05)" class="st22 st5 st7"> =</text>
	</g>
	<g>
		<line class="st23" x1="104.4" y1="99.5" x2="100.7" y2="91.2"/>
		<path class="st23" d="M98.1,97.5l-1-14.2l3.6,7.9L98.1,97.5"/>
		<path class="st23" d="M97.1,83.3l10.1,10.1l-6.5-2.2L97.1,83.3"/>
	</g>
	<g>
		<path class="st22" d="M98.1,97.5l-1-14.2l3.6,7.9L98.1,97.5z"/>
		<path class="st22" d="M97.1,83.3l10.1,10.1l-6.5-2.2L97.1,83.3z"/>
	</g>
	<g>
		<line class="st24" x1="571.9" y1="103.1" x2="584.8" y2="89"/>
		<path class="st24" d="M578,89.1l12.7-6.5l-5.9,6.4L578,89.1"/>
		<path class="st24" d="M590.7,82.6l-5.3,13.2l-0.5-6.8L590.7,82.6"/>
	</g>
	<g>
		<path class="st21" d="M578,89.1l12.7-6.5l-5.9,6.4L578,89.1z"/>
		<path class="st21" d="M590.7,82.6l-5.3,13.2l-0.5-6.8L590.7,82.6z"/>
	</g>
	<g transform="translate(467,144)">
		<text transform="matrix(1 0 0 1 0 -1.464844e-05)" class="st21 st5 st7">u</text>
	</g>
	<g transform="translate(488,162)">
		<text transform="matrix(1 0 0 1 0 -1.464844e-05)" class="st21 st5 st8">2,3</text>
	</g>
	<g transform="translate(488,126)">
		<text transform="matrix(1 0 0 1 0 -1.464844e-05)" class="st21 st5 st8">max</text>
	</g>
	<g transform="translate(543,144)">
		<text transform="matrix(1 0 0 1 0 -1.464844e-05)" class="st21 st5 st7"> = v</text>
	</g>
	<g transform="translate(604,162)">
		<text transform="matrix(1 0 0 1 0 -1.464844e-05)" class="st21 st5 st8">2,3</text>
	</g>
	<g transform="translate(604,126)">
		<text transform="matrix(1 0 0 1 0 -1.464844e-05)" class="st21 st5 st8">max</text>
	</g>
	<g transform="translate(675,156)">
		<text transform="matrix(1 0 0 1 0 -1.464844e-05)" class="st22 st5 st7">q</text>
	</g>
	<g transform="translate(696,174)">
		<text transform="matrix(1 0 0 1 0 -1.464844e-05)" class="st22 st5 st8">t,2</text>
	</g>
	<g transform="translate(696,138)">
		<text transform="matrix(1 0 0 1 0 -1.464844e-05)" class="st22 st5 st8">min</text>
	</g>
	<g>
		<line class="st23" x1="673.9" y1="103.8" x2="666.5" y2="89.6"/>
		<path class="st23" d="M664.2,96.1l-1.7-14.1l4,7.7L664.2,96.1"/>
		<path class="st23" d="M662.5,81.9l10.6,9.5l-6.6-1.8L662.5,81.9"/>
	</g>
	<g>
		<path class="st22" d="M664.2,96.1l-1.7-14.1l4,7.7L664.2,96.1z"/>
		<path class="st22" d="M662.5,81.9l10.6,9.5l-6.6-1.8L662.5,81.9z"/>
	</g>
</g>
</svg>
