<?xml version="1.0" encoding="utf-8"?>
<!-- Generator: Adobe Illustrator 21.1.0, SVG Export Plug-In . SVG Version: 6.00 Build 0)  -->
<svg version="1.1" id="Layer_1" xmlns="http://www.w3.org/2000/svg" xmlns:xlink="http://www.w3.org/1999/xlink" x="0px" y="0px"
	 viewBox="0 0 731 577" style="enable-background:new 0 0 731 577;" xml:space="preserve">
<style type="text/css">
	.st0{clip-path:url(#SVGID_2_);fill:#FFFFFF;}
	.st1{fill:#FFFFFF;}
	.st2{fill:none;stroke:#262626;stroke-width:0.6667;stroke-linejoin:round;stroke-miterlimit:10;}
	.st3{fill:none;stroke:#262626;stroke-width:0.6667;stroke-linecap:square;stroke-linejoin:round;stroke-miterlimit:10;}
	.st4{fill:#262626;}
	.st5{font-family:'MyriadPro-Regular';}
	.st6{font-size:35px;}
	.st7{font-size:37px;}
	.st8{font-size:29px;}
	.st9{fill:none;stroke:#FF0000;stroke-width:1.6;stroke-linejoin:round;stroke-miterlimit:10;}
	.st10{fill:none;stroke:#FF0000;stroke-width:1.6;stroke-linecap:round;stroke-linejoin:round;stroke-miterlimit:10;}
	.st11{fill:none;stroke:#FF0000;stroke-width:0.6667;stroke-linejoin:round;stroke-miterlimit:10;}
	.st12{fill:none;stroke:#FF0000;stroke-width:0.6667;stroke-linecap:round;stroke-linejoin:round;stroke-miterlimit:10;}
	.st13{fill:none;stroke:#FF0000;stroke-width:1.3333;stroke-linejoin:round;stroke-miterlimit:10;}
	.st14{fill:none;stroke:#FF00FF;stroke-width:2.6667;stroke-linejoin:round;stroke-miterlimit:10;}
	.st15{fill:none;stroke:#FF00FF;stroke-width:2.6667;stroke-linecap:round;stroke-linejoin:round;stroke-miterlimit:10;}
	.st16{fill:none;stroke:#0000FF;stroke-width:2.6667;stroke-linejoin:round;stroke-miterlimit:10;}
	.st17{fill:none;stroke:#0000FF;stroke-width:2.6667;stroke-linecap:round;stroke-linejoin:round;stroke-miterlimit:10;}
	.st18{fill:none;stroke:#000000;stroke-width:0.6667;stroke-linejoin:round;stroke-miterlimit:10;}
	.st19{fill:none;stroke:#000000;stroke-width:1.3333;stroke-linejoin:bevel;stroke-miterlimit:1;stroke-dasharray:10,6;}
	.st20{fill:#FF00FF;}
	.st21{fill:none;stroke:#0000FF;stroke-width:0.6667;stroke-linejoin:round;stroke-miterlimit:10;}
	.st22{fill:#0000FF;}
	.st23{fill:none;stroke:#FF00FF;stroke-width:0.6667;stroke-linejoin:round;stroke-miterlimit:10;}
</style>
<g>
	<g>
		<g>
			<defs>
				<rect id="SVGID_1_" y="0" width="731" height="577"/>
			</defs>
			<clipPath id="SVGID_2_">
				<use xlink:href="#SVGID_1_"  style="overflow:visible;"/>
			</clipPath>
			<rect y="0" class="st0" width="731" height="577"/>
		</g>
	</g>
	<g>
		<rect y="0" class="st1" width="731" height="577"/>
		<path class="st1" d="M96,514h566V43H96V514z"/>
	</g>
	<g>
		<line class="st2" x1="96" y1="514" x2="662" y2="514"/>
		<line class="st2" x1="96" y1="43" x2="662" y2="43"/>
		<line class="st3" x1="171.5" y1="514" x2="171.5" y2="508.3"/>
		<line class="st3" x1="360.1" y1="514" x2="360.1" y2="508.3"/>
		<line class="st3" x1="548.8" y1="514" x2="548.8" y2="508.3"/>
		<line class="st3" x1="171.5" y1="43" x2="171.5" y2="48.7"/>
		<line class="st3" x1="360.1" y1="43" x2="360.1" y2="48.7"/>
		<line class="st3" x1="548.8" y1="43" x2="548.8" y2="48.7"/>
	</g>
	<g transform="translate(171.4667,523.6)">
		<text transform="matrix(1 0 0 1 -25.5 36)" class="st4 st5 st6">-15</text>
	</g>
	<g transform="translate(360.1333,523.6)">
		<text transform="matrix(1 0 0 1 -25.5 36)" class="st4 st5 st6">-10</text>
	</g>
	<g transform="translate(548.8,523.6)">
		<text transform="matrix(1 0 0 1 -16 36)" class="st4 st5 st6">-5</text>
	</g>
	<g transform="translate(313,566)">
		<text transform="matrix(1 0 0 1 33 20)" class="st4 st5 st7">q</text>
	</g>
	<g transform="translate(334,584)">
		<text transform="matrix(1 0 0 1 33 20)" class="st4 st5 st8">t,2</text>
	</g>
	<g>
		<line class="st2" x1="96" y1="514" x2="96" y2="43"/>
		<line class="st2" x1="662" y1="514" x2="662" y2="43"/>
		<line class="st3" x1="96" y1="514" x2="101.7" y2="514"/>
		<line class="st3" x1="96" y1="396.3" x2="101.7" y2="396.3"/>
		<line class="st3" x1="96" y1="278.5" x2="101.7" y2="278.5"/>
		<line class="st3" x1="96" y1="160.7" x2="101.7" y2="160.7"/>
		<line class="st3" x1="96" y1="43" x2="101.7" y2="43"/>
		<line class="st3" x1="662" y1="514" x2="656.3" y2="514"/>
		<line class="st3" x1="662" y1="396.3" x2="656.3" y2="396.3"/>
		<line class="st3" x1="662" y1="278.5" x2="656.3" y2="278.5"/>
		<line class="st3" x1="662" y1="160.7" x2="656.3" y2="160.7"/>
		<line class="st3" x1="662" y1="43" x2="656.3" y2="43"/>
	</g>
	<g transform="translate(86.4,514)">
		<text transform="matrix(1 0 0 1 -32 14)" class="st4 st5 st6">-1</text>
	</g>
	<g transform="translate(86.4,396.25)">
		<text transform="matrix(1 0 0 1 -61 14)" class="st4 st5 st6">-0.5</text>
	</g>
	<g transform="translate(86.4,278.5)">
		<text transform="matrix(1 0 0 1 -20 14)" class="st4 st5 st6">0</text>
	</g>
	<g transform="translate(86.4,160.75)">
		<text transform="matrix(1 0 0 1 -49 14)" class="st4 st5 st6">0.5</text>
	</g>
	<g transform="translate(86.4,43)">
		<text transform="matrix(1 0 0 1 -20 14)" class="st4 st5 st6">1</text>
	</g>
	<g transform="translate(35,307) rotate(-90)">
		<text transform="matrix(1 0 0 1 -3.515625e-04 0)" class="st4 st5 st7">p</text>
	</g>
	<g transform="translate(53,286) rotate(-90)">
		<text transform="matrix(1 0 0 1 -3.515625e-04 0)" class="st4 st5 st8">t,2</text>
	</g>
	<g transform="translate(357,19)">
		<text transform="matrix(1 0 0 1 0 -7)" class="st5 st7">T</text>
	</g>
	<g transform="translate(380,37)">
		<text transform="matrix(1 0 0 1 0 -7)" class="st5 st8">2</text>
	</g>
	<g>
		<line class="st9" x1="96" y1="195.8" x2="107.3" y2="201.1"/>
		<line class="st10" x1="107.3" y1="201.1" x2="118.6" y2="206.5"/>
		<line class="st10" x1="118.6" y1="206.5" x2="130" y2="212"/>
		<line class="st10" x1="130" y1="212" x2="141.3" y2="217.6"/>
		<line class="st10" x1="141.3" y1="217.6" x2="152.6" y2="223.4"/>
		<line class="st10" x1="152.6" y1="223.4" x2="163.9" y2="229.2"/>
		<line class="st10" x1="163.9" y1="229.2" x2="175.2" y2="235.2"/>
		<line class="st10" x1="175.2" y1="235.2" x2="186.6" y2="241.2"/>
		<line class="st10" x1="186.6" y1="241.2" x2="197.9" y2="247.3"/>
		<line class="st10" x1="197.9" y1="247.3" x2="209.2" y2="253.5"/>
		<line class="st10" x1="209.2" y1="253.5" x2="220.5" y2="259.8"/>
		<line class="st10" x1="220.5" y1="259.8" x2="231.8" y2="266"/>
		<line class="st10" x1="231.8" y1="266" x2="243.2" y2="272.4"/>
		<line class="st10" x1="243.2" y1="272.4" x2="254.5" y2="278.7"/>
		<line class="st10" x1="254.5" y1="278.7" x2="265.8" y2="285"/>
		<line class="st10" x1="265.8" y1="285" x2="277.1" y2="291.3"/>
		<line class="st10" x1="277.1" y1="291.3" x2="288.4" y2="297.6"/>
		<line class="st10" x1="288.4" y1="297.6" x2="299.8" y2="303.8"/>
		<line class="st10" x1="299.8" y1="303.8" x2="311.1" y2="310"/>
		<line class="st10" x1="311.1" y1="310" x2="322.4" y2="316.1"/>
		<line class="st10" x1="322.4" y1="316.1" x2="333.7" y2="322.1"/>
		<line class="st10" x1="333.7" y1="322.1" x2="345" y2="328.1"/>
		<line class="st10" x1="345" y1="328.1" x2="356.4" y2="334"/>
		<line class="st10" x1="356.4" y1="334" x2="367.7" y2="339.7"/>
		<line class="st10" x1="367.7" y1="339.7" x2="379" y2="345.3"/>
		<line class="st10" x1="379" y1="345.3" x2="390.3" y2="350.8"/>
		<line class="st10" x1="390.3" y1="350.8" x2="401.6" y2="356.2"/>
		<line class="st10" x1="401.6" y1="356.2" x2="413" y2="361.5"/>
		<line class="st10" x1="413" y1="361.5" x2="424.3" y2="366.6"/>
		<line class="st10" x1="424.3" y1="366.6" x2="435.6" y2="371.6"/>
		<line class="st10" x1="435.6" y1="371.6" x2="446.9" y2="376.4"/>
		<line class="st10" x1="446.9" y1="376.4" x2="458.2" y2="381.1"/>
		<line class="st10" x1="458.2" y1="381.1" x2="469.6" y2="385.6"/>
		<line class="st10" x1="469.6" y1="385.6" x2="480.9" y2="390"/>
		<line class="st10" x1="480.9" y1="390" x2="492.2" y2="394.2"/>
		<line class="st10" x1="492.2" y1="394.2" x2="503.5" y2="398.3"/>
		<line class="st10" x1="503.5" y1="398.3" x2="514.8" y2="402.3"/>
		<line class="st10" x1="514.8" y1="402.3" x2="526.2" y2="406.1"/>
		<line class="st10" x1="526.2" y1="406.1" x2="537.5" y2="409.8"/>
		<line class="st10" x1="537.5" y1="409.8" x2="548.8" y2="413.4"/>
		<line class="st10" x1="548.8" y1="413.4" x2="560.1" y2="416.8"/>
		<line class="st10" x1="560.1" y1="416.8" x2="571.4" y2="420.1"/>
		<line class="st10" x1="571.4" y1="420.1" x2="582.8" y2="423.2"/>
		<line class="st10" x1="582.8" y1="423.2" x2="594.1" y2="426.3"/>
		<line class="st10" x1="594.1" y1="426.3" x2="605.4" y2="429.2"/>
		<line class="st10" x1="605.4" y1="429.2" x2="616.7" y2="432"/>
		<line class="st10" x1="616.7" y1="432" x2="628" y2="434.7"/>
		<line class="st10" x1="628" y1="434.7" x2="639.4" y2="437.3"/>
		<line class="st10" x1="639.4" y1="437.3" x2="650.7" y2="439.8"/>
		<line class="st9" x1="650.7" y1="439.8" x2="662" y2="442.2"/>
		<line class="st9" x1="662" y1="195.8" x2="662" y2="442.2"/>
		<line class="st11" x1="96" y1="43.8" x2="107.3" y2="43.9"/>
		<line class="st12" x1="107.3" y1="43.9" x2="118.6" y2="43.9"/>
		<line class="st12" x1="118.6" y1="43.9" x2="130" y2="44"/>
		<line class="st12" x1="130" y1="44" x2="141.3" y2="44"/>
		<line class="st12" x1="141.3" y1="44" x2="152.6" y2="44"/>
		<line class="st12" x1="152.6" y1="44" x2="163.9" y2="44.1"/>
		<line class="st12" x1="163.9" y1="44.1" x2="175.2" y2="44.1"/>
		<line class="st12" x1="175.2" y1="44.1" x2="186.6" y2="44.2"/>
		<line class="st12" x1="186.6" y1="44.2" x2="197.9" y2="44.2"/>
		<line class="st12" x1="197.9" y1="44.2" x2="209.2" y2="44.3"/>
		<line class="st12" x1="209.2" y1="44.3" x2="220.5" y2="44.4"/>
		<line class="st12" x1="220.5" y1="44.4" x2="231.8" y2="44.4"/>
		<line class="st12" x1="231.8" y1="44.4" x2="243.2" y2="44.5"/>
		<line class="st12" x1="243.2" y1="44.5" x2="254.5" y2="44.6"/>
		<line class="st12" x1="254.5" y1="44.6" x2="265.8" y2="44.7"/>
		<line class="st12" x1="265.8" y1="44.7" x2="277.1" y2="44.8"/>
		<line class="st12" x1="277.1" y1="44.8" x2="288.4" y2="44.9"/>
		<line class="st12" x1="288.4" y1="44.9" x2="299.8" y2="45"/>
		<line class="st12" x1="299.8" y1="45" x2="311.1" y2="45.1"/>
		<line class="st12" x1="311.1" y1="45.1" x2="322.4" y2="45.2"/>
		<line class="st12" x1="322.4" y1="45.2" x2="333.7" y2="45.4"/>
		<line class="st12" x1="333.7" y1="45.4" x2="345" y2="45.5"/>
		<line class="st12" x1="345" y1="45.5" x2="356.4" y2="45.7"/>
		<line class="st12" x1="356.4" y1="45.7" x2="367.7" y2="45.9"/>
		<line class="st12" x1="367.7" y1="45.9" x2="379" y2="46.1"/>
		<line class="st12" x1="379" y1="46.1" x2="390.3" y2="46.4"/>
		<line class="st12" x1="390.3" y1="46.4" x2="401.6" y2="46.6"/>
		<line class="st12" x1="401.6" y1="46.6" x2="413" y2="46.9"/>
		<line class="st12" x1="413" y1="46.9" x2="424.3" y2="47.3"/>
		<line class="st12" x1="424.3" y1="47.3" x2="435.6" y2="47.7"/>
		<line class="st12" x1="435.6" y1="47.7" x2="446.9" y2="48.1"/>
		<line class="st12" x1="446.9" y1="48.1" x2="458.2" y2="48.7"/>
		<line class="st12" x1="458.2" y1="48.7" x2="469.6" y2="49.3"/>
		<line class="st12" x1="469.6" y1="49.3" x2="480.9" y2="49.9"/>
		<line class="st12" x1="480.9" y1="49.9" x2="492.2" y2="50.8"/>
		<line class="st12" x1="492.2" y1="50.8" x2="503.5" y2="51.7"/>
		<line class="st12" x1="503.5" y1="51.7" x2="514.8" y2="52.9"/>
		<line class="st12" x1="514.8" y1="52.9" x2="526.2" y2="54.3"/>
		<line class="st12" x1="526.2" y1="54.3" x2="537.5" y2="56"/>
		<line class="st12" x1="537.5" y1="56" x2="548.8" y2="58.1"/>
		<line class="st12" x1="548.8" y1="58.1" x2="560.1" y2="60.7"/>
		<line class="st12" x1="560.1" y1="60.7" x2="571.4" y2="64.1"/>
		<line class="st12" x1="571.4" y1="64.1" x2="582.8" y2="68.5"/>
		<line class="st12" x1="582.8" y1="68.5" x2="594.1" y2="74.2"/>
		<line class="st12" x1="594.1" y1="74.2" x2="605.4" y2="81.9"/>
		<line class="st12" x1="605.4" y1="81.9" x2="616.7" y2="92.5"/>
		<line class="st12" x1="616.7" y1="92.5" x2="628" y2="107.2"/>
		<line class="st12" x1="628" y1="107.2" x2="639.4" y2="128"/>
		<line class="st12" x1="639.4" y1="128" x2="650.7" y2="156.9"/>
		<line class="st11" x1="650.7" y1="156.9" x2="662" y2="195.8"/>
		<line class="st9" x1="96" y1="43.8" x2="96" y2="195.8"/>
		<line class="st9" x1="96" y1="43.8" x2="107.3" y2="43.9"/>
		<line class="st10" x1="107.3" y1="43.9" x2="118.6" y2="43.9"/>
		<line class="st10" x1="118.6" y1="43.9" x2="130" y2="44"/>
		<line class="st10" x1="130" y1="44" x2="141.3" y2="44"/>
		<line class="st10" x1="141.3" y1="44" x2="152.6" y2="44"/>
		<line class="st10" x1="152.6" y1="44" x2="163.9" y2="44.1"/>
		<line class="st10" x1="163.9" y1="44.1" x2="175.2" y2="44.1"/>
		<line class="st10" x1="175.2" y1="44.1" x2="186.6" y2="44.2"/>
		<line class="st10" x1="186.6" y1="44.2" x2="197.9" y2="44.2"/>
		<line class="st10" x1="197.9" y1="44.2" x2="209.2" y2="44.3"/>
		<line class="st10" x1="209.2" y1="44.3" x2="220.5" y2="44.4"/>
		<line class="st10" x1="220.5" y1="44.4" x2="231.8" y2="44.4"/>
		<line class="st10" x1="231.8" y1="44.4" x2="243.2" y2="44.5"/>
		<line class="st10" x1="243.2" y1="44.5" x2="254.5" y2="44.6"/>
		<line class="st10" x1="254.5" y1="44.6" x2="265.8" y2="44.7"/>
		<line class="st10" x1="265.8" y1="44.7" x2="277.1" y2="44.8"/>
		<line class="st10" x1="277.1" y1="44.8" x2="288.4" y2="44.9"/>
		<line class="st10" x1="288.4" y1="44.9" x2="299.8" y2="45"/>
		<line class="st10" x1="299.8" y1="45" x2="311.1" y2="45.1"/>
		<line class="st10" x1="311.1" y1="45.1" x2="322.4" y2="45.2"/>
		<line class="st10" x1="322.4" y1="45.2" x2="333.7" y2="45.4"/>
		<line class="st10" x1="333.7" y1="45.4" x2="345" y2="45.5"/>
		<line class="st10" x1="345" y1="45.5" x2="356.4" y2="45.7"/>
		<line class="st10" x1="356.4" y1="45.7" x2="367.7" y2="45.9"/>
		<line class="st10" x1="367.7" y1="45.9" x2="379" y2="46.1"/>
		<line class="st10" x1="379" y1="46.1" x2="390.3" y2="46.4"/>
		<line class="st10" x1="390.3" y1="46.4" x2="401.6" y2="46.6"/>
		<line class="st10" x1="401.6" y1="46.6" x2="413" y2="46.9"/>
		<line class="st10" x1="413" y1="46.9" x2="424.3" y2="47.3"/>
		<line class="st10" x1="424.3" y1="47.3" x2="435.6" y2="47.7"/>
		<line class="st10" x1="435.6" y1="47.7" x2="446.9" y2="48.1"/>
		<line class="st10" x1="446.9" y1="48.1" x2="458.2" y2="48.7"/>
		<line class="st10" x1="458.2" y1="48.7" x2="469.6" y2="49.3"/>
		<line class="st10" x1="469.6" y1="49.3" x2="480.9" y2="49.9"/>
		<line class="st10" x1="480.9" y1="49.9" x2="492.2" y2="50.8"/>
		<line class="st10" x1="492.2" y1="50.8" x2="503.5" y2="51.7"/>
		<line class="st10" x1="503.5" y1="51.7" x2="514.8" y2="52.9"/>
		<line class="st10" x1="514.8" y1="52.9" x2="526.2" y2="54.3"/>
		<line class="st10" x1="526.2" y1="54.3" x2="537.5" y2="56"/>
		<line class="st10" x1="537.5" y1="56" x2="548.8" y2="58.1"/>
		<line class="st10" x1="548.8" y1="58.1" x2="560.1" y2="60.7"/>
		<line class="st10" x1="560.1" y1="60.7" x2="571.4" y2="64.1"/>
		<line class="st10" x1="571.4" y1="64.1" x2="582.8" y2="68.5"/>
		<line class="st10" x1="582.8" y1="68.5" x2="594.1" y2="74.2"/>
		<line class="st10" x1="594.1" y1="74.2" x2="605.4" y2="81.9"/>
		<line class="st10" x1="605.4" y1="81.9" x2="616.7" y2="92.5"/>
		<line class="st10" x1="616.7" y1="92.5" x2="628" y2="107.2"/>
		<line class="st10" x1="628" y1="107.2" x2="639.4" y2="128"/>
		<line class="st10" x1="639.4" y1="128" x2="650.7" y2="156.9"/>
		<line class="st9" x1="650.7" y1="156.9" x2="662" y2="195.8"/>
		<line class="st11" x1="96" y1="43" x2="107.3" y2="43"/>
		<line class="st12" x1="107.3" y1="43" x2="118.6" y2="43"/>
		<line class="st12" x1="118.6" y1="43" x2="130" y2="43"/>
		<line class="st12" x1="130" y1="43" x2="141.3" y2="43"/>
		<line class="st12" x1="141.3" y1="43" x2="152.6" y2="43"/>
		<line class="st12" x1="152.6" y1="43" x2="163.9" y2="43"/>
		<line class="st12" x1="163.9" y1="43" x2="175.2" y2="43"/>
		<line class="st12" x1="175.2" y1="43" x2="186.6" y2="43"/>
		<line class="st12" x1="186.6" y1="43" x2="197.9" y2="43"/>
		<line class="st12" x1="197.9" y1="43" x2="209.2" y2="43"/>
		<line class="st12" x1="209.2" y1="43" x2="220.5" y2="43"/>
		<line class="st12" x1="220.5" y1="43" x2="231.8" y2="43"/>
		<line class="st12" x1="231.8" y1="43" x2="243.2" y2="43"/>
		<line class="st12" x1="243.2" y1="43" x2="254.5" y2="43"/>
		<line class="st12" x1="254.5" y1="43" x2="265.8" y2="43"/>
		<line class="st12" x1="265.8" y1="43" x2="277.1" y2="43"/>
		<line class="st12" x1="277.1" y1="43" x2="288.4" y2="43"/>
		<line class="st12" x1="288.4" y1="43" x2="299.8" y2="43"/>
		<line class="st12" x1="299.8" y1="43" x2="311.1" y2="43"/>
		<line class="st12" x1="311.1" y1="43" x2="322.4" y2="43"/>
		<line class="st12" x1="322.4" y1="43" x2="333.7" y2="43"/>
		<line class="st12" x1="333.7" y1="43" x2="345" y2="43"/>
		<line class="st12" x1="345" y1="43" x2="356.4" y2="43"/>
		<line class="st12" x1="356.4" y1="43" x2="367.7" y2="43"/>
		<line class="st12" x1="367.7" y1="43" x2="379" y2="43"/>
		<line class="st12" x1="379" y1="43" x2="390.3" y2="43"/>
		<line class="st12" x1="390.3" y1="43" x2="401.6" y2="43"/>
		<line class="st12" x1="401.6" y1="43" x2="413" y2="43"/>
		<line class="st12" x1="413" y1="43" x2="424.3" y2="43"/>
		<line class="st12" x1="424.3" y1="43" x2="435.6" y2="43"/>
		<line class="st12" x1="435.6" y1="43" x2="446.9" y2="43"/>
		<line class="st12" x1="446.9" y1="43" x2="458.2" y2="43"/>
		<line class="st12" x1="458.2" y1="43" x2="469.6" y2="43"/>
		<line class="st12" x1="469.6" y1="43" x2="480.9" y2="43"/>
		<line class="st12" x1="480.9" y1="43" x2="492.2" y2="43"/>
		<line class="st12" x1="492.2" y1="43" x2="503.5" y2="43"/>
		<line class="st12" x1="503.5" y1="43" x2="514.8" y2="43"/>
		<line class="st12" x1="514.8" y1="43" x2="526.2" y2="43"/>
		<line class="st12" x1="526.2" y1="43" x2="537.5" y2="43"/>
		<line class="st12" x1="537.5" y1="43" x2="548.8" y2="43"/>
		<line class="st12" x1="548.8" y1="43" x2="560.1" y2="43"/>
		<line class="st12" x1="560.1" y1="43" x2="571.4" y2="43"/>
		<line class="st12" x1="571.4" y1="43" x2="582.8" y2="43"/>
		<line class="st12" x1="582.8" y1="43" x2="594.1" y2="43"/>
		<line class="st12" x1="594.1" y1="43" x2="605.4" y2="43"/>
		<line class="st12" x1="605.4" y1="43" x2="616.7" y2="43"/>
		<line class="st12" x1="616.7" y1="43" x2="628" y2="43"/>
		<line class="st12" x1="628" y1="43" x2="639.4" y2="43"/>
		<line class="st11" x1="639.4" y1="43" x2="650.7" y2="43"/>
		<line class="st11" x1="96" y1="43" x2="96" y2="43.8"/>
		<line class="st9" x1="662" y1="43" x2="662" y2="195.8"/>
		<line class="st13" x1="96" y1="43" x2="662" y2="43"/>
		<line class="st14" x1="440" y1="375.5" x2="449" y2="375.5"/>
	</g>
	<g>
		<line class="st15" x1="444.5" y1="380" x2="444.5" y2="371"/>
		<line class="st15" x1="441" y1="379" x2="448" y2="372"/>
		<line class="st14" x1="441" y1="372" x2="448" y2="379"/>
		<line class="st14" x1="658" y1="375.5" x2="667" y2="375.5"/>
		<line class="st15" x1="662.5" y1="380" x2="662.5" y2="371"/>
		<line class="st15" x1="659" y1="379" x2="666" y2="372"/>
		<line class="st14" x1="659" y1="372" x2="666" y2="379"/>
		<line class="st16" x1="367.5" y1="375.5" x2="366.7" y2="373.1"/>
		<line class="st17" x1="366.7" y1="373.1" x2="364.7" y2="371.7"/>
		<line class="st17" x1="364.7" y1="371.7" x2="362.3" y2="371.7"/>
		<line class="st17" x1="362.3" y1="371.7" x2="360.3" y2="373.1"/>
		<line class="st17" x1="360.3" y1="373.1" x2="359.5" y2="375.5"/>
		<line class="st17" x1="359.5" y1="375.5" x2="360.3" y2="377.9"/>
		<line class="st17" x1="360.3" y1="377.9" x2="362.3" y2="379.3"/>
		<line class="st17" x1="362.3" y1="379.3" x2="364.7" y2="379.3"/>
		<line class="st17" x1="364.7" y1="379.3" x2="366.7" y2="377.9"/>
		<line class="st16" x1="366.7" y1="377.9" x2="367.5" y2="375.5"/>
		<line class="st16" x1="662.5" y1="375.5" x2="661.7" y2="373.1"/>
		<line class="st17" x1="661.7" y1="373.1" x2="659.7" y2="371.7"/>
		<line class="st17" x1="659.7" y1="371.7" x2="657.3" y2="371.7"/>
		<line class="st17" x1="657.3" y1="371.7" x2="655.3" y2="373.1"/>
		<line class="st17" x1="655.3" y1="373.1" x2="654.5" y2="375.5"/>
		<line class="st17" x1="654.5" y1="375.5" x2="655.3" y2="377.9"/>
		<line class="st17" x1="655.3" y1="377.9" x2="657.3" y2="379.3"/>
		<line class="st17" x1="657.3" y1="379.3" x2="659.7" y2="379.3"/>
		<line class="st17" x1="659.7" y1="379.3" x2="661.7" y2="377.9"/>
		<line class="st16" x1="661.7" y1="377.9" x2="662.5" y2="375.5"/>
	</g>
	<g>
		<line class="st18" x1="444.8" y1="375.5" x2="658.2" y2="375.5"/>
	</g>
	<g>
		<line class="st19" x1="363.5" y1="375.5" x2="658.2" y2="375.5"/>
	</g>
	<g transform="translate(386,199)">
		<text transform="matrix(1 0 0 1 0 -1.464844e-05)" class="st5 st7">T</text>
	</g>
	<g transform="translate(409,217)">
		<text transform="matrix(1 0 0 1 0 -1.464844e-05)" class="st5 st8">2,3</text>
	</g>
	<g transform="translate(603,78)">
		<text transform="matrix(1 0 0 1 0 -1.464844e-05)" class="st5 st7">T</text>
	</g>
	<g transform="translate(626,96)">
		<text transform="matrix(1 0 0 1 0 -1.464844e-05)" class="st5 st8">2,1</text>
	</g>
	<g transform="translate(667,361)">
		<text transform="matrix(1 0 0 1 0 -1.464844e-05)" class="st20 st5 st7">u</text>
	</g>
	<g transform="translate(688,379)">
		<text transform="matrix(1 0 0 1 0 -1.464844e-05)" class="st20 st5 st8">2,3</text>
	</g>
	<g transform="translate(688,343)">
		<text transform="matrix(1 0 0 1 0 -1.464844e-05)" class="st20 st5 st8">max</text>
	</g>
	<g transform="translate(743,361)">
		<text transform="matrix(1 0 0 1 0 -1.464844e-05)" class="st20 st5 st7"> </text>
	</g>
	<g transform="translate(437,361)">
		<text transform="matrix(1 0 0 1 0 -1.464844e-05)" class="st20 st5 st7">u</text>
	</g>
	<g transform="translate(458,379)">
		<text transform="matrix(1 0 0 1 0 -1.464844e-05)" class="st20 st5 st8">2,3</text>
	</g>
	<g transform="translate(458,343)">
		<text transform="matrix(1 0 0 1 0 -1.464844e-05)" class="st20 st5 st8">min</text>
	</g>
	<g transform="translate(505,361)">
		<text transform="matrix(1 0 0 1 0 -1.464844e-05)" class="st20 st5 st7"> = v</text>
	</g>
	<g transform="translate(566,379)">
		<text transform="matrix(1 0 0 1 0 -1.464844e-05)" class="st20 st5 st8">2,3</text>
	</g>
	<g transform="translate(566,343)">
		<text transform="matrix(1 0 0 1 0 -1.464844e-05)" class="st20 st5 st8">min</text>
	</g>
	<g>
		<line class="st21" x1="372.8" y1="396.9" x2="369.1" y2="388.6"/>
		<path class="st21" d="M366.4,394.9l-0.9-14.2l3.6,7.9L366.4,394.9"/>
		<path class="st21" d="M365.5,380.7l10,10.1l-6.5-2.2L365.5,380.7"/>
	</g>
	<g>
		<path class="st22" d="M366.4,394.9l-0.9-14.2l3.6,7.9L366.4,394.9z"/>
		<path class="st22" d="M365.5,380.7l10,10.1l-6.5-2.2L365.5,380.7z"/>
	</g>
	<g transform="translate(374,431)">
		<text transform="matrix(1 0 0 1 0 -1.464844e-05)" class="st22 st5 st7">q</text>
	</g>
	<g transform="translate(395,449)">
		<text transform="matrix(1 0 0 1 0 -1.464844e-05)" class="st22 st5 st8">t,2</text>
	</g>
	<g transform="translate(395,413)">
		<text transform="matrix(1 0 0 1 0 -1.464844e-05)" class="st22 st5 st8">min</text>
	</g>
	<g transform="translate(442,431)">
		<text transform="matrix(1 0 0 1 0 -1.464844e-05)" class="st22 st5 st7"> </text>
	</g>
	<g>
		<line class="st23" x1="446.3" y1="349.6" x2="445.3" y2="361.4"/>
		<path class="st23" d="M450.7,357.2l-6,12.9l0.7-8.6L450.7,357.2"/>
		<path class="st23" d="M444.6,370.1l-3.9-13.7l4.6,5L444.6,370.1"/>
	</g>
	<g>
		<path class="st20" d="M450.7,357.2l-6,12.9l0.7-8.6L450.7,357.2z"/>
		<path class="st20" d="M444.6,370.1l-3.9-13.7l4.6,5L444.6,370.1z"/>
	</g>
	<g>
		<line class="st23" x1="673.9" y1="351" x2="668.7" y2="361.6"/>
		<path class="st23" d="M675.3,359.6l-10.3,9.8l3.8-7.8L675.3,359.6"/>
		<path class="st23" d="M664.9,369.4l1.4-14.2l2.4,6.4L664.9,369.4"/>
	</g>
	<g>
		<path class="st20" d="M675.3,359.6l-10.3,9.8l3.8-7.8L675.3,359.6z"/>
		<path class="st20" d="M664.9,369.4l1.4-14.2l2.4,6.4L664.9,369.4z"/>
	</g>
	<g>
		<line class="st21" x1="628.2" y1="393.4" x2="648.1" y2="383.7"/>
		<path class="st21" d="M641.8,381.3l14.2-1.3l-7.8,3.8L641.8,381.3"/>
		<path class="st21" d="M655.9,380l-9.8,10.3l2-6.5L655.9,380"/>
	</g>
	<g>
		<path class="st22" d="M641.8,381.3l14.2-1.3l-7.8,3.8L641.8,381.3z"/>
		<path class="st22" d="M655.9,380l-9.8,10.3l2-6.5L655.9,380z"/>
	</g>
	<g transform="translate(573,436)">
		<text transform="matrix(1 0 0 1 0 -1.464844e-05)" class="st22 st5 st7">q</text>
	</g>
	<g transform="translate(594,454)">
		<text transform="matrix(1 0 0 1 0 -1.464844e-05)" class="st22 st5 st8">t,2</text>
	</g>
	<g transform="translate(594,418)">
		<text transform="matrix(1 0 0 1 0 -1.464844e-05)" class="st22 st5 st8">max</text>
	</g>
	<g transform="translate(649,436)">
		<text transform="matrix(1 0 0 1 0 -1.464844e-05)" class="st22 st5 st7"> = v</text>
	</g>
	<g transform="translate(710,454)">
		<text transform="matrix(1 0 0 1 0 -1.464844e-05)" class="st22 st5 st8">2,3</text>
	</g>
	<g transform="translate(710,418)">
		<text transform="matrix(1 0 0 1 0 -1.464844e-05)" class="st22 st5 st8">max</text>
	</g>
</g>
</svg>
