<?xml version="1.0" encoding="utf-8"?>
<!-- Generator: Adobe Illustrator 21.1.0, SVG Export Plug-In . SVG Version: 6.00 Build 0)  -->
<svg version="1.1" id="Layer_1" xmlns="http://www.w3.org/2000/svg" xmlns:xlink="http://www.w3.org/1999/xlink" x="0px" y="0px"
	 viewBox="0 0 735 555" style="enable-background:new 0 0 735 555;" xml:space="preserve">
<style type="text/css">
	.st0{clip-path:url(#SVGID_2_);fill:#FFFFFF;}
	.st1{fill:#FFFFFF;}
	.st2{fill:none;stroke:#262626;stroke-width:0.6667;stroke-linejoin:round;stroke-miterlimit:10;}
	.st3{fill:none;stroke:#262626;stroke-width:0.6667;stroke-linecap:square;stroke-linejoin:round;stroke-miterlimit:10;}
	.st4{fill:#262626;}
	.st5{font-family:'MyriadPro-Regular';}
	.st6{font-size:35px;}
	.st7{font-size:37px;}
	.st8{font-size:29px;}
	.st9{fill:none;stroke:#FF0000;stroke-width:1.6;stroke-linejoin:round;stroke-miterlimit:10;}
	.st10{fill:none;stroke:#FF0000;stroke-width:1.6;stroke-linecap:round;stroke-linejoin:round;stroke-miterlimit:10;}
	.st11{fill:none;stroke:#FF0000;stroke-width:0.6667;stroke-linejoin:round;stroke-miterlimit:10;}
	.st12{fill:none;stroke:#FF0000;stroke-width:0.6667;stroke-linecap:round;stroke-linejoin:round;stroke-miterlimit:10;}
	.st13{fill:none;stroke:#FF0000;stroke-width:1.3333;stroke-linejoin:round;stroke-miterlimit:10;}
	.st14{fill:none;stroke:#FF00FF;stroke-width:2.6667;stroke-linejoin:round;stroke-miterlimit:10;}
	.st15{fill:none;stroke:#FF00FF;stroke-width:2.6667;stroke-linecap:round;stroke-linejoin:round;stroke-miterlimit:10;}
	.st16{fill:none;stroke:#0000FF;stroke-width:2.6667;stroke-linejoin:round;stroke-miterlimit:10;}
	.st17{fill:none;stroke:#0000FF;stroke-width:2.6667;stroke-linecap:round;stroke-linejoin:round;stroke-miterlimit:10;}
	.st18{fill:none;stroke:#000000;stroke-width:0.6667;stroke-linejoin:round;stroke-miterlimit:10;}
	.st19{fill:none;stroke:#000000;stroke-width:1.3333;stroke-linejoin:bevel;stroke-miterlimit:1;stroke-dasharray:10,6;}
	.st20{fill:#0000FF;}
	.st21{fill:#FF00FF;}
	.st22{fill:none;stroke:#FF00FF;stroke-width:1.3333;stroke-linejoin:round;stroke-miterlimit:10;}
	.st23{fill:none;stroke:#FF00FF;stroke-width:0.6667;stroke-linejoin:round;stroke-miterlimit:10;}
	.st24{fill:none;stroke:#0000FF;stroke-width:1.3333;stroke-linejoin:round;stroke-miterlimit:10;}
	.st25{fill:none;stroke:#0000FF;stroke-width:0.6667;stroke-linejoin:round;stroke-miterlimit:10;}
</style>
<g>
	<g>
		<g>
			<defs>
				<rect id="SVGID_1_" y="0" width="735" height="555"/>
			</defs>
			<clipPath id="SVGID_2_">
				<use xlink:href="#SVGID_1_"  style="overflow:visible;"/>
			</clipPath>
			<rect y="0" class="st0" width="735" height="555"/>
		</g>
	</g>
	<g>
		<rect y="0" class="st1" width="735" height="555"/>
		<path class="st1" d="M96,494h570V42H96V494z"/>
	</g>
	<g>
		<line class="st2" x1="96" y1="494" x2="666" y2="494"/>
		<line class="st2" x1="96" y1="42" x2="666" y2="42"/>
		<line class="st3" x1="172" y1="494" x2="172" y2="488.3"/>
		<line class="st3" x1="362" y1="494" x2="362" y2="488.3"/>
		<line class="st3" x1="552" y1="494" x2="552" y2="488.3"/>
		<line class="st3" x1="172" y1="42" x2="172" y2="47.7"/>
		<line class="st3" x1="362" y1="42" x2="362" y2="47.7"/>
		<line class="st3" x1="552" y1="42" x2="552" y2="47.7"/>
	</g>
	<g transform="translate(172,503.6)">
		<text transform="matrix(1 0 0 1 -25.5 36)" class="st4 st5 st6">-15</text>
	</g>
	<g transform="translate(362,503.6)">
		<text transform="matrix(1 0 0 1 -25.5 36)" class="st4 st5 st6">-10</text>
	</g>
	<g transform="translate(552,503.6)">
		<text transform="matrix(1 0 0 1 -16 36)" class="st4 st5 st6">-5</text>
	</g>
	<g transform="translate(350,567)">
		<text transform="matrix(1 0 0 1 0 -1.464844e-05)" class="st4 st5 st7">q</text>
	</g>
	<g transform="translate(371,585)">
		<text transform="matrix(1 0 0 1 0 -1.464844e-05)" class="st4 st5 st8">t,2</text>
	</g>
	<g>
		<line class="st2" x1="96" y1="494" x2="96" y2="42"/>
		<line class="st2" x1="666" y1="494" x2="666" y2="42"/>
		<line class="st3" x1="96" y1="494" x2="101.7" y2="494"/>
		<line class="st3" x1="96" y1="381" x2="101.7" y2="381"/>
		<line class="st3" x1="96" y1="268" x2="101.7" y2="268"/>
		<line class="st3" x1="96" y1="155" x2="101.7" y2="155"/>
		<line class="st3" x1="96" y1="42" x2="101.7" y2="42"/>
		<line class="st3" x1="666" y1="494" x2="660.3" y2="494"/>
		<line class="st3" x1="666" y1="381" x2="660.3" y2="381"/>
		<line class="st3" x1="666" y1="268" x2="660.3" y2="268"/>
		<line class="st3" x1="666" y1="155" x2="660.3" y2="155"/>
		<line class="st3" x1="666" y1="42" x2="660.3" y2="42"/>
	</g>
	<g transform="translate(86.4,494)">
		<text transform="matrix(1 0 0 1 -32 14)" class="st4 st5 st6">-1</text>
	</g>
	<g transform="translate(86.4,381)">
		<text transform="matrix(1 0 0 1 -61 14)" class="st4 st5 st6">-0.5</text>
	</g>
	<g transform="translate(86.4,268)">
		<text transform="matrix(1 0 0 1 -20 14)" class="st4 st5 st6">0</text>
	</g>
	<g transform="translate(86.4,155)">
		<text transform="matrix(1 0 0 1 -49 14)" class="st4 st5 st6">0.5</text>
	</g>
	<g transform="translate(86.4,42)">
		<text transform="matrix(1 0 0 1 -20 14)" class="st4 st5 st6">1</text>
	</g>
	<g transform="translate(35,296) rotate(-90)">
		<text transform="matrix(1 0 0 1 -3.515625e-04 0)" class="st4 st5 st7">p</text>
	</g>
	<g transform="translate(53,275) rotate(-90)">
		<text transform="matrix(1 0 0 1 -3.515625e-04 0)" class="st4 st5 st8">t,2</text>
	</g>
	<g transform="translate(359,18)">
		<text transform="matrix(1 0 0 1 0 -1.464844e-05)" class="st5 st7">T</text>
	</g>
	<g transform="translate(382,36)">
		<text transform="matrix(1 0 0 1 0 -1.464844e-05)" class="st5 st8">2</text>
	</g>
	<g>
		<line class="st9" x1="96" y1="188.6" x2="107.4" y2="193.7"/>
		<line class="st10" x1="107.4" y1="193.7" x2="118.8" y2="198.9"/>
		<line class="st10" x1="118.8" y1="198.9" x2="130.2" y2="204.2"/>
		<line class="st10" x1="130.2" y1="204.2" x2="141.6" y2="209.6"/>
		<line class="st10" x1="141.6" y1="209.6" x2="153" y2="215.1"/>
		<line class="st10" x1="153" y1="215.1" x2="164.4" y2="220.7"/>
		<line class="st10" x1="164.4" y1="220.7" x2="175.8" y2="226.4"/>
		<line class="st10" x1="175.8" y1="226.4" x2="187.2" y2="232.2"/>
		<line class="st10" x1="187.2" y1="232.2" x2="198.6" y2="238.1"/>
		<line class="st10" x1="198.6" y1="238.1" x2="210" y2="244"/>
		<line class="st10" x1="210" y1="244" x2="221.4" y2="250"/>
		<line class="st10" x1="221.4" y1="250" x2="232.8" y2="256.1"/>
		<line class="st10" x1="232.8" y1="256.1" x2="244.2" y2="262.1"/>
		<line class="st10" x1="244.2" y1="262.1" x2="255.6" y2="268.2"/>
		<line class="st10" x1="255.6" y1="268.2" x2="267" y2="274.2"/>
		<line class="st10" x1="267" y1="274.2" x2="278.4" y2="280.3"/>
		<line class="st10" x1="278.4" y1="280.3" x2="289.8" y2="286.3"/>
		<line class="st10" x1="289.8" y1="286.3" x2="301.2" y2="292.3"/>
		<line class="st10" x1="301.2" y1="292.3" x2="312.6" y2="298.2"/>
		<line class="st10" x1="312.6" y1="298.2" x2="324" y2="304.1"/>
		<line class="st10" x1="324" y1="304.1" x2="335.4" y2="309.9"/>
		<line class="st10" x1="335.4" y1="309.9" x2="346.8" y2="315.6"/>
		<line class="st10" x1="346.8" y1="315.6" x2="358.2" y2="321.2"/>
		<line class="st10" x1="358.2" y1="321.2" x2="369.6" y2="326.7"/>
		<line class="st10" x1="369.6" y1="326.7" x2="381" y2="332.1"/>
		<line class="st10" x1="381" y1="332.1" x2="392.4" y2="337.4"/>
		<line class="st10" x1="392.4" y1="337.4" x2="403.8" y2="342.6"/>
		<line class="st10" x1="403.8" y1="342.6" x2="415.2" y2="347.6"/>
		<line class="st10" x1="415.2" y1="347.6" x2="426.6" y2="352.5"/>
		<line class="st10" x1="426.6" y1="352.5" x2="438" y2="357.3"/>
		<line class="st10" x1="438" y1="357.3" x2="449.4" y2="361.9"/>
		<line class="st10" x1="449.4" y1="361.9" x2="460.8" y2="366.4"/>
		<line class="st10" x1="460.8" y1="366.4" x2="472.2" y2="370.8"/>
		<line class="st10" x1="472.2" y1="370.8" x2="483.6" y2="375"/>
		<line class="st10" x1="483.6" y1="375" x2="495" y2="379.1"/>
		<line class="st10" x1="495" y1="379.1" x2="506.4" y2="383"/>
		<line class="st10" x1="506.4" y1="383" x2="517.8" y2="386.8"/>
		<line class="st10" x1="517.8" y1="386.8" x2="529.2" y2="390.5"/>
		<line class="st10" x1="529.2" y1="390.5" x2="540.6" y2="394"/>
		<line class="st10" x1="540.6" y1="394" x2="552" y2="397.4"/>
		<line class="st10" x1="552" y1="397.4" x2="563.4" y2="400.7"/>
		<line class="st10" x1="563.4" y1="400.7" x2="574.8" y2="403.9"/>
		<line class="st10" x1="574.8" y1="403.9" x2="586.2" y2="406.9"/>
		<line class="st10" x1="586.2" y1="406.9" x2="597.6" y2="409.8"/>
		<line class="st10" x1="597.6" y1="409.8" x2="609" y2="412.6"/>
		<line class="st10" x1="609" y1="412.6" x2="620.4" y2="415.3"/>
		<line class="st10" x1="620.4" y1="415.3" x2="631.8" y2="417.9"/>
		<line class="st10" x1="631.8" y1="417.9" x2="643.2" y2="420.4"/>
		<line class="st10" x1="643.2" y1="420.4" x2="654.6" y2="422.8"/>
		<line class="st9" x1="654.6" y1="422.8" x2="666" y2="425.1"/>
		<line class="st9" x1="666" y1="188.6" x2="666" y2="425.1"/>
		<line class="st11" x1="96" y1="42.8" x2="107.4" y2="42.8"/>
		<line class="st12" x1="107.4" y1="42.8" x2="118.8" y2="42.9"/>
		<line class="st12" x1="118.8" y1="42.9" x2="130.2" y2="42.9"/>
		<line class="st12" x1="130.2" y1="42.9" x2="141.6" y2="43"/>
		<line class="st12" x1="141.6" y1="43" x2="153" y2="43"/>
		<line class="st12" x1="153" y1="43" x2="164.4" y2="43"/>
		<line class="st12" x1="164.4" y1="43" x2="175.8" y2="43.1"/>
		<line class="st12" x1="175.8" y1="43.1" x2="187.2" y2="43.1"/>
		<line class="st12" x1="187.2" y1="43.1" x2="198.6" y2="43.2"/>
		<line class="st12" x1="198.6" y1="43.2" x2="210" y2="43.2"/>
		<line class="st12" x1="210" y1="43.2" x2="221.4" y2="43.3"/>
		<line class="st12" x1="221.4" y1="43.3" x2="232.8" y2="43.4"/>
		<line class="st12" x1="232.8" y1="43.4" x2="244.2" y2="43.4"/>
		<line class="st12" x1="244.2" y1="43.4" x2="255.6" y2="43.5"/>
		<line class="st12" x1="255.6" y1="43.5" x2="267" y2="43.6"/>
		<line class="st12" x1="267" y1="43.6" x2="278.4" y2="43.7"/>
		<line class="st12" x1="278.4" y1="43.7" x2="289.8" y2="43.8"/>
		<line class="st12" x1="289.8" y1="43.8" x2="301.2" y2="43.9"/>
		<line class="st12" x1="301.2" y1="43.9" x2="312.6" y2="44"/>
		<line class="st12" x1="312.6" y1="44" x2="324" y2="44.1"/>
		<line class="st12" x1="324" y1="44.1" x2="335.4" y2="44.3"/>
		<line class="st12" x1="335.4" y1="44.3" x2="346.8" y2="44.4"/>
		<line class="st12" x1="346.8" y1="44.4" x2="358.2" y2="44.6"/>
		<line class="st12" x1="358.2" y1="44.6" x2="369.6" y2="44.8"/>
		<line class="st12" x1="369.6" y1="44.8" x2="381" y2="45"/>
		<line class="st12" x1="381" y1="45" x2="392.4" y2="45.2"/>
		<line class="st12" x1="392.4" y1="45.2" x2="403.8" y2="45.5"/>
		<line class="st12" x1="403.8" y1="45.5" x2="415.2" y2="45.8"/>
		<line class="st12" x1="415.2" y1="45.8" x2="426.6" y2="46.1"/>
		<line class="st12" x1="426.6" y1="46.1" x2="438" y2="46.5"/>
		<line class="st12" x1="438" y1="46.5" x2="449.4" y2="46.9"/>
		<line class="st12" x1="449.4" y1="46.9" x2="460.8" y2="47.4"/>
		<line class="st12" x1="460.8" y1="47.4" x2="472.2" y2="48"/>
		<line class="st12" x1="472.2" y1="48" x2="483.6" y2="48.7"/>
		<line class="st12" x1="483.6" y1="48.7" x2="495" y2="49.5"/>
		<line class="st12" x1="495" y1="49.5" x2="506.4" y2="50.4"/>
		<line class="st12" x1="506.4" y1="50.4" x2="517.8" y2="51.5"/>
		<line class="st12" x1="517.8" y1="51.5" x2="529.2" y2="52.8"/>
		<line class="st12" x1="529.2" y1="52.8" x2="540.6" y2="54.5"/>
		<line class="st12" x1="540.6" y1="54.5" x2="552" y2="56.5"/>
		<line class="st12" x1="552" y1="56.5" x2="563.4" y2="59"/>
		<line class="st12" x1="563.4" y1="59" x2="574.8" y2="62.3"/>
		<line class="st12" x1="574.8" y1="62.3" x2="586.2" y2="66.4"/>
		<line class="st12" x1="586.2" y1="66.4" x2="597.6" y2="72"/>
		<line class="st12" x1="597.6" y1="72" x2="609" y2="79.4"/>
		<line class="st12" x1="609" y1="79.4" x2="620.4" y2="89.5"/>
		<line class="st12" x1="620.4" y1="89.5" x2="631.8" y2="103.7"/>
		<line class="st12" x1="631.8" y1="103.7" x2="643.2" y2="123.5"/>
		<line class="st12" x1="643.2" y1="123.5" x2="654.6" y2="151.3"/>
		<line class="st11" x1="654.6" y1="151.3" x2="666" y2="188.6"/>
		<line class="st9" x1="96" y1="42.8" x2="96" y2="188.6"/>
		<line class="st9" x1="96" y1="42.8" x2="107.4" y2="42.8"/>
		<line class="st10" x1="107.4" y1="42.8" x2="118.8" y2="42.9"/>
		<line class="st10" x1="118.8" y1="42.9" x2="130.2" y2="42.9"/>
		<line class="st10" x1="130.2" y1="42.9" x2="141.6" y2="43"/>
		<line class="st10" x1="141.6" y1="43" x2="153" y2="43"/>
		<line class="st10" x1="153" y1="43" x2="164.4" y2="43"/>
		<line class="st10" x1="164.4" y1="43" x2="175.8" y2="43.1"/>
		<line class="st10" x1="175.8" y1="43.1" x2="187.2" y2="43.1"/>
		<line class="st10" x1="187.2" y1="43.1" x2="198.6" y2="43.2"/>
		<line class="st10" x1="198.6" y1="43.2" x2="210" y2="43.2"/>
		<line class="st10" x1="210" y1="43.2" x2="221.4" y2="43.3"/>
		<line class="st10" x1="221.4" y1="43.3" x2="232.8" y2="43.4"/>
		<line class="st10" x1="232.8" y1="43.4" x2="244.2" y2="43.4"/>
		<line class="st10" x1="244.2" y1="43.4" x2="255.6" y2="43.5"/>
		<line class="st10" x1="255.6" y1="43.5" x2="267" y2="43.6"/>
		<line class="st10" x1="267" y1="43.6" x2="278.4" y2="43.7"/>
		<line class="st10" x1="278.4" y1="43.7" x2="289.8" y2="43.8"/>
		<line class="st10" x1="289.8" y1="43.8" x2="301.2" y2="43.9"/>
		<line class="st10" x1="301.2" y1="43.9" x2="312.6" y2="44"/>
		<line class="st10" x1="312.6" y1="44" x2="324" y2="44.1"/>
		<line class="st10" x1="324" y1="44.1" x2="335.4" y2="44.3"/>
		<line class="st10" x1="335.4" y1="44.3" x2="346.8" y2="44.4"/>
		<line class="st10" x1="346.8" y1="44.4" x2="358.2" y2="44.6"/>
		<line class="st10" x1="358.2" y1="44.6" x2="369.6" y2="44.8"/>
		<line class="st10" x1="369.6" y1="44.8" x2="381" y2="45"/>
		<line class="st10" x1="381" y1="45" x2="392.4" y2="45.2"/>
		<line class="st10" x1="392.4" y1="45.2" x2="403.8" y2="45.5"/>
		<line class="st10" x1="403.8" y1="45.5" x2="415.2" y2="45.8"/>
		<line class="st10" x1="415.2" y1="45.8" x2="426.6" y2="46.1"/>
		<line class="st10" x1="426.6" y1="46.1" x2="438" y2="46.5"/>
		<line class="st10" x1="438" y1="46.5" x2="449.4" y2="46.9"/>
		<line class="st10" x1="449.4" y1="46.9" x2="460.8" y2="47.4"/>
		<line class="st10" x1="460.8" y1="47.4" x2="472.2" y2="48"/>
		<line class="st10" x1="472.2" y1="48" x2="483.6" y2="48.7"/>
		<line class="st10" x1="483.6" y1="48.7" x2="495" y2="49.5"/>
		<line class="st10" x1="495" y1="49.5" x2="506.4" y2="50.4"/>
		<line class="st10" x1="506.4" y1="50.4" x2="517.8" y2="51.5"/>
		<line class="st10" x1="517.8" y1="51.5" x2="529.2" y2="52.8"/>
		<line class="st10" x1="529.2" y1="52.8" x2="540.6" y2="54.5"/>
		<line class="st10" x1="540.6" y1="54.5" x2="552" y2="56.5"/>
		<line class="st10" x1="552" y1="56.5" x2="563.4" y2="59"/>
		<line class="st10" x1="563.4" y1="59" x2="574.8" y2="62.3"/>
		<line class="st10" x1="574.8" y1="62.3" x2="586.2" y2="66.4"/>
		<line class="st10" x1="586.2" y1="66.4" x2="597.6" y2="72"/>
		<line class="st10" x1="597.6" y1="72" x2="609" y2="79.4"/>
		<line class="st10" x1="609" y1="79.4" x2="620.4" y2="89.5"/>
		<line class="st10" x1="620.4" y1="89.5" x2="631.8" y2="103.7"/>
		<line class="st10" x1="631.8" y1="103.7" x2="643.2" y2="123.5"/>
		<line class="st10" x1="643.2" y1="123.5" x2="654.6" y2="151.3"/>
		<line class="st9" x1="654.6" y1="151.3" x2="666" y2="188.6"/>
		<line class="st11" x1="96" y1="42" x2="107.4" y2="42"/>
		<line class="st12" x1="107.4" y1="42" x2="118.8" y2="42"/>
		<line class="st12" x1="118.8" y1="42" x2="130.2" y2="42"/>
		<line class="st12" x1="130.2" y1="42" x2="141.6" y2="42"/>
		<line class="st12" x1="141.6" y1="42" x2="153" y2="42"/>
		<line class="st12" x1="153" y1="42" x2="164.4" y2="42"/>
		<line class="st12" x1="164.4" y1="42" x2="175.8" y2="42"/>
		<line class="st12" x1="175.8" y1="42" x2="187.2" y2="42"/>
		<line class="st12" x1="187.2" y1="42" x2="198.6" y2="42"/>
		<line class="st12" x1="198.6" y1="42" x2="210" y2="42"/>
		<line class="st12" x1="210" y1="42" x2="221.4" y2="42"/>
		<line class="st12" x1="221.4" y1="42" x2="232.8" y2="42"/>
		<line class="st12" x1="232.8" y1="42" x2="244.2" y2="42"/>
		<line class="st12" x1="244.2" y1="42" x2="255.6" y2="42"/>
		<line class="st12" x1="255.6" y1="42" x2="267" y2="42"/>
		<line class="st12" x1="267" y1="42" x2="278.4" y2="42"/>
		<line class="st12" x1="278.4" y1="42" x2="289.8" y2="42"/>
		<line class="st12" x1="289.8" y1="42" x2="301.2" y2="42"/>
		<line class="st12" x1="301.2" y1="42" x2="312.6" y2="42"/>
		<line class="st12" x1="312.6" y1="42" x2="324" y2="42"/>
		<line class="st12" x1="324" y1="42" x2="335.4" y2="42"/>
		<line class="st12" x1="335.4" y1="42" x2="346.8" y2="42"/>
		<line class="st12" x1="346.8" y1="42" x2="358.2" y2="42"/>
		<line class="st12" x1="358.2" y1="42" x2="369.6" y2="42"/>
		<line class="st12" x1="369.6" y1="42" x2="381" y2="42"/>
		<line class="st12" x1="381" y1="42" x2="392.4" y2="42"/>
		<line class="st12" x1="392.4" y1="42" x2="403.8" y2="42"/>
		<line class="st12" x1="403.8" y1="42" x2="415.2" y2="42"/>
		<line class="st12" x1="415.2" y1="42" x2="426.6" y2="42"/>
		<line class="st12" x1="426.6" y1="42" x2="438" y2="42"/>
		<line class="st12" x1="438" y1="42" x2="449.4" y2="42"/>
		<line class="st12" x1="449.4" y1="42" x2="460.8" y2="42"/>
		<line class="st12" x1="460.8" y1="42" x2="472.2" y2="42"/>
		<line class="st12" x1="472.2" y1="42" x2="483.6" y2="42"/>
		<line class="st12" x1="483.6" y1="42" x2="495" y2="42"/>
		<line class="st12" x1="495" y1="42" x2="506.4" y2="42"/>
		<line class="st12" x1="506.4" y1="42" x2="517.8" y2="42"/>
		<line class="st12" x1="517.8" y1="42" x2="529.2" y2="42"/>
		<line class="st12" x1="529.2" y1="42" x2="540.6" y2="42"/>
		<line class="st12" x1="540.6" y1="42" x2="552" y2="42"/>
		<line class="st12" x1="552" y1="42" x2="563.4" y2="42"/>
		<line class="st12" x1="563.4" y1="42" x2="574.8" y2="42"/>
		<line class="st12" x1="574.8" y1="42" x2="586.2" y2="42"/>
		<line class="st12" x1="586.2" y1="42" x2="597.6" y2="42"/>
		<line class="st12" x1="597.6" y1="42" x2="609" y2="42"/>
		<line class="st12" x1="609" y1="42" x2="620.4" y2="42"/>
		<line class="st12" x1="620.4" y1="42" x2="631.8" y2="42"/>
		<line class="st12" x1="631.8" y1="42" x2="643.2" y2="42"/>
		<line class="st11" x1="643.2" y1="42" x2="654.6" y2="42"/>
		<line class="st11" x1="96" y1="42" x2="96" y2="42.8"/>
		<line class="st9" x1="666" y1="42" x2="666" y2="188.6"/>
		<line class="st13" x1="96" y1="42" x2="666" y2="42"/>
		<line class="st14" x1="443" y1="361.5" x2="452" y2="361.5"/>
	</g>
	<g>
		<line class="st15" x1="447.5" y1="366" x2="447.5" y2="357"/>
		<line class="st15" x1="444" y1="365" x2="451" y2="358"/>
		<line class="st14" x1="444" y1="358" x2="451" y2="365"/>
		<line class="st14" x1="662" y1="361.5" x2="671" y2="361.5"/>
		<line class="st15" x1="666.5" y1="366" x2="666.5" y2="357"/>
		<line class="st15" x1="663" y1="365" x2="670" y2="358"/>
		<line class="st14" x1="663" y1="358" x2="670" y2="365"/>
		<line class="st16" x1="369.5" y1="361.5" x2="368.7" y2="359.1"/>
		<line class="st17" x1="368.7" y1="359.1" x2="366.7" y2="357.7"/>
		<line class="st17" x1="366.7" y1="357.7" x2="364.3" y2="357.7"/>
		<line class="st17" x1="364.3" y1="357.7" x2="362.3" y2="359.1"/>
		<line class="st17" x1="362.3" y1="359.1" x2="361.5" y2="361.5"/>
		<line class="st17" x1="361.5" y1="361.5" x2="362.3" y2="363.9"/>
		<line class="st17" x1="362.3" y1="363.9" x2="364.3" y2="365.3"/>
		<line class="st17" x1="364.3" y1="365.3" x2="366.7" y2="365.3"/>
		<line class="st17" x1="366.7" y1="365.3" x2="368.7" y2="363.9"/>
		<line class="st16" x1="368.7" y1="363.9" x2="369.5" y2="361.5"/>
		<line class="st16" x1="666.5" y1="361.5" x2="665.7" y2="359.1"/>
		<line class="st17" x1="665.7" y1="359.1" x2="663.7" y2="357.7"/>
		<line class="st17" x1="663.7" y1="357.7" x2="661.3" y2="357.7"/>
		<line class="st17" x1="661.3" y1="357.7" x2="659.3" y2="359.1"/>
		<line class="st17" x1="659.3" y1="359.1" x2="658.5" y2="361.5"/>
		<line class="st17" x1="658.5" y1="361.5" x2="659.3" y2="363.9"/>
		<line class="st17" x1="659.3" y1="363.9" x2="661.3" y2="365.3"/>
		<line class="st17" x1="661.3" y1="365.3" x2="663.7" y2="365.3"/>
		<line class="st17" x1="663.7" y1="365.3" x2="665.7" y2="363.9"/>
		<line class="st16" x1="665.7" y1="363.9" x2="666.5" y2="361.5"/>
	</g>
	<g>
		<line class="st18" x1="447.2" y1="361.1" x2="662.2" y2="361.1"/>
	</g>
	<g>
		<line class="st19" x1="365.4" y1="361.1" x2="662.2" y2="361.1"/>
	</g>
	<g transform="translate(388,193)">
		<text transform="matrix(1 0 0 1 0 -1.464844e-05)" class="st5 st7">T</text>
	</g>
	<g transform="translate(411,211)">
		<text transform="matrix(1 0 0 1 0 -1.464844e-05)" class="st5 st8">2,3</text>
	</g>
	<g transform="translate(606,77)">
		<text transform="matrix(1 0 0 1 0 -1.464844e-05)" class="st5 st7">T</text>
	</g>
	<g transform="translate(629,95)">
		<text transform="matrix(1 0 0 1 0 -1.464844e-05)" class="st5 st8">2,1</text>
	</g>
	<g transform="translate(466,464)">
		<text transform="matrix(1 0 0 1 0 -1.464844e-05)" class="st20 st5 st7">q</text>
	</g>
	<g transform="translate(487,482)">
		<text transform="matrix(1 0 0 1 0 -1.464844e-05)" class="st20 st5 st8">t,2</text>
	</g>
	<g transform="translate(487,446)">
		<text transform="matrix(1 0 0 1 0 -1.464844e-05)" class="st20 st5 st8">max</text>
	</g>
	<g transform="translate(542,464)">
		<text transform="matrix(1 0 0 1 0 -1.464844e-05)" class="st20 st5 st7"> = v</text>
	</g>
	<g transform="translate(603,482)">
		<text transform="matrix(1 0 0 1 0 -1.464844e-05)" class="st20 st5 st8">2,3</text>
	</g>
	<g transform="translate(603,446)">
		<text transform="matrix(1 0 0 1 0 -1.464844e-05)" class="st20 st5 st8">max</text>
	</g>
	<g transform="translate(207,457)">
		<text transform="matrix(1 0 0 1 0 -1.464844e-05)" class="st20 st5 st7">q</text>
	</g>
	<g transform="translate(228,475)">
		<text transform="matrix(1 0 0 1 0 -1.464844e-05)" class="st20 st5 st8">t,2</text>
	</g>
	<g transform="translate(228,439)">
		<text transform="matrix(1 0 0 1 0 -1.464844e-05)" class="st20 st5 st8">min</text>
	</g>
	<g transform="translate(275,457)">
		<text transform="matrix(1 0 0 1 0 -1.464844e-05)" class="st20 st5 st7"> </text>
	</g>
	<g transform="translate(139,180)">
		<text transform="matrix(1 0 0 1 0 -1.464844e-05)" class="st21 st5 st7">u</text>
	</g>
	<g transform="translate(160,198)">
		<text transform="matrix(1 0 0 1 0 -1.464844e-05)" class="st21 st5 st8">2,3</text>
	</g>
	<g transform="translate(160,162)">
		<text transform="matrix(1 0 0 1 0 -1.464844e-05)" class="st21 st5 st8">min</text>
	</g>
	<g transform="translate(207,180)">
		<text transform="matrix(1 0 0 1 0 -1.464844e-05)" class="st21 st5 st7"> = v</text>
	</g>
	<g transform="translate(268,198)">
		<text transform="matrix(1 0 0 1 0 -1.464844e-05)" class="st21 st5 st8">2,3</text>
	</g>
	<g transform="translate(268,162)">
		<text transform="matrix(1 0 0 1 0 -1.464844e-05)" class="st21 st5 st8">min</text>
	</g>
	<g transform="translate(572,231)">
		<text transform="matrix(1 0 0 1 0 -1.464844e-05)" class="st21 st5 st7">u</text>
	</g>
	<g transform="translate(593,249)">
		<text transform="matrix(1 0 0 1 0 -1.464844e-05)" class="st21 st5 st8">2,3</text>
	</g>
	<g transform="translate(593,213)">
		<text transform="matrix(1 0 0 1 0 -1.464844e-05)" class="st21 st5 st8">max</text>
	</g>
	<g transform="translate(648,231)">
		<text transform="matrix(1 0 0 1 0 -1.464844e-05)" class="st21 st5 st7"> </text>
	</g>
	<g>
		<line class="st22" x1="235" y1="189" x2="440.3" y2="350.6"/>
		<path class="st23" d="M439.7,343.8l7.4,12.2l-6.8-5.4L439.7,343.8"/>
		<path class="st23" d="M447.1,356l-13.6-4.3l6.8-1L447.1,356"/>
	</g>
	<g>
		<path class="st21" d="M439.7,343.8l7.4,12.2l-6.8-5.4L439.7,343.8z"/>
		<path class="st21" d="M447.1,356l-13.6-4.3l6.8-1L447.1,356z"/>
	</g>
	<g>
		<line class="st24" x1="263" y1="416" x2="353.8" y2="370.1"/>
		<path class="st25" d="M347.3,367.7l14.2-1.6l-7.7,3.9L347.3,367.7"/>
		<path class="st25" d="M361.5,366.2l-9.6,10.5l1.9-6.6L361.5,366.2"/>
	</g>
	<g>
		<path class="st20" d="M347.3,367.7l14.2-1.6l-7.7,3.9L347.3,367.7z"/>
		<path class="st20" d="M361.5,366.2l-9.6,10.5l1.9-6.6L361.5,366.2z"/>
	</g>
	<g>
		<line class="st24" x1="571" y1="435" x2="652.7" y2="370.8"/>
		<path class="st25" d="M646,369.8l13.6-4.3l-6.8,5.4L646,369.8"/>
		<path class="st25" d="M659.5,365.5l-7.4,12.2l0.6-6.8L659.5,365.5"/>
	</g>
	<g>
		<path class="st20" d="M646,369.8l13.6-4.3l-6.8,5.4L646,369.8z"/>
		<path class="st20" d="M659.5,365.5l-7.4,12.2l0.6-6.8L659.5,365.5z"/>
	</g>
	<g>
		<line class="st22" x1="588" y1="253" x2="651.1" y2="344.9"/>
		<path class="st23" d="M652.6,338.2L656,352l-4.9-7.1L652.6,338.2"/>
		<path class="st23" d="M656,352l-11.7-8.2l6.8,1L656,352"/>
	</g>
	<g>
		<path class="st21" d="M652.6,338.2L656,352l-4.9-7.1L652.6,338.2z"/>
		<path class="st21" d="M656,352l-11.7-8.2l6.8,1L656,352z"/>
	</g>
</g>
</svg>
