<?xml version="1.0" encoding="utf-8"?>
<!-- Generator: Adobe Illustrator 21.1.0, SVG Export Plug-In . SVG Version: 6.00 Build 0)  -->
<svg version="1.1" id="Layer_1" xmlns="http://www.w3.org/2000/svg" xmlns:xlink="http://www.w3.org/1999/xlink" x="0px" y="0px"
	 viewBox="0 0 735 555" style="enable-background:new 0 0 735 555;" xml:space="preserve">
<style type="text/css">
	.st0{clip-path:url(#SVGID_2_);fill:#FFFFFF;}
	.st1{fill:#FFFFFF;}
	.st2{fill:none;stroke:#262626;stroke-width:0.6667;stroke-linejoin:round;stroke-miterlimit:10;}
	.st3{fill:none;stroke:#262626;stroke-width:0.6667;stroke-linecap:square;stroke-linejoin:round;stroke-miterlimit:10;}
	.st4{fill:#262626;}
	.st5{font-family:'MyriadPro-Regular';}
	.st6{font-size:35px;}
	.st7{font-size:37px;}
	.st8{font-size:29px;}
	.st9{fill:none;stroke:#FF0000;stroke-width:0.6667;stroke-linejoin:round;stroke-miterlimit:10;}
	.st10{fill:none;stroke:#FF0000;stroke-width:0.6667;stroke-linecap:round;stroke-linejoin:round;stroke-miterlimit:10;}
	.st11{fill:none;stroke:#FF0000;stroke-width:1.6;stroke-linejoin:round;stroke-miterlimit:10;}
	.st12{fill:none;stroke:#FF0000;stroke-width:1.6;stroke-linecap:round;stroke-linejoin:round;stroke-miterlimit:10;}
	.st13{fill:none;stroke:#FF0000;stroke-width:1.3333;stroke-linejoin:round;stroke-miterlimit:10;}
	.st14{fill:none;stroke:#FF00FF;stroke-width:2.6667;stroke-linejoin:round;stroke-miterlimit:10;}
	.st15{fill:none;stroke:#FF00FF;stroke-width:2.6667;stroke-linecap:round;stroke-linejoin:round;stroke-miterlimit:10;}
	.st16{fill:none;stroke:#0000FF;stroke-width:2.6667;stroke-linejoin:round;stroke-miterlimit:10;}
	.st17{fill:none;stroke:#0000FF;stroke-width:2.6667;stroke-linecap:round;stroke-linejoin:round;stroke-miterlimit:10;}
	.st18{fill:none;stroke:#000000;stroke-width:1.3333;stroke-linejoin:round;stroke-miterlimit:10;}
	.st19{fill:none;stroke:#000000;stroke-width:1.3333;stroke-linejoin:bevel;stroke-miterlimit:1;stroke-dasharray:10,6;}
	.st20{fill:#0000FF;}
	.st21{fill:none;stroke:#0000FF;stroke-width:1.3333;stroke-linejoin:round;stroke-miterlimit:10;}
	.st22{fill:none;stroke:#0000FF;stroke-width:0.6667;stroke-linejoin:round;stroke-miterlimit:10;}
	.st23{fill:#FF00FF;}
	.st24{fill:none;stroke:#FF00FF;stroke-width:1.3333;stroke-linejoin:round;stroke-miterlimit:10;}
	.st25{fill:none;stroke:#FF00FF;stroke-width:0.6667;stroke-linejoin:round;stroke-miterlimit:10;}
</style>
<g>
	<g>
		<g>
			<defs>
				<rect id="SVGID_1_" y="0" width="735" height="555"/>
			</defs>
			<clipPath id="SVGID_2_">
				<use xlink:href="#SVGID_1_"  style="overflow:visible;"/>
			</clipPath>
			<rect y="0" class="st0" width="735" height="555"/>
		</g>
	</g>
	<g>
		<rect y="0" class="st1" width="735" height="555"/>
		<path class="st1" d="M96,489h569V42H96V489z"/>
	</g>
	<g>
		<line class="st2" x1="96" y1="489" x2="665" y2="489"/>
		<line class="st2" x1="96" y1="42" x2="665" y2="42"/>
		<line class="st3" x1="209.8" y1="489" x2="209.8" y2="483.3"/>
		<line class="st3" x1="399.5" y1="489" x2="399.5" y2="483.3"/>
		<line class="st3" x1="589.1" y1="489" x2="589.1" y2="483.3"/>
		<line class="st3" x1="209.8" y1="42" x2="209.8" y2="47.7"/>
		<line class="st3" x1="399.5" y1="42" x2="399.5" y2="47.7"/>
		<line class="st3" x1="589.1" y1="42" x2="589.1" y2="47.7"/>
	</g>
	<g transform="translate(209.8,498.6)">
		<text transform="matrix(1 0 0 1 -10 36)" class="st4 st5 st6">5</text>
	</g>
	<g transform="translate(399.4667,498.6)">
		<text transform="matrix(1 0 0 1 -19.5 36)" class="st4 st5 st6">10</text>
	</g>
	<g transform="translate(589.1334,498.6)">
		<text transform="matrix(1 0 0 1 -19.5 36)" class="st4 st5 st6">15</text>
	</g>
	<g transform="translate(381,567)">
		<text transform="matrix(1 0 0 1 0 -1.464844e-05)" class="st4 st5 st7">q</text>
	</g>
	<g transform="translate(402,585)">
		<text transform="matrix(1 0 0 1 0 -1.464844e-05)" class="st4 st5 st8">t,3</text>
	</g>
	<g>
		<line class="st2" x1="96" y1="489" x2="96" y2="42"/>
		<line class="st2" x1="665" y1="489" x2="665" y2="42"/>
		<line class="st3" x1="96" y1="489" x2="101.7" y2="489"/>
		<line class="st3" x1="96" y1="377.3" x2="101.7" y2="377.3"/>
		<line class="st3" x1="96" y1="265.5" x2="101.7" y2="265.5"/>
		<line class="st3" x1="96" y1="153.7" x2="101.7" y2="153.7"/>
		<line class="st3" x1="96" y1="42" x2="101.7" y2="42"/>
		<line class="st3" x1="665" y1="489" x2="659.3" y2="489"/>
		<line class="st3" x1="665" y1="377.3" x2="659.3" y2="377.3"/>
		<line class="st3" x1="665" y1="265.5" x2="659.3" y2="265.5"/>
		<line class="st3" x1="665" y1="153.7" x2="659.3" y2="153.7"/>
		<line class="st3" x1="665" y1="42" x2="659.3" y2="42"/>
	</g>
	<g transform="translate(86.4,489)">
		<text transform="matrix(1 0 0 1 -32 14)" class="st4 st5 st6">-1</text>
	</g>
	<g transform="translate(86.4,377.25)">
		<text transform="matrix(1 0 0 1 -61 14)" class="st4 st5 st6">-0.5</text>
	</g>
	<g transform="translate(86.4,265.5)">
		<text transform="matrix(1 0 0 1 -20 14)" class="st4 st5 st6">0</text>
	</g>
	<g transform="translate(86.4,153.75)">
		<text transform="matrix(1 0 0 1 -49 14)" class="st4 st5 st6">0.5</text>
	</g>
	<g transform="translate(86.4,42)">
		<text transform="matrix(1 0 0 1 -20 14)" class="st4 st5 st6">1</text>
	</g>
	<g transform="translate(42,297) rotate(-90)">
		<text transform="matrix(1 0 0 1 -3.515625e-04 0)" class="st4 st5 st7">p</text>
	</g>
	<g transform="translate(60,276) rotate(-90)">
		<text transform="matrix(1 0 0 1 -3.515625e-04 0)" class="st4 st5 st8">t,3</text>
	</g>
	<g transform="translate(361,18)">
		<text transform="matrix(1 0 0 1 0 -1.464844e-05)" class="st5 st7">T</text>
	</g>
	<g transform="translate(384,36)">
		<text transform="matrix(1 0 0 1 0 -1.464844e-05)" class="st5 st8">3</text>
	</g>
	<g>
		<line class="st9" x1="96" y1="344" x2="107.4" y2="380.9"/>
		<line class="st10" x1="107.4" y1="380.9" x2="118.8" y2="408.4"/>
		<line class="st10" x1="118.8" y1="408.4" x2="130.1" y2="428"/>
		<line class="st10" x1="130.1" y1="428" x2="141.5" y2="442"/>
		<line class="st10" x1="141.5" y1="442" x2="152.9" y2="452.1"/>
		<line class="st10" x1="152.9" y1="452.1" x2="164.3" y2="459.4"/>
		<line class="st10" x1="164.3" y1="459.4" x2="175.7" y2="464.8"/>
		<line class="st10" x1="175.7" y1="464.8" x2="187" y2="469"/>
		<line class="st10" x1="187" y1="469" x2="198.4" y2="472.2"/>
		<line class="st10" x1="198.4" y1="472.2" x2="209.8" y2="474.7"/>
		<line class="st10" x1="209.8" y1="474.7" x2="221.2" y2="476.7"/>
		<line class="st10" x1="221.2" y1="476.7" x2="232.6" y2="478.3"/>
		<line class="st10" x1="232.6" y1="478.3" x2="243.9" y2="479.6"/>
		<line class="st10" x1="243.9" y1="479.6" x2="255.3" y2="480.7"/>
		<line class="st10" x1="255.3" y1="480.7" x2="266.7" y2="481.6"/>
		<line class="st10" x1="266.7" y1="481.6" x2="278.1" y2="482.4"/>
		<line class="st10" x1="278.1" y1="482.4" x2="289.5" y2="483.1"/>
		<line class="st10" x1="289.5" y1="483.1" x2="300.8" y2="483.6"/>
		<line class="st10" x1="300.8" y1="483.6" x2="312.2" y2="484.1"/>
		<line class="st10" x1="312.2" y1="484.1" x2="323.6" y2="484.6"/>
		<line class="st10" x1="323.6" y1="484.6" x2="335" y2="484.9"/>
		<line class="st10" x1="335" y1="484.9" x2="346.4" y2="485.3"/>
		<line class="st10" x1="346.4" y1="485.3" x2="357.7" y2="485.5"/>
		<line class="st10" x1="357.7" y1="485.5" x2="369.1" y2="485.8"/>
		<line class="st10" x1="369.1" y1="485.8" x2="380.5" y2="486"/>
		<line class="st10" x1="380.5" y1="486" x2="391.9" y2="486.2"/>
		<line class="st10" x1="391.9" y1="486.2" x2="403.3" y2="486.4"/>
		<line class="st10" x1="403.3" y1="486.4" x2="414.6" y2="486.6"/>
		<line class="st10" x1="414.6" y1="486.6" x2="426" y2="486.7"/>
		<line class="st10" x1="426" y1="486.7" x2="437.4" y2="486.9"/>
		<line class="st10" x1="437.4" y1="486.9" x2="448.8" y2="487"/>
		<line class="st10" x1="448.8" y1="487" x2="460.2" y2="487.1"/>
		<line class="st10" x1="460.2" y1="487.1" x2="471.5" y2="487.2"/>
		<line class="st10" x1="471.5" y1="487.2" x2="482.9" y2="487.3"/>
		<line class="st10" x1="482.9" y1="487.3" x2="494.3" y2="487.4"/>
		<line class="st10" x1="494.3" y1="487.4" x2="505.7" y2="487.5"/>
		<line class="st10" x1="505.7" y1="487.5" x2="517.1" y2="487.6"/>
		<line class="st10" x1="517.1" y1="487.6" x2="528.4" y2="487.6"/>
		<line class="st10" x1="528.4" y1="487.6" x2="539.8" y2="487.7"/>
		<line class="st10" x1="539.8" y1="487.7" x2="551.2" y2="487.8"/>
		<line class="st10" x1="551.2" y1="487.8" x2="562.6" y2="487.8"/>
		<line class="st10" x1="562.6" y1="487.8" x2="574" y2="487.9"/>
		<line class="st10" x1="574" y1="487.9" x2="585.3" y2="487.9"/>
		<line class="st10" x1="585.3" y1="487.9" x2="596.7" y2="488"/>
		<line class="st10" x1="596.7" y1="488" x2="608.1" y2="488"/>
		<line class="st10" x1="608.1" y1="488" x2="619.5" y2="488.1"/>
		<line class="st10" x1="619.5" y1="488.1" x2="630.9" y2="488.1"/>
		<line class="st10" x1="630.9" y1="488.1" x2="642.2" y2="488.1"/>
		<line class="st9" x1="642.2" y1="488.1" x2="653.6" y2="488.2"/>
		<line class="st11" x1="665" y1="344" x2="665" y2="488.2"/>
		<line class="st11" x1="96" y1="110.1" x2="107.4" y2="112.4"/>
		<line class="st12" x1="107.4" y1="112.4" x2="118.8" y2="114.8"/>
		<line class="st12" x1="118.8" y1="114.8" x2="130.1" y2="117.2"/>
		<line class="st12" x1="130.1" y1="117.2" x2="141.5" y2="119.8"/>
		<line class="st12" x1="141.5" y1="119.8" x2="152.9" y2="122.5"/>
		<line class="st12" x1="152.9" y1="122.5" x2="164.3" y2="125.3"/>
		<line class="st12" x1="164.3" y1="125.3" x2="175.7" y2="128.1"/>
		<line class="st12" x1="175.7" y1="128.1" x2="187" y2="131.1"/>
		<line class="st12" x1="187" y1="131.1" x2="198.4" y2="134.3"/>
		<line class="st12" x1="198.4" y1="134.3" x2="209.8" y2="137.5"/>
		<line class="st12" x1="209.8" y1="137.5" x2="221.2" y2="140.9"/>
		<line class="st12" x1="221.2" y1="140.9" x2="232.6" y2="144.4"/>
		<line class="st12" x1="232.6" y1="144.4" x2="243.9" y2="148"/>
		<line class="st12" x1="243.9" y1="148" x2="255.3" y2="151.8"/>
		<line class="st12" x1="255.3" y1="151.8" x2="266.7" y2="155.7"/>
		<line class="st12" x1="266.7" y1="155.7" x2="278.1" y2="159.7"/>
		<line class="st12" x1="278.1" y1="159.7" x2="289.5" y2="163.9"/>
		<line class="st12" x1="289.5" y1="163.9" x2="300.8" y2="168.2"/>
		<line class="st12" x1="300.8" y1="168.2" x2="312.2" y2="172.6"/>
		<line class="st12" x1="312.2" y1="172.6" x2="323.6" y2="177.2"/>
		<line class="st12" x1="323.6" y1="177.2" x2="335" y2="181.9"/>
		<line class="st12" x1="335" y1="181.9" x2="346.4" y2="186.8"/>
		<line class="st12" x1="346.4" y1="186.8" x2="357.7" y2="191.7"/>
		<line class="st12" x1="357.7" y1="191.7" x2="369.1" y2="196.8"/>
		<line class="st12" x1="369.1" y1="196.8" x2="380.5" y2="202.1"/>
		<line class="st12" x1="380.5" y1="202.1" x2="391.9" y2="207.4"/>
		<line class="st12" x1="391.9" y1="207.4" x2="403.3" y2="212.9"/>
		<line class="st12" x1="403.3" y1="212.9" x2="414.6" y2="218.4"/>
		<line class="st12" x1="414.6" y1="218.4" x2="426" y2="224.1"/>
		<line class="st12" x1="426" y1="224.1" x2="437.4" y2="229.8"/>
		<line class="st12" x1="437.4" y1="229.8" x2="448.8" y2="235.6"/>
		<line class="st12" x1="448.8" y1="235.6" x2="460.2" y2="241.5"/>
		<line class="st12" x1="460.2" y1="241.5" x2="471.5" y2="247.4"/>
		<line class="st12" x1="471.5" y1="247.4" x2="482.9" y2="253.4"/>
		<line class="st12" x1="482.9" y1="253.4" x2="494.3" y2="259.3"/>
		<line class="st12" x1="494.3" y1="259.3" x2="505.7" y2="265.3"/>
		<line class="st12" x1="505.7" y1="265.3" x2="517.1" y2="271.3"/>
		<line class="st12" x1="517.1" y1="271.3" x2="528.4" y2="277.3"/>
		<line class="st12" x1="528.4" y1="277.3" x2="539.8" y2="283.3"/>
		<line class="st12" x1="539.8" y1="283.3" x2="551.2" y2="289.2"/>
		<line class="st12" x1="551.2" y1="289.2" x2="562.6" y2="295.1"/>
		<line class="st12" x1="562.6" y1="295.1" x2="574" y2="300.9"/>
		<line class="st12" x1="574" y1="300.9" x2="585.3" y2="306.6"/>
		<line class="st12" x1="585.3" y1="306.6" x2="596.7" y2="312.3"/>
		<line class="st12" x1="596.7" y1="312.3" x2="608.1" y2="317.8"/>
		<line class="st12" x1="608.1" y1="317.8" x2="619.5" y2="323.3"/>
		<line class="st12" x1="619.5" y1="323.3" x2="630.9" y2="328.6"/>
		<line class="st12" x1="630.9" y1="328.6" x2="642.2" y2="333.9"/>
		<line class="st12" x1="642.2" y1="333.9" x2="653.6" y2="339"/>
		<line class="st11" x1="653.6" y1="339" x2="665" y2="344"/>
		<line class="st11" x1="96" y1="110.1" x2="96" y2="344"/>
		<line class="st9" x1="107.4" y1="489" x2="118.8" y2="489"/>
		<line class="st10" x1="118.8" y1="489" x2="130.1" y2="489"/>
		<line class="st10" x1="130.1" y1="489" x2="141.5" y2="489"/>
		<line class="st10" x1="141.5" y1="489" x2="152.9" y2="489"/>
		<line class="st10" x1="152.9" y1="489" x2="164.3" y2="489"/>
		<line class="st10" x1="164.3" y1="489" x2="175.7" y2="489"/>
		<line class="st10" x1="175.7" y1="489" x2="187" y2="489"/>
		<line class="st10" x1="187" y1="489" x2="198.4" y2="489"/>
		<line class="st10" x1="198.4" y1="489" x2="209.8" y2="489"/>
		<line class="st10" x1="209.8" y1="489" x2="221.2" y2="489"/>
		<line class="st10" x1="221.2" y1="489" x2="232.6" y2="489"/>
		<line class="st10" x1="232.6" y1="489" x2="243.9" y2="489"/>
		<line class="st10" x1="243.9" y1="489" x2="255.3" y2="489"/>
		<line class="st10" x1="255.3" y1="489" x2="266.7" y2="489"/>
		<line class="st10" x1="266.7" y1="489" x2="278.1" y2="489"/>
		<line class="st10" x1="278.1" y1="489" x2="289.5" y2="489"/>
		<line class="st10" x1="289.5" y1="489" x2="300.8" y2="489"/>
		<line class="st10" x1="300.8" y1="489" x2="312.2" y2="489"/>
		<line class="st10" x1="312.2" y1="489" x2="323.6" y2="489"/>
		<line class="st10" x1="323.6" y1="489" x2="335" y2="489"/>
		<line class="st10" x1="335" y1="489" x2="346.4" y2="489"/>
		<line class="st10" x1="346.4" y1="489" x2="357.7" y2="489"/>
		<line class="st10" x1="357.7" y1="489" x2="369.1" y2="489"/>
		<line class="st10" x1="369.1" y1="489" x2="380.5" y2="489"/>
		<line class="st10" x1="380.5" y1="489" x2="391.9" y2="489"/>
		<line class="st10" x1="391.9" y1="489" x2="403.3" y2="489"/>
		<line class="st10" x1="403.3" y1="489" x2="414.6" y2="489"/>
		<line class="st10" x1="414.6" y1="489" x2="426" y2="489"/>
		<line class="st10" x1="426" y1="489" x2="437.4" y2="489"/>
		<line class="st10" x1="437.4" y1="489" x2="448.8" y2="489"/>
		<line class="st10" x1="448.8" y1="489" x2="460.2" y2="489"/>
		<line class="st10" x1="460.2" y1="489" x2="471.5" y2="489"/>
		<line class="st10" x1="471.5" y1="489" x2="482.9" y2="489"/>
		<line class="st10" x1="482.9" y1="489" x2="494.3" y2="489"/>
		<line class="st10" x1="494.3" y1="489" x2="505.7" y2="489"/>
		<line class="st10" x1="505.7" y1="489" x2="517.1" y2="489"/>
		<line class="st10" x1="517.1" y1="489" x2="528.4" y2="489"/>
		<line class="st10" x1="528.4" y1="489" x2="539.8" y2="489"/>
		<line class="st10" x1="539.8" y1="489" x2="551.2" y2="489"/>
		<line class="st10" x1="551.2" y1="489" x2="562.6" y2="489"/>
		<line class="st10" x1="562.6" y1="489" x2="574" y2="489"/>
		<line class="st10" x1="574" y1="489" x2="585.3" y2="489"/>
		<line class="st10" x1="585.3" y1="489" x2="596.7" y2="489"/>
		<line class="st10" x1="596.7" y1="489" x2="608.1" y2="489"/>
		<line class="st10" x1="608.1" y1="489" x2="619.5" y2="489"/>
		<line class="st10" x1="619.5" y1="489" x2="630.9" y2="489"/>
		<line class="st10" x1="630.9" y1="489" x2="642.2" y2="489"/>
		<line class="st9" x1="642.2" y1="489" x2="653.6" y2="489"/>
		<line class="st9" x1="665" y1="488.2" x2="665" y2="489"/>
		<line class="st11" x1="96" y1="344" x2="107.4" y2="380.9"/>
		<line class="st12" x1="107.4" y1="380.9" x2="118.8" y2="408.4"/>
		<line class="st12" x1="118.8" y1="408.4" x2="130.1" y2="428"/>
		<line class="st12" x1="130.1" y1="428" x2="141.5" y2="442"/>
		<line class="st12" x1="141.5" y1="442" x2="152.9" y2="452.1"/>
		<line class="st12" x1="152.9" y1="452.1" x2="164.3" y2="459.4"/>
		<line class="st12" x1="164.3" y1="459.4" x2="175.7" y2="464.8"/>
		<line class="st12" x1="175.7" y1="464.8" x2="187" y2="469"/>
		<line class="st12" x1="187" y1="469" x2="198.4" y2="472.2"/>
		<line class="st12" x1="198.4" y1="472.2" x2="209.8" y2="474.7"/>
		<line class="st12" x1="209.8" y1="474.7" x2="221.2" y2="476.7"/>
		<line class="st12" x1="221.2" y1="476.7" x2="232.6" y2="478.3"/>
		<line class="st12" x1="232.6" y1="478.3" x2="243.9" y2="479.6"/>
		<line class="st12" x1="243.9" y1="479.6" x2="255.3" y2="480.7"/>
		<line class="st12" x1="255.3" y1="480.7" x2="266.7" y2="481.6"/>
		<line class="st12" x1="266.7" y1="481.6" x2="278.1" y2="482.4"/>
		<line class="st12" x1="278.1" y1="482.4" x2="289.5" y2="483.1"/>
		<line class="st12" x1="289.5" y1="483.1" x2="300.8" y2="483.6"/>
		<line class="st12" x1="300.8" y1="483.6" x2="312.2" y2="484.1"/>
		<line class="st12" x1="312.2" y1="484.1" x2="323.6" y2="484.6"/>
		<line class="st12" x1="323.6" y1="484.6" x2="335" y2="484.9"/>
		<line class="st12" x1="335" y1="484.9" x2="346.4" y2="485.3"/>
		<line class="st12" x1="346.4" y1="485.3" x2="357.7" y2="485.5"/>
		<line class="st12" x1="357.7" y1="485.5" x2="369.1" y2="485.8"/>
		<line class="st12" x1="369.1" y1="485.8" x2="380.5" y2="486"/>
		<line class="st12" x1="380.5" y1="486" x2="391.9" y2="486.2"/>
		<line class="st12" x1="391.9" y1="486.2" x2="403.3" y2="486.4"/>
		<line class="st12" x1="403.3" y1="486.4" x2="414.6" y2="486.6"/>
		<line class="st12" x1="414.6" y1="486.6" x2="426" y2="486.7"/>
		<line class="st12" x1="426" y1="486.7" x2="437.4" y2="486.9"/>
		<line class="st12" x1="437.4" y1="486.9" x2="448.8" y2="487"/>
		<line class="st12" x1="448.8" y1="487" x2="460.2" y2="487.1"/>
		<line class="st12" x1="460.2" y1="487.1" x2="471.5" y2="487.2"/>
		<line class="st12" x1="471.5" y1="487.2" x2="482.9" y2="487.3"/>
		<line class="st12" x1="482.9" y1="487.3" x2="494.3" y2="487.4"/>
		<line class="st12" x1="494.3" y1="487.4" x2="505.7" y2="487.5"/>
		<line class="st12" x1="505.7" y1="487.5" x2="517.1" y2="487.6"/>
		<line class="st12" x1="517.1" y1="487.6" x2="528.4" y2="487.6"/>
		<line class="st12" x1="528.4" y1="487.6" x2="539.8" y2="487.7"/>
		<line class="st12" x1="539.8" y1="487.7" x2="551.2" y2="487.8"/>
		<line class="st12" x1="551.2" y1="487.8" x2="562.6" y2="487.8"/>
		<line class="st12" x1="562.6" y1="487.8" x2="574" y2="487.9"/>
		<line class="st12" x1="574" y1="487.9" x2="585.3" y2="487.9"/>
		<line class="st12" x1="585.3" y1="487.9" x2="596.7" y2="488"/>
		<line class="st12" x1="596.7" y1="488" x2="608.1" y2="488"/>
		<line class="st12" x1="608.1" y1="488" x2="619.5" y2="488.1"/>
		<line class="st12" x1="619.5" y1="488.1" x2="630.9" y2="488.1"/>
		<line class="st12" x1="630.9" y1="488.1" x2="642.2" y2="488.1"/>
		<line class="st12" x1="642.2" y1="488.1" x2="653.6" y2="488.2"/>
		<line class="st11" x1="653.6" y1="488.2" x2="665" y2="488.2"/>
		<line class="st11" x1="96" y1="489" x2="96" y2="344"/>
		<line class="st13" x1="96" y1="489" x2="665" y2="489"/>
		<line class="st14" x1="629" y1="330.5" x2="638" y2="330.5"/>
	</g>
	<g>
		<line class="st15" x1="633.5" y1="335" x2="633.5" y2="326"/>
		<line class="st15" x1="630" y1="334" x2="637" y2="327"/>
		<line class="st14" x1="630" y1="327" x2="637" y2="334"/>
		<line class="st14" x1="92" y1="330.5" x2="101" y2="330.5"/>
		<line class="st15" x1="96.5" y1="335" x2="96.5" y2="326"/>
		<line class="st15" x1="93" y1="334" x2="100" y2="327"/>
		<line class="st14" x1="93" y1="327" x2="100" y2="334"/>
		<line class="st16" x1="382.5" y1="330.5" x2="381.7" y2="328.1"/>
		<line class="st17" x1="381.7" y1="328.1" x2="379.7" y2="326.7"/>
		<line class="st17" x1="379.7" y1="326.7" x2="377.3" y2="326.7"/>
		<line class="st17" x1="377.3" y1="326.7" x2="375.3" y2="328.1"/>
		<line class="st17" x1="375.3" y1="328.1" x2="374.5" y2="330.5"/>
		<line class="st17" x1="374.5" y1="330.5" x2="375.3" y2="332.9"/>
		<line class="st17" x1="375.3" y1="332.9" x2="377.3" y2="334.3"/>
		<line class="st17" x1="377.3" y1="334.3" x2="379.7" y2="334.3"/>
		<line class="st17" x1="379.7" y1="334.3" x2="381.7" y2="332.9"/>
		<line class="st16" x1="381.7" y1="332.9" x2="382.5" y2="330.5"/>
		<line class="st16" x1="100.5" y1="330.5" x2="99.7" y2="328.1"/>
		<line class="st17" x1="99.7" y1="328.1" x2="97.7" y2="326.7"/>
		<line class="st17" x1="97.7" y1="326.7" x2="95.3" y2="326.7"/>
		<line class="st17" x1="95.3" y1="326.7" x2="93.3" y2="328.1"/>
		<line class="st17" x1="93.3" y1="328.1" x2="92.5" y2="330.5"/>
		<line class="st17" x1="92.5" y1="330.5" x2="93.3" y2="332.9"/>
		<line class="st17" x1="93.3" y1="332.9" x2="95.3" y2="334.3"/>
		<line class="st17" x1="95.3" y1="334.3" x2="97.7" y2="334.3"/>
		<line class="st17" x1="97.7" y1="334.3" x2="99.7" y2="332.9"/>
		<line class="st16" x1="99.7" y1="332.9" x2="100.5" y2="330.5"/>
	</g>
	<g>
		<line class="st18" x1="378" y1="330.1" x2="96" y2="330.1"/>
	</g>
	<g transform="translate(375,291)">
		<text transform="matrix(1 0 0 1 0 -1.464844e-05)" class="st5 st7">T</text>
	</g>
	<g transform="translate(398,309)">
		<text transform="matrix(1 0 0 1 0 -1.464844e-05)" class="st5 st8">3,2</text>
	</g>
	<g>
		<line class="st19" x1="381.2" y1="330.9" x2="630.4" y2="330.9"/>
	</g>
	<g transform="translate(362,422)">
		<text transform="matrix(1 0 0 1 0 -1.464844e-05)" class="st20 st5 st7">q</text>
	</g>
	<g transform="translate(383,440)">
		<text transform="matrix(1 0 0 1 0 -1.464844e-05)" class="st20 st5 st8">t,3</text>
	</g>
	<g transform="translate(383,404)">
		<text transform="matrix(1 0 0 1 0 -1.464844e-05)" class="st20 st5 st8">max</text>
	</g>
	<g transform="translate(438,422)">
		<text transform="matrix(1 0 0 1 0 -1.464844e-05)" class="st20 st5 st7"> = v</text>
	</g>
	<g transform="translate(499,440)">
		<text transform="matrix(1 0 0 1 0 -1.464844e-05)" class="st20 st5 st8">3,2</text>
	</g>
	<g transform="translate(499,404)">
		<text transform="matrix(1 0 0 1 0 -1.464844e-05)" class="st20 st5 st8">max</text>
	</g>
	<g>
		<line class="st21" x1="457" y1="395" x2="384.3" y2="340.8"/>
		<path class="st22" d="M385,347.6l-7.7-12l6.9,5.2L385,347.6"/>
		<path class="st22" d="M377.3,335.6l13.7,4l-6.7,1.2L377.3,335.6"/>
	</g>
	<g>
		<path class="st20" d="M385,347.6l-7.7-12l6.9,5.2L385,347.6z"/>
		<path class="st20" d="M377.3,335.6l13.7,4l-6.7,1.2L377.3,335.6z"/>
	</g>
	<g transform="translate(566,230)">
		<text transform="matrix(1 0 0 1 0 -1.464844e-05)" class="st23 st5 st7">u</text>
	</g>
	<g transform="translate(587,248)">
		<text transform="matrix(1 0 0 1 0 -1.464844e-05)" class="st23 st5 st8">3,2</text>
	</g>
	<g transform="translate(587,212)">
		<text transform="matrix(1 0 0 1 0 -1.464844e-05)" class="st23 st5 st8">max</text>
	</g>
	<g transform="translate(642,230)">
		<text transform="matrix(1 0 0 1 0 -1.464844e-05)" class="st23 st5 st7"> </text>
	</g>
	<g>
		<line class="st24" x1="593" y1="258" x2="630.2" y2="318.4"/>
		<path class="st25" d="M632,311.8l2.7,14l-4.5-7.4L632,311.8"/>
		<path class="st25" d="M634.7,325.8l-11.3-8.7l6.7,1.4L634.7,325.8"/>
	</g>
	<g>
		<path class="st23" d="M632,311.8l2.7,14l-4.5-7.4L632,311.8z"/>
		<path class="st23" d="M634.7,325.8l-11.3-8.7l6.7,1.4L634.7,325.8z"/>
	</g>
	<g transform="translate(114,236)">
		<text transform="matrix(1 0 0 1 0 -1.464844e-05)" class="st23 st5 st7">u</text>
	</g>
	<g transform="translate(135,254)">
		<text transform="matrix(1 0 0 1 0 -1.464844e-05)" class="st23 st5 st8">3,2</text>
	</g>
	<g transform="translate(135,218)">
		<text transform="matrix(1 0 0 1 0 -1.464844e-05)" class="st23 st5 st8">min</text>
	</g>
	<g transform="translate(182,236)">
		<text transform="matrix(1 0 0 1 0 -1.464844e-05)" class="st23 st5 st7"> = v</text>
	</g>
	<g transform="translate(243,254)">
		<text transform="matrix(1 0 0 1 0 -1.464844e-05)" class="st23 st5 st8">3,2</text>
	</g>
	<g transform="translate(243,218)">
		<text transform="matrix(1 0 0 1 0 -1.464844e-05)" class="st23 st5 st8">min</text>
	</g>
	<g>
		<line class="st24" x1="199" y1="243" x2="104.3" y2="319.9"/>
		<path class="st25" d="M111.1,320.9l-13.5,4.5l6.7-5.5L111.1,320.9"/>
		<path class="st25" d="M97.6,325.4l7.2-12.3l-0.5,6.8L97.6,325.4"/>
	</g>
	<g>
		<path class="st23" d="M111.1,320.9l-13.5,4.5l6.7-5.5L111.1,320.9z"/>
		<path class="st23" d="M97.6,325.4l7.2-12.3l-0.5,6.8L97.6,325.4z"/>
	</g>
	<g transform="translate(162,401)">
		<text transform="matrix(1 0 0 1 0 -1.464844e-05)" class="st20 st5 st7">q</text>
	</g>
	<g transform="translate(183,419)">
		<text transform="matrix(1 0 0 1 0 -1.464844e-05)" class="st20 st5 st8">t,3</text>
	</g>
	<g transform="translate(183,383)">
		<text transform="matrix(1 0 0 1 0 -1.464844e-05)" class="st20 st5 st8">min</text>
	</g>
	<g>
		<line class="st21" x1="158" y1="381" x2="103.6" y2="338.9"/>
		<path class="st22" d="M104.3,345.7l-7.5-12.1l6.8,5.3L104.3,345.7"/>
		<path class="st22" d="M96.8,333.5l13.6,4.2l-6.8,1.1L96.8,333.5"/>
	</g>
	<g>
		<path class="st20" d="M104.3,345.7l-7.5-12.1l6.8,5.3L104.3,345.7z"/>
		<path class="st20" d="M96.8,333.5l13.6,4.2l-6.8,1.1L96.8,333.5z"/>
	</g>
	<g transform="translate(98,462)">
		<text transform="matrix(1 0 0 1 0 -1.464844e-05)" class="st5 st7">T</text>
	</g>
	<g transform="translate(121,480)">
		<text transform="matrix(1 0 0 1 0 -1.464844e-05)" class="st5 st8">3,1</text>
	</g>
</g>
</svg>
