<?xml version="1.0" encoding="utf-8"?>
<!-- Generator: Adobe Illustrator 21.1.0, SVG Export Plug-In . SVG Version: 6.00 Build 0)  -->
<svg version="1.1" id="Layer_1" xmlns="http://www.w3.org/2000/svg" xmlns:xlink="http://www.w3.org/1999/xlink" x="0px" y="0px"
	 viewBox="0 0 731 577" style="enable-background:new 0 0 731 577;" xml:space="preserve">
<style type="text/css">
	.st0{clip-path:url(#SVGID_2_);fill:#FFFFFF;}
	.st1{fill:#FFFFFF;}
	.st2{fill:none;stroke:#262626;stroke-width:0.6667;stroke-linejoin:round;stroke-miterlimit:10;}
	.st3{fill:none;stroke:#262626;stroke-width:0.6667;stroke-linecap:square;stroke-linejoin:round;stroke-miterlimit:10;}
	.st4{fill:#262626;}
	.st5{font-family:'MyriadPro-Regular';}
	.st6{font-size:35px;}
	.st7{font-size:37px;}
	.st8{font-size:29px;}
	.st9{fill:none;stroke:#FF0000;stroke-width:0.6667;stroke-linejoin:round;stroke-miterlimit:10;}
	.st10{fill:none;stroke:#FF0000;stroke-width:0.6667;stroke-linecap:round;stroke-linejoin:round;stroke-miterlimit:10;}
	.st11{fill:none;stroke:#FF0000;stroke-width:1.6;stroke-linejoin:round;stroke-miterlimit:10;}
	.st12{fill:none;stroke:#FF0000;stroke-width:1.6;stroke-linecap:round;stroke-linejoin:round;stroke-miterlimit:10;}
	.st13{fill:none;stroke:#FF0000;stroke-width:1.3333;stroke-linejoin:round;stroke-miterlimit:10;}
	.st14{fill:none;stroke:#FF00FF;stroke-width:2.6667;stroke-linejoin:round;stroke-miterlimit:10;}
	.st15{fill:none;stroke:#FF00FF;stroke-width:2.6667;stroke-linecap:round;stroke-linejoin:round;stroke-miterlimit:10;}
	.st16{fill:none;stroke:#0000FF;stroke-width:2.6667;stroke-linejoin:round;stroke-miterlimit:10;}
	.st17{fill:none;stroke:#0000FF;stroke-width:2.6667;stroke-linecap:round;stroke-linejoin:round;stroke-miterlimit:10;}
	.st18{fill:none;stroke:#000000;stroke-width:1.3333;stroke-linejoin:round;stroke-miterlimit:10;}
	.st19{fill:none;stroke:#FF00FF;stroke-width:0.6667;stroke-linejoin:round;stroke-miterlimit:10;}
	.st20{fill:#FF00FF;}
	.st21{fill:none;stroke:#0000FF;stroke-width:0.6667;stroke-linejoin:round;stroke-miterlimit:10;}
	.st22{fill:#0000FF;}
	.st23{fill:none;stroke:#000000;stroke-width:1.3333;stroke-linejoin:bevel;stroke-miterlimit:1;stroke-dasharray:10,6;}
</style>
<g>
	<g>
		<g>
			<defs>
				<rect id="SVGID_1_" y="0" width="731" height="577"/>
			</defs>
			<clipPath id="SVGID_2_">
				<use xlink:href="#SVGID_1_"  style="overflow:visible;"/>
			</clipPath>
			<rect y="0" class="st0" width="731" height="577"/>
		</g>
	</g>
	<g>
		<rect y="0" class="st1" width="731" height="577"/>
		<path class="st1" d="M95,508h567V44H95V508z"/>
	</g>
	<g>
		<line class="st2" x1="95" y1="508" x2="662" y2="508"/>
		<line class="st2" x1="95" y1="44" x2="662" y2="44"/>
		<line class="st3" x1="208.4" y1="508" x2="208.4" y2="502.3"/>
		<line class="st3" x1="397.4" y1="508" x2="397.4" y2="502.3"/>
		<line class="st3" x1="586.4" y1="508" x2="586.4" y2="502.3"/>
		<line class="st3" x1="208.4" y1="44" x2="208.4" y2="49.7"/>
		<line class="st3" x1="397.4" y1="44" x2="397.4" y2="49.7"/>
		<line class="st3" x1="586.4" y1="44" x2="586.4" y2="49.7"/>
	</g>
	<g transform="translate(208.4,517.6)">
		<text transform="matrix(1 0 0 1 -10 36)" class="st4 st5 st6">5</text>
	</g>
	<g transform="translate(397.4,517.6)">
		<text transform="matrix(1 0 0 1 -19.5 36)" class="st4 st5 st6">10</text>
	</g>
	<g transform="translate(586.4,517.6)">
		<text transform="matrix(1 0 0 1 -19.5 36)" class="st4 st5 st6">15</text>
	</g>
	<g transform="translate(351,564)">
		<text transform="matrix(1 0 0 1 31 17)" class="st4 st5 st7">q</text>
	</g>
	<g transform="translate(372,582)">
		<text transform="matrix(1 0 0 1 31 17)" class="st4 st5 st8">t,3</text>
	</g>
	<g>
		<line class="st2" x1="95" y1="508" x2="95" y2="44"/>
		<line class="st2" x1="662" y1="508" x2="662" y2="44"/>
		<line class="st3" x1="95" y1="508" x2="100.7" y2="508"/>
		<line class="st3" x1="95" y1="392" x2="100.7" y2="392"/>
		<line class="st3" x1="95" y1="276" x2="100.7" y2="276"/>
		<line class="st3" x1="95" y1="160" x2="100.7" y2="160"/>
		<line class="st3" x1="95" y1="44" x2="100.7" y2="44"/>
		<line class="st3" x1="662" y1="508" x2="656.3" y2="508"/>
		<line class="st3" x1="662" y1="392" x2="656.3" y2="392"/>
		<line class="st3" x1="662" y1="276" x2="656.3" y2="276"/>
		<line class="st3" x1="662" y1="160" x2="656.3" y2="160"/>
		<line class="st3" x1="662" y1="44" x2="656.3" y2="44"/>
	</g>
	<g transform="translate(85.4,508)">
		<text transform="matrix(1 0 0 1 -32 14)" class="st4 st5 st6">-1</text>
	</g>
	<g transform="translate(85.4,392)">
		<text transform="matrix(1 0 0 1 -61 14)" class="st4 st5 st6">-0.5</text>
	</g>
	<g transform="translate(85.4,276)">
		<text transform="matrix(1 0 0 1 -20 14)" class="st4 st5 st6">0</text>
	</g>
	<g transform="translate(85.4,160)">
		<text transform="matrix(1 0 0 1 -49 14)" class="st4 st5 st6">0.5</text>
	</g>
	<g transform="translate(85.4,44)">
		<text transform="matrix(1 0 0 1 -20 14)" class="st4 st5 st6">1</text>
	</g>
	<g transform="translate(41,307) rotate(-90)">
		<text transform="matrix(1 0 0 1 -3.515625e-04 0)" class="st4 st5 st7">p</text>
	</g>
	<g transform="translate(59,286) rotate(-90)">
		<text transform="matrix(1 0 0 1 -3.515625e-04 0)" class="st4 st5 st8">t,3</text>
	</g>
	<g transform="translate(359,21)">
		<text transform="matrix(1 0 0 1 0 -7)" class="st5 st7">T</text>
	</g>
	<g transform="translate(382,39)">
		<text transform="matrix(1 0 0 1 0 -7)" class="st5 st8">3</text>
	</g>
	<g>
		<line class="st9" x1="95" y1="357.5" x2="106.3" y2="395.8"/>
		<line class="st10" x1="106.3" y1="395.8" x2="117.7" y2="424.3"/>
		<line class="st10" x1="117.7" y1="424.3" x2="129" y2="444.7"/>
		<line class="st10" x1="129" y1="444.7" x2="140.4" y2="459.2"/>
		<line class="st10" x1="140.4" y1="459.2" x2="151.7" y2="469.6"/>
		<line class="st10" x1="151.7" y1="469.6" x2="163" y2="477.3"/>
		<line class="st10" x1="163" y1="477.3" x2="174.4" y2="482.9"/>
		<line class="st10" x1="174.4" y1="482.9" x2="185.7" y2="487.2"/>
		<line class="st10" x1="185.7" y1="487.2" x2="197.1" y2="490.5"/>
		<line class="st10" x1="197.1" y1="490.5" x2="208.4" y2="493.1"/>
		<line class="st10" x1="208.4" y1="493.1" x2="219.7" y2="495.2"/>
		<line class="st10" x1="219.7" y1="495.2" x2="231.1" y2="496.9"/>
		<line class="st10" x1="231.1" y1="496.9" x2="242.4" y2="498.3"/>
		<line class="st10" x1="242.4" y1="498.3" x2="253.8" y2="499.4"/>
		<line class="st10" x1="253.8" y1="499.4" x2="265.1" y2="500.3"/>
		<line class="st10" x1="265.1" y1="500.3" x2="276.4" y2="501.2"/>
		<line class="st10" x1="276.4" y1="501.2" x2="287.8" y2="501.8"/>
		<line class="st10" x1="287.8" y1="501.8" x2="299.1" y2="502.4"/>
		<line class="st10" x1="299.1" y1="502.4" x2="310.5" y2="502.9"/>
		<line class="st10" x1="310.5" y1="502.9" x2="321.8" y2="503.4"/>
		<line class="st10" x1="321.8" y1="503.4" x2="333.1" y2="503.8"/>
		<line class="st10" x1="333.1" y1="503.8" x2="344.5" y2="504.1"/>
		<line class="st10" x1="344.5" y1="504.1" x2="355.8" y2="504.4"/>
		<line class="st10" x1="355.8" y1="504.4" x2="367.2" y2="504.7"/>
		<line class="st10" x1="367.2" y1="504.7" x2="378.5" y2="504.9"/>
		<line class="st10" x1="378.5" y1="504.9" x2="389.8" y2="505.1"/>
		<line class="st10" x1="389.8" y1="505.1" x2="401.2" y2="505.3"/>
		<line class="st10" x1="401.2" y1="505.3" x2="412.5" y2="505.5"/>
		<line class="st10" x1="412.5" y1="505.5" x2="423.9" y2="505.7"/>
		<line class="st10" x1="423.9" y1="505.7" x2="435.2" y2="505.8"/>
		<line class="st10" x1="435.2" y1="505.8" x2="446.5" y2="505.9"/>
		<line class="st10" x1="446.5" y1="505.9" x2="457.9" y2="506.1"/>
		<line class="st10" x1="457.9" y1="506.1" x2="469.2" y2="506.2"/>
		<line class="st10" x1="469.2" y1="506.2" x2="480.6" y2="506.3"/>
		<line class="st10" x1="480.6" y1="506.3" x2="491.9" y2="506.4"/>
		<line class="st10" x1="491.9" y1="506.4" x2="503.2" y2="506.4"/>
		<line class="st10" x1="503.2" y1="506.4" x2="514.6" y2="506.5"/>
		<line class="st10" x1="514.6" y1="506.5" x2="525.9" y2="506.6"/>
		<line class="st10" x1="525.9" y1="506.6" x2="537.3" y2="506.7"/>
		<line class="st10" x1="537.3" y1="506.7" x2="548.6" y2="506.7"/>
		<line class="st10" x1="548.6" y1="506.7" x2="559.9" y2="506.8"/>
		<line class="st10" x1="559.9" y1="506.8" x2="571.3" y2="506.8"/>
		<line class="st10" x1="571.3" y1="506.8" x2="582.6" y2="506.9"/>
		<line class="st10" x1="582.6" y1="506.9" x2="594" y2="506.9"/>
		<line class="st10" x1="594" y1="506.9" x2="605.3" y2="507"/>
		<line class="st10" x1="605.3" y1="507" x2="616.6" y2="507"/>
		<line class="st10" x1="616.6" y1="507" x2="628" y2="507.1"/>
		<line class="st10" x1="628" y1="507.1" x2="639.3" y2="507.1"/>
		<line class="st9" x1="639.3" y1="507.1" x2="650.7" y2="507.1"/>
		<line class="st11" x1="662" y1="357.5" x2="662" y2="507.2"/>
		<line class="st11" x1="95" y1="114.7" x2="106.3" y2="117.1"/>
		<line class="st12" x1="106.3" y1="117.1" x2="117.7" y2="119.6"/>
		<line class="st12" x1="117.7" y1="119.6" x2="129" y2="122.1"/>
		<line class="st12" x1="129" y1="122.1" x2="140.4" y2="124.8"/>
		<line class="st12" x1="140.4" y1="124.8" x2="151.7" y2="127.5"/>
		<line class="st12" x1="151.7" y1="127.5" x2="163" y2="130.4"/>
		<line class="st12" x1="163" y1="130.4" x2="174.4" y2="133.4"/>
		<line class="st12" x1="174.4" y1="133.4" x2="185.7" y2="136.5"/>
		<line class="st12" x1="185.7" y1="136.5" x2="197.1" y2="139.8"/>
		<line class="st12" x1="197.1" y1="139.8" x2="208.4" y2="143.1"/>
		<line class="st12" x1="208.4" y1="143.1" x2="219.7" y2="146.6"/>
		<line class="st12" x1="219.7" y1="146.6" x2="231.1" y2="150.3"/>
		<line class="st12" x1="231.1" y1="150.3" x2="242.4" y2="154"/>
		<line class="st12" x1="242.4" y1="154" x2="253.8" y2="157.9"/>
		<line class="st12" x1="253.8" y1="157.9" x2="265.1" y2="162"/>
		<line class="st12" x1="265.1" y1="162" x2="276.4" y2="166.2"/>
		<line class="st12" x1="276.4" y1="166.2" x2="287.8" y2="170.5"/>
		<line class="st12" x1="287.8" y1="170.5" x2="299.1" y2="175"/>
		<line class="st12" x1="299.1" y1="175" x2="310.5" y2="179.6"/>
		<line class="st12" x1="310.5" y1="179.6" x2="321.8" y2="184.3"/>
		<line class="st12" x1="321.8" y1="184.3" x2="333.1" y2="189.2"/>
		<line class="st12" x1="333.1" y1="189.2" x2="344.5" y2="194.3"/>
		<line class="st12" x1="344.5" y1="194.3" x2="355.8" y2="199.4"/>
		<line class="st12" x1="355.8" y1="199.4" x2="367.2" y2="204.7"/>
		<line class="st12" x1="367.2" y1="204.7" x2="378.5" y2="210.2"/>
		<line class="st12" x1="378.5" y1="210.2" x2="389.8" y2="215.7"/>
		<line class="st12" x1="389.8" y1="215.7" x2="401.2" y2="221.4"/>
		<line class="st12" x1="401.2" y1="221.4" x2="412.5" y2="227.1"/>
		<line class="st12" x1="412.5" y1="227.1" x2="423.9" y2="233"/>
		<line class="st12" x1="423.9" y1="233" x2="435.2" y2="239"/>
		<line class="st12" x1="435.2" y1="239" x2="446.5" y2="245"/>
		<line class="st12" x1="446.5" y1="245" x2="457.9" y2="251.1"/>
		<line class="st12" x1="457.9" y1="251.1" x2="469.2" y2="257.2"/>
		<line class="st12" x1="469.2" y1="257.2" x2="480.6" y2="263.4"/>
		<line class="st12" x1="480.6" y1="263.4" x2="491.9" y2="269.6"/>
		<line class="st12" x1="491.9" y1="269.6" x2="503.2" y2="275.8"/>
		<line class="st12" x1="503.2" y1="275.8" x2="514.6" y2="282.1"/>
		<line class="st12" x1="514.6" y1="282.1" x2="525.9" y2="288.3"/>
		<line class="st12" x1="525.9" y1="288.3" x2="537.3" y2="294.5"/>
		<line class="st12" x1="537.3" y1="294.5" x2="548.6" y2="300.6"/>
		<line class="st12" x1="548.6" y1="300.6" x2="559.9" y2="306.7"/>
		<line class="st12" x1="559.9" y1="306.7" x2="571.3" y2="312.7"/>
		<line class="st12" x1="571.3" y1="312.7" x2="582.6" y2="318.7"/>
		<line class="st12" x1="582.6" y1="318.7" x2="594" y2="324.5"/>
		<line class="st12" x1="594" y1="324.5" x2="605.3" y2="330.3"/>
		<line class="st12" x1="605.3" y1="330.3" x2="616.6" y2="336"/>
		<line class="st12" x1="616.6" y1="336" x2="628" y2="341.5"/>
		<line class="st12" x1="628" y1="341.5" x2="639.3" y2="347"/>
		<line class="st12" x1="639.3" y1="347" x2="650.7" y2="352.3"/>
		<line class="st11" x1="650.7" y1="352.3" x2="662" y2="357.5"/>
		<line class="st11" x1="95" y1="114.7" x2="95" y2="357.5"/>
		<line class="st9" x1="106.3" y1="508" x2="117.7" y2="508"/>
		<line class="st10" x1="117.7" y1="508" x2="129" y2="508"/>
		<line class="st10" x1="129" y1="508" x2="140.4" y2="508"/>
		<line class="st10" x1="140.4" y1="508" x2="151.7" y2="508"/>
		<line class="st10" x1="151.7" y1="508" x2="163" y2="508"/>
		<line class="st10" x1="163" y1="508" x2="174.4" y2="508"/>
		<line class="st10" x1="174.4" y1="508" x2="185.7" y2="508"/>
		<line class="st10" x1="185.7" y1="508" x2="197.1" y2="508"/>
		<line class="st10" x1="197.1" y1="508" x2="208.4" y2="508"/>
		<line class="st10" x1="208.4" y1="508" x2="219.7" y2="508"/>
		<line class="st10" x1="219.7" y1="508" x2="231.1" y2="508"/>
		<line class="st10" x1="231.1" y1="508" x2="242.4" y2="508"/>
		<line class="st10" x1="242.4" y1="508" x2="253.8" y2="508"/>
		<line class="st10" x1="253.8" y1="508" x2="265.1" y2="508"/>
		<line class="st10" x1="265.1" y1="508" x2="276.4" y2="508"/>
		<line class="st10" x1="276.4" y1="508" x2="287.8" y2="508"/>
		<line class="st10" x1="287.8" y1="508" x2="299.1" y2="508"/>
		<line class="st10" x1="299.1" y1="508" x2="310.5" y2="508"/>
		<line class="st10" x1="310.5" y1="508" x2="321.8" y2="508"/>
		<line class="st10" x1="321.8" y1="508" x2="333.1" y2="508"/>
		<line class="st10" x1="333.1" y1="508" x2="344.5" y2="508"/>
		<line class="st10" x1="344.5" y1="508" x2="355.8" y2="508"/>
		<line class="st10" x1="355.8" y1="508" x2="367.2" y2="508"/>
		<line class="st10" x1="367.2" y1="508" x2="378.5" y2="508"/>
		<line class="st10" x1="378.5" y1="508" x2="389.8" y2="508"/>
		<line class="st10" x1="389.8" y1="508" x2="401.2" y2="508"/>
		<line class="st10" x1="401.2" y1="508" x2="412.5" y2="508"/>
		<line class="st10" x1="412.5" y1="508" x2="423.9" y2="508"/>
		<line class="st10" x1="423.9" y1="508" x2="435.2" y2="508"/>
		<line class="st10" x1="435.2" y1="508" x2="446.5" y2="508"/>
		<line class="st10" x1="446.5" y1="508" x2="457.9" y2="508"/>
		<line class="st10" x1="457.9" y1="508" x2="469.2" y2="508"/>
		<line class="st10" x1="469.2" y1="508" x2="480.6" y2="508"/>
		<line class="st10" x1="480.6" y1="508" x2="491.9" y2="508"/>
		<line class="st10" x1="491.9" y1="508" x2="503.2" y2="508"/>
		<line class="st10" x1="503.2" y1="508" x2="514.6" y2="508"/>
		<line class="st10" x1="514.6" y1="508" x2="525.9" y2="508"/>
		<line class="st10" x1="525.9" y1="508" x2="537.3" y2="508"/>
		<line class="st10" x1="537.3" y1="508" x2="548.6" y2="508"/>
		<line class="st10" x1="548.6" y1="508" x2="559.9" y2="508"/>
		<line class="st10" x1="559.9" y1="508" x2="571.3" y2="508"/>
		<line class="st10" x1="571.3" y1="508" x2="582.6" y2="508"/>
		<line class="st10" x1="582.6" y1="508" x2="594" y2="508"/>
		<line class="st10" x1="594" y1="508" x2="605.3" y2="508"/>
		<line class="st10" x1="605.3" y1="508" x2="616.6" y2="508"/>
		<line class="st10" x1="616.6" y1="508" x2="628" y2="508"/>
		<line class="st10" x1="628" y1="508" x2="639.3" y2="508"/>
		<line class="st9" x1="639.3" y1="508" x2="650.7" y2="508"/>
		<line class="st9" x1="662" y1="507.2" x2="662" y2="508"/>
		<line class="st11" x1="95" y1="357.5" x2="106.3" y2="395.8"/>
		<line class="st12" x1="106.3" y1="395.8" x2="117.7" y2="424.3"/>
		<line class="st12" x1="117.7" y1="424.3" x2="129" y2="444.7"/>
		<line class="st12" x1="129" y1="444.7" x2="140.4" y2="459.2"/>
		<line class="st12" x1="140.4" y1="459.2" x2="151.7" y2="469.6"/>
		<line class="st12" x1="151.7" y1="469.6" x2="163" y2="477.3"/>
		<line class="st12" x1="163" y1="477.3" x2="174.4" y2="482.9"/>
		<line class="st12" x1="174.4" y1="482.9" x2="185.7" y2="487.2"/>
		<line class="st12" x1="185.7" y1="487.2" x2="197.1" y2="490.5"/>
		<line class="st12" x1="197.1" y1="490.5" x2="208.4" y2="493.1"/>
		<line class="st12" x1="208.4" y1="493.1" x2="219.7" y2="495.2"/>
		<line class="st12" x1="219.7" y1="495.2" x2="231.1" y2="496.9"/>
		<line class="st12" x1="231.1" y1="496.9" x2="242.4" y2="498.3"/>
		<line class="st12" x1="242.4" y1="498.3" x2="253.8" y2="499.4"/>
		<line class="st12" x1="253.8" y1="499.4" x2="265.1" y2="500.3"/>
		<line class="st12" x1="265.1" y1="500.3" x2="276.4" y2="501.2"/>
		<line class="st12" x1="276.4" y1="501.2" x2="287.8" y2="501.8"/>
		<line class="st12" x1="287.8" y1="501.8" x2="299.1" y2="502.4"/>
		<line class="st12" x1="299.1" y1="502.4" x2="310.5" y2="502.9"/>
		<line class="st12" x1="310.5" y1="502.9" x2="321.8" y2="503.4"/>
		<line class="st12" x1="321.8" y1="503.4" x2="333.1" y2="503.8"/>
		<line class="st12" x1="333.1" y1="503.8" x2="344.5" y2="504.1"/>
		<line class="st12" x1="344.5" y1="504.1" x2="355.8" y2="504.4"/>
		<line class="st12" x1="355.8" y1="504.4" x2="367.2" y2="504.7"/>
		<line class="st12" x1="367.2" y1="504.7" x2="378.5" y2="504.9"/>
		<line class="st12" x1="378.5" y1="504.9" x2="389.8" y2="505.1"/>
		<line class="st12" x1="389.8" y1="505.1" x2="401.2" y2="505.3"/>
		<line class="st12" x1="401.2" y1="505.3" x2="412.5" y2="505.5"/>
		<line class="st12" x1="412.5" y1="505.5" x2="423.9" y2="505.7"/>
		<line class="st12" x1="423.9" y1="505.7" x2="435.2" y2="505.8"/>
		<line class="st12" x1="435.2" y1="505.8" x2="446.5" y2="505.9"/>
		<line class="st12" x1="446.5" y1="505.9" x2="457.9" y2="506.1"/>
		<line class="st12" x1="457.9" y1="506.1" x2="469.2" y2="506.2"/>
		<line class="st12" x1="469.2" y1="506.2" x2="480.6" y2="506.3"/>
		<line class="st12" x1="480.6" y1="506.3" x2="491.9" y2="506.4"/>
		<line class="st12" x1="491.9" y1="506.4" x2="503.2" y2="506.4"/>
		<line class="st12" x1="503.2" y1="506.4" x2="514.6" y2="506.5"/>
		<line class="st12" x1="514.6" y1="506.5" x2="525.9" y2="506.6"/>
		<line class="st12" x1="525.9" y1="506.6" x2="537.3" y2="506.7"/>
		<line class="st12" x1="537.3" y1="506.7" x2="548.6" y2="506.7"/>
		<line class="st12" x1="548.6" y1="506.7" x2="559.9" y2="506.8"/>
		<line class="st12" x1="559.9" y1="506.8" x2="571.3" y2="506.8"/>
		<line class="st12" x1="571.3" y1="506.8" x2="582.6" y2="506.9"/>
		<line class="st12" x1="582.6" y1="506.9" x2="594" y2="506.9"/>
		<line class="st12" x1="594" y1="506.9" x2="605.3" y2="507"/>
		<line class="st12" x1="605.3" y1="507" x2="616.6" y2="507"/>
		<line class="st12" x1="616.6" y1="507" x2="628" y2="507.1"/>
		<line class="st12" x1="628" y1="507.1" x2="639.3" y2="507.1"/>
		<line class="st12" x1="639.3" y1="507.1" x2="650.7" y2="507.1"/>
		<line class="st11" x1="650.7" y1="507.1" x2="662" y2="507.2"/>
		<line class="st11" x1="95" y1="508" x2="95" y2="357.5"/>
		<line class="st13" x1="95" y1="508" x2="662" y2="508"/>
		<line class="st14" x1="627" y1="343.5" x2="636" y2="343.5"/>
	</g>
	<g>
		<line class="st15" x1="631.5" y1="348" x2="631.5" y2="339"/>
		<line class="st15" x1="628" y1="347" x2="635" y2="340"/>
		<line class="st14" x1="628" y1="340" x2="635" y2="347"/>
		<line class="st14" x1="91" y1="343.5" x2="100" y2="343.5"/>
		<line class="st15" x1="95.5" y1="348" x2="95.5" y2="339"/>
		<line class="st15" x1="92" y1="347" x2="99" y2="340"/>
		<line class="st14" x1="92" y1="340" x2="99" y2="347"/>
		<line class="st16" x1="380.5" y1="343.5" x2="379.7" y2="341.1"/>
		<line class="st17" x1="379.7" y1="341.1" x2="377.7" y2="339.7"/>
		<line class="st17" x1="377.7" y1="339.7" x2="375.3" y2="339.7"/>
		<line class="st17" x1="375.3" y1="339.7" x2="373.3" y2="341.1"/>
		<line class="st17" x1="373.3" y1="341.1" x2="372.5" y2="343.5"/>
		<line class="st17" x1="372.5" y1="343.5" x2="373.3" y2="345.9"/>
		<line class="st17" x1="373.3" y1="345.9" x2="375.3" y2="347.3"/>
		<line class="st17" x1="375.3" y1="347.3" x2="377.7" y2="347.3"/>
		<line class="st17" x1="377.7" y1="347.3" x2="379.7" y2="345.9"/>
		<line class="st16" x1="379.7" y1="345.9" x2="380.5" y2="343.5"/>
		<line class="st16" x1="99.5" y1="343.5" x2="98.7" y2="341.1"/>
		<line class="st17" x1="98.7" y1="341.1" x2="96.7" y2="339.7"/>
		<line class="st17" x1="96.7" y1="339.7" x2="94.3" y2="339.7"/>
		<line class="st17" x1="94.3" y1="339.7" x2="92.3" y2="341.1"/>
		<line class="st17" x1="92.3" y1="341.1" x2="91.5" y2="343.5"/>
		<line class="st17" x1="91.5" y1="343.5" x2="92.3" y2="345.9"/>
		<line class="st17" x1="92.3" y1="345.9" x2="94.3" y2="347.3"/>
		<line class="st17" x1="94.3" y1="347.3" x2="96.7" y2="347.3"/>
		<line class="st17" x1="96.7" y1="347.3" x2="98.7" y2="345.9"/>
		<line class="st16" x1="98.7" y1="345.9" x2="99.5" y2="343.5"/>
	</g>
	<g>
		<line class="st18" x1="376" y1="343" x2="95" y2="343"/>
	</g>
	<g transform="translate(373,301)">
		<text transform="matrix(1 0 0 1 0 -1.464844e-05)" class="st5 st7">T</text>
	</g>
	<g transform="translate(396,319)">
		<text transform="matrix(1 0 0 1 0 -1.464844e-05)" class="st5 st8">3,2</text>
	</g>
	<g transform="translate(108,501)">
		<text transform="matrix(1 0 0 1 0 -1.464844e-05)" class="st5 st7">T</text>
	</g>
	<g transform="translate(131,519)">
		<text transform="matrix(1 0 0 1 0 -1.464844e-05)" class="st5 st8">3,1</text>
	</g>
	<g>
		<line class="st19" x1="113.4" y1="319.8" x2="102.8" y2="331.8"/>
		<path class="st19" d="M109.7,331.6l-12.6,6.7l5.7-6.5L109.7,331.6"/>
		<path class="st19" d="M97.1,338.3l5.1-13.3l0.7,6.8L97.1,338.3"/>
	</g>
	<g>
		<path class="st20" d="M109.7,331.6l-12.6,6.7l5.7-6.5L109.7,331.6z"/>
		<path class="st20" d="M97.1,338.3l5.1-13.3l0.7,6.8L97.1,338.3z"/>
	</g>
	<g>
		<line class="st21" x1="107.7" y1="363.6" x2="101.1" y2="353.9"/>
		<path class="st21" d="M99.6,360.6l-3.4-13.8l4.9,7.2L99.6,360.6"/>
		<path class="st21" d="M96.3,346.8l11.6,8.2l-6.8-1.1L96.3,346.8"/>
	</g>
	<g>
		<path class="st22" d="M99.6,360.6l-3.4-13.8l4.9,7.2L99.6,360.6z"/>
		<path class="st22" d="M96.3,346.8l11.6,8.2l-6.8-1.1L96.3,346.8z"/>
	</g>
	<g transform="translate(110,393)">
		<text transform="matrix(1 0 0 1 0 -1.464844e-05)" class="st22 st5 st7">q</text>
	</g>
	<g transform="translate(131,411)">
		<text transform="matrix(1 0 0 1 0 -1.464844e-05)" class="st22 st5 st8">t,3</text>
	</g>
	<g transform="translate(131,375)">
		<text transform="matrix(1 0 0 1 0 -1.464844e-05)" class="st22 st5 st8">min</text>
	</g>
	<g>
		<line class="st21" x1="366.3" y1="368" x2="371.6" y2="356.7"/>
		<path class="st21" d="M365.1,358.8l10.2-9.9l-3.7,7.8L365.1,358.8"/>
		<path class="st21" d="M375.3,348.9l-1.2,14.2l-2.5-6.4L375.3,348.9"/>
	</g>
	<g>
		<path class="st22" d="M365.1,358.8l10.2-9.9l-3.7,7.8L365.1,358.8z"/>
		<path class="st22" d="M375.3,348.9l-1.2,14.2l-2.5-6.4L375.3,348.9z"/>
	</g>
	<g transform="translate(360,403)">
		<text transform="matrix(1 0 0 1 0 -1.464844e-05)" class="st22 st5 st7">q</text>
	</g>
	<g transform="translate(381,421)">
		<text transform="matrix(1 0 0 1 0 -1.464844e-05)" class="st22 st5 st8">t,3</text>
	</g>
	<g transform="translate(381,385)">
		<text transform="matrix(1 0 0 1 0 -1.464844e-05)" class="st22 st5 st8">max</text>
	</g>
	<g transform="translate(436,403)">
		<text transform="matrix(1 0 0 1 0 -1.464844e-05)" class="st22 st5 st7"> = v</text>
	</g>
	<g transform="translate(497,421)">
		<text transform="matrix(1 0 0 1 0 -1.464844e-05)" class="st22 st5 st8">3,2</text>
	</g>
	<g transform="translate(497,385)">
		<text transform="matrix(1 0 0 1 0 -1.464844e-05)" class="st22 st5 st8">max</text>
	</g>
	<g transform="translate(106,330)">
		<text transform="matrix(1 0 0 1 0 -1.464844e-05)" class="st20 st5 st7">u</text>
	</g>
	<g transform="translate(127,348)">
		<text transform="matrix(1 0 0 1 0 -1.464844e-05)" class="st20 st5 st8">3,2</text>
	</g>
	<g transform="translate(127,312)">
		<text transform="matrix(1 0 0 1 0 -1.464844e-05)" class="st20 st5 st8">min</text>
	</g>
	<g transform="translate(174,330)">
		<text transform="matrix(1 0 0 1 0 -1.464844e-05)" class="st20 st5 st7"> = v</text>
	</g>
	<g transform="translate(235,348)">
		<text transform="matrix(1 0 0 1 0 -1.464844e-05)" class="st20 st5 st8">3,2</text>
	</g>
	<g transform="translate(235,312)">
		<text transform="matrix(1 0 0 1 0 -1.464844e-05)" class="st20 st5 st8">min</text>
	</g>
	<g>
		<line class="st23" x1="379.1" y1="344" x2="627" y2="344"/>
	</g>
	<g transform="translate(605,316)">
		<text transform="matrix(1 0 0 1 0 -1.464844e-05)" class="st20 st5 st7">u</text>
	</g>
	<g transform="translate(626,334)">
		<text transform="matrix(1 0 0 1 0 -1.464844e-05)" class="st20 st5 st8">3,2</text>
	</g>
	<g transform="translate(626,298)">
		<text transform="matrix(1 0 0 1 0 -1.464844e-05)" class="st20 st5 st8">max</text>
	</g>
	<g transform="translate(681,316)">
		<text transform="matrix(1 0 0 1 0 -1.464844e-05)" class="st20 st5 st7"> </text>
	</g>
	<g>
		<line class="st19" x1="636.4" y1="320.6" x2="634.1" y2="331.2"/>
		<path class="st19" d="M640,327.7l-7.7,12l1.8-8.5L640,327.7"/>
		<path class="st19" d="M632.3,339.7l-2.1-14.1l3.9,5.6L632.3,339.7"/>
	</g>
	<g>
		<path class="st20" d="M640,327.7l-7.7,12l1.8-8.5L640,327.7z"/>
		<path class="st20" d="M632.3,339.7l-2.1-14.1l3.9,5.6L632.3,339.7z"/>
	</g>
</g>
</svg>
