<?xml version="1.0" encoding="utf-8"?>
<!-- Generator: Adobe Illustrator 21.1.0, SVG Export Plug-In . SVG Version: 6.00 Build 0)  -->
<svg version="1.1" id="Layer_1" xmlns="http://www.w3.org/2000/svg" xmlns:xlink="http://www.w3.org/1999/xlink" x="0px" y="0px"
	 viewBox="0 0 731 577" style="enable-background:new 0 0 731 577;" xml:space="preserve">
<style type="text/css">
	.st0{clip-path:url(#SVGID_2_);fill:#FFFFFF;}
	.st1{fill:#FFFFFF;}
	.st2{fill:none;stroke:#262626;stroke-width:0.6667;stroke-linejoin:round;stroke-miterlimit:10;}
	.st3{fill:none;stroke:#262626;stroke-width:0.6667;stroke-linecap:square;stroke-linejoin:round;stroke-miterlimit:10;}
	.st4{fill:#262626;}
	.st5{font-family:'MyriadPro-Regular';}
	.st6{font-size:35px;}
	.st7{font-size:37px;}
	.st8{font-size:29px;}
	.st9{fill:none;stroke:#FF0000;stroke-width:0.6667;stroke-linejoin:round;stroke-miterlimit:10;}
	.st10{fill:none;stroke:#FF0000;stroke-width:0.6667;stroke-linecap:round;stroke-linejoin:round;stroke-miterlimit:10;}
	.st11{fill:none;stroke:#FF0000;stroke-width:1.6;stroke-linejoin:round;stroke-miterlimit:10;}
	.st12{fill:none;stroke:#FF0000;stroke-width:1.6;stroke-linecap:round;stroke-linejoin:round;stroke-miterlimit:10;}
	.st13{fill:none;stroke:#FF0000;stroke-width:1.3333;stroke-linejoin:round;stroke-miterlimit:10;}
	.st14{fill:none;stroke:#0000FF;stroke-width:2.6667;stroke-linejoin:round;stroke-miterlimit:10;}
	.st15{fill:none;stroke:#0000FF;stroke-width:2.6667;stroke-linecap:round;stroke-linejoin:round;stroke-miterlimit:10;}
	.st16{fill:none;stroke:#000000;stroke-width:1.3333;stroke-linejoin:bevel;stroke-miterlimit:1;stroke-dasharray:10,6;}
	.st17{fill:none;stroke:#0000FF;stroke-width:0.6667;stroke-linejoin:round;stroke-miterlimit:10;}
	.st18{fill:#0000FF;}
</style>
<g>
	<g>
		<g>
			<defs>
				<rect id="SVGID_1_" y="0" width="731" height="577"/>
			</defs>
			<clipPath id="SVGID_2_">
				<use xlink:href="#SVGID_1_"  style="overflow:visible;"/>
			</clipPath>
			<rect y="0" class="st0" width="731" height="577"/>
		</g>
	</g>
	<g>
		<rect y="0" class="st1" width="731" height="577"/>
		<path class="st1" d="M94,513h567V43H94V513z"/>
	</g>
	<g>
		<line class="st2" x1="94" y1="513" x2="661" y2="513"/>
		<line class="st3" x1="207.4" y1="513" x2="207.4" y2="507.3"/>
		<line class="st3" x1="396.4" y1="513" x2="396.4" y2="507.3"/>
		<line class="st3" x1="585.4" y1="513" x2="585.4" y2="507.3"/>
	</g>
	<g transform="translate(207.4,522.6)">
		<text transform="matrix(1 0 0 1 -10 36)" class="st4 st5 st6">5</text>
	</g>
	<g transform="translate(396.4,522.6)">
		<text transform="matrix(1 0 0 1 -19.5 36)" class="st4 st5 st6">10</text>
	</g>
	<g transform="translate(585.4,522.6)">
		<text transform="matrix(1 0 0 1 -19.5 36)" class="st4 st5 st6">15</text>
	</g>
	<g transform="translate(348,574)">
		<text transform="matrix(1 0 0 1 32 14)" class="st4 st5 st7">q</text>
	</g>
	<g transform="translate(369,592)">
		<text transform="matrix(1 0 0 1 32 14)" class="st4 st5 st8">t,3</text>
	</g>
	<g>
		<line class="st2" x1="94" y1="513" x2="94" y2="43"/>
		<line class="st3" x1="94" y1="513" x2="99.7" y2="513"/>
		<line class="st3" x1="94" y1="395.5" x2="99.7" y2="395.5"/>
		<line class="st3" x1="94" y1="278" x2="99.7" y2="278"/>
		<line class="st3" x1="94" y1="160.5" x2="99.7" y2="160.5"/>
		<line class="st3" x1="94" y1="43" x2="99.7" y2="43"/>
	</g>
	<g transform="translate(84.4,513)">
		<text transform="matrix(1 0 0 1 -32 14)" class="st4 st5 st6">-1</text>
	</g>
	<g transform="translate(84.4,395.5)">
		<text transform="matrix(1 0 0 1 -61 14)" class="st4 st5 st6">-0.5</text>
	</g>
	<g transform="translate(84.4,278)">
		<text transform="matrix(1 0 0 1 -20 14)" class="st4 st5 st6">0</text>
	</g>
	<g transform="translate(84.4,160.5)">
		<text transform="matrix(1 0 0 1 -49 14)" class="st4 st5 st6">0.5</text>
	</g>
	<g transform="translate(84.4,43)">
		<text transform="matrix(1 0 0 1 -20 14)" class="st4 st5 st6">1</text>
	</g>
	<g transform="translate(28,305) rotate(-90)">
		<text transform="matrix(1 0 0 1 -3.515625e-04 0)" class="st4 st5 st7">p</text>
	</g>
	<g transform="translate(46,284) rotate(-90)">
		<text transform="matrix(1 0 0 1 -3.515625e-04 0)" class="st4 st5 st8">t,3</text>
	</g>
	<g transform="translate(357,21)">
		<text transform="matrix(1 0 0 1 0 -4)" class="st5 st7">T</text>
	</g>
	<g transform="translate(380,39)">
		<text transform="matrix(1 0 0 1 0 -4)" class="st5 st8">3</text>
	</g>
	<g>
		<line class="st9" x1="94" y1="360.5" x2="105.3" y2="399.4"/>
		<line class="st10" x1="105.3" y1="399.4" x2="116.7" y2="428.2"/>
		<line class="st10" x1="116.7" y1="428.2" x2="128" y2="448.9"/>
		<line class="st10" x1="128" y1="448.9" x2="139.4" y2="463.6"/>
		<line class="st10" x1="139.4" y1="463.6" x2="150.7" y2="474.2"/>
		<line class="st10" x1="150.7" y1="474.2" x2="162" y2="481.9"/>
		<line class="st10" x1="162" y1="481.9" x2="173.4" y2="487.6"/>
		<line class="st10" x1="173.4" y1="487.6" x2="184.7" y2="491.9"/>
		<line class="st10" x1="184.7" y1="491.9" x2="196.1" y2="495.3"/>
		<line class="st10" x1="196.1" y1="495.3" x2="207.4" y2="497.9"/>
		<line class="st10" x1="207.4" y1="497.9" x2="218.7" y2="500"/>
		<line class="st10" x1="218.7" y1="500" x2="230.1" y2="501.7"/>
		<line class="st10" x1="230.1" y1="501.7" x2="241.4" y2="503.1"/>
		<line class="st10" x1="241.4" y1="503.1" x2="252.8" y2="504.3"/>
		<line class="st10" x1="252.8" y1="504.3" x2="264.1" y2="505.3"/>
		<line class="st10" x1="264.1" y1="505.3" x2="275.4" y2="506.1"/>
		<line class="st10" x1="275.4" y1="506.1" x2="286.8" y2="506.8"/>
		<line class="st10" x1="286.8" y1="506.8" x2="298.1" y2="507.4"/>
		<line class="st10" x1="298.1" y1="507.4" x2="309.5" y2="507.9"/>
		<line class="st10" x1="309.5" y1="507.9" x2="320.8" y2="508.3"/>
		<line class="st10" x1="320.8" y1="508.3" x2="332.1" y2="508.7"/>
		<line class="st10" x1="332.1" y1="508.7" x2="343.5" y2="509.1"/>
		<line class="st10" x1="343.5" y1="509.1" x2="354.8" y2="509.4"/>
		<line class="st10" x1="354.8" y1="509.4" x2="366.2" y2="509.6"/>
		<line class="st10" x1="366.2" y1="509.6" x2="377.5" y2="509.9"/>
		<line class="st10" x1="377.5" y1="509.9" x2="388.8" y2="510.1"/>
		<line class="st10" x1="388.8" y1="510.1" x2="400.2" y2="510.3"/>
		<line class="st10" x1="400.2" y1="510.3" x2="411.5" y2="510.5"/>
		<line class="st10" x1="411.5" y1="510.5" x2="422.9" y2="510.6"/>
		<line class="st10" x1="422.9" y1="510.6" x2="434.2" y2="510.8"/>
		<line class="st10" x1="434.2" y1="510.8" x2="445.5" y2="510.9"/>
		<line class="st10" x1="445.5" y1="510.9" x2="456.9" y2="511"/>
		<line class="st10" x1="456.9" y1="511" x2="468.2" y2="511.1"/>
		<line class="st10" x1="468.2" y1="511.1" x2="479.6" y2="511.2"/>
		<line class="st10" x1="479.6" y1="511.2" x2="490.9" y2="511.3"/>
		<line class="st10" x1="490.9" y1="511.3" x2="502.2" y2="511.4"/>
		<line class="st10" x1="502.2" y1="511.4" x2="513.6" y2="511.5"/>
		<line class="st10" x1="513.6" y1="511.5" x2="524.9" y2="511.6"/>
		<line class="st10" x1="524.9" y1="511.6" x2="536.3" y2="511.6"/>
		<line class="st10" x1="536.3" y1="511.6" x2="547.6" y2="511.7"/>
		<line class="st10" x1="547.6" y1="511.7" x2="558.9" y2="511.8"/>
		<line class="st10" x1="558.9" y1="511.8" x2="570.3" y2="511.8"/>
		<line class="st10" x1="570.3" y1="511.8" x2="581.6" y2="511.9"/>
		<line class="st10" x1="581.6" y1="511.9" x2="593" y2="511.9"/>
		<line class="st10" x1="593" y1="511.9" x2="604.3" y2="512"/>
		<line class="st10" x1="604.3" y1="512" x2="615.6" y2="512"/>
		<line class="st10" x1="615.6" y1="512" x2="627" y2="512.1"/>
		<line class="st10" x1="627" y1="512.1" x2="638.3" y2="512.1"/>
		<line class="st9" x1="638.3" y1="512.1" x2="649.7" y2="512.1"/>
		<line class="st11" x1="661" y1="360.5" x2="661" y2="512.2"/>
		<line class="st11" x1="94" y1="114.6" x2="105.3" y2="117"/>
		<line class="st12" x1="105.3" y1="117" x2="116.7" y2="119.5"/>
		<line class="st12" x1="116.7" y1="119.5" x2="128" y2="122.1"/>
		<line class="st12" x1="128" y1="122.1" x2="139.4" y2="124.8"/>
		<line class="st12" x1="139.4" y1="124.8" x2="150.7" y2="127.6"/>
		<line class="st12" x1="150.7" y1="127.6" x2="162" y2="130.5"/>
		<line class="st12" x1="162" y1="130.5" x2="173.4" y2="133.6"/>
		<line class="st12" x1="173.4" y1="133.6" x2="184.7" y2="136.7"/>
		<line class="st12" x1="184.7" y1="136.7" x2="196.1" y2="140"/>
		<line class="st12" x1="196.1" y1="140" x2="207.4" y2="143.4"/>
		<line class="st12" x1="207.4" y1="143.4" x2="218.7" y2="147"/>
		<line class="st12" x1="218.7" y1="147" x2="230.1" y2="150.6"/>
		<line class="st12" x1="230.1" y1="150.6" x2="241.4" y2="154.5"/>
		<line class="st12" x1="241.4" y1="154.5" x2="252.8" y2="158.4"/>
		<line class="st12" x1="252.8" y1="158.4" x2="264.1" y2="162.5"/>
		<line class="st12" x1="264.1" y1="162.5" x2="275.4" y2="166.7"/>
		<line class="st12" x1="275.4" y1="166.7" x2="286.8" y2="171.1"/>
		<line class="st12" x1="286.8" y1="171.1" x2="298.1" y2="175.7"/>
		<line class="st12" x1="298.1" y1="175.7" x2="309.5" y2="180.3"/>
		<line class="st12" x1="309.5" y1="180.3" x2="320.8" y2="185.1"/>
		<line class="st12" x1="320.8" y1="185.1" x2="332.1" y2="190.1"/>
		<line class="st12" x1="332.1" y1="190.1" x2="343.5" y2="195.2"/>
		<line class="st12" x1="343.5" y1="195.2" x2="354.8" y2="200.4"/>
		<line class="st12" x1="354.8" y1="200.4" x2="366.2" y2="205.8"/>
		<line class="st12" x1="366.2" y1="205.8" x2="377.5" y2="211.3"/>
		<line class="st12" x1="377.5" y1="211.3" x2="388.8" y2="216.9"/>
		<line class="st12" x1="388.8" y1="216.9" x2="400.2" y2="222.7"/>
		<line class="st12" x1="400.2" y1="222.7" x2="411.5" y2="228.5"/>
		<line class="st12" x1="411.5" y1="228.5" x2="422.9" y2="234.4"/>
		<line class="st12" x1="422.9" y1="234.4" x2="434.2" y2="240.5"/>
		<line class="st12" x1="434.2" y1="240.5" x2="445.5" y2="246.6"/>
		<line class="st12" x1="445.5" y1="246.6" x2="456.9" y2="252.7"/>
		<line class="st12" x1="456.9" y1="252.7" x2="468.2" y2="259"/>
		<line class="st12" x1="468.2" y1="259" x2="479.6" y2="265.2"/>
		<line class="st12" x1="479.6" y1="265.2" x2="490.9" y2="271.5"/>
		<line class="st12" x1="490.9" y1="271.5" x2="502.2" y2="277.8"/>
		<line class="st12" x1="502.2" y1="277.8" x2="513.6" y2="284.1"/>
		<line class="st12" x1="513.6" y1="284.1" x2="524.9" y2="290.4"/>
		<line class="st12" x1="524.9" y1="290.4" x2="536.3" y2="296.7"/>
		<line class="st12" x1="536.3" y1="296.7" x2="547.6" y2="302.9"/>
		<line class="st12" x1="547.6" y1="302.9" x2="558.9" y2="309.1"/>
		<line class="st12" x1="558.9" y1="309.1" x2="570.3" y2="315.2"/>
		<line class="st12" x1="570.3" y1="315.2" x2="581.6" y2="321.2"/>
		<line class="st12" x1="581.6" y1="321.2" x2="593" y2="327.2"/>
		<line class="st12" x1="593" y1="327.2" x2="604.3" y2="333"/>
		<line class="st12" x1="604.3" y1="333" x2="615.6" y2="338.8"/>
		<line class="st12" x1="615.6" y1="338.8" x2="627" y2="344.4"/>
		<line class="st12" x1="627" y1="344.4" x2="638.3" y2="349.9"/>
		<line class="st12" x1="638.3" y1="349.9" x2="649.7" y2="355.3"/>
		<line class="st11" x1="649.7" y1="355.3" x2="661" y2="360.5"/>
		<line class="st11" x1="94" y1="114.6" x2="94" y2="360.5"/>
		<line class="st9" x1="105.3" y1="513" x2="116.7" y2="513"/>
		<line class="st10" x1="116.7" y1="513" x2="128" y2="513"/>
		<line class="st10" x1="128" y1="513" x2="139.4" y2="513"/>
		<line class="st10" x1="139.4" y1="513" x2="150.7" y2="513"/>
		<line class="st10" x1="150.7" y1="513" x2="162" y2="513"/>
		<line class="st10" x1="162" y1="513" x2="173.4" y2="513"/>
		<line class="st10" x1="173.4" y1="513" x2="184.7" y2="513"/>
		<line class="st10" x1="184.7" y1="513" x2="196.1" y2="513"/>
		<line class="st10" x1="196.1" y1="513" x2="207.4" y2="513"/>
		<line class="st10" x1="207.4" y1="513" x2="218.7" y2="513"/>
		<line class="st10" x1="218.7" y1="513" x2="230.1" y2="513"/>
		<line class="st10" x1="230.1" y1="513" x2="241.4" y2="513"/>
		<line class="st10" x1="241.4" y1="513" x2="252.8" y2="513"/>
		<line class="st10" x1="252.8" y1="513" x2="264.1" y2="513"/>
		<line class="st10" x1="264.1" y1="513" x2="275.4" y2="513"/>
		<line class="st10" x1="275.4" y1="513" x2="286.8" y2="513"/>
		<line class="st10" x1="286.8" y1="513" x2="298.1" y2="513"/>
		<line class="st10" x1="298.1" y1="513" x2="309.5" y2="513"/>
		<line class="st10" x1="309.5" y1="513" x2="320.8" y2="513"/>
		<line class="st10" x1="320.8" y1="513" x2="332.1" y2="513"/>
		<line class="st10" x1="332.1" y1="513" x2="343.5" y2="513"/>
		<line class="st10" x1="343.5" y1="513" x2="354.8" y2="513"/>
		<line class="st10" x1="354.8" y1="513" x2="366.2" y2="513"/>
		<line class="st10" x1="366.2" y1="513" x2="377.5" y2="513"/>
		<line class="st10" x1="377.5" y1="513" x2="388.8" y2="513"/>
		<line class="st10" x1="388.8" y1="513" x2="400.2" y2="513"/>
		<line class="st10" x1="400.2" y1="513" x2="411.5" y2="513"/>
		<line class="st10" x1="411.5" y1="513" x2="422.9" y2="513"/>
		<line class="st10" x1="422.9" y1="513" x2="434.2" y2="513"/>
		<line class="st10" x1="434.2" y1="513" x2="445.5" y2="513"/>
		<line class="st10" x1="445.5" y1="513" x2="456.9" y2="513"/>
		<line class="st10" x1="456.9" y1="513" x2="468.2" y2="513"/>
		<line class="st10" x1="468.2" y1="513" x2="479.6" y2="513"/>
		<line class="st10" x1="479.6" y1="513" x2="490.9" y2="513"/>
		<line class="st10" x1="490.9" y1="513" x2="502.2" y2="513"/>
		<line class="st10" x1="502.2" y1="513" x2="513.6" y2="513"/>
		<line class="st10" x1="513.6" y1="513" x2="524.9" y2="513"/>
		<line class="st10" x1="524.9" y1="513" x2="536.3" y2="513"/>
		<line class="st10" x1="536.3" y1="513" x2="547.6" y2="513"/>
		<line class="st10" x1="547.6" y1="513" x2="558.9" y2="513"/>
		<line class="st10" x1="558.9" y1="513" x2="570.3" y2="513"/>
		<line class="st10" x1="570.3" y1="513" x2="581.6" y2="513"/>
		<line class="st10" x1="581.6" y1="513" x2="593" y2="513"/>
		<line class="st10" x1="593" y1="513" x2="604.3" y2="513"/>
		<line class="st10" x1="604.3" y1="513" x2="615.6" y2="513"/>
		<line class="st10" x1="615.6" y1="513" x2="627" y2="513"/>
		<line class="st10" x1="627" y1="513" x2="638.3" y2="513"/>
		<line class="st9" x1="638.3" y1="513" x2="649.7" y2="513"/>
		<line class="st9" x1="661" y1="512.2" x2="661" y2="513"/>
		<line class="st11" x1="94" y1="360.5" x2="105.3" y2="399.4"/>
		<line class="st12" x1="105.3" y1="399.4" x2="116.7" y2="428.2"/>
		<line class="st12" x1="116.7" y1="428.2" x2="128" y2="448.9"/>
		<line class="st12" x1="128" y1="448.9" x2="139.4" y2="463.6"/>
		<line class="st12" x1="139.4" y1="463.6" x2="150.7" y2="474.2"/>
		<line class="st12" x1="150.7" y1="474.2" x2="162" y2="481.9"/>
		<line class="st12" x1="162" y1="481.9" x2="173.4" y2="487.6"/>
		<line class="st12" x1="173.4" y1="487.6" x2="184.7" y2="491.9"/>
		<line class="st12" x1="184.7" y1="491.9" x2="196.1" y2="495.3"/>
		<line class="st12" x1="196.1" y1="495.3" x2="207.4" y2="497.9"/>
		<line class="st12" x1="207.4" y1="497.9" x2="218.7" y2="500"/>
		<line class="st12" x1="218.7" y1="500" x2="230.1" y2="501.7"/>
		<line class="st12" x1="230.1" y1="501.7" x2="241.4" y2="503.1"/>
		<line class="st12" x1="241.4" y1="503.1" x2="252.8" y2="504.3"/>
		<line class="st12" x1="252.8" y1="504.3" x2="264.1" y2="505.3"/>
		<line class="st12" x1="264.1" y1="505.3" x2="275.4" y2="506.1"/>
		<line class="st12" x1="275.4" y1="506.1" x2="286.8" y2="506.8"/>
		<line class="st12" x1="286.8" y1="506.8" x2="298.1" y2="507.4"/>
		<line class="st12" x1="298.1" y1="507.4" x2="309.5" y2="507.9"/>
		<line class="st12" x1="309.5" y1="507.9" x2="320.8" y2="508.3"/>
		<line class="st12" x1="320.8" y1="508.3" x2="332.1" y2="508.7"/>
		<line class="st12" x1="332.1" y1="508.7" x2="343.5" y2="509.1"/>
		<line class="st12" x1="343.5" y1="509.1" x2="354.8" y2="509.4"/>
		<line class="st12" x1="354.8" y1="509.4" x2="366.2" y2="509.6"/>
		<line class="st12" x1="366.2" y1="509.6" x2="377.5" y2="509.9"/>
		<line class="st12" x1="377.5" y1="509.9" x2="388.8" y2="510.1"/>
		<line class="st12" x1="388.8" y1="510.1" x2="400.2" y2="510.3"/>
		<line class="st12" x1="400.2" y1="510.3" x2="411.5" y2="510.5"/>
		<line class="st12" x1="411.5" y1="510.5" x2="422.9" y2="510.6"/>
		<line class="st12" x1="422.9" y1="510.6" x2="434.2" y2="510.8"/>
		<line class="st12" x1="434.2" y1="510.8" x2="445.5" y2="510.9"/>
		<line class="st12" x1="445.5" y1="510.9" x2="456.9" y2="511"/>
		<line class="st12" x1="456.9" y1="511" x2="468.2" y2="511.1"/>
		<line class="st12" x1="468.2" y1="511.1" x2="479.6" y2="511.2"/>
		<line class="st12" x1="479.6" y1="511.2" x2="490.9" y2="511.3"/>
		<line class="st12" x1="490.9" y1="511.3" x2="502.2" y2="511.4"/>
		<line class="st12" x1="502.2" y1="511.4" x2="513.6" y2="511.5"/>
		<line class="st12" x1="513.6" y1="511.5" x2="524.9" y2="511.6"/>
		<line class="st12" x1="524.9" y1="511.6" x2="536.3" y2="511.6"/>
		<line class="st12" x1="536.3" y1="511.6" x2="547.6" y2="511.7"/>
		<line class="st12" x1="547.6" y1="511.7" x2="558.9" y2="511.8"/>
		<line class="st12" x1="558.9" y1="511.8" x2="570.3" y2="511.8"/>
		<line class="st12" x1="570.3" y1="511.8" x2="581.6" y2="511.9"/>
		<line class="st12" x1="581.6" y1="511.9" x2="593" y2="511.9"/>
		<line class="st12" x1="593" y1="511.9" x2="604.3" y2="512"/>
		<line class="st12" x1="604.3" y1="512" x2="615.6" y2="512"/>
		<line class="st12" x1="615.6" y1="512" x2="627" y2="512.1"/>
		<line class="st12" x1="627" y1="512.1" x2="638.3" y2="512.1"/>
		<line class="st12" x1="638.3" y1="512.1" x2="649.7" y2="512.1"/>
		<line class="st11" x1="649.7" y1="512.1" x2="661" y2="512.2"/>
		<line class="st11" x1="94" y1="513" x2="94" y2="360.5"/>
		<line class="st13" x1="94" y1="513" x2="661" y2="513"/>
		<line class="st14" x1="196.5" y1="64.5" x2="195.7" y2="62.1"/>
	</g>
	<g>
		<line class="st15" x1="195.7" y1="62.1" x2="193.7" y2="60.7"/>
		<line class="st15" x1="193.7" y1="60.7" x2="191.3" y2="60.7"/>
		<line class="st15" x1="191.3" y1="60.7" x2="189.3" y2="62.1"/>
		<line class="st15" x1="189.3" y1="62.1" x2="188.5" y2="64.5"/>
		<line class="st15" x1="188.5" y1="64.5" x2="189.3" y2="66.9"/>
		<line class="st15" x1="189.3" y1="66.9" x2="191.3" y2="68.3"/>
		<line class="st15" x1="191.3" y1="68.3" x2="193.7" y2="68.3"/>
		<line class="st15" x1="193.7" y1="68.3" x2="195.7" y2="66.9"/>
		<line class="st14" x1="195.7" y1="66.9" x2="196.5" y2="64.5"/>
		<line class="st14" x1="665.5" y1="64.5" x2="664.7" y2="62.1"/>
		<line class="st15" x1="664.7" y1="62.1" x2="662.7" y2="60.7"/>
		<line class="st15" x1="662.7" y1="60.7" x2="660.3" y2="60.7"/>
		<line class="st15" x1="660.3" y1="60.7" x2="658.3" y2="62.1"/>
		<line class="st15" x1="658.3" y1="62.1" x2="657.5" y2="64.5"/>
		<line class="st15" x1="657.5" y1="64.5" x2="658.3" y2="66.9"/>
		<line class="st15" x1="658.3" y1="66.9" x2="660.3" y2="68.3"/>
		<line class="st15" x1="660.3" y1="68.3" x2="662.7" y2="68.3"/>
		<line class="st15" x1="662.7" y1="68.3" x2="664.7" y2="66.9"/>
		<line class="st14" x1="664.7" y1="66.9" x2="665.5" y2="64.5"/>
	</g>
	<g>
		<line class="st16" x1="192.5" y1="64.3" x2="661" y2="64.3"/>
	</g>
	<g transform="translate(107,508)">
		<text transform="matrix(1 0 0 1 0 -1.464844e-05)" class="st5 st7">T</text>
	</g>
	<g transform="translate(130,526)">
		<text transform="matrix(1 0 0 1 0 -1.464844e-05)" class="st5 st8">3,1</text>
	</g>
	<g transform="translate(358,373)">
		<text transform="matrix(1 0 0 1 0 -1.464844e-05)" class="st5 st7">T</text>
	</g>
	<g transform="translate(381,391)">
		<text transform="matrix(1 0 0 1 0 -1.464844e-05)" class="st5 st8">3,2</text>
	</g>
	<g>
		<line class="st17" x1="204.8" y1="84.7" x2="199.8" y2="77.2"/>
		<path class="st17" d="M198.2,83.8L195,69.9l4.8,7.2L198.2,83.8"/>
		<path class="st17" d="M195,69.9l11.5,8.4l-6.7-1.1L195,69.9"/>
	</g>
	<g>
		<path class="st18" d="M198.2,83.8L195,69.9l4.8,7.2L198.2,83.8z"/>
		<path class="st18" d="M195,69.9l11.5,8.4l-6.7-1.1L195,69.9z"/>
	</g>
	<g>
		<line class="st17" x1="638" y1="79.1" x2="648.5" y2="72.9"/>
		<path class="st17" d="M641.9,71l14-2.5l-7.5,4.4L641.9,71"/>
		<path class="st17" d="M655.9,68.5L647,79.6l1.5-6.7L655.9,68.5"/>
	</g>
	<g>
		<path class="st18" d="M641.9,71l14-2.5l-7.5,4.4L641.9,71z"/>
		<path class="st18" d="M655.9,68.5L647,79.6l1.5-6.7L655.9,68.5z"/>
	</g>
	<g transform="translate(597,121)">
		<text transform="matrix(1 0 0 1 0 -1.464844e-05)" class="st18 st5 st7">q</text>
	</g>
	<g transform="translate(618,139)">
		<text transform="matrix(1 0 0 1 0 -1.464844e-05)" class="st18 st5 st8">t,3</text>
	</g>
	<g transform="translate(618,103)">
		<text transform="matrix(1 0 0 1 0 -1.464844e-05)" class="st18 st5 st8">max</text>
	</g>
	<g transform="translate(210,118)">
		<text transform="matrix(1 0 0 1 0 -1.464844e-05)" class="st18 st5 st7">q</text>
	</g>
	<g transform="translate(231,136)">
		<text transform="matrix(1 0 0 1 0 -1.464844e-05)" class="st18 st5 st8">t,3</text>
	</g>
	<g transform="translate(231,100)">
		<text transform="matrix(1 0 0 1 0 -1.464844e-05)" class="st18 st5 st8">min</text>
	</g>
</g>
</svg>
