<?xml version="1.0" encoding="utf-8"?>
<!-- Generator: Adobe Illustrator 21.1.0, SVG Export Plug-In . SVG Version: 6.00 Build 0)  -->
<svg version="1.1" id="Layer_1" xmlns="http://www.w3.org/2000/svg" xmlns:xlink="http://www.w3.org/1999/xlink" x="0px" y="0px"
	 viewBox="0 0 735 555" style="enable-background:new 0 0 735 555;" xml:space="preserve">
<style type="text/css">
	.st0{clip-path:url(#SVGID_2_);fill:#FFFFFF;}
	.st1{fill:#FFFFFF;}
	.st2{fill:none;stroke:#262626;stroke-width:0.6667;stroke-linejoin:round;stroke-miterlimit:10;}
	.st3{fill:none;stroke:#262626;stroke-width:0.6667;stroke-linecap:square;stroke-linejoin:round;stroke-miterlimit:10;}
	.st4{fill:#262626;}
	.st5{font-family:'MyriadPro-Regular';}
	.st6{font-size:35px;}
	.st7{font-size:37px;}
	.st8{font-size:29px;}
	.st9{fill:none;stroke:#FF0000;stroke-width:0.6667;stroke-linejoin:round;stroke-miterlimit:10;}
	.st10{fill:none;stroke:#FF0000;stroke-width:0.6667;stroke-linecap:round;stroke-linejoin:round;stroke-miterlimit:10;}
	.st11{fill:none;stroke:#FF0000;stroke-width:1.6;stroke-linejoin:round;stroke-miterlimit:10;}
	.st12{fill:none;stroke:#FF0000;stroke-width:1.6;stroke-linecap:round;stroke-linejoin:round;stroke-miterlimit:10;}
	.st13{fill:none;stroke:#FF0000;stroke-width:1.3333;stroke-linejoin:round;stroke-miterlimit:10;}
	.st14{fill:none;stroke:#0000FF;stroke-width:2.6667;stroke-linejoin:round;stroke-miterlimit:10;}
	.st15{fill:none;stroke:#0000FF;stroke-width:2.6667;stroke-linecap:round;stroke-linejoin:round;stroke-miterlimit:10;}
	.st16{fill:none;stroke:#000000;stroke-width:1.3333;stroke-linejoin:bevel;stroke-miterlimit:1;stroke-dasharray:10,6;}
	.st17{fill:#0000FF;}
	.st18{fill:none;stroke:#0000FF;stroke-width:1.3333;stroke-linejoin:round;stroke-miterlimit:10;}
	.st19{fill:none;stroke:#0000FF;stroke-width:0.6667;stroke-linejoin:round;stroke-miterlimit:10;}
</style>
<g>
	<g>
		<g>
			<defs>
				<rect id="SVGID_1_" y="0" width="735" height="555"/>
			</defs>
			<clipPath id="SVGID_2_">
				<use xlink:href="#SVGID_1_"  style="overflow:visible;"/>
			</clipPath>
			<rect y="0" class="st0" width="735" height="555"/>
		</g>
	</g>
	<g>
		<rect y="0" class="st1" width="735" height="555"/>
		<path class="st1" d="M95,494h569V41H95V494z"/>
	</g>
	<g>
		<line class="st2" x1="95" y1="494" x2="664" y2="494"/>
		<line class="st3" x1="208.8" y1="494" x2="208.8" y2="488.3"/>
		<line class="st3" x1="398.5" y1="494" x2="398.5" y2="488.3"/>
		<line class="st3" x1="588.1" y1="494" x2="588.1" y2="488.3"/>
	</g>
	<g transform="translate(208.8,503.6)">
		<text transform="matrix(1 0 0 1 -10 36)" class="st4 st5 st6">5</text>
	</g>
	<g transform="translate(398.4667,503.6)">
		<text transform="matrix(1 0 0 1 -19.5 36)" class="st4 st5 st6">10</text>
	</g>
	<g transform="translate(588.1334,503.6)">
		<text transform="matrix(1 0 0 1 -19.5 36)" class="st4 st5 st6">15</text>
	</g>
	<g transform="translate(386,569)">
		<text transform="matrix(1 0 0 1 0 -1.464844e-05)" class="st4 st5 st7">q</text>
	</g>
	<g transform="translate(407,587)">
		<text transform="matrix(1 0 0 1 0 -1.464844e-05)" class="st4 st5 st8">t,3</text>
	</g>
	<g>
		<line class="st2" x1="95" y1="494" x2="95" y2="41"/>
		<line class="st3" x1="95" y1="494" x2="100.7" y2="494"/>
		<line class="st3" x1="95" y1="380.8" x2="100.7" y2="380.8"/>
		<line class="st3" x1="95" y1="267.5" x2="100.7" y2="267.5"/>
		<line class="st3" x1="95" y1="154.2" x2="100.7" y2="154.2"/>
		<line class="st3" x1="95" y1="41" x2="100.7" y2="41"/>
	</g>
	<g transform="translate(85.4,494)">
		<text transform="matrix(1 0 0 1 -32 14)" class="st4 st5 st6">-1</text>
	</g>
	<g transform="translate(85.4,380.75)">
		<text transform="matrix(1 0 0 1 -61 14)" class="st4 st5 st6">-0.5</text>
	</g>
	<g transform="translate(85.4,267.5)">
		<text transform="matrix(1 0 0 1 -20 14)" class="st4 st5 st6">0</text>
	</g>
	<g transform="translate(85.4,154.25)">
		<text transform="matrix(1 0 0 1 -49 14)" class="st4 st5 st6">0.5</text>
	</g>
	<g transform="translate(85.4,41)">
		<text transform="matrix(1 0 0 1 -20 14)" class="st4 st5 st6">1</text>
	</g>
	<g transform="translate(29,295) rotate(-90)">
		<text transform="matrix(1 0 0 1 -3.515625e-04 0)" class="st4 st5 st7">p</text>
	</g>
	<g transform="translate(47,274) rotate(-90)">
		<text transform="matrix(1 0 0 1 -3.515625e-04 0)" class="st4 st5 st8">t,3</text>
	</g>
	<g transform="translate(359,19)">
		<text transform="matrix(1 0 0 1 0 -1.464844e-05)" class="st5 st7">T</text>
	</g>
	<g transform="translate(382,37)">
		<text transform="matrix(1 0 0 1 0 -1.464844e-05)" class="st5 st8">3</text>
	</g>
	<g>
		<line class="st9" x1="95" y1="347" x2="106.4" y2="384.5"/>
		<line class="st10" x1="106.4" y1="384.5" x2="117.8" y2="412.3"/>
		<line class="st10" x1="117.8" y1="412.3" x2="129.1" y2="432.2"/>
		<line class="st10" x1="129.1" y1="432.2" x2="140.5" y2="446.4"/>
		<line class="st10" x1="140.5" y1="446.4" x2="151.9" y2="456.6"/>
		<line class="st10" x1="151.9" y1="456.6" x2="163.3" y2="464"/>
		<line class="st10" x1="163.3" y1="464" x2="174.7" y2="469.5"/>
		<line class="st10" x1="174.7" y1="469.5" x2="186" y2="473.7"/>
		<line class="st10" x1="186" y1="473.7" x2="197.4" y2="476.9"/>
		<line class="st10" x1="197.4" y1="476.9" x2="208.8" y2="479.5"/>
		<line class="st10" x1="208.8" y1="479.5" x2="220.2" y2="481.5"/>
		<line class="st10" x1="220.2" y1="481.5" x2="231.6" y2="483.1"/>
		<line class="st10" x1="231.6" y1="483.1" x2="242.9" y2="484.5"/>
		<line class="st10" x1="242.9" y1="484.5" x2="254.3" y2="485.6"/>
		<line class="st10" x1="254.3" y1="485.6" x2="265.7" y2="486.5"/>
		<line class="st10" x1="265.7" y1="486.5" x2="277.1" y2="487.3"/>
		<line class="st10" x1="277.1" y1="487.3" x2="288.5" y2="488"/>
		<line class="st10" x1="288.5" y1="488" x2="299.8" y2="488.6"/>
		<line class="st10" x1="299.8" y1="488.6" x2="311.2" y2="489.1"/>
		<line class="st10" x1="311.2" y1="489.1" x2="322.6" y2="489.5"/>
		<line class="st10" x1="322.6" y1="489.5" x2="334" y2="489.9"/>
		<line class="st10" x1="334" y1="489.9" x2="345.4" y2="490.2"/>
		<line class="st10" x1="345.4" y1="490.2" x2="356.7" y2="490.5"/>
		<line class="st10" x1="356.7" y1="490.5" x2="368.1" y2="490.8"/>
		<line class="st10" x1="368.1" y1="490.8" x2="379.5" y2="491"/>
		<line class="st10" x1="379.5" y1="491" x2="390.9" y2="491.2"/>
		<line class="st10" x1="390.9" y1="491.2" x2="402.3" y2="491.4"/>
		<line class="st10" x1="402.3" y1="491.4" x2="413.6" y2="491.6"/>
		<line class="st10" x1="413.6" y1="491.6" x2="425" y2="491.7"/>
		<line class="st10" x1="425" y1="491.7" x2="436.4" y2="491.9"/>
		<line class="st10" x1="436.4" y1="491.9" x2="447.8" y2="492"/>
		<line class="st10" x1="447.8" y1="492" x2="459.2" y2="492.1"/>
		<line class="st10" x1="459.2" y1="492.1" x2="470.5" y2="492.2"/>
		<line class="st10" x1="470.5" y1="492.2" x2="481.9" y2="492.3"/>
		<line class="st10" x1="481.9" y1="492.3" x2="493.3" y2="492.4"/>
		<line class="st10" x1="493.3" y1="492.4" x2="504.7" y2="492.5"/>
		<line class="st10" x1="504.7" y1="492.5" x2="516.1" y2="492.6"/>
		<line class="st10" x1="516.1" y1="492.6" x2="527.4" y2="492.6"/>
		<line class="st10" x1="527.4" y1="492.6" x2="538.8" y2="492.7"/>
		<line class="st10" x1="538.8" y1="492.7" x2="550.2" y2="492.8"/>
		<line class="st10" x1="550.2" y1="492.8" x2="561.6" y2="492.8"/>
		<line class="st10" x1="561.6" y1="492.8" x2="573" y2="492.9"/>
		<line class="st10" x1="573" y1="492.9" x2="584.3" y2="492.9"/>
		<line class="st10" x1="584.3" y1="492.9" x2="595.7" y2="493"/>
		<line class="st10" x1="595.7" y1="493" x2="607.1" y2="493"/>
		<line class="st10" x1="607.1" y1="493" x2="618.5" y2="493"/>
		<line class="st10" x1="618.5" y1="493" x2="629.9" y2="493.1"/>
		<line class="st10" x1="629.9" y1="493.1" x2="641.2" y2="493.1"/>
		<line class="st9" x1="641.2" y1="493.1" x2="652.6" y2="493.2"/>
		<line class="st11" x1="664" y1="347" x2="664" y2="493.2"/>
		<line class="st11" x1="95" y1="110.1" x2="106.4" y2="112.4"/>
		<line class="st12" x1="106.4" y1="112.4" x2="117.8" y2="114.8"/>
		<line class="st12" x1="117.8" y1="114.8" x2="129.1" y2="117.3"/>
		<line class="st12" x1="129.1" y1="117.3" x2="140.5" y2="119.9"/>
		<line class="st12" x1="140.5" y1="119.9" x2="151.9" y2="122.6"/>
		<line class="st12" x1="151.9" y1="122.6" x2="163.3" y2="125.4"/>
		<line class="st12" x1="163.3" y1="125.4" x2="174.7" y2="128.3"/>
		<line class="st12" x1="174.7" y1="128.3" x2="186" y2="131.3"/>
		<line class="st12" x1="186" y1="131.3" x2="197.4" y2="134.5"/>
		<line class="st12" x1="197.4" y1="134.5" x2="208.8" y2="137.8"/>
		<line class="st12" x1="208.8" y1="137.8" x2="220.2" y2="141.2"/>
		<line class="st12" x1="220.2" y1="141.2" x2="231.6" y2="144.7"/>
		<line class="st12" x1="231.6" y1="144.7" x2="242.9" y2="148.4"/>
		<line class="st12" x1="242.9" y1="148.4" x2="254.3" y2="152.2"/>
		<line class="st12" x1="254.3" y1="152.2" x2="265.7" y2="156.2"/>
		<line class="st12" x1="265.7" y1="156.2" x2="277.1" y2="160.3"/>
		<line class="st12" x1="277.1" y1="160.3" x2="288.5" y2="164.5"/>
		<line class="st12" x1="288.5" y1="164.5" x2="299.8" y2="168.9"/>
		<line class="st12" x1="299.8" y1="168.9" x2="311.2" y2="173.4"/>
		<line class="st12" x1="311.2" y1="173.4" x2="322.6" y2="178"/>
		<line class="st12" x1="322.6" y1="178" x2="334" y2="182.8"/>
		<line class="st12" x1="334" y1="182.8" x2="345.4" y2="187.7"/>
		<line class="st12" x1="345.4" y1="187.7" x2="356.7" y2="192.7"/>
		<line class="st12" x1="356.7" y1="192.7" x2="368.1" y2="197.9"/>
		<line class="st12" x1="368.1" y1="197.9" x2="379.5" y2="203.2"/>
		<line class="st12" x1="379.5" y1="203.2" x2="390.9" y2="208.6"/>
		<line class="st12" x1="390.9" y1="208.6" x2="402.3" y2="214.2"/>
		<line class="st12" x1="402.3" y1="214.2" x2="413.6" y2="219.8"/>
		<line class="st12" x1="413.6" y1="219.8" x2="425" y2="225.5"/>
		<line class="st12" x1="425" y1="225.5" x2="436.4" y2="231.3"/>
		<line class="st12" x1="436.4" y1="231.3" x2="447.8" y2="237.2"/>
		<line class="st12" x1="447.8" y1="237.2" x2="459.2" y2="243.2"/>
		<line class="st12" x1="459.2" y1="243.2" x2="470.5" y2="249.2"/>
		<line class="st12" x1="470.5" y1="249.2" x2="481.9" y2="255.2"/>
		<line class="st12" x1="481.9" y1="255.2" x2="493.3" y2="261.3"/>
		<line class="st12" x1="493.3" y1="261.3" x2="504.7" y2="267.3"/>
		<line class="st12" x1="504.7" y1="267.3" x2="516.1" y2="273.4"/>
		<line class="st12" x1="516.1" y1="273.4" x2="527.4" y2="279.5"/>
		<line class="st12" x1="527.4" y1="279.5" x2="538.8" y2="285.5"/>
		<line class="st12" x1="538.8" y1="285.5" x2="550.2" y2="291.5"/>
		<line class="st12" x1="550.2" y1="291.5" x2="561.6" y2="297.5"/>
		<line class="st12" x1="561.6" y1="297.5" x2="573" y2="303.3"/>
		<line class="st12" x1="573" y1="303.3" x2="584.3" y2="309.2"/>
		<line class="st12" x1="584.3" y1="309.2" x2="595.7" y2="314.9"/>
		<line class="st12" x1="595.7" y1="314.9" x2="607.1" y2="320.5"/>
		<line class="st12" x1="607.1" y1="320.5" x2="618.5" y2="326.1"/>
		<line class="st12" x1="618.5" y1="326.1" x2="629.9" y2="331.5"/>
		<line class="st12" x1="629.9" y1="331.5" x2="641.2" y2="336.8"/>
		<line class="st12" x1="641.2" y1="336.8" x2="652.6" y2="342"/>
		<line class="st11" x1="652.6" y1="342" x2="664" y2="347"/>
		<line class="st11" x1="95" y1="110.1" x2="95" y2="347"/>
		<line class="st9" x1="106.4" y1="494" x2="117.8" y2="494"/>
		<line class="st10" x1="117.8" y1="494" x2="129.1" y2="494"/>
		<line class="st10" x1="129.1" y1="494" x2="140.5" y2="494"/>
		<line class="st10" x1="140.5" y1="494" x2="151.9" y2="494"/>
		<line class="st10" x1="151.9" y1="494" x2="163.3" y2="494"/>
		<line class="st10" x1="163.3" y1="494" x2="174.7" y2="494"/>
		<line class="st10" x1="174.7" y1="494" x2="186" y2="494"/>
		<line class="st10" x1="186" y1="494" x2="197.4" y2="494"/>
		<line class="st10" x1="197.4" y1="494" x2="208.8" y2="494"/>
		<line class="st10" x1="208.8" y1="494" x2="220.2" y2="494"/>
		<line class="st10" x1="220.2" y1="494" x2="231.6" y2="494"/>
		<line class="st10" x1="231.6" y1="494" x2="242.9" y2="494"/>
		<line class="st10" x1="242.9" y1="494" x2="254.3" y2="494"/>
		<line class="st10" x1="254.3" y1="494" x2="265.7" y2="494"/>
		<line class="st10" x1="265.7" y1="494" x2="277.1" y2="494"/>
		<line class="st10" x1="277.1" y1="494" x2="288.5" y2="494"/>
		<line class="st10" x1="288.5" y1="494" x2="299.8" y2="494"/>
		<line class="st10" x1="299.8" y1="494" x2="311.2" y2="494"/>
		<line class="st10" x1="311.2" y1="494" x2="322.6" y2="494"/>
		<line class="st10" x1="322.6" y1="494" x2="334" y2="494"/>
		<line class="st10" x1="334" y1="494" x2="345.4" y2="494"/>
		<line class="st10" x1="345.4" y1="494" x2="356.7" y2="494"/>
		<line class="st10" x1="356.7" y1="494" x2="368.1" y2="494"/>
		<line class="st10" x1="368.1" y1="494" x2="379.5" y2="494"/>
		<line class="st10" x1="379.5" y1="494" x2="390.9" y2="494"/>
		<line class="st10" x1="390.9" y1="494" x2="402.3" y2="494"/>
		<line class="st10" x1="402.3" y1="494" x2="413.6" y2="494"/>
		<line class="st10" x1="413.6" y1="494" x2="425" y2="494"/>
		<line class="st10" x1="425" y1="494" x2="436.4" y2="494"/>
		<line class="st10" x1="436.4" y1="494" x2="447.8" y2="494"/>
		<line class="st10" x1="447.8" y1="494" x2="459.2" y2="494"/>
		<line class="st10" x1="459.2" y1="494" x2="470.5" y2="494"/>
		<line class="st10" x1="470.5" y1="494" x2="481.9" y2="494"/>
		<line class="st10" x1="481.9" y1="494" x2="493.3" y2="494"/>
		<line class="st10" x1="493.3" y1="494" x2="504.7" y2="494"/>
		<line class="st10" x1="504.7" y1="494" x2="516.1" y2="494"/>
		<line class="st10" x1="516.1" y1="494" x2="527.4" y2="494"/>
		<line class="st10" x1="527.4" y1="494" x2="538.8" y2="494"/>
		<line class="st10" x1="538.8" y1="494" x2="550.2" y2="494"/>
		<line class="st10" x1="550.2" y1="494" x2="561.6" y2="494"/>
		<line class="st10" x1="561.6" y1="494" x2="573" y2="494"/>
		<line class="st10" x1="573" y1="494" x2="584.3" y2="494"/>
		<line class="st10" x1="584.3" y1="494" x2="595.7" y2="494"/>
		<line class="st10" x1="595.7" y1="494" x2="607.1" y2="494"/>
		<line class="st10" x1="607.1" y1="494" x2="618.5" y2="494"/>
		<line class="st10" x1="618.5" y1="494" x2="629.9" y2="494"/>
		<line class="st10" x1="629.9" y1="494" x2="641.2" y2="494"/>
		<line class="st9" x1="641.2" y1="494" x2="652.6" y2="494"/>
		<line class="st9" x1="664" y1="493.2" x2="664" y2="494"/>
		<line class="st11" x1="95" y1="347" x2="106.4" y2="384.5"/>
		<line class="st12" x1="106.4" y1="384.5" x2="117.8" y2="412.3"/>
		<line class="st12" x1="117.8" y1="412.3" x2="129.1" y2="432.2"/>
		<line class="st12" x1="129.1" y1="432.2" x2="140.5" y2="446.4"/>
		<line class="st12" x1="140.5" y1="446.4" x2="151.9" y2="456.6"/>
		<line class="st12" x1="151.9" y1="456.6" x2="163.3" y2="464"/>
		<line class="st12" x1="163.3" y1="464" x2="174.7" y2="469.5"/>
		<line class="st12" x1="174.7" y1="469.5" x2="186" y2="473.7"/>
		<line class="st12" x1="186" y1="473.7" x2="197.4" y2="476.9"/>
		<line class="st12" x1="197.4" y1="476.9" x2="208.8" y2="479.5"/>
		<line class="st12" x1="208.8" y1="479.5" x2="220.2" y2="481.5"/>
		<line class="st12" x1="220.2" y1="481.5" x2="231.6" y2="483.1"/>
		<line class="st12" x1="231.6" y1="483.1" x2="242.9" y2="484.5"/>
		<line class="st12" x1="242.9" y1="484.5" x2="254.3" y2="485.6"/>
		<line class="st12" x1="254.3" y1="485.6" x2="265.7" y2="486.5"/>
		<line class="st12" x1="265.7" y1="486.5" x2="277.1" y2="487.3"/>
		<line class="st12" x1="277.1" y1="487.3" x2="288.5" y2="488"/>
		<line class="st12" x1="288.5" y1="488" x2="299.8" y2="488.6"/>
		<line class="st12" x1="299.8" y1="488.6" x2="311.2" y2="489.1"/>
		<line class="st12" x1="311.2" y1="489.1" x2="322.6" y2="489.5"/>
		<line class="st12" x1="322.6" y1="489.5" x2="334" y2="489.9"/>
		<line class="st12" x1="334" y1="489.9" x2="345.4" y2="490.2"/>
		<line class="st12" x1="345.4" y1="490.2" x2="356.7" y2="490.5"/>
		<line class="st12" x1="356.7" y1="490.5" x2="368.1" y2="490.8"/>
		<line class="st12" x1="368.1" y1="490.8" x2="379.5" y2="491"/>
		<line class="st12" x1="379.5" y1="491" x2="390.9" y2="491.2"/>
		<line class="st12" x1="390.9" y1="491.2" x2="402.3" y2="491.4"/>
		<line class="st12" x1="402.3" y1="491.4" x2="413.6" y2="491.6"/>
		<line class="st12" x1="413.6" y1="491.6" x2="425" y2="491.7"/>
		<line class="st12" x1="425" y1="491.7" x2="436.4" y2="491.9"/>
		<line class="st12" x1="436.4" y1="491.9" x2="447.8" y2="492"/>
		<line class="st12" x1="447.8" y1="492" x2="459.2" y2="492.1"/>
		<line class="st12" x1="459.2" y1="492.1" x2="470.5" y2="492.2"/>
		<line class="st12" x1="470.5" y1="492.2" x2="481.9" y2="492.3"/>
		<line class="st12" x1="481.9" y1="492.3" x2="493.3" y2="492.4"/>
		<line class="st12" x1="493.3" y1="492.4" x2="504.7" y2="492.5"/>
		<line class="st12" x1="504.7" y1="492.5" x2="516.1" y2="492.6"/>
		<line class="st12" x1="516.1" y1="492.6" x2="527.4" y2="492.6"/>
		<line class="st12" x1="527.4" y1="492.6" x2="538.8" y2="492.7"/>
		<line class="st12" x1="538.8" y1="492.7" x2="550.2" y2="492.8"/>
		<line class="st12" x1="550.2" y1="492.8" x2="561.6" y2="492.8"/>
		<line class="st12" x1="561.6" y1="492.8" x2="573" y2="492.9"/>
		<line class="st12" x1="573" y1="492.9" x2="584.3" y2="492.9"/>
		<line class="st12" x1="584.3" y1="492.9" x2="595.7" y2="493"/>
		<line class="st12" x1="595.7" y1="493" x2="607.1" y2="493"/>
		<line class="st12" x1="607.1" y1="493" x2="618.5" y2="493"/>
		<line class="st12" x1="618.5" y1="493" x2="629.9" y2="493.1"/>
		<line class="st12" x1="629.9" y1="493.1" x2="641.2" y2="493.1"/>
		<line class="st12" x1="641.2" y1="493.1" x2="652.6" y2="493.2"/>
		<line class="st11" x1="652.6" y1="493.2" x2="664" y2="493.2"/>
		<line class="st11" x1="95" y1="494" x2="95" y2="347"/>
		<line class="st13" x1="95" y1="494" x2="664" y2="494"/>
		<line class="st14" x1="197.5" y1="61.5" x2="196.7" y2="59.1"/>
	</g>
	<g>
		<line class="st15" x1="196.7" y1="59.1" x2="194.7" y2="57.7"/>
		<line class="st15" x1="194.7" y1="57.7" x2="192.3" y2="57.7"/>
		<line class="st15" x1="192.3" y1="57.7" x2="190.3" y2="59.1"/>
		<line class="st15" x1="190.3" y1="59.1" x2="189.5" y2="61.5"/>
		<line class="st15" x1="189.5" y1="61.5" x2="190.3" y2="63.9"/>
		<line class="st15" x1="190.3" y1="63.9" x2="192.3" y2="65.3"/>
		<line class="st15" x1="192.3" y1="65.3" x2="194.7" y2="65.3"/>
		<line class="st15" x1="194.7" y1="65.3" x2="196.7" y2="63.9"/>
		<line class="st14" x1="196.7" y1="63.9" x2="197.5" y2="61.5"/>
		<line class="st14" x1="668.5" y1="61.5" x2="667.7" y2="59.1"/>
		<line class="st15" x1="667.7" y1="59.1" x2="665.7" y2="57.7"/>
		<line class="st15" x1="665.7" y1="57.7" x2="663.3" y2="57.7"/>
		<line class="st15" x1="663.3" y1="57.7" x2="661.3" y2="59.1"/>
		<line class="st15" x1="661.3" y1="59.1" x2="660.5" y2="61.5"/>
		<line class="st15" x1="660.5" y1="61.5" x2="661.3" y2="63.9"/>
		<line class="st15" x1="661.3" y1="63.9" x2="663.3" y2="65.3"/>
		<line class="st15" x1="663.3" y1="65.3" x2="665.7" y2="65.3"/>
		<line class="st15" x1="665.7" y1="65.3" x2="667.7" y2="63.9"/>
		<line class="st14" x1="667.7" y1="63.9" x2="668.5" y2="61.5"/>
	</g>
	<g>
		<line class="st16" x1="193.9" y1="61.5" x2="664" y2="61.5"/>
	</g>
	<g transform="translate(360,360)">
		<text transform="matrix(1 0 0 1 0 -1.464844e-05)" class="st5 st7">T</text>
	</g>
	<g transform="translate(383,378)">
		<text transform="matrix(1 0 0 1 0 -1.464844e-05)" class="st5 st8">3,2</text>
	</g>
	<g transform="translate(587,151)">
		<text transform="matrix(1 0 0 1 0 -1.464844e-05)" class="st17 st5 st7">q</text>
	</g>
	<g transform="translate(608,169)">
		<text transform="matrix(1 0 0 1 0 -1.464844e-05)" class="st17 st5 st8">t,3</text>
	</g>
	<g transform="translate(608,133)">
		<text transform="matrix(1 0 0 1 0 -1.464844e-05)" class="st17 st5 st8">max</text>
	</g>
	<g>
		<line class="st18" x1="602.5" y1="115.1" x2="649.2" y2="77.4"/>
		<path class="st19" d="M642.5,76.5L656,72l-6.8,5.4L642.5,76.5"/>
		<path class="st19" d="M656,72l-7.3,12.3l0.5-6.8L656,72"/>
	</g>
	<g>
		<path class="st17" d="M642.5,76.5L656,72l-6.8,5.4L642.5,76.5z"/>
		<path class="st17" d="M656,72l-7.3,12.3l0.5-6.8L656,72z"/>
	</g>
	<g transform="translate(281,140)">
		<text transform="matrix(1 0 0 1 0 -1.464844e-05)" class="st17 st5 st7">q</text>
	</g>
	<g transform="translate(302,158)">
		<text transform="matrix(1 0 0 1 0 -1.464844e-05)" class="st17 st5 st8">t,3</text>
	</g>
	<g transform="translate(302,122)">
		<text transform="matrix(1 0 0 1 0 -1.464844e-05)" class="st17 st5 st8">min</text>
	</g>
	<g>
		<line class="st18" x1="276" y1="121" x2="203.2" y2="72.1"/>
		<path class="st19" d="M204.3,78.8l-8.3-11.6l7.2,4.8L204.3,78.8"/>
		<path class="st19" d="M196.1,67.3l13.9,3.3l-6.7,1.5L196.1,67.3"/>
	</g>
	<g>
		<path class="st17" d="M204.3,78.8l-8.3-11.6l7.2,4.8L204.3,78.8z"/>
		<path class="st17" d="M196.1,67.3l13.9,3.3l-6.7,1.5L196.1,67.3z"/>
	</g>
	<g transform="translate(99,466)">
		<text transform="matrix(1 0 0 1 0 -1.464844e-05)" class="st5 st7">T</text>
	</g>
	<g transform="translate(122,484)">
		<text transform="matrix(1 0 0 1 0 -1.464844e-05)" class="st5 st8">3,1</text>
	</g>
</g>
</svg>
