<?xml version="1.0" encoding="utf-8"?>
<!-- Generator: Adobe Illustrator 21.1.0, SVG Export Plug-In . SVG Version: 6.00 Build 0)  -->
<svg version="1.1" id="Layer_1" xmlns="http://www.w3.org/2000/svg" xmlns:xlink="http://www.w3.org/1999/xlink" x="0px" y="0px"
	 viewBox="0 0 731 555" style="enable-background:new 0 0 731 555;" xml:space="preserve">
<style type="text/css">
	.st0{clip-path:url(#SVGID_2_);fill:#FFFFFF;}
	.st1{fill:#FFFFFF;}
	.st2{fill:none;stroke:#262626;stroke-width:0.6667;stroke-linecap:square;stroke-linejoin:round;stroke-miterlimit:10;}
	.st3{fill:#262626;}
	.st4{font-family:'MyriadPro-Regular';}
	.st5{font-size:21px;}
	.st6{font-size:23px;}
	.st7{font-size:17px;}
	.st8{fill:none;stroke:#FF0000;stroke-width:4;stroke-linejoin:round;stroke-miterlimit:10;}
	.st9{fill:none;stroke:#0000FF;stroke-width:4;stroke-linejoin:round;stroke-miterlimit:10;}
	.st10{fill:none;stroke:#FF9943;stroke-width:4;stroke-linejoin:round;stroke-miterlimit:10;}
	.st11{fill:none;stroke:#00FF00;stroke-width:4;stroke-linejoin:round;stroke-miterlimit:10;}
	.st12{fill:none;stroke:#FF9943;stroke-width:0.6667;stroke-linejoin:round;stroke-miterlimit:10;}
	.st13{fill:#FF9943;}
	.st14{fill:none;stroke:#FF0000;stroke-width:0.6667;stroke-linejoin:round;stroke-miterlimit:10;}
	.st15{fill:#FF0000;}
	.st16{fill:none;stroke:#00FF00;stroke-width:0.6667;stroke-linejoin:round;stroke-miterlimit:10;}
	.st17{fill:#00FF00;}
	.st18{fill:none;stroke:#0000FF;stroke-width:0.6667;stroke-linejoin:round;stroke-miterlimit:10;}
	.st19{fill:#0000FF;}
	.st20{font-size:32px;}
</style>
<g>
	<g>
		<g>
			<defs>
				<rect id="SVGID_1_" y="0" width="731" height="555"/>
			</defs>
			<clipPath id="SVGID_2_">
				<use xlink:href="#SVGID_1_"  style="overflow:visible;"/>
			</clipPath>
			<rect y="0" class="st0" width="731" height="555"/>
		</g>
	</g>
	<g>
		<rect y="0" class="st1" width="731" height="555"/>
		<path class="st1" d="M95,494h567V42H95V494z"/>
	</g>
	<g>
		<line class="st2" x1="95" y1="494" x2="662" y2="494"/>
		<line class="st2" x1="128.4" y1="494" x2="128.4" y2="488.3"/>
		<line class="st2" x1="211.7" y1="494" x2="211.7" y2="488.3"/>
		<line class="st2" x1="295.1" y1="494" x2="295.1" y2="488.3"/>
		<line class="st2" x1="378.5" y1="494" x2="378.5" y2="488.3"/>
		<line class="st2" x1="461.9" y1="494" x2="461.9" y2="488.3"/>
		<line class="st2" x1="545.3" y1="494" x2="545.3" y2="488.3"/>
		<line class="st2" x1="628.6" y1="494" x2="628.6" y2="488.3"/>
	</g>
	<g transform="translate(128.3529,500.9333)">
		<text transform="matrix(1 0 0 1 -15.5 22)" class="st3 st4 st5">-15</text>
	</g>
	<g transform="translate(211.7353,500.9333)">
		<text transform="matrix(1 0 0 1 -15.5 22)" class="st3 st4 st5">-10</text>
	</g>
	<g transform="translate(295.1176,500.9333)">
		<text transform="matrix(1 0 0 1 -9.5 22)" class="st3 st4 st5">-5</text>
	</g>
	<g transform="translate(378.5,500.9333)">
		<text transform="matrix(1 0 0 1 -6 22)" class="st3 st4 st5">0</text>
	</g>
	<g transform="translate(461.8824,500.9333)">
		<text transform="matrix(1 0 0 1 -6 22)" class="st3 st4 st5">5</text>
	</g>
	<g transform="translate(545.2647,500.9333)">
		<text transform="matrix(1 0 0 1 -12 22)" class="st3 st4 st5">10</text>
	</g>
	<g transform="translate(628.647,500.9333)">
		<text transform="matrix(1 0 0 1 -12 22)" class="st3 st4 st5">15</text>
	</g>
	<g transform="translate(364.3376,514.0378)">
		<text transform="matrix(1 0 0 1 -6.5 24)" class="st3 st4 st6">q</text>
	</g>
	<g>
		<line class="st2" x1="95" y1="494" x2="95" y2="42"/>
		<line class="st2" x1="95" y1="494" x2="100.7" y2="494"/>
		<line class="st2" x1="95" y1="268" x2="100.7" y2="268"/>
		<line class="st2" x1="95" y1="42" x2="100.7" y2="42"/>
	</g>
	<g transform="translate(88.0667,494)">
		<text transform="matrix(1 0 0 1 -37 8.5)" class="st3 st4 st5">-0.5</text>
	</g>
	<g transform="translate(88.0667,268)">
		<text transform="matrix(1 0 0 1 -12 8.5)" class="st3 st4 st5">0</text>
	</g>
	<g transform="translate(88.0667,42)">
		<text transform="matrix(1 0 0 1 -30 8.5)" class="st3 st4 st5">0.5</text>
	</g>
	<g transform="translate(47.0667,267.9998) rotate(-90)">
		<text transform="matrix(1 0 0 1 -6.4996 -6)" class="st3 st4 st6">p</text>
	</g>
	<g transform="translate(359,28)">
		<text transform="matrix(1 0 0 1 0 -1.464844e-05)" class="st4 st6">T</text>
	</g>
	<g transform="translate(374,39)">
		<text transform="matrix(1 0 0 1 0 -1.464844e-05)" class="st4 st7">4,1</text>
	</g>
	<g>
		<path class="st8" d="M95,74.9l5.7,2.9l5.7,2.9l5.7,2.9l5.7,2.9l5.7,3l5.7,3l5.7,3l5.7,3l5.7,3.1l5.7,3.1l5.7,3.1l5.7,3.2l5.7,3.2
			l5.7,3.2l5.7,3.2l5.7,3.3l5.7,3.3l5.7,3.3l5.7,3.3l5.7,3.4l5.7,3.4l5.7,3.4l5.7,3.4l5.7,3.5l5.7,3.5l5.7,3.5l5.7,3.5l5.7,3.5
			l5.7,3.6l5.7,3.6l5.7,3.6l5.7,3.6l5.7,3.6l5.7,3.6l5.7,3.7l5.7,3.7l5.7,3.7l5.7,3.7l5.7,3.7l5.7,3.7l5.7,3.7l5.7,3.8l5.7,3.8
			l5.7,3.8l5.7,3.8l5.7,3.8l5.7,3.8l5.7,3.8l5.7,3.8l5.7,3.8l5.7,3.8l5.7,3.8l5.7,3.8l5.7,3.8l5.7,3.8l5.7,3.8l5.7,3.8l5.7,3.8
			l5.7,3.8l5.7,3.8l5.7,3.8l5.7,3.8l5.7,3.8l5.7,3.8l5.7,3.8l5.7,3.8l5.7,3.8l5.7,3.8l5.7,3.8l5.7,3.8l5.7,3.8l5.7,3.7l5.7,3.7
			l5.7,3.7l5.7,3.7l5.7,3.7l5.7,3.7l5.7,3.7l5.7,3.6l5.7,3.6l5.7,3.6l5.7,3.6l5.7,3.6l5.7,3.5l5.7,3.5l5.7,3.5l5.7,3.5l5.7,3.5
			l5.7,3.4l5.7,3.4l5.7,3.4l5.7,3.4l5.7,3.3l5.7,3.3l5.7,3.3l5.7,3.3l5.7,3.2l5.7,3.2l5.7,3.2l5.7,3.2"/>
		<path class="st9" d="M662,461.1L662,461.1v-0.2v-0.1v-0.1v-0.1v-0.1v-0.1v-0.1v-0.1v-0.1v-0.1v-0.1V460v-0.1v-0.1v-0.1v-0.1v-0.1
			v-0.1v-0.1v-0.1v-0.1v-0.1v-0.1V459v-0.1v-0.1v-0.1v-0.1v-0.1v-0.1v-0.1v-0.1v-0.1v-0.1v-0.1V458v-0.1v-0.1v-0.1v-0.1v-0.1v-0.1
			v-0.1v-0.1v-0.1v-0.1v-0.1V457v-0.1v-0.1v-0.1v-0.1v-0.1v-0.1v-0.1v-0.1v-0.1v-0.1V456V456v-0.1v-0.1v-0.1v-0.1v-0.1v-0.1v-0.1
			v-0.1v-0.1v-0.1V455v-0.1v-0.1v-0.1v-0.1v-0.1v-0.1v-0.1v-0.1v-0.1v-0.1v-0.1V454v-0.1v-0.1v-0.1v-0.1v-0.1v-0.1v-0.1v-0.1v-0.1
			v-0.1v-0.1V453v-0.1v-0.1v-0.1v-0.1v-0.1v-0.1v-0.1v-0.1v-0.1v-0.1V452v-0.1v-0.1v-0.1v-0.1v-0.1v-0.1v-0.1v-0.1v-0.1v-0.1v-0.1
			V451v-0.1v-0.1v-0.1v-0.1v-0.1v-0.1v-0.1v-0.1v-0.1v-0.1V450V450v-0.1v-0.1v-0.1v-0.1v-0.1v-0.1v-0.1v-0.1v-0.1v-0.1V449v-0.1
			v-0.1v-0.1v-0.1v-0.1v-0.1v-0.1v-0.1v-0.1v-0.1V448V448v-0.1v-0.1v-0.1v-0.1v-0.1v-0.1v-0.1v-0.1v-0.1v-0.1V447v-0.1v-0.1v-0.1
			v-0.1v-0.1v-0.1v-0.1v-0.1v-0.1v-0.1V446v-0.1v-0.1v-0.1v-0.1v-0.1v-0.1v-0.1v-0.1v-0.1v-0.1v-0.1V445v-0.1v-0.1v-0.1v-0.1v-0.1
			v-0.1v-0.1v-0.1v-0.1v-0.1V444v-0.1v-0.1v-0.1v-0.1v-0.1v-0.1v-0.1v-0.1v-0.1v-0.1V443v-0.1v-0.1v-0.1v-0.1v-0.1v-0.1v-0.1v-0.1
			v-0.1v-0.1v-0.1V442v-0.1v-0.1v-0.1v-0.1v-0.1v-0.1v-0.1v-0.1v-0.1v-0.1V441v-0.1v-0.1v-0.1v-0.1v-0.1v-0.1v-0.1v-0.1v-0.1v-0.1
			V440v-0.1v-0.1v-0.1v-0.1v-0.1v-0.1v-0.1v-0.1v-0.1v-0.1V439v-0.1v-0.1v-0.1v-0.1v-0.1v-0.1v-0.1v-0.1v-0.1v-0.1V438v-0.1v-0.1
			v-0.1v-0.1v-0.1v-0.1v-0.1v-0.1v-0.1v-0.1V437V437v-0.1v-0.1v-0.1v-0.1v-0.1v-0.1v-0.1v-0.1v-0.1V436V436v-0.1v-0.1v-0.1v-0.1
			v-0.1v-0.1v-0.1v-0.1v-0.1v-0.1V435v-0.1v-0.1v-0.1v-0.1v-0.1v-0.1v-0.1v-0.1v-0.1v-0.1V434v-0.1v-0.1v-0.1v-0.1v-0.1v-0.1v-0.1
			v-0.1v-0.1v-0.1V433v-0.1v-0.1v-0.1v-0.1v-0.1v-0.1v-0.1v-0.1v-0.1V432V432v-0.1v-0.1v-0.1v-0.1v-0.1v-0.1v-0.1v-0.1v-0.1V431V431
			v-0.1v-0.1v-0.1v-0.1v-0.1v-0.1v-0.1v-0.1v-0.1V430v-0.1v-0.1v-0.1v-0.1v-0.1v-0.1v-0.1v-0.1v-0.1v-0.1V429v-0.1v-0.1v-0.1v-0.1
			v-0.1v-0.1v-0.1v-0.1v-0.1v-0.1V428v-0.1v-0.1v-0.1v-0.1"/>
		<path class="st10" d="M95,108.4l5.7,3.2l5.7,3.2l5.7,3.2l5.7,3.2l5.7,3.3l5.7,3.3l5.7,3.3l5.7,3.3l5.7,3.4l5.7,3.4l5.7,3.4
			l5.7,3.4l5.7,3.5l5.7,3.5l5.7,3.5l5.7,3.5l5.7,3.5l5.7,3.6l5.7,3.6l5.7,3.6l5.7,3.6l5.7,3.6l5.7,3.7l5.7,3.7l5.7,3.7l5.7,3.7
			l5.7,3.7l5.7,3.7l5.7,3.7l5.7,3.8l5.7,3.8l5.7,3.8l5.7,3.8l5.7,3.8l5.7,3.8l5.7,3.8l5.7,3.8l5.7,3.8l5.7,3.8l5.7,3.8l5.7,3.8
			l5.7,3.8l5.7,3.8l5.7,3.8l5.7,3.8l5.7,3.8l5.7,3.8l5.7,3.8l5.7,3.8l5.7,3.8l5.7,3.8l5.7,3.8l5.7,3.8l5.7,3.8l5.7,3.8l5.7,3.8
			l5.7,3.8l5.7,3.8l5.7,3.8l5.7,3.7l5.7,3.7l5.7,3.7l5.7,3.7l5.7,3.7l5.7,3.7l5.7,3.7l5.7,3.6l5.7,3.6l5.7,3.6l5.7,3.6l5.7,3.6
			l5.7,3.6l5.7,3.5l5.7,3.5l5.7,3.5l5.7,3.5l5.7,3.4l5.7,3.4l5.7,3.4l5.7,3.4l5.7,3.4l5.7,3.3l5.7,3.3l5.7,3.3l5.7,3.3l5.7,3.2
			l5.7,3.2l5.7,3.2l5.7,3.2l5.7,3.1l5.7,3.1l5.7,3.1l5.7,3l5.7,3l5.7,3l5.7,3l5.7,2.9l5.7,2.9l5.7,2.9l5.7,2.9"/>
		<path class="st11" d="M95,108.4v-0.9v-0.9v-0.9v-0.9v-0.9v-0.9v-0.9V101v-0.9v-0.9v-0.9v-0.9v-0.9v-0.9v-0.9v-0.9V93v-0.9v-0.9
			v-0.9v-0.9v-0.9v-0.9v-0.9V86v-0.9v-0.9v-0.9v-0.9v-0.9v-0.9V80v-0.8v-0.8v-0.8v-0.8v-0.8v-0.8"/>
		<line class="st12" x1="287.3" y1="227.7" x2="290.5" y2="229.7"/>
		<path class="st12" d="M288,216.3l17.1,22.7l-14.6-9.3L288,216.3"/>
		<path class="st12" d="M305.1,239l-27.9-5.9l13.2-3.4L305.1,239"/>
	</g>
	<g>
		<path class="st13" d="M288,216.3l17.1,22.7l-14.6-9.3L288,216.3z"/>
		<path class="st13" d="M305.1,239l-27.9-5.9l13.2-3.4L305.1,239z"/>
	</g>
	<g>
		<line class="st14" x1="476" y1="312.9" x2="469.1" y2="308.2"/>
		<path class="st14" d="M471.3,321.7l-16.5-23.2l14.4,9.7L471.3,321.7"/>
		<path class="st14" d="M454.8,298.6l27.7,6.6l-13.3,3.1L454.8,298.6"/>
	</g>
	<g>
		<path class="st15" d="M471.3,321.7l-16.5-23.2l14.4,9.7L471.3,321.7z"/>
		<path class="st15" d="M454.8,298.6l27.7,6.6l-13.3,3.1L454.8,298.6z"/>
	</g>
	<g>
		<line class="st16" x1="95.2" y1="81.9" x2="95.2" y2="87.7"/>
		<path class="st16" d="M105.2,78.5L95,105l0.1-17.3L105.2,78.5"/>
		<path class="st16" d="M95,105l-9.8-26.7l9.9,9.4L95,105"/>
	</g>
	<g>
		<path class="st17" d="M105.2,78.5L95,105l0.1-17.3L105.2,78.5z"/>
		<path class="st17" d="M95,105l-9.8-26.7l9.9,9.4L95,105z"/>
	</g>
	<g>
		<line class="st18" x1="661.4" y1="446.7" x2="661.4" y2="446"/>
		<path class="st18" d="M651.8,455.8l8.7-27.1l0.8,17.3L651.8,455.8"/>
		<path class="st18" d="M660.5,428.7l11.2,26.2l-10.4-8.9L660.5,428.7"/>
	</g>
	<g>
		<path class="st19" d="M651.8,455.8l8.7-27.1l0.8,17.3L651.8,455.8z"/>
		<path class="st19" d="M660.5,428.7l11.2,26.2l-10.4-8.9L660.5,428.7z"/>
	</g>
	<g transform="translate(376.1248,207.3411)">
		<text transform="matrix(1 0 0 1 0 33)" class="st15 st4 st20">e</text>
	</g>
	<g transform="translate(105.8123,80.8792)">
		<text transform="matrix(1 0 0 1 0 33)" class="st17 st4 st20">f</text>
	</g>
	<g transform="translate(629.3434,410.7829)">
		<text transform="matrix(1 0 0 1 0 33)" class="st19 st4 st20">d</text>
	</g>
	<g transform="translate(373.5866,293.5253)">
		<text transform="matrix(1 0 0 1 0 33)" class="st13 st4 st20">c</text>
	</g>
</g>
</svg>
