<?xml version="1.0" encoding="utf-8"?>
<!-- Generator: Adobe Illustrator 21.1.0, SVG Export Plug-In . SVG Version: 6.00 Build 0)  -->
<svg version="1.1" id="Layer_1" xmlns="http://www.w3.org/2000/svg" xmlns:xlink="http://www.w3.org/1999/xlink" x="0px" y="0px"
	 viewBox="0 0 735 555" style="enable-background:new 0 0 735 555;" xml:space="preserve">
<style type="text/css">
	.st0{clip-path:url(#SVGID_2_);fill:#FFFFFF;}
	.st1{fill:#FFFFFF;}
	.st2{fill:none;stroke:#262626;stroke-width:0.6667;stroke-linejoin:round;stroke-miterlimit:10;}
	.st3{fill:none;stroke:#262626;stroke-width:0.6667;stroke-linecap:square;stroke-linejoin:round;stroke-miterlimit:10;}
	.st4{fill:#262626;}
	.st5{font-family:'MyriadPro-Regular';}
	.st6{font-size:35px;}
	.st7{font-size:38px;}
	.st8{font-size:37px;}
	.st9{font-size:29px;}
	.st10{fill:none;stroke:#FF0000;stroke-width:0.6667;stroke-linejoin:round;stroke-miterlimit:10;}
	.st11{fill:none;stroke:#FF0000;stroke-width:0.6667;stroke-linecap:round;stroke-linejoin:round;stroke-miterlimit:10;}
	.st12{fill:none;stroke:#FF0000;stroke-width:2.6667;stroke-linejoin:round;stroke-miterlimit:10;}
	.st13{fill:none;stroke:#FF0000;stroke-width:2.6667;stroke-linecap:round;stroke-linejoin:round;stroke-miterlimit:10;}
	.st14{fill:none;stroke:#FF00FF;stroke-width:2.6667;stroke-linejoin:round;stroke-miterlimit:10;}
	.st15{fill:none;stroke:#FF00FF;stroke-width:2.6667;stroke-linecap:round;stroke-linejoin:round;stroke-miterlimit:10;}
	.st16{fill:none;stroke:#000000;stroke-width:0.6667;stroke-linejoin:round;stroke-miterlimit:10;}
	.st17{fill:none;stroke:#000000;stroke-width:1.3333;stroke-linejoin:bevel;stroke-miterlimit:1;stroke-dasharray:10,6;}
	.st18{fill:none;stroke:#0000FF;stroke-width:2.6667;stroke-linejoin:round;stroke-miterlimit:10;}
	.st19{fill:none;stroke:#0000FF;stroke-width:2.6667;stroke-linecap:round;stroke-linejoin:round;stroke-miterlimit:10;}
	.st20{fill:none;stroke:#000000;stroke-width:1.3333;stroke-linejoin:round;stroke-miterlimit:10;}
	.st21{fill:#FF00FF;}
	.st22{fill:#0000FF;}
	.st23{fill:none;stroke:#0000FF;stroke-width:1.3333;stroke-linejoin:round;stroke-miterlimit:10;}
	.st24{fill:none;stroke:#0000FF;stroke-width:0.6667;stroke-linejoin:round;stroke-miterlimit:10;}
	.st25{fill:none;stroke:#FF00FF;stroke-width:1.3333;stroke-linejoin:round;stroke-miterlimit:10;}
	.st26{fill:none;stroke:#FF00FF;stroke-width:0.6667;stroke-linejoin:round;stroke-miterlimit:10;}
</style>
<g>
	<g>
		<g>
			<defs>
				<rect id="SVGID_1_" y="0" width="735" height="555"/>
			</defs>
			<clipPath id="SVGID_2_">
				<use xlink:href="#SVGID_1_"  style="overflow:visible;"/>
			</clipPath>
			<rect y="0" class="st0" width="735" height="555"/>
		</g>
	</g>
	<g>
		<rect y="0" class="st1" width="735" height="555"/>
		<path class="st1" d="M89,487h577V48H89V487z"/>
	</g>
	<g>
		<line class="st2" x1="89" y1="487" x2="666" y2="487"/>
		<line class="st3" x1="207.8" y1="487" x2="207.8" y2="481.2"/>
		<line class="st3" x1="377.5" y1="487" x2="377.5" y2="481.2"/>
		<line class="st3" x1="547.2" y1="487" x2="547.2" y2="481.2"/>
	</g>
	<g transform="translate(207.7941,496.6)">
		<text transform="matrix(1 0 0 1 -25.5 36)" class="st4 st5 st6">-10</text>
	</g>
	<g transform="translate(377.5,496.6)">
		<text transform="matrix(1 0 0 1 -10 36)" class="st4 st5 st6">0</text>
	</g>
	<g transform="translate(547.2059,496.6)">
		<text transform="matrix(1 0 0 1 -19.5 36)" class="st4 st5 st6">10</text>
	</g>
	<g transform="translate(377.5436,522.0273)">
		<text transform="matrix(1 0 0 1 -11 39)" class="st4 st5 st7">q</text>
	</g>
	<g>
		<line class="st2" x1="89" y1="487" x2="89" y2="48"/>
		<line class="st3" x1="89" y1="487" x2="94.8" y2="487"/>
		<line class="st3" x1="89" y1="377.3" x2="94.8" y2="377.3"/>
		<line class="st3" x1="89" y1="267.5" x2="94.8" y2="267.5"/>
		<line class="st3" x1="89" y1="157.7" x2="94.8" y2="157.7"/>
		<line class="st3" x1="89" y1="48" x2="94.8" y2="48"/>
	</g>
	<g transform="translate(79.4,487)">
		<text transform="matrix(1 0 0 1 -32 14)" class="st4 st5 st6">-1</text>
	</g>
	<g transform="translate(79.4,377.25)">
		<text transform="matrix(1 0 0 1 -61 14)" class="st4 st5 st6">-0.5</text>
	</g>
	<g transform="translate(79.4,267.5)">
		<text transform="matrix(1 0 0 1 -20 14)" class="st4 st5 st6">0</text>
	</g>
	<g transform="translate(79.4,157.75)">
		<text transform="matrix(1 0 0 1 -49 14)" class="st4 st5 st6">0.5</text>
	</g>
	<g transform="translate(79.4,48)">
		<text transform="matrix(1 0 0 1 -20 14)" class="st4 st5 st6">1</text>
	</g>
	<g transform="translate(56.2254,267.4998) rotate(-90)">
		<text transform="matrix(1 0 0 1 -10.9996 -9)" class="st4 st5 st7">p</text>
	</g>
	<g transform="translate(359,12)">
		<text transform="matrix(1 0 0 1 0 -1.464844e-05)" class="st5 st8">T</text>
	</g>
	<g transform="translate(382,30)">
		<text transform="matrix(1 0 0 1 0 -1.464844e-05)" class="st5 st9">4</text>
	</g>
	<g>
		<line class="st10" x1="89" y1="48" x2="100.5" y2="48"/>
		<line class="st11" x1="100.5" y1="48" x2="112.1" y2="48"/>
		<line class="st11" x1="112.1" y1="48" x2="123.6" y2="48"/>
		<line class="st11" x1="123.6" y1="48" x2="135.2" y2="48"/>
		<line class="st11" x1="135.2" y1="48" x2="146.7" y2="48"/>
		<line class="st11" x1="146.7" y1="48" x2="158.2" y2="48"/>
		<line class="st11" x1="158.2" y1="48" x2="169.8" y2="48"/>
		<line class="st11" x1="169.8" y1="48" x2="181.3" y2="48"/>
		<line class="st11" x1="181.3" y1="48" x2="192.9" y2="48"/>
		<line class="st11" x1="192.9" y1="48" x2="204.4" y2="48"/>
		<line class="st11" x1="204.4" y1="48" x2="215.9" y2="48"/>
		<line class="st11" x1="215.9" y1="48" x2="227.5" y2="48"/>
		<line class="st11" x1="227.5" y1="48" x2="239" y2="48"/>
		<line class="st11" x1="239" y1="48" x2="250.6" y2="48"/>
		<line class="st11" x1="250.6" y1="48" x2="262.1" y2="48"/>
		<line class="st11" x1="262.1" y1="48" x2="273.6" y2="48"/>
		<line class="st11" x1="273.6" y1="48" x2="285.2" y2="48"/>
		<line class="st11" x1="285.2" y1="48" x2="296.7" y2="48"/>
		<line class="st11" x1="296.7" y1="48" x2="308.3" y2="48"/>
		<line class="st11" x1="308.3" y1="48" x2="319.8" y2="48"/>
		<line class="st11" x1="319.8" y1="48" x2="331.3" y2="48"/>
		<line class="st11" x1="331.3" y1="48" x2="342.9" y2="48"/>
		<line class="st11" x1="342.9" y1="48" x2="354.4" y2="48"/>
		<line class="st11" x1="354.4" y1="48" x2="366" y2="48"/>
		<line class="st11" x1="366" y1="48" x2="377.5" y2="48"/>
		<line class="st11" x1="377.5" y1="48" x2="389" y2="48"/>
		<line class="st11" x1="389" y1="48" x2="400.6" y2="48"/>
		<line class="st11" x1="400.6" y1="48" x2="412.1" y2="48"/>
		<line class="st11" x1="412.1" y1="48" x2="423.7" y2="48"/>
		<line class="st11" x1="423.7" y1="48" x2="435.2" y2="48"/>
		<line class="st11" x1="435.2" y1="48" x2="446.7" y2="48"/>
		<line class="st11" x1="446.7" y1="48" x2="458.3" y2="48"/>
		<line class="st11" x1="458.3" y1="48" x2="469.8" y2="48"/>
		<line class="st11" x1="469.8" y1="48" x2="481.4" y2="48"/>
		<line class="st11" x1="481.4" y1="48" x2="492.9" y2="48"/>
		<line class="st11" x1="492.9" y1="48" x2="504.4" y2="48"/>
		<line class="st11" x1="504.4" y1="48" x2="516" y2="48"/>
		<line class="st11" x1="516" y1="48" x2="527.5" y2="48"/>
		<line class="st11" x1="527.5" y1="48" x2="539.1" y2="48"/>
		<line class="st11" x1="539.1" y1="48" x2="550.6" y2="48"/>
		<line class="st11" x1="550.6" y1="48" x2="562.1" y2="48"/>
		<line class="st11" x1="562.1" y1="48" x2="573.7" y2="48"/>
		<line class="st11" x1="573.7" y1="48" x2="585.2" y2="48"/>
		<line class="st11" x1="585.2" y1="48" x2="596.8" y2="48"/>
		<line class="st11" x1="596.8" y1="48" x2="608.3" y2="48"/>
		<line class="st11" x1="608.3" y1="48" x2="619.8" y2="48"/>
		<line class="st11" x1="619.8" y1="48" x2="631.4" y2="48"/>
		<line class="st11" x1="631.4" y1="48" x2="642.9" y2="48"/>
		<line class="st10" x1="642.9" y1="48" x2="654.5" y2="48"/>
		<line class="st10" x1="666" y1="344.6" x2="666" y2="267.5"/>
		<line class="st12" x1="100.5" y1="176.1" x2="100.5" y2="176.1"/>
		<line class="st13" x1="100.5" y1="176.1" x2="112.1" y2="178.9"/>
		<line class="st13" x1="112.1" y1="178.9" x2="123.6" y2="181.8"/>
		<line class="st13" x1="123.6" y1="181.8" x2="135.2" y2="184.8"/>
		<line class="st13" x1="135.2" y1="184.8" x2="146.7" y2="187.7"/>
		<line class="st13" x1="146.7" y1="187.7" x2="158.2" y2="190.8"/>
		<line class="st13" x1="158.2" y1="190.8" x2="169.8" y2="193.9"/>
		<line class="st13" x1="169.8" y1="193.9" x2="181.3" y2="197"/>
		<line class="st13" x1="181.3" y1="197" x2="192.9" y2="200.2"/>
		<line class="st13" x1="192.9" y1="200.2" x2="204.4" y2="203.5"/>
		<line class="st13" x1="204.4" y1="203.5" x2="215.9" y2="206.8"/>
		<line class="st13" x1="215.9" y1="206.8" x2="227.5" y2="210.1"/>
		<line class="st13" x1="227.5" y1="210.1" x2="239" y2="213.5"/>
		<line class="st13" x1="239" y1="213.5" x2="250.6" y2="216.9"/>
		<line class="st13" x1="250.6" y1="216.9" x2="262.1" y2="220.3"/>
		<line class="st13" x1="262.1" y1="220.3" x2="273.6" y2="223.8"/>
		<line class="st13" x1="273.6" y1="223.8" x2="285.2" y2="227.4"/>
		<line class="st13" x1="285.2" y1="227.4" x2="296.7" y2="230.9"/>
		<line class="st13" x1="296.7" y1="230.9" x2="308.3" y2="234.5"/>
		<line class="st13" x1="308.3" y1="234.5" x2="319.8" y2="238.1"/>
		<line class="st13" x1="319.8" y1="238.1" x2="331.3" y2="241.8"/>
		<line class="st13" x1="331.3" y1="241.8" x2="342.9" y2="245.4"/>
		<line class="st13" x1="342.9" y1="245.4" x2="354.4" y2="249.1"/>
		<line class="st13" x1="354.4" y1="249.1" x2="366" y2="252.8"/>
		<line class="st13" x1="366" y1="252.8" x2="377.5" y2="256.5"/>
		<line class="st13" x1="377.5" y1="256.5" x2="389" y2="260.3"/>
		<line class="st13" x1="389" y1="260.3" x2="400.6" y2="264"/>
		<line class="st13" x1="400.6" y1="264" x2="412.1" y2="267.7"/>
		<line class="st13" x1="412.1" y1="267.7" x2="423.7" y2="271.5"/>
		<line class="st13" x1="423.7" y1="271.5" x2="435.2" y2="275.2"/>
		<line class="st13" x1="435.2" y1="275.2" x2="446.7" y2="278.9"/>
		<line class="st13" x1="446.7" y1="278.9" x2="458.3" y2="282.6"/>
		<line class="st13" x1="458.3" y1="282.6" x2="469.8" y2="286.3"/>
		<line class="st13" x1="469.8" y1="286.3" x2="481.4" y2="290"/>
		<line class="st13" x1="481.4" y1="290" x2="492.9" y2="293.7"/>
		<line class="st13" x1="492.9" y1="293.7" x2="504.4" y2="297.3"/>
		<line class="st13" x1="504.4" y1="297.3" x2="516" y2="300.9"/>
		<line class="st13" x1="516" y1="300.9" x2="527.5" y2="304.5"/>
		<line class="st13" x1="527.5" y1="304.5" x2="539.1" y2="308.1"/>
		<line class="st13" x1="539.1" y1="308.1" x2="550.6" y2="311.6"/>
		<line class="st13" x1="550.6" y1="311.6" x2="562.1" y2="315.1"/>
		<line class="st13" x1="562.1" y1="315.1" x2="573.7" y2="318.5"/>
		<line class="st13" x1="573.7" y1="318.5" x2="585.2" y2="321.9"/>
		<line class="st13" x1="585.2" y1="321.9" x2="596.8" y2="325.3"/>
		<line class="st13" x1="596.8" y1="325.3" x2="608.3" y2="328.6"/>
		<line class="st13" x1="608.3" y1="328.6" x2="619.8" y2="331.9"/>
		<line class="st13" x1="619.8" y1="331.9" x2="631.4" y2="335.2"/>
		<line class="st13" x1="631.4" y1="335.2" x2="642.9" y2="338.3"/>
		<line class="st13" x1="642.9" y1="338.3" x2="654.5" y2="341.5"/>
		<line class="st12" x1="654.5" y1="341.5" x2="666" y2="344.6"/>
		<line class="st12" x1="89" y1="173.3" x2="89" y2="48"/>
		<line class="st12" x1="666" y1="344.6" x2="666" y2="48"/>
		<line class="st12" x1="89" y1="190.4" x2="100.5" y2="193.5"/>
		<line class="st13" x1="100.5" y1="193.5" x2="112.1" y2="196.7"/>
		<line class="st13" x1="112.1" y1="196.7" x2="123.6" y2="199.8"/>
		<line class="st13" x1="123.6" y1="199.8" x2="135.2" y2="203.1"/>
		<line class="st13" x1="135.2" y1="203.1" x2="146.7" y2="206.4"/>
		<line class="st13" x1="146.7" y1="206.4" x2="158.2" y2="209.7"/>
		<line class="st13" x1="158.2" y1="209.7" x2="169.8" y2="213.1"/>
		<line class="st13" x1="169.8" y1="213.1" x2="181.3" y2="216.5"/>
		<line class="st13" x1="181.3" y1="216.5" x2="192.9" y2="219.9"/>
		<line class="st13" x1="192.9" y1="219.9" x2="204.4" y2="223.4"/>
		<line class="st13" x1="204.4" y1="223.4" x2="215.9" y2="226.9"/>
		<line class="st13" x1="215.9" y1="226.9" x2="227.5" y2="230.5"/>
		<line class="st13" x1="227.5" y1="230.5" x2="239" y2="234.1"/>
		<line class="st13" x1="239" y1="234.1" x2="250.6" y2="237.7"/>
		<line class="st13" x1="250.6" y1="237.7" x2="262.1" y2="241.3"/>
		<line class="st13" x1="262.1" y1="241.3" x2="273.6" y2="245"/>
		<line class="st13" x1="273.6" y1="245" x2="285.2" y2="248.7"/>
		<line class="st13" x1="285.2" y1="248.7" x2="296.7" y2="252.4"/>
		<line class="st13" x1="296.7" y1="252.4" x2="308.3" y2="256.1"/>
		<line class="st13" x1="308.3" y1="256.1" x2="319.8" y2="259.8"/>
		<line class="st13" x1="319.8" y1="259.8" x2="331.3" y2="263.5"/>
		<line class="st13" x1="331.3" y1="263.5" x2="342.9" y2="267.3"/>
		<line class="st13" x1="342.9" y1="267.3" x2="354.4" y2="271"/>
		<line class="st13" x1="354.4" y1="271" x2="366" y2="274.7"/>
		<line class="st13" x1="366" y1="274.7" x2="377.5" y2="278.5"/>
		<line class="st13" x1="377.5" y1="278.5" x2="389" y2="282.2"/>
		<line class="st13" x1="389" y1="282.2" x2="400.6" y2="285.9"/>
		<line class="st13" x1="400.6" y1="285.9" x2="412.1" y2="289.6"/>
		<line class="st13" x1="412.1" y1="289.6" x2="423.7" y2="293.2"/>
		<line class="st13" x1="423.7" y1="293.2" x2="435.2" y2="296.9"/>
		<line class="st13" x1="435.2" y1="296.9" x2="446.7" y2="300.5"/>
		<line class="st13" x1="446.7" y1="300.5" x2="458.3" y2="304.1"/>
		<line class="st13" x1="458.3" y1="304.1" x2="469.8" y2="307.6"/>
		<line class="st13" x1="469.8" y1="307.6" x2="481.4" y2="311.2"/>
		<line class="st13" x1="481.4" y1="311.2" x2="492.9" y2="314.7"/>
		<line class="st13" x1="492.9" y1="314.7" x2="504.4" y2="318.1"/>
		<line class="st13" x1="504.4" y1="318.1" x2="516" y2="321.5"/>
		<line class="st13" x1="516" y1="321.5" x2="527.5" y2="324.9"/>
		<line class="st13" x1="527.5" y1="324.9" x2="539.1" y2="328.2"/>
		<line class="st13" x1="539.1" y1="328.2" x2="550.6" y2="331.5"/>
		<line class="st13" x1="550.6" y1="331.5" x2="562.1" y2="334.8"/>
		<line class="st13" x1="562.1" y1="334.8" x2="573.7" y2="338"/>
		<line class="st13" x1="573.7" y1="338" x2="585.2" y2="341.1"/>
		<line class="st13" x1="585.2" y1="341.1" x2="596.8" y2="344.2"/>
		<line class="st13" x1="596.8" y1="344.2" x2="608.3" y2="347.3"/>
		<line class="st13" x1="608.3" y1="347.3" x2="619.8" y2="350.2"/>
		<line class="st13" x1="619.8" y1="350.2" x2="631.4" y2="353.2"/>
		<line class="st13" x1="631.4" y1="353.2" x2="642.9" y2="356.1"/>
		<line class="st12" x1="642.9" y1="356.1" x2="654.5" y2="358.9"/>
		<line class="st12" x1="666" y1="487" x2="666" y2="361.7"/>
		<line class="st10" x1="100.5" y1="487" x2="100.5" y2="487"/>
		<line class="st11" x1="100.5" y1="487" x2="112.1" y2="487"/>
		<line class="st11" x1="112.1" y1="487" x2="123.6" y2="487"/>
		<line class="st11" x1="123.6" y1="487" x2="135.2" y2="487"/>
		<line class="st11" x1="135.2" y1="487" x2="146.7" y2="487"/>
		<line class="st11" x1="146.7" y1="487" x2="158.2" y2="487"/>
		<line class="st11" x1="158.2" y1="487" x2="169.8" y2="487"/>
		<line class="st11" x1="169.8" y1="487" x2="181.3" y2="487"/>
		<line class="st11" x1="181.3" y1="487" x2="192.9" y2="487"/>
		<line class="st11" x1="192.9" y1="487" x2="204.4" y2="487"/>
		<line class="st11" x1="204.4" y1="487" x2="215.9" y2="487"/>
		<line class="st11" x1="215.9" y1="487" x2="227.5" y2="487"/>
		<line class="st11" x1="227.5" y1="487" x2="239" y2="487"/>
		<line class="st11" x1="239" y1="487" x2="250.6" y2="487"/>
		<line class="st11" x1="250.6" y1="487" x2="262.1" y2="487"/>
		<line class="st11" x1="262.1" y1="487" x2="273.6" y2="487"/>
		<line class="st11" x1="273.6" y1="487" x2="285.2" y2="487"/>
		<line class="st11" x1="285.2" y1="487" x2="296.7" y2="487"/>
		<line class="st11" x1="296.7" y1="487" x2="308.3" y2="487"/>
		<line class="st11" x1="308.3" y1="487" x2="319.8" y2="487"/>
		<line class="st11" x1="319.8" y1="487" x2="331.3" y2="487"/>
		<line class="st11" x1="331.3" y1="487" x2="342.9" y2="487"/>
		<line class="st11" x1="342.9" y1="487" x2="354.4" y2="487"/>
		<line class="st11" x1="354.4" y1="487" x2="366" y2="487"/>
		<line class="st11" x1="366" y1="487" x2="377.5" y2="487"/>
		<line class="st11" x1="377.5" y1="487" x2="389" y2="487"/>
		<line class="st11" x1="389" y1="487" x2="400.6" y2="487"/>
		<line class="st11" x1="400.6" y1="487" x2="412.1" y2="487"/>
		<line class="st11" x1="412.1" y1="487" x2="423.7" y2="487"/>
		<line class="st11" x1="423.7" y1="487" x2="435.2" y2="487"/>
		<line class="st11" x1="435.2" y1="487" x2="446.7" y2="487"/>
		<line class="st11" x1="446.7" y1="487" x2="458.3" y2="487"/>
		<line class="st11" x1="458.3" y1="487" x2="469.8" y2="487"/>
		<line class="st11" x1="469.8" y1="487" x2="481.4" y2="487"/>
		<line class="st11" x1="481.4" y1="487" x2="492.9" y2="487"/>
		<line class="st11" x1="492.9" y1="487" x2="504.4" y2="487"/>
		<line class="st11" x1="504.4" y1="487" x2="516" y2="487"/>
		<line class="st11" x1="516" y1="487" x2="527.5" y2="487"/>
		<line class="st11" x1="527.5" y1="487" x2="539.1" y2="487"/>
		<line class="st11" x1="539.1" y1="487" x2="550.6" y2="487"/>
		<line class="st11" x1="550.6" y1="487" x2="562.1" y2="487"/>
		<line class="st11" x1="562.1" y1="487" x2="573.7" y2="487"/>
		<line class="st11" x1="573.7" y1="487" x2="585.2" y2="487"/>
		<line class="st11" x1="585.2" y1="487" x2="596.8" y2="487"/>
		<line class="st11" x1="596.8" y1="487" x2="608.3" y2="487"/>
		<line class="st11" x1="608.3" y1="487" x2="619.8" y2="487"/>
		<line class="st11" x1="619.8" y1="487" x2="631.4" y2="487"/>
		<line class="st11" x1="631.4" y1="487" x2="642.9" y2="487"/>
		<line class="st11" x1="642.9" y1="487" x2="654.5" y2="487"/>
		<line class="st10" x1="654.5" y1="487" x2="666" y2="487"/>
		<line class="st10" x1="89" y1="267.5" x2="89" y2="190.4"/>
		<line class="st12" x1="89" y1="190.4" x2="89" y2="487"/>
		<line class="st12" x1="89" y1="173.3" x2="100.5" y2="176.1"/>
		<line class="st13" x1="100.5" y1="176.1" x2="112.1" y2="178.9"/>
		<line class="st13" x1="112.1" y1="178.9" x2="123.6" y2="181.8"/>
		<line class="st13" x1="123.6" y1="181.8" x2="135.2" y2="184.8"/>
		<line class="st13" x1="135.2" y1="184.8" x2="146.7" y2="187.7"/>
		<line class="st13" x1="146.7" y1="187.7" x2="158.2" y2="190.8"/>
		<line class="st13" x1="158.2" y1="190.8" x2="169.8" y2="193.9"/>
		<line class="st13" x1="169.8" y1="193.9" x2="181.3" y2="197"/>
		<line class="st13" x1="181.3" y1="197" x2="192.9" y2="200.2"/>
		<line class="st13" x1="192.9" y1="200.2" x2="204.4" y2="203.5"/>
		<line class="st13" x1="204.4" y1="203.5" x2="215.9" y2="206.8"/>
		<line class="st13" x1="215.9" y1="206.8" x2="227.5" y2="210.1"/>
		<line class="st13" x1="227.5" y1="210.1" x2="239" y2="213.5"/>
		<line class="st13" x1="239" y1="213.5" x2="250.6" y2="216.9"/>
		<line class="st13" x1="250.6" y1="216.9" x2="262.1" y2="220.3"/>
		<line class="st13" x1="262.1" y1="220.3" x2="273.6" y2="223.8"/>
		<line class="st13" x1="273.6" y1="223.8" x2="285.2" y2="227.4"/>
		<line class="st13" x1="285.2" y1="227.4" x2="296.7" y2="230.9"/>
		<line class="st13" x1="296.7" y1="230.9" x2="308.3" y2="234.5"/>
		<line class="st13" x1="308.3" y1="234.5" x2="319.8" y2="238.1"/>
		<line class="st13" x1="319.8" y1="238.1" x2="331.3" y2="241.8"/>
		<line class="st13" x1="331.3" y1="241.8" x2="342.9" y2="245.4"/>
		<line class="st13" x1="342.9" y1="245.4" x2="354.4" y2="249.1"/>
		<line class="st13" x1="354.4" y1="249.1" x2="366" y2="252.8"/>
		<line class="st13" x1="366" y1="252.8" x2="377.5" y2="256.5"/>
		<line class="st13" x1="377.5" y1="256.5" x2="389" y2="260.3"/>
		<line class="st13" x1="389" y1="260.3" x2="400.6" y2="264"/>
		<line class="st13" x1="400.6" y1="264" x2="412.1" y2="267.7"/>
		<line class="st13" x1="412.1" y1="267.7" x2="423.7" y2="271.5"/>
		<line class="st13" x1="423.7" y1="271.5" x2="435.2" y2="275.2"/>
		<line class="st13" x1="435.2" y1="275.2" x2="446.7" y2="278.9"/>
		<line class="st13" x1="446.7" y1="278.9" x2="458.3" y2="282.6"/>
		<line class="st13" x1="458.3" y1="282.6" x2="469.8" y2="286.3"/>
		<line class="st13" x1="469.8" y1="286.3" x2="481.4" y2="290"/>
		<line class="st13" x1="481.4" y1="290" x2="492.9" y2="293.7"/>
		<line class="st13" x1="492.9" y1="293.7" x2="504.4" y2="297.3"/>
		<line class="st13" x1="504.4" y1="297.3" x2="516" y2="300.9"/>
		<line class="st13" x1="516" y1="300.9" x2="527.5" y2="304.5"/>
		<line class="st13" x1="527.5" y1="304.5" x2="539.1" y2="308.1"/>
		<line class="st13" x1="539.1" y1="308.1" x2="550.6" y2="311.6"/>
		<line class="st13" x1="550.6" y1="311.6" x2="562.1" y2="315.1"/>
		<line class="st13" x1="562.1" y1="315.1" x2="573.7" y2="318.5"/>
		<line class="st13" x1="573.7" y1="318.5" x2="585.2" y2="321.9"/>
		<line class="st13" x1="585.2" y1="321.9" x2="596.8" y2="325.3"/>
		<line class="st13" x1="596.8" y1="325.3" x2="608.3" y2="328.6"/>
		<line class="st13" x1="608.3" y1="328.6" x2="619.8" y2="331.9"/>
		<line class="st13" x1="619.8" y1="331.9" x2="631.4" y2="335.2"/>
		<line class="st13" x1="631.4" y1="335.2" x2="642.9" y2="338.3"/>
		<line class="st12" x1="642.9" y1="338.3" x2="654.5" y2="341.5"/>
		<line class="st12" x1="666" y1="361.7" x2="666" y2="344.6"/>
		<line class="st12" x1="100.5" y1="193.5" x2="100.5" y2="193.5"/>
		<line class="st13" x1="100.5" y1="193.5" x2="112.1" y2="196.7"/>
		<line class="st13" x1="112.1" y1="196.7" x2="123.6" y2="199.8"/>
		<line class="st13" x1="123.6" y1="199.8" x2="135.2" y2="203.1"/>
		<line class="st13" x1="135.2" y1="203.1" x2="146.7" y2="206.4"/>
		<line class="st13" x1="146.7" y1="206.4" x2="158.2" y2="209.7"/>
		<line class="st13" x1="158.2" y1="209.7" x2="169.8" y2="213.1"/>
		<line class="st13" x1="169.8" y1="213.1" x2="181.3" y2="216.5"/>
		<line class="st13" x1="181.3" y1="216.5" x2="192.9" y2="219.9"/>
		<line class="st13" x1="192.9" y1="219.9" x2="204.4" y2="223.4"/>
		<line class="st13" x1="204.4" y1="223.4" x2="215.9" y2="226.9"/>
		<line class="st13" x1="215.9" y1="226.9" x2="227.5" y2="230.5"/>
		<line class="st13" x1="227.5" y1="230.5" x2="239" y2="234.1"/>
		<line class="st13" x1="239" y1="234.1" x2="250.6" y2="237.7"/>
		<line class="st13" x1="250.6" y1="237.7" x2="262.1" y2="241.3"/>
		<line class="st13" x1="262.1" y1="241.3" x2="273.6" y2="245"/>
		<line class="st13" x1="273.6" y1="245" x2="285.2" y2="248.7"/>
		<line class="st13" x1="285.2" y1="248.7" x2="296.7" y2="252.4"/>
		<line class="st13" x1="296.7" y1="252.4" x2="308.3" y2="256.1"/>
		<line class="st13" x1="308.3" y1="256.1" x2="319.8" y2="259.8"/>
		<line class="st13" x1="319.8" y1="259.8" x2="331.3" y2="263.5"/>
		<line class="st13" x1="331.3" y1="263.5" x2="342.9" y2="267.3"/>
		<line class="st13" x1="342.9" y1="267.3" x2="354.4" y2="271"/>
		<line class="st13" x1="354.4" y1="271" x2="366" y2="274.7"/>
		<line class="st13" x1="366" y1="274.7" x2="377.5" y2="278.5"/>
		<line class="st13" x1="377.5" y1="278.5" x2="389" y2="282.2"/>
		<line class="st13" x1="389" y1="282.2" x2="400.6" y2="285.9"/>
		<line class="st13" x1="400.6" y1="285.9" x2="412.1" y2="289.6"/>
		<line class="st13" x1="412.1" y1="289.6" x2="423.7" y2="293.2"/>
		<line class="st13" x1="423.7" y1="293.2" x2="435.2" y2="296.9"/>
		<line class="st13" x1="435.2" y1="296.9" x2="446.7" y2="300.5"/>
		<line class="st13" x1="446.7" y1="300.5" x2="458.3" y2="304.1"/>
		<line class="st13" x1="458.3" y1="304.1" x2="469.8" y2="307.6"/>
		<line class="st13" x1="469.8" y1="307.6" x2="481.4" y2="311.2"/>
		<line class="st13" x1="481.4" y1="311.2" x2="492.9" y2="314.7"/>
		<line class="st13" x1="492.9" y1="314.7" x2="504.4" y2="318.1"/>
		<line class="st13" x1="504.4" y1="318.1" x2="516" y2="321.5"/>
		<line class="st13" x1="516" y1="321.5" x2="527.5" y2="324.9"/>
		<line class="st13" x1="527.5" y1="324.9" x2="539.1" y2="328.2"/>
		<line class="st13" x1="539.1" y1="328.2" x2="550.6" y2="331.5"/>
		<line class="st13" x1="550.6" y1="331.5" x2="562.1" y2="334.8"/>
		<line class="st13" x1="562.1" y1="334.8" x2="573.7" y2="338"/>
		<line class="st13" x1="573.7" y1="338" x2="585.2" y2="341.1"/>
		<line class="st13" x1="585.2" y1="341.1" x2="596.8" y2="344.2"/>
		<line class="st13" x1="596.8" y1="344.2" x2="608.3" y2="347.3"/>
		<line class="st13" x1="608.3" y1="347.3" x2="619.8" y2="350.2"/>
		<line class="st13" x1="619.8" y1="350.2" x2="631.4" y2="353.2"/>
		<line class="st13" x1="631.4" y1="353.2" x2="642.9" y2="356.1"/>
		<line class="st13" x1="642.9" y1="356.1" x2="654.5" y2="358.9"/>
		<line class="st12" x1="654.5" y1="358.9" x2="666" y2="361.7"/>
		<line class="st12" x1="89" y1="190.4" x2="89" y2="173.3"/>
		<line class="st12" x1="89" y1="487" x2="666" y2="487"/>
		<line class="st12" x1="89" y1="48" x2="666" y2="48"/>
		<line class="st14" x1="478" y1="311.5" x2="487" y2="311.5"/>
	</g>
	<g>
		<line class="st15" x1="482.5" y1="316" x2="482.5" y2="307"/>
		<line class="st15" x1="479" y1="315" x2="486" y2="308"/>
		<line class="st14" x1="479" y1="308" x2="486" y2="315"/>
		<line class="st14" x1="546" y1="311.5" x2="555" y2="311.5"/>
		<line class="st15" x1="550.5" y1="316" x2="550.5" y2="307"/>
		<line class="st15" x1="547" y1="315" x2="554" y2="308"/>
		<line class="st14" x1="547" y1="308" x2="554" y2="315"/>
	</g>
	<g>
		<line class="st16" x1="482.1" y1="311.4" x2="550" y2="311.4"/>
	</g>
	<g>
		<line class="st17" x1="89" y1="311.4" x2="666" y2="311.4"/>
	</g>
	<g>
		<line class="st18" x1="93.5" y1="311.5" x2="92.7" y2="309.1"/>
		<line class="st19" x1="92.7" y1="309.1" x2="90.7" y2="307.7"/>
		<line class="st19" x1="90.7" y1="307.7" x2="88.3" y2="307.7"/>
		<line class="st19" x1="88.3" y1="307.7" x2="86.3" y2="309.1"/>
		<line class="st19" x1="86.3" y1="309.1" x2="85.5" y2="311.5"/>
		<line class="st19" x1="85.5" y1="311.5" x2="86.3" y2="313.9"/>
		<line class="st19" x1="86.3" y1="313.9" x2="88.3" y2="315.3"/>
		<line class="st19" x1="88.3" y1="315.3" x2="90.7" y2="315.3"/>
		<line class="st19" x1="90.7" y1="315.3" x2="92.7" y2="313.9"/>
		<line class="st18" x1="92.7" y1="313.9" x2="93.5" y2="311.5"/>
		<line class="st18" x1="670.5" y1="311.5" x2="669.7" y2="309.1"/>
		<line class="st19" x1="669.7" y1="309.1" x2="667.7" y2="307.7"/>
		<line class="st19" x1="667.7" y1="307.7" x2="665.3" y2="307.7"/>
		<line class="st19" x1="665.3" y1="307.7" x2="663.3" y2="309.1"/>
		<line class="st19" x1="663.3" y1="309.1" x2="662.5" y2="311.5"/>
		<line class="st19" x1="662.5" y1="311.5" x2="663.3" y2="313.9"/>
		<line class="st19" x1="663.3" y1="313.9" x2="665.3" y2="315.3"/>
		<line class="st19" x1="665.3" y1="315.3" x2="667.7" y2="315.3"/>
		<line class="st19" x1="667.7" y1="315.3" x2="669.7" y2="313.9"/>
		<line class="st18" x1="669.7" y1="313.9" x2="670.5" y2="311.5"/>
	</g>
	<g transform="translate(362,143)">
		<text transform="matrix(1 0 0 1 0 -1.464844e-05)" class="st5 st8">T</text>
	</g>
	<g transform="translate(385,161)">
		<text transform="matrix(1 0 0 1 0 -1.464844e-05)" class="st5 st9">4,3</text>
	</g>
	<g transform="translate(368,442)">
		<text transform="matrix(1 0 0 1 0 -1.464844e-05)" class="st5 st8">T</text>
	</g>
	<g transform="translate(391,460)">
		<text transform="matrix(1 0 0 1 0 -1.464844e-05)" class="st5 st9">4,2</text>
	</g>
	<g>
		<line class="st20" x1="485.6" y1="311.4" x2="549" y2="311.6"/>
	</g>
	<g transform="translate(466,208)">
		<text transform="matrix(1 0 0 1 0 -1.464844e-05)" class="st21 st5 st8">u</text>
	</g>
	<g transform="translate(487,226)">
		<text transform="matrix(1 0 0 1 0 -1.464844e-05)" class="st21 st5 st9">4,1</text>
	</g>
	<g transform="translate(487,190)">
		<text transform="matrix(1 0 0 1 0 -1.464844e-05)" class="st21 st5 st9">max</text>
	</g>
	<g transform="translate(542,208)">
		<text transform="matrix(1 0 0 1 0 -1.464844e-05)" class="st21 st5 st8"> = v</text>
	</g>
	<g transform="translate(603,226)">
		<text transform="matrix(1 0 0 1 0 -1.464844e-05)" class="st21 st5 st9">4,1</text>
	</g>
	<g transform="translate(603,190)">
		<text transform="matrix(1 0 0 1 0 -1.464844e-05)" class="st21 st5 st9">max</text>
	</g>
	<g transform="translate(502,450)">
		<text transform="matrix(1 0 0 1 0 -1.464844e-05)" class="st22 st5 st8">q</text>
	</g>
	<g transform="translate(523,468)">
		<text transform="matrix(1 0 0 1 0 -1.464844e-05)" class="st22 st5 st9">t,4</text>
	</g>
	<g transform="translate(523,432)">
		<text transform="matrix(1 0 0 1 0 -1.464844e-05)" class="st22 st5 st9">max</text>
	</g>
	<g transform="translate(578,450)">
		<text transform="matrix(1 0 0 1 0 -1.464844e-05)" class="st22 st5 st8"> = b</text>
	</g>
	<g transform="translate(99,260)">
		<text transform="matrix(1 0 0 1 0 -1.464844e-05)" class="st22 st5 st8">q</text>
	</g>
	<g transform="translate(120,278)">
		<text transform="matrix(1 0 0 1 0 -1.464844e-05)" class="st22 st5 st9">t,4</text>
	</g>
	<g transform="translate(120,242)">
		<text transform="matrix(1 0 0 1 0 -1.464844e-05)" class="st22 st5 st9">min</text>
	</g>
	<g transform="translate(167,260)">
		<text transform="matrix(1 0 0 1 0 -1.464844e-05)" class="st22 st5 st8"> = -b</text>
	</g>
	<g>
		<line class="st23" x1="182" y1="267" x2="101.9" y2="303.4"/>
		<path class="st24" d="M108.2,306L94,307l7.9-3.6L108.2,306"/>
		<path class="st24" d="M94,307l10.1-10.1l-2.2,6.5L94,307"/>
	</g>
	<g>
		<path class="st22" d="M108.2,306L94,307l7.9-3.6L108.2,306z"/>
		<path class="st22" d="M94,307l10.1-10.1l-2.2,6.5L94,307z"/>
	</g>
	<g>
		<line class="st25" x1="559.3" y1="212.1" x2="551.8" y2="294.4"/>
		<path class="st26" d="M557.2,290.2L551,303l0.8-8.6L557.2,290.2"/>
		<path class="st26" d="M551,303l-3.8-13.7l4.6,5.1L551,303"/>
	</g>
	<g>
		<path class="st21" d="M557.2,290.2L551,303l0.8-8.6L557.2,290.2z"/>
		<path class="st21" d="M551,303l-3.8-13.7l4.6,5.1L551,303z"/>
	</g>
	<g>
		<line class="st23" x1="598" y1="423" x2="659.1" y2="323.3"/>
		<path class="st24" d="M652.4,324.7l11.2-8.8l-4.5,7.4L652.4,324.7"/>
		<path class="st24" d="M663.7,315.9l-2.7,14l-1.8-6.6L663.7,315.9"/>
	</g>
	<g>
		<path class="st22" d="M652.4,324.7l11.2-8.8l-4.5,7.4L652.4,324.7z"/>
		<path class="st22" d="M663.7,315.9l-2.7,14l-1.8-6.6L663.7,315.9z"/>
	</g>
	<g transform="translate(176,400)">
		<text transform="matrix(1 0 0 1 0 -1.464844e-05)" class="st21 st5 st8">u</text>
	</g>
	<g transform="translate(197,418)">
		<text transform="matrix(1 0 0 1 0 -1.464844e-05)" class="st21 st5 st9">4,1</text>
	</g>
	<g transform="translate(197,382)">
		<text transform="matrix(1 0 0 1 0 -1.464844e-05)" class="st21 st5 st9">min</text>
	</g>
	<g transform="translate(244,400)">
		<text transform="matrix(1 0 0 1 0 -1.464844e-05)" class="st21 st5 st8"> = v</text>
	</g>
	<g transform="translate(305,418)">
		<text transform="matrix(1 0 0 1 0 -1.464844e-05)" class="st21 st5 st9">4,1</text>
	</g>
	<g transform="translate(305,382)">
		<text transform="matrix(1 0 0 1 0 -1.464844e-05)" class="st21 st5 st9">min</text>
	</g>
	<g>
		<line class="st25" x1="271" y1="369" x2="464.9" y2="318.1"/>
		<path class="st26" d="M459.2,314.4l14.2,1.5l-8.4,2.2L459.2,314.4"/>
		<path class="st26" d="M473.3,315.9l-11.6,8.2l3.2-6L473.3,315.9"/>
	</g>
	<g>
		<path class="st21" d="M459.2,314.4l14.2,1.5l-8.4,2.2L459.2,314.4z"/>
		<path class="st21" d="M473.3,315.9l-11.6,8.2l3.2-6L473.3,315.9z"/>
	</g>
	<g transform="translate(364,276)">
		<text transform="matrix(1 0 0 1 0 -1.464844e-05)" class="st5 st8">T</text>
	</g>
	<g transform="translate(387,294)">
		<text transform="matrix(1 0 0 1 0 -1.464844e-05)" class="st5 st9">4,1</text>
	</g>
</g>
</svg>
