<?xml version="1.0" encoding="utf-8"?>
<!-- Generator: Adobe Illustrator 21.1.0, SVG Export Plug-In . SVG Version: 6.00 Build 0)  -->
<svg version="1.1" id="Layer_1" xmlns="http://www.w3.org/2000/svg" xmlns:xlink="http://www.w3.org/1999/xlink" x="0px" y="0px"
	 viewBox="0 0 735 555" style="enable-background:new 0 0 735 555;" xml:space="preserve">
<style type="text/css">
	.st0{clip-path:url(#SVGID_2_);fill:#FFFFFF;}
	.st1{fill:#FFFFFF;}
	.st2{fill:none;stroke:#262626;stroke-width:0.6667;stroke-linejoin:round;stroke-miterlimit:10;}
	.st3{fill:#262626;}
	.st4{font-family:'MyriadPro-Regular';}
	.st5{font-size:38px;}
	.st6{font-size:37px;}
	.st7{fill:none;stroke:#FF0000;stroke-width:0.6667;stroke-linejoin:round;stroke-miterlimit:10;}
	.st8{fill:none;stroke:#FF0000;stroke-width:0.6667;stroke-linecap:round;stroke-linejoin:round;stroke-miterlimit:10;}
	.st9{fill:none;stroke:#FF0000;stroke-width:2.6667;stroke-linejoin:round;stroke-miterlimit:10;}
	.st10{fill:none;stroke:#0000FF;stroke-width:2.6667;stroke-linejoin:round;stroke-miterlimit:10;}
	.st11{fill:none;stroke:#0000FF;stroke-width:2.6667;stroke-linecap:round;stroke-linejoin:round;stroke-miterlimit:10;}
	.st12{fill:none;stroke:#FF0000;stroke-width:2.6667;stroke-linecap:round;stroke-linejoin:round;stroke-miterlimit:10;}
	.st13{fill:none;stroke:#00FF00;stroke-width:2.6667;stroke-linejoin:round;stroke-miterlimit:10;}
	.st14{fill:none;stroke:#00FF00;stroke-width:2.6667;stroke-linecap:round;stroke-linejoin:round;stroke-miterlimit:10;}
	.st15{fill:none;stroke:#000000;stroke-width:1.3333;stroke-linejoin:round;stroke-miterlimit:10;}
	.st16{fill:none;stroke:#0000FF;stroke-width:1.3333;stroke-linejoin:round;stroke-miterlimit:10;}
	.st17{fill:none;stroke:#0000FF;stroke-width:0.6667;stroke-linejoin:round;stroke-miterlimit:10;}
	.st18{fill:#0000FF;}
	.st19{fill:none;stroke:#FF0000;stroke-width:1.3333;stroke-linejoin:round;stroke-miterlimit:10;}
	.st20{fill:#FF0000;}
	.st21{font-size:29px;}
	.st22{fill:none;stroke:#00FF00;stroke-width:1.3333;stroke-linejoin:round;stroke-miterlimit:10;}
	.st23{fill:none;stroke:#00FF00;stroke-width:0.6667;stroke-linejoin:round;stroke-miterlimit:10;}
	.st24{fill:#00FF00;}
</style>
<g>
	<g>
		<g>
			<defs>
				<rect id="SVGID_1_" y="0" width="735" height="555"/>
			</defs>
			<clipPath id="SVGID_2_">
				<use xlink:href="#SVGID_1_"  style="overflow:visible;"/>
			</clipPath>
			<rect y="0" class="st0" width="735" height="555"/>
		</g>
	</g>
	<g>
		<rect y="0" class="st1" width="735" height="555"/>
		<path class="st1" d="M89,487h577V48H89V487z"/>
	</g>
	<g>
		<line class="st2" x1="89" y1="487" x2="666" y2="487"/>
	</g>
	<g transform="translate(376.5436,493.0274)">
		<text transform="matrix(1 0 0 1 -11 39)" class="st3 st4 st5">q</text>
	</g>
	<g>
		<line class="st2" x1="89" y1="487" x2="89" y2="48"/>
	</g>
	<g transform="translate(56.2254,267.4998) rotate(-90)">
		<text transform="matrix(1 0 0 1 -10.9996 -9)" class="st3 st4 st5">p</text>
	</g>
	<g transform="translate(377.5004,41)">
		<text transform="matrix(1 0 0 1 -11.5 -9)" class="st4 st6">T</text>
	</g>
	<g>
		<line class="st7" x1="89" y1="48" x2="100.5" y2="48"/>
		<line class="st8" x1="100.5" y1="48" x2="112.1" y2="48"/>
		<line class="st8" x1="112.1" y1="48" x2="123.6" y2="48"/>
		<line class="st8" x1="123.6" y1="48" x2="135.2" y2="48"/>
		<line class="st8" x1="135.2" y1="48" x2="146.7" y2="48"/>
		<line class="st8" x1="146.7" y1="48" x2="158.2" y2="48"/>
		<line class="st8" x1="158.2" y1="48" x2="169.8" y2="48"/>
		<line class="st8" x1="169.8" y1="48" x2="181.3" y2="48"/>
		<line class="st8" x1="181.3" y1="48" x2="192.9" y2="48"/>
		<line class="st8" x1="192.9" y1="48" x2="204.4" y2="48"/>
		<line class="st8" x1="204.4" y1="48" x2="215.9" y2="48"/>
		<line class="st8" x1="215.9" y1="48" x2="227.5" y2="48"/>
		<line class="st8" x1="227.5" y1="48" x2="239" y2="48"/>
		<line class="st8" x1="239" y1="48" x2="250.6" y2="48"/>
		<line class="st8" x1="250.6" y1="48" x2="262.1" y2="48"/>
		<line class="st8" x1="262.1" y1="48" x2="273.6" y2="48"/>
		<line class="st8" x1="273.6" y1="48" x2="285.2" y2="48"/>
		<line class="st8" x1="285.2" y1="48" x2="296.7" y2="48"/>
		<line class="st8" x1="296.7" y1="48" x2="308.3" y2="48"/>
		<line class="st8" x1="308.3" y1="48" x2="319.8" y2="48"/>
		<line class="st8" x1="319.8" y1="48" x2="331.3" y2="48"/>
		<line class="st8" x1="331.3" y1="48" x2="342.9" y2="48"/>
		<line class="st8" x1="342.9" y1="48" x2="354.4" y2="48"/>
		<line class="st8" x1="354.4" y1="48" x2="366" y2="48"/>
		<line class="st8" x1="366" y1="48" x2="377.5" y2="48"/>
		<line class="st8" x1="377.5" y1="48" x2="389" y2="48"/>
		<line class="st8" x1="389" y1="48" x2="400.6" y2="48"/>
		<line class="st8" x1="400.6" y1="48" x2="412.1" y2="48"/>
		<line class="st8" x1="412.1" y1="48" x2="423.7" y2="48"/>
		<line class="st8" x1="423.7" y1="48" x2="435.2" y2="48"/>
		<line class="st8" x1="435.2" y1="48" x2="446.7" y2="48"/>
		<line class="st8" x1="446.7" y1="48" x2="458.3" y2="48"/>
		<line class="st8" x1="458.3" y1="48" x2="469.8" y2="48"/>
		<line class="st8" x1="469.8" y1="48" x2="481.4" y2="48"/>
		<line class="st8" x1="481.4" y1="48" x2="492.9" y2="48"/>
		<line class="st8" x1="492.9" y1="48" x2="504.4" y2="48"/>
		<line class="st8" x1="504.4" y1="48" x2="516" y2="48"/>
		<line class="st8" x1="516" y1="48" x2="527.5" y2="48"/>
		<line class="st8" x1="527.5" y1="48" x2="539.1" y2="48"/>
		<line class="st8" x1="539.1" y1="48" x2="550.6" y2="48"/>
		<line class="st8" x1="550.6" y1="48" x2="562.1" y2="48"/>
		<line class="st8" x1="562.1" y1="48" x2="573.7" y2="48"/>
		<line class="st8" x1="573.7" y1="48" x2="585.2" y2="48"/>
		<line class="st8" x1="585.2" y1="48" x2="596.8" y2="48"/>
		<line class="st8" x1="596.8" y1="48" x2="608.3" y2="48"/>
		<line class="st8" x1="608.3" y1="48" x2="619.8" y2="48"/>
		<line class="st8" x1="619.8" y1="48" x2="631.4" y2="48"/>
		<line class="st8" x1="631.4" y1="48" x2="642.9" y2="48"/>
		<line class="st7" x1="642.9" y1="48" x2="654.5" y2="48"/>
		<line class="st7" x1="666" y1="344.6" x2="666" y2="267.5"/>
		<line class="st9" x1="89" y1="173.3" x2="89" y2="48"/>
		<line class="st9" x1="666" y1="344.6" x2="666" y2="48"/>
		<line class="st9" x1="666" y1="487" x2="666" y2="361.7"/>
		<line class="st7" x1="100.5" y1="487" x2="100.5" y2="487"/>
		<line class="st8" x1="100.5" y1="487" x2="112.1" y2="487"/>
		<line class="st8" x1="112.1" y1="487" x2="123.6" y2="487"/>
		<line class="st8" x1="123.6" y1="487" x2="135.2" y2="487"/>
		<line class="st8" x1="135.2" y1="487" x2="146.7" y2="487"/>
		<line class="st8" x1="146.7" y1="487" x2="158.2" y2="487"/>
		<line class="st8" x1="158.2" y1="487" x2="169.8" y2="487"/>
		<line class="st8" x1="169.8" y1="487" x2="181.3" y2="487"/>
		<line class="st8" x1="181.3" y1="487" x2="192.9" y2="487"/>
		<line class="st8" x1="192.9" y1="487" x2="204.4" y2="487"/>
		<line class="st8" x1="204.4" y1="487" x2="215.9" y2="487"/>
		<line class="st8" x1="215.9" y1="487" x2="227.5" y2="487"/>
		<line class="st8" x1="227.5" y1="487" x2="239" y2="487"/>
		<line class="st8" x1="239" y1="487" x2="250.6" y2="487"/>
		<line class="st8" x1="250.6" y1="487" x2="262.1" y2="487"/>
		<line class="st8" x1="262.1" y1="487" x2="273.6" y2="487"/>
		<line class="st8" x1="273.6" y1="487" x2="285.2" y2="487"/>
		<line class="st8" x1="285.2" y1="487" x2="296.7" y2="487"/>
		<line class="st8" x1="296.7" y1="487" x2="308.3" y2="487"/>
		<line class="st8" x1="308.3" y1="487" x2="319.8" y2="487"/>
		<line class="st8" x1="319.8" y1="487" x2="331.3" y2="487"/>
		<line class="st8" x1="331.3" y1="487" x2="342.9" y2="487"/>
		<line class="st8" x1="342.9" y1="487" x2="354.4" y2="487"/>
		<line class="st8" x1="354.4" y1="487" x2="366" y2="487"/>
		<line class="st8" x1="366" y1="487" x2="377.5" y2="487"/>
		<line class="st8" x1="377.5" y1="487" x2="389" y2="487"/>
		<line class="st8" x1="389" y1="487" x2="400.6" y2="487"/>
		<line class="st8" x1="400.6" y1="487" x2="412.1" y2="487"/>
		<line class="st8" x1="412.1" y1="487" x2="423.7" y2="487"/>
		<line class="st8" x1="423.7" y1="487" x2="435.2" y2="487"/>
		<line class="st8" x1="435.2" y1="487" x2="446.7" y2="487"/>
		<line class="st8" x1="446.7" y1="487" x2="458.3" y2="487"/>
		<line class="st8" x1="458.3" y1="487" x2="469.8" y2="487"/>
		<line class="st8" x1="469.8" y1="487" x2="481.4" y2="487"/>
		<line class="st8" x1="481.4" y1="487" x2="492.9" y2="487"/>
		<line class="st8" x1="492.9" y1="487" x2="504.4" y2="487"/>
		<line class="st8" x1="504.4" y1="487" x2="516" y2="487"/>
		<line class="st8" x1="516" y1="487" x2="527.5" y2="487"/>
		<line class="st8" x1="527.5" y1="487" x2="539.1" y2="487"/>
		<line class="st8" x1="539.1" y1="487" x2="550.6" y2="487"/>
		<line class="st8" x1="550.6" y1="487" x2="562.1" y2="487"/>
		<line class="st8" x1="562.1" y1="487" x2="573.7" y2="487"/>
		<line class="st8" x1="573.7" y1="487" x2="585.2" y2="487"/>
		<line class="st8" x1="585.2" y1="487" x2="596.8" y2="487"/>
		<line class="st8" x1="596.8" y1="487" x2="608.3" y2="487"/>
		<line class="st8" x1="608.3" y1="487" x2="619.8" y2="487"/>
		<line class="st8" x1="619.8" y1="487" x2="631.4" y2="487"/>
		<line class="st8" x1="631.4" y1="487" x2="642.9" y2="487"/>
		<line class="st8" x1="642.9" y1="487" x2="654.5" y2="487"/>
		<line class="st7" x1="654.5" y1="487" x2="666" y2="487"/>
		<line class="st7" x1="89" y1="267.5" x2="89" y2="190.4"/>
		<line class="st9" x1="89" y1="190.4" x2="89" y2="487"/>
		<line class="st9" x1="666" y1="361.7" x2="666" y2="344.6"/>
		<line class="st9" x1="89" y1="190.4" x2="89" y2="173.3"/>
		<line class="st9" x1="89" y1="487" x2="666" y2="487"/>
		<line class="st9" x1="89" y1="48" x2="666" y2="48"/>
		<line class="st10" x1="337" y1="267.5" x2="348" y2="267.5"/>
	</g>
	<g>
		<line class="st11" x1="342.5" y1="273" x2="342.5" y2="262"/>
		<line class="st11" x1="338" y1="272" x2="347" y2="263"/>
		<line class="st10" x1="338" y1="263" x2="347" y2="272"/>
		<line class="st9" x1="346.5" y1="267.5" x2="345.7" y2="265.1"/>
		<line class="st12" x1="345.7" y1="265.1" x2="343.7" y2="263.7"/>
		<line class="st12" x1="343.7" y1="263.7" x2="341.3" y2="263.7"/>
		<line class="st12" x1="341.3" y1="263.7" x2="339.3" y2="265.1"/>
		<line class="st12" x1="339.3" y1="265.1" x2="338.5" y2="267.5"/>
		<line class="st12" x1="338.5" y1="267.5" x2="339.3" y2="269.9"/>
		<line class="st12" x1="339.3" y1="269.9" x2="341.3" y2="271.3"/>
		<line class="st12" x1="341.3" y1="271.3" x2="343.7" y2="271.3"/>
		<line class="st12" x1="343.7" y1="271.3" x2="345.7" y2="269.9"/>
		<line class="st9" x1="345.7" y1="269.9" x2="346.5" y2="267.5"/>
		<line class="st10" x1="84" y1="267.5" x2="95" y2="267.5"/>
		<line class="st11" x1="89.5" y1="273" x2="89.5" y2="262"/>
		<line class="st11" x1="86" y1="271" x2="93" y2="264"/>
		<line class="st10" x1="86" y1="264" x2="93" y2="271"/>
		<line class="st13" x1="661" y1="267.5" x2="672" y2="267.5"/>
		<line class="st14" x1="666.5" y1="273" x2="666.5" y2="262"/>
		<line class="st14" x1="662" y1="272" x2="671" y2="263"/>
		<line class="st13" x1="662" y1="263" x2="671" y2="272"/>
	</g>
	<g>
		<line class="st15" x1="89" y1="267.5" x2="666" y2="267.5"/>
		<line class="st16" x1="285" y1="204" x2="327.5" y2="256.3"/>
		<path class="st17" d="M328.5,249.5L333,263l-5.5-6.7L328.5,249.5"/>
		<path class="st17" d="M333,263l-12.3-7.2l6.8,0.5L333,263"/>
	</g>
	<g>
		<path class="st18" d="M328.5,249.5L333,263l-5.5-6.7L328.5,249.5z"/>
		<path class="st18" d="M333,263l-12.3-7.2l6.8,0.5L333,263z"/>
	</g>
	<g>
		<line class="st19" x1="405" y1="204" x2="354.9" y2="257.7"/>
		<path class="st7" d="M361.8,257.7L349,264l5.9-6.3H361.8"/>
		<path class="st7" d="M349,264l5.4-13.2l0.5,6.8L349,264"/>
	</g>
	<g>
		<path class="st20" d="M361.8,257.7L349,264l5.9-6.3H361.8z"/>
		<path class="st20" d="M349,264l5.4-13.2l0.5,6.8L349,264z"/>
	</g>
	<g transform="translate(260,193)">
		<text transform="matrix(1 0 0 1 0 -1.464844e-05)" class="st18 st4 st6">q</text>
	</g>
	<g transform="translate(281,175)">
		<text transform="matrix(1 0 0 1 0 -1.464844e-05)" class="st18 st4 st21">c</text>
	</g>
	<g transform="translate(296,193)">
		<text transform="matrix(1 0 0 1 0 -1.464844e-05)" class="st18 st4 st6"> </text>
	</g>
	<g>
		<line class="st16" x1="147" y1="334" x2="100.7" y2="281.5"/>
		<path class="st17" d="M100.1,288.3L95,275l5.7,6.5L100.1,288.3"/>
		<path class="st17" d="M95,275l12.6,6.7l-6.8-0.2L95,275"/>
	</g>
	<g>
		<path class="st18" d="M100.1,288.3L95,275l5.7,6.5L100.1,288.3z"/>
		<path class="st18" d="M95,275l12.6,6.7l-6.8-0.2L95,275z"/>
	</g>
	<g transform="translate(106,379)">
		<text transform="matrix(1 0 0 1 0 -1.464844e-05)" class="st18 st4 st6">q</text>
	</g>
	<g transform="translate(127,361)">
		<text transform="matrix(1 0 0 1 0 -1.464844e-05)" class="st18 st4 st21">a</text>
	</g>
	<g transform="translate(144,379)">
		<text transform="matrix(1 0 0 1 0 -1.464844e-05)" class="st18 st4 st6"> = -b</text>
	</g>
	<g>
		<line class="st22" x1="600" y1="333" x2="654.6" y2="278"/>
		<path class="st23" d="M647.7,277.8l12.9-5.9l-6.1,6.2L647.7,277.8"/>
		<path class="st23" d="M660.7,271.9l-5.8,13l-0.3-6.8L660.7,271.9"/>
	</g>
	<g>
		<path class="st24" d="M647.7,277.8l12.9-5.9l-6.1,6.2L647.7,277.8z"/>
		<path class="st24" d="M660.7,271.9l-5.8,13l-0.3-6.8L660.7,271.9z"/>
	</g>
	<g transform="translate(528,376)">
		<text transform="matrix(1 0 0 1 0 -1.464844e-05)" class="st24 st4 st6">q</text>
	</g>
	<g transform="translate(549,358)">
		<text transform="matrix(1 0 0 1 0 -1.464844e-05)" class="st24 st4 st21">b</text>
	</g>
	<g transform="translate(566,376)">
		<text transform="matrix(1 0 0 1 0 -1.464844e-05)" class="st24 st4 st6"> = b</text>
	</g>
	<g transform="translate(402,195)">
		<text transform="matrix(1 0 0 1 0 -1.464844e-05)" class="st20 st4 st6">q</text>
	</g>
	<g transform="translate(423,177)">
		<text transform="matrix(1 0 0 1 0 -1.464844e-05)" class="st20 st4 st21">d</text>
	</g>
	<g transform="translate(440,195)">
		<text transform="matrix(1 0 0 1 0 -1.464844e-05)" class="st20 st4 st6"> </text>
	</g>
</g>
</svg>
