<?xml version="1.0" encoding="utf-8"?>
<!-- Generator: Adobe Illustrator 21.1.0, SVG Export Plug-In . SVG Version: 6.00 Build 0)  -->
<svg version="1.1" id="Layer_1" xmlns="http://www.w3.org/2000/svg" xmlns:xlink="http://www.w3.org/1999/xlink" x="0px" y="0px"
	 viewBox="0 0 731 577" style="enable-background:new 0 0 731 577;" xml:space="preserve">
<style type="text/css">
	.st0{clip-path:url(#SVGID_2_);fill:#FFFFFF;}
	.st1{fill:#FFFFFF;}
	.st2{fill:none;stroke:#262626;stroke-width:0.6667;stroke-linejoin:round;stroke-miterlimit:10;}
	.st3{fill:none;stroke:#262626;stroke-width:0.6667;stroke-linecap:square;stroke-linejoin:round;stroke-miterlimit:10;}
	.st4{fill:#262626;}
	.st5{font-family:'MyriadPro-Regular';}
	.st6{font-size:35px;}
	.st7{font-size:38px;}
	.st8{font-size:37px;}
	.st9{font-size:29px;}
	.st10{fill:none;stroke:#FF0000;stroke-width:0.6667;stroke-linejoin:round;stroke-miterlimit:10;}
	.st11{fill:none;stroke:#FF0000;stroke-width:0.6667;stroke-linecap:round;stroke-linejoin:round;stroke-miterlimit:10;}
	.st12{fill:none;stroke:#FF0000;stroke-width:2.6667;stroke-linejoin:round;stroke-miterlimit:10;}
	.st13{fill:none;stroke:#FF0000;stroke-width:2.6667;stroke-linecap:round;stroke-linejoin:round;stroke-miterlimit:10;}
	.st14{fill:none;stroke:#FF00FF;stroke-width:2.6667;stroke-linejoin:round;stroke-miterlimit:10;}
	.st15{fill:none;stroke:#FF00FF;stroke-width:2.6667;stroke-linecap:round;stroke-linejoin:round;stroke-miterlimit:10;}
	.st16{fill:none;stroke:#000000;stroke-width:0.6667;stroke-linejoin:round;stroke-miterlimit:10;}
	.st17{fill:none;stroke:#000000;stroke-width:1.3333;stroke-linejoin:bevel;stroke-miterlimit:1;stroke-dasharray:10,6;}
	.st18{fill:none;stroke:#0000FF;stroke-width:2.6667;stroke-linejoin:round;stroke-miterlimit:10;}
	.st19{fill:none;stroke:#0000FF;stroke-width:2.6667;stroke-linecap:round;stroke-linejoin:round;stroke-miterlimit:10;}
	.st20{fill:none;stroke:#0000FF;stroke-width:0.6667;stroke-linejoin:round;stroke-miterlimit:10;}
	.st21{fill:#0000FF;}
	.st22{fill:none;stroke:#FF00FF;stroke-width:0.6667;stroke-linejoin:round;stroke-miterlimit:10;}
	.st23{fill:#FF00FF;}
	.st24{fill:none;stroke:#000000;stroke-width:1.3333;stroke-linejoin:round;stroke-miterlimit:10;}
</style>
<g>
	<g>
		<g>
			<defs>
				<rect id="SVGID_1_" y="0" width="731" height="577"/>
			</defs>
			<clipPath id="SVGID_2_">
				<use xlink:href="#SVGID_1_"  style="overflow:visible;"/>
			</clipPath>
			<rect y="0" class="st0" width="731" height="577"/>
		</g>
	</g>
	<g>
		<rect y="0" class="st1" width="731" height="577"/>
		<path class="st1" d="M88,506h574V50H88V506z"/>
	</g>
	<g>
		<line class="st2" x1="88" y1="506" x2="662" y2="506"/>
		<line class="st3" x1="206.2" y1="506" x2="206.2" y2="500.3"/>
		<line class="st3" x1="375" y1="506" x2="375" y2="500.3"/>
		<line class="st3" x1="543.8" y1="506" x2="543.8" y2="500.3"/>
	</g>
	<g transform="translate(206.1765,515.6)">
		<text transform="matrix(1 0 0 1 -25.5 36)" class="st4 st5 st6">-10</text>
	</g>
	<g transform="translate(375,515.6)">
		<text transform="matrix(1 0 0 1 -10 36)" class="st4 st5 st6">0</text>
	</g>
	<g transform="translate(543.8235,515.6)">
		<text transform="matrix(1 0 0 1 -19.5 36)" class="st4 st5 st6">10</text>
	</g>
	<g transform="translate(375.0434,542.3838)">
		<text transform="matrix(1 0 0 1 -11 39)" class="st4 st5 st7">q</text>
	</g>
	<g>
		<line class="st2" x1="88" y1="506" x2="88" y2="50"/>
		<line class="st3" x1="88" y1="506" x2="93.7" y2="506"/>
		<line class="st3" x1="88" y1="392" x2="93.7" y2="392"/>
		<line class="st3" x1="88" y1="278" x2="93.7" y2="278"/>
		<line class="st3" x1="88" y1="164" x2="93.7" y2="164"/>
		<line class="st3" x1="88" y1="50" x2="93.7" y2="50"/>
	</g>
	<g transform="translate(78.4,506)">
		<text transform="matrix(1 0 0 1 -32 14)" class="st4 st5 st6">-1</text>
	</g>
	<g transform="translate(78.4,392)">
		<text transform="matrix(1 0 0 1 -61 14)" class="st4 st5 st6">-0.5</text>
	</g>
	<g transform="translate(78.4,278)">
		<text transform="matrix(1 0 0 1 -20 14)" class="st4 st5 st6">0</text>
	</g>
	<g transform="translate(78.4,164)">
		<text transform="matrix(1 0 0 1 -49 14)" class="st4 st5 st6">0.5</text>
	</g>
	<g transform="translate(78.4,50)">
		<text transform="matrix(1 0 0 1 -20 14)" class="st4 st5 st6">1</text>
	</g>
	<g transform="translate(55.3958,277.9998) rotate(-90)">
		<text transform="matrix(1 0 0 1 -10.9996 -9)" class="st4 st5 st7">p</text>
	</g>
	<g transform="translate(357,13)">
		<text transform="matrix(1 0 0 1 0 -1.464844e-05)" class="st5 st8">T</text>
	</g>
	<g transform="translate(380,31)">
		<text transform="matrix(1 0 0 1 0 -1.464844e-05)" class="st5 st9">4</text>
	</g>
	<g>
		<line class="st10" x1="88" y1="50" x2="99.5" y2="50"/>
		<line class="st11" x1="99.5" y1="50" x2="111" y2="50"/>
		<line class="st11" x1="111" y1="50" x2="122.4" y2="50"/>
		<line class="st11" x1="122.4" y1="50" x2="133.9" y2="50"/>
		<line class="st11" x1="133.9" y1="50" x2="145.4" y2="50"/>
		<line class="st11" x1="145.4" y1="50" x2="156.9" y2="50"/>
		<line class="st11" x1="156.9" y1="50" x2="168.4" y2="50"/>
		<line class="st11" x1="168.4" y1="50" x2="179.8" y2="50"/>
		<line class="st11" x1="179.8" y1="50" x2="191.3" y2="50"/>
		<line class="st11" x1="191.3" y1="50" x2="202.8" y2="50"/>
		<line class="st11" x1="202.8" y1="50" x2="214.3" y2="50"/>
		<line class="st11" x1="214.3" y1="50" x2="225.8" y2="50"/>
		<line class="st11" x1="225.8" y1="50" x2="237.2" y2="50"/>
		<line class="st11" x1="237.2" y1="50" x2="248.7" y2="50"/>
		<line class="st11" x1="248.7" y1="50" x2="260.2" y2="50"/>
		<line class="st11" x1="260.2" y1="50" x2="271.7" y2="50"/>
		<line class="st11" x1="271.7" y1="50" x2="283.2" y2="50"/>
		<line class="st11" x1="283.2" y1="50" x2="294.6" y2="50"/>
		<line class="st11" x1="294.6" y1="50" x2="306.1" y2="50"/>
		<line class="st11" x1="306.1" y1="50" x2="317.6" y2="50"/>
		<line class="st11" x1="317.6" y1="50" x2="329.1" y2="50"/>
		<line class="st11" x1="329.1" y1="50" x2="340.6" y2="50"/>
		<line class="st11" x1="340.6" y1="50" x2="352" y2="50"/>
		<line class="st11" x1="352" y1="50" x2="363.5" y2="50"/>
		<line class="st11" x1="363.5" y1="50" x2="375" y2="50"/>
		<line class="st11" x1="375" y1="50" x2="386.5" y2="50"/>
		<line class="st11" x1="386.5" y1="50" x2="398" y2="50"/>
		<line class="st11" x1="398" y1="50" x2="409.4" y2="50"/>
		<line class="st11" x1="409.4" y1="50" x2="420.9" y2="50"/>
		<line class="st11" x1="420.9" y1="50" x2="432.4" y2="50"/>
		<line class="st11" x1="432.4" y1="50" x2="443.9" y2="50"/>
		<line class="st11" x1="443.9" y1="50" x2="455.4" y2="50"/>
		<line class="st11" x1="455.4" y1="50" x2="466.8" y2="50"/>
		<line class="st11" x1="466.8" y1="50" x2="478.3" y2="50"/>
		<line class="st11" x1="478.3" y1="50" x2="489.8" y2="50"/>
		<line class="st11" x1="489.8" y1="50" x2="501.3" y2="50"/>
		<line class="st11" x1="501.3" y1="50" x2="512.8" y2="50"/>
		<line class="st11" x1="512.8" y1="50" x2="524.2" y2="50"/>
		<line class="st11" x1="524.2" y1="50" x2="535.7" y2="50"/>
		<line class="st11" x1="535.7" y1="50" x2="547.2" y2="50"/>
		<line class="st11" x1="547.2" y1="50" x2="558.7" y2="50"/>
		<line class="st11" x1="558.7" y1="50" x2="570.2" y2="50"/>
		<line class="st11" x1="570.2" y1="50" x2="581.6" y2="50"/>
		<line class="st11" x1="581.6" y1="50" x2="593.1" y2="50"/>
		<line class="st11" x1="593.1" y1="50" x2="604.6" y2="50"/>
		<line class="st11" x1="604.6" y1="50" x2="616.1" y2="50"/>
		<line class="st11" x1="616.1" y1="50" x2="627.6" y2="50"/>
		<line class="st11" x1="627.6" y1="50" x2="639" y2="50"/>
		<line class="st10" x1="639" y1="50" x2="650.5" y2="50"/>
		<line class="st10" x1="662" y1="358.1" x2="662" y2="278"/>
		<line class="st12" x1="99.5" y1="183.1" x2="99.5" y2="183.1"/>
		<line class="st13" x1="99.5" y1="183.1" x2="111" y2="186"/>
		<line class="st13" x1="111" y1="186" x2="122.4" y2="189"/>
		<line class="st13" x1="122.4" y1="189" x2="133.9" y2="192.1"/>
		<line class="st13" x1="133.9" y1="192.1" x2="145.4" y2="195.2"/>
		<line class="st13" x1="145.4" y1="195.2" x2="156.9" y2="198.3"/>
		<line class="st13" x1="156.9" y1="198.3" x2="168.4" y2="201.5"/>
		<line class="st13" x1="168.4" y1="201.5" x2="179.8" y2="204.8"/>
		<line class="st13" x1="179.8" y1="204.8" x2="191.3" y2="208.1"/>
		<line class="st13" x1="191.3" y1="208.1" x2="202.8" y2="211.5"/>
		<line class="st13" x1="202.8" y1="211.5" x2="214.3" y2="214.9"/>
		<line class="st13" x1="214.3" y1="214.9" x2="225.8" y2="218.4"/>
		<line class="st13" x1="225.8" y1="218.4" x2="237.2" y2="221.9"/>
		<line class="st13" x1="237.2" y1="221.9" x2="248.7" y2="225.4"/>
		<line class="st13" x1="248.7" y1="225.4" x2="260.2" y2="229"/>
		<line class="st13" x1="260.2" y1="229" x2="271.7" y2="232.6"/>
		<line class="st13" x1="271.7" y1="232.6" x2="283.2" y2="236.3"/>
		<line class="st13" x1="283.2" y1="236.3" x2="294.6" y2="240"/>
		<line class="st13" x1="294.6" y1="240" x2="306.1" y2="243.7"/>
		<line class="st13" x1="306.1" y1="243.7" x2="317.6" y2="247.5"/>
		<line class="st13" x1="317.6" y1="247.5" x2="329.1" y2="251.3"/>
		<line class="st13" x1="329.1" y1="251.3" x2="340.6" y2="255.1"/>
		<line class="st13" x1="340.6" y1="255.1" x2="352" y2="258.9"/>
		<line class="st13" x1="352" y1="258.9" x2="363.5" y2="262.8"/>
		<line class="st13" x1="363.5" y1="262.8" x2="375" y2="266.6"/>
		<line class="st13" x1="375" y1="266.6" x2="386.5" y2="270.5"/>
		<line class="st13" x1="386.5" y1="270.5" x2="398" y2="274.4"/>
		<line class="st13" x1="398" y1="274.4" x2="409.4" y2="278.2"/>
		<line class="st13" x1="409.4" y1="278.2" x2="420.9" y2="282.1"/>
		<line class="st13" x1="420.9" y1="282.1" x2="432.4" y2="286"/>
		<line class="st13" x1="432.4" y1="286" x2="443.9" y2="289.8"/>
		<line class="st13" x1="443.9" y1="289.8" x2="455.4" y2="293.7"/>
		<line class="st13" x1="455.4" y1="293.7" x2="466.8" y2="297.5"/>
		<line class="st13" x1="466.8" y1="297.5" x2="478.3" y2="301.4"/>
		<line class="st13" x1="478.3" y1="301.4" x2="489.8" y2="305.2"/>
		<line class="st13" x1="489.8" y1="305.2" x2="501.3" y2="308.9"/>
		<line class="st13" x1="501.3" y1="308.9" x2="512.8" y2="312.7"/>
		<line class="st13" x1="512.8" y1="312.7" x2="524.2" y2="316.4"/>
		<line class="st13" x1="524.2" y1="316.4" x2="535.7" y2="320.1"/>
		<line class="st13" x1="535.7" y1="320.1" x2="547.2" y2="323.8"/>
		<line class="st13" x1="547.2" y1="323.8" x2="558.7" y2="327.4"/>
		<line class="st13" x1="558.7" y1="327.4" x2="570.2" y2="331"/>
		<line class="st13" x1="570.2" y1="331" x2="581.6" y2="334.5"/>
		<line class="st13" x1="581.6" y1="334.5" x2="593.1" y2="338"/>
		<line class="st13" x1="593.1" y1="338" x2="604.6" y2="341.5"/>
		<line class="st13" x1="604.6" y1="341.5" x2="616.1" y2="344.9"/>
		<line class="st13" x1="616.1" y1="344.9" x2="627.6" y2="348.3"/>
		<line class="st13" x1="627.6" y1="348.3" x2="639" y2="351.6"/>
		<line class="st13" x1="639" y1="351.6" x2="650.5" y2="354.8"/>
		<line class="st12" x1="650.5" y1="354.8" x2="662" y2="358.1"/>
		<line class="st12" x1="88" y1="180.2" x2="88" y2="50"/>
		<line class="st12" x1="662" y1="358.1" x2="662" y2="50"/>
		<line class="st12" x1="88" y1="197.9" x2="99.5" y2="201.2"/>
		<line class="st13" x1="99.5" y1="201.2" x2="111" y2="204.4"/>
		<line class="st13" x1="111" y1="204.4" x2="122.4" y2="207.7"/>
		<line class="st13" x1="122.4" y1="207.7" x2="133.9" y2="211.1"/>
		<line class="st13" x1="133.9" y1="211.1" x2="145.4" y2="214.5"/>
		<line class="st13" x1="145.4" y1="214.5" x2="156.9" y2="218"/>
		<line class="st13" x1="156.9" y1="218" x2="168.4" y2="221.5"/>
		<line class="st13" x1="168.4" y1="221.5" x2="179.8" y2="225"/>
		<line class="st13" x1="179.8" y1="225" x2="191.3" y2="228.6"/>
		<line class="st13" x1="191.3" y1="228.6" x2="202.8" y2="232.2"/>
		<line class="st13" x1="202.8" y1="232.2" x2="214.3" y2="235.9"/>
		<line class="st13" x1="214.3" y1="235.9" x2="225.8" y2="239.6"/>
		<line class="st13" x1="225.8" y1="239.6" x2="237.2" y2="243.3"/>
		<line class="st13" x1="237.2" y1="243.3" x2="248.7" y2="247.1"/>
		<line class="st13" x1="248.7" y1="247.1" x2="260.2" y2="250.8"/>
		<line class="st13" x1="260.2" y1="250.8" x2="271.7" y2="254.6"/>
		<line class="st13" x1="271.7" y1="254.6" x2="283.2" y2="258.5"/>
		<line class="st13" x1="283.2" y1="258.5" x2="294.6" y2="262.3"/>
		<line class="st13" x1="294.6" y1="262.3" x2="306.1" y2="266.2"/>
		<line class="st13" x1="306.1" y1="266.2" x2="317.6" y2="270"/>
		<line class="st13" x1="317.6" y1="270" x2="329.1" y2="273.9"/>
		<line class="st13" x1="329.1" y1="273.9" x2="340.6" y2="277.8"/>
		<line class="st13" x1="340.6" y1="277.8" x2="352" y2="281.6"/>
		<line class="st13" x1="352" y1="281.6" x2="363.5" y2="285.5"/>
		<line class="st13" x1="363.5" y1="285.5" x2="375" y2="289.4"/>
		<line class="st13" x1="375" y1="289.4" x2="386.5" y2="293.2"/>
		<line class="st13" x1="386.5" y1="293.2" x2="398" y2="297.1"/>
		<line class="st13" x1="398" y1="297.1" x2="409.4" y2="300.9"/>
		<line class="st13" x1="409.4" y1="300.9" x2="420.9" y2="304.7"/>
		<line class="st13" x1="420.9" y1="304.7" x2="432.4" y2="308.5"/>
		<line class="st13" x1="432.4" y1="308.5" x2="443.9" y2="312.3"/>
		<line class="st13" x1="443.9" y1="312.3" x2="455.4" y2="316"/>
		<line class="st13" x1="455.4" y1="316" x2="466.8" y2="319.7"/>
		<line class="st13" x1="466.8" y1="319.7" x2="478.3" y2="323.4"/>
		<line class="st13" x1="478.3" y1="323.4" x2="489.8" y2="327"/>
		<line class="st13" x1="489.8" y1="327" x2="501.3" y2="330.6"/>
		<line class="st13" x1="501.3" y1="330.6" x2="512.8" y2="334.1"/>
		<line class="st13" x1="512.8" y1="334.1" x2="524.2" y2="337.6"/>
		<line class="st13" x1="524.2" y1="337.6" x2="535.7" y2="341.1"/>
		<line class="st13" x1="535.7" y1="341.1" x2="547.2" y2="344.5"/>
		<line class="st13" x1="547.2" y1="344.5" x2="558.7" y2="347.9"/>
		<line class="st13" x1="558.7" y1="347.9" x2="570.2" y2="351.2"/>
		<line class="st13" x1="570.2" y1="351.2" x2="581.6" y2="354.5"/>
		<line class="st13" x1="581.6" y1="354.5" x2="593.1" y2="357.7"/>
		<line class="st13" x1="593.1" y1="357.7" x2="604.6" y2="360.8"/>
		<line class="st13" x1="604.6" y1="360.8" x2="616.1" y2="363.9"/>
		<line class="st13" x1="616.1" y1="363.9" x2="627.6" y2="367"/>
		<line class="st13" x1="627.6" y1="367" x2="639" y2="370"/>
		<line class="st12" x1="639" y1="370" x2="650.5" y2="372.9"/>
		<line class="st12" x1="662" y1="506" x2="662" y2="375.8"/>
		<line class="st10" x1="99.5" y1="506" x2="99.5" y2="506"/>
		<line class="st11" x1="99.5" y1="506" x2="111" y2="506"/>
		<line class="st11" x1="111" y1="506" x2="122.4" y2="506"/>
		<line class="st11" x1="122.4" y1="506" x2="133.9" y2="506"/>
		<line class="st11" x1="133.9" y1="506" x2="145.4" y2="506"/>
		<line class="st11" x1="145.4" y1="506" x2="156.9" y2="506"/>
		<line class="st11" x1="156.9" y1="506" x2="168.4" y2="506"/>
		<line class="st11" x1="168.4" y1="506" x2="179.8" y2="506"/>
		<line class="st11" x1="179.8" y1="506" x2="191.3" y2="506"/>
		<line class="st11" x1="191.3" y1="506" x2="202.8" y2="506"/>
		<line class="st11" x1="202.8" y1="506" x2="214.3" y2="506"/>
		<line class="st11" x1="214.3" y1="506" x2="225.8" y2="506"/>
		<line class="st11" x1="225.8" y1="506" x2="237.2" y2="506"/>
		<line class="st11" x1="237.2" y1="506" x2="248.7" y2="506"/>
		<line class="st11" x1="248.7" y1="506" x2="260.2" y2="506"/>
		<line class="st11" x1="260.2" y1="506" x2="271.7" y2="506"/>
		<line class="st11" x1="271.7" y1="506" x2="283.2" y2="506"/>
		<line class="st11" x1="283.2" y1="506" x2="294.6" y2="506"/>
		<line class="st11" x1="294.6" y1="506" x2="306.1" y2="506"/>
		<line class="st11" x1="306.1" y1="506" x2="317.6" y2="506"/>
		<line class="st11" x1="317.6" y1="506" x2="329.1" y2="506"/>
		<line class="st11" x1="329.1" y1="506" x2="340.6" y2="506"/>
		<line class="st11" x1="340.6" y1="506" x2="352" y2="506"/>
		<line class="st11" x1="352" y1="506" x2="363.5" y2="506"/>
		<line class="st11" x1="363.5" y1="506" x2="375" y2="506"/>
		<line class="st11" x1="375" y1="506" x2="386.5" y2="506"/>
		<line class="st11" x1="386.5" y1="506" x2="398" y2="506"/>
		<line class="st11" x1="398" y1="506" x2="409.4" y2="506"/>
		<line class="st11" x1="409.4" y1="506" x2="420.9" y2="506"/>
		<line class="st11" x1="420.9" y1="506" x2="432.4" y2="506"/>
		<line class="st11" x1="432.4" y1="506" x2="443.9" y2="506"/>
		<line class="st11" x1="443.9" y1="506" x2="455.4" y2="506"/>
		<line class="st11" x1="455.4" y1="506" x2="466.8" y2="506"/>
		<line class="st11" x1="466.8" y1="506" x2="478.3" y2="506"/>
		<line class="st11" x1="478.3" y1="506" x2="489.8" y2="506"/>
		<line class="st11" x1="489.8" y1="506" x2="501.3" y2="506"/>
		<line class="st11" x1="501.3" y1="506" x2="512.8" y2="506"/>
		<line class="st11" x1="512.8" y1="506" x2="524.2" y2="506"/>
		<line class="st11" x1="524.2" y1="506" x2="535.7" y2="506"/>
		<line class="st11" x1="535.7" y1="506" x2="547.2" y2="506"/>
		<line class="st11" x1="547.2" y1="506" x2="558.7" y2="506"/>
		<line class="st11" x1="558.7" y1="506" x2="570.2" y2="506"/>
		<line class="st11" x1="570.2" y1="506" x2="581.6" y2="506"/>
		<line class="st11" x1="581.6" y1="506" x2="593.1" y2="506"/>
		<line class="st11" x1="593.1" y1="506" x2="604.6" y2="506"/>
		<line class="st11" x1="604.6" y1="506" x2="616.1" y2="506"/>
		<line class="st11" x1="616.1" y1="506" x2="627.6" y2="506"/>
		<line class="st11" x1="627.6" y1="506" x2="639" y2="506"/>
		<line class="st11" x1="639" y1="506" x2="650.5" y2="506"/>
		<line class="st10" x1="650.5" y1="506" x2="662" y2="506"/>
		<line class="st10" x1="88" y1="278" x2="88" y2="197.9"/>
		<line class="st12" x1="88" y1="197.9" x2="88" y2="506"/>
		<line class="st12" x1="88" y1="180.2" x2="99.5" y2="183.1"/>
		<line class="st13" x1="99.5" y1="183.1" x2="111" y2="186"/>
		<line class="st13" x1="111" y1="186" x2="122.4" y2="189"/>
		<line class="st13" x1="122.4" y1="189" x2="133.9" y2="192.1"/>
		<line class="st13" x1="133.9" y1="192.1" x2="145.4" y2="195.2"/>
		<line class="st13" x1="145.4" y1="195.2" x2="156.9" y2="198.3"/>
		<line class="st13" x1="156.9" y1="198.3" x2="168.4" y2="201.5"/>
		<line class="st13" x1="168.4" y1="201.5" x2="179.8" y2="204.8"/>
		<line class="st13" x1="179.8" y1="204.8" x2="191.3" y2="208.1"/>
		<line class="st13" x1="191.3" y1="208.1" x2="202.8" y2="211.5"/>
		<line class="st13" x1="202.8" y1="211.5" x2="214.3" y2="214.9"/>
		<line class="st13" x1="214.3" y1="214.9" x2="225.8" y2="218.4"/>
		<line class="st13" x1="225.8" y1="218.4" x2="237.2" y2="221.9"/>
		<line class="st13" x1="237.2" y1="221.9" x2="248.7" y2="225.4"/>
		<line class="st13" x1="248.7" y1="225.4" x2="260.2" y2="229"/>
		<line class="st13" x1="260.2" y1="229" x2="271.7" y2="232.6"/>
		<line class="st13" x1="271.7" y1="232.6" x2="283.2" y2="236.3"/>
		<line class="st13" x1="283.2" y1="236.3" x2="294.6" y2="240"/>
		<line class="st13" x1="294.6" y1="240" x2="306.1" y2="243.7"/>
		<line class="st13" x1="306.1" y1="243.7" x2="317.6" y2="247.5"/>
		<line class="st13" x1="317.6" y1="247.5" x2="329.1" y2="251.3"/>
		<line class="st13" x1="329.1" y1="251.3" x2="340.6" y2="255.1"/>
		<line class="st13" x1="340.6" y1="255.1" x2="352" y2="258.9"/>
		<line class="st13" x1="352" y1="258.9" x2="363.5" y2="262.8"/>
		<line class="st13" x1="363.5" y1="262.8" x2="375" y2="266.6"/>
		<line class="st13" x1="375" y1="266.6" x2="386.5" y2="270.5"/>
		<line class="st13" x1="386.5" y1="270.5" x2="398" y2="274.4"/>
		<line class="st13" x1="398" y1="274.4" x2="409.4" y2="278.2"/>
		<line class="st13" x1="409.4" y1="278.2" x2="420.9" y2="282.1"/>
		<line class="st13" x1="420.9" y1="282.1" x2="432.4" y2="286"/>
		<line class="st13" x1="432.4" y1="286" x2="443.9" y2="289.8"/>
		<line class="st13" x1="443.9" y1="289.8" x2="455.4" y2="293.7"/>
		<line class="st13" x1="455.4" y1="293.7" x2="466.8" y2="297.5"/>
		<line class="st13" x1="466.8" y1="297.5" x2="478.3" y2="301.4"/>
		<line class="st13" x1="478.3" y1="301.4" x2="489.8" y2="305.2"/>
		<line class="st13" x1="489.8" y1="305.2" x2="501.3" y2="308.9"/>
		<line class="st13" x1="501.3" y1="308.9" x2="512.8" y2="312.7"/>
		<line class="st13" x1="512.8" y1="312.7" x2="524.2" y2="316.4"/>
		<line class="st13" x1="524.2" y1="316.4" x2="535.7" y2="320.1"/>
		<line class="st13" x1="535.7" y1="320.1" x2="547.2" y2="323.8"/>
		<line class="st13" x1="547.2" y1="323.8" x2="558.7" y2="327.4"/>
		<line class="st13" x1="558.7" y1="327.4" x2="570.2" y2="331"/>
		<line class="st13" x1="570.2" y1="331" x2="581.6" y2="334.5"/>
		<line class="st13" x1="581.6" y1="334.5" x2="593.1" y2="338"/>
		<line class="st13" x1="593.1" y1="338" x2="604.6" y2="341.5"/>
		<line class="st13" x1="604.6" y1="341.5" x2="616.1" y2="344.9"/>
		<line class="st13" x1="616.1" y1="344.9" x2="627.6" y2="348.3"/>
		<line class="st13" x1="627.6" y1="348.3" x2="639" y2="351.6"/>
		<line class="st12" x1="639" y1="351.6" x2="650.5" y2="354.8"/>
		<line class="st12" x1="662" y1="375.8" x2="662" y2="358.1"/>
		<line class="st12" x1="99.5" y1="201.2" x2="99.5" y2="201.2"/>
		<line class="st13" x1="99.5" y1="201.2" x2="111" y2="204.4"/>
		<line class="st13" x1="111" y1="204.4" x2="122.4" y2="207.7"/>
		<line class="st13" x1="122.4" y1="207.7" x2="133.9" y2="211.1"/>
		<line class="st13" x1="133.9" y1="211.1" x2="145.4" y2="214.5"/>
		<line class="st13" x1="145.4" y1="214.5" x2="156.9" y2="218"/>
		<line class="st13" x1="156.9" y1="218" x2="168.4" y2="221.5"/>
		<line class="st13" x1="168.4" y1="221.5" x2="179.8" y2="225"/>
		<line class="st13" x1="179.8" y1="225" x2="191.3" y2="228.6"/>
		<line class="st13" x1="191.3" y1="228.6" x2="202.8" y2="232.2"/>
		<line class="st13" x1="202.8" y1="232.2" x2="214.3" y2="235.9"/>
		<line class="st13" x1="214.3" y1="235.9" x2="225.8" y2="239.6"/>
		<line class="st13" x1="225.8" y1="239.6" x2="237.2" y2="243.3"/>
		<line class="st13" x1="237.2" y1="243.3" x2="248.7" y2="247.1"/>
		<line class="st13" x1="248.7" y1="247.1" x2="260.2" y2="250.8"/>
		<line class="st13" x1="260.2" y1="250.8" x2="271.7" y2="254.6"/>
		<line class="st13" x1="271.7" y1="254.6" x2="283.2" y2="258.5"/>
		<line class="st13" x1="283.2" y1="258.5" x2="294.6" y2="262.3"/>
		<line class="st13" x1="294.6" y1="262.3" x2="306.1" y2="266.2"/>
		<line class="st13" x1="306.1" y1="266.2" x2="317.6" y2="270"/>
		<line class="st13" x1="317.6" y1="270" x2="329.1" y2="273.9"/>
		<line class="st13" x1="329.1" y1="273.9" x2="340.6" y2="277.8"/>
		<line class="st13" x1="340.6" y1="277.8" x2="352" y2="281.6"/>
		<line class="st13" x1="352" y1="281.6" x2="363.5" y2="285.5"/>
		<line class="st13" x1="363.5" y1="285.5" x2="375" y2="289.4"/>
		<line class="st13" x1="375" y1="289.4" x2="386.5" y2="293.2"/>
		<line class="st13" x1="386.5" y1="293.2" x2="398" y2="297.1"/>
		<line class="st13" x1="398" y1="297.1" x2="409.4" y2="300.9"/>
		<line class="st13" x1="409.4" y1="300.9" x2="420.9" y2="304.7"/>
		<line class="st13" x1="420.9" y1="304.7" x2="432.4" y2="308.5"/>
		<line class="st13" x1="432.4" y1="308.5" x2="443.9" y2="312.3"/>
		<line class="st13" x1="443.9" y1="312.3" x2="455.4" y2="316"/>
		<line class="st13" x1="455.4" y1="316" x2="466.8" y2="319.7"/>
		<line class="st13" x1="466.8" y1="319.7" x2="478.3" y2="323.4"/>
		<line class="st13" x1="478.3" y1="323.4" x2="489.8" y2="327"/>
		<line class="st13" x1="489.8" y1="327" x2="501.3" y2="330.6"/>
		<line class="st13" x1="501.3" y1="330.6" x2="512.8" y2="334.1"/>
		<line class="st13" x1="512.8" y1="334.1" x2="524.2" y2="337.6"/>
		<line class="st13" x1="524.2" y1="337.6" x2="535.7" y2="341.1"/>
		<line class="st13" x1="535.7" y1="341.1" x2="547.2" y2="344.5"/>
		<line class="st13" x1="547.2" y1="344.5" x2="558.7" y2="347.9"/>
		<line class="st13" x1="558.7" y1="347.9" x2="570.2" y2="351.2"/>
		<line class="st13" x1="570.2" y1="351.2" x2="581.6" y2="354.5"/>
		<line class="st13" x1="581.6" y1="354.5" x2="593.1" y2="357.7"/>
		<line class="st13" x1="593.1" y1="357.7" x2="604.6" y2="360.8"/>
		<line class="st13" x1="604.6" y1="360.8" x2="616.1" y2="363.9"/>
		<line class="st13" x1="616.1" y1="363.9" x2="627.6" y2="367"/>
		<line class="st13" x1="627.6" y1="367" x2="639" y2="370"/>
		<line class="st13" x1="639" y1="370" x2="650.5" y2="372.9"/>
		<line class="st12" x1="650.5" y1="372.9" x2="662" y2="375.8"/>
		<line class="st12" x1="88" y1="197.9" x2="88" y2="180.2"/>
		<line class="st12" x1="88" y1="506" x2="662" y2="506"/>
		<line class="st12" x1="88" y1="50" x2="662" y2="50"/>
		<line class="st14" x1="475" y1="323.5" x2="484" y2="323.5"/>
	</g>
	<g>
		<line class="st15" x1="479.5" y1="328" x2="479.5" y2="319"/>
		<line class="st15" x1="476" y1="327" x2="483" y2="320"/>
		<line class="st14" x1="476" y1="320" x2="483" y2="327"/>
		<line class="st14" x1="542" y1="323.5" x2="551" y2="323.5"/>
		<line class="st15" x1="546.5" y1="328" x2="546.5" y2="319"/>
		<line class="st15" x1="543" y1="327" x2="550" y2="320"/>
		<line class="st14" x1="543" y1="320" x2="550" y2="327"/>
	</g>
	<g>
		<line class="st16" x1="479.1" y1="323.6" x2="546.6" y2="323.6"/>
	</g>
	<g>
		<line class="st17" x1="88" y1="323.6" x2="662" y2="323.6"/>
	</g>
	<g>
		<line class="st18" x1="92.5" y1="323.5" x2="91.7" y2="321.1"/>
		<line class="st19" x1="91.7" y1="321.1" x2="89.7" y2="319.7"/>
		<line class="st19" x1="89.7" y1="319.7" x2="87.3" y2="319.7"/>
		<line class="st19" x1="87.3" y1="319.7" x2="85.3" y2="321.1"/>
		<line class="st19" x1="85.3" y1="321.1" x2="84.5" y2="323.5"/>
		<line class="st19" x1="84.5" y1="323.5" x2="85.3" y2="325.9"/>
		<line class="st19" x1="85.3" y1="325.9" x2="87.3" y2="327.3"/>
		<line class="st19" x1="87.3" y1="327.3" x2="89.7" y2="327.3"/>
		<line class="st19" x1="89.7" y1="327.3" x2="91.7" y2="325.9"/>
		<line class="st18" x1="91.7" y1="325.9" x2="92.5" y2="323.5"/>
		<line class="st18" x1="666.5" y1="323.5" x2="665.7" y2="321.1"/>
		<line class="st19" x1="665.7" y1="321.1" x2="663.7" y2="319.7"/>
		<line class="st19" x1="663.7" y1="319.7" x2="661.3" y2="319.7"/>
		<line class="st19" x1="661.3" y1="319.7" x2="659.3" y2="321.1"/>
		<line class="st19" x1="659.3" y1="321.1" x2="658.5" y2="323.5"/>
		<line class="st19" x1="658.5" y1="323.5" x2="659.3" y2="325.9"/>
		<line class="st19" x1="659.3" y1="325.9" x2="661.3" y2="327.3"/>
		<line class="st19" x1="661.3" y1="327.3" x2="663.7" y2="327.3"/>
		<line class="st19" x1="663.7" y1="327.3" x2="665.7" y2="325.9"/>
		<line class="st18" x1="665.7" y1="325.9" x2="666.5" y2="323.5"/>
	</g>
	<g transform="translate(360,147)">
		<text transform="matrix(1 0 0 1 0 -1.464844e-05)" class="st5 st8">T</text>
	</g>
	<g transform="translate(383,165)">
		<text transform="matrix(1 0 0 1 0 -1.464844e-05)" class="st5 st9">4,3</text>
	</g>
	<g>
		<line class="st20" x1="102" y1="346.6" x2="95.9" y2="336.5"/>
		<path class="st20" d="M94,343.1l-2.6-14l4.5,7.4L94,343.1"/>
		<path class="st20" d="M91.4,329.1l11.2,8.8l-6.7-1.4L91.4,329.1"/>
	</g>
	<g>
		<path class="st21" d="M94,343.1l-2.6-14l4.5,7.4L94,343.1z"/>
		<path class="st21" d="M91.4,329.1l11.2,8.8l-6.7-1.4L91.4,329.1z"/>
	</g>
	<g>
		<line class="st22" x1="437.3" y1="340.3" x2="462.6" y2="331.3"/>
		<path class="st22" d="M456.5,328.2l14.2,0.3l-8.2,2.9L456.5,328.2"/>
		<path class="st22" d="M470.7,328.4l-10.9,9.2l2.7-6.3L470.7,328.4"/>
	</g>
	<g>
		<path class="st23" d="M456.5,328.2l14.2,0.3l-8.2,2.9L456.5,328.2z"/>
		<path class="st23" d="M470.7,328.4l-10.9,9.2l2.7-6.3L470.7,328.4z"/>
	</g>
	<g transform="translate(97,384)">
		<text transform="matrix(1 0 0 1 0 -1.464844e-05)" class="st21 st5 st8">q</text>
	</g>
	<g transform="translate(118,402)">
		<text transform="matrix(1 0 0 1 0 -1.464844e-05)" class="st21 st5 st9">t,4</text>
	</g>
	<g transform="translate(118,366)">
		<text transform="matrix(1 0 0 1 0 -1.464844e-05)" class="st21 st5 st9">min</text>
	</g>
	<g transform="translate(165,384)">
		<text transform="matrix(1 0 0 1 0 -1.464844e-05)" class="st21 st5 st8"> = -b</text>
	</g>
	<g transform="translate(347,383)">
		<text transform="matrix(1 0 0 1 0 -1.464844e-05)" class="st23 st5 st8">u</text>
	</g>
	<g transform="translate(368,401)">
		<text transform="matrix(1 0 0 1 0 -1.464844e-05)" class="st23 st5 st9">4,1</text>
	</g>
	<g transform="translate(368,365)">
		<text transform="matrix(1 0 0 1 0 -1.464844e-05)" class="st23 st5 st9">min</text>
	</g>
	<g transform="translate(415,383)">
		<text transform="matrix(1 0 0 1 0 -1.464844e-05)" class="st23 st5 st8"> = v</text>
	</g>
	<g transform="translate(476,401)">
		<text transform="matrix(1 0 0 1 0 -1.464844e-05)" class="st23 st5 st9">4,1</text>
	</g>
	<g transform="translate(476,365)">
		<text transform="matrix(1 0 0 1 0 -1.464844e-05)" class="st23 st5 st9">min</text>
	</g>
	<g transform="translate(362,296)">
		<text transform="matrix(1 0 0 1 0 -1.464844e-05)" class="st5 st8">T</text>
	</g>
	<g transform="translate(385,314)">
		<text transform="matrix(1 0 0 1 0 -1.464844e-05)" class="st5 st9">4,1</text>
	</g>
	<g transform="translate(366,458)">
		<text transform="matrix(1 0 0 1 0 -1.464844e-05)" class="st5 st8">T</text>
	</g>
	<g transform="translate(389,476)">
		<text transform="matrix(1 0 0 1 0 -1.464844e-05)" class="st5 st9">4,2</text>
	</g>
	<g>
		<line class="st24" x1="482.9" y1="323.8" x2="546" y2="323.9"/>
	</g>
	<g transform="translate(539,412)">
		<text transform="matrix(1 0 0 1 0 -1.464844e-05)" class="st21 st5 st8">q</text>
	</g>
	<g transform="translate(560,430)">
		<text transform="matrix(1 0 0 1 0 -1.464844e-05)" class="st21 st5 st9">t,4</text>
	</g>
	<g transform="translate(560,394)">
		<text transform="matrix(1 0 0 1 0 -1.464844e-05)" class="st21 st5 st9">max</text>
	</g>
	<g transform="translate(615,412)">
		<text transform="matrix(1 0 0 1 0 -1.464844e-05)" class="st21 st5 st8"> = b</text>
	</g>
	<g>
		<line class="st20" x1="616.5" y1="371.7" x2="653.9" y2="334.5"/>
		<path class="st20" d="M647.1,334.3l13-5.8l-6.2,6.1L647.1,334.3"/>
		<path class="st20" d="M660,328.4l-5.9,12.9l-0.2-6.8L660,328.4"/>
	</g>
	<g>
		<path class="st21" d="M647.1,334.3l13-5.8l-6.2,6.1L647.1,334.3z"/>
		<path class="st21" d="M660,328.4l-5.9,12.9l-0.2-6.8L660,328.4z"/>
	</g>
	<g transform="translate(492,293)">
		<text transform="matrix(1 0 0 1 0 -1.464844e-05)" class="st23 st5 st8">u</text>
	</g>
	<g transform="translate(513,311)">
		<text transform="matrix(1 0 0 1 0 -1.464844e-05)" class="st23 st5 st9">4,1</text>
	</g>
	<g transform="translate(513,275)">
		<text transform="matrix(1 0 0 1 0 -1.464844e-05)" class="st23 st5 st9">max</text>
	</g>
	<g transform="translate(568,293)">
		<text transform="matrix(1 0 0 1 0 -1.464844e-05)" class="st23 st5 st8"> =</text>
	</g>
	<g transform="translate(492,366)">
		<text transform="matrix(1 0 0 1 0 -1.464844e-05)" class="st23 st5 st8">v</text>
	</g>
	<g transform="translate(511,384)">
		<text transform="matrix(1 0 0 1 0 -1.464844e-05)" class="st23 st5 st9">4,1</text>
	</g>
	<g transform="translate(511,348)">
		<text transform="matrix(1 0 0 1 0 -1.464844e-05)" class="st23 st5 st9">max</text>
	</g>
	<g>
		<line class="st22" x1="569.2" y1="287.1" x2="552.2" y2="312.7"/>
		<path class="st22" d="M559,311.6l-11.5,8.4l4.8-7.2L559,311.6"/>
		<path class="st22" d="M547.4,319.9l3.2-13.9l1.6,6.7L547.4,319.9"/>
	</g>
	<g>
		<path class="st23" d="M559,311.6l-11.5,8.4l4.8-7.2L559,311.6z"/>
		<path class="st23" d="M547.4,319.9l3.2-13.9l1.6,6.7L547.4,319.9z"/>
	</g>
</g>
</svg>
