<?xml version="1.0" encoding="utf-8"?>
<!-- Generator: Adobe Illustrator 21.1.0, SVG Export Plug-In . SVG Version: 6.00 Build 0)  -->
<svg version="1.1" id="Layer_1" xmlns="http://www.w3.org/2000/svg" xmlns:xlink="http://www.w3.org/1999/xlink" x="0px" y="0px"
	 viewBox="0 0 735 555" style="enable-background:new 0 0 735 555;" xml:space="preserve">
<style type="text/css">
	.st0{clip-path:url(#SVGID_2_);fill:#FFFFFF;}
	.st1{fill:#FFFFFF;}
	.st2{fill:none;stroke:#262626;stroke-width:0.6667;stroke-linejoin:round;stroke-miterlimit:10;}
	.st3{fill:none;stroke:#262626;stroke-width:0.6667;stroke-linecap:square;stroke-linejoin:round;stroke-miterlimit:10;}
	.st4{fill:#262626;}
	.st5{font-family:'MyriadPro-Regular';}
	.st6{font-size:35px;}
	.st7{font-size:38px;}
	.st8{font-size:37px;}
	.st9{font-size:29px;}
	.st10{fill:none;stroke:#FF0000;stroke-width:0.6667;stroke-linejoin:round;stroke-miterlimit:10;}
	.st11{fill:none;stroke:#FF0000;stroke-width:0.6667;stroke-linecap:round;stroke-linejoin:round;stroke-miterlimit:10;}
	.st12{fill:none;stroke:#FF0000;stroke-width:1.6;stroke-linejoin:round;stroke-miterlimit:10;}
	.st13{fill:none;stroke:#FF0000;stroke-width:1.6;stroke-linecap:round;stroke-linejoin:round;stroke-miterlimit:10;}
	.st14{fill:none;stroke:#FF0000;stroke-width:2.6667;stroke-linejoin:round;stroke-miterlimit:10;}
	.st15{fill:none;stroke:#FF0000;stroke-width:2.6667;stroke-linecap:round;stroke-linejoin:round;stroke-miterlimit:10;}
	.st16{fill:none;stroke:#0000FF;stroke-width:2.6667;stroke-linejoin:round;stroke-miterlimit:10;}
	.st17{fill:none;stroke:#0000FF;stroke-width:2.6667;stroke-linecap:round;stroke-linejoin:round;stroke-miterlimit:10;}
	.st18{fill:none;stroke:#FF00FF;stroke-width:2.6667;stroke-linejoin:round;stroke-miterlimit:10;}
	.st19{fill:none;stroke:#FF00FF;stroke-width:2.6667;stroke-linecap:round;stroke-linejoin:round;stroke-miterlimit:10;}
	.st20{fill:none;stroke:#000000;stroke-width:1.3333;stroke-linejoin:round;stroke-miterlimit:10;}
	.st21{fill:none;stroke:#000000;stroke-width:1.3333;stroke-linejoin:bevel;stroke-miterlimit:1;stroke-dasharray:10,6;}
	.st22{fill:#FF00FF;}
	.st23{fill:none;stroke:#FF00FF;stroke-width:1.3333;stroke-linejoin:round;stroke-miterlimit:10;}
	.st24{fill:none;stroke:#FF00FF;stroke-width:0.6667;stroke-linejoin:round;stroke-miterlimit:10;}
	.st25{fill:#0000FF;}
	.st26{fill:none;stroke:#0000FF;stroke-width:1.3333;stroke-linejoin:round;stroke-miterlimit:10;}
	.st27{fill:none;stroke:#0000FF;stroke-width:0.6667;stroke-linejoin:round;stroke-miterlimit:10;}
</style>
<g>
	<g>
		<g>
			<defs>
				<rect id="SVGID_1_" y="0" width="735" height="555"/>
			</defs>
			<clipPath id="SVGID_2_">
				<use xlink:href="#SVGID_1_"  style="overflow:visible;"/>
			</clipPath>
			<rect y="0" class="st0" width="735" height="555"/>
		</g>
	</g>
	<g>
		<rect y="0" class="st1" width="735" height="555"/>
		<path class="st1" d="M94,491h569V41H94V491z"/>
	</g>
	<g>
		<line class="st2" x1="94" y1="491" x2="663" y2="491"/>
		<line class="st3" x1="211.1" y1="491" x2="211.1" y2="485.3"/>
		<line class="st3" x1="378.5" y1="491" x2="378.5" y2="485.3"/>
		<line class="st3" x1="545.9" y1="491" x2="545.9" y2="485.3"/>
	</g>
	<g transform="translate(211.1471,500.6)">
		<text transform="matrix(1 0 0 1 -25.5 36)" class="st4 st5 st6">-10</text>
	</g>
	<g transform="translate(378.5,500.6)">
		<text transform="matrix(1 0 0 1 -10 36)" class="st4 st5 st6">0</text>
	</g>
	<g transform="translate(545.853,500.6)">
		<text transform="matrix(1 0 0 1 -19.5 36)" class="st4 st5 st6">10</text>
	</g>
	<g transform="translate(379.8236,526.3377)">
		<text transform="matrix(1 0 0 1 -11 39)" class="st4 st5 st7">q</text>
	</g>
	<g>
		<line class="st2" x1="94" y1="491" x2="94" y2="41"/>
		<line class="st3" x1="94" y1="491" x2="99.7" y2="491"/>
		<line class="st3" x1="94" y1="378.5" x2="99.7" y2="378.5"/>
		<line class="st3" x1="94" y1="266" x2="99.7" y2="266"/>
		<line class="st3" x1="94" y1="153.5" x2="99.7" y2="153.5"/>
		<line class="st3" x1="94" y1="41" x2="99.7" y2="41"/>
	</g>
	<g transform="translate(84.4,491)">
		<text transform="matrix(1 0 0 1 -32 14)" class="st4 st5 st6">-1</text>
	</g>
	<g transform="translate(84.4,378.5)">
		<text transform="matrix(1 0 0 1 -61 14)" class="st4 st5 st6">-0.5</text>
	</g>
	<g transform="translate(84.4,266)">
		<text transform="matrix(1 0 0 1 -20 14)" class="st4 st5 st6">0</text>
	</g>
	<g transform="translate(84.4,153.5)">
		<text transform="matrix(1 0 0 1 -49 14)" class="st4 st5 st6">0.5</text>
	</g>
	<g transform="translate(84.4,41)">
		<text transform="matrix(1 0 0 1 -20 14)" class="st4 st5 st6">1</text>
	</g>
	<g transform="translate(60.9914,272.5648) rotate(-90)">
		<text transform="matrix(1 0 0 1 -11 -9)" class="st4 st5 st7">p</text>
	</g>
	<g transform="translate(360,5)">
		<text transform="matrix(1 0 0 1 0 -1.464844e-05)" class="st5 st8">T</text>
	</g>
	<g transform="translate(383,23)">
		<text transform="matrix(1 0 0 1 0 -1.464844e-05)" class="st5 st9">4</text>
	</g>
	<g>
		<line class="st10" x1="94" y1="41" x2="105.4" y2="41"/>
		<line class="st11" x1="105.4" y1="41" x2="116.8" y2="41"/>
		<line class="st11" x1="116.8" y1="41" x2="128.1" y2="41"/>
		<line class="st11" x1="128.1" y1="41" x2="139.5" y2="41"/>
		<line class="st11" x1="139.5" y1="41" x2="150.9" y2="41"/>
		<line class="st11" x1="150.9" y1="41" x2="162.3" y2="41"/>
		<line class="st11" x1="162.3" y1="41" x2="173.7" y2="41"/>
		<line class="st11" x1="173.7" y1="41" x2="185" y2="41"/>
		<line class="st11" x1="185" y1="41" x2="196.4" y2="41"/>
		<line class="st11" x1="196.4" y1="41" x2="207.8" y2="41"/>
		<line class="st11" x1="207.8" y1="41" x2="219.2" y2="41"/>
		<line class="st11" x1="219.2" y1="41" x2="230.6" y2="41"/>
		<line class="st11" x1="230.6" y1="41" x2="241.9" y2="41"/>
		<line class="st11" x1="241.9" y1="41" x2="253.3" y2="41"/>
		<line class="st11" x1="253.3" y1="41" x2="264.7" y2="41"/>
		<line class="st11" x1="264.7" y1="41" x2="276.1" y2="41"/>
		<line class="st11" x1="276.1" y1="41" x2="287.5" y2="41"/>
		<line class="st11" x1="287.5" y1="41" x2="298.8" y2="41"/>
		<line class="st11" x1="298.8" y1="41" x2="310.2" y2="41"/>
		<line class="st11" x1="310.2" y1="41" x2="321.6" y2="41"/>
		<line class="st11" x1="321.6" y1="41" x2="333" y2="41"/>
		<line class="st11" x1="333" y1="41" x2="344.4" y2="41"/>
		<line class="st11" x1="344.4" y1="41" x2="355.7" y2="41"/>
		<line class="st11" x1="355.7" y1="41" x2="367.1" y2="41"/>
		<line class="st11" x1="367.1" y1="41" x2="378.5" y2="41"/>
		<line class="st11" x1="378.5" y1="41" x2="389.9" y2="41"/>
		<line class="st11" x1="389.9" y1="41" x2="401.3" y2="41"/>
		<line class="st11" x1="401.3" y1="41" x2="412.6" y2="41"/>
		<line class="st11" x1="412.6" y1="41" x2="424" y2="41"/>
		<line class="st11" x1="424" y1="41" x2="435.4" y2="41"/>
		<line class="st11" x1="435.4" y1="41" x2="446.8" y2="41"/>
		<line class="st11" x1="446.8" y1="41" x2="458.2" y2="41"/>
		<line class="st11" x1="458.2" y1="41" x2="469.5" y2="41"/>
		<line class="st11" x1="469.5" y1="41" x2="480.9" y2="41"/>
		<line class="st11" x1="480.9" y1="41" x2="492.3" y2="41"/>
		<line class="st11" x1="492.3" y1="41" x2="503.7" y2="41"/>
		<line class="st11" x1="503.7" y1="41" x2="515.1" y2="41"/>
		<line class="st11" x1="515.1" y1="41" x2="526.4" y2="41"/>
		<line class="st11" x1="526.4" y1="41" x2="537.8" y2="41"/>
		<line class="st11" x1="537.8" y1="41" x2="549.2" y2="41"/>
		<line class="st11" x1="549.2" y1="41" x2="560.6" y2="41"/>
		<line class="st11" x1="560.6" y1="41" x2="572" y2="41"/>
		<line class="st11" x1="572" y1="41" x2="583.3" y2="41"/>
		<line class="st11" x1="583.3" y1="41" x2="594.7" y2="41"/>
		<line class="st11" x1="594.7" y1="41" x2="606.1" y2="41"/>
		<line class="st11" x1="606.1" y1="41" x2="617.5" y2="41"/>
		<line class="st11" x1="617.5" y1="41" x2="628.9" y2="41"/>
		<line class="st11" x1="628.9" y1="41" x2="640.2" y2="41"/>
		<line class="st10" x1="640.2" y1="41" x2="651.6" y2="41"/>
		<line class="st10" x1="663" y1="345" x2="663" y2="266"/>
		<line class="st12" x1="105.4" y1="172.3" x2="105.4" y2="172.3"/>
		<line class="st13" x1="105.4" y1="172.3" x2="116.8" y2="175.2"/>
		<line class="st13" x1="116.8" y1="175.2" x2="128.1" y2="178.2"/>
		<line class="st13" x1="128.1" y1="178.2" x2="139.5" y2="181.2"/>
		<line class="st13" x1="139.5" y1="181.2" x2="150.9" y2="184.2"/>
		<line class="st13" x1="150.9" y1="184.2" x2="162.3" y2="187.4"/>
		<line class="st13" x1="162.3" y1="187.4" x2="173.7" y2="190.5"/>
		<line class="st13" x1="173.7" y1="190.5" x2="185" y2="193.8"/>
		<line class="st13" x1="185" y1="193.8" x2="196.4" y2="197"/>
		<line class="st13" x1="196.4" y1="197" x2="207.8" y2="200.4"/>
		<line class="st13" x1="207.8" y1="200.4" x2="219.2" y2="203.7"/>
		<line class="st13" x1="219.2" y1="203.7" x2="230.6" y2="207.1"/>
		<line class="st13" x1="230.6" y1="207.1" x2="241.9" y2="210.6"/>
		<line class="st13" x1="241.9" y1="210.6" x2="253.3" y2="214.1"/>
		<line class="st13" x1="253.3" y1="214.1" x2="264.7" y2="217.7"/>
		<line class="st13" x1="264.7" y1="217.7" x2="276.1" y2="221.2"/>
		<line class="st13" x1="276.1" y1="221.2" x2="287.5" y2="224.9"/>
		<line class="st13" x1="287.5" y1="224.9" x2="298.8" y2="228.5"/>
		<line class="st13" x1="298.8" y1="228.5" x2="310.2" y2="232.2"/>
		<line class="st13" x1="310.2" y1="232.2" x2="321.6" y2="235.9"/>
		<line class="st13" x1="321.6" y1="235.9" x2="333" y2="239.6"/>
		<line class="st13" x1="333" y1="239.6" x2="344.4" y2="243.4"/>
		<line class="st13" x1="344.4" y1="243.4" x2="355.7" y2="247.2"/>
		<line class="st13" x1="355.7" y1="247.2" x2="367.1" y2="251"/>
		<line class="st13" x1="367.1" y1="251" x2="378.5" y2="254.8"/>
		<line class="st13" x1="378.5" y1="254.8" x2="389.9" y2="258.6"/>
		<line class="st13" x1="389.9" y1="258.6" x2="401.3" y2="262.4"/>
		<line class="st13" x1="401.3" y1="262.4" x2="412.6" y2="266.2"/>
		<line class="st13" x1="412.6" y1="266.2" x2="424" y2="270"/>
		<line class="st13" x1="424" y1="270" x2="435.4" y2="273.9"/>
		<line class="st13" x1="435.4" y1="273.9" x2="446.8" y2="277.7"/>
		<line class="st13" x1="446.8" y1="277.7" x2="458.2" y2="281.5"/>
		<line class="st13" x1="458.2" y1="281.5" x2="469.5" y2="285.3"/>
		<line class="st13" x1="469.5" y1="285.3" x2="480.9" y2="289.1"/>
		<line class="st13" x1="480.9" y1="289.1" x2="492.3" y2="292.8"/>
		<line class="st13" x1="492.3" y1="292.8" x2="503.7" y2="296.5"/>
		<line class="st13" x1="503.7" y1="296.5" x2="515.1" y2="300.2"/>
		<line class="st13" x1="515.1" y1="300.2" x2="526.4" y2="303.9"/>
		<line class="st13" x1="526.4" y1="303.9" x2="537.8" y2="307.6"/>
		<line class="st13" x1="537.8" y1="307.6" x2="549.2" y2="311.2"/>
		<line class="st13" x1="549.2" y1="311.2" x2="560.6" y2="314.8"/>
		<line class="st13" x1="560.6" y1="314.8" x2="572" y2="318.3"/>
		<line class="st13" x1="572" y1="318.3" x2="583.3" y2="321.8"/>
		<line class="st13" x1="583.3" y1="321.8" x2="594.7" y2="325.3"/>
		<line class="st13" x1="594.7" y1="325.3" x2="606.1" y2="328.7"/>
		<line class="st13" x1="606.1" y1="328.7" x2="617.5" y2="332"/>
		<line class="st13" x1="617.5" y1="332" x2="628.9" y2="335.4"/>
		<line class="st13" x1="628.9" y1="335.4" x2="640.2" y2="338.6"/>
		<line class="st13" x1="640.2" y1="338.6" x2="651.6" y2="341.8"/>
		<line class="st12" x1="651.6" y1="341.8" x2="663" y2="345"/>
		<line class="st12" x1="94" y1="169.5" x2="94" y2="41"/>
		<line class="st14" x1="663" y1="345" x2="663" y2="41"/>
		<line class="st14" x1="94" y1="187" x2="105.4" y2="190.2"/>
		<line class="st15" x1="105.4" y1="190.2" x2="116.8" y2="193.4"/>
		<line class="st15" x1="116.8" y1="193.4" x2="128.1" y2="196.6"/>
		<line class="st15" x1="128.1" y1="196.6" x2="139.5" y2="200"/>
		<line class="st15" x1="139.5" y1="200" x2="150.9" y2="203.3"/>
		<line class="st15" x1="150.9" y1="203.3" x2="162.3" y2="206.7"/>
		<line class="st15" x1="162.3" y1="206.7" x2="173.7" y2="210.2"/>
		<line class="st15" x1="173.7" y1="210.2" x2="185" y2="213.7"/>
		<line class="st15" x1="185" y1="213.7" x2="196.4" y2="217.2"/>
		<line class="st15" x1="196.4" y1="217.2" x2="207.8" y2="220.8"/>
		<line class="st15" x1="207.8" y1="220.8" x2="219.2" y2="224.4"/>
		<line class="st15" x1="219.2" y1="224.4" x2="230.6" y2="228.1"/>
		<line class="st15" x1="230.6" y1="228.1" x2="241.9" y2="231.8"/>
		<line class="st15" x1="241.9" y1="231.8" x2="253.3" y2="235.5"/>
		<line class="st15" x1="253.3" y1="235.5" x2="264.7" y2="239.2"/>
		<line class="st15" x1="264.7" y1="239.2" x2="276.1" y2="242.9"/>
		<line class="st15" x1="276.1" y1="242.9" x2="287.5" y2="246.7"/>
		<line class="st15" x1="287.5" y1="246.7" x2="298.8" y2="250.5"/>
		<line class="st15" x1="298.8" y1="250.5" x2="310.2" y2="254.3"/>
		<line class="st15" x1="310.2" y1="254.3" x2="321.6" y2="258.1"/>
		<line class="st15" x1="321.6" y1="258.1" x2="333" y2="262"/>
		<line class="st15" x1="333" y1="262" x2="344.4" y2="265.8"/>
		<line class="st15" x1="344.4" y1="265.8" x2="355.7" y2="269.6"/>
		<line class="st15" x1="355.7" y1="269.6" x2="367.1" y2="273.4"/>
		<line class="st15" x1="367.1" y1="273.4" x2="378.5" y2="277.2"/>
		<line class="st15" x1="378.5" y1="277.2" x2="389.9" y2="281"/>
		<line class="st15" x1="389.9" y1="281" x2="401.3" y2="284.8"/>
		<line class="st15" x1="401.3" y1="284.8" x2="412.6" y2="288.6"/>
		<line class="st15" x1="412.6" y1="288.6" x2="424" y2="292.4"/>
		<line class="st15" x1="424" y1="292.4" x2="435.4" y2="296.1"/>
		<line class="st15" x1="435.4" y1="296.1" x2="446.8" y2="299.8"/>
		<line class="st15" x1="446.8" y1="299.8" x2="458.2" y2="303.5"/>
		<line class="st15" x1="458.2" y1="303.5" x2="469.5" y2="307.1"/>
		<line class="st15" x1="469.5" y1="307.1" x2="480.9" y2="310.8"/>
		<line class="st15" x1="480.9" y1="310.8" x2="492.3" y2="314.3"/>
		<line class="st15" x1="492.3" y1="314.3" x2="503.7" y2="317.9"/>
		<line class="st15" x1="503.7" y1="317.9" x2="515.1" y2="321.4"/>
		<line class="st15" x1="515.1" y1="321.4" x2="526.4" y2="324.9"/>
		<line class="st15" x1="526.4" y1="324.9" x2="537.8" y2="328.3"/>
		<line class="st15" x1="537.8" y1="328.3" x2="549.2" y2="331.6"/>
		<line class="st15" x1="549.2" y1="331.6" x2="560.6" y2="335"/>
		<line class="st15" x1="560.6" y1="335" x2="572" y2="338.2"/>
		<line class="st15" x1="572" y1="338.2" x2="583.3" y2="341.5"/>
		<line class="st15" x1="583.3" y1="341.5" x2="594.7" y2="344.6"/>
		<line class="st15" x1="594.7" y1="344.6" x2="606.1" y2="347.8"/>
		<line class="st15" x1="606.1" y1="347.8" x2="617.5" y2="350.8"/>
		<line class="st15" x1="617.5" y1="350.8" x2="628.9" y2="353.8"/>
		<line class="st15" x1="628.9" y1="353.8" x2="640.2" y2="356.8"/>
		<line class="st14" x1="640.2" y1="356.8" x2="651.6" y2="359.7"/>
		<line class="st12" x1="663" y1="491" x2="663" y2="362.5"/>
		<line class="st10" x1="105.4" y1="491" x2="105.4" y2="491"/>
		<line class="st11" x1="105.4" y1="491" x2="116.8" y2="491"/>
		<line class="st11" x1="116.8" y1="491" x2="128.1" y2="491"/>
		<line class="st11" x1="128.1" y1="491" x2="139.5" y2="491"/>
		<line class="st11" x1="139.5" y1="491" x2="150.9" y2="491"/>
		<line class="st11" x1="150.9" y1="491" x2="162.3" y2="491"/>
		<line class="st11" x1="162.3" y1="491" x2="173.7" y2="491"/>
		<line class="st11" x1="173.7" y1="491" x2="185" y2="491"/>
		<line class="st11" x1="185" y1="491" x2="196.4" y2="491"/>
		<line class="st11" x1="196.4" y1="491" x2="207.8" y2="491"/>
		<line class="st11" x1="207.8" y1="491" x2="219.2" y2="491"/>
		<line class="st11" x1="219.2" y1="491" x2="230.6" y2="491"/>
		<line class="st11" x1="230.6" y1="491" x2="241.9" y2="491"/>
		<line class="st11" x1="241.9" y1="491" x2="253.3" y2="491"/>
		<line class="st11" x1="253.3" y1="491" x2="264.7" y2="491"/>
		<line class="st11" x1="264.7" y1="491" x2="276.1" y2="491"/>
		<line class="st11" x1="276.1" y1="491" x2="287.5" y2="491"/>
		<line class="st11" x1="287.5" y1="491" x2="298.8" y2="491"/>
		<line class="st11" x1="298.8" y1="491" x2="310.2" y2="491"/>
		<line class="st11" x1="310.2" y1="491" x2="321.6" y2="491"/>
		<line class="st11" x1="321.6" y1="491" x2="333" y2="491"/>
		<line class="st11" x1="333" y1="491" x2="344.4" y2="491"/>
		<line class="st11" x1="344.4" y1="491" x2="355.7" y2="491"/>
		<line class="st11" x1="355.7" y1="491" x2="367.1" y2="491"/>
		<line class="st11" x1="367.1" y1="491" x2="378.5" y2="491"/>
		<line class="st11" x1="378.5" y1="491" x2="389.9" y2="491"/>
		<line class="st11" x1="389.9" y1="491" x2="401.3" y2="491"/>
		<line class="st11" x1="401.3" y1="491" x2="412.6" y2="491"/>
		<line class="st11" x1="412.6" y1="491" x2="424" y2="491"/>
		<line class="st11" x1="424" y1="491" x2="435.4" y2="491"/>
		<line class="st11" x1="435.4" y1="491" x2="446.8" y2="491"/>
		<line class="st11" x1="446.8" y1="491" x2="458.2" y2="491"/>
		<line class="st11" x1="458.2" y1="491" x2="469.5" y2="491"/>
		<line class="st11" x1="469.5" y1="491" x2="480.9" y2="491"/>
		<line class="st11" x1="480.9" y1="491" x2="492.3" y2="491"/>
		<line class="st11" x1="492.3" y1="491" x2="503.7" y2="491"/>
		<line class="st11" x1="503.7" y1="491" x2="515.1" y2="491"/>
		<line class="st11" x1="515.1" y1="491" x2="526.4" y2="491"/>
		<line class="st11" x1="526.4" y1="491" x2="537.8" y2="491"/>
		<line class="st11" x1="537.8" y1="491" x2="549.2" y2="491"/>
		<line class="st11" x1="549.2" y1="491" x2="560.6" y2="491"/>
		<line class="st11" x1="560.6" y1="491" x2="572" y2="491"/>
		<line class="st11" x1="572" y1="491" x2="583.3" y2="491"/>
		<line class="st11" x1="583.3" y1="491" x2="594.7" y2="491"/>
		<line class="st11" x1="594.7" y1="491" x2="606.1" y2="491"/>
		<line class="st11" x1="606.1" y1="491" x2="617.5" y2="491"/>
		<line class="st11" x1="617.5" y1="491" x2="628.9" y2="491"/>
		<line class="st11" x1="628.9" y1="491" x2="640.2" y2="491"/>
		<line class="st11" x1="640.2" y1="491" x2="651.6" y2="491"/>
		<line class="st10" x1="651.6" y1="491" x2="663" y2="491"/>
		<line class="st10" x1="94" y1="266" x2="94" y2="187"/>
		<line class="st14" x1="94" y1="187" x2="94" y2="491"/>
		<line class="st14" x1="94" y1="169.5" x2="105.4" y2="172.3"/>
		<line class="st15" x1="105.4" y1="172.3" x2="116.8" y2="175.2"/>
		<line class="st15" x1="116.8" y1="175.2" x2="128.1" y2="178.2"/>
		<line class="st15" x1="128.1" y1="178.2" x2="139.5" y2="181.2"/>
		<line class="st15" x1="139.5" y1="181.2" x2="150.9" y2="184.2"/>
		<line class="st15" x1="150.9" y1="184.2" x2="162.3" y2="187.4"/>
		<line class="st15" x1="162.3" y1="187.4" x2="173.7" y2="190.5"/>
		<line class="st15" x1="173.7" y1="190.5" x2="185" y2="193.8"/>
		<line class="st15" x1="185" y1="193.8" x2="196.4" y2="197"/>
		<line class="st15" x1="196.4" y1="197" x2="207.8" y2="200.4"/>
		<line class="st15" x1="207.8" y1="200.4" x2="219.2" y2="203.7"/>
		<line class="st15" x1="219.2" y1="203.7" x2="230.6" y2="207.1"/>
		<line class="st15" x1="230.6" y1="207.1" x2="241.9" y2="210.6"/>
		<line class="st15" x1="241.9" y1="210.6" x2="253.3" y2="214.1"/>
		<line class="st15" x1="253.3" y1="214.1" x2="264.7" y2="217.7"/>
		<line class="st15" x1="264.7" y1="217.7" x2="276.1" y2="221.2"/>
		<line class="st15" x1="276.1" y1="221.2" x2="287.5" y2="224.9"/>
		<line class="st15" x1="287.5" y1="224.9" x2="298.8" y2="228.5"/>
		<line class="st15" x1="298.8" y1="228.5" x2="310.2" y2="232.2"/>
		<line class="st15" x1="310.2" y1="232.2" x2="321.6" y2="235.9"/>
		<line class="st15" x1="321.6" y1="235.9" x2="333" y2="239.6"/>
		<line class="st15" x1="333" y1="239.6" x2="344.4" y2="243.4"/>
		<line class="st15" x1="344.4" y1="243.4" x2="355.7" y2="247.2"/>
		<line class="st15" x1="355.7" y1="247.2" x2="367.1" y2="251"/>
		<line class="st15" x1="367.1" y1="251" x2="378.5" y2="254.8"/>
		<line class="st15" x1="378.5" y1="254.8" x2="389.9" y2="258.6"/>
		<line class="st15" x1="389.9" y1="258.6" x2="401.3" y2="262.4"/>
		<line class="st15" x1="401.3" y1="262.4" x2="412.6" y2="266.2"/>
		<line class="st15" x1="412.6" y1="266.2" x2="424" y2="270"/>
		<line class="st15" x1="424" y1="270" x2="435.4" y2="273.9"/>
		<line class="st15" x1="435.4" y1="273.9" x2="446.8" y2="277.7"/>
		<line class="st15" x1="446.8" y1="277.7" x2="458.2" y2="281.5"/>
		<line class="st15" x1="458.2" y1="281.5" x2="469.5" y2="285.3"/>
		<line class="st15" x1="469.5" y1="285.3" x2="480.9" y2="289.1"/>
		<line class="st15" x1="480.9" y1="289.1" x2="492.3" y2="292.8"/>
		<line class="st15" x1="492.3" y1="292.8" x2="503.7" y2="296.5"/>
		<line class="st15" x1="503.7" y1="296.5" x2="515.1" y2="300.2"/>
		<line class="st15" x1="515.1" y1="300.2" x2="526.4" y2="303.9"/>
		<line class="st15" x1="526.4" y1="303.9" x2="537.8" y2="307.6"/>
		<line class="st15" x1="537.8" y1="307.6" x2="549.2" y2="311.2"/>
		<line class="st15" x1="549.2" y1="311.2" x2="560.6" y2="314.8"/>
		<line class="st15" x1="560.6" y1="314.8" x2="572" y2="318.3"/>
		<line class="st15" x1="572" y1="318.3" x2="583.3" y2="321.8"/>
		<line class="st15" x1="583.3" y1="321.8" x2="594.7" y2="325.3"/>
		<line class="st15" x1="594.7" y1="325.3" x2="606.1" y2="328.7"/>
		<line class="st15" x1="606.1" y1="328.7" x2="617.5" y2="332"/>
		<line class="st15" x1="617.5" y1="332" x2="628.9" y2="335.4"/>
		<line class="st15" x1="628.9" y1="335.4" x2="640.2" y2="338.6"/>
		<line class="st14" x1="640.2" y1="338.6" x2="651.6" y2="341.8"/>
		<line class="st12" x1="663" y1="362.5" x2="663" y2="345"/>
		<line class="st12" x1="105.4" y1="190.2" x2="105.4" y2="190.2"/>
		<line class="st13" x1="105.4" y1="190.2" x2="116.8" y2="193.4"/>
		<line class="st13" x1="116.8" y1="193.4" x2="128.1" y2="196.6"/>
		<line class="st13" x1="128.1" y1="196.6" x2="139.5" y2="200"/>
		<line class="st13" x1="139.5" y1="200" x2="150.9" y2="203.3"/>
		<line class="st13" x1="150.9" y1="203.3" x2="162.3" y2="206.7"/>
		<line class="st13" x1="162.3" y1="206.7" x2="173.7" y2="210.2"/>
		<line class="st13" x1="173.7" y1="210.2" x2="185" y2="213.7"/>
		<line class="st13" x1="185" y1="213.7" x2="196.4" y2="217.2"/>
		<line class="st13" x1="196.4" y1="217.2" x2="207.8" y2="220.8"/>
		<line class="st13" x1="207.8" y1="220.8" x2="219.2" y2="224.4"/>
		<line class="st13" x1="219.2" y1="224.4" x2="230.6" y2="228.1"/>
		<line class="st13" x1="230.6" y1="228.1" x2="241.9" y2="231.8"/>
		<line class="st13" x1="241.9" y1="231.8" x2="253.3" y2="235.5"/>
		<line class="st13" x1="253.3" y1="235.5" x2="264.7" y2="239.2"/>
		<line class="st13" x1="264.7" y1="239.2" x2="276.1" y2="242.9"/>
		<line class="st13" x1="276.1" y1="242.9" x2="287.5" y2="246.7"/>
		<line class="st13" x1="287.5" y1="246.7" x2="298.8" y2="250.5"/>
		<line class="st13" x1="298.8" y1="250.5" x2="310.2" y2="254.3"/>
		<line class="st13" x1="310.2" y1="254.3" x2="321.6" y2="258.1"/>
		<line class="st13" x1="321.6" y1="258.1" x2="333" y2="262"/>
		<line class="st13" x1="333" y1="262" x2="344.4" y2="265.8"/>
		<line class="st13" x1="344.4" y1="265.8" x2="355.7" y2="269.6"/>
		<line class="st13" x1="355.7" y1="269.6" x2="367.1" y2="273.4"/>
		<line class="st13" x1="367.1" y1="273.4" x2="378.5" y2="277.2"/>
		<line class="st13" x1="378.5" y1="277.2" x2="389.9" y2="281"/>
		<line class="st13" x1="389.9" y1="281" x2="401.3" y2="284.8"/>
		<line class="st13" x1="401.3" y1="284.8" x2="412.6" y2="288.6"/>
		<line class="st13" x1="412.6" y1="288.6" x2="424" y2="292.4"/>
		<line class="st13" x1="424" y1="292.4" x2="435.4" y2="296.1"/>
		<line class="st13" x1="435.4" y1="296.1" x2="446.8" y2="299.8"/>
		<line class="st13" x1="446.8" y1="299.8" x2="458.2" y2="303.5"/>
		<line class="st13" x1="458.2" y1="303.5" x2="469.5" y2="307.1"/>
		<line class="st13" x1="469.5" y1="307.1" x2="480.9" y2="310.8"/>
		<line class="st13" x1="480.9" y1="310.8" x2="492.3" y2="314.3"/>
		<line class="st13" x1="492.3" y1="314.3" x2="503.7" y2="317.9"/>
		<line class="st13" x1="503.7" y1="317.9" x2="515.1" y2="321.4"/>
		<line class="st13" x1="515.1" y1="321.4" x2="526.4" y2="324.9"/>
		<line class="st13" x1="526.4" y1="324.9" x2="537.8" y2="328.3"/>
		<line class="st13" x1="537.8" y1="328.3" x2="549.2" y2="331.6"/>
		<line class="st13" x1="549.2" y1="331.6" x2="560.6" y2="335"/>
		<line class="st13" x1="560.6" y1="335" x2="572" y2="338.2"/>
		<line class="st13" x1="572" y1="338.2" x2="583.3" y2="341.5"/>
		<line class="st13" x1="583.3" y1="341.5" x2="594.7" y2="344.6"/>
		<line class="st13" x1="594.7" y1="344.6" x2="606.1" y2="347.8"/>
		<line class="st13" x1="606.1" y1="347.8" x2="617.5" y2="350.8"/>
		<line class="st13" x1="617.5" y1="350.8" x2="628.9" y2="353.8"/>
		<line class="st13" x1="628.9" y1="353.8" x2="640.2" y2="356.8"/>
		<line class="st13" x1="640.2" y1="356.8" x2="651.6" y2="359.7"/>
		<line class="st12" x1="651.6" y1="359.7" x2="663" y2="362.5"/>
		<line class="st12" x1="94" y1="187" x2="94" y2="169.5"/>
		<line class="st14" x1="94" y1="491" x2="663" y2="491"/>
		<line class="st12" x1="94" y1="41" x2="663" y2="41"/>
		<line class="st16" x1="98.5" y1="311.5" x2="97.7" y2="309.1"/>
	</g>
	<g>
		<line class="st17" x1="97.7" y1="309.1" x2="95.7" y2="307.7"/>
		<line class="st17" x1="95.7" y1="307.7" x2="93.3" y2="307.7"/>
		<line class="st17" x1="93.3" y1="307.7" x2="91.3" y2="309.1"/>
		<line class="st17" x1="91.3" y1="309.1" x2="90.5" y2="311.5"/>
		<line class="st17" x1="90.5" y1="311.5" x2="91.3" y2="313.9"/>
		<line class="st17" x1="91.3" y1="313.9" x2="93.3" y2="315.3"/>
		<line class="st17" x1="93.3" y1="315.3" x2="95.7" y2="315.3"/>
		<line class="st17" x1="95.7" y1="315.3" x2="97.7" y2="313.9"/>
		<line class="st16" x1="97.7" y1="313.9" x2="98.5" y2="311.5"/>
		<line class="st16" x1="667.5" y1="311.5" x2="666.7" y2="309.1"/>
		<line class="st17" x1="666.7" y1="309.1" x2="664.7" y2="307.7"/>
		<line class="st17" x1="664.7" y1="307.7" x2="662.3" y2="307.7"/>
		<line class="st17" x1="662.3" y1="307.7" x2="660.3" y2="309.1"/>
		<line class="st17" x1="660.3" y1="309.1" x2="659.5" y2="311.5"/>
		<line class="st17" x1="659.5" y1="311.5" x2="660.3" y2="313.9"/>
		<line class="st17" x1="660.3" y1="313.9" x2="662.3" y2="315.3"/>
		<line class="st17" x1="662.3" y1="315.3" x2="664.7" y2="315.3"/>
		<line class="st17" x1="664.7" y1="315.3" x2="666.7" y2="313.9"/>
		<line class="st16" x1="666.7" y1="313.9" x2="667.5" y2="311.5"/>
		<line class="st18" x1="90" y1="311.5" x2="99" y2="311.5"/>
		<line class="st19" x1="94.5" y1="316" x2="94.5" y2="307"/>
		<line class="st19" x1="91" y1="315" x2="98" y2="308"/>
		<line class="st18" x1="91" y1="308" x2="98" y2="315"/>
		<line class="st18" x1="477" y1="311.5" x2="486" y2="311.5"/>
		<line class="st19" x1="481.5" y1="316" x2="481.5" y2="307"/>
		<line class="st19" x1="478" y1="315" x2="485" y2="308"/>
		<line class="st18" x1="478" y1="308" x2="485" y2="315"/>
	</g>
	<g transform="translate(360,142)">
		<text transform="matrix(1 0 0 1 0 -1.464844e-05)" class="st5 st8">T</text>
	</g>
	<g transform="translate(383,160)">
		<text transform="matrix(1 0 0 1 0 -1.464844e-05)" class="st5 st9">4,3</text>
	</g>
	<g transform="translate(375,442)">
		<text transform="matrix(1 0 0 1 0 -1.464844e-05)" class="st5 st8">T</text>
	</g>
	<g transform="translate(398,460)">
		<text transform="matrix(1 0 0 1 0 -1.464844e-05)" class="st5 st9">4,2</text>
	</g>
	<g>
		<line class="st20" x1="96.6" y1="314.5" x2="480.4" y2="314.5"/>
		<line class="st21" x1="485.8" y1="314.5" x2="659.7" y2="314.5"/>
	</g>
	<g transform="translate(364,281)">
		<text transform="matrix(1 0 0 1 0 -1.464844e-05)" class="st5 st8">T</text>
	</g>
	<g transform="translate(387,299)">
		<text transform="matrix(1 0 0 1 0 -1.464844e-05)" class="st5 st9">4, 1</text>
	</g>
	<g transform="translate(466,220)">
		<text transform="matrix(1 0 0 1 0 -1.464844e-05)" class="st22 st5 st8">u</text>
	</g>
	<g transform="translate(487,238)">
		<text transform="matrix(1 0 0 1 0 -1.464844e-05)" class="st22 st5 st9">4,2</text>
	</g>
	<g transform="translate(487,202)">
		<text transform="matrix(1 0 0 1 0 -1.464844e-05)" class="st22 st5 st9">max</text>
	</g>
	<g transform="translate(542,220)">
		<text transform="matrix(1 0 0 1 0 -1.464844e-05)" class="st22 st5 st8"> = v</text>
	</g>
	<g transform="translate(603,238)">
		<text transform="matrix(1 0 0 1 0 -1.464844e-05)" class="st22 st5 st9">4,2</text>
	</g>
	<g transform="translate(603,202)">
		<text transform="matrix(1 0 0 1 0 -1.464844e-05)" class="st22 st5 st9">max</text>
	</g>
	<g>
		<line class="st23" x1="561" y1="224" x2="490.9" y2="298.7"/>
		<path class="st24" d="M497.8,298.7L485,305l5.9-6.3L497.8,298.7"/>
		<path class="st24" d="M485,305l5.5-13.1l0.5,6.8L485,305"/>
	</g>
	<g>
		<path class="st22" d="M497.8,298.7L485,305l5.9-6.3L497.8,298.7z"/>
		<path class="st22" d="M485,305l5.5-13.1l0.5,6.8L485,305z"/>
	</g>
	<g transform="translate(553,429)">
		<text transform="matrix(1 0 0 1 0 -1.464844e-05)" class="st25 st5 st8">q</text>
	</g>
	<g transform="translate(574,447)">
		<text transform="matrix(1 0 0 1 0 -1.464844e-05)" class="st25 st5 st9">t,4</text>
	</g>
	<g transform="translate(574,411)">
		<text transform="matrix(1 0 0 1 0 -1.464844e-05)" class="st25 st5 st9">max</text>
	</g>
	<g>
		<line class="st26" x1="559.5" y1="395" x2="649.1" y2="326.3"/>
		<path class="st27" d="M642.4,325.1L656,321l-6.9,5.3L642.4,325.1"/>
		<path class="st27" d="M656,321l-7.5,12.1l0.7-6.8L656,321"/>
	</g>
	<g>
		<path class="st25" d="M642.4,325.1L656,321l-6.9,5.3L642.4,325.1z"/>
		<path class="st25" d="M656,321l-7.5,12.1l0.7-6.8L656,321z"/>
	</g>
	<g transform="translate(135,253)">
		<text transform="matrix(1 0 0 1 0 -1.464844e-05)" class="st25 st5 st8">q</text>
	</g>
	<g transform="translate(156,271)">
		<text transform="matrix(1 0 0 1 0 -1.464844e-05)" class="st25 st5 st9">t,4</text>
	</g>
	<g transform="translate(156,235)">
		<text transform="matrix(1 0 0 1 0 -1.464844e-05)" class="st25 st5 st9">min</text>
	</g>
	<g transform="translate(114,439)">
		<text transform="matrix(1 0 0 1 0 -1.464844e-05)" class="st22 st5 st8">u</text>
	</g>
	<g transform="translate(135,457)">
		<text transform="matrix(1 0 0 1 0 -1.464844e-05)" class="st22 st5 st9">4,2</text>
	</g>
	<g transform="translate(135,421)">
		<text transform="matrix(1 0 0 1 0 -1.464844e-05)" class="st22 st5 st9">min</text>
	</g>
	<g transform="translate(182,439)">
		<text transform="matrix(1 0 0 1 0 -1.464844e-05)" class="st22 st5 st8"> = v</text>
	</g>
	<g transform="translate(243,457)">
		<text transform="matrix(1 0 0 1 0 -1.464844e-05)" class="st22 st5 st9">4,2</text>
	</g>
	<g transform="translate(243,421)">
		<text transform="matrix(1 0 0 1 0 -1.464844e-05)" class="st22 st5 st9">min</text>
	</g>
	<g>
		<line class="st23" x1="200" y1="414" x2="105.2" y2="322.7"/>
		<path class="st24" d="M105.1,329.6L99,316.7l6.2,6L105.1,329.6"/>
		<path class="st24" d="M99,316.7l13.1,5.6l-6.8,0.4L99,316.7"/>
	</g>
	<g>
		<path class="st22" d="M105.1,329.6L99,316.7l6.2,6L105.1,329.6z"/>
		<path class="st22" d="M99,316.7l13.1,5.6l-6.8,0.4L99,316.7z"/>
	</g>
	<g>
		<line class="st26" x1="138.3" y1="265.4" x2="102.4" y2="298.2"/>
		<path class="st27" d="M109.2,298.7L96,304l6.4-5.8L109.2,298.7"/>
		<path class="st27" d="M96,304l6.5-12.7l-0.1,6.8L96,304"/>
	</g>
	<g>
		<path class="st25" d="M109.2,298.7L96,304l6.4-5.8L109.2,298.7z"/>
		<path class="st25" d="M96,304l6.5-12.7l-0.1,6.8L96,304z"/>
	</g>
</g>
</svg>
