<?xml version="1.0" encoding="utf-8"?>
<!-- Generator: Adobe Illustrator 21.1.0, SVG Export Plug-In . SVG Version: 6.00 Build 0)  -->
<svg version="1.1" id="Layer_1" xmlns="http://www.w3.org/2000/svg" xmlns:xlink="http://www.w3.org/1999/xlink" x="0px" y="0px"
	 viewBox="0 0 731 577" style="enable-background:new 0 0 731 577;" xml:space="preserve">
<style type="text/css">
	.st0{clip-path:url(#SVGID_2_);fill:#FFFFFF;}
	.st1{fill:#FFFFFF;}
	.st2{fill:none;stroke:#262626;stroke-width:0.6667;stroke-linejoin:round;stroke-miterlimit:10;}
	.st3{fill:none;stroke:#262626;stroke-width:0.6667;stroke-linecap:square;stroke-linejoin:round;stroke-miterlimit:10;}
	.st4{fill:#262626;}
	.st5{font-family:'MyriadPro-Regular';}
	.st6{font-size:35px;}
	.st7{font-size:38px;}
	.st8{font-size:37px;}
	.st9{font-size:29px;}
	.st10{fill:none;stroke:#FF0000;stroke-width:0.6667;stroke-linejoin:round;stroke-miterlimit:10;}
	.st11{fill:none;stroke:#FF0000;stroke-width:0.6667;stroke-linecap:round;stroke-linejoin:round;stroke-miterlimit:10;}
	.st12{fill:none;stroke:#FF0000;stroke-width:1.6;stroke-linejoin:round;stroke-miterlimit:10;}
	.st13{fill:none;stroke:#FF0000;stroke-width:1.6;stroke-linecap:round;stroke-linejoin:round;stroke-miterlimit:10;}
	.st14{fill:none;stroke:#FF0000;stroke-width:2.6667;stroke-linejoin:round;stroke-miterlimit:10;}
	.st15{fill:none;stroke:#FF0000;stroke-width:2.6667;stroke-linecap:round;stroke-linejoin:round;stroke-miterlimit:10;}
	.st16{fill:none;stroke:#0000FF;stroke-width:2.6667;stroke-linejoin:round;stroke-miterlimit:10;}
	.st17{fill:none;stroke:#0000FF;stroke-width:2.6667;stroke-linecap:round;stroke-linejoin:round;stroke-miterlimit:10;}
	.st18{fill:none;stroke:#FF00FF;stroke-width:2.6667;stroke-linejoin:round;stroke-miterlimit:10;}
	.st19{fill:none;stroke:#FF00FF;stroke-width:2.6667;stroke-linecap:round;stroke-linejoin:round;stroke-miterlimit:10;}
	.st20{fill:none;stroke:#000000;stroke-width:1.3333;stroke-linejoin:round;stroke-miterlimit:10;}
	.st21{fill:none;stroke:#000000;stroke-width:1.3333;stroke-linejoin:bevel;stroke-miterlimit:1;stroke-dasharray:10,6;}
	.st22{fill:none;stroke:#0000FF;stroke-width:0.6667;stroke-linejoin:round;stroke-miterlimit:10;}
	.st23{fill:#0000FF;}
	.st24{fill:none;stroke:#FF00FF;stroke-width:0.6667;stroke-linejoin:round;stroke-miterlimit:10;}
	.st25{fill:#FF00FF;}
</style>
<g>
	<g>
		<g>
			<defs>
				<rect id="SVGID_1_" y="0" width="731" height="577"/>
			</defs>
			<clipPath id="SVGID_2_">
				<use xlink:href="#SVGID_1_"  style="overflow:visible;"/>
			</clipPath>
			<rect y="0" class="st0" width="731" height="577"/>
		</g>
	</g>
	<g>
		<rect y="0" class="st1" width="731" height="577"/>
		<path class="st1" d="M93,510h567V50H93V510z"/>
	</g>
	<g>
		<line class="st2" x1="93" y1="510" x2="660" y2="510"/>
		<line class="st3" x1="209.7" y1="510" x2="209.7" y2="504.3"/>
		<line class="st3" x1="376.5" y1="510" x2="376.5" y2="504.3"/>
		<line class="st3" x1="543.3" y1="510" x2="543.3" y2="504.3"/>
	</g>
	<g transform="translate(209.7353,519.6)">
		<text transform="matrix(1 0 0 1 -25.5 36)" class="st4 st5 st6">-10</text>
	</g>
	<g transform="translate(376.5,519.6)">
		<text transform="matrix(1 0 0 1 -10 36)" class="st4 st5 st6">0</text>
	</g>
	<g transform="translate(543.2647,519.6)">
		<text transform="matrix(1 0 0 1 -19.5 36)" class="st4 st5 st6">10</text>
	</g>
	<g transform="translate(380.8084,542.0967)">
		<text transform="matrix(1 0 0 1 -11 39)" class="st4 st5 st7">q</text>
	</g>
	<g>
		<line class="st2" x1="93" y1="510" x2="93" y2="50"/>
		<line class="st3" x1="93" y1="510" x2="98.7" y2="510"/>
		<line class="st3" x1="93" y1="395" x2="98.7" y2="395"/>
		<line class="st3" x1="93" y1="280" x2="98.7" y2="280"/>
		<line class="st3" x1="93" y1="165" x2="98.7" y2="165"/>
		<line class="st3" x1="93" y1="50" x2="98.7" y2="50"/>
	</g>
	<g transform="translate(83.4,510)">
		<text transform="matrix(1 0 0 1 -32 14)" class="st4 st5 st6">-1</text>
	</g>
	<g transform="translate(83.4,395)">
		<text transform="matrix(1 0 0 1 -61 14)" class="st4 st5 st6">-0.5</text>
	</g>
	<g transform="translate(83.4,280)">
		<text transform="matrix(1 0 0 1 -20 14)" class="st4 st5 st6">0</text>
	</g>
	<g transform="translate(83.4,165)">
		<text transform="matrix(1 0 0 1 -49 14)" class="st4 st5 st6">0.5</text>
	</g>
	<g transform="translate(83.4,50)">
		<text transform="matrix(1 0 0 1 -20 14)" class="st4 st5 st6">1</text>
	</g>
	<g transform="translate(60.1074,286.7107) rotate(-90)">
		<text transform="matrix(1 0 0 1 -10.9996 -9)" class="st4 st5 st7">p</text>
	</g>
	<g transform="translate(358,14)">
		<text transform="matrix(1 0 0 1 0 -1.464844e-05)" class="st5 st8">T</text>
	</g>
	<g transform="translate(381,32)">
		<text transform="matrix(1 0 0 1 0 -1.464844e-05)" class="st5 st9">4</text>
	</g>
	<g>
		<line class="st10" x1="93" y1="50" x2="104.3" y2="50"/>
		<line class="st11" x1="104.3" y1="50" x2="115.7" y2="50"/>
		<line class="st11" x1="115.7" y1="50" x2="127" y2="50"/>
		<line class="st11" x1="127" y1="50" x2="138.4" y2="50"/>
		<line class="st11" x1="138.4" y1="50" x2="149.7" y2="50"/>
		<line class="st11" x1="149.7" y1="50" x2="161" y2="50"/>
		<line class="st11" x1="161" y1="50" x2="172.4" y2="50"/>
		<line class="st11" x1="172.4" y1="50" x2="183.7" y2="50"/>
		<line class="st11" x1="183.7" y1="50" x2="195.1" y2="50"/>
		<line class="st11" x1="195.1" y1="50" x2="206.4" y2="50"/>
		<line class="st11" x1="206.4" y1="50" x2="217.7" y2="50"/>
		<line class="st11" x1="217.7" y1="50" x2="229.1" y2="50"/>
		<line class="st11" x1="229.1" y1="50" x2="240.4" y2="50"/>
		<line class="st11" x1="240.4" y1="50" x2="251.8" y2="50"/>
		<line class="st11" x1="251.8" y1="50" x2="263.1" y2="50"/>
		<line class="st11" x1="263.1" y1="50" x2="274.4" y2="50"/>
		<line class="st11" x1="274.4" y1="50" x2="285.8" y2="50"/>
		<line class="st11" x1="285.8" y1="50" x2="297.1" y2="50"/>
		<line class="st11" x1="297.1" y1="50" x2="308.5" y2="50"/>
		<line class="st11" x1="308.5" y1="50" x2="319.8" y2="50"/>
		<line class="st11" x1="319.8" y1="50" x2="331.1" y2="50"/>
		<line class="st11" x1="331.1" y1="50" x2="342.5" y2="50"/>
		<line class="st11" x1="342.5" y1="50" x2="353.8" y2="50"/>
		<line class="st11" x1="353.8" y1="50" x2="365.2" y2="50"/>
		<line class="st11" x1="365.2" y1="50" x2="376.5" y2="50"/>
		<line class="st11" x1="376.5" y1="50" x2="387.8" y2="50"/>
		<line class="st11" x1="387.8" y1="50" x2="399.2" y2="50"/>
		<line class="st11" x1="399.2" y1="50" x2="410.5" y2="50"/>
		<line class="st11" x1="410.5" y1="50" x2="421.9" y2="50"/>
		<line class="st11" x1="421.9" y1="50" x2="433.2" y2="50"/>
		<line class="st11" x1="433.2" y1="50" x2="444.5" y2="50"/>
		<line class="st11" x1="444.5" y1="50" x2="455.9" y2="50"/>
		<line class="st11" x1="455.9" y1="50" x2="467.2" y2="50"/>
		<line class="st11" x1="467.2" y1="50" x2="478.6" y2="50"/>
		<line class="st11" x1="478.6" y1="50" x2="489.9" y2="50"/>
		<line class="st11" x1="489.9" y1="50" x2="501.2" y2="50"/>
		<line class="st11" x1="501.2" y1="50" x2="512.6" y2="50"/>
		<line class="st11" x1="512.6" y1="50" x2="523.9" y2="50"/>
		<line class="st11" x1="523.9" y1="50" x2="535.3" y2="50"/>
		<line class="st11" x1="535.3" y1="50" x2="546.6" y2="50"/>
		<line class="st11" x1="546.6" y1="50" x2="557.9" y2="50"/>
		<line class="st11" x1="557.9" y1="50" x2="569.3" y2="50"/>
		<line class="st11" x1="569.3" y1="50" x2="580.6" y2="50"/>
		<line class="st11" x1="580.6" y1="50" x2="592" y2="50"/>
		<line class="st11" x1="592" y1="50" x2="603.3" y2="50"/>
		<line class="st11" x1="603.3" y1="50" x2="614.6" y2="50"/>
		<line class="st11" x1="614.6" y1="50" x2="626" y2="50"/>
		<line class="st11" x1="626" y1="50" x2="637.3" y2="50"/>
		<line class="st10" x1="637.3" y1="50" x2="648.7" y2="50"/>
		<line class="st10" x1="660" y1="360.8" x2="660" y2="280"/>
		<line class="st12" x1="104.3" y1="184.2" x2="104.3" y2="184.2"/>
		<line class="st13" x1="104.3" y1="184.2" x2="115.7" y2="187.2"/>
		<line class="st13" x1="115.7" y1="187.2" x2="127" y2="190.2"/>
		<line class="st13" x1="127" y1="190.2" x2="138.4" y2="193.3"/>
		<line class="st13" x1="138.4" y1="193.3" x2="149.7" y2="196.4"/>
		<line class="st13" x1="149.7" y1="196.4" x2="161" y2="199.6"/>
		<line class="st13" x1="161" y1="199.6" x2="172.4" y2="202.9"/>
		<line class="st13" x1="172.4" y1="202.9" x2="183.7" y2="206.2"/>
		<line class="st13" x1="183.7" y1="206.2" x2="195.1" y2="209.5"/>
		<line class="st13" x1="195.1" y1="209.5" x2="206.4" y2="212.9"/>
		<line class="st13" x1="206.4" y1="212.9" x2="217.7" y2="216.3"/>
		<line class="st13" x1="217.7" y1="216.3" x2="229.1" y2="219.8"/>
		<line class="st13" x1="229.1" y1="219.8" x2="240.4" y2="223.4"/>
		<line class="st13" x1="240.4" y1="223.4" x2="251.8" y2="227"/>
		<line class="st13" x1="251.8" y1="227" x2="263.1" y2="230.6"/>
		<line class="st13" x1="263.1" y1="230.6" x2="274.4" y2="234.2"/>
		<line class="st13" x1="274.4" y1="234.2" x2="285.8" y2="237.9"/>
		<line class="st13" x1="285.8" y1="237.9" x2="297.1" y2="241.7"/>
		<line class="st13" x1="297.1" y1="241.7" x2="308.5" y2="245.4"/>
		<line class="st13" x1="308.5" y1="245.4" x2="319.8" y2="249.2"/>
		<line class="st13" x1="319.8" y1="249.2" x2="331.1" y2="253"/>
		<line class="st13" x1="331.1" y1="253" x2="342.5" y2="256.9"/>
		<line class="st13" x1="342.5" y1="256.9" x2="353.8" y2="260.7"/>
		<line class="st13" x1="353.8" y1="260.7" x2="365.2" y2="264.6"/>
		<line class="st13" x1="365.2" y1="264.6" x2="376.5" y2="268.5"/>
		<line class="st13" x1="376.5" y1="268.5" x2="387.8" y2="272.4"/>
		<line class="st13" x1="387.8" y1="272.4" x2="399.2" y2="276.3"/>
		<line class="st13" x1="399.2" y1="276.3" x2="410.5" y2="280.2"/>
		<line class="st13" x1="410.5" y1="280.2" x2="421.9" y2="284.1"/>
		<line class="st13" x1="421.9" y1="284.1" x2="433.2" y2="288"/>
		<line class="st13" x1="433.2" y1="288" x2="444.5" y2="291.9"/>
		<line class="st13" x1="444.5" y1="291.9" x2="455.9" y2="295.8"/>
		<line class="st13" x1="455.9" y1="295.8" x2="467.2" y2="299.7"/>
		<line class="st13" x1="467.2" y1="299.7" x2="478.6" y2="303.6"/>
		<line class="st13" x1="478.6" y1="303.6" x2="489.9" y2="307.4"/>
		<line class="st13" x1="489.9" y1="307.4" x2="501.2" y2="311.2"/>
		<line class="st13" x1="501.2" y1="311.2" x2="512.6" y2="315"/>
		<line class="st13" x1="512.6" y1="315" x2="523.9" y2="318.8"/>
		<line class="st13" x1="523.9" y1="318.8" x2="535.3" y2="322.5"/>
		<line class="st13" x1="535.3" y1="322.5" x2="546.6" y2="326.2"/>
		<line class="st13" x1="546.6" y1="326.2" x2="557.9" y2="329.8"/>
		<line class="st13" x1="557.9" y1="329.8" x2="569.3" y2="333.5"/>
		<line class="st13" x1="569.3" y1="333.5" x2="580.6" y2="337"/>
		<line class="st13" x1="580.6" y1="337" x2="592" y2="340.6"/>
		<line class="st13" x1="592" y1="340.6" x2="603.3" y2="344.1"/>
		<line class="st13" x1="603.3" y1="344.1" x2="614.6" y2="347.5"/>
		<line class="st13" x1="614.6" y1="347.5" x2="626" y2="350.9"/>
		<line class="st13" x1="626" y1="350.9" x2="637.3" y2="354.2"/>
		<line class="st13" x1="637.3" y1="354.2" x2="648.7" y2="357.5"/>
		<line class="st12" x1="648.7" y1="357.5" x2="660" y2="360.8"/>
		<line class="st12" x1="93" y1="181.3" x2="93" y2="50"/>
		<line class="st14" x1="660" y1="360.8" x2="660" y2="50"/>
		<line class="st14" x1="93" y1="199.2" x2="104.3" y2="202.5"/>
		<line class="st15" x1="104.3" y1="202.5" x2="115.7" y2="205.8"/>
		<line class="st15" x1="115.7" y1="205.8" x2="127" y2="209.1"/>
		<line class="st15" x1="127" y1="209.1" x2="138.4" y2="212.5"/>
		<line class="st15" x1="138.4" y1="212.5" x2="149.7" y2="215.9"/>
		<line class="st15" x1="149.7" y1="215.9" x2="161" y2="219.4"/>
		<line class="st15" x1="161" y1="219.4" x2="172.4" y2="223"/>
		<line class="st15" x1="172.4" y1="223" x2="183.7" y2="226.5"/>
		<line class="st15" x1="183.7" y1="226.5" x2="195.1" y2="230.2"/>
		<line class="st15" x1="195.1" y1="230.2" x2="206.4" y2="233.8"/>
		<line class="st15" x1="206.4" y1="233.8" x2="217.7" y2="237.5"/>
		<line class="st15" x1="217.7" y1="237.5" x2="229.1" y2="241.2"/>
		<line class="st15" x1="229.1" y1="241.2" x2="240.4" y2="245"/>
		<line class="st15" x1="240.4" y1="245" x2="251.8" y2="248.8"/>
		<line class="st15" x1="251.8" y1="248.8" x2="263.1" y2="252.6"/>
		<line class="st15" x1="263.1" y1="252.6" x2="274.4" y2="256.4"/>
		<line class="st15" x1="274.4" y1="256.4" x2="285.8" y2="260.3"/>
		<line class="st15" x1="285.8" y1="260.3" x2="297.1" y2="264.2"/>
		<line class="st15" x1="297.1" y1="264.2" x2="308.5" y2="268.1"/>
		<line class="st15" x1="308.5" y1="268.1" x2="319.8" y2="272"/>
		<line class="st15" x1="319.8" y1="272" x2="331.1" y2="275.9"/>
		<line class="st15" x1="331.1" y1="275.9" x2="342.5" y2="279.8"/>
		<line class="st15" x1="342.5" y1="279.8" x2="353.8" y2="283.7"/>
		<line class="st15" x1="353.8" y1="283.7" x2="365.2" y2="287.6"/>
		<line class="st15" x1="365.2" y1="287.6" x2="376.5" y2="291.5"/>
		<line class="st15" x1="376.5" y1="291.5" x2="387.8" y2="295.4"/>
		<line class="st15" x1="387.8" y1="295.4" x2="399.2" y2="299.3"/>
		<line class="st15" x1="399.2" y1="299.3" x2="410.5" y2="303.1"/>
		<line class="st15" x1="410.5" y1="303.1" x2="421.9" y2="307"/>
		<line class="st15" x1="421.9" y1="307" x2="433.2" y2="310.8"/>
		<line class="st15" x1="433.2" y1="310.8" x2="444.5" y2="314.6"/>
		<line class="st15" x1="444.5" y1="314.6" x2="455.9" y2="318.3"/>
		<line class="st15" x1="455.9" y1="318.3" x2="467.2" y2="322.1"/>
		<line class="st15" x1="467.2" y1="322.1" x2="478.6" y2="325.8"/>
		<line class="st15" x1="478.6" y1="325.8" x2="489.9" y2="329.4"/>
		<line class="st15" x1="489.9" y1="329.4" x2="501.2" y2="333"/>
		<line class="st15" x1="501.2" y1="333" x2="512.6" y2="336.6"/>
		<line class="st15" x1="512.6" y1="336.6" x2="523.9" y2="340.2"/>
		<line class="st15" x1="523.9" y1="340.2" x2="535.3" y2="343.7"/>
		<line class="st15" x1="535.3" y1="343.7" x2="546.6" y2="347.1"/>
		<line class="st15" x1="546.6" y1="347.1" x2="557.9" y2="350.5"/>
		<line class="st15" x1="557.9" y1="350.5" x2="569.3" y2="353.8"/>
		<line class="st15" x1="569.3" y1="353.8" x2="580.6" y2="357.1"/>
		<line class="st15" x1="580.6" y1="357.1" x2="592" y2="360.4"/>
		<line class="st15" x1="592" y1="360.4" x2="603.3" y2="363.6"/>
		<line class="st15" x1="603.3" y1="363.6" x2="614.6" y2="366.7"/>
		<line class="st15" x1="614.6" y1="366.7" x2="626" y2="369.8"/>
		<line class="st15" x1="626" y1="369.8" x2="637.3" y2="372.8"/>
		<line class="st14" x1="637.3" y1="372.8" x2="648.7" y2="375.8"/>
		<line class="st12" x1="660" y1="510" x2="660" y2="378.7"/>
		<line class="st10" x1="104.3" y1="510" x2="104.3" y2="510"/>
		<line class="st11" x1="104.3" y1="510" x2="115.7" y2="510"/>
		<line class="st11" x1="115.7" y1="510" x2="127" y2="510"/>
		<line class="st11" x1="127" y1="510" x2="138.4" y2="510"/>
		<line class="st11" x1="138.4" y1="510" x2="149.7" y2="510"/>
		<line class="st11" x1="149.7" y1="510" x2="161" y2="510"/>
		<line class="st11" x1="161" y1="510" x2="172.4" y2="510"/>
		<line class="st11" x1="172.4" y1="510" x2="183.7" y2="510"/>
		<line class="st11" x1="183.7" y1="510" x2="195.1" y2="510"/>
		<line class="st11" x1="195.1" y1="510" x2="206.4" y2="510"/>
		<line class="st11" x1="206.4" y1="510" x2="217.7" y2="510"/>
		<line class="st11" x1="217.7" y1="510" x2="229.1" y2="510"/>
		<line class="st11" x1="229.1" y1="510" x2="240.4" y2="510"/>
		<line class="st11" x1="240.4" y1="510" x2="251.8" y2="510"/>
		<line class="st11" x1="251.8" y1="510" x2="263.1" y2="510"/>
		<line class="st11" x1="263.1" y1="510" x2="274.4" y2="510"/>
		<line class="st11" x1="274.4" y1="510" x2="285.8" y2="510"/>
		<line class="st11" x1="285.8" y1="510" x2="297.1" y2="510"/>
		<line class="st11" x1="297.1" y1="510" x2="308.5" y2="510"/>
		<line class="st11" x1="308.5" y1="510" x2="319.8" y2="510"/>
		<line class="st11" x1="319.8" y1="510" x2="331.1" y2="510"/>
		<line class="st11" x1="331.1" y1="510" x2="342.5" y2="510"/>
		<line class="st11" x1="342.5" y1="510" x2="353.8" y2="510"/>
		<line class="st11" x1="353.8" y1="510" x2="365.2" y2="510"/>
		<line class="st11" x1="365.2" y1="510" x2="376.5" y2="510"/>
		<line class="st11" x1="376.5" y1="510" x2="387.8" y2="510"/>
		<line class="st11" x1="387.8" y1="510" x2="399.2" y2="510"/>
		<line class="st11" x1="399.2" y1="510" x2="410.5" y2="510"/>
		<line class="st11" x1="410.5" y1="510" x2="421.9" y2="510"/>
		<line class="st11" x1="421.9" y1="510" x2="433.2" y2="510"/>
		<line class="st11" x1="433.2" y1="510" x2="444.5" y2="510"/>
		<line class="st11" x1="444.5" y1="510" x2="455.9" y2="510"/>
		<line class="st11" x1="455.9" y1="510" x2="467.2" y2="510"/>
		<line class="st11" x1="467.2" y1="510" x2="478.6" y2="510"/>
		<line class="st11" x1="478.6" y1="510" x2="489.9" y2="510"/>
		<line class="st11" x1="489.9" y1="510" x2="501.2" y2="510"/>
		<line class="st11" x1="501.2" y1="510" x2="512.6" y2="510"/>
		<line class="st11" x1="512.6" y1="510" x2="523.9" y2="510"/>
		<line class="st11" x1="523.9" y1="510" x2="535.3" y2="510"/>
		<line class="st11" x1="535.3" y1="510" x2="546.6" y2="510"/>
		<line class="st11" x1="546.6" y1="510" x2="557.9" y2="510"/>
		<line class="st11" x1="557.9" y1="510" x2="569.3" y2="510"/>
		<line class="st11" x1="569.3" y1="510" x2="580.6" y2="510"/>
		<line class="st11" x1="580.6" y1="510" x2="592" y2="510"/>
		<line class="st11" x1="592" y1="510" x2="603.3" y2="510"/>
		<line class="st11" x1="603.3" y1="510" x2="614.6" y2="510"/>
		<line class="st11" x1="614.6" y1="510" x2="626" y2="510"/>
		<line class="st11" x1="626" y1="510" x2="637.3" y2="510"/>
		<line class="st11" x1="637.3" y1="510" x2="648.7" y2="510"/>
		<line class="st10" x1="648.7" y1="510" x2="660" y2="510"/>
		<line class="st10" x1="93" y1="280" x2="93" y2="199.2"/>
		<line class="st14" x1="93" y1="199.2" x2="93" y2="510"/>
		<line class="st14" x1="93" y1="181.3" x2="104.3" y2="184.2"/>
		<line class="st15" x1="104.3" y1="184.2" x2="115.7" y2="187.2"/>
		<line class="st15" x1="115.7" y1="187.2" x2="127" y2="190.2"/>
		<line class="st15" x1="127" y1="190.2" x2="138.4" y2="193.3"/>
		<line class="st15" x1="138.4" y1="193.3" x2="149.7" y2="196.4"/>
		<line class="st15" x1="149.7" y1="196.4" x2="161" y2="199.6"/>
		<line class="st15" x1="161" y1="199.6" x2="172.4" y2="202.9"/>
		<line class="st15" x1="172.4" y1="202.9" x2="183.7" y2="206.2"/>
		<line class="st15" x1="183.7" y1="206.2" x2="195.1" y2="209.5"/>
		<line class="st15" x1="195.1" y1="209.5" x2="206.4" y2="212.9"/>
		<line class="st15" x1="206.4" y1="212.9" x2="217.7" y2="216.3"/>
		<line class="st15" x1="217.7" y1="216.3" x2="229.1" y2="219.8"/>
		<line class="st15" x1="229.1" y1="219.8" x2="240.4" y2="223.4"/>
		<line class="st15" x1="240.4" y1="223.4" x2="251.8" y2="227"/>
		<line class="st15" x1="251.8" y1="227" x2="263.1" y2="230.6"/>
		<line class="st15" x1="263.1" y1="230.6" x2="274.4" y2="234.2"/>
		<line class="st15" x1="274.4" y1="234.2" x2="285.8" y2="237.9"/>
		<line class="st15" x1="285.8" y1="237.9" x2="297.1" y2="241.7"/>
		<line class="st15" x1="297.1" y1="241.7" x2="308.5" y2="245.4"/>
		<line class="st15" x1="308.5" y1="245.4" x2="319.8" y2="249.2"/>
		<line class="st15" x1="319.8" y1="249.2" x2="331.1" y2="253"/>
		<line class="st15" x1="331.1" y1="253" x2="342.5" y2="256.9"/>
		<line class="st15" x1="342.5" y1="256.9" x2="353.8" y2="260.7"/>
		<line class="st15" x1="353.8" y1="260.7" x2="365.2" y2="264.6"/>
		<line class="st15" x1="365.2" y1="264.6" x2="376.5" y2="268.5"/>
		<line class="st15" x1="376.5" y1="268.5" x2="387.8" y2="272.4"/>
		<line class="st15" x1="387.8" y1="272.4" x2="399.2" y2="276.3"/>
		<line class="st15" x1="399.2" y1="276.3" x2="410.5" y2="280.2"/>
		<line class="st15" x1="410.5" y1="280.2" x2="421.9" y2="284.1"/>
		<line class="st15" x1="421.9" y1="284.1" x2="433.2" y2="288"/>
		<line class="st15" x1="433.2" y1="288" x2="444.5" y2="291.9"/>
		<line class="st15" x1="444.5" y1="291.9" x2="455.9" y2="295.8"/>
		<line class="st15" x1="455.9" y1="295.8" x2="467.2" y2="299.7"/>
		<line class="st15" x1="467.2" y1="299.7" x2="478.6" y2="303.6"/>
		<line class="st15" x1="478.6" y1="303.6" x2="489.9" y2="307.4"/>
		<line class="st15" x1="489.9" y1="307.4" x2="501.2" y2="311.2"/>
		<line class="st15" x1="501.2" y1="311.2" x2="512.6" y2="315"/>
		<line class="st15" x1="512.6" y1="315" x2="523.9" y2="318.8"/>
		<line class="st15" x1="523.9" y1="318.8" x2="535.3" y2="322.5"/>
		<line class="st15" x1="535.3" y1="322.5" x2="546.6" y2="326.2"/>
		<line class="st15" x1="546.6" y1="326.2" x2="557.9" y2="329.8"/>
		<line class="st15" x1="557.9" y1="329.8" x2="569.3" y2="333.5"/>
		<line class="st15" x1="569.3" y1="333.5" x2="580.6" y2="337"/>
		<line class="st15" x1="580.6" y1="337" x2="592" y2="340.6"/>
		<line class="st15" x1="592" y1="340.6" x2="603.3" y2="344.1"/>
		<line class="st15" x1="603.3" y1="344.1" x2="614.6" y2="347.5"/>
		<line class="st15" x1="614.6" y1="347.5" x2="626" y2="350.9"/>
		<line class="st15" x1="626" y1="350.9" x2="637.3" y2="354.2"/>
		<line class="st14" x1="637.3" y1="354.2" x2="648.7" y2="357.5"/>
		<line class="st12" x1="660" y1="378.7" x2="660" y2="360.8"/>
		<line class="st12" x1="104.3" y1="202.5" x2="104.3" y2="202.5"/>
		<line class="st13" x1="104.3" y1="202.5" x2="115.7" y2="205.8"/>
		<line class="st13" x1="115.7" y1="205.8" x2="127" y2="209.1"/>
		<line class="st13" x1="127" y1="209.1" x2="138.4" y2="212.5"/>
		<line class="st13" x1="138.4" y1="212.5" x2="149.7" y2="215.9"/>
		<line class="st13" x1="149.7" y1="215.9" x2="161" y2="219.4"/>
		<line class="st13" x1="161" y1="219.4" x2="172.4" y2="223"/>
		<line class="st13" x1="172.4" y1="223" x2="183.7" y2="226.5"/>
		<line class="st13" x1="183.7" y1="226.5" x2="195.1" y2="230.2"/>
		<line class="st13" x1="195.1" y1="230.2" x2="206.4" y2="233.8"/>
		<line class="st13" x1="206.4" y1="233.8" x2="217.7" y2="237.5"/>
		<line class="st13" x1="217.7" y1="237.5" x2="229.1" y2="241.2"/>
		<line class="st13" x1="229.1" y1="241.2" x2="240.4" y2="245"/>
		<line class="st13" x1="240.4" y1="245" x2="251.8" y2="248.8"/>
		<line class="st13" x1="251.8" y1="248.8" x2="263.1" y2="252.6"/>
		<line class="st13" x1="263.1" y1="252.6" x2="274.4" y2="256.4"/>
		<line class="st13" x1="274.4" y1="256.4" x2="285.8" y2="260.3"/>
		<line class="st13" x1="285.8" y1="260.3" x2="297.1" y2="264.2"/>
		<line class="st13" x1="297.1" y1="264.2" x2="308.5" y2="268.1"/>
		<line class="st13" x1="308.5" y1="268.1" x2="319.8" y2="272"/>
		<line class="st13" x1="319.8" y1="272" x2="331.1" y2="275.9"/>
		<line class="st13" x1="331.1" y1="275.9" x2="342.5" y2="279.8"/>
		<line class="st13" x1="342.5" y1="279.8" x2="353.8" y2="283.7"/>
		<line class="st13" x1="353.8" y1="283.7" x2="365.2" y2="287.6"/>
		<line class="st13" x1="365.2" y1="287.6" x2="376.5" y2="291.5"/>
		<line class="st13" x1="376.5" y1="291.5" x2="387.8" y2="295.4"/>
		<line class="st13" x1="387.8" y1="295.4" x2="399.2" y2="299.3"/>
		<line class="st13" x1="399.2" y1="299.3" x2="410.5" y2="303.1"/>
		<line class="st13" x1="410.5" y1="303.1" x2="421.9" y2="307"/>
		<line class="st13" x1="421.9" y1="307" x2="433.2" y2="310.8"/>
		<line class="st13" x1="433.2" y1="310.8" x2="444.5" y2="314.6"/>
		<line class="st13" x1="444.5" y1="314.6" x2="455.9" y2="318.3"/>
		<line class="st13" x1="455.9" y1="318.3" x2="467.2" y2="322.1"/>
		<line class="st13" x1="467.2" y1="322.1" x2="478.6" y2="325.8"/>
		<line class="st13" x1="478.6" y1="325.8" x2="489.9" y2="329.4"/>
		<line class="st13" x1="489.9" y1="329.4" x2="501.2" y2="333"/>
		<line class="st13" x1="501.2" y1="333" x2="512.6" y2="336.6"/>
		<line class="st13" x1="512.6" y1="336.6" x2="523.9" y2="340.2"/>
		<line class="st13" x1="523.9" y1="340.2" x2="535.3" y2="343.7"/>
		<line class="st13" x1="535.3" y1="343.7" x2="546.6" y2="347.1"/>
		<line class="st13" x1="546.6" y1="347.1" x2="557.9" y2="350.5"/>
		<line class="st13" x1="557.9" y1="350.5" x2="569.3" y2="353.8"/>
		<line class="st13" x1="569.3" y1="353.8" x2="580.6" y2="357.1"/>
		<line class="st13" x1="580.6" y1="357.1" x2="592" y2="360.4"/>
		<line class="st13" x1="592" y1="360.4" x2="603.3" y2="363.6"/>
		<line class="st13" x1="603.3" y1="363.6" x2="614.6" y2="366.7"/>
		<line class="st13" x1="614.6" y1="366.7" x2="626" y2="369.8"/>
		<line class="st13" x1="626" y1="369.8" x2="637.3" y2="372.8"/>
		<line class="st13" x1="637.3" y1="372.8" x2="648.7" y2="375.8"/>
		<line class="st12" x1="648.7" y1="375.8" x2="660" y2="378.7"/>
		<line class="st12" x1="93" y1="199.2" x2="93" y2="181.3"/>
		<line class="st14" x1="93" y1="510" x2="660" y2="510"/>
		<line class="st12" x1="93" y1="50" x2="660" y2="50"/>
		<line class="st16" x1="97.5" y1="326.5" x2="96.7" y2="324.1"/>
	</g>
	<g>
		<line class="st17" x1="96.7" y1="324.1" x2="94.7" y2="322.7"/>
		<line class="st17" x1="94.7" y1="322.7" x2="92.3" y2="322.7"/>
		<line class="st17" x1="92.3" y1="322.7" x2="90.3" y2="324.1"/>
		<line class="st17" x1="90.3" y1="324.1" x2="89.5" y2="326.5"/>
		<line class="st17" x1="89.5" y1="326.5" x2="90.3" y2="328.9"/>
		<line class="st17" x1="90.3" y1="328.9" x2="92.3" y2="330.3"/>
		<line class="st17" x1="92.3" y1="330.3" x2="94.7" y2="330.3"/>
		<line class="st17" x1="94.7" y1="330.3" x2="96.7" y2="328.9"/>
		<line class="st16" x1="96.7" y1="328.9" x2="97.5" y2="326.5"/>
		<line class="st16" x1="664.5" y1="326.5" x2="663.7" y2="324.1"/>
		<line class="st17" x1="663.7" y1="324.1" x2="661.7" y2="322.7"/>
		<line class="st17" x1="661.7" y1="322.7" x2="659.3" y2="322.7"/>
		<line class="st17" x1="659.3" y1="322.7" x2="657.3" y2="324.1"/>
		<line class="st17" x1="657.3" y1="324.1" x2="656.5" y2="326.5"/>
		<line class="st17" x1="656.5" y1="326.5" x2="657.3" y2="328.9"/>
		<line class="st17" x1="657.3" y1="328.9" x2="659.3" y2="330.3"/>
		<line class="st17" x1="659.3" y1="330.3" x2="661.7" y2="330.3"/>
		<line class="st17" x1="661.7" y1="330.3" x2="663.7" y2="328.9"/>
		<line class="st16" x1="663.7" y1="328.9" x2="664.5" y2="326.5"/>
		<line class="st18" x1="89" y1="326.5" x2="98" y2="326.5"/>
		<line class="st19" x1="93.5" y1="331" x2="93.5" y2="322"/>
		<line class="st19" x1="90" y1="330" x2="97" y2="323"/>
		<line class="st18" x1="90" y1="323" x2="97" y2="330"/>
		<line class="st18" x1="475" y1="326.5" x2="484" y2="326.5"/>
		<line class="st19" x1="479.5" y1="331" x2="479.5" y2="322"/>
		<line class="st19" x1="476" y1="330" x2="483" y2="323"/>
		<line class="st18" x1="476" y1="323" x2="483" y2="330"/>
	</g>
	<g transform="translate(359,146)">
		<text transform="matrix(1 0 0 1 0 -1.464844e-05)" class="st5 st8">T</text>
	</g>
	<g transform="translate(382,164)">
		<text transform="matrix(1 0 0 1 0 -1.464844e-05)" class="st5 st9">4,3</text>
	</g>
	<g transform="translate(361,300)">
		<text transform="matrix(1 0 0 1 0 -1.464844e-05)" class="st5 st8">T</text>
	</g>
	<g transform="translate(384,318)">
		<text transform="matrix(1 0 0 1 0 -1.464844e-05)" class="st5 st9">4, 1</text>
	</g>
	<g transform="translate(373,458)">
		<text transform="matrix(1 0 0 1 0 -1.464844e-05)" class="st5 st8">T</text>
	</g>
	<g transform="translate(396,476)">
		<text transform="matrix(1 0 0 1 0 -1.464844e-05)" class="st5 st9">4,2</text>
	</g>
	<g>
		<line class="st20" x1="96.1" y1="326.9" x2="477.8" y2="326.9"/>
		<line class="st21" x1="483.1" y1="326.9" x2="656.1" y2="326.9"/>
		<line class="st22" x1="107.7" y1="344.5" x2="100.5" y2="336.9"/>
		<path class="st22" d="M100.1,343.7l-5.4-13.2l5.9,6.3L100.1,343.7"/>
		<path class="st22" d="M94.6,330.5l12.8,6.3l-6.8,0L94.6,330.5"/>
	</g>
	<g>
		<path class="st23" d="M100.1,343.7l-5.4-13.2l5.9,6.3L100.1,343.7z"/>
		<path class="st23" d="M94.6,330.5l12.8,6.3l-6.8,0L94.6,330.5z"/>
	</g>
	<g>
		<line class="st24" x1="108.5" y1="301.6" x2="100.5" y2="312.9"/>
		<path class="st24" d="M107.3,312l-11.8,8l5-7.1L107.3,312"/>
		<path class="st24" d="M95.5,319.9l3.7-13.8l1.4,6.7L95.5,319.9"/>
	</g>
	<g>
		<path class="st25" d="M107.3,312l-11.8,8l5-7.1L107.3,312z"/>
		<path class="st25" d="M95.5,319.9l3.7-13.8l1.4,6.7L95.5,319.9z"/>
	</g>
	<g>
		<line class="st24" x1="442.2" y1="345.4" x2="463.7" y2="335.5"/>
		<path class="st24" d="M457.4,332.9l14.2-1l-7.9,3.6L457.4,332.9"/>
		<path class="st24" d="M471.6,331.9l-10,10.1l2.2-6.5L471.6,331.9"/>
	</g>
	<g>
		<path class="st25" d="M457.4,332.9l14.2-1l-7.9,3.6L457.4,332.9z"/>
		<path class="st25" d="M471.6,331.9l-10,10.1l2.2-6.5L471.6,331.9z"/>
	</g>
	<g>
		<line class="st22" x1="669.8" y1="352.4" x2="664.3" y2="339.9"/>
		<path class="st22" d="M661.6,346.2l-0.8-14.2l3.5,7.9L661.6,346.2"/>
		<path class="st22" d="M660.8,331.9l9.9,10.2l-6.5-2.3L660.8,331.9"/>
	</g>
	<g>
		<path class="st23" d="M661.6,346.2l-0.8-14.2l3.5,7.9L661.6,346.2z"/>
		<path class="st23" d="M660.8,331.9l9.9,10.2l-6.5-2.3L660.8,331.9z"/>
	</g>
	<g transform="translate(106,377)">
		<text transform="matrix(1 0 0 1 0 -1.464844e-05)" class="st23 st5 st8">q</text>
	</g>
	<g transform="translate(127,395)">
		<text transform="matrix(1 0 0 1 0 -1.464844e-05)" class="st23 st5 st9">t,4</text>
	</g>
	<g transform="translate(127,359)">
		<text transform="matrix(1 0 0 1 0 -1.464844e-05)" class="st23 st5 st9">min</text>
	</g>
	<g transform="translate(101,309)">
		<text transform="matrix(1 0 0 1 0 -1.464844e-05)" class="st25 st5 st8">u</text>
	</g>
	<g transform="translate(122,327)">
		<text transform="matrix(1 0 0 1 0 -1.464844e-05)" class="st25 st5 st9">4,2</text>
	</g>
	<g transform="translate(122,291)">
		<text transform="matrix(1 0 0 1 0 -1.464844e-05)" class="st25 st5 st9">min</text>
	</g>
	<g transform="translate(169,309)">
		<text transform="matrix(1 0 0 1 0 -1.464844e-05)" class="st25 st5 st8"> = v</text>
	</g>
	<g transform="translate(230,327)">
		<text transform="matrix(1 0 0 1 0 -1.464844e-05)" class="st25 st5 st9">4,2</text>
	</g>
	<g transform="translate(230,291)">
		<text transform="matrix(1 0 0 1 0 -1.464844e-05)" class="st25 st5 st9">min</text>
	</g>
	<g transform="translate(386,388)">
		<text transform="matrix(1 0 0 1 0 -1.464844e-05)" class="st25 st5 st8">u</text>
	</g>
	<g transform="translate(407,406)">
		<text transform="matrix(1 0 0 1 0 -1.464844e-05)" class="st25 st5 st9">4,2</text>
	</g>
	<g transform="translate(407,370)">
		<text transform="matrix(1 0 0 1 0 -1.464844e-05)" class="st25 st5 st9">max</text>
	</g>
	<g transform="translate(462,388)">
		<text transform="matrix(1 0 0 1 0 -1.464844e-05)" class="st25 st5 st8"> = v</text>
	</g>
	<g transform="translate(523,406)">
		<text transform="matrix(1 0 0 1 0 -1.464844e-05)" class="st25 st5 st9">4,2</text>
	</g>
	<g transform="translate(523,370)">
		<text transform="matrix(1 0 0 1 0 -1.464844e-05)" class="st25 st5 st9">max</text>
	</g>
	<g transform="translate(664,386)">
		<text transform="matrix(1 0 0 1 0 -1.464844e-05)" class="st23 st5 st8">q</text>
	</g>
	<g transform="translate(685,404)">
		<text transform="matrix(1 0 0 1 0 -1.464844e-05)" class="st23 st5 st9">t,4</text>
	</g>
	<g transform="translate(685,368)">
		<text transform="matrix(1 0 0 1 0 -1.464844e-05)" class="st23 st5 st9">max</text>
	</g>
</g>
</svg>
