<?xml version="1.0" encoding="utf-8"?>
<!-- Generator: Adobe Illustrator 21.1.0, SVG Export Plug-In . SVG Version: 6.00 Build 0)  -->
<svg version="1.1" id="Layer_1" xmlns="http://www.w3.org/2000/svg" xmlns:xlink="http://www.w3.org/1999/xlink" x="0px" y="0px"
	 viewBox="0 0 735 555" style="enable-background:new 0 0 735 555;" xml:space="preserve">
<style type="text/css">
	.st0{clip-path:url(#SVGID_2_);fill:#FFFFFF;}
	.st1{fill:#FFFFFF;}
	.st2{fill:none;stroke:#262626;stroke-width:0.6667;stroke-linejoin:round;stroke-miterlimit:10;}
	.st3{fill:none;stroke:#262626;stroke-width:0.6667;stroke-linecap:square;stroke-linejoin:round;stroke-miterlimit:10;}
	.st4{fill:#262626;}
	.st5{font-family:'MyriadPro-Regular';}
	.st6{font-size:35px;}
	.st7{font-size:38px;}
	.st8{font-size:37px;}
	.st9{font-size:29px;}
	.st10{fill:none;stroke:#FF0000;stroke-width:0.6667;stroke-linejoin:round;stroke-miterlimit:10;}
	.st11{fill:none;stroke:#FF0000;stroke-width:0.6667;stroke-linecap:round;stroke-linejoin:round;stroke-miterlimit:10;}
	.st12{fill:none;stroke:#FF0000;stroke-width:1.6;stroke-linejoin:round;stroke-miterlimit:10;}
	.st13{fill:none;stroke:#FF0000;stroke-width:1.3333;stroke-linejoin:round;stroke-miterlimit:10;}
	.st14{fill:none;stroke:#FF0000;stroke-width:1.6;stroke-linecap:round;stroke-linejoin:round;stroke-miterlimit:10;}
	.st15{fill:none;stroke:#FF00FF;stroke-width:2.6667;stroke-linejoin:round;stroke-miterlimit:10;}
	.st16{fill:none;stroke:#FF00FF;stroke-width:2.6667;stroke-linecap:round;stroke-linejoin:round;stroke-miterlimit:10;}
	.st17{fill:none;stroke:#0000FF;stroke-width:2.6667;stroke-linejoin:round;stroke-miterlimit:10;}
	.st18{fill:none;stroke:#0000FF;stroke-width:2.6667;stroke-linecap:round;stroke-linejoin:round;stroke-miterlimit:10;}
	.st19{fill:none;stroke:#000000;stroke-width:1.3333;stroke-linejoin:bevel;stroke-miterlimit:1;stroke-dasharray:10,6;}
	.st20{fill:none;stroke:#000000;stroke-width:1.3333;stroke-linejoin:round;stroke-miterlimit:10;}
	.st21{fill:#0000FF;}
	.st22{fill:none;stroke:#0000FF;stroke-width:1.3333;stroke-linejoin:round;stroke-miterlimit:10;}
	.st23{fill:none;stroke:#0000FF;stroke-width:0.6667;stroke-linejoin:round;stroke-miterlimit:10;}
	.st24{fill:#FF00FF;}
	.st25{fill:none;stroke:#FF00FF;stroke-width:1.3333;stroke-linejoin:round;stroke-miterlimit:10;}
	.st26{fill:none;stroke:#FF00FF;stroke-width:0.6667;stroke-linejoin:round;stroke-miterlimit:10;}
</style>
<g>
	<g>
		<g>
			<defs>
				<rect id="SVGID_1_" y="0" width="735" height="555"/>
			</defs>
			<clipPath id="SVGID_2_">
				<use xlink:href="#SVGID_1_"  style="overflow:visible;"/>
			</clipPath>
			<rect y="0" class="st0" width="735" height="555"/>
		</g>
	</g>
	<g>
		<rect y="0" class="st1" width="735" height="555"/>
		<path class="st1" d="M96,494h569V42H96V494z"/>
	</g>
	<g>
		<line class="st2" x1="96" y1="494" x2="665" y2="494"/>
		<line class="st3" x1="213.1" y1="494" x2="213.1" y2="488.3"/>
		<line class="st3" x1="380.5" y1="494" x2="380.5" y2="488.3"/>
		<line class="st3" x1="547.9" y1="494" x2="547.9" y2="488.3"/>
	</g>
	<g transform="translate(213.1471,503.6)">
		<text transform="matrix(1 0 0 1 -25.5 36)" class="st4 st5 st6">-10</text>
	</g>
	<g transform="translate(380.5,503.6)">
		<text transform="matrix(1 0 0 1 -10 36)" class="st4 st5 st6">0</text>
	</g>
	<g transform="translate(547.853,503.6)">
		<text transform="matrix(1 0 0 1 -19.5 36)" class="st4 st5 st6">10</text>
	</g>
	<g transform="translate(380.0087,527.6285)">
		<text transform="matrix(1 0 0 1 -11 39)" class="st4 st5 st7">q</text>
	</g>
	<g>
		<line class="st2" x1="96" y1="494" x2="96" y2="42"/>
		<line class="st3" x1="96" y1="494" x2="101.7" y2="494"/>
		<line class="st3" x1="96" y1="381" x2="101.7" y2="381"/>
		<line class="st3" x1="96" y1="268" x2="101.7" y2="268"/>
		<line class="st3" x1="96" y1="155" x2="101.7" y2="155"/>
		<line class="st3" x1="96" y1="42" x2="101.7" y2="42"/>
	</g>
	<g transform="translate(86.4,494)">
		<text transform="matrix(1 0 0 1 -32 14)" class="st4 st5 st6">-1</text>
	</g>
	<g transform="translate(86.4,381)">
		<text transform="matrix(1 0 0 1 -61 14)" class="st4 st5 st6">-0.5</text>
	</g>
	<g transform="translate(86.4,268)">
		<text transform="matrix(1 0 0 1 -20 14)" class="st4 st5 st6">0</text>
	</g>
	<g transform="translate(86.4,155)">
		<text transform="matrix(1 0 0 1 -49 14)" class="st4 st5 st6">0.5</text>
	</g>
	<g transform="translate(86.4,42)">
		<text transform="matrix(1 0 0 1 -20 14)" class="st4 st5 st6">1</text>
	</g>
	<g transform="translate(58.9267,266.2387) rotate(-90)">
		<text transform="matrix(1 0 0 1 -10.9999 -9)" class="st4 st5 st7">p</text>
	</g>
	<g transform="translate(358,19)">
		<text transform="matrix(1 0 0 1 0 -1.464844e-05)" class="st5 st8">T</text>
	</g>
	<g transform="translate(381,37)">
		<text transform="matrix(1 0 0 1 0 -1.464844e-05)" class="st5 st9">4</text>
	</g>
	<g>
		<line class="st10" x1="96" y1="42" x2="107.4" y2="42"/>
		<line class="st11" x1="107.4" y1="42" x2="118.8" y2="42"/>
		<line class="st11" x1="118.8" y1="42" x2="130.1" y2="42"/>
		<line class="st11" x1="130.1" y1="42" x2="141.5" y2="42"/>
		<line class="st11" x1="141.5" y1="42" x2="152.9" y2="42"/>
		<line class="st11" x1="152.9" y1="42" x2="164.3" y2="42"/>
		<line class="st11" x1="164.3" y1="42" x2="175.7" y2="42"/>
		<line class="st11" x1="175.7" y1="42" x2="187" y2="42"/>
		<line class="st11" x1="187" y1="42" x2="198.4" y2="42"/>
		<line class="st11" x1="198.4" y1="42" x2="209.8" y2="42"/>
		<line class="st11" x1="209.8" y1="42" x2="221.2" y2="42"/>
		<line class="st11" x1="221.2" y1="42" x2="232.6" y2="42"/>
		<line class="st11" x1="232.6" y1="42" x2="243.9" y2="42"/>
		<line class="st11" x1="243.9" y1="42" x2="255.3" y2="42"/>
		<line class="st11" x1="255.3" y1="42" x2="266.7" y2="42"/>
		<line class="st11" x1="266.7" y1="42" x2="278.1" y2="42"/>
		<line class="st11" x1="278.1" y1="42" x2="289.5" y2="42"/>
		<line class="st11" x1="289.5" y1="42" x2="300.8" y2="42"/>
		<line class="st11" x1="300.8" y1="42" x2="312.2" y2="42"/>
		<line class="st11" x1="312.2" y1="42" x2="323.6" y2="42"/>
		<line class="st11" x1="323.6" y1="42" x2="335" y2="42"/>
		<line class="st11" x1="335" y1="42" x2="346.4" y2="42"/>
		<line class="st11" x1="346.4" y1="42" x2="357.7" y2="42"/>
		<line class="st11" x1="357.7" y1="42" x2="369.1" y2="42"/>
		<line class="st11" x1="369.1" y1="42" x2="380.5" y2="42"/>
		<line class="st11" x1="380.5" y1="42" x2="391.9" y2="42"/>
		<line class="st11" x1="391.9" y1="42" x2="403.3" y2="42"/>
		<line class="st11" x1="403.3" y1="42" x2="414.6" y2="42"/>
		<line class="st11" x1="414.6" y1="42" x2="426" y2="42"/>
		<line class="st11" x1="426" y1="42" x2="437.4" y2="42"/>
		<line class="st11" x1="437.4" y1="42" x2="448.8" y2="42"/>
		<line class="st11" x1="448.8" y1="42" x2="460.2" y2="42"/>
		<line class="st11" x1="460.2" y1="42" x2="471.5" y2="42"/>
		<line class="st11" x1="471.5" y1="42" x2="482.9" y2="42"/>
		<line class="st11" x1="482.9" y1="42" x2="494.3" y2="42"/>
		<line class="st11" x1="494.3" y1="42" x2="505.7" y2="42"/>
		<line class="st11" x1="505.7" y1="42" x2="517.1" y2="42"/>
		<line class="st11" x1="517.1" y1="42" x2="528.4" y2="42"/>
		<line class="st11" x1="528.4" y1="42" x2="539.8" y2="42"/>
		<line class="st11" x1="539.8" y1="42" x2="551.2" y2="42"/>
		<line class="st11" x1="551.2" y1="42" x2="562.6" y2="42"/>
		<line class="st11" x1="562.6" y1="42" x2="574" y2="42"/>
		<line class="st11" x1="574" y1="42" x2="585.3" y2="42"/>
		<line class="st11" x1="585.3" y1="42" x2="596.7" y2="42"/>
		<line class="st11" x1="596.7" y1="42" x2="608.1" y2="42"/>
		<line class="st11" x1="608.1" y1="42" x2="619.5" y2="42"/>
		<line class="st11" x1="619.5" y1="42" x2="630.9" y2="42"/>
		<line class="st11" x1="630.9" y1="42" x2="642.2" y2="42"/>
		<line class="st10" x1="642.2" y1="42" x2="653.6" y2="42"/>
		<line class="st10" x1="665" y1="347.4" x2="665" y2="268"/>
		<line class="st10" x1="107.4" y1="173.9" x2="107.4" y2="173.9"/>
		<line class="st11" x1="107.4" y1="173.9" x2="118.8" y2="176.8"/>
		<line class="st11" x1="118.8" y1="176.8" x2="130.1" y2="179.8"/>
		<line class="st11" x1="130.1" y1="179.8" x2="141.5" y2="182.8"/>
		<line class="st11" x1="141.5" y1="182.8" x2="152.9" y2="185.9"/>
		<line class="st11" x1="152.9" y1="185.9" x2="164.3" y2="189"/>
		<line class="st11" x1="164.3" y1="189" x2="175.7" y2="192.2"/>
		<line class="st11" x1="175.7" y1="192.2" x2="187" y2="195.4"/>
		<line class="st11" x1="187" y1="195.4" x2="198.4" y2="198.7"/>
		<line class="st11" x1="198.4" y1="198.7" x2="209.8" y2="202.1"/>
		<line class="st11" x1="209.8" y1="202.1" x2="221.2" y2="205.5"/>
		<line class="st11" x1="221.2" y1="205.5" x2="232.6" y2="208.9"/>
		<line class="st11" x1="232.6" y1="208.9" x2="243.9" y2="212.4"/>
		<line class="st11" x1="243.9" y1="212.4" x2="255.3" y2="215.9"/>
		<line class="st11" x1="255.3" y1="215.9" x2="266.7" y2="219.4"/>
		<line class="st11" x1="266.7" y1="219.4" x2="278.1" y2="223"/>
		<line class="st11" x1="278.1" y1="223" x2="289.5" y2="226.7"/>
		<line class="st11" x1="289.5" y1="226.7" x2="300.8" y2="230.3"/>
		<line class="st11" x1="300.8" y1="230.3" x2="312.2" y2="234"/>
		<line class="st11" x1="312.2" y1="234" x2="323.6" y2="237.8"/>
		<line class="st11" x1="323.6" y1="237.8" x2="335" y2="241.5"/>
		<line class="st11" x1="335" y1="241.5" x2="346.4" y2="245.3"/>
		<line class="st11" x1="346.4" y1="245.3" x2="357.7" y2="249.1"/>
		<line class="st11" x1="357.7" y1="249.1" x2="369.1" y2="252.9"/>
		<line class="st11" x1="369.1" y1="252.9" x2="380.5" y2="256.7"/>
		<line class="st11" x1="380.5" y1="256.7" x2="391.9" y2="260.5"/>
		<line class="st11" x1="391.9" y1="260.5" x2="403.3" y2="264.4"/>
		<line class="st11" x1="403.3" y1="264.4" x2="414.6" y2="268.2"/>
		<line class="st11" x1="414.6" y1="268.2" x2="426" y2="272.1"/>
		<line class="st11" x1="426" y1="272.1" x2="437.4" y2="275.9"/>
		<line class="st11" x1="437.4" y1="275.9" x2="448.8" y2="279.7"/>
		<line class="st11" x1="448.8" y1="279.7" x2="460.2" y2="283.6"/>
		<line class="st11" x1="460.2" y1="283.6" x2="471.5" y2="287.4"/>
		<line class="st11" x1="471.5" y1="287.4" x2="482.9" y2="291.2"/>
		<line class="st11" x1="482.9" y1="291.2" x2="494.3" y2="294.9"/>
		<line class="st11" x1="494.3" y1="294.9" x2="505.7" y2="298.7"/>
		<line class="st11" x1="505.7" y1="298.7" x2="517.1" y2="302.4"/>
		<line class="st11" x1="517.1" y1="302.4" x2="528.4" y2="306.1"/>
		<line class="st11" x1="528.4" y1="306.1" x2="539.8" y2="309.8"/>
		<line class="st11" x1="539.8" y1="309.8" x2="551.2" y2="313.4"/>
		<line class="st11" x1="551.2" y1="313.4" x2="562.6" y2="317"/>
		<line class="st11" x1="562.6" y1="317" x2="574" y2="320.5"/>
		<line class="st11" x1="574" y1="320.5" x2="585.3" y2="324"/>
		<line class="st11" x1="585.3" y1="324" x2="596.7" y2="327.5"/>
		<line class="st11" x1="596.7" y1="327.5" x2="608.1" y2="330.9"/>
		<line class="st11" x1="608.1" y1="330.9" x2="619.5" y2="334.3"/>
		<line class="st11" x1="619.5" y1="334.3" x2="630.9" y2="337.7"/>
		<line class="st11" x1="630.9" y1="337.7" x2="642.2" y2="340.9"/>
		<line class="st11" x1="642.2" y1="340.9" x2="653.6" y2="344.2"/>
		<line class="st10" x1="653.6" y1="344.2" x2="665" y2="347.4"/>
		<line class="st12" x1="96" y1="171" x2="96" y2="42"/>
		<line class="st13" x1="665" y1="347.4" x2="665" y2="42"/>
		<line class="st10" x1="96" y1="188.6" x2="107.4" y2="191.8"/>
		<line class="st11" x1="107.4" y1="191.8" x2="118.8" y2="195.1"/>
		<line class="st11" x1="118.8" y1="195.1" x2="130.1" y2="198.3"/>
		<line class="st11" x1="130.1" y1="198.3" x2="141.5" y2="201.7"/>
		<line class="st11" x1="141.5" y1="201.7" x2="152.9" y2="205.1"/>
		<line class="st11" x1="152.9" y1="205.1" x2="164.3" y2="208.5"/>
		<line class="st11" x1="164.3" y1="208.5" x2="175.7" y2="212"/>
		<line class="st11" x1="175.7" y1="212" x2="187" y2="215.5"/>
		<line class="st11" x1="187" y1="215.5" x2="198.4" y2="219"/>
		<line class="st11" x1="198.4" y1="219" x2="209.8" y2="222.6"/>
		<line class="st11" x1="209.8" y1="222.6" x2="221.2" y2="226.2"/>
		<line class="st11" x1="221.2" y1="226.2" x2="232.6" y2="229.9"/>
		<line class="st11" x1="232.6" y1="229.9" x2="243.9" y2="233.6"/>
		<line class="st11" x1="243.9" y1="233.6" x2="255.3" y2="237.3"/>
		<line class="st11" x1="255.3" y1="237.3" x2="266.7" y2="241.1"/>
		<line class="st11" x1="266.7" y1="241.1" x2="278.1" y2="244.8"/>
		<line class="st11" x1="278.1" y1="244.8" x2="289.5" y2="248.6"/>
		<line class="st11" x1="289.5" y1="248.6" x2="300.8" y2="252.4"/>
		<line class="st11" x1="300.8" y1="252.4" x2="312.2" y2="256.3"/>
		<line class="st11" x1="312.2" y1="256.3" x2="323.6" y2="260.1"/>
		<line class="st11" x1="323.6" y1="260.1" x2="335" y2="263.9"/>
		<line class="st11" x1="335" y1="263.9" x2="346.4" y2="267.8"/>
		<line class="st11" x1="346.4" y1="267.8" x2="357.7" y2="271.6"/>
		<line class="st11" x1="357.7" y1="271.6" x2="369.1" y2="275.5"/>
		<line class="st11" x1="369.1" y1="275.5" x2="380.5" y2="279.3"/>
		<line class="st11" x1="380.5" y1="279.3" x2="391.9" y2="283.1"/>
		<line class="st11" x1="391.9" y1="283.1" x2="403.3" y2="286.9"/>
		<line class="st11" x1="403.3" y1="286.9" x2="414.6" y2="290.7"/>
		<line class="st11" x1="414.6" y1="290.7" x2="426" y2="294.5"/>
		<line class="st11" x1="426" y1="294.5" x2="437.4" y2="298.2"/>
		<line class="st11" x1="437.4" y1="298.2" x2="448.8" y2="302"/>
		<line class="st11" x1="448.8" y1="302" x2="460.2" y2="305.7"/>
		<line class="st11" x1="460.2" y1="305.7" x2="471.5" y2="309.3"/>
		<line class="st11" x1="471.5" y1="309.3" x2="482.9" y2="313"/>
		<line class="st11" x1="482.9" y1="313" x2="494.3" y2="316.6"/>
		<line class="st11" x1="494.3" y1="316.6" x2="505.7" y2="320.1"/>
		<line class="st11" x1="505.7" y1="320.1" x2="517.1" y2="323.6"/>
		<line class="st11" x1="517.1" y1="323.6" x2="528.4" y2="327.1"/>
		<line class="st11" x1="528.4" y1="327.1" x2="539.8" y2="330.5"/>
		<line class="st11" x1="539.8" y1="330.5" x2="551.2" y2="333.9"/>
		<line class="st11" x1="551.2" y1="333.9" x2="562.6" y2="337.3"/>
		<line class="st11" x1="562.6" y1="337.3" x2="574" y2="340.6"/>
		<line class="st11" x1="574" y1="340.6" x2="585.3" y2="343.8"/>
		<line class="st11" x1="585.3" y1="343.8" x2="596.7" y2="347"/>
		<line class="st11" x1="596.7" y1="347" x2="608.1" y2="350.1"/>
		<line class="st11" x1="608.1" y1="350.1" x2="619.5" y2="353.2"/>
		<line class="st11" x1="619.5" y1="353.2" x2="630.9" y2="356.2"/>
		<line class="st11" x1="630.9" y1="356.2" x2="642.2" y2="359.2"/>
		<line class="st10" x1="642.2" y1="359.2" x2="653.6" y2="362.1"/>
		<line class="st12" x1="665" y1="494" x2="665" y2="365"/>
		<line class="st10" x1="107.4" y1="494" x2="107.4" y2="494"/>
		<line class="st11" x1="107.4" y1="494" x2="118.8" y2="494"/>
		<line class="st11" x1="118.8" y1="494" x2="130.1" y2="494"/>
		<line class="st11" x1="130.1" y1="494" x2="141.5" y2="494"/>
		<line class="st11" x1="141.5" y1="494" x2="152.9" y2="494"/>
		<line class="st11" x1="152.9" y1="494" x2="164.3" y2="494"/>
		<line class="st11" x1="164.3" y1="494" x2="175.7" y2="494"/>
		<line class="st11" x1="175.7" y1="494" x2="187" y2="494"/>
		<line class="st11" x1="187" y1="494" x2="198.4" y2="494"/>
		<line class="st11" x1="198.4" y1="494" x2="209.8" y2="494"/>
		<line class="st11" x1="209.8" y1="494" x2="221.2" y2="494"/>
		<line class="st11" x1="221.2" y1="494" x2="232.6" y2="494"/>
		<line class="st11" x1="232.6" y1="494" x2="243.9" y2="494"/>
		<line class="st11" x1="243.9" y1="494" x2="255.3" y2="494"/>
		<line class="st11" x1="255.3" y1="494" x2="266.7" y2="494"/>
		<line class="st11" x1="266.7" y1="494" x2="278.1" y2="494"/>
		<line class="st11" x1="278.1" y1="494" x2="289.5" y2="494"/>
		<line class="st11" x1="289.5" y1="494" x2="300.8" y2="494"/>
		<line class="st11" x1="300.8" y1="494" x2="312.2" y2="494"/>
		<line class="st11" x1="312.2" y1="494" x2="323.6" y2="494"/>
		<line class="st11" x1="323.6" y1="494" x2="335" y2="494"/>
		<line class="st11" x1="335" y1="494" x2="346.4" y2="494"/>
		<line class="st11" x1="346.4" y1="494" x2="357.7" y2="494"/>
		<line class="st11" x1="357.7" y1="494" x2="369.1" y2="494"/>
		<line class="st11" x1="369.1" y1="494" x2="380.5" y2="494"/>
		<line class="st11" x1="380.5" y1="494" x2="391.9" y2="494"/>
		<line class="st11" x1="391.9" y1="494" x2="403.3" y2="494"/>
		<line class="st11" x1="403.3" y1="494" x2="414.6" y2="494"/>
		<line class="st11" x1="414.6" y1="494" x2="426" y2="494"/>
		<line class="st11" x1="426" y1="494" x2="437.4" y2="494"/>
		<line class="st11" x1="437.4" y1="494" x2="448.8" y2="494"/>
		<line class="st11" x1="448.8" y1="494" x2="460.2" y2="494"/>
		<line class="st11" x1="460.2" y1="494" x2="471.5" y2="494"/>
		<line class="st11" x1="471.5" y1="494" x2="482.9" y2="494"/>
		<line class="st11" x1="482.9" y1="494" x2="494.3" y2="494"/>
		<line class="st11" x1="494.3" y1="494" x2="505.7" y2="494"/>
		<line class="st11" x1="505.7" y1="494" x2="517.1" y2="494"/>
		<line class="st11" x1="517.1" y1="494" x2="528.4" y2="494"/>
		<line class="st11" x1="528.4" y1="494" x2="539.8" y2="494"/>
		<line class="st11" x1="539.8" y1="494" x2="551.2" y2="494"/>
		<line class="st11" x1="551.2" y1="494" x2="562.6" y2="494"/>
		<line class="st11" x1="562.6" y1="494" x2="574" y2="494"/>
		<line class="st11" x1="574" y1="494" x2="585.3" y2="494"/>
		<line class="st11" x1="585.3" y1="494" x2="596.7" y2="494"/>
		<line class="st11" x1="596.7" y1="494" x2="608.1" y2="494"/>
		<line class="st11" x1="608.1" y1="494" x2="619.5" y2="494"/>
		<line class="st11" x1="619.5" y1="494" x2="630.9" y2="494"/>
		<line class="st11" x1="630.9" y1="494" x2="642.2" y2="494"/>
		<line class="st11" x1="642.2" y1="494" x2="653.6" y2="494"/>
		<line class="st10" x1="653.6" y1="494" x2="665" y2="494"/>
		<line class="st10" x1="96" y1="268" x2="96" y2="188.6"/>
		<line class="st12" x1="96" y1="188.6" x2="96" y2="494"/>
		<line class="st12" x1="96" y1="171" x2="107.4" y2="173.9"/>
		<line class="st14" x1="107.4" y1="173.9" x2="118.8" y2="176.8"/>
		<line class="st14" x1="118.8" y1="176.8" x2="130.1" y2="179.8"/>
		<line class="st14" x1="130.1" y1="179.8" x2="141.5" y2="182.8"/>
		<line class="st14" x1="141.5" y1="182.8" x2="152.9" y2="185.9"/>
		<line class="st14" x1="152.9" y1="185.9" x2="164.3" y2="189"/>
		<line class="st14" x1="164.3" y1="189" x2="175.7" y2="192.2"/>
		<line class="st14" x1="175.7" y1="192.2" x2="187" y2="195.4"/>
		<line class="st14" x1="187" y1="195.4" x2="198.4" y2="198.7"/>
		<line class="st14" x1="198.4" y1="198.7" x2="209.8" y2="202.1"/>
		<line class="st14" x1="209.8" y1="202.1" x2="221.2" y2="205.5"/>
		<line class="st14" x1="221.2" y1="205.5" x2="232.6" y2="208.9"/>
		<line class="st14" x1="232.6" y1="208.9" x2="243.9" y2="212.4"/>
		<line class="st14" x1="243.9" y1="212.4" x2="255.3" y2="215.9"/>
		<line class="st14" x1="255.3" y1="215.9" x2="266.7" y2="219.4"/>
		<line class="st14" x1="266.7" y1="219.4" x2="278.1" y2="223"/>
		<line class="st14" x1="278.1" y1="223" x2="289.5" y2="226.7"/>
		<line class="st14" x1="289.5" y1="226.7" x2="300.8" y2="230.3"/>
		<line class="st14" x1="300.8" y1="230.3" x2="312.2" y2="234"/>
		<line class="st14" x1="312.2" y1="234" x2="323.6" y2="237.8"/>
		<line class="st14" x1="323.6" y1="237.8" x2="335" y2="241.5"/>
		<line class="st14" x1="335" y1="241.5" x2="346.4" y2="245.3"/>
		<line class="st14" x1="346.4" y1="245.3" x2="357.7" y2="249.1"/>
		<line class="st14" x1="357.7" y1="249.1" x2="369.1" y2="252.9"/>
		<line class="st14" x1="369.1" y1="252.9" x2="380.5" y2="256.7"/>
		<line class="st14" x1="380.5" y1="256.7" x2="391.9" y2="260.5"/>
		<line class="st14" x1="391.9" y1="260.5" x2="403.3" y2="264.4"/>
		<line class="st14" x1="403.3" y1="264.4" x2="414.6" y2="268.2"/>
		<line class="st14" x1="414.6" y1="268.2" x2="426" y2="272.1"/>
		<line class="st14" x1="426" y1="272.1" x2="437.4" y2="275.9"/>
		<line class="st14" x1="437.4" y1="275.9" x2="448.8" y2="279.7"/>
		<line class="st14" x1="448.8" y1="279.7" x2="460.2" y2="283.6"/>
		<line class="st14" x1="460.2" y1="283.6" x2="471.5" y2="287.4"/>
		<line class="st14" x1="471.5" y1="287.4" x2="482.9" y2="291.2"/>
		<line class="st14" x1="482.9" y1="291.2" x2="494.3" y2="294.9"/>
		<line class="st14" x1="494.3" y1="294.9" x2="505.7" y2="298.7"/>
		<line class="st14" x1="505.7" y1="298.7" x2="517.1" y2="302.4"/>
		<line class="st14" x1="517.1" y1="302.4" x2="528.4" y2="306.1"/>
		<line class="st14" x1="528.4" y1="306.1" x2="539.8" y2="309.8"/>
		<line class="st14" x1="539.8" y1="309.8" x2="551.2" y2="313.4"/>
		<line class="st14" x1="551.2" y1="313.4" x2="562.6" y2="317"/>
		<line class="st14" x1="562.6" y1="317" x2="574" y2="320.5"/>
		<line class="st14" x1="574" y1="320.5" x2="585.3" y2="324"/>
		<line class="st14" x1="585.3" y1="324" x2="596.7" y2="327.5"/>
		<line class="st14" x1="596.7" y1="327.5" x2="608.1" y2="330.9"/>
		<line class="st14" x1="608.1" y1="330.9" x2="619.5" y2="334.3"/>
		<line class="st14" x1="619.5" y1="334.3" x2="630.9" y2="337.7"/>
		<line class="st14" x1="630.9" y1="337.7" x2="642.2" y2="340.9"/>
		<line class="st12" x1="642.2" y1="340.9" x2="653.6" y2="344.2"/>
		<line class="st12" x1="665" y1="365" x2="665" y2="347.4"/>
		<line class="st12" x1="107.4" y1="191.8" x2="107.4" y2="191.8"/>
		<line class="st14" x1="107.4" y1="191.8" x2="118.8" y2="195.1"/>
		<line class="st14" x1="118.8" y1="195.1" x2="130.1" y2="198.3"/>
		<line class="st14" x1="130.1" y1="198.3" x2="141.5" y2="201.7"/>
		<line class="st14" x1="141.5" y1="201.7" x2="152.9" y2="205.1"/>
		<line class="st14" x1="152.9" y1="205.1" x2="164.3" y2="208.5"/>
		<line class="st14" x1="164.3" y1="208.5" x2="175.7" y2="212"/>
		<line class="st14" x1="175.7" y1="212" x2="187" y2="215.5"/>
		<line class="st14" x1="187" y1="215.5" x2="198.4" y2="219"/>
		<line class="st14" x1="198.4" y1="219" x2="209.8" y2="222.6"/>
		<line class="st14" x1="209.8" y1="222.6" x2="221.2" y2="226.2"/>
		<line class="st14" x1="221.2" y1="226.2" x2="232.6" y2="229.9"/>
		<line class="st14" x1="232.6" y1="229.9" x2="243.9" y2="233.6"/>
		<line class="st14" x1="243.9" y1="233.6" x2="255.3" y2="237.3"/>
		<line class="st14" x1="255.3" y1="237.3" x2="266.7" y2="241.1"/>
		<line class="st14" x1="266.7" y1="241.1" x2="278.1" y2="244.8"/>
		<line class="st14" x1="278.1" y1="244.8" x2="289.5" y2="248.6"/>
		<line class="st14" x1="289.5" y1="248.6" x2="300.8" y2="252.4"/>
		<line class="st14" x1="300.8" y1="252.4" x2="312.2" y2="256.3"/>
		<line class="st14" x1="312.2" y1="256.3" x2="323.6" y2="260.1"/>
		<line class="st14" x1="323.6" y1="260.1" x2="335" y2="263.9"/>
		<line class="st14" x1="335" y1="263.9" x2="346.4" y2="267.8"/>
		<line class="st14" x1="346.4" y1="267.8" x2="357.7" y2="271.6"/>
		<line class="st14" x1="357.7" y1="271.6" x2="369.1" y2="275.5"/>
		<line class="st14" x1="369.1" y1="275.5" x2="380.5" y2="279.3"/>
		<line class="st14" x1="380.5" y1="279.3" x2="391.9" y2="283.1"/>
		<line class="st14" x1="391.9" y1="283.1" x2="403.3" y2="286.9"/>
		<line class="st14" x1="403.3" y1="286.9" x2="414.6" y2="290.7"/>
		<line class="st14" x1="414.6" y1="290.7" x2="426" y2="294.5"/>
		<line class="st14" x1="426" y1="294.5" x2="437.4" y2="298.2"/>
		<line class="st14" x1="437.4" y1="298.2" x2="448.8" y2="302"/>
		<line class="st14" x1="448.8" y1="302" x2="460.2" y2="305.7"/>
		<line class="st14" x1="460.2" y1="305.7" x2="471.5" y2="309.3"/>
		<line class="st14" x1="471.5" y1="309.3" x2="482.9" y2="313"/>
		<line class="st14" x1="482.9" y1="313" x2="494.3" y2="316.6"/>
		<line class="st14" x1="494.3" y1="316.6" x2="505.7" y2="320.1"/>
		<line class="st14" x1="505.7" y1="320.1" x2="517.1" y2="323.6"/>
		<line class="st14" x1="517.1" y1="323.6" x2="528.4" y2="327.1"/>
		<line class="st14" x1="528.4" y1="327.1" x2="539.8" y2="330.5"/>
		<line class="st14" x1="539.8" y1="330.5" x2="551.2" y2="333.9"/>
		<line class="st14" x1="551.2" y1="333.9" x2="562.6" y2="337.3"/>
		<line class="st14" x1="562.6" y1="337.3" x2="574" y2="340.6"/>
		<line class="st14" x1="574" y1="340.6" x2="585.3" y2="343.8"/>
		<line class="st14" x1="585.3" y1="343.8" x2="596.7" y2="347"/>
		<line class="st14" x1="596.7" y1="347" x2="608.1" y2="350.1"/>
		<line class="st14" x1="608.1" y1="350.1" x2="619.5" y2="353.2"/>
		<line class="st14" x1="619.5" y1="353.2" x2="630.9" y2="356.2"/>
		<line class="st14" x1="630.9" y1="356.2" x2="642.2" y2="359.2"/>
		<line class="st14" x1="642.2" y1="359.2" x2="653.6" y2="362.1"/>
		<line class="st12" x1="653.6" y1="362.1" x2="665" y2="365"/>
		<line class="st12" x1="96" y1="188.6" x2="96" y2="171"/>
		<line class="st12" x1="96" y1="494" x2="665" y2="494"/>
		<line class="st12" x1="96" y1="42" x2="665" y2="42"/>
		<line class="st15" x1="661" y1="313.5" x2="670" y2="313.5"/>
	</g>
	<g>
		<line class="st16" x1="665.5" y1="318" x2="665.5" y2="309"/>
		<line class="st16" x1="662" y1="317" x2="669" y2="310"/>
		<line class="st15" x1="662" y1="310" x2="669" y2="317"/>
		<line class="st15" x1="546" y1="313.5" x2="555" y2="313.5"/>
		<line class="st16" x1="550.5" y1="318" x2="550.5" y2="309"/>
		<line class="st16" x1="547" y1="317" x2="554" y2="310"/>
		<line class="st15" x1="547" y1="310" x2="554" y2="317"/>
		<line class="st17" x1="100.5" y1="313.5" x2="99.7" y2="311.1"/>
		<line class="st18" x1="99.7" y1="311.1" x2="97.7" y2="309.7"/>
		<line class="st18" x1="97.7" y1="309.7" x2="95.3" y2="309.7"/>
		<line class="st18" x1="95.3" y1="309.7" x2="93.3" y2="311.1"/>
		<line class="st18" x1="93.3" y1="311.1" x2="92.5" y2="313.5"/>
		<line class="st18" x1="92.5" y1="313.5" x2="93.3" y2="315.9"/>
		<line class="st18" x1="93.3" y1="315.9" x2="95.3" y2="317.3"/>
		<line class="st18" x1="95.3" y1="317.3" x2="97.7" y2="317.3"/>
		<line class="st18" x1="97.7" y1="317.3" x2="99.7" y2="315.9"/>
		<line class="st17" x1="99.7" y1="315.9" x2="100.5" y2="313.5"/>
		<line class="st17" x1="669.5" y1="313.5" x2="668.7" y2="311.1"/>
		<line class="st18" x1="668.7" y1="311.1" x2="666.7" y2="309.7"/>
		<line class="st18" x1="666.7" y1="309.7" x2="664.3" y2="309.7"/>
		<line class="st18" x1="664.3" y1="309.7" x2="662.3" y2="311.1"/>
		<line class="st18" x1="662.3" y1="311.1" x2="661.5" y2="313.5"/>
		<line class="st18" x1="661.5" y1="313.5" x2="662.3" y2="315.9"/>
		<line class="st18" x1="662.3" y1="315.9" x2="664.3" y2="317.3"/>
		<line class="st18" x1="664.3" y1="317.3" x2="666.7" y2="317.3"/>
		<line class="st18" x1="666.7" y1="317.3" x2="668.7" y2="315.9"/>
		<line class="st17" x1="668.7" y1="315.9" x2="669.5" y2="313.5"/>
	</g>
	<g transform="translate(358,141)">
		<text transform="matrix(1 0 0 1 0 -1.464844e-05)" class="st5 st8">T</text>
	</g>
	<g transform="translate(381,159)">
		<text transform="matrix(1 0 0 1 0 -1.464844e-05)" class="st5 st9">4,3</text>
	</g>
	<g>
		<line class="st19" x1="98.5" y1="312.7" x2="664.4" y2="312.7"/>
		<line class="st20" x1="553.6" y1="312.7" x2="663.7" y2="312.7"/>
	</g>
	<g transform="translate(364,285)">
		<text transform="matrix(1 0 0 1 0 -1.464844e-05)" class="st5 st8">T</text>
	</g>
	<g transform="translate(387,303)">
		<text transform="matrix(1 0 0 1 0 -1.464844e-05)" class="st5 st9">4, 1</text>
	</g>
	<g transform="translate(153,411)">
		<text transform="matrix(1 0 0 1 0 -1.464844e-05)" class="st21 st5 st8">q</text>
	</g>
	<g transform="translate(174,393)">
		<text transform="matrix(1 0 0 1 0 -1.464844e-05)" class="st21 st5 st9">min</text>
	</g>
	<g>
		<line class="st22" x1="154" y1="385" x2="104" y2="324.6"/>
		<path class="st23" d="M103.1,331.4l-4.7-13.5l5.5,6.7L103.1,331.4"/>
		<path class="st23" d="M98.4,317.9l12.4,7.1l-6.8-0.4L98.4,317.9"/>
	</g>
	<g>
		<path class="st21" d="M103.1,331.4l-4.7-13.5l5.5,6.7L103.1,331.4z"/>
		<path class="st21" d="M98.4,317.9l12.4,7.1l-6.8-0.4L98.4,317.9z"/>
	</g>
	<g transform="translate(378,443)">
		<text transform="matrix(1 0 0 1 0 -1.464844e-05)" class="st5 st8">T</text>
	</g>
	<g transform="translate(401,461)">
		<text transform="matrix(1 0 0 1 0 -1.464844e-05)" class="st5 st9">4,2</text>
	</g>
	<g transform="translate(479,429)">
		<text transform="matrix(1 0 0 1 0 -1.464844e-05)" class="st24 st5 st8">u</text>
	</g>
	<g transform="translate(500,447)">
		<text transform="matrix(1 0 0 1 0 -1.464844e-05)" class="st24 st5 st9">3</text>
	</g>
	<g transform="translate(500,411)">
		<text transform="matrix(1 0 0 1 0 -1.464844e-05)" class="st24 st5 st9">min</text>
	</g>
	<g transform="translate(547,429)">
		<text transform="matrix(1 0 0 1 0 -1.464844e-05)" class="st24 st5 st8"> = v</text>
	</g>
	<g transform="translate(608,447)">
		<text transform="matrix(1 0 0 1 0 -1.464844e-05)" class="st24 st5 st9">3</text>
	</g>
	<g transform="translate(608,411)">
		<text transform="matrix(1 0 0 1 0 -1.464844e-05)" class="st24 st5 st9">min</text>
	</g>
	<g>
		<line class="st25" x1="568" y1="398" x2="551.3" y2="315.5"/>
		<path class="st26" d="M547.4,321.1l2.3-14.1l1.7,8.5L547.4,321.1"/>
		<path class="st26" d="M549.6,307.1l7.5,12.1l-5.8-3.6L549.6,307.1"/>
	</g>
	<g>
		<path class="st24" d="M547.4,321.1l2.3-14.1l1.7,8.5L547.4,321.1z"/>
		<path class="st24" d="M549.6,307.1l7.5,12.1l-5.8-3.6L549.6,307.1z"/>
	</g>
	<g transform="translate(573,223)">
		<text transform="matrix(1 0 0 1 0 -1.464844e-05)" class="st21 st5 st8"> q</text>
	</g>
	<g transform="translate(604,205)">
		<text transform="matrix(1 0 0 1 0 -1.464844e-05)" class="st21 st5 st9">max</text>
	</g>
	<g transform="translate(353,226)">
		<text transform="matrix(1 0 0 1 0 -1.464844e-05)" class="st24 st5 st8">u</text>
	</g>
	<g transform="translate(374,244)">
		<text transform="matrix(1 0 0 1 0 -1.464844e-05)" class="st24 st5 st9">3</text>
	</g>
	<g transform="translate(374,208)">
		<text transform="matrix(1 0 0 1 0 -1.464844e-05)" class="st24 st5 st9">max</text>
	</g>
	<g transform="translate(429,226)">
		<text transform="matrix(1 0 0 1 0 -1.464844e-05)" class="st24 st5 st8"> = v</text>
	</g>
	<g transform="translate(490,244)">
		<text transform="matrix(1 0 0 1 0 -1.464844e-05)" class="st24 st5 st9">3</text>
	</g>
	<g transform="translate(490,208)">
		<text transform="matrix(1 0 0 1 0 -1.464844e-05)" class="st24 st5 st9">max</text>
	</g>
	<g transform="translate(545,226)">
		<text transform="matrix(1 0 0 1 0 -1.464844e-05)" class="st24 st5 st8"> =</text>
	</g>
	<g>
		<line class="st25" x1="571" y1="232" x2="656.9" y2="300.9"/>
		<path class="st26" d="M656.4,294.1l7.3,12.2l-6.8-5.4L656.4,294.1"/>
		<path class="st26" d="M663.6,306.4l-13.5-4.4l6.8-1L663.6,306.4"/>
	</g>
	<g>
		<path class="st24" d="M656.4,294.1l7.3,12.2l-6.8-5.4L656.4,294.1z"/>
		<path class="st24" d="M663.6,306.4l-13.5-4.4l6.8-1L663.6,306.4z"/>
	</g>
</g>
</svg>
